<svg width="128" height="128" viewBox="0 0 128 128" fill="none" xmlns="http://www.w3.org/2000/svg">
<path fill-rule="evenodd" clip-rule="evenodd" d="M100.921 13.647C100.396 13.8587 100.29 14.2715 100.29 16.1154V17.873L96.2835 17.9161C92.5835 17.9559 92.2535 17.9806 91.9694 18.2378C91.6832 18.4971 91.6618 18.6667 91.6618 20.6869V22.8574H89.2651C87.1933 22.8574 86.828 22.8921 86.5708 23.1133C86.339 23.3128 85.8685 24.9832 84.44 30.6799C83.4317 34.7008 81.9408 40.6224 81.1265 43.8391C80.3124 47.0558 79.4506 50.4772 79.2115 51.4423C78.9724 52.4073 78.7094 53.4106 78.6271 53.672L78.4775 54.1472H77.1726H75.8678V51.3773C75.8678 48.6601 75.8611 48.5996 75.515 48.1972L75.1621 47.7869L65.8997 47.7432C60.8054 47.7192 56.3572 47.7397 56.0147 47.7888C55.0357 47.9293 54.9554 48.2058 54.9554 51.4349V54.1472H51.7381H48.5208V49.5415C48.5208 45.1306 48.5084 44.9233 48.2284 44.6433C47.9569 44.3719 47.7409 44.3509 45.2304 44.3509H42.525V42.5487C42.525 39.8862 43.0795 40.1107 36.4993 40.1107C31.6159 40.1107 31.1248 40.1329 30.854 40.3666C30.6909 40.5072 29.4527 42.0041 28.1023 43.6929C24.002 48.8212 21.1034 52.4269 20.4643 53.1942L19.8577 53.9225V61.8347C19.8577 69.6921 19.8599 69.7487 20.1655 70.0253C20.4558 70.288 20.8017 70.3057 26.2711 70.3382L32.0688 70.3726L32.1567 70.7768C32.2933 71.4061 32.7011 72.2896 33.0907 72.8002C33.2858 73.0559 33.4056 73.3049 33.357 73.3536C33.3083 73.4023 29.3512 73.4433 24.5634 73.4451C16.6762 73.4479 15.8333 73.4708 15.5913 73.6897C15.2297 74.0168 15.2435 74.8289 15.6167 75.202C15.9077 75.493 16.1041 75.4944 56.8566 75.4944H97.8039V79.7346C97.8039 83.6903 97.7865 83.9748 97.5457 83.9748C96.9495 83.9748 93.0855 85.0671 89.5414 86.2372C84.3568 87.9492 81.2865 88.875 77.6227 89.8311C74.9285 90.5341 70.9186 91.2279 67.8246 91.5262C61.6941 92.1172 56.6966 91.3235 48.0695 88.3889C45.945 87.6662 42.068 86.3429 39.4539 85.4482C36.8399 84.5536 33.6153 83.5263 32.2881 83.1653C27.0024 81.7277 22.0824 80.9666 17.5554 80.8864C15.6252 80.8521 15.3242 80.9953 15.3242 81.9472C15.3242 82.8095 15.5641 82.887 18.834 83.0815C20.4024 83.1748 21.9709 83.2917 22.3193 83.3414L22.9529 83.4316L19.1386 87.2553C15.7384 90.6637 15.3242 91.1298 15.3242 91.5477C15.3242 92.1586 15.7695 92.6015 16.3836 92.6015C16.8105 92.6015 17.2969 92.1628 21.2461 88.2162L25.6342 83.8308L27.6816 84.2525C30.1456 84.76 30.972 84.9758 30.972 85.1118C30.972 85.1681 27.4512 88.7364 23.1481 93.0414C17.3625 98.8297 15.3242 100.956 15.3242 101.204C15.3242 101.694 15.5838 102.1 15.9982 102.258C16.4441 102.427 16.9215 102.223 18.2438 101.299C22.1871 98.5423 27.3559 97.2648 32.8283 97.6944C36.711 97.9991 39.4943 98.5193 46.766 100.3C58.5078 103.175 64.6734 103.945 71.7731 103.424C79.046 102.891 84.3361 101.566 93.0108 98.1033C95.1602 97.2454 97.1181 96.5036 97.3614 96.4549L97.8039 96.3665V104.182V111.997L98.1336 112.307C98.4418 112.596 98.6447 112.619 101.269 112.659C103.926 112.7 104.097 112.687 104.486 112.396L104.897 112.09L104.934 104.102L104.972 96.1156L105.3 96.0406C105.48 95.9992 107.503 95.7376 109.796 95.4591C113.549 95.0032 113.989 94.9216 114.219 94.6382C114.732 94.0086 114.453 93.1502 113.673 92.9544C113.484 92.907 111.984 93.0385 110.339 93.2466C108.695 93.4548 107.259 93.625 107.148 93.625C107.037 93.625 108.162 92.4089 109.647 90.9225L112.347 88.2202L113.101 88.3088C113.744 88.3844 113.9 88.3519 114.165 88.0868C114.336 87.916 114.475 87.5904 114.475 87.3632C114.475 86.5226 114.661 86.5962 105.664 83.8709L104.97 83.6605V79.5775V75.4944H109.419H113.869L114.172 75.1092C114.526 74.6596 114.559 74.2032 114.268 73.8043C114.072 73.5369 113.8 73.5163 109.552 73.4474L105.043 73.3743L104.97 62.4318L104.897 51.4895L104.551 51.2099C104.299 51.0055 103.975 50.9305 103.345 50.9305H102.484L102.482 32.7634C102.481 22.7715 102.439 14.4456 102.39 14.2615C102.341 14.0773 102.114 13.8306 101.887 13.7132C101.421 13.472 101.365 13.4682 100.921 13.647ZM100.29 35.5049V50.9305H99.4323C98.7867 50.9305 98.4796 51.0052 98.1902 51.2329L97.8058 51.5351L97.7683 62.4548L97.7308 73.3743L93.5264 73.4039C89.7076 73.4308 88.9948 73.3743 89.4665 73.0829C89.7356 72.9167 90.4033 71.6442 90.5738 70.9723L90.7436 70.3043L91.9182 70.304C92.8677 70.3038 93.1519 70.2505 93.4011 70.0253L93.7092 69.7468V44.9131V20.0794H96.9996H100.29V35.5049ZM91.5975 25.0939C91.6376 25.1982 91.6519 26.2234 91.6295 27.3725L91.5887 29.4615L90.0532 28.2581C87.6924 26.408 87.7189 26.4378 87.8828 25.8056C87.9593 25.5109 88.049 25.1878 88.0823 25.0872C88.1703 24.8217 91.4954 24.828 91.5975 25.0939ZM89.5899 30.6068C90.1611 31.0491 90.6305 31.4498 90.6333 31.4975C90.6393 31.6037 85.9245 34.1307 85.8533 34.0595C85.8252 34.0314 86.1006 32.8447 86.4653 31.4224C86.83 29.9998 87.1284 28.8038 87.1284 28.7643C87.1284 28.725 87.4487 28.9424 87.84 29.2476C88.2313 29.5529 89.0188 30.1645 89.5899 30.6068ZM91.6618 37.2595C91.6618 39.3102 91.6126 40.9865 91.5522 40.9846C91.4918 40.9827 91.204 40.7689 90.9125 40.5094C90.6209 40.2499 89.4245 39.248 88.2537 38.283C86.637 36.9504 86.1665 36.4882 86.2976 36.3613C86.3926 36.2693 87.3916 35.7149 88.5177 35.129C89.6437 34.5431 90.7625 33.9443 91.0038 33.798C91.2451 33.6518 91.4918 33.5319 91.5522 33.5316C91.6126 33.5313 91.6618 35.2089 91.6618 37.2595ZM88.5542 41.325C89.62 42.2105 90.4909 42.9738 90.4896 43.0215C90.4869 43.1212 82.8832 46.1503 82.8134 46.0794C82.773 46.0382 84.544 38.8908 84.7213 38.3802C84.767 38.2481 85.0845 38.4324 85.7027 38.95C86.2053 39.371 87.4884 40.4397 88.5542 41.325ZM39.9238 42.2839L40.4666 42.3039L40.4526 48.9695C40.4387 55.5335 40.4431 55.6398 40.7425 55.9391C41.1591 56.3556 41.9059 56.3413 42.2553 55.91C42.5047 55.6022 42.525 55.2298 42.525 50.9831V46.3894L44.4627 46.4302L46.4004 46.471V57.2908V68.1106L45.4255 68.1536L44.4505 68.1966L44.223 67.4226C43.6989 65.6392 42.1945 64.0539 40.3488 63.34C39.1607 62.8803 37.3542 62.8942 36.1635 63.3718C35.2869 63.7236 35.2796 63.7239 28.5956 63.7635L21.905 63.803V59.3242V54.8454L25.3274 50.585C27.2096 48.2419 29.4679 45.4365 30.3458 44.3509L31.942 42.377L34.1989 42.3039C36.2406 42.2378 38.4689 42.2299 39.9238 42.2839ZM33.4402 45.033C33.3098 45.0678 32.9826 45.3726 32.713 45.7105C32.4434 46.0483 32.1701 46.3906 32.1055 46.471C32.041 46.5514 31.2495 47.5411 30.3466 48.6703C29.4439 49.7997 28.3591 51.1485 27.9362 51.6677C25.2044 55.0216 25.1101 55.2005 25.6943 55.9221L25.9736 56.2673L31.2131 56.311C34.0948 56.335 36.603 56.3169 36.7869 56.2707C36.9711 56.2245 37.2514 56.0569 37.4102 55.8981C37.6865 55.6219 37.699 55.3929 37.699 50.6315V45.6535L37.34 45.2947C36.999 44.9536 36.8993 44.9366 35.3292 44.9527C34.4208 44.9621 33.5707 44.9982 33.4402 45.033ZM91.6618 49.1759V53.2699L90.4353 52.5023C85.7436 49.566 83.6303 48.2153 83.6249 48.1497C83.6214 48.108 84.1285 47.88 84.752 47.6433C85.3754 47.4066 87.0699 46.7375 88.5177 46.1565C89.9654 45.5754 91.2652 45.096 91.4059 45.091C91.6437 45.0825 91.6618 45.371 91.6618 49.1759ZM35.5054 50.6381V54.1472H32.1419C30.292 54.1472 28.7784 54.1263 28.7784 54.1006C28.7784 54.075 29.3066 53.4006 29.9521 52.6019C30.5976 51.8033 31.8314 50.2471 32.6941 49.1438L34.2624 47.1376L34.8839 47.1333L35.5054 47.1289V50.6381ZM85.7306 52.0597C87.4149 53.1315 88.8243 54.0396 88.8625 54.0778C88.9008 54.1159 87.0857 54.1472 84.8289 54.1472H80.7258L81.1564 52.4292C81.3933 51.4844 81.6531 50.4594 81.734 50.1518L81.881 49.5922L82.2745 49.8517C82.4909 49.9944 84.0462 50.988 85.7306 52.0597ZM73.6742 52.0271V54.1472H65.4116H57.149V52.0271V49.907H65.4116H73.6742V52.0271ZM102.922 81.5541C102.92 97.1908 102.88 110.087 102.832 110.212C102.761 110.397 102.472 110.44 101.298 110.44H99.8513V81.7816V53.1237H101.388H102.924L102.922 81.5541ZM91.5573 56.3371C91.6205 56.339 91.6534 57.0149 91.6304 57.8391L91.5887 59.3378H70.0913H48.594L48.5523 57.8401L48.5106 56.3425L58.2042 56.3049C65.3176 56.2773 90.3433 56.3014 91.5573 56.3371ZM91.6281 64.7843L91.5887 68.1106H91.1762C90.803 68.1106 90.7358 68.028 90.4713 67.2449C89.7165 65.0094 87.8808 63.4793 85.4449 63.0553C82.531 62.5479 79.3946 64.5331 78.5566 67.4154L78.3297 68.196L77.3073 68.1533L76.2849 68.1106L75.9974 67.2576C75.623 66.1471 75.1927 65.4842 74.3157 64.6666C70.9509 61.5303 65.5185 62.9911 64.0902 67.4161L63.8425 68.1837H56.1817H48.5208V64.8208V61.4579H70.0941H91.6674L91.6281 64.7843ZM40.0134 65.5623C41.0583 66.0843 41.6832 66.7761 42.0892 67.8603C42.6801 69.4384 42.342 70.8771 41.0861 72.1284C40.1613 73.0499 39.3543 73.3727 38.0516 73.3422C36.631 73.309 35.2239 72.3954 34.5688 71.0808C34.0742 70.0886 34.036 68.5066 34.4835 67.5546C35.4997 65.3931 37.9256 64.519 40.0134 65.5623ZM71.565 65.4225C73.165 66.0209 74.1602 67.4663 74.1713 69.2072C74.1953 72.9472 69.6131 74.7746 67.0857 72.033C65.9782 70.8318 65.6607 69.3147 66.2114 67.8564C67.0481 65.6406 69.3503 64.5939 71.565 65.4225ZM86.0153 65.4121C88.1927 66.2267 89.2603 68.7894 88.3115 70.9241C87.1158 73.6143 83.4946 74.1746 81.517 71.9754C79.8911 70.1674 80.1387 67.4421 82.0598 65.9974C83.29 65.0723 84.5918 64.8796 86.0153 65.4121ZM32.8264 66.0271C32.5786 66.6084 32.1476 67.7084 32.0816 67.9279C32.0104 68.1652 31.6377 68.1837 26.9549 68.1837H21.905V67.014V65.8443H27.4047C31.7485 65.8443 32.888 65.8828 32.8264 66.0271ZM63.8396 70.4477C63.9402 70.4841 64.0224 70.6441 64.0224 70.8032C64.0224 70.9621 64.2856 71.6009 64.6073 72.2225C64.9291 72.8442 65.1923 73.3742 65.1923 73.4004C65.1923 73.4265 60.2238 73.4461 54.1511 73.4438C48.0785 73.4414 43.1099 73.4113 43.1099 73.3768C43.1099 73.3423 43.3065 72.9809 43.5468 72.5735C43.7869 72.1662 44.0903 71.5062 44.2209 71.1068L44.4584 70.3809L49.0855 70.3424C54.7741 70.2949 63.5915 70.3579 63.8396 70.4477ZM78.6277 71.2351C78.7998 71.7072 79.1049 72.3352 79.3054 72.6307C79.506 72.9262 79.6701 73.2309 79.6701 73.3077C79.6701 73.4841 75.0382 73.4969 74.9294 73.3208C74.8863 73.2511 74.9761 73.0809 75.129 72.9426C75.366 72.7282 75.9442 71.5006 76.2169 70.6328C76.2833 70.4217 76.4736 70.3769 77.3061 70.3769H78.3147L78.6277 71.2351ZM111.843 76.4157C110.773 76.9539 111.131 78.5467 112.325 78.5602C112.864 78.5664 113.452 77.976 113.452 77.4274C113.452 76.6709 112.512 76.0796 111.843 76.4157ZM25.6741 76.6276C25.1722 77.1991 25.2407 77.9168 25.8408 78.3775C26.2253 78.6725 26.8601 78.5953 27.2494 78.206C27.6881 77.7675 27.7074 77.268 27.3053 76.757C26.9365 76.2881 26.0352 76.2166 25.6741 76.6276ZM76.4635 76.757C76.0613 77.268 76.0806 77.7675 76.5194 78.206C77.2427 78.9293 78.4124 78.4896 78.4124 77.4945C78.4124 76.777 78.0174 76.3717 77.3183 76.3717C76.8964 76.3717 76.6951 76.4624 76.4635 76.757ZM86.2227 76.6276C85.877 77.03 85.8122 77.3516 85.9799 77.8328C86.2582 78.631 87.1785 78.8205 87.793 78.206C88.5314 77.4679 88.057 76.3717 86.9991 76.3717C86.6502 76.3717 86.3605 76.4672 86.2227 76.6276ZM94.1827 76.6631C93.7406 77.075 93.7544 77.7461 94.2145 78.206C95.158 79.1495 96.5262 78.1324 95.9272 76.933C95.7196 76.5171 95.5966 76.4384 95.0967 76.4015C94.6627 76.3695 94.4248 76.4377 94.1827 76.6631ZM33.776 77.2949C33.0815 78.0342 33.5594 79.2083 34.5549 79.2083C35.2267 79.2083 35.6517 78.7585 35.6517 78.0476C35.6517 77.1021 34.4212 76.6083 33.776 77.2949ZM39.6667 77.3155C39.4693 77.5129 39.3077 77.833 39.3077 78.0269C39.3077 78.4387 39.7827 79.0952 40.1696 79.2179C40.8612 79.4374 41.762 78.6024 41.5868 77.9043C41.3521 76.9691 40.3273 76.6549 39.6667 77.3155ZM106.791 77.3155C106.402 77.7048 106.325 78.3395 106.62 78.7239C107.272 79.5732 108.434 79.3133 108.698 78.259C108.769 77.9734 108.696 77.7664 108.403 77.4183C107.916 76.8389 107.307 76.8 106.791 77.3155ZM20.0705 77.7542C19.347 78.4773 19.7868 79.6469 20.7821 79.6469C21.4997 79.6469 21.905 79.252 21.905 78.5529C21.905 77.5312 20.7822 77.0424 20.0705 77.7542ZM46.2301 77.7714C45.9162 78.0855 45.8682 78.2368 45.9409 78.6848C46.1376 79.8965 47.6561 80.0508 48.0924 78.9036C48.5211 77.776 47.0935 76.9082 46.2301 77.7714ZM53.3801 77.5751C52.3872 78.0536 53.0729 79.9452 54.142 79.6769C55.0887 79.4393 55.4075 78.4187 54.7427 77.7542C54.3608 77.3723 53.9211 77.3145 53.3801 77.5751ZM60.7254 77.7542C59.8776 78.6016 60.7625 80.0215 61.875 79.5987C62.7821 79.2537 62.9305 78.1158 62.1299 77.6429C61.5506 77.3008 61.1467 77.3328 60.7254 77.7542ZM69.4998 77.7542C69.0059 78.2478 69.0223 78.9077 69.5402 79.3877C70.2652 80.0594 71.3344 79.562 71.3344 78.5529C71.3344 77.5312 70.2116 77.0424 69.4998 77.7542ZM82.9422 77.5392C82.7714 77.6082 82.5601 77.8697 82.4727 78.1203C82.0423 79.3546 83.457 80.2205 84.3457 79.2666C85.1927 78.3577 84.1361 77.0572 82.9422 77.5392ZM90.5848 77.6983C89.7756 78.3346 90.2547 79.6469 91.2962 79.6469C92.3171 79.6469 92.7687 78.4886 92.034 77.7542C91.5954 77.3155 91.0959 77.2962 90.5848 77.6983ZM65.6975 78.426C65.5397 78.6003 65.4263 78.9445 65.4263 79.2491C65.4263 80.2442 66.5961 80.6839 67.3194 79.9605C67.7581 79.522 67.7774 79.0226 67.3752 78.5116C66.9862 78.0171 66.1083 77.9722 65.6975 78.426ZM29.959 78.9502C29.5568 79.4612 29.5761 79.9607 30.0148 80.3992C30.7645 81.1488 31.9079 80.7032 31.9079 79.6615C31.9079 78.9715 31.5021 78.5649 30.8137 78.5649C30.3918 78.5649 30.1906 78.6556 29.959 78.9502ZM56.8453 80.0158C56.6102 80.2509 56.4178 80.5849 56.4178 80.7581C56.4178 81.201 57.1875 81.9278 57.6564 81.9278C58.1871 81.9278 58.7577 81.3218 58.7577 80.7581C58.7577 80.1945 58.1871 79.5884 57.6564 79.5884C57.4273 79.5884 57.1005 79.7608 56.8453 80.0158ZM74.0398 80.1959C73.2933 80.6042 73.1579 81.4247 73.7408 82.0075C74.2286 82.4953 74.7664 82.4668 75.3091 81.9242C75.8307 81.4026 75.7938 80.89 75.1962 80.356C74.7917 79.9948 74.4853 79.9524 74.0398 80.1959ZM80.3011 80.1711C79.6078 80.4572 79.4622 81.4408 80.0291 82.0075C80.2266 82.2049 80.5585 82.3665 80.7669 82.3665C81.6382 82.3665 82.2343 80.9912 81.6078 80.4267C81.2679 80.1203 80.6954 80.0085 80.3011 80.1711ZM35.8908 80.915C35.0534 81.5736 35.6863 83.098 36.7121 82.8929C37.3916 82.7569 37.699 82.4071 37.699 81.7696C37.699 81.1512 37.1882 80.6119 36.6022 80.6119C36.4228 80.6119 36.1027 80.7483 35.8908 80.915ZM50.3686 80.915C49.8243 81.343 49.8243 82.2203 50.3686 82.6482C50.8797 83.0503 51.3793 83.031 51.8178 82.5924C52.5363 81.874 52.0662 80.6119 51.0801 80.6119C50.9006 80.6119 50.5805 80.7483 50.3686 80.915ZM85.3201 81.0612C84.6923 81.555 84.8052 82.5088 85.5363 82.8867C86.6709 83.4735 87.6791 82.0265 86.7694 81.1171C86.3308 80.6785 85.8312 80.6591 85.3201 81.0612ZM93.1811 81.1006C92.8967 81.3452 92.7831 81.5813 92.7831 81.9278C92.7831 82.5019 93.3739 83.0976 93.9433 83.0976C94.4568 83.0976 95.0254 82.4829 95.0254 81.9278C95.0254 81.3728 94.4568 80.7581 93.9433 80.7581C93.7431 80.7581 93.4001 80.9122 93.1811 81.1006ZM107.124 81.1959C106.566 81.6356 106.558 82.5069 107.11 82.9407C107.621 83.3428 108.121 83.3235 108.559 82.8848C109.556 81.8882 108.23 80.3268 107.124 81.1959ZM111.658 81.3795C111.341 81.6207 111.097 82.2984 111.211 82.621C111.632 83.8061 113.452 83.5565 113.452 82.3139C113.452 81.4858 112.305 80.8884 111.658 81.3795ZM89.367 81.6382C88.8672 81.8373 88.549 82.4277 88.6626 82.9452C88.8894 83.9776 90.2342 84.1662 90.7167 83.2332C91.0081 82.6699 90.9866 82.4444 90.6016 82.021C90.2095 81.5897 89.8041 81.4641 89.367 81.6382ZM40.6493 82.12C40.2492 82.5459 40.2436 83.0927 40.6345 83.5896C40.8703 83.8895 41.0655 83.9748 41.514 83.9748C42.0067 83.9748 42.1332 83.9058 42.3841 83.4996C42.57 83.1986 42.6474 82.8905 42.595 82.6589C42.4013 81.8005 41.2493 81.4816 40.6493 82.12ZM62.1673 82.3643C61.4805 82.6478 61.3141 83.7153 61.8747 84.2418C62.3007 84.6419 62.8476 84.6474 63.3445 84.2566C64.3271 83.484 63.3317 81.8838 62.1673 82.3643ZM69.9648 82.5234C69.337 83.0171 69.4499 83.9709 70.181 84.3489C70.9846 84.7644 71.7731 84.2424 71.7731 83.2949C71.7731 82.7617 71.2206 82.2203 70.6763 82.2203C70.4969 82.2203 70.1768 82.3567 69.9648 82.5234ZM65.7939 82.9148C64.9963 83.5768 65.4726 84.9008 66.5084 84.9008C67.0826 84.9008 67.6784 84.3101 67.6784 83.7408C67.6784 82.8838 66.4696 82.3539 65.7939 82.9148ZM54.5898 82.9799C54.171 83.2173 54.0828 83.3941 54.0802 84.0007C54.0761 85.0083 55.206 85.4922 55.9126 84.7856C56.4015 84.2969 56.3899 83.6318 55.8846 83.1637C55.4667 82.7765 55.0524 82.7175 54.5898 82.9799ZM45.185 83.6881C44.7816 84.0637 44.7452 84.9925 45.1208 85.3276C45.8362 85.966 47.0584 85.4738 47.0584 84.5474C47.0584 83.5953 45.8698 83.0502 45.185 83.6881ZM77.6504 84.273C77.2346 84.6601 77.2206 85.4735 77.6227 85.8756C77.8038 86.0566 78.1102 86.168 78.4271 86.168C79.0882 86.168 79.5239 85.7426 79.5239 85.0969C79.5239 84.1326 78.3535 83.6179 77.6504 84.273ZM59.1233 84.8219C58.2991 84.9922 58.006 86.1577 58.6391 86.7472C59.5511 87.5967 60.9658 86.4106 60.3694 85.2965C60.2028 84.9853 59.5449 84.7347 59.1233 84.8219ZM83.0336 84.8961C82.4952 85.1669 82.2669 85.73 82.4651 86.2985C82.7483 87.111 83.6635 87.3062 84.2833 86.6864C84.7308 86.2391 84.7416 85.7088 84.3132 85.2377C83.8902 84.7724 83.4914 84.666 83.0336 84.8961ZM50.3034 85.8813C49.8876 86.2685 49.8736 87.0819 50.2757 87.484C50.4568 87.665 50.7632 87.7764 51.0801 87.7764C51.7412 87.7764 52.1769 87.3509 52.1769 86.7052C52.1769 85.741 51.0065 85.2263 50.3034 85.8813ZM73.528 85.8756C73.347 86.0566 73.2355 86.3629 73.2355 86.6798C73.2355 87.3408 73.6611 87.7764 74.3069 87.7764C75.2978 87.7764 75.8023 86.5695 75.0907 85.9011C74.6599 85.4965 73.9193 85.4844 73.528 85.8756ZM34.7659 86.1043C36.542 86.6365 38.1922 87.2019 38.3204 87.3224C38.3807 87.379 36.6211 89.2314 34.4102 91.4389L30.3907 95.4526L28.7589 95.5567C27.114 95.6617 24.7905 96.0609 23.4406 96.4704C23.0384 96.5925 22.6439 96.693 22.5637 96.6938C22.4836 96.6947 24.8856 94.2282 27.9015 91.2129C30.9174 88.1975 33.4142 85.7301 33.4497 85.7298C33.4854 85.7296 34.0777 85.8981 34.7659 86.1043ZM107.315 86.6241C108.398 86.9554 109.432 87.2592 109.613 87.2992C109.794 87.3391 109.942 87.4142 109.942 87.4661C109.942 87.5179 108.823 88.6774 107.456 90.0427L104.97 92.5251V89.2735C104.97 86.7165 105.01 86.0218 105.158 86.0218C105.262 86.0218 106.233 86.2929 107.315 86.6241ZM91.5886 92.4514L85.3004 98.735L83.0591 99.3367C80.7175 99.9652 76.8667 100.792 76.7517 100.69C76.6327 100.585 88.36 88.928 88.737 88.7765C89.4001 88.5102 94.9303 86.7747 96.0491 86.4818C98.1957 85.9198 98.4037 85.6414 91.5886 92.4514ZM55.7532 87.1119C55.0847 87.7801 55.4161 88.8508 56.3471 89.0302C57.4271 89.2383 58.0752 87.7423 57.2024 87.056C56.6913 86.6539 56.1918 86.6732 55.7532 87.1119ZM64.033 87.5768C63.8663 87.7887 63.7299 88.1087 63.7299 88.2881C63.7299 88.8324 64.2714 89.3848 64.8047 89.3848C65.7524 89.3848 66.2745 88.5964 65.8589 87.7929C65.4808 87.062 64.5269 86.9491 64.033 87.5768ZM68.4263 87.4474C67.6088 88.126 68.0731 89.3848 69.1408 89.3848C70.1746 89.3848 70.6686 88.2671 69.9517 87.5505C69.5254 87.1241 68.8691 87.0798 68.4263 87.4474ZM45.3543 89.7583C45.5785 89.8474 45.0726 90.4178 42.3814 93.1106L39.138 96.3557L38.382 96.2273C37.9662 96.1566 36.7192 95.9854 35.6109 95.847C34.5027 95.7084 33.5847 95.5335 33.571 95.4583C33.5572 95.3832 35.1549 93.6991 37.1214 91.7161L40.697 88.1108L42.8906 88.8809C44.0971 89.3045 45.2057 89.6993 45.3543 89.7583ZM61.0758 88.3816C60.8627 88.4588 60.6084 88.7148 60.5107 88.9505C60.1359 89.8554 60.7869 90.6728 61.7403 90.4939C62.3691 90.3759 62.6184 90.0771 62.6184 89.4409C62.6184 88.6171 61.8608 88.0969 61.0758 88.3816ZM97.8039 91.7973C97.8039 94.0937 97.7902 94.2098 97.518 94.2098C97.1646 94.2098 94.6763 95.1011 92.2556 96.0948C91.255 96.5057 90.3784 96.8417 90.3078 96.8417C90.237 96.8417 91.8606 95.1639 93.9159 93.1132C95.971 91.0626 97.6865 89.3848 97.7282 89.3848C97.7699 89.3848 97.8039 90.4704 97.8039 91.7973ZM78.5713 95.7307L73.0874 101.199L71.443 101.297C70.5388 101.351 69.0257 101.373 68.0807 101.348L66.3625 101.301L70.6721 96.9879L74.9815 92.6746L78.5322 91.7715C80.4853 91.275 82.4779 90.7387 82.9605 90.5799C83.4431 90.4211 83.8868 90.2847 83.9465 90.2767C84.0063 90.2686 81.5873 92.723 78.5713 95.7307ZM50.6386 91.494C51.8434 91.8721 52.8569 92.2092 52.8905 92.2428C52.9243 92.2764 51.6232 93.6247 49.9993 95.2389C47.897 97.3288 46.9749 98.1525 46.7968 98.1001C46.6592 98.0596 45.4937 97.7823 44.2067 97.4837C42.9198 97.1853 41.8371 96.9162 41.8005 96.886C41.7639 96.8556 43.113 95.4484 44.7984 93.7586C47.1264 91.4247 47.9331 90.701 48.1552 90.7466C48.3161 90.7795 49.4335 91.1159 50.6386 91.494ZM58.1727 93.3192C59.2586 93.5001 60.3718 93.6807 60.6464 93.7207L61.1458 93.7934L58.0885 96.8528C56.3155 98.6269 54.9177 99.9121 54.7611 99.9121C54.4964 99.9121 50.115 98.9542 49.6985 98.8052C49.5567 98.7544 50.4474 97.7662 52.404 95.8035C55.0717 93.1275 55.3585 92.8822 55.7598 92.9341C56.0011 92.9652 57.0869 93.1385 58.1727 93.3192ZM67.3117 97.2908L63.3643 101.249L62.3416 101.153C61.0069 101.028 57.7381 100.55 57.6561 100.468C57.621 100.433 59.0398 98.961 60.8089 97.1973L64.0256 93.9905L65.0842 93.8867C66.8653 93.712 70.5086 93.3786 70.8946 93.3549C71.1835 93.3372 70.4395 94.1544 67.3117 97.2908Z" fill="#16246B"/>
</svg>
