<svg width="128" height="128" viewBox="0 0 128 128" fill="none" xmlns="http://www.w3.org/2000/svg">
<path fill-rule="evenodd" clip-rule="evenodd" d="M108.406 41.375H96.1558V39.7159C96.1537 39.6448 96.1462 39.5744 96.1346 39.5047C96.1331 39.4939 96.1324 39.4829 96.1317 39.4719C96.1307 39.4573 96.1298 39.4426 96.127 39.4282C96.1045 39.3126 96.0689 39.1998 96.0204 39.0925C96.0177 39.0864 96.0177 39.0802 96.0149 39.0747L91.5621 29.4265V27.5938C91.5607 26.3756 91.0761 25.208 90.2154 24.3467C89.3541 23.486 88.1865 23.0014 86.9683 23H41.0312C39.813 23.0014 38.6454 23.486 37.7841 24.3467C36.9234 25.208 36.4388 26.3756 36.4374 27.5938V41.3749H19.5938C18.3756 41.3763 17.208 41.8609 16.3467 42.7216C15.486 43.5829 15.0014 44.7505 15 45.9687V94.9683C15.0014 96.1865 15.486 97.3541 16.3467 98.2154C17.208 99.0761 18.3756 99.5607 19.5938 99.5621H62.4685V102.625H50.2185C49.373 102.625 48.6873 103.31 48.6873 104.156C48.6873 105.001 49.373 105.687 50.2185 105.687H77.7808C78.6264 105.687 79.3121 105.001 79.3121 104.156C79.3121 103.31 78.6264 102.625 77.7808 102.625H65.5309V99.5621H108.406C109.624 99.5607 110.791 99.0761 111.653 98.2154C112.513 97.3541 112.998 96.1865 112.999 94.9683V45.9687C112.998 44.7505 112.513 43.5829 111.653 42.7216C110.791 41.8609 109.624 41.3763 108.406 41.3749L108.406 41.375ZM86.9683 72.6368V41.2455H93.0933V72.6368H86.9683ZM93.0933 75.6993V80.4207H86.9683V75.6993H93.0933ZM87.8304 38.183L90.0308 33.415L92.2313 38.183H87.8304ZM109.938 94.9666C109.937 95.8122 109.252 96.4972 108.406 96.4979H19.5946C18.749 96.4972 18.064 95.8122 18.0633 94.9666V93.4354H109.938V94.9666ZM109.938 90.3729H18.0633V45.967C18.064 45.1214 18.749 44.4364 19.5946 44.4357H36.4382V52.1289L36.51 52.1226L36.5101 52.1226C36.6858 52.1073 36.8617 52.0919 37.0397 52.0919H38.8984C39.0767 52.0919 39.2519 52.1072 39.4271 52.1225L39.4272 52.1225L39.5 52.1289L39.5006 27.5923C39.5013 26.7467 40.1863 26.0617 41.0319 26.0611H86.969C87.8146 26.0617 88.4996 26.7467 88.5003 27.5923V29.4251L84.0474 39.0733C84.0447 39.0794 84.0447 39.0856 84.042 39.091C83.9934 39.1984 83.9579 39.3111 83.9353 39.4267C83.9326 39.4411 83.9317 39.4558 83.9307 39.4704C83.93 39.4814 83.9293 39.4924 83.9278 39.5032C83.9162 39.573 83.9087 39.6434 83.9066 39.7145V80.4209C83.9073 81.233 84.2306 82.0116 84.8048 82.5851C85.3784 83.1593 86.157 83.4827 86.9691 83.4834H88.287C88.0156 83.9557 87.5139 84.2469 86.9691 84.249H52.0218L50.8447 85.4261H50.844C49.9054 86.3661 48.7186 87.0203 47.4226 87.3114H86.9688C88.0536 87.3093 89.1022 86.9245 89.9301 86.2238C90.7586 85.5231 91.3117 84.5524 91.4935 83.4833H93.0938C93.9059 83.4826 94.6845 83.1593 95.258 82.5851C95.8322 82.0116 96.1555 81.2329 96.1562 80.4209V44.4376H108.406C109.252 44.4383 109.937 45.1233 109.937 45.9689L109.938 90.3729ZM51.1047 79.7982C50.9645 80.611 50.5769 81.3609 49.9945 81.9447L48.6793 83.2599C48.0954 83.843 47.3455 84.2313 46.5321 84.3714C45.7187 84.5109 44.882 84.396 44.1362 84.0419C43.6563 84.273 43.1634 84.4767 42.661 84.6531C42.3841 85.4303 41.8742 86.103 41.2008 86.5788C40.5268 87.0545 39.7229 87.3109 38.8978 87.3116H37.0385C36.2134 87.3109 35.4095 87.0545 34.7355 86.5788C34.0622 86.103 33.5522 85.4303 33.2753 84.6531C32.7729 84.4767 32.28 84.273 31.8002 84.0419C31.0544 84.396 30.2177 84.5109 29.4042 84.3714C28.5907 84.2313 27.8408 83.843 27.257 83.2599L25.9418 81.9447C25.3594 81.3608 24.9718 80.6109 24.8316 79.7982C24.6922 78.9853 24.807 78.1486 25.1611 77.4035C24.9294 76.9229 24.725 76.4294 24.5486 75.9262C23.7714 75.6494 23.0987 75.1394 22.6229 74.4661C22.1472 73.7921 21.8908 72.9882 21.8901 72.1631V70.3037C21.8908 69.4787 22.1472 68.6748 22.6229 68.0008C23.0987 67.3274 23.7714 66.8175 24.5486 66.5406C24.725 66.0375 24.9294 65.5439 25.1611 65.0634C24.807 64.3182 24.6922 63.4815 24.8316 62.6687C24.9718 61.8558 25.3594 61.1059 25.9418 60.5221L27.257 59.2069C27.8409 58.6238 28.5908 58.2355 29.4042 58.0954C30.2176 57.956 31.0544 58.0708 31.8002 58.4249C32.28 58.1938 32.7729 57.9901 33.2753 57.8138C33.5522 57.0365 34.0622 56.3639 34.7355 55.8881C35.4095 55.4123 36.2134 55.156 37.0385 55.1553H38.8978C39.7229 55.156 40.5268 55.4123 41.2008 55.8881C41.8742 56.3639 42.3841 57.0365 42.661 57.8138C43.1634 57.9901 43.6563 58.1938 44.1362 58.4249C44.8819 58.0708 45.7186 57.956 46.5321 58.0954C47.3456 58.2355 48.0955 58.6238 48.6793 59.2069L49.9945 60.5215C50.577 61.106 50.9646 61.8559 51.1047 62.6687C51.2441 63.4816 51.1293 64.3183 50.7752 65.0634C51.0069 65.5439 51.2113 66.0375 51.3877 66.5406C52.165 66.8175 52.8376 67.3274 53.3134 68.0008C53.7891 68.6748 54.0455 69.4787 54.0462 70.3038V72.1631C54.0455 72.9882 53.7892 73.7921 53.3134 74.4661C52.8376 75.1394 52.1649 75.6494 51.3877 75.9263C51.2113 76.4294 51.0069 76.9229 50.7752 77.4035C51.1293 78.1487 51.2441 78.9854 51.1047 79.7982ZM46.5144 81.0936L47.8289 79.7791C48.1919 79.4154 48.1919 78.8275 47.8289 78.4646L47.0592 77.6955C48.036 76.3256 48.6881 74.752 48.967 73.0929H50.0539C50.3007 73.0929 50.5372 72.9951 50.7115 72.8208C50.8859 72.6465 50.9836 72.41 50.9836 72.1632V70.3038C50.9836 70.0571 50.8859 69.8206 50.7115 69.6462C50.5372 69.4719 50.3007 69.3742 50.0539 69.3742H48.967C48.6882 67.715 48.036 66.1414 47.0592 64.7715L47.8289 64.0025C48.1919 63.6395 48.1919 63.0503 47.8289 62.6873L46.5144 61.3727C46.3401 61.1984 46.1035 61.1007 45.8568 61.1007C45.61 61.1007 45.3742 61.1984 45.1998 61.3727L44.4301 62.1424C43.0602 61.1657 41.4866 60.5135 39.8275 60.2346V59.1477C39.8275 58.6343 39.4112 58.218 38.8978 58.218H37.0384C36.5251 58.218 36.1088 58.6343 36.1088 59.1477V60.2346C34.4496 60.5135 32.876 61.1656 31.5061 62.1424L30.7371 61.3727C30.5628 61.1984 30.3262 61.1007 30.0795 61.1007C29.8327 61.1007 29.5962 61.1984 29.4219 61.3727L28.1073 62.6873C27.7444 63.0503 27.7444 63.6388 28.1073 64.0018L28.877 64.7715C27.9003 66.1414 27.2481 67.7151 26.9692 69.3742H25.8823C25.6355 69.3742 25.399 69.4719 25.2247 69.6462C25.0504 69.8206 24.9526 70.0571 24.9526 70.3038V72.1632C24.9526 72.41 25.0504 72.6465 25.2247 72.8208C25.399 72.9951 25.6355 73.0929 25.8823 73.0929H26.9692C27.2481 74.7521 27.9002 76.3256 28.877 77.6955L28.1073 78.4646C27.7444 78.8275 27.7444 79.4161 28.1073 79.7798L29.4219 81.0943C29.5962 81.2686 29.8327 81.3664 30.0795 81.3664C30.3262 81.3664 30.5621 81.2686 30.7364 81.0943L31.5061 80.3246C32.876 81.3014 34.4497 81.9535 36.1088 82.2324V83.3193C36.1088 83.8327 36.5251 84.249 37.0384 84.249H38.8978C39.4112 84.249 39.8275 83.8327 39.8275 83.3193V82.2324C41.4866 81.9536 43.0602 81.3014 44.4301 80.3246L45.1992 81.0943C45.3735 81.2686 45.61 81.3664 45.8568 81.3664C46.1035 81.3664 46.3401 81.268 46.5144 81.0936ZM33.096 66.3617C34.3888 65.0697 36.1415 64.3438 37.9687 64.3438C39.7952 64.3458 41.5473 65.0725 42.8386 66.3645C44.1306 67.6558 44.8572 69.4077 44.8593 71.2343C44.8593 73.0617 44.1333 74.8143 42.8414 76.107C41.5486 77.3989 39.796 78.1249 37.9687 78.1249C36.1414 78.1249 34.3887 77.399 33.096 76.107C31.8041 74.8143 31.0781 73.0617 31.0781 71.2343C31.0781 69.407 31.8041 67.6543 33.096 66.3617ZM35.2616 73.9413C35.9795 74.6591 36.9536 75.0624 37.9687 75.0624C38.9838 75.061 39.9566 74.6577 40.6744 73.9399C41.3921 73.2221 41.7955 72.2494 41.7968 71.2343C41.7968 70.2191 41.3936 69.245 40.6758 68.5272C39.9579 67.8095 38.9839 67.4062 37.9687 67.4062C36.9535 67.4062 35.9794 67.8094 35.2616 68.5272C34.5439 69.2451 34.1406 70.2191 34.1406 71.2343C34.1406 72.2495 34.5438 73.2236 35.2616 73.9413ZM76.2498 38.3125H51.75C50.9044 38.3125 50.2188 37.6268 50.2188 36.7812C50.2188 35.9356 50.9044 35.25 51.75 35.25H76.2498C77.0954 35.25 77.781 35.9356 77.781 36.7812C77.781 37.6268 77.0954 38.3125 76.2498 38.3125ZM68.5936 44.4374H51.75C50.9044 44.4374 50.2188 43.7518 50.2188 42.9062C50.2188 42.0606 50.9044 41.375 51.75 41.375H68.5936C69.4392 41.375 70.1249 42.0606 70.1249 42.9062C70.1249 43.7518 69.4392 44.4374 68.5936 44.4374ZM51.75 53.6249H76.2498C77.0954 53.6249 77.781 52.9392 77.781 52.0936C77.781 51.248 77.0954 50.5624 76.2498 50.5624H51.75C50.9044 50.5624 50.2188 51.248 50.2188 52.0936C50.2188 52.9392 50.9044 53.6249 51.75 53.6249ZM68.5953 56.6873C69.4409 56.6873 70.1265 57.373 70.1265 58.2186C70.1265 59.0642 69.4409 59.7498 68.5953 59.7498H53.2384C52.9404 59.2426 52.5788 58.7757 52.1638 58.3587L50.8466 57.0415C50.8418 57.0367 50.8367 57.0322 50.8315 57.0278C50.8264 57.0233 50.8213 57.0189 50.8165 57.0141C51.0831 56.8036 51.4119 56.6887 51.7517 56.6873H68.5953ZM76.2498 65.8748H55.5282C56.2473 66.7641 56.7402 67.8155 56.963 68.9373H76.2496C77.0952 68.9373 77.7809 68.2516 77.7809 67.406C77.7809 66.5604 77.0954 65.8748 76.2498 65.8748ZM57.108 71.9997H68.5923C69.4379 71.9997 70.1235 72.6853 70.1235 73.5309C70.1235 74.3765 69.4378 75.0621 68.5922 75.0621H56.4688C56.8865 74.1523 57.1046 73.1646 57.108 72.1638V71.9997Z" fill="#16246B"/>
</svg>
