<svg width="65" height="64" viewBox="0 0 65 64" fill="none" xmlns="http://www.w3.org/2000/svg">
<path fill-rule="evenodd" clip-rule="evenodd" d="M36.3287 10.4005C36.309 10.4198 36.2929 10.8831 36.2929 11.4302C36.2929 11.9771 36.2813 12.4246 36.267 12.4246C36.2527 12.4246 36.1261 12.355 35.9857 12.2699C34.9217 11.6247 33.1298 11.2306 31.8608 11.3625C30.2793 11.5269 29.1168 12.1809 28.4711 13.2695C28.1295 13.8456 28.0684 14.0958 28.0715 14.9065C28.074 15.5436 28.09 15.6639 28.2218 16.0383C28.5188 16.8821 28.9494 17.6683 29.5103 18.3917C29.9882 19.0079 30.3649 19.4702 30.5646 19.6854C31.7986 21.0155 32.1352 21.4361 32.4242 22.0088C33.0207 23.1911 33.2154 24.4954 32.9957 25.8372C32.9048 26.3922 32.6164 27.2792 32.3709 27.7591C31.4574 29.5445 29.72 31.0577 27.7622 31.773L27.2414 31.9632H20.1006C12.529 31.9632 12.7543 31.9563 12.2098 32.2051C11.3394 32.6027 10.8018 33.2203 10.5135 34.1541C10.4233 34.4465 10.4158 34.727 10.416 37.7976L10.4163 41.1244L10.5691 41.557C10.9029 42.5022 11.5817 43.1616 12.558 43.4893L12.9063 43.6062L18.8668 43.6209L24.8273 43.6357V44.4262V45.2168H21.7979C19.2397 45.2168 18.7043 45.2298 18.3555 45.3006C16.4316 45.6912 15.0875 47.3616 15.135 49.3031C15.1498 49.907 15.2616 50.3416 15.5578 50.9462C16.0799 52.0119 16.9274 52.6886 18.2183 53.0704C18.5119 53.1573 19.1865 53.1642 28.7921 53.1786C35.7829 53.1891 39.1912 53.1763 39.4884 53.1382C40.0465 53.0668 40.6093 52.8774 41.0862 52.6006C41.5126 52.3531 42.223 51.6772 42.4101 51.341C42.4787 51.2179 42.5762 51.043 42.6268 50.9524C42.6774 50.8618 42.7846 50.5976 42.8649 50.3653C42.9961 49.9858 43.0111 49.8678 43.0123 49.2036C43.0137 48.5034 43.0045 48.4377 42.8381 47.9627C42.3897 46.6825 41.502 45.8284 40.1372 45.3639C39.8113 45.253 39.7152 45.2494 36.5742 45.2304L33.3462 45.2108V44.4238V43.6368L36.9493 43.6209C40.5114 43.6053 40.5564 43.6038 40.9045 43.4876C41.2858 43.3604 41.8386 43.0348 42.1243 42.7692C42.3728 42.5381 42.6485 42.1179 42.848 41.6657L43.0169 41.2828L43.031 25.824L43.045 10.3652H39.7047C37.8675 10.3652 36.3483 10.3811 36.3287 10.4005ZM41.3292 26.4869V40.9188L41.1905 41.1933C41.1141 41.3442 40.9635 41.5397 40.8556 41.6276C40.4415 41.9652 41.4439 41.9428 26.7024 41.9428C11.53 41.9428 12.9649 41.9864 12.4964 41.5123C12.3584 41.3727 12.2134 41.1689 12.1741 41.0594C12.1176 40.9021 12.1026 40.2072 12.1026 37.7448C12.1026 34.753 12.1068 34.621 12.208 34.4198C12.3426 34.1522 12.6365 33.8626 12.908 33.7299C13.1173 33.6276 13.3128 33.6258 25.564 33.6123L38.0074 33.5985V22.8268V12.055H39.6683H41.3292V26.4869ZM33.239 13.0801C34.3389 13.2594 35.229 13.6625 36.0384 14.3478L36.2929 14.5633L36.2929 23.2638V31.9644L33.6676 31.9616C32.2237 31.9601 31.0438 31.9419 31.0456 31.9212C31.0475 31.9004 31.2676 31.7052 31.5348 31.4874C32.7818 30.4709 33.8277 28.9324 34.362 27.3286C34.6456 26.4773 34.742 25.9467 34.7767 25.0451C34.8266 23.7518 34.5535 22.4604 33.9964 21.3544C33.5746 20.5168 33.4109 20.2963 32.3271 19.1045C30.5097 17.1063 29.7565 15.8831 29.7565 14.9299C29.7565 13.5646 31.2721 12.7595 33.239 13.0801ZM44.7046 22.5835C44.7046 23.3785 44.7072 23.3965 44.8237 23.4265C44.8892 23.4434 46.1369 23.4582 47.5963 23.4594L50.2499 23.4616L51.3617 24.5632L52.4734 25.6647V26.8071V27.9494H48.589H44.7046V28.7943V29.6392H46.0173H47.33L47.3318 33.5072C47.3328 35.6346 47.3328 38.4683 47.3318 39.8042C47.3308 41.1402 47.3299 42.2986 47.33 42.3785V42.5237H46.5799H45.8298V43.3686V44.2135H46.5767H47.3236L47.3402 44.8517C47.3493 45.2028 47.3467 45.4998 47.3344 45.5118C47.3221 45.5238 46.9786 45.5336 46.5709 45.5336H45.8298V46.3521V47.1706L46.2986 47.1772C46.5565 47.1808 46.8939 47.1819 47.0487 47.1797C47.3542 47.1754 47.3433 47.1611 47.3433 47.5666C47.3433 47.6392 47.3403 47.8768 47.3367 48.0947L47.33 48.4907H46.5799H45.8298V49.3356V50.1805H46.5799H47.33L47.3384 51.2762C47.3431 51.8789 47.3434 52.4135 47.3391 52.4643C47.3319 52.5488 47.4048 52.5567 48.1878 52.5567H49.0444V51.3686V50.1805H49.8213H50.5982V49.3356V48.4907H49.8213H49.0444V47.8627C49.0444 47.3175 49.0566 47.2301 49.1366 47.1998C49.1873 47.1807 49.4585 47.1677 49.7393 47.1711C50.0201 47.1744 50.3283 47.1756 50.4241 47.1739L50.5982 47.1706V46.3521V45.5336H49.8213H49.0444V44.8735V44.2135H49.8227H50.6009L50.5861 43.3818L50.5714 42.5501L49.8079 42.5355L49.0444 42.5208V36.08V29.6392H51.5894H54.1343L54.1334 27.2762L54.1325 24.9131L52.5351 23.3422L50.9377 21.7712H47.8212H44.7046V22.5835ZM31.6317 44.7402V46.904L35.6098 46.9184L39.588 46.933L39.9076 47.0634C40.3213 47.2324 40.8821 47.7469 41.0745 48.1343C41.2844 48.5567 41.3454 48.8626 41.3189 49.3599C41.2987 49.7389 41.2661 49.8624 41.0974 50.1988C40.7785 50.8348 40.1413 51.3193 39.4552 51.4476C39.2715 51.4819 35.5971 51.5006 29.0371 51.5006C17.8871 51.5006 18.5944 51.5212 17.9886 51.1796C17.6209 50.9721 17.2438 50.5553 17.0369 50.1277C16.8811 49.8053 16.871 49.7475 16.8714 49.1772C16.8719 48.5987 16.8802 48.5531 17.0476 48.2149C17.2756 47.7543 17.7038 47.3321 18.1717 47.1066L18.5319 46.933L22.5369 46.9182L26.5418 46.9033V44.7399V42.5765H29.0867H31.6317V44.7402Z" fill="white"/>
</svg>
