<svg width="65" height="64" viewBox="0 0 65 64" fill="none" xmlns="http://www.w3.org/2000/svg">
<path fill-rule="evenodd" clip-rule="evenodd" d="M36.3879 10.4014C36.3679 10.4208 36.3516 10.8841 36.3516 11.4311C36.3516 11.9781 36.3397 12.4256 36.3252 12.4256C36.3106 12.4256 36.1821 12.356 36.0395 12.2708C34.9589 11.6257 33.139 11.2315 31.8501 11.3634C30.244 11.5279 29.0633 12.1819 28.4075 13.2705C28.0605 13.8466 27.9985 14.0968 28.0017 14.9075C28.0042 15.5446 28.0204 15.6649 28.1543 16.0393C28.456 16.883 28.8932 17.6693 29.463 18.3926C29.9483 19.0089 30.3309 19.4712 30.5337 19.6864C31.787 21.0165 32.1289 21.4371 32.4224 22.0098C33.0282 23.1921 33.226 24.4964 33.0028 25.8382C32.9105 26.3932 32.6176 27.2802 32.3683 27.76C31.4405 29.5454 29.6759 31.0587 27.6876 31.7739L27.1586 31.9642H19.9062C12.2163 31.9641 12.4451 31.9573 11.8921 32.206C11.0081 32.6037 10.4622 33.2213 10.1694 34.155C10.0777 34.4475 10.07 34.728 10.0703 37.7986L10.0706 41.1253L10.2258 41.558C10.5648 42.5031 11.2542 43.1626 12.2458 43.4903L12.5995 43.6072L18.6531 43.6219L24.7068 43.6367V44.4272V45.2178H21.6301C19.0319 45.2178 18.4881 45.2308 18.1339 45.3016C16.1799 45.6922 14.8148 47.3626 14.863 49.304C14.878 49.908 14.9916 50.3426 15.2924 50.9471C15.8227 52.0129 16.6834 52.6896 17.9945 53.0714C18.2927 53.1583 18.9779 53.1652 28.7335 53.1796C35.8335 53.1901 39.2951 53.1773 39.597 53.1392C40.1638 53.0677 40.7353 52.8783 41.2197 52.6015C41.6528 52.354 42.3743 51.6782 42.5643 51.342C42.6339 51.2189 42.733 51.044 42.7844 50.9534C42.8358 50.8628 42.9446 50.5986 43.0262 50.3663C43.1594 49.9868 43.1746 49.8687 43.176 49.2046C43.1774 48.5044 43.168 48.4387 42.9989 47.9636C42.5435 46.6835 41.642 45.8294 40.2559 45.3649C39.9249 45.254 39.8273 45.2504 36.6372 45.2313L33.3587 45.2117V44.4248V43.6378L37.0181 43.6219C40.6359 43.6063 40.6816 43.6048 41.0352 43.4886C41.4224 43.3614 41.9839 43.0358 42.274 42.7702C42.5265 42.5391 42.8064 42.1189 43.0091 41.6666L43.1806 41.2838L43.1949 25.825L43.2091 10.3662H39.8166C37.9508 10.3662 36.4078 10.3821 36.3879 10.4014ZM41.4666 26.4879V40.9198L41.3256 41.1942C41.2481 41.3452 41.0951 41.5407 40.9855 41.6286C40.565 41.9662 41.583 41.9438 26.6111 41.9438C11.2017 41.9438 12.659 41.9873 12.1832 41.5132C12.0431 41.3736 11.8958 41.1699 11.8558 41.0604C11.7985 40.903 11.7832 40.2082 11.7832 37.7458C11.7832 34.754 11.7875 34.6219 11.8903 34.4208C12.027 34.1532 12.3255 33.8635 12.6013 33.7308C12.8138 33.6286 13.0124 33.6268 25.455 33.6132L38.0928 33.5995V22.8277V12.056H39.7797H41.4666V26.4879ZM33.2499 13.0811C34.367 13.2604 35.271 13.6634 36.0931 14.3488L36.3515 14.5642L36.3516 23.2648V31.9654L33.6852 31.9626C32.2188 31.9611 31.0204 31.9429 31.0223 31.9222C31.0241 31.9014 31.2477 31.7062 31.5191 31.4884C32.7855 30.4719 33.8478 28.9334 34.3905 27.3296C34.6785 26.4783 34.7764 25.9477 34.8117 25.0461C34.8623 23.7528 34.585 22.4614 34.0192 21.3554C33.5907 20.5178 33.4245 20.2973 32.3237 19.1055C30.4779 17.1072 29.7129 15.8841 29.7129 14.9309C29.7129 13.5655 31.2522 12.7605 33.2499 13.0811ZM44.8947 22.5845C44.8947 23.3795 44.8973 23.3975 45.0156 23.4275C45.0821 23.4444 46.3493 23.4592 47.8316 23.4604L50.5266 23.4626L51.6558 24.5641L52.7849 25.6657V26.8081V27.9504H48.8398H44.8947V28.7953V29.6402H46.2279H47.561L47.5629 33.5082C47.564 35.6356 47.564 38.4692 47.5629 39.8052C47.5618 41.1412 47.561 42.2996 47.561 42.3795V42.5247H46.7992H46.0374V43.3696V44.2145H46.796H47.5546L47.5714 44.8527C47.5807 45.2038 47.578 45.5008 47.5655 45.5128C47.5531 45.5248 47.2042 45.5346 46.7901 45.5346H46.0374V46.3531V47.1716L46.5135 47.1782C46.7754 47.1817 47.1182 47.1829 47.2754 47.1807C47.5856 47.1764 47.5746 47.1621 47.5746 47.5676C47.5746 47.6402 47.5716 47.8778 47.5678 48.0956L47.561 48.4917H46.7992H46.0374V49.3366V50.1815H46.7992H47.561L47.5696 51.2772C47.5744 51.8798 47.5747 52.4145 47.5703 52.4653C47.563 52.5498 47.637 52.5577 48.4323 52.5577H49.3023V51.3696V50.1815H50.0913H50.8803V49.3366V48.4917H50.0913H49.3023V47.8637C49.3023 47.3185 49.3147 47.2311 49.3959 47.2008C49.4474 47.1816 49.7228 47.1687 50.0081 47.172C50.2933 47.1754 50.6062 47.1766 50.7035 47.1748L50.8803 47.1716V46.3531V45.5346H50.0913H49.3023V44.8745V44.2145H50.0927H50.8831L50.8681 43.3828L50.8531 42.5511L50.0777 42.5365L49.3023 42.5218V36.081V29.6402H51.887H54.4717L54.4708 27.2771L54.4699 24.9141L52.8475 23.3431L51.2251 21.7722H48.0599H44.8947V22.5845ZM31.6175 44.7412V46.9049L35.6578 46.9194L39.6981 46.9339L40.0227 47.0644C40.4429 47.2334 41.0125 47.7479 41.2079 48.1353C41.421 48.5576 41.4829 48.8635 41.4561 49.3609C41.4355 49.7399 41.4024 49.8634 41.2311 50.1997C40.9072 50.8358 40.2601 51.3203 39.5632 51.4486C39.3767 51.4829 35.6448 51.5016 28.9824 51.5016C17.6581 51.5016 18.3765 51.5221 17.7613 51.1805C17.3878 50.9731 17.0047 50.5563 16.7947 50.1287C16.6364 49.8063 16.6262 49.7485 16.6266 49.1782C16.627 48.5997 16.6355 48.554 16.8055 48.2159C17.0371 47.7553 17.472 47.3331 17.9472 47.1076L18.313 46.9339L22.3805 46.9191L26.4481 46.9043V44.7409V42.5775H29.0328H31.6175V44.7412Z" fill="#16246B"/>
</svg>
