<svg width="72" height="72" viewBox="0 0 72 72" fill="none" xmlns="http://www.w3.org/2000/svg">
<path d="M65.5659 18.5699C38.4779 15.887 20.2353 19.7677 11.3472 30.1003C3.57933 39.1308 5.62562 50.1661 6.43768 53.3334C6.54226 53.7418 6.7801 54.1037 7.11366 54.3622C7.44722 54.6206 7.8575 54.7608 8.27973 54.7605H44.1832C44.5593 54.7605 44.927 54.649 45.2397 54.4403C45.5524 54.2316 45.796 53.935 45.9398 53.5881C46.0836 53.2411 46.1211 52.8594 46.0475 52.4911C45.974 52.1229 45.7927 51.7847 45.5265 51.5193C43.7009 49.6965 41.7955 47.8553 40.1145 46.2308C37.835 44.0282 35.8662 42.1259 34.8163 40.9694C33.168 39.1539 31.2798 36.7178 31.3095 33.9729C31.3462 30.5845 34.3691 28.2259 38.3795 26.5852V33.8834H37.9042C37.4001 33.884 36.9169 34.0841 36.5604 34.4399C36.204 34.7958 36.0035 35.2782 36.0029 35.7814V36.7303C36.0035 37.2335 36.204 37.7159 36.5604 38.0717C36.9169 38.4275 37.4001 38.6277 37.9042 38.6282H47.4103C47.9144 38.6277 48.3976 38.4275 48.7541 38.0717C49.1105 37.7159 49.311 37.2335 49.3116 36.7303V35.7813C49.311 35.2781 49.1105 34.7957 48.7541 34.4399C48.3976 34.0841 47.9144 33.884 47.4103 33.8834H46.935V24.2066C47.3276 24.1331 47.7184 24.0626 48.1047 23.9969C49.957 23.6823 51.8142 23.4396 53.5894 23.2521V28.6642H53.114C52.61 28.6647 52.1267 28.8649 51.7703 29.2207C51.4139 29.5765 51.2134 30.0589 51.2128 30.5621V31.511C51.2134 32.0142 51.4139 32.4967 51.7703 32.8525C52.1267 33.2083 52.61 33.4084 53.114 33.409H62.6202C63.1243 33.4084 63.6075 33.2083 63.964 32.8525C64.3204 32.4967 64.5209 32.0142 64.5215 31.511V30.5621C64.5209 30.0589 64.3204 29.5765 63.964 29.2207C63.6075 28.8649 63.1243 28.6647 62.6202 28.6642H62.1449V22.6736C64.1649 22.6094 65.428 22.6211 65.4612 22.6217C65.5871 22.6244 65.7123 22.6015 65.829 22.5544C65.9458 22.5073 66.0518 22.4369 66.1405 22.3477C66.2299 22.2594 66.3008 22.1543 66.3493 22.0384C66.3977 21.9226 66.4227 21.7983 66.4227 21.6728V19.5142C66.4227 19.2787 66.335 19.0516 66.1767 18.8771C66.0183 18.7026 65.8006 18.5931 65.5659 18.5699ZM47.4115 36.7303H37.9042V35.7813H47.4103L47.4115 36.7303ZM40.2807 33.8834V30.5621H45.0338V33.8834H40.2807ZM45.0338 28.6642H40.2807V25.8813C41.841 25.3675 43.4276 24.9371 45.0338 24.5919V28.6642ZM62.6214 31.511H53.1141V30.5621H62.6202L62.6214 31.511ZM55.4906 28.6642V26.7662H60.2437V28.6642H55.4906ZM60.2437 24.8683H55.4906V23.0689C57.225 22.9169 58.8393 22.8159 60.2437 22.7492V24.8683ZM64.5215 20.7259C58.9233 20.7779 53.3367 21.2446 47.8077 22.1222C35.6615 24.1821 29.4709 28.1623 29.4082 33.9525C29.3716 37.3565 31.5262 40.1717 33.4075 42.244C34.4993 43.4465 36.4887 45.3687 38.7921 47.5944C40.468 49.2139 42.3674 51.0493 44.1832 52.8626L26.0343 52.8632C25.7867 52.5623 25.387 52.0605 24.9012 51.3882C24.8281 51.2871 24.7358 51.2014 24.6296 51.1359C24.5234 51.0705 24.4052 51.0265 24.282 51.0066C24.1587 50.9867 24.0328 50.9912 23.9113 51.0199C23.7898 51.0486 23.6751 51.1009 23.5739 51.1739C23.4726 51.2468 23.3868 51.3389 23.3212 51.445C23.2556 51.551 23.2116 51.669 23.1917 51.792C23.1717 51.915 23.1763 52.0408 23.205 52.1621C23.2337 52.2834 23.2861 52.3978 23.3592 52.4989C23.4518 52.627 23.5401 52.7466 23.6268 52.8633L8.27997 52.8638L8.27949 52.8626C7.525 49.9201 5.62028 39.6715 12.7896 31.3368C19.4834 23.5552 31.9563 19.6393 49.9663 19.6393C54.472 19.6393 59.3237 19.8847 64.5215 20.3756L64.5215 20.7259Z" fill="#16246B"/>
<path d="M23.3713 27.5802C22.0184 28.6507 20.8509 29.9632 19.9211 31.459C19.7891 31.6762 19.7438 31.9403 19.795 32.193C19.8461 32.4458 19.9897 32.6666 20.194 32.8069C20.3993 32.9436 20.6467 32.9898 20.8835 32.9356C21.1204 32.8815 21.3279 32.7312 21.4621 32.5167C22.2769 31.211 23.2989 30.0656 24.4824 29.1315C24.5784 29.054 24.6591 28.9572 24.7198 28.8465C24.7806 28.7359 24.8202 28.6136 24.8365 28.4867C24.8527 28.3597 24.8453 28.2306 24.8145 28.1067C24.7838 27.9828 24.7304 27.8666 24.6574 27.7647C24.5844 27.6627 24.4932 27.5771 24.3891 27.5126C24.2849 27.4482 24.1698 27.4062 24.0503 27.3891C23.9309 27.3719 23.8094 27.38 23.6929 27.4128C23.5764 27.4456 23.4671 27.5025 23.3713 27.5802V27.5802Z" fill="#16246B"/>
<path d="M31.6361 23.3845C30.0654 23.9642 29.1397 24.3919 29.102 24.4092C28.3346 24.7642 27.5867 25.1412 26.8786 25.5297C26.7653 25.5919 26.6652 25.676 26.5842 25.7772C26.5031 25.8783 26.4426 25.9946 26.4062 26.1193C26.3697 26.2439 26.3581 26.3746 26.3718 26.5039C26.3855 26.6331 26.4244 26.7583 26.4862 26.8725C26.6154 27.0984 26.8261 27.2655 27.0745 27.3391C27.3229 27.4127 27.5899 27.3871 27.82 27.2676C28.4887 26.9005 29.1961 26.5441 29.9233 26.2077C29.9322 26.2036 30.8237 25.7926 32.313 25.2431C32.4342 25.1984 32.5455 25.13 32.6405 25.042C32.7355 24.954 32.8123 24.8479 32.8666 24.73C32.9209 24.6121 32.9516 24.4845 32.9569 24.3547C32.9622 24.2248 32.9421 24.0951 32.8977 23.9731C32.8532 23.851 32.7853 23.739 32.6979 23.6434C32.6104 23.5477 32.5051 23.4704 32.388 23.4157C32.2709 23.3611 32.1442 23.3302 32.0152 23.3248C31.8862 23.3195 31.7574 23.3397 31.6361 23.3845L31.6361 23.3845Z" fill="#16246B"/>
<path d="M20.897 43.7566C20.8 43.5102 20.598 43.3084 20.3354 43.1955C20.0728 43.0825 19.7711 43.0677 19.4963 43.1542C19.2215 43.2407 18.9962 43.4215 18.8698 43.6569C18.7434 43.8923 18.7261 44.1631 18.8219 44.4099C19.4798 46.0636 20.2978 47.6624 21.2667 49.188C21.4099 49.4159 21.6482 49.5835 21.9291 49.6538C22.21 49.7242 22.5106 49.6914 22.7646 49.5629C23.0186 49.4343 23.2054 49.2204 23.2837 48.9683C23.362 48.7162 23.3256 48.4465 23.1823 48.2185C22.2768 46.7939 21.5121 45.3009 20.897 43.7566Z" fill="#16246B"/>
<path d="M19.1346 41.5691C19.4194 41.5361 19.6772 41.4078 19.8513 41.2124C20.0254 41.017 20.1016 40.7706 20.063 40.5272C19.9657 39.9214 19.9159 39.3106 19.9141 38.6991C19.9107 37.8308 20.0249 36.9651 20.2543 36.1192C20.3184 35.8807 20.2694 35.6303 20.1181 35.4226C19.9668 35.2149 19.7254 35.0668 19.4467 35.0106C19.168 34.9545 18.8746 34.9949 18.6306 35.1229C18.3866 35.251 18.2119 35.4564 18.1446 35.6942C17.8768 36.6795 17.7433 37.6879 17.7466 38.6993C17.7485 39.394 17.8048 40.0877 17.9152 40.7759C17.9504 40.9977 18.0784 41.2011 18.2756 41.3485C18.4728 41.4958 18.7258 41.5772 18.9878 41.5775C19.0369 41.5775 19.0859 41.5747 19.1346 41.5691Z" fill="#16246B"/>
<path d="M37.9121 21.3223C37.1663 21.5068 36.406 21.7145 35.6523 21.9401C35.5365 21.9747 35.4283 22.0331 35.3339 22.1118C35.2394 22.1906 35.1607 22.2881 35.102 22.399C35.0433 22.5098 35.006 22.6318 34.992 22.7578C34.9781 22.8839 34.9878 23.0117 35.0207 23.1338C35.0923 23.3767 35.2498 23.5814 35.4605 23.7053C35.6712 23.8293 35.9191 23.8631 36.1528 23.7998C36.8796 23.5824 37.6122 23.3823 38.3307 23.2046C38.4484 23.1761 38.5595 23.1233 38.6578 23.0494C38.7561 22.9755 38.8396 22.8818 38.9034 22.7737C38.9673 22.6657 39.0103 22.5454 39.0299 22.4198C39.0496 22.2942 39.0455 22.1657 39.018 22.0418C38.9904 21.9178 38.9399 21.8009 38.8693 21.6976C38.7988 21.5942 38.7096 21.5066 38.6068 21.4398C38.5041 21.3729 38.3898 21.3281 38.2706 21.308C38.1514 21.2878 38.0296 21.2927 37.9121 21.3223L37.9121 21.3223Z" fill="#16246B"/>
</svg>
