<svg width="65" height="64" viewBox="0 0 65 64" fill="none" xmlns="http://www.w3.org/2000/svg">
<path fill-rule="evenodd" clip-rule="evenodd" d="M37.2683 5.68596C36.1618 6.83024 35.1858 7.85234 35.0995 7.95727C34.506 8.6786 34.1276 9.52625 33.9661 10.4962C33.9061 10.8565 33.9054 11.6231 33.9646 12.0016C34.2638 13.9128 35.5319 15.4749 37.3504 16.1726C37.951 16.4031 38.578 16.5152 39.2723 16.5163C39.9373 16.5173 40.4335 16.4368 41.0467 16.2285C42.9419 15.5844 44.2975 13.9642 44.6031 11.9779C44.6889 11.4203 44.6524 10.6485 44.5123 10.0576C44.3322 9.29797 43.8989 8.44959 43.3982 7.87646C43.2736 7.73374 39.7672 4.09432 39.3822 3.70803L39.28 3.60547L37.2683 5.68596ZM40.783 6.48956C42.589 8.3608 42.5279 8.2971 42.6668 8.45568C43.1873 9.0498 43.5356 9.79766 43.6726 10.6147C43.7136 10.8598 43.7141 11.6458 43.6733 11.8949C43.3558 13.8345 41.819 15.3142 39.8559 15.5706C37.6552 15.8581 35.5414 14.4572 34.9891 12.3454C34.8797 11.9269 34.8629 11.78 34.8634 11.2429C34.8638 10.6672 34.9022 10.4118 35.0607 9.92717C35.2269 9.41938 35.5619 8.82702 35.8935 8.45452C35.9646 8.37477 36.7562 7.5505 37.6527 6.62279L39.2828 4.93606L39.3464 5.00159C39.3814 5.0376 40.0279 5.7072 40.783 6.48956Z" fill="#16246B" stroke="#16246B"/>
<path fill-rule="evenodd" clip-rule="evenodd" d="M5.41997 33.4402C6.88084 31.8052 8.46192 30.5393 10.1383 29.6626C12.5503 28.4012 14.9755 28.174 16.9612 29.0234C17.5502 29.2754 18.2834 29.7883 18.6865 30.2306C19.2002 30.7942 19.5842 31.471 19.7972 32.1883C19.862 32.4066 19.9249 32.6145 19.9369 32.6503C19.9512 32.6928 20.1297 32.7637 20.4545 32.8558C21.6949 33.2076 22.9572 33.6772 24.0766 34.2032C24.5287 34.4157 25.7306 35.0701 26.5474 35.5485L26.7777 35.6834L26.6696 35.4959C26.1745 34.6368 25.5322 33.2896 25.2133 32.4412L25.0787 32.0833L24.5969 32.0625C23.7537 32.0259 22.9205 31.816 22.1328 31.4418C21.6208 31.1985 20.7199 30.5448 20.3136 30.1217C18.9593 28.7119 18.2781 26.7429 18.3596 24.474C18.4565 21.7777 19.7333 18.7542 21.9909 15.8754C22.7947 14.8504 23.3526 14.234 24.2707 13.3572C25.2732 12.3996 25.4062 12.2946 25.6528 12.2652C25.8273 12.2444 25.8883 12.2602 26.0282 12.3623C26.1734 12.4684 26.2193 12.5481 26.3804 12.9743C26.6555 13.7019 27.244 14.7752 28.1662 16.2314C30.1379 19.345 30.8857 21.0188 31.2484 23.1305C31.4379 24.2339 31.4486 25.0683 31.2868 26.1382C30.9234 28.5415 29.6177 30.4968 27.7566 31.4247C27.3969 31.6041 26.6248 31.8816 26.4338 31.9002C26.3686 31.9066 26.3054 31.9249 26.2934 31.941C26.2732 31.9679 26.5284 32.6993 26.568 32.728C26.5778 32.7351 26.6544 32.9042 26.7382 33.1039C26.9244 33.5475 27.521 34.6787 27.8923 35.2924C28.4468 36.2085 29.4561 37.5216 30.0911 38.1527C30.6117 38.6701 30.6646 38.7378 30.6859 38.9136C30.7104 39.1163 30.6174 39.3274 30.4596 39.4278C30.331 39.5095 30.0333 39.5719 29.9746 39.5293C29.8504 39.4393 27.9641 39.2492 27.1235 39.2421C26.6894 39.2384 25.4798 39.2996 25.4599 39.3263C25.4534 39.3349 25.4646 39.4998 25.4848 39.6927C25.5778 40.5822 25.2397 41.5191 24.5788 42.203C23.4356 43.3859 21.8362 43.8439 19.6523 43.6138C19.4101 43.5883 18.743 43.484 18.1699 43.3819C17.2132 43.2117 16.7331 43.1576 16.336 43.1752C15.9979 43.1901 15.6966 42.8655 15.7483 42.542C15.7777 42.3579 16.2241 41.3121 16.5027 40.7745C16.842 40.1198 17.8758 38.7549 18.3954 38.2755C19.0457 37.6755 19.8816 37.1466 20.547 36.9141C22.2121 36.3324 23.969 36.7865 24.8477 38.0259L24.9874 38.2229L25.5565 38.1697C26.2286 38.1069 27.03 38.0895 27.7619 38.1218L28.29 38.1451L27.4889 37.5646C25.3886 36.0427 23.257 34.9411 20.9834 34.2025C20.5425 34.0593 20.1356 33.9418 20.0793 33.9415C19.9795 33.941 19.9766 33.9453 19.9733 34.095C19.9681 34.3284 19.8193 34.9532 19.6777 35.3363C19.5648 35.6419 19.499 35.7479 19.0522 36.3442C18.6122 36.9317 18.5167 37.0388 18.2469 37.2485C17.3459 37.9486 16.2655 38.3993 15.0531 38.5808C14.1367 38.7179 13.3198 38.6911 12.2749 38.4897C10.9563 38.2356 9.81967 37.8071 7.82861 36.8134C6.23848 36.0199 5.74097 35.8031 5.09202 35.621C4.57071 35.4748 4.44009 35.3915 4.35796 35.1527C4.28539 34.9419 4.36206 34.7694 4.75974 34.2488C4.96146 33.9848 5.25855 33.6209 5.41997 33.4402ZM5.94884 34.6949C6.1862 34.7754 6.74339 35.0124 7.1239 35.1949C7.5974 35.4219 7.59985 35.4231 8.35725 35.8117C11.0696 37.2032 12.9483 37.6901 14.7641 37.472C16.3201 37.2852 17.7829 36.4327 18.3724 35.3693C18.4677 35.1973 18.5939 34.9089 18.6529 34.7284C18.7765 34.3503 18.8773 33.7557 18.8301 33.6834C18.7604 33.5765 17.1033 33.3701 16.0922 33.3423C14.4381 33.2969 12.5811 33.5595 11.0108 34.0606C10.4994 34.2239 10.3483 34.2259 10.136 34.0725C9.92219 33.9179 9.85105 33.7302 9.91698 33.4945C9.99444 33.2177 10.1383 33.1271 10.8289 32.9205C13.2838 32.186 15.95 32.0029 18.3188 32.4061L18.6773 32.4672L18.6418 32.3433C18.5687 32.0881 18.3668 31.7069 18.1301 31.3766C16.8385 29.5752 14.2463 29.152 11.4747 30.2901C10.1827 30.8206 8.68193 31.8365 7.37331 33.0664C6.97242 33.4432 6.73362 33.697 5.95346 34.5755C5.88631 34.6511 5.88545 34.6734 5.94884 34.6949ZM21.8455 18.0432C20.5918 19.9932 19.793 22.0045 19.5737 23.7638C19.1942 26.807 20.4013 29.3674 22.7315 30.4617C23.2284 30.6951 23.9007 30.8735 24.4139 30.9083L24.7003 30.9277L24.6511 30.7765C24.3537 29.8625 23.9516 27.7349 23.8432 26.5019C23.7314 25.23 23.7177 23.336 23.8134 22.3825C24.0017 20.507 24.132 19.5595 24.2433 19.2581C24.3031 19.096 24.3288 19.0696 24.5209 18.9728C24.7661 18.8491 24.9971 18.8846 25.1764 19.0737C25.3521 19.2589 25.3625 19.4192 25.2445 20.1278C25.1825 20.5005 25.1189 20.955 25.1034 21.1378C25.0877 21.3205 25.0706 21.4759 25.0652 21.4831C25.0341 21.5247 24.9729 22.3297 24.9345 23.2018C24.8249 25.6922 25.0722 27.9349 25.7212 30.3375L25.8618 30.8579L25.9972 30.8366C26.0716 30.8248 26.3193 30.7558 26.5477 30.6832C28.7319 29.989 30.1649 27.7473 30.2358 24.9135C30.2919 22.6744 29.4433 20.3659 27.3685 17.1132C26.3607 15.5333 25.7663 14.507 25.5341 13.9455L25.4717 13.7948L25.2954 13.9529C24.876 14.3289 23.9721 15.2813 23.3545 15.998C23.0339 16.37 22.158 17.5571 21.8455 18.0432ZM17.7523 40.923C17.4592 41.4205 17.1538 42.0317 17.1866 42.0555C17.2023 42.0668 17.3482 42.0907 17.511 42.1086C17.6738 42.1265 18.0337 42.1866 18.3108 42.2421C20.5092 42.6824 21.8486 42.6298 22.8813 42.0629C23.2551 41.8578 23.5533 41.6274 23.8151 41.3414C24.1915 40.9303 24.4141 40.2384 24.3285 39.7455L24.287 39.5065L24.0425 39.5551C23.315 39.6998 22.2518 40.0462 21.4308 40.4062C21.0399 40.5776 20.1725 41.0305 19.6696 41.3257C19.3731 41.4998 18.9171 41.262 18.8612 40.9041C18.824 40.6659 18.9404 40.452 19.1981 40.285C19.4969 40.0914 20.5794 39.5303 21.0535 39.3233C21.7878 39.0026 22.8763 38.6382 23.4608 38.5173L23.6886 38.4703L23.6265 38.376C23.5429 38.249 23.1632 38.0339 22.8307 37.9252C22.0681 37.6758 21.1981 37.7974 20.3088 38.2776C19.9212 38.4869 19.2766 38.9956 18.9273 39.3679C18.576 39.7423 17.995 40.5113 17.7523 40.923Z" fill="#16246B" stroke="#16246B" stroke-width="0.5"/>
<path fill-rule="evenodd" clip-rule="evenodd" d="M40.7241 18.9614C40.5797 19.0438 40.5424 19.2046 40.5425 19.7466L40.5428 20.428L39.9817 20.3938C39.3521 20.3553 38.9854 20.4957 38.9854 20.7752C38.9854 21.0972 39.2657 21.2254 39.9197 21.2023L40.5327 21.1806L40.5635 21.8617C40.5869 22.3775 40.6385 22.5699 40.776 22.6545C41.1258 22.8698 41.3176 22.6141 41.3512 21.8881L41.3814 21.2334L42.0194 21.2087C42.7025 21.1822 42.9299 21.0739 42.9299 20.7752C42.9299 20.4913 42.5508 20.349 41.9289 20.3996L41.3729 20.4448V19.7534C41.3729 19.174 41.3404 19.0451 41.1721 18.9568C40.9331 18.8315 40.952 18.8313 40.7241 18.9614ZM41.2431 20.8349C41.2431 21.0445 41.193 21.0892 40.9576 21.0892C40.7223 21.0892 40.6722 21.0445 40.6722 20.8349C40.6722 20.6253 40.7223 20.5806 40.9576 20.5806C41.193 20.5806 41.2431 20.6253 41.2431 20.8349ZM33.8268 24.0589C33.5138 24.207 33.246 24.7909 33.3264 25.1496C33.4037 25.4945 33.7331 25.808 34.1586 25.9414L34.47 26.0392L34.4932 31.0593C34.5174 36.312 34.5194 36.2804 34.0593 37.6174C33.8859 38.1209 33.3113 39.9502 33.0688 40.7704C32.9696 41.1061 32.2 43.5548 31.3586 46.212C30.5171 48.8693 29.6671 51.5697 29.4697 52.213C29.2721 52.8564 29.0156 53.6802 28.8997 54.0438C28.5754 55.0603 28.4951 55.6604 28.5999 56.2815C28.8996 58.058 29.9773 59.3114 31.6084 59.7809C32.0995 59.9223 33.0592 59.9431 39.0594 59.9431C45.714 59.9431 45.9679 59.9361 46.5744 59.736C47.781 59.3377 48.5091 58.6919 49.093 57.5021C49.393 56.8909 49.4175 56.7604 49.4175 55.773C49.4175 54.9399 49.3672 54.5595 49.1887 54.0438C49.0629 53.6802 48.7229 52.6275 48.433 51.7045C48.1431 50.7814 47.8178 49.7516 47.7101 49.416C47.6022 49.0803 47.3892 48.3937 47.2366 47.8903C47.084 47.3868 46.8947 46.7918 46.8158 46.568C46.7369 46.3443 45.97 43.9078 45.1116 41.1539L43.5507 36.1466L43.5777 31.0935L43.6046 26.0403L43.9393 25.9295C44.4859 25.7486 44.7446 25.4233 44.7315 24.9333C44.7223 24.5922 44.6553 24.451 44.3942 24.2224L44.0684 23.9371L39.0616 23.944C35.7564 23.9485 33.9773 23.9876 33.8268 24.0589ZM43.8444 24.9288C43.8116 25.0952 43.4996 25.1068 39.0373 25.1068C34.5751 25.1068 34.263 25.0952 34.2302 24.9288C34.1973 24.7614 34.4817 24.7508 39.0373 24.7508C43.5929 24.7508 43.8773 24.7614 43.8444 24.9288ZM42.7223 30.9552V35.9391H40.8093C39.2088 35.9391 38.8698 35.9653 38.7333 36.0989C38.5363 36.292 38.5317 36.3582 38.7 36.5796C38.8124 36.7276 39.0991 36.7539 40.847 36.777L42.8643 36.8037L44.346 41.5333C45.161 44.1346 45.8297 46.3354 45.8321 46.4241C45.8351 46.537 45.5026 46.7077 44.7205 46.9947C44.1068 47.2199 43.385 47.4883 43.1165 47.591C42.6425 47.7726 42.6222 47.7726 42.4169 47.5904C42.1599 47.3625 41.2832 47.2619 40.9728 47.4246C40.669 47.5839 40.4153 47.9868 40.3425 48.4252C40.2842 48.7767 40.2522 48.8001 39.4644 49.0684C37.348 49.789 35.5103 50.0538 33.8443 49.878C32.8886 49.7772 31.4834 49.4731 31.3445 49.337C31.3148 49.3078 32.0215 46.9566 32.9151 44.1119C34.909 37.7633 34.8899 37.8242 35.1447 36.982C35.3404 36.3352 35.3523 35.9992 35.3523 31.1335V25.9713H39.0373H42.7223V30.9552ZM36.3906 43.6182C36.3067 43.7171 36.2773 43.9839 36.3066 44.381L36.3517 44.9915H35.6481C35.0595 44.9915 34.927 45.0235 34.8374 45.1876C34.5919 45.637 34.983 45.8658 35.8564 45.7836L36.3493 45.7372L36.3063 46.3192C36.2699 46.8115 36.2975 46.9347 36.4849 47.1184C36.6621 47.292 36.7476 47.314 36.9118 47.2279C37.0849 47.1371 37.117 47.0135 37.117 46.4373V45.7543H37.8036C38.3816 45.7543 38.513 45.7212 38.6338 45.5446C38.8846 45.1779 38.6309 44.9994 37.8311 44.9797L37.144 44.9627L37.1399 44.3212C37.1376 43.9684 37.1054 43.6316 37.0684 43.5728C36.9684 43.4143 36.5388 43.4431 36.3906 43.6182ZM37.0132 45.3729C37.0132 45.6035 36.9676 45.6526 36.7537 45.6526C36.5397 45.6526 36.4942 45.6035 36.4942 45.3729C36.4942 45.1423 36.5397 45.0932 36.7537 45.0932C36.9676 45.0932 37.0132 45.1423 37.0132 45.3729ZM46.3383 47.8648C46.6256 48.8227 46.7846 49.3269 47.6616 52.0605C48.503 54.6831 48.5758 54.9769 48.581 55.773C48.5859 56.5336 48.5499 56.7083 48.2821 57.2268C47.9265 57.915 47.2662 58.5486 46.5812 58.8588C46.0989 59.0773 46.052 59.0786 39.0373 59.0786H31.9788L31.3868 58.7938C30.2156 58.2302 29.4356 57.0167 29.4356 55.7579C29.4356 55.1496 29.5864 54.5948 30.5374 51.7045C30.7305 51.1171 30.8887 50.5549 30.8887 50.4553C30.8888 50.1755 31.0876 50.1605 31.8728 50.3811C33.0701 50.7175 34.6324 50.8391 35.9929 50.7019C37.2991 50.5702 37.8824 50.4401 39.5545 49.9077C40.5353 49.5955 40.7392 49.5606 41.015 49.6583C41.7699 49.9258 42.568 49.6144 42.7833 48.9684C42.8793 48.6804 43.0039 48.5838 43.6137 48.3246C44.6408 47.888 45.8615 47.4433 46.0484 47.4376C46.1492 47.4344 46.2567 47.5929 46.3383 47.8648ZM41.8315 48.2063C42.0434 48.286 42.0433 48.6912 41.8312 48.8637C41.5292 49.1093 41.0111 48.6016 41.2618 48.3057C41.4071 48.1342 41.5659 48.1064 41.8315 48.2063ZM35.7958 53.0804C35.4666 53.403 35.4353 53.481 35.4859 53.8512C35.5528 54.3394 35.7735 54.6067 36.2323 54.755C37.1372 55.0477 37.9388 54.1019 37.4852 53.2767C37.1232 52.6181 36.3584 52.5292 35.7958 53.0804ZM36.7018 53.7387C36.7018 53.8506 36.6345 53.9421 36.5522 53.9421C36.3354 53.9421 36.2355 53.7311 36.403 53.6272C36.6252 53.4893 36.7018 53.5179 36.7018 53.7387ZM41.8254 54.8026C41.295 55.1666 41.2555 56.0963 41.754 56.4806C42.0483 56.7074 42.7033 56.7599 43.0394 56.5836C43.354 56.4186 43.5805 55.8993 43.5064 55.5125C43.3738 54.8197 42.3998 54.4085 41.8254 54.8026ZM42.6185 55.6712C42.6185 55.7831 42.5512 55.8747 42.4689 55.8747C42.2855 55.8747 42.1683 55.7072 42.2552 55.5695C42.368 55.3905 42.6185 55.4607 42.6185 55.6712Z" fill="#16246B" stroke="#16246B"/>
</svg>
