<svg width="65" height="64" viewBox="0 0 65 64" fill="none" xmlns="http://www.w3.org/2000/svg">
<path fill-rule="evenodd" clip-rule="evenodd" d="M55.7712 49.9329C54.0877 46.5375 50.5903 44.38 46.7506 44.3663C45.9659 44.364 45.1835 44.4534 44.4221 44.6345C44.2032 44.2906 43.9447 43.9742 43.6513 43.6877C43.6583 43.6624 43.6653 43.6349 43.67 43.6097V32.1922C49.8871 31.7841 54.6558 26.5934 54.4486 20.4605C54.2414 14.3299 49.1326 9.46484 42.9016 9.46484C36.6705 9.46484 31.5618 14.3299 31.3522 20.4605C31.145 26.5934 35.9137 31.7841 42.1308 32.1922V42.6032C41.1762 42.1561 40.1074 41.9979 39.0595 42.1493C37.2829 40.1638 34.7169 39.0381 32.0298 39.061C29.3427 39.0862 26.8 40.2624 25.0606 42.2822C23.8195 41.9452 22.4946 42.0644 21.3327 42.617V40.5375C27.5498 40.1271 32.3185 34.9388 32.1113 28.8059C31.9041 22.673 26.7953 17.8079 20.5619 17.8079C14.3309 17.8079 9.22213 22.673 9.01489 28.8059C8.80766 34.9388 13.5741 40.1271 19.7935 40.5375V43.6097C19.7935 43.6372 19.8075 43.6601 19.8098 43.6854C19.5816 43.9078 19.3767 44.1508 19.1928 44.4098C18.8877 44.3823 18.5757 44.3663 18.2521 44.3663C12.7242 44.3732 8.24416 48.782 8.2395 54.2271C8.2395 54.6467 8.58412 54.986 9.01024 54.986H55.2287C55.6548 54.986 55.9994 54.6467 55.9994 54.2271V50.9233C55.9994 50.5794 55.9249 50.2424 55.7759 49.9329H55.7712ZM32.8867 20.8549C32.882 15.5061 37.2084 11.1293 42.6361 10.9872C48.0662 10.8473 52.6207 14.9948 52.9002 20.3344C53.1796 25.6764 49.0837 30.264 43.67 30.6744V27.2996L46.4432 25.2522C46.7832 25 46.853 24.5254 46.5969 24.1907C46.3431 23.856 45.8588 23.7872 45.5188 24.0394L43.67 25.4058V22.3703C43.67 21.9508 43.3254 21.6115 42.8992 21.6115C42.4731 21.6115 42.1285 21.9508 42.1285 22.3703V24.177L40.1633 23.2094C39.7837 23.0237 39.3203 23.1751 39.1294 23.5488C38.9408 23.9248 39.0945 24.381 39.474 24.5667L42.1285 25.8735V30.6744C36.9173 30.2755 32.8937 25.9996 32.8844 20.8526L32.8867 20.8549ZM10.547 29.1979C10.5424 23.8491 14.8687 19.4724 20.2988 19.3325C25.7289 19.1927 30.2834 23.3378 30.5628 28.6798C30.8423 34.0217 26.7488 38.6071 21.3327 39.0198V35.6449L24.1059 33.5976C24.4459 33.3454 24.5157 32.8708 24.2596 32.5361C24.0058 32.2013 23.5215 32.1326 23.1815 32.3847L21.3327 33.7512V30.718C21.3327 30.2984 20.988 29.9591 20.5619 29.9591C20.1358 29.9591 19.7912 30.2984 19.7912 30.718V32.5246L17.8236 31.5525C17.4441 31.3645 16.9807 31.5181 16.7898 31.8918C16.5988 32.2678 16.7548 32.7241 17.1344 32.9098L19.7889 34.2212V39.0221C14.5777 38.6231 10.5517 34.3473 10.5447 29.2002L10.547 29.1979ZM54.4556 53.4682H9.81124C10.2141 49.1763 13.8698 45.8886 18.2497 45.884C18.6549 45.8817 19.06 45.9116 19.4605 45.9735C19.7819 46.0262 20.1032 45.8726 20.2592 45.5883C21.2046 43.9238 23.2467 43.1947 25.0559 43.8711C25.3773 43.9903 25.7405 43.8871 25.9478 43.6166C27.3798 41.732 29.6198 40.6109 32.0088 40.5765C34.3979 40.5421 36.6705 41.6013 38.1561 43.4446C38.34 43.6739 38.6404 43.7794 38.9291 43.7129C40.7267 43.2864 42.5779 44.1806 43.3323 45.8405C43.493 46.1935 43.8935 46.3701 44.2661 46.2509C45.0717 46.0055 45.91 45.8817 46.7529 45.884C50.0012 45.8955 52.9607 47.7228 54.3857 50.5955C54.4323 50.6987 54.4579 50.811 54.4556 50.9256V53.4682Z" fill="#16246B"/>
<path fill-rule="evenodd" clip-rule="evenodd" d="M46.7505 50.4326H37.5063C37.0802 50.4326 36.7356 50.7719 36.7356 51.1915C36.7356 51.6111 37.0802 51.9504 37.5063 51.9504H46.7505C47.1766 51.9504 47.5212 51.6111 47.5212 51.1915C47.5212 50.7719 47.1766 50.4326 46.7505 50.4326Z" fill="#16246B"/>
<path fill-rule="evenodd" clip-rule="evenodd" d="M49.8313 50.4326H49.0605C48.6344 50.4326 48.2898 50.7719 48.2898 51.1915C48.2898 51.6111 48.6344 51.9504 49.0605 51.9504H49.8313C50.2574 51.9504 50.602 51.6111 50.602 51.1915C50.602 50.7719 50.2574 50.4326 49.8313 50.4326Z" fill="#16246B"/>
</svg>
