<svg width="65" height="64" viewBox="0 0 65 64" fill="none" xmlns="http://www.w3.org/2000/svg">
<g opacity="0.4">
<path fill-rule="evenodd" clip-rule="evenodd" d="M50.9605 6.82252C50.6978 6.92838 50.645 7.13476 50.645 8.05671V8.93553L48.6417 8.9571C46.7917 8.97698 46.6268 8.98934 46.4847 9.11793C46.3416 9.24755 46.3309 9.33235 46.3309 10.3425V11.4277H45.1326C44.0967 11.4277 43.914 11.4451 43.7854 11.5557C43.6695 11.6554 43.4343 12.4906 42.72 15.339C42.2159 17.3494 41.4704 20.3102 41.0633 21.9186C40.6562 23.5269 40.2253 25.2376 40.1057 25.7201C39.9862 26.2027 39.8547 26.7043 39.8136 26.835L39.7388 27.0726H39.0863H38.4339V25.6877C38.4339 24.3291 38.4306 24.2988 38.2575 24.0976L38.081 23.8925L33.4498 23.8706C30.9027 23.8586 28.6786 23.8689 28.5073 23.8934C28.0179 23.9637 27.9777 24.1019 27.9777 25.7165V27.0726H26.3691H24.7604V24.7698C24.7604 22.5643 24.7542 22.4607 24.6142 22.3207C24.4785 22.185 24.3705 22.1745 23.1152 22.1745H21.7625V21.2733C21.7625 19.9421 22.0398 20.0544 18.7496 20.0544C16.3079 20.0544 16.0624 20.0655 15.927 20.1823C15.8454 20.2526 15.2263 21.0011 14.5511 21.8455C12.501 24.4096 11.0517 26.2125 10.7321 26.5961L10.4288 26.9603V30.9164C10.4288 34.8451 10.4299 34.8734 10.5828 35.0117C10.7279 35.143 10.9008 35.1519 13.6355 35.1681L16.5344 35.1853L16.5783 35.3874C16.6466 35.7021 16.8506 36.1438 17.0454 36.3991C17.1429 36.527 17.2028 36.6515 17.1785 36.6758C17.1542 36.7002 15.1756 36.7207 12.7817 36.7216C8.83811 36.723 8.41664 36.7344 8.29563 36.8439C8.11487 37.0074 8.12175 37.4135 8.30835 37.6C8.45386 37.7455 8.55206 37.7462 28.9283 37.7462H49.402V39.8663C49.402 41.8442 49.3933 41.9864 49.2728 41.9864C48.9747 41.9864 47.0427 42.5326 45.2707 43.1176C42.6784 43.9736 41.1433 44.4365 39.3114 44.9146C37.9643 45.2661 35.9593 45.613 34.4123 45.7621C31.347 46.0576 28.8483 45.6608 24.5348 44.1935C23.4725 43.8321 21.534 43.1705 20.227 42.7231C18.9199 42.2758 17.3076 41.7621 16.6441 41.5816C14.0012 40.8629 11.5412 40.4823 9.27771 40.4422C8.31259 40.4251 8.16211 40.4967 8.16211 40.9726C8.16211 41.4038 8.28203 41.4425 9.917 41.5398C10.7012 41.5864 11.4854 41.6449 11.6597 41.6697L11.9764 41.7148L10.0693 43.6267C8.36919 45.3309 8.16211 45.5639 8.16211 45.7729C8.16211 46.0783 8.38476 46.2998 8.69179 46.2998C8.90523 46.2998 9.14843 46.0804 11.123 44.1071L13.3171 41.9144L14.3408 42.1253C15.5728 42.379 15.986 42.4869 15.986 42.5549C15.986 42.5831 14.2256 44.3672 12.074 46.5197C9.18126 49.4139 8.16211 50.4772 8.16211 50.6011C8.16211 50.8462 8.2919 51.0491 8.49912 51.1278C8.72206 51.2126 8.96073 51.1107 9.62188 50.6485C11.5936 49.2702 14.1779 48.6314 16.9142 48.8462C18.8555 48.9986 20.2471 49.2587 23.883 50.1489C29.7539 51.5864 32.8367 51.9715 36.3866 51.7112C40.023 51.4445 42.668 50.7818 47.0054 49.0507C48.0801 48.6217 49.059 48.2508 49.1807 48.2265L49.402 48.1823V52.0899V55.9975L49.5668 56.1523C49.7209 56.2971 49.8223 56.3085 51.1345 56.3287C52.4632 56.3493 52.5483 56.3423 52.7429 56.1971L52.9483 56.0438L52.9672 52.0503L52.9861 48.0568L53.1501 48.0193C53.2401 47.9986 54.2517 47.8678 55.3978 47.7286C57.2747 47.5006 57.4945 47.4598 57.6097 47.3181C57.8659 47.0033 57.7266 46.5741 57.3365 46.4762C57.2421 46.4525 56.4921 46.5183 55.6697 46.6223C54.8474 46.7264 54.1294 46.8115 54.074 46.8115C54.0187 46.8115 54.5809 46.2035 55.3235 45.4603L56.6734 44.1091L57.0503 44.1534C57.3722 44.1912 57.4499 44.175 57.5825 44.0424C57.6679 43.957 57.7377 43.7942 57.7377 43.6806C57.7377 43.2603 57.8304 43.2971 53.3322 41.9345L52.9849 41.8293V39.7878V37.7462H55.2097H57.4346L57.5861 37.5536C57.763 37.3288 57.7797 37.1006 57.634 36.9012C57.5362 36.7675 57.4001 36.7572 55.2759 36.7227L53.0214 36.6862L52.9849 31.2149L52.9483 25.7438L52.7757 25.604C52.6494 25.5018 52.4874 25.4643 52.1724 25.4643H51.7418L51.7408 16.3807C51.7403 11.3848 51.7197 7.22183 51.695 7.12979C51.6703 7.03767 51.5572 6.91434 51.4437 6.85564C51.2104 6.73501 51.1825 6.73311 50.9605 6.82252ZM50.645 17.7515V25.4643H50.2162C49.8933 25.4643 49.7398 25.5016 49.5951 25.6155L49.4029 25.7666L49.3841 31.2264L49.3654 36.6862L47.2632 36.701C45.3538 36.7144 44.9974 36.6862 45.2332 36.5405C45.3678 36.4574 45.7016 35.8211 45.7869 35.4852L45.8718 35.1512L46.4591 35.151C46.9339 35.1509 47.0759 35.1243 47.2005 35.0117L47.3546 34.8724V22.4556V10.0387H48.9998H50.645V17.7515ZM46.2987 12.546C46.3188 12.5981 46.3259 13.1107 46.3148 13.6853L46.2944 14.7298L45.5266 14.1281C44.3462 13.203 44.3594 13.2179 44.4414 12.9018C44.4797 12.7545 44.5245 12.5929 44.5412 12.5426C44.5852 12.4099 46.2477 12.413 46.2987 12.546ZM45.2949 15.3024C45.5806 15.5236 45.8153 15.7239 45.8167 15.7478C45.8197 15.8009 43.4623 17.0644 43.4267 17.0288C43.4126 17.0147 43.5503 16.4214 43.7327 15.7102C43.915 14.9989 44.0642 14.4009 44.0642 14.3812C44.0642 14.3615 44.2243 14.4702 44.42 14.6228C44.6157 14.7755 45.0094 15.0813 45.2949 15.3024ZM46.3309 18.6288C46.3309 19.6541 46.3063 20.4923 46.2761 20.4913C46.2459 20.4904 46.102 20.3835 45.9562 20.2537C45.8104 20.124 45.2123 19.623 44.6269 19.1405C43.8185 18.4742 43.5833 18.2431 43.6488 18.1797C43.6963 18.1337 44.1958 17.8565 44.7588 17.5635C45.3219 17.2706 45.8812 16.9712 46.0019 16.898C46.1225 16.8249 46.2459 16.765 46.2761 16.7648C46.3063 16.7647 46.3309 17.6035 46.3309 18.6288ZM44.7771 20.6615C45.31 21.1043 45.7454 21.4859 45.7448 21.5098C45.7435 21.5596 41.9416 23.0742 41.9067 23.0387C41.8865 23.0181 42.772 19.4444 42.8606 19.1891C42.8835 19.1231 43.0423 19.2152 43.3513 19.474C43.6027 19.6845 44.2442 20.2189 44.7771 20.6615ZM20.4619 21.141L20.7333 21.151L20.7263 24.4838C20.7194 27.7658 20.7215 27.8189 20.8712 27.9686C21.0795 28.1768 21.453 28.1697 21.6277 27.954C21.7523 27.8001 21.7625 27.6139 21.7625 25.4906V23.1937L22.7313 23.2141L23.7002 23.2345V28.6444V34.0543L23.2128 34.0758L22.7253 34.0973L22.6115 33.7103C22.3494 32.8186 21.5972 32.026 20.6744 31.669C20.0804 31.4392 19.1771 31.4461 18.5818 31.6849C18.1435 31.8608 18.1398 31.861 14.7978 31.8808L11.4525 31.9005V29.6611V27.4217L13.1637 25.2915C14.1048 24.12 15.2339 22.7173 15.6729 22.1745L16.471 21.1875L17.5995 21.151C18.6203 21.1179 19.7344 21.114 20.4619 21.141ZM17.2201 22.5155C17.1549 22.5329 16.9913 22.6853 16.8565 22.8543C16.7217 23.0232 16.5851 23.1943 16.5527 23.2345C16.5205 23.2747 16.1248 23.7696 15.6733 24.3342C15.222 24.8989 14.6795 25.5733 14.4681 25.8329C13.1022 27.5098 13.055 27.5993 13.3471 27.9601L13.4868 28.1327L16.1066 28.1545C17.5474 28.1665 18.8015 28.1575 18.8935 28.1344C18.9855 28.1113 19.1257 28.0275 19.2051 27.9481C19.3432 27.81 19.3495 27.6955 19.3495 25.3148V22.8258L19.17 22.6464C18.9995 22.4758 18.9496 22.4673 18.1646 22.4754C17.7104 22.4801 17.2853 22.4981 17.2201 22.5155ZM46.3309 24.587V26.634L45.7177 26.2502C43.3718 24.782 42.3152 24.1067 42.3125 24.0739C42.3107 24.053 42.5643 23.939 42.876 23.8207C43.1877 23.7023 44.0349 23.3678 44.7588 23.0773C45.4827 22.7867 46.1326 22.547 46.203 22.5445C46.3219 22.5403 46.3309 22.6845 46.3309 24.587ZM18.2527 25.3181V27.0726H16.5709C15.646 27.0726 14.8892 27.0622 14.8892 27.0493C14.8892 27.0365 15.1533 26.6993 15.476 26.3C15.7988 25.9007 16.4157 25.1226 16.847 24.5709L17.6312 23.5678L17.942 23.5657L18.2527 23.5635V25.3181ZM43.3653 26.0289C44.2074 26.5648 44.9122 27.0188 44.9312 27.0379C44.9504 27.057 44.0428 27.0726 42.9144 27.0726H40.8629L41.0782 26.2136C41.1966 25.7412 41.3266 25.2287 41.367 25.0749L41.4405 24.7951L41.6373 24.9249C41.7455 24.9962 42.5231 25.493 43.3653 26.0289ZM37.3371 26.0126V27.0726H33.2058H29.0745V26.0126V24.9525H33.2058H37.3371V26.0126ZM51.9608 40.7761C51.9602 48.5944 51.9401 55.0425 51.9161 55.105C51.8806 55.1974 51.7362 55.2188 51.149 55.2188H50.4257V40.8898V26.5609H51.1938H51.9619L51.9608 40.7761ZM46.2786 28.1676C46.3102 28.1685 46.3267 28.5065 46.3152 28.9186L46.2944 29.6679H35.5457H24.797L24.7761 28.9191L24.7553 28.1703L29.6021 28.1515C33.1588 28.1376 45.6717 28.1497 46.2786 28.1676ZM46.314 32.3912L46.2944 34.0543H46.0881C45.9015 34.0543 45.8679 34.013 45.7356 33.6215C45.3583 32.5037 44.4404 31.7387 43.2224 31.5267C41.7655 31.273 40.1973 32.2656 39.7783 33.7067L39.6648 34.097L39.1537 34.0757L38.6425 34.0543L38.4987 33.6278C38.3115 33.0726 38.0963 32.7411 37.6578 32.3323C35.9755 30.7642 33.2593 31.4946 32.5451 33.7071L32.4212 34.0909H28.5908H24.7604V32.4094V30.728H35.5471H46.3337L46.314 32.3912ZM20.5067 32.7802C21.0292 33.0412 21.3416 33.3871 21.5446 33.9292C21.8401 34.7182 21.671 35.4376 21.0431 36.0632C20.5806 36.524 20.1772 36.6854 19.5258 36.6701C18.8155 36.6535 18.112 36.1967 17.7844 35.5394C17.5371 35.0433 17.518 34.2523 17.7417 33.7763C18.2499 32.6956 19.4628 32.2585 20.5067 32.7802ZM36.2825 32.7103C37.0825 33.0095 37.5801 33.7322 37.5857 34.6026C37.5976 36.4726 35.3066 37.3863 34.0428 36.0155C33.4891 35.4149 33.3303 34.6564 33.6057 33.9272C34.024 32.8193 35.1752 32.296 36.2825 32.7103ZM43.5077 32.7051C44.5964 33.1124 45.1301 34.3937 44.6557 35.4611C44.0579 36.8062 42.2473 37.0863 41.2585 35.9867C40.4455 35.0827 40.5693 33.7201 41.5299 32.9977C42.145 32.5352 42.7959 32.4388 43.5077 32.7051ZM16.9132 33.0126C16.7893 33.3032 16.5738 33.8532 16.5408 33.963C16.5052 34.0816 16.3188 34.0909 13.9774 34.0909H11.4525V33.506V32.9212H14.2024C16.3743 32.9212 16.944 32.9404 16.9132 33.0126ZM32.4198 35.2229C32.4701 35.2411 32.5112 35.3211 32.5112 35.4006C32.5112 35.4801 32.6428 35.7995 32.8037 36.1103C32.9645 36.4211 33.0961 36.6861 33.0961 36.6992C33.0961 36.7123 30.6119 36.7221 27.5756 36.7209C24.5392 36.7197 22.055 36.7047 22.055 36.6874C22.055 36.6702 22.1532 36.4895 22.2734 36.2858C22.3934 36.0821 22.5452 35.7521 22.6105 35.5524L22.7292 35.1895L25.0427 35.1702C27.887 35.1465 32.2958 35.178 32.4198 35.2229ZM39.8139 35.6166C39.8999 35.8526 40.0524 36.1666 40.1527 36.3144C40.253 36.4621 40.3351 36.6145 40.3351 36.6529C40.3351 36.7411 38.0191 36.7474 37.9647 36.6594C37.9431 36.6246 37.988 36.5395 38.0645 36.4703C38.183 36.3631 38.4721 35.7493 38.6085 35.3154C38.6417 35.2099 38.7368 35.1875 39.1531 35.1875H39.6574L39.8139 35.6166ZM56.4215 38.2069C55.8864 38.476 56.0653 39.2724 56.6625 39.2791C56.9322 39.2822 57.2259 38.987 57.2259 38.7127C57.2259 38.3345 56.7558 38.0388 56.4215 38.2069ZM13.3371 38.3128C13.0861 38.5986 13.1203 38.9574 13.4204 39.1878C13.6126 39.3353 13.9301 39.2967 14.1247 39.102C14.3441 38.8828 14.3537 38.633 14.1526 38.3775C13.9682 38.1431 13.5176 38.1073 13.3371 38.3128ZM38.7317 38.3775C38.5307 38.633 38.5403 38.8828 38.7597 39.102C39.1213 39.4637 39.7062 39.2438 39.7062 38.7463C39.7062 38.3875 39.5087 38.1849 39.1591 38.1849C38.9482 38.1849 38.8476 38.2302 38.7317 38.3775ZM43.6114 38.3128C43.4385 38.514 43.4061 38.6748 43.49 38.9154C43.6291 39.3145 44.0893 39.4093 44.3965 39.102C44.7657 38.733 44.5285 38.1849 43.9996 38.1849C43.8251 38.1849 43.6802 38.2326 43.6114 38.3128ZM47.5914 38.3306C47.3703 38.5365 47.3772 38.8721 47.6072 39.102C48.079 39.5738 48.7631 39.0652 48.4636 38.4655C48.3598 38.2576 48.2983 38.2182 48.0484 38.1998C47.8313 38.1838 47.7124 38.2179 47.5914 38.3306ZM17.388 38.6465C17.0407 39.0161 17.2797 39.6032 17.7774 39.6032C18.1133 39.6032 18.3258 39.3783 18.3258 39.0228C18.3258 38.55 17.7106 38.3032 17.388 38.6465ZM20.3334 38.6568C20.2346 38.7555 20.1538 38.9155 20.1538 39.0125C20.1538 39.2184 20.3913 39.5466 20.5848 39.608C20.9306 39.7177 21.381 39.3002 21.2934 38.9512C21.1761 38.4836 20.6636 38.3265 20.3334 38.6568ZM53.8956 38.6568C53.7009 38.8514 53.6623 39.1688 53.8098 39.361C54.1359 39.7856 54.7172 39.6557 54.8488 39.1285C54.8844 38.9857 54.8482 38.8822 54.7017 38.7082C54.4579 38.4185 54.1533 38.399 53.8956 38.6568ZM10.5352 38.8761C10.1735 39.2377 10.3934 39.8225 10.891 39.8225C11.2498 39.8225 11.4525 39.625 11.4525 39.2755C11.4525 38.7646 10.8911 38.5202 10.5352 38.8761ZM23.6151 38.8847C23.4581 39.0418 23.4341 39.1174 23.4704 39.3414C23.5688 39.9473 24.3281 40.0244 24.5462 39.4508C24.7606 38.887 24.0468 38.4531 23.6151 38.8847ZM27.1901 38.7865C26.6936 39.0258 27.0364 39.9716 27.571 39.8375C28.0443 39.7187 28.2037 39.2084 27.8713 38.8761C27.6804 38.6852 27.4605 38.6563 27.1901 38.7865ZM30.8627 38.8761C30.4388 39.2998 30.8813 40.0098 31.4375 39.7984C31.891 39.6259 31.9653 39.0569 31.5649 38.8205C31.2753 38.6494 31.0733 38.6654 30.8627 38.8761ZM35.2499 38.8761C35.003 39.1229 35.0112 39.4529 35.2701 39.6929C35.6326 40.0287 36.1672 39.78 36.1672 39.2755C36.1672 38.7646 35.6058 38.5202 35.2499 38.8761ZM41.9711 38.7686C41.8857 38.8031 41.7801 38.9339 41.7363 39.0592C41.5211 39.6763 42.2285 40.1093 42.6729 39.6323C43.0964 39.1779 42.5681 38.5276 41.9711 38.7686ZM45.7924 38.8482C45.3878 39.1663 45.6274 39.8225 46.1481 39.8225C46.6586 39.8225 46.8844 39.2433 46.517 38.8761C46.2977 38.6568 46.0479 38.6471 45.7924 38.8482ZM33.3488 39.212C33.2699 39.2992 33.2131 39.4713 33.2131 39.6236C33.2131 40.1211 33.798 40.341 34.1597 39.9793C34.379 39.76 34.3887 39.5103 34.1876 39.2548C33.9931 39.0076 33.5542 38.9851 33.3488 39.212ZM15.4795 39.4741C15.2784 39.7296 15.2881 39.9794 15.5074 40.1986C15.8822 40.5734 16.454 40.3506 16.454 39.8298C16.454 39.4848 16.251 39.2815 15.9069 39.2815C15.6959 39.2815 15.5953 39.3268 15.4795 39.4741ZM28.9227 40.0069C28.8051 40.1245 28.7089 40.2915 28.7089 40.3781C28.7089 40.5995 29.0938 40.9629 29.3282 40.9629C29.5935 40.9629 29.8788 40.6599 29.8788 40.3781C29.8788 40.0963 29.5935 39.7932 29.3282 39.7932C29.2137 39.7932 29.0502 39.8794 28.9227 40.0069ZM37.5199 40.097C37.1466 40.3011 37.0789 40.7114 37.3704 41.0028C37.6143 41.2467 37.8832 41.2324 38.1545 40.9611C38.4154 40.7003 38.3969 40.444 38.0981 40.177C37.8958 39.9964 37.7426 39.9752 37.5199 40.097ZM40.6506 40.0846C40.3039 40.2276 40.2311 40.7194 40.5146 41.0028C40.6133 41.1015 40.7793 41.1823 40.8835 41.1823C41.3191 41.1823 41.6171 40.4946 41.3039 40.2124C41.134 40.0592 40.8477 40.0033 40.6506 40.0846ZM18.4454 40.4565C18.0267 40.7858 18.3432 41.548 18.856 41.4454C19.1958 41.3775 19.3495 41.2026 19.3495 40.8838C19.3495 40.5746 19.0941 40.305 18.8011 40.305C18.7114 40.305 18.5513 40.3732 18.4454 40.4565ZM25.6843 40.4565C25.4121 40.6705 25.4121 41.1092 25.6843 41.3231C25.9399 41.5242 26.1896 41.5145 26.4089 41.2952C26.7682 40.936 26.5331 40.305 26.04 40.305C25.9503 40.305 25.7903 40.3732 25.6843 40.4565ZM43.1601 40.5296C42.8462 40.7765 42.9026 41.2534 43.2681 41.4424C43.8355 41.7358 44.3396 41.0123 43.8847 40.5576C43.6654 40.3382 43.4156 40.3286 43.1601 40.5296ZM47.0906 40.5493C46.9483 40.6716 46.8915 40.7897 46.8915 40.9629C46.8915 41.25 47.1869 41.5478 47.4717 41.5478C47.7284 41.5478 48.0127 41.2405 48.0127 40.9629C48.0127 40.6854 47.7284 40.3781 47.4717 40.3781C47.3716 40.3781 47.2 40.4551 47.0906 40.5493ZM54.0622 40.597C53.7828 40.8168 53.7792 41.2524 54.055 41.4694C54.3105 41.6704 54.5603 41.6608 54.7796 41.4414C55.278 40.9431 54.6148 40.1624 54.0622 40.597ZM56.3291 40.6888C56.1704 40.8093 56.0484 41.1482 56.1056 41.3095C56.3159 41.9021 57.2259 41.7773 57.2259 41.1559C57.2259 40.7419 56.6525 40.4432 56.3291 40.6888ZM45.1835 40.8181C44.9336 40.9177 44.7745 41.2129 44.8313 41.4716C44.9447 41.9878 45.6171 42.0821 45.8583 41.6156C46.0041 41.334 45.9933 41.2212 45.8008 41.0095C45.6048 40.7939 45.4021 40.731 45.1835 40.8181ZM20.8246 41.059C20.6246 41.272 20.6218 41.5454 20.8173 41.7938C20.9351 41.9437 21.0328 41.9864 21.257 41.9864C21.5034 41.9864 21.5666 41.9519 21.6921 41.7488C21.785 41.5983 21.8237 41.4443 21.7975 41.3285C21.7006 40.8993 21.1247 40.7398 20.8246 41.059ZM31.5836 41.1812C31.2403 41.3229 31.1571 41.8567 31.4373 42.1199C31.6503 42.32 31.9238 42.3227 32.1723 42.1273C32.6636 41.741 32.1658 40.9409 31.5836 41.1812ZM35.4824 41.2607C35.1685 41.5076 35.225 41.9845 35.5905 42.1735C35.9923 42.3812 36.3866 42.1202 36.3866 41.6465C36.3866 41.3799 36.1103 41.1092 35.8382 41.1092C35.7484 41.1092 35.5884 41.1774 35.4824 41.2607ZM33.397 41.4564C32.9982 41.7874 33.2363 42.4494 33.7542 42.4494C34.0413 42.4494 34.3392 42.1541 34.3392 41.8694C34.3392 41.4409 33.7348 41.176 33.397 41.4564ZM27.7949 41.4889C27.5855 41.6077 27.5414 41.6961 27.5401 41.9994C27.538 42.5032 28.103 42.7451 28.4563 42.3918C28.7007 42.1475 28.695 41.8149 28.4423 41.5808C28.2333 41.3873 28.0262 41.3578 27.7949 41.4889ZM23.0925 41.8431C22.8908 42.0309 22.8726 42.4953 23.0604 42.6628C23.4181 42.982 24.0292 42.7359 24.0292 42.2727C24.0292 41.7967 23.4349 41.5241 23.0925 41.8431ZM39.3252 42.1355C39.1173 42.3291 39.1103 42.7358 39.3114 42.9368C39.4019 43.0273 39.5551 43.083 39.7135 43.083C40.0441 43.083 40.2619 42.8703 40.2619 42.5475C40.2619 42.0653 39.6768 41.808 39.3252 42.1355ZM30.0616 42.41C29.6495 42.4951 29.503 43.0779 29.8195 43.3726C30.2755 43.7974 30.9829 43.2043 30.6847 42.6473C30.6014 42.4917 30.2725 42.3664 30.0616 42.41ZM42.0168 42.4471C41.7476 42.5825 41.6334 42.864 41.7325 43.1483C41.8742 43.5545 42.3317 43.6521 42.6416 43.3422C42.8654 43.1186 42.8708 42.8534 42.6566 42.6179C42.4451 42.3852 42.2457 42.332 42.0168 42.4471ZM25.6517 42.9397C25.4438 43.1333 25.4368 43.54 25.6379 43.741C25.7284 43.8315 25.8816 43.8872 26.04 43.8872C26.3706 43.8872 26.5884 43.6745 26.5884 43.3516C26.5884 42.8695 26.0033 42.6122 25.6517 42.9397ZM37.264 42.9368C37.1735 43.0273 37.1178 43.1805 37.1178 43.3389C37.1178 43.6694 37.3305 43.8872 37.6534 43.8872C38.1489 43.8872 38.4012 43.2838 38.0454 42.9496C37.8299 42.7473 37.4597 42.7412 37.264 42.9368ZM17.8829 43.0512C18.771 43.3173 19.5961 43.6 19.6602 43.6602C19.6903 43.6885 18.8105 44.6147 17.7051 45.7185L15.6953 47.7253L14.8795 47.7774C14.057 47.8299 12.8953 48.0295 12.2203 48.2342C12.0192 48.2953 11.8219 48.3455 11.7819 48.3459C11.7418 48.3464 12.9428 47.1131 14.4507 45.6055C15.9587 44.0978 17.2071 42.8641 17.2249 42.8639C17.2427 42.8638 17.5388 42.9481 17.8829 43.0512ZM54.1576 43.3111C54.699 43.4767 55.216 43.6286 55.3064 43.6486C55.3969 43.6686 55.471 43.7061 55.471 43.7321C55.471 43.758 54.9116 44.3377 54.2279 45.0204L52.9849 46.2616V44.6358C52.9849 43.3573 53.005 43.0099 53.0791 43.0099C53.131 43.0099 53.6163 43.1455 54.1576 43.3111ZM46.2943 46.2247L43.1502 49.3665L42.0295 49.6674C40.8587 49.9816 38.9333 50.3949 38.8759 50.3442C38.8163 50.2918 44.68 44.463 44.8685 44.3873C45.2 44.2541 47.9652 43.3864 48.5245 43.2399C49.5979 42.9589 49.7018 42.8197 46.2943 46.2247ZM28.3766 43.555C28.0424 43.8891 28.208 44.4244 28.6735 44.5141C29.2135 44.6181 29.5376 43.8702 29.1012 43.527C28.8457 43.326 28.5959 43.3356 28.3766 43.555ZM32.5165 43.7874C32.4332 43.8934 32.3649 44.0534 32.3649 44.1431C32.3649 44.4152 32.6357 44.6914 32.9024 44.6914C33.3762 44.6914 33.6372 44.2972 33.4294 43.8955C33.2404 43.53 32.7634 43.4736 32.5165 43.7874ZM34.7131 43.7227C34.3044 44.062 34.5365 44.6914 35.0704 44.6914C35.5873 44.6914 35.8343 44.1326 35.4758 43.7743C35.2627 43.5611 34.9345 43.5389 34.7131 43.7227ZM23.1771 44.8782C23.2892 44.9227 23.0363 45.2079 21.6907 46.5543L20.069 48.1768L19.691 48.1127C19.4831 48.0773 18.8596 47.9917 18.3054 47.9225C17.7513 47.8532 17.2924 47.7658 17.2855 47.7282C17.2786 47.6906 18.0774 46.8486 19.0607 45.8571L20.8485 44.0544L21.9453 44.4395C22.5485 44.6513 23.1029 44.8487 23.1771 44.8782ZM31.0379 44.1898C30.9313 44.2284 30.8042 44.3564 30.7553 44.4743C30.5679 44.9267 30.8935 45.3354 31.3701 45.246C31.6846 45.187 31.8092 45.0376 31.8092 44.7195C31.8092 44.3076 31.4304 44.0475 31.0379 44.1898ZM49.402 45.8977C49.402 47.0459 49.3951 47.1039 49.259 47.1039C49.0823 47.1039 47.8382 47.5496 46.6278 48.0464C46.1275 48.2519 45.6892 48.4199 45.6539 48.4199C45.6185 48.4199 46.4303 47.581 47.4579 46.5556C48.4855 45.5303 49.3433 44.6914 49.3641 44.6914C49.3849 44.6914 49.402 45.2342 49.402 45.8977ZM39.7856 47.8644L37.0437 50.5987L36.2215 50.6475C35.7694 50.6743 35.0128 50.6857 34.5403 50.6729L33.6812 50.6496L35.836 48.493L37.9907 46.3363L39.7661 45.8848C40.7426 45.6365 41.739 45.3684 41.9803 45.289C42.2216 45.2096 42.4434 45.1414 42.4732 45.1374C42.5031 45.1333 41.2937 46.3605 39.7856 47.8644ZM25.8193 45.746C26.4217 45.9351 26.9284 46.1036 26.9453 46.1204C26.9622 46.1372 26.3116 46.8114 25.4997 47.6185C24.4485 48.6634 23.9875 49.0753 23.8984 49.0491C23.8296 49.0288 23.2468 48.8902 22.6034 48.7409C21.9599 48.5917 21.4185 48.4571 21.4003 48.442C21.382 48.4268 22.0565 47.7232 22.8992 46.8783C24.0632 45.7114 24.4666 45.3495 24.5776 45.3723C24.6581 45.3888 25.2168 45.557 25.8193 45.746ZM29.5864 46.6586C30.1293 46.7491 30.6859 46.8394 30.8232 46.8594L31.0729 46.8957L29.5442 48.4254C28.6577 49.3125 27.9589 49.9551 27.8805 49.9551C27.7482 49.9551 25.5575 49.4761 25.3493 49.4016C25.2783 49.3762 25.7237 48.8821 26.702 47.9008C28.0359 46.5628 28.1792 46.4401 28.3799 46.4661C28.5005 46.4816 29.0434 46.5683 29.5864 46.6586ZM34.1559 48.6444L32.1821 50.6236L31.6708 50.5756C31.0034 50.513 29.3691 50.2739 29.328 50.2329C29.3105 50.2154 30.0199 49.4795 30.9044 48.5976L32.5128 46.9943L33.0421 46.9424C33.9326 46.855 35.7543 46.6883 35.9473 46.6765C36.0917 46.6676 35.7198 47.0762 34.1559 48.6444Z" fill="white"/>
</g>
</svg>
