<svg width="65" height="64" viewBox="0 0 65 64" fill="none" xmlns="http://www.w3.org/2000/svg">
<path fill-rule="evenodd" clip-rule="evenodd" d="M51.2489 6.8235C50.9821 6.92936 50.9284 7.13574 50.9284 8.05769V8.93651L48.8939 8.95807C47.0149 8.97796 46.8474 8.99031 46.7031 9.11891C46.5578 9.24853 46.5469 9.33333 46.5469 10.3434V11.4287H45.3298C44.2778 11.4287 44.0923 11.446 43.9616 11.5567C43.8439 11.6564 43.605 12.4916 42.8796 15.3399C42.3676 17.3504 41.6105 20.3112 41.197 21.9196C40.7835 23.5279 40.3459 25.2386 40.2245 25.7211C40.1031 26.2036 39.9695 26.7053 39.9277 26.836L39.8518 27.0736H39.1891H38.5266V25.6887C38.5266 24.33 38.5231 24.2998 38.3474 24.0986L38.1682 23.8935L33.4646 23.8716C30.8776 23.8596 28.6188 23.8698 28.4449 23.8944C27.9477 23.9647 27.907 24.1029 27.907 25.7175V27.0736H26.2732H24.6394V24.7707C24.6394 22.5653 24.6331 22.4617 24.4909 22.3217C24.353 22.186 24.2434 22.1754 22.9685 22.1754H21.5946V21.2743C21.5946 19.9431 21.8762 20.0553 18.5347 20.0553C16.0548 20.0553 15.8055 20.0665 15.6679 20.1833C15.5851 20.2536 14.9563 21.0021 14.2706 21.8465C12.1884 24.4106 10.7165 26.2134 10.3919 26.5971L10.0839 26.9612V30.9173C10.0839 34.846 10.085 34.8743 10.2402 35.0127C10.3876 35.144 10.5633 35.1529 13.3407 35.1691L16.2848 35.1863L16.3295 35.3884C16.3988 35.7031 16.6059 36.1448 16.8038 36.4001C16.9028 36.5279 16.9637 36.6524 16.939 36.6768C16.9143 36.7011 14.9048 36.7217 12.4735 36.7226C8.4683 36.7239 8.04025 36.7354 7.91734 36.8449C7.73376 37.0084 7.74075 37.4144 7.93026 37.601C8.07805 37.7465 8.17778 37.7472 28.8724 37.7472H49.666V39.8673C49.666 41.8452 49.6571 41.9874 49.5348 41.9874C49.2321 41.9874 47.2699 42.5335 45.4701 43.1186C42.8374 43.9746 41.2782 44.4375 39.4177 44.9156C38.0496 45.2671 36.0133 45.614 34.4421 45.7631C31.3289 46.0586 28.7911 45.6618 24.4102 44.1944C23.3313 43.8331 21.3626 43.1715 20.0351 42.7241C18.7077 42.2768 17.0702 41.7631 16.3962 41.5826C13.7121 40.8638 11.2136 40.4833 8.91477 40.4432C7.93457 40.4261 7.78174 40.4976 7.78174 40.9736C7.78174 41.4048 7.90353 41.4435 9.56405 41.5407C10.3605 41.5874 11.157 41.6459 11.334 41.6707L11.6557 41.7158L9.71874 43.6276C7.99205 45.3318 7.78174 45.5649 7.78174 45.7738C7.78174 46.0793 8.00787 46.3007 8.3197 46.3007C8.53647 46.3007 8.78347 46.0814 10.7889 44.1081L13.0173 41.9154L14.0569 42.1262C15.3082 42.38 15.7279 42.4879 15.7279 42.5559C15.7279 42.584 13.94 44.3682 11.7548 46.5207C8.81681 49.4149 7.78174 50.4781 7.78174 50.6021C7.78174 50.8472 7.91355 51.05 8.12402 51.1288C8.35044 51.2136 8.59284 51.1117 9.26432 50.6495C11.2668 49.2711 13.8916 48.6324 16.6706 48.8472C18.6422 48.9995 20.0556 49.2597 23.7482 50.1499C29.7109 51.5874 32.8419 51.9725 36.4472 51.7122C40.1404 51.4455 42.8268 50.7828 47.2319 49.0517C48.3235 48.6227 49.3177 48.2518 49.4413 48.2275L49.666 48.1832V52.0909V55.9984L49.8334 56.1533C49.9899 56.298 50.0929 56.3094 51.4256 56.3297C52.7751 56.3502 52.8615 56.3433 53.0591 56.1981L53.2677 56.0448L53.287 52.0512L53.3061 48.0578L53.4726 48.0203C53.5641 47.9996 54.5915 47.8688 55.7555 47.7295C57.6617 47.5016 57.8849 47.4608 58.002 47.3191C58.2621 47.0043 58.1207 46.5751 57.7245 46.4772C57.6286 46.4535 56.8669 46.5192 56.0316 46.6233C55.1965 46.7274 54.4672 46.8125 54.411 46.8125C54.3549 46.8125 54.9259 46.2044 55.68 45.4612L57.051 44.1101L57.4338 44.1544C57.7607 44.1922 57.8396 44.1759 57.9743 44.0434C58.061 43.958 58.1319 43.7952 58.1319 43.6816C58.1319 43.2613 58.2261 43.2981 53.6576 41.9354L53.3049 41.8302V39.7887V37.7472H55.5645H57.8241L57.978 37.5546C58.1576 37.3298 58.1746 37.1016 58.0266 36.9022C57.9273 36.7685 57.7891 36.7582 55.6317 36.7237L53.342 36.6872L53.3049 31.2159L53.2677 25.7447L53.0924 25.605C52.9641 25.5028 52.7996 25.4653 52.4797 25.4653H52.0424L52.0413 16.3817C52.0408 11.3857 52.0199 7.22281 51.9948 7.13076C51.9698 7.03865 51.8549 6.91532 51.7396 6.85661C51.5026 6.73599 51.4744 6.73409 51.2489 6.8235ZM50.9284 17.7525V25.4653H50.4929C50.165 25.4653 50.0091 25.5026 49.8621 25.6164L49.6669 25.7676L49.6479 31.2274L49.6288 36.6872L47.4938 36.7019C45.5546 36.7154 45.1926 36.6872 45.4321 36.5415C45.5687 36.4583 45.9078 35.8221 45.9944 35.4862L46.0806 35.1521L46.6771 35.152C47.1593 35.1519 47.3036 35.1252 47.4301 35.0127L47.5866 34.8734V22.4565V10.0397H49.2575H50.9284V17.7525ZM46.5143 12.547C46.5346 12.5991 46.5419 13.1117 46.5305 13.6863L46.5098 14.7307L45.73 14.1291C44.5312 13.204 44.5447 13.2189 44.6279 12.9028C44.6667 12.7555 44.7123 12.5939 44.7292 12.5436C44.7739 12.4108 46.4624 12.414 46.5143 12.547ZM45.4948 15.3034C45.7848 15.5245 46.0232 15.7249 46.0246 15.7488C46.0277 15.8018 43.6335 17.0653 43.5973 17.0297C43.583 17.0157 43.7229 16.4224 43.9081 15.7112C44.0933 14.9999 44.2448 14.4019 44.2448 14.3822C44.2448 14.3625 44.4074 14.4712 44.6062 14.6238C44.8049 14.7764 45.2048 15.0822 45.4948 15.3034ZM46.5469 18.6298C46.5469 19.6551 46.5219 20.4932 46.4912 20.4923C46.4606 20.4913 46.3144 20.3845 46.1664 20.2547C46.0183 20.1249 45.4108 19.624 44.8162 19.1415C43.9953 18.4752 43.7564 18.2441 43.8229 18.1807C43.8712 18.1347 44.3785 17.8575 44.9503 17.5645C45.5221 17.2716 46.0902 16.9721 46.2128 16.899C46.3353 16.8259 46.4606 16.766 46.4912 16.7658C46.5219 16.7657 46.5469 17.6044 46.5469 18.6298ZM44.9689 20.6625C45.5101 21.1052 45.9523 21.4869 45.9516 21.5108C45.9503 21.5606 42.089 23.0752 42.0536 23.0397C42.0331 23.0191 42.9324 19.4454 43.0224 19.1901C43.0457 19.124 43.2069 19.2162 43.5208 19.475C43.776 19.6855 44.4276 20.2198 44.9689 20.6625ZM20.2737 21.1419L20.5494 21.1519L20.5422 24.4847C20.5352 27.7667 20.5374 27.8199 20.6894 27.9695C20.901 28.1778 21.2803 28.1706 21.4577 27.955C21.5843 27.8011 21.5946 27.6149 21.5946 25.4916V23.1947L22.5786 23.2151L23.5626 23.2355V28.6454V34.0553L23.0676 34.0768L22.5724 34.0983L22.4569 33.7113C22.1907 32.8196 21.4268 32.027 20.4895 31.67C19.8862 31.4401 18.9688 31.4471 18.3642 31.6859C17.9191 31.8618 17.9153 31.862 14.5211 31.8818L11.1236 31.9015V29.6621V27.4227L12.8615 25.2925C13.8173 24.121 14.9641 22.7183 15.4099 22.1754L16.2204 21.1885L17.3665 21.1519C18.4033 21.1189 19.5349 21.115 20.2737 21.1419ZM16.9813 22.5165C16.915 22.5339 16.7489 22.6863 16.612 22.8553C16.4751 23.0241 16.3363 23.1953 16.3035 23.2355C16.2707 23.2757 15.8688 23.7706 15.4103 24.3352C14.9519 24.8998 14.401 25.5743 14.1862 25.8339C12.799 27.5108 12.7511 27.6003 13.0478 27.961L13.1896 28.1337L15.8503 28.1555C17.3137 28.1675 18.5874 28.1584 18.6808 28.1353C18.7743 28.1122 18.9166 28.0285 18.9973 27.9491C19.1376 27.811 19.144 27.6965 19.144 25.3157V22.8267L18.9616 22.6473C18.7885 22.4768 18.7378 22.4683 17.9405 22.4763C17.4792 22.481 17.0475 22.4991 16.9813 22.5165ZM46.5469 24.588V26.635L45.9241 26.2512C43.5416 24.783 42.4684 24.1077 42.4657 24.0748C42.4639 24.054 42.7214 23.94 43.038 23.8217C43.3546 23.7033 44.2151 23.3688 44.9503 23.0782C45.6855 22.7877 46.3455 22.548 46.417 22.5455C46.5377 22.5413 46.5469 22.6855 46.5469 24.588ZM18.03 25.319V27.0736H16.322C15.3825 27.0736 14.6139 27.0631 14.6139 27.0503C14.6139 27.0375 14.8822 26.7003 15.21 26.3009C15.5377 25.9016 16.1643 25.1236 16.6024 24.5719L17.3988 23.5688L17.7144 23.5667L18.03 23.5645V25.319ZM43.535 26.0299C44.3903 26.5657 45.106 27.0198 45.1254 27.0389C45.1449 27.058 44.2231 27.0736 43.0771 27.0736H40.9935L41.2121 26.2146C41.3324 25.7422 41.4644 25.2297 41.5055 25.0759L41.5801 24.7961L41.7799 24.9259C41.8898 24.9972 42.6796 25.494 43.535 26.0299ZM37.4126 26.0136V27.0736H33.2168H29.0209V26.0136V24.9535H33.2168H37.4126V26.0136ZM52.2648 40.7771C52.2642 48.5954 52.2438 55.0434 52.2194 55.106C52.1833 55.1984 52.0367 55.2198 51.4403 55.2198H50.7057V40.8908V26.5619H51.4858H52.2659L52.2648 40.7771ZM46.4938 28.1685C46.5259 28.1695 46.5426 28.5075 46.531 28.9196L46.5098 29.6689H35.5932H24.6765L24.6554 28.9201L24.6342 28.1712L29.5567 28.1524C33.169 28.1386 45.8774 28.1507 46.4938 28.1685ZM46.5298 32.3921L46.5098 34.0553H46.3003C46.1108 34.0553 46.0767 34.014 45.9424 33.6225C45.5591 32.5047 44.6269 31.7397 43.3899 31.5276C41.9102 31.274 40.3175 32.2665 39.8919 33.7077L39.7767 34.098L39.2575 34.0767L38.7383 34.0553L38.5923 33.6288C38.4022 33.0736 38.1837 32.7421 37.7383 32.3333C36.0297 30.7651 33.271 31.4956 32.5457 33.7081L32.4199 34.0919H28.5297H24.6394V32.4104V30.729H35.5946H46.5498L46.5298 32.3921ZM20.3192 32.7811C20.8498 33.0421 21.1672 33.3881 21.3733 33.9302C21.6734 34.7192 21.5017 35.4386 20.864 36.0642C20.3943 36.5249 19.9845 36.6864 19.323 36.6711C18.6016 36.6545 17.8871 36.1977 17.5544 35.5404C17.3032 35.0443 17.2838 34.2533 17.5111 33.7773C18.0271 32.6966 19.259 32.2595 20.3192 32.7811ZM36.3415 32.7112C37.154 33.0105 37.6594 33.7331 37.665 34.6036C37.6772 36.4736 35.3503 37.3873 34.0668 36.0165C33.5045 35.4159 33.3432 34.6574 33.6229 33.9282C34.0478 32.8203 35.2169 32.2969 36.3415 32.7112ZM43.6796 32.7061C44.7853 33.1133 45.3274 34.3947 44.8456 35.462C44.2384 36.8071 42.3995 37.0873 41.3953 35.9877C40.5696 35.0837 40.6953 33.7211 41.6709 32.9987C42.2956 32.5362 42.9567 32.4398 43.6796 32.7061ZM16.6696 33.0135C16.5437 33.3042 16.3249 33.8542 16.2914 33.9639C16.2552 34.0826 16.0659 34.0919 13.6879 34.0919H11.1236V33.507V32.9222H13.9164C16.1222 32.9222 16.7009 32.9414 16.6696 33.0135ZM32.4184 35.2239C32.4695 35.2421 32.5113 35.322 32.5113 35.4016C32.5113 35.481 32.6449 35.8005 32.8083 36.1112C32.9717 36.4221 33.1054 36.6871 33.1054 36.7002C33.1054 36.7133 30.5823 36.7231 27.4985 36.7219C24.4148 36.7207 21.8917 36.7057 21.8917 36.6884C21.8917 36.6712 21.9915 36.4904 22.1135 36.2868C22.2354 36.0831 22.3895 35.7531 22.4559 35.5534L22.5765 35.1904L24.9261 35.1712C27.8149 35.1475 32.2925 35.179 32.4184 35.2239ZM39.928 35.6175C40.0154 35.8536 40.1704 36.1676 40.2722 36.3153C40.3741 36.4631 40.4574 36.6155 40.4574 36.6538C40.4574 36.7421 38.1053 36.7484 38.05 36.6604C38.0281 36.6255 38.0737 36.5404 38.1514 36.4713C38.2717 36.3641 38.5653 35.7503 38.7038 35.3164C38.7375 35.2108 38.8341 35.1885 39.2569 35.1885H39.7691L39.928 35.6175ZM56.7952 38.2079C56.2517 38.477 56.4334 39.2733 57.0399 39.2801C57.3139 39.2832 57.6121 38.988 57.6121 38.7137C57.6121 38.3354 57.1347 38.0398 56.7952 38.2079ZM13.0375 38.3138C12.7827 38.5996 12.8174 38.9584 13.1222 39.1887C13.3174 39.3363 13.6398 39.2977 13.8375 39.103C14.0603 38.8837 14.0701 38.634 13.8659 38.3785C13.6786 38.144 13.2209 38.1083 13.0375 38.3138ZM38.829 38.3785C38.6248 38.634 38.6346 38.8837 38.8574 39.103C39.2247 39.4646 39.8187 39.2448 39.8187 38.7472C39.8187 38.3885 39.6181 38.1859 39.2631 38.1859C39.0488 38.1859 38.9467 38.2312 38.829 38.3785ZM43.7849 38.3138C43.6093 38.515 43.5764 38.6758 43.6616 38.9164C43.8029 39.3155 44.2703 39.4103 44.5823 39.103C44.9573 38.7339 44.7164 38.1859 44.1791 38.1859C44.002 38.1859 43.8548 38.2336 43.7849 38.3138ZM47.8271 38.3316C47.6026 38.5375 47.6096 38.8731 47.8432 39.103C48.3223 39.5747 49.0171 39.0662 48.713 38.4665C48.6075 38.2585 48.5451 38.2192 48.2912 38.2008C48.0708 38.1848 47.95 38.2188 47.8271 38.3316ZM17.1518 38.6475C16.7991 39.0171 17.0418 39.6041 17.5473 39.6041C17.8885 39.6041 18.1043 39.3793 18.1043 39.0238C18.1043 38.551 17.4794 38.3041 17.1518 38.6475ZM20.1432 38.6578C20.0429 38.7565 19.9608 38.9165 19.9608 39.0134C19.9608 39.2194 20.202 39.5476 20.3985 39.609C20.7497 39.7187 21.2072 39.3012 21.1182 38.9522C20.999 38.4846 20.4786 38.3275 20.1432 38.6578ZM54.2298 38.6578C54.032 38.8524 53.9928 39.1697 54.1427 39.3619C54.4739 39.7866 55.0643 39.6566 55.1979 39.1295C55.2341 38.9867 55.1973 38.8832 55.0485 38.7092C54.8009 38.4194 54.4916 38.4 54.2298 38.6578ZM10.1919 38.8771C9.82456 39.2387 10.0479 39.8235 10.5533 39.8235C10.9177 39.8235 11.1236 39.626 11.1236 39.2765C11.1236 38.7656 10.5534 38.5212 10.1919 38.8771ZM23.4761 38.8857C23.3167 39.0427 23.2923 39.1184 23.3293 39.3424C23.4291 39.9482 24.2003 40.0254 24.4218 39.4518C24.6396 38.888 23.9146 38.4541 23.4761 38.8857ZM27.107 38.7875C26.6028 39.0268 26.951 39.9726 27.4939 39.8384C27.9746 39.7196 28.1365 39.2094 27.7989 38.8771C27.605 38.6861 27.3817 38.6573 27.107 38.7875ZM30.837 38.8771C30.4065 39.3008 30.8559 40.0108 31.4208 39.7993C31.8814 39.6269 31.9568 39.0579 31.5502 38.8214C31.2561 38.6504 31.051 38.6664 30.837 38.8771ZM35.2928 38.8771C35.042 39.1239 35.0503 39.4538 35.3133 39.6938C35.6815 40.0297 36.2244 39.781 36.2244 39.2765C36.2244 38.7656 35.6542 38.5212 35.2928 38.8771ZM42.119 38.7696C42.0323 38.8041 41.925 38.9348 41.8806 39.0601C41.662 39.6773 42.3804 40.1103 42.8317 39.6333C43.2618 39.1789 42.7253 38.5286 42.119 38.7696ZM46 38.8492C45.5891 39.1673 45.8324 39.8235 46.3613 39.8235C46.8797 39.8235 47.109 39.2443 46.7359 38.8771C46.5132 38.6578 46.2595 38.6481 46 38.8492ZM33.3619 39.213C33.2818 39.3002 33.2242 39.4722 33.2242 39.6245C33.2242 40.1221 33.8182 40.3419 34.1855 39.9803C34.4083 39.761 34.4181 39.5113 34.2139 39.2558C34.0163 39.0085 33.5705 38.9861 33.3619 39.213ZM15.2134 39.4751C15.0092 39.7306 15.019 39.9803 15.2418 40.1996C15.6225 40.5744 16.2031 40.3516 16.2031 39.8308C16.2031 39.4858 15.9971 39.2825 15.6475 39.2825C15.4333 39.2825 15.3311 39.3278 15.2134 39.4751ZM28.8667 40.0079C28.7473 40.1255 28.6496 40.2924 28.6496 40.3791C28.6496 40.6005 29.0404 40.9639 29.2785 40.9639C29.548 40.9639 29.8378 40.6609 29.8378 40.3791C29.8378 40.0972 29.548 39.7942 29.2785 39.7942C29.1622 39.7942 28.9963 39.8804 28.8667 40.0079ZM37.5983 40.098C37.2192 40.3021 37.1504 40.7124 37.4464 41.0038C37.6941 41.2476 37.9672 41.2334 38.2428 40.9621C38.5077 40.7013 38.489 40.445 38.1855 40.178C37.9801 39.9974 37.8245 39.9762 37.5983 40.098ZM40.7778 40.0855C40.4258 40.2286 40.3518 40.7204 40.6397 41.0038C40.74 41.1025 40.9085 41.1832 41.0144 41.1832C41.4568 41.1832 41.7595 40.4956 41.4414 40.2133C41.2688 40.0602 40.978 40.0042 40.7778 40.0855ZM18.2257 40.4575C17.8005 40.7868 18.1219 41.549 18.6428 41.4464C18.9879 41.3784 19.144 41.2036 19.144 40.8848C19.144 40.5756 18.8846 40.306 18.587 40.306C18.4959 40.306 18.3333 40.3742 18.2257 40.4575ZM25.5777 40.4575C25.3013 40.6715 25.3013 41.1101 25.5777 41.3241C25.8373 41.5252 26.0909 41.5155 26.3137 41.2962C26.6785 40.937 26.4398 40.306 25.939 40.306C25.8479 40.306 25.6853 40.3742 25.5777 40.4575ZM43.3265 40.5306C43.0077 40.7775 43.065 41.2544 43.4363 41.4434C44.0125 41.7367 44.5245 41.0133 44.0625 40.5585C43.8398 40.3392 43.5861 40.3296 43.3265 40.5306ZM47.3185 40.5503C47.174 40.6726 47.1163 40.7907 47.1163 40.9639C47.1163 41.2509 47.4163 41.5488 47.7055 41.5488C47.9663 41.5488 48.255 41.2414 48.255 40.9639C48.255 40.6864 47.9663 40.3791 47.7055 40.3791C47.6038 40.3791 47.4296 40.4561 47.3185 40.5503ZM54.399 40.598C54.1152 40.8178 54.1116 41.2534 54.3917 41.4703C54.6512 41.6714 54.9049 41.6617 55.1276 41.4424C55.6338 40.9441 54.9602 40.1634 54.399 40.598ZM56.7013 40.6898C56.5401 40.8103 56.4162 41.1492 56.4744 41.3105C56.6879 41.9031 57.6121 41.7783 57.6121 41.1569C57.6121 40.7429 57.0298 40.4442 56.7013 40.6898ZM45.3816 40.8191C45.1278 40.9187 44.9662 41.2139 45.0239 41.4726C45.1391 41.9888 45.822 42.0831 46.067 41.6166C46.215 41.3349 46.2041 41.2222 46.0085 41.0105C45.8094 40.7948 45.6036 40.732 45.3816 40.8191ZM20.6421 41.06C20.4389 41.2729 20.4361 41.5464 20.6346 41.7948C20.7543 41.9447 20.8535 41.9874 21.0812 41.9874C21.3314 41.9874 21.3957 41.9529 21.5231 41.7498C21.6175 41.5993 21.6568 41.4453 21.6302 41.3295C21.5318 40.9002 20.9468 40.7408 20.6421 41.06ZM31.5692 41.1821C31.2205 41.3239 31.136 41.8577 31.4206 42.1209C31.637 42.3209 31.9147 42.3237 32.1671 42.1283C32.666 41.742 32.1605 40.9419 31.5692 41.1821ZM35.5289 41.2617C35.2101 41.5086 35.2674 41.9854 35.6387 42.1744C36.0468 42.3822 36.4472 42.1212 36.4472 41.6475C36.4472 41.3808 36.1666 41.1101 35.8902 41.1101C35.7991 41.1101 35.6365 41.1783 35.5289 41.2617ZM33.4109 41.4574C33.0059 41.7884 33.2477 42.4504 33.7737 42.4504C34.0653 42.4504 34.3678 42.1551 34.3678 41.8704C34.3678 41.4419 33.754 41.177 33.4109 41.4574ZM27.7213 41.4899C27.5086 41.6087 27.4638 41.697 27.4625 42.0004C27.4604 42.5041 28.0342 42.7461 28.393 42.3928C28.6413 42.1485 28.6354 41.8159 28.3788 41.5818C28.1666 41.3882 27.9562 41.3588 27.7213 41.4899ZM22.9454 41.8441C22.7406 42.0319 22.7221 42.4962 22.9128 42.6638C23.2761 42.983 23.8968 42.7369 23.8968 42.2737C23.8968 41.7976 23.2932 41.5251 22.9454 41.8441ZM39.4317 42.1365C39.2206 42.3301 39.2135 42.7368 39.4177 42.9378C39.5096 43.0283 39.6652 43.084 39.8261 43.084C40.1619 43.084 40.3831 42.8713 40.3831 42.5484C40.3831 42.0663 39.7888 41.809 39.4317 42.1365ZM30.0235 42.4109C29.6049 42.4961 29.4561 43.0788 29.7776 43.3736C30.2407 43.7984 30.9591 43.2053 30.6563 42.6482C30.5717 42.4927 30.2376 42.3674 30.0235 42.4109ZM42.1654 42.4481C41.892 42.5835 41.7761 42.865 41.8767 43.1492C42.0205 43.5555 42.4853 43.6531 42.8 43.3432C43.0272 43.1196 43.0327 42.8544 42.8152 42.6188C42.6004 42.3862 42.3979 42.333 42.1654 42.4481ZM25.5446 42.9407C25.3335 43.1342 25.3263 43.5409 25.5306 43.742C25.6225 43.8325 25.7781 43.8882 25.939 43.8882C26.2747 43.8882 26.496 43.6755 26.496 43.3526C26.496 42.8705 25.9016 42.6131 25.5446 42.9407ZM37.3383 42.9378C37.2464 43.0283 37.1898 43.1815 37.1898 43.3399C37.1898 43.6704 37.4059 43.8882 37.7339 43.8882C38.2371 43.8882 38.4933 43.2848 38.1319 42.9505C37.9131 42.7482 37.5371 42.7422 37.3383 42.9378ZM17.6545 43.0522C18.5564 43.3183 19.3944 43.601 19.4595 43.6612C19.4901 43.6895 18.5966 44.6157 17.4739 45.7195L15.4327 47.7263L14.604 47.7784C13.7687 47.8309 12.5888 48.0304 11.9033 48.2352C11.6991 48.2963 11.4987 48.3465 11.458 48.3469C11.4173 48.3474 12.6371 47.1141 14.1686 45.6064C15.7002 44.0987 16.9681 42.8651 16.9861 42.8649C17.0042 42.8648 17.305 42.9491 17.6545 43.0522ZM54.496 43.312C55.0458 43.4777 55.5708 43.6296 55.6627 43.6496C55.7546 43.6695 55.8298 43.7071 55.8298 43.7331C55.8298 43.7589 55.2617 44.3387 54.5673 45.0214L53.3049 46.2626V44.6367C53.3049 43.3582 53.3253 43.0109 53.4006 43.0109C53.4533 43.0109 53.9462 43.1465 54.496 43.312ZM46.5097 46.2257L43.3165 49.3675L42.1784 49.6683C40.9893 49.9826 39.0338 50.3959 38.9754 50.3452C38.9149 50.2927 44.8702 44.464 45.0617 44.3883C45.3984 44.2551 48.2067 43.3873 48.7748 43.2409C49.8649 42.9599 49.9705 42.8207 46.5097 46.2257ZM28.3121 43.5559C27.9726 43.89 28.1409 44.4254 28.6137 44.5151C29.1621 44.6191 29.4912 43.8712 29.048 43.528C28.7885 43.327 28.5348 43.3366 28.3121 43.5559ZM32.5167 43.7884C32.432 43.8943 32.3627 44.0544 32.3627 44.1441C32.3627 44.4162 32.6377 44.6924 32.9086 44.6924C33.3898 44.6924 33.6549 44.2982 33.4439 43.8965C33.2519 43.531 32.7675 43.4746 32.5167 43.7884ZM34.7476 43.7237C34.3325 44.063 34.5683 44.6924 35.1105 44.6924C35.6354 44.6924 35.8863 44.1335 35.5222 43.7753C35.3058 43.5621 34.9725 43.5399 34.7476 43.7237ZM23.0314 44.8792C23.1452 44.9237 22.8884 45.2089 21.5217 46.5553L19.8747 48.1778L19.4908 48.1136C19.2796 48.0783 18.6464 47.9927 18.0836 47.9235C17.5208 47.8542 17.0546 47.7667 17.0477 47.7292C17.0407 47.6916 17.852 46.8495 18.8506 45.8581L20.6663 44.0554L21.7803 44.4405C22.393 44.6522 22.9559 44.8496 23.0314 44.8792ZM31.0149 44.1908C30.9067 44.2294 30.7776 44.3574 30.728 44.4753C30.5377 44.9277 30.8683 45.3364 31.3524 45.247C31.6717 45.188 31.7983 45.0385 31.7983 44.7204C31.7983 44.3086 31.4136 44.0484 31.0149 44.1908ZM49.666 45.8986C49.666 47.0469 49.659 47.1049 49.5208 47.1049C49.3413 47.1049 48.0777 47.5506 46.8484 48.0474C46.3403 48.2528 45.8952 48.4208 45.8593 48.4208C45.8234 48.4208 46.6479 47.5819 47.6916 46.5566C48.7352 45.5313 49.6063 44.6924 49.6275 44.6924C49.6487 44.6924 49.666 45.2352 49.666 45.8986ZM39.8994 47.8654L37.1146 50.5997L36.2796 50.6485C35.8204 50.6753 35.052 50.6867 34.5721 50.6739L33.6996 50.6506L35.8881 48.4939L38.0764 46.3373L39.8795 45.8858C40.8713 45.6375 41.8832 45.3693 42.1283 45.29C42.3734 45.2106 42.5987 45.1423 42.629 45.1383C42.6594 45.1343 41.431 46.3615 39.8994 47.8654ZM25.7148 45.747C26.3267 45.9361 26.8413 46.1046 26.8584 46.1214C26.8755 46.1382 26.2148 46.8123 25.3902 47.6194C24.3226 48.6644 23.8544 49.0762 23.7639 49.0501C23.694 49.0298 23.1022 48.8911 22.4486 48.7418C21.7951 48.5926 21.2453 48.4581 21.2267 48.443C21.2082 48.4278 21.8932 47.7242 22.7491 46.8793C23.9313 45.7124 24.3409 45.3505 24.4537 45.3733C24.5354 45.3897 25.1029 45.558 25.7148 45.747ZM29.5407 46.6596C30.0921 46.75 30.6574 46.8403 30.7969 46.8604L31.0505 46.8967L29.498 48.4264C28.5976 49.3135 27.8878 49.9561 27.8083 49.9561C27.6739 49.9561 25.4489 49.4771 25.2374 49.4026C25.1654 49.3772 25.6177 48.8831 26.6113 47.9018C27.966 46.5638 28.1116 46.4411 28.3154 46.467C28.4379 46.4826 28.9893 46.5693 29.5407 46.6596ZM34.1817 48.6454L32.1771 50.6246L31.6578 50.5765C30.98 50.514 29.32 50.2749 29.2784 50.2339C29.2606 50.2163 29.9811 49.4805 30.8794 48.5986L32.5129 46.9952L33.0505 46.9433C33.9549 46.856 35.805 46.6893 36.0011 46.6775C36.1478 46.6686 35.77 47.0772 34.1817 48.6454Z" fill="#16246B"/>
</svg>
