<svg width="68" height="68" viewBox="0 0 68 68" fill="none" xmlns="http://www.w3.org/2000/svg">
<path d="M37.0643 28.0511V24.6805C38.6088 24.0336 39.8803 22.8765 40.6631 21.4055C41.4459 19.9345 41.6919 18.2401 41.3593 16.6096C41.0267 14.9792 40.136 13.5131 38.8383 12.4599C37.5406 11.4068 35.9157 10.8314 34.2392 10.8314C32.5627 10.8314 30.9378 11.4068 29.64 12.4599C28.3423 13.5131 27.4516 14.9792 27.119 16.6096C26.7864 18.2401 27.0324 19.9345 27.8152 21.4055C28.598 22.8765 29.8695 24.0336 31.4141 24.6805V28.0511H33.0284V25.1394C33.829 25.2841 34.6493 25.2841 35.4499 25.1394V28.0511H37.0643ZM34.2392 23.6461C32.8814 23.6453 31.5693 23.1591 30.5434 22.2766C29.5174 21.394 28.8464 20.1742 28.6532 18.8406H28.9926C29.2066 18.8406 29.4119 18.7562 29.5633 18.606C29.7147 18.4558 29.7997 18.2521 29.7997 18.0397C29.7997 17.8272 29.7147 17.6235 29.5633 17.4733C29.4119 17.3231 29.2066 17.2387 28.9926 17.2387H28.6532C28.7866 16.3128 29.153 15.435 29.7186 14.6866L29.9586 14.9248C30.11 15.0745 30.3151 15.1584 30.5289 15.1582C30.7427 15.158 30.9477 15.0737 31.0989 14.9237C31.25 14.7737 31.335 14.5703 31.3353 14.3582C31.3355 14.1461 31.2508 13.9425 31.1 13.7922L30.86 13.5541C31.6142 12.993 32.4988 12.6294 33.432 12.4969V12.8337C33.432 13.0461 33.517 13.2498 33.6684 13.4C33.8198 13.5502 34.0251 13.6346 34.2392 13.6346C34.4532 13.6346 34.6585 13.5502 34.8099 13.4C34.9613 13.2498 35.0463 13.0461 35.0463 12.8337V12.4969C35.9796 12.6294 36.8641 12.993 37.6184 13.5541L37.3784 13.7922C37.3032 13.8665 37.2435 13.9548 37.2028 14.0521C37.162 14.1493 37.141 14.2535 37.1409 14.3588C37.1408 14.4641 37.1616 14.5684 37.2022 14.6657C37.2428 14.763 37.3023 14.8514 37.3773 14.9259C37.4523 15.0003 37.5414 15.0593 37.6395 15.0996C37.7376 15.1398 37.8427 15.1605 37.9488 15.1604C38.0549 15.1603 38.1599 15.1394 38.2579 15.099C38.3559 15.0586 38.4449 14.9994 38.5198 14.9248L38.7598 14.6866C39.3253 15.4351 39.6917 16.3128 39.8252 17.2387H39.4858C39.2717 17.2387 39.0664 17.3231 38.915 17.4733C38.7637 17.6235 38.6786 17.8272 38.6786 18.0397C38.6786 18.2521 38.7637 18.4558 38.915 18.606C39.0664 18.7562 39.2717 18.8406 39.4858 18.8406H39.8252C39.632 20.1742 38.9609 21.394 37.935 22.2766C36.9091 23.1591 35.597 23.6453 34.2392 23.6461Z" fill="#16246B"/>
<path d="M58.2804 42.6879H57.8689V38.2062C57.8669 36.3698 57.1292 34.6093 55.8177 33.3108C54.5062 32.0123 52.7281 31.2819 50.8734 31.2798H46.7584V32.9096H50.8734C52.2917 32.9112 53.6514 33.4697 54.6543 34.4627C55.6572 35.4556 56.2213 36.8019 56.2229 38.2062V42.6879H50.4619V41.0582C50.4612 40.41 50.2009 39.7887 49.738 39.3304C49.2751 38.8721 48.6475 38.6143 47.9929 38.6136H46.7584V40.2433H47.9929C48.2111 40.2436 48.4203 40.3295 48.5746 40.4823C48.7289 40.635 48.8157 40.8421 48.8159 41.0582V42.6879H48.4044C47.8589 42.6885 47.336 42.9034 46.9503 43.2853C46.5645 43.6672 46.3476 44.185 46.3469 44.725V47.1696C46.3476 47.7097 46.5645 48.2275 46.9503 48.6094C47.336 48.9913 47.8589 49.2061 48.4044 49.2068H48.8159V53.2811H48.4044C47.8589 53.2817 47.336 53.4965 46.9503 53.8784C46.5645 54.2603 46.3476 54.7781 46.3469 55.3182V57.7628C46.3476 58.3029 46.5645 58.8207 46.9503 59.2026C47.336 59.5845 47.8589 59.7993 48.4044 59.8H58.2804C58.8259 59.7993 59.3489 59.5845 59.7346 59.2026C60.1203 58.8207 60.3373 58.3029 60.3379 57.7628V55.3182C60.3373 54.7781 60.1203 54.2603 59.7346 53.8784C59.3489 53.4965 58.8259 53.2817 58.2804 53.2811H57.8689V49.2068H58.2804C58.8259 49.2061 59.3489 48.9913 59.7346 48.6094C60.1203 48.2275 60.3373 47.7097 60.3379 47.1696V44.725C60.3373 44.185 60.1203 43.6672 59.7346 43.2853C59.3489 42.9034 58.8259 42.6885 58.2804 42.6879ZM58.2804 54.9108C58.3895 54.9109 58.4941 54.9539 58.5713 55.0302C58.6484 55.1066 58.6918 55.2102 58.6919 55.3182V57.7628C58.6918 57.8708 58.6484 57.9744 58.5713 58.0508C58.4941 58.1272 58.3895 58.1701 58.2804 58.1702H48.4044C48.2953 58.1701 48.1907 58.1272 48.1136 58.0508C48.0364 57.9744 47.993 57.8708 47.9929 57.7628V55.3182C47.993 55.2102 48.0364 55.1066 48.1136 55.0302C48.1907 54.9539 48.2953 54.9109 48.4044 54.9108H58.2804ZM50.4619 53.2811V49.2068H56.2229V53.2811H50.4619ZM58.6919 47.1696C58.6918 47.2776 58.6484 47.3812 58.5713 47.4576C58.4941 47.534 58.3895 47.5769 58.2804 47.5771H48.4044C48.2953 47.5769 48.1907 47.534 48.1136 47.4576C48.0364 47.3812 47.993 47.2776 47.9929 47.1696V44.725C47.993 44.617 48.0364 44.5134 48.1136 44.4371C48.1907 44.3607 48.2953 44.3177 48.4044 44.3176H58.2804C58.3895 44.3177 58.4941 44.3607 58.5713 44.4371C58.6484 44.5134 58.6918 44.617 58.6919 44.725V47.1696Z" fill="#16246B"/>
<path d="M10.6571 25.0915H11.0527V33.5668C11.0547 35.3858 11.7641 37.1298 13.0251 38.416C14.2861 39.7023 15.9958 40.4258 17.7792 40.4278H21.7359V38.8134H17.7792C16.4155 38.8119 15.108 38.2586 14.1437 37.275C13.1794 36.2914 12.637 34.9578 12.6354 33.5668V25.0915H18.1749V30.7417C18.1755 31.3837 18.4259 31.9992 18.871 32.4532C19.316 32.9072 19.9195 33.1625 20.5489 33.1632H21.7359V31.5489H20.5489C20.3391 31.5486 20.138 31.4635 19.9896 31.3122C19.8412 31.1609 19.7578 30.9557 19.7576 30.7417V25.0915H20.1532C20.6777 25.0909 21.1806 24.8781 21.5515 24.4998C21.9223 24.1215 22.131 23.6086 22.1316 23.0736V20.6521C22.131 20.1171 21.9223 19.6042 21.5515 19.2259C21.1806 18.8476 20.6777 18.6347 20.1532 18.6341H19.7576V14.5983H20.1532C20.6777 14.5976 21.1806 14.3848 21.5515 14.0065C21.9223 13.6282 22.131 13.1153 22.1316 12.5803V10.1588C22.131 9.62381 21.9223 9.1109 21.5515 8.7326C21.1806 8.3543 20.6777 8.1415 20.1532 8.14087H10.6571C10.1326 8.1415 9.62972 8.3543 9.25884 8.7326C8.88796 9.1109 8.67933 9.62381 8.67871 10.1588V12.5803C8.67933 13.1153 8.88796 13.6282 9.25884 14.0065C9.62972 14.3848 10.1326 14.5976 10.6571 14.5983H11.0527V18.6341H10.6571C10.1326 18.6347 9.62972 18.8476 9.25884 19.2259C8.88796 19.6042 8.67933 20.1171 8.67871 20.6521V23.0736C8.67933 23.6086 8.88796 24.1215 9.25884 24.4998C9.62972 24.8781 10.1326 25.0909 10.6571 25.0915ZM10.6571 12.9839C10.5522 12.9838 10.4516 12.9412 10.3774 12.8656C10.3032 12.7899 10.2615 12.6873 10.2614 12.5803V10.1588C10.2615 10.0518 10.3032 9.9492 10.3774 9.87354C10.4516 9.79788 10.5522 9.75532 10.6571 9.75522H20.1532C20.2581 9.75532 20.3587 9.79788 20.4329 9.87354C20.5071 9.9492 20.5488 10.0518 20.5489 10.1588V12.5803C20.5488 12.6873 20.5071 12.7899 20.4329 12.8656C20.3587 12.9412 20.2581 12.9838 20.1532 12.9839H10.6571ZM18.1749 14.5983V18.6341H12.6354V14.5983H18.1749ZM10.2614 20.6521C10.2615 20.545 10.3032 20.4425 10.3774 20.3668C10.4516 20.2911 10.5522 20.2486 10.6571 20.2485H20.1532C20.2581 20.2486 20.3587 20.2911 20.4329 20.3668C20.5071 20.4425 20.5488 20.545 20.5489 20.6521V23.0736C20.5488 23.1806 20.5071 23.2832 20.4329 23.3588C20.3587 23.4345 20.2581 23.477 20.1532 23.4772H10.6571C10.5522 23.477 10.4516 23.4345 10.3774 23.3588C10.3032 23.2832 10.2615 23.1806 10.2614 23.0736V20.6521Z" fill="#16246B"/>
<path d="M10.1586 59.2618H12.5801C13.1151 59.2612 13.628 59.0455 14.0063 58.6622C14.3846 58.2788 14.5974 57.7591 14.598 57.217V56.808H31.9522C33.7712 56.8059 35.5152 56.0728 36.8014 54.7694C38.0877 53.466 38.8112 51.6988 38.8132 49.8555V42.0852H39.6777C39.7666 42.4354 39.9677 42.7459 40.2495 42.968C40.5313 43.19 40.8778 43.311 41.2347 43.3121H43.6562C44.0842 43.3116 44.4946 43.1391 44.7972 42.8324C45.0999 42.5257 45.2701 42.1099 45.2706 41.6762V30.2251C45.2701 29.7914 45.0999 29.3756 44.7972 29.0689C44.4946 28.7622 44.0842 28.5897 43.6562 28.5892H41.2347C40.8778 28.5903 40.5313 28.7113 40.2495 28.9333C39.9677 29.1554 39.7666 29.4659 39.6777 29.8161H29.0698C28.9809 29.4659 28.7797 29.1554 28.498 28.9333C28.2162 28.7113 27.8697 28.5903 27.5128 28.5892H25.0913C24.6632 28.5897 24.2529 28.7622 23.9502 29.0689C23.6476 29.3756 23.4774 29.7914 23.4769 30.2251V41.6762C23.4774 42.1099 23.6476 42.5257 23.9502 42.8324C24.2529 43.1391 24.6632 43.3116 25.0913 43.3121H27.5128C27.8697 43.311 28.2162 43.19 28.498 42.968C28.7797 42.7459 28.9809 42.4354 29.0698 42.0852H29.9343V46.9928C29.934 47.2096 29.8489 47.4175 29.6976 47.5709C29.5463 47.7242 29.3411 47.8105 29.1271 47.8107H14.598V47.4017C14.5974 46.8596 14.3846 46.3399 14.0063 45.9565C13.628 45.5732 13.1151 45.3575 12.5801 45.3569H10.1586C9.62356 45.3575 9.11066 45.5732 8.73236 45.9565C8.35406 46.3399 8.14125 46.8596 8.14062 47.4017V57.217C8.14125 57.7591 8.35406 58.2788 8.73236 58.6622C9.11066 59.0455 9.62356 59.2612 10.1586 59.2618ZM41.2347 30.2251H43.6562L43.6574 41.6762H41.2347V30.2251ZM25.0913 41.6762V30.2251H27.5128L27.514 41.6762H25.0913ZM29.1271 40.4493V31.452H39.6204V40.4493H29.1271ZM14.598 49.4466H29.1271C29.7691 49.4459 30.3846 49.1871 30.8386 48.7271C31.2926 48.2671 31.5479 47.6433 31.5486 46.9928V42.0852H37.1988V49.8555C37.1973 51.2651 36.644 52.6165 35.6604 53.6132C34.6768 54.6099 33.3432 55.1705 31.9522 55.1721H14.598V49.4466ZM9.75497 47.4017C9.75508 47.2933 9.79763 47.1894 9.8733 47.1127C9.94896 47.036 10.0516 46.9929 10.1586 46.9928H12.5801C12.6871 46.9929 12.7897 47.036 12.8653 47.1127C12.941 47.1894 12.9836 47.2933 12.9837 47.4017V57.217C12.9836 57.3254 12.941 57.4294 12.8653 57.506C12.7897 57.5827 12.6871 57.6258 12.5801 57.6259H10.1586C10.0516 57.6258 9.94896 57.5827 9.8733 57.506C9.79763 57.4294 9.75508 57.3254 9.75497 57.217V47.4017Z" fill="#16246B"/>
<path d="M34.5082 32.8942C32.6977 32.8942 31.2795 34.1942 31.2795 35.8538C31.2795 37.5134 32.6977 38.8134 34.5082 38.8134C36.3187 38.8134 37.7369 37.5134 37.7369 35.8538C37.7369 34.1942 36.3187 32.8942 34.5082 32.8942ZM34.5082 37.1222C33.6167 37.1222 32.8939 36.5543 32.8939 35.8538C32.8939 35.1533 33.6167 34.5854 34.5082 34.5854C35.3998 34.5854 36.1226 35.1533 36.1226 35.8538C36.1226 36.5543 35.3998 37.1222 34.5082 37.1222Z" fill="#16246B"/>
</svg>
