<svg width="65" height="64" viewBox="0 0 65 64" fill="none" xmlns="http://www.w3.org/2000/svg">
<g opacity="0.4">
<path fill-rule="evenodd" clip-rule="evenodd" d="M37.1946 5.68596C36.1051 6.83024 35.1442 7.85234 35.0591 7.95727C34.4748 8.6786 34.1022 9.52625 33.9432 10.4962C33.8841 10.8565 33.8834 11.6231 33.9417 12.0016C34.2363 13.9128 35.4848 15.4749 37.2754 16.1726C37.8668 16.4031 38.4841 16.5152 39.1677 16.5163C39.8225 16.5173 40.3111 16.4368 40.9149 16.2285C42.7809 15.5844 44.1156 13.9642 44.4165 11.9779C44.501 11.4203 44.4651 10.6485 44.3271 10.0576C44.1498 9.29797 43.7232 8.44959 43.2302 7.87646C43.1075 7.73374 39.6551 4.09432 39.276 3.70803L39.1754 3.60547L37.1946 5.68596ZM40.6552 6.48956C42.4334 8.3608 42.3733 8.2971 42.5101 8.45568C43.0225 9.0498 43.3655 9.79766 43.5003 10.6147C43.5408 10.8598 43.5412 11.6458 43.501 11.8949C43.1884 13.8345 41.6753 15.3142 39.7423 15.5706C37.5756 15.8581 35.4943 14.4572 34.9505 12.3454C34.8427 11.9269 34.8262 11.78 34.8267 11.2429C34.8271 10.6672 34.8648 10.4118 35.021 9.92717C35.1846 9.41938 35.5144 8.82701 35.841 8.45452C35.9109 8.37477 36.6903 7.5505 37.5731 6.62279L39.1781 4.93606L39.2408 5.00159C39.2752 5.0376 39.9117 5.7072 40.6552 6.48956Z" fill="white" stroke="white"/>
<path fill-rule="evenodd" clip-rule="evenodd" d="M5.83761 33.4402C7.276 31.8052 8.83276 30.5393 10.4833 29.6626C12.8583 28.4012 15.2461 28.174 17.2013 29.0234C17.7812 29.2754 18.5031 29.7883 18.9 30.2306C19.4058 30.7942 19.7839 31.471 19.9937 32.1883C20.0575 32.4066 20.1194 32.6145 20.1312 32.6503C20.1453 32.6928 20.321 32.7637 20.6408 32.8558C21.8621 33.2076 23.105 33.6772 24.2073 34.2032C24.6523 34.4157 25.8358 35.0701 26.64 35.5485L26.8667 35.6834L26.7603 35.4959C26.2728 34.6368 25.6404 33.2896 25.3264 32.4412L25.1939 32.0833L24.7195 32.0625C23.8893 32.0259 23.0689 31.816 22.2933 31.4418C21.7892 31.1985 20.9022 30.5448 20.5021 30.1217C19.1686 28.7119 18.4979 26.7429 18.5782 24.474C18.6736 21.7777 19.9308 18.7542 22.1536 15.8754C22.945 14.8504 23.4944 14.234 24.3983 13.3572C25.3854 12.3996 25.5163 12.2946 25.7592 12.2652C25.931 12.2444 25.991 12.2602 26.1287 12.3623C26.2718 12.4684 26.3169 12.5481 26.4756 12.9743C26.7465 13.7019 27.3259 14.7752 28.2339 16.2314C30.1753 19.345 30.9116 21.0188 31.2687 23.1305C31.4553 24.2339 31.4658 25.0683 31.3065 26.1382C30.9487 28.5415 29.6631 30.4968 27.8306 31.4247C27.4764 31.6041 26.7162 31.8816 26.5282 31.9002C26.4639 31.9066 26.4018 31.9249 26.3899 31.941C26.3701 31.9679 26.6213 32.6993 26.6603 32.728C26.6699 32.7351 26.7453 32.9042 26.8278 33.1039C27.0112 33.5475 27.5986 34.6787 27.9642 35.2924C28.5101 36.2085 29.504 37.5216 30.1292 38.1527C30.6417 38.6701 30.6939 38.7378 30.7148 38.9136C30.7389 39.1163 30.6474 39.3274 30.492 39.4278C30.3653 39.5095 30.0723 39.5719 30.0145 39.5293C29.8922 39.4393 28.0349 39.2492 27.2072 39.2421C26.7798 39.2384 25.5889 39.2996 25.5692 39.3263C25.5628 39.3349 25.5739 39.4998 25.5937 39.6927C25.6854 40.5822 25.3524 41.5191 24.7017 42.203C23.576 43.3859 22.0013 43.8439 19.851 43.6138C19.6125 43.5883 18.9557 43.484 18.3914 43.3819C17.4494 43.2117 16.9766 43.1576 16.5857 43.1752C16.2528 43.1901 15.9561 42.8655 16.007 42.542C16.036 42.3579 16.4755 41.3121 16.7498 40.7745C17.0839 40.1198 18.1018 38.7549 18.6134 38.2755C19.2537 37.6755 20.0767 37.1466 20.732 36.9141C22.3714 36.3324 24.1013 36.7865 24.9665 38.0259L25.104 38.2229L25.6644 38.1697C26.3261 38.1069 27.1151 38.0895 27.8359 38.1218L28.3558 38.1451L27.567 37.5646C25.499 36.0427 23.4002 34.9411 21.1616 34.2025C20.7275 34.0593 20.3269 33.9418 20.2714 33.9415C20.1732 33.941 20.1703 33.9453 20.167 34.095C20.1619 34.3284 20.0154 34.9532 19.876 35.3363C19.7648 35.6418 19.7 35.7479 19.2601 36.3442C18.8268 36.9317 18.7328 37.0388 18.4672 37.2485C17.5801 37.9486 16.5163 38.3993 15.3225 38.5808C14.4202 38.7179 13.6159 38.6911 12.5871 38.4897C11.2888 38.2356 10.1696 37.8071 8.20919 36.8134C6.64352 36.0199 6.15367 35.8031 5.5147 35.621C5.00142 35.4748 4.8728 35.3915 4.79193 35.1527C4.72048 34.9419 4.79597 34.7694 5.18753 34.2488C5.38615 33.9848 5.67867 33.6209 5.83761 33.4402ZM6.35834 34.6949C6.59205 34.7754 7.14066 35.0124 7.51533 35.1949C7.98154 35.4219 7.98395 35.4231 8.7297 35.8117C11.4004 37.2032 13.2501 37.6901 15.0379 37.472C16.5701 37.2852 18.0103 36.4327 18.5908 35.3693C18.6846 35.1973 18.8089 34.9089 18.867 34.7284C18.9886 34.3503 19.0879 33.7557 19.0414 33.6834C18.9728 33.5765 17.3412 33.3701 16.3456 33.3423C14.717 33.2969 12.8886 33.5595 11.3425 34.0606C10.8389 34.2239 10.6901 34.2259 10.4811 34.0725C10.2706 33.9179 10.2005 33.7302 10.2654 33.4945C10.3417 33.2177 10.4833 33.1271 11.1634 32.9205C13.5805 32.186 16.2056 32.0029 18.538 32.4061L18.891 32.4672L18.856 32.3433C18.784 32.0881 18.5853 31.7069 18.3522 31.3766C17.0805 29.5752 14.5281 29.152 11.7992 30.2901C10.5271 30.8206 9.04938 31.8365 7.7609 33.0664C7.36617 33.4432 7.13105 33.697 6.36289 34.5755C6.29677 34.6511 6.29593 34.6734 6.35834 34.6949ZM22.0104 18.0432C20.7761 19.9932 19.9896 22.0045 19.7736 23.7638C19.4 26.807 20.5885 29.3674 22.8828 30.4617C23.3721 30.6951 24.0341 30.8735 24.5393 30.9083L24.8213 30.9277L24.7728 30.7765C24.48 29.8625 24.0841 27.7349 23.9774 26.5019C23.8673 25.23 23.8539 23.336 23.9481 22.3825C24.1334 20.507 24.2618 19.5595 24.3713 19.2581C24.4302 19.096 24.4556 19.0696 24.6447 18.9728C24.8861 18.8491 25.1136 18.8846 25.2901 19.0737C25.4631 19.2589 25.4733 19.4192 25.3571 20.1278C25.2961 20.5005 25.2335 20.955 25.2182 21.1378C25.2028 21.3205 25.1859 21.4759 25.1806 21.4831C25.15 21.5247 25.0897 22.3297 25.0519 23.2018C24.944 25.6922 25.1875 27.9349 25.8265 30.3375L25.9649 30.8579L26.0982 30.8366C26.1715 30.8248 26.4154 30.7558 26.6403 30.6832C28.7909 29.989 30.2018 27.7473 30.2717 24.9135C30.3269 22.6744 29.4914 20.3659 27.4485 17.1132C26.4562 15.5333 25.8709 14.507 25.6423 13.9455L25.5809 13.7948L25.4072 13.9529C24.9944 14.3289 24.1044 15.2813 23.4962 15.998C23.1805 16.37 22.3181 17.5571 22.0104 18.0432ZM17.9802 40.923C17.6916 41.4205 17.3909 42.0317 17.4232 42.0555C17.4386 42.0668 17.5823 42.0907 17.7426 42.1086C17.9029 42.1265 18.2573 42.1866 18.5301 42.2421C20.6947 42.6824 22.0135 42.6298 23.0303 42.0629C23.3983 41.8578 23.6919 41.6274 23.9498 41.3414C24.3204 40.9303 24.5395 40.2384 24.4552 39.7455L24.4143 39.5065L24.1736 39.5551C23.4573 39.6998 22.4105 40.0462 21.6021 40.4062C21.2173 40.5776 20.3631 41.0305 19.868 41.3257C19.5761 41.4998 19.127 41.262 19.0721 40.9041C19.0354 40.6659 19.15 40.452 19.4037 40.285C19.6979 40.0914 20.7638 39.5303 21.2306 39.3233C21.9537 39.0026 23.0254 38.6382 23.6009 38.5173L23.8251 38.4703L23.764 38.376C23.6818 38.249 23.3079 38.0339 22.9805 37.9252C22.2296 37.6758 21.373 37.7974 20.4974 38.2776C20.1157 38.4869 19.4811 38.9956 19.1371 39.3679C18.7912 39.7423 18.2191 40.5113 17.9802 40.923Z" fill="white" stroke="white" stroke-width="0.5"/>
<path fill-rule="evenodd" clip-rule="evenodd" d="M40.5974 18.9614C40.4553 19.0438 40.4186 19.2046 40.4187 19.7466L40.4189 20.428L39.8665 20.3938C39.2466 20.3553 38.8855 20.4957 38.8855 20.7752C38.8855 21.0972 39.1615 21.2254 39.8055 21.2023L40.409 21.1806L40.4393 21.8617C40.4623 22.3775 40.5131 22.5699 40.6486 22.6545C40.993 22.8698 41.1819 22.6141 41.2149 21.8881L41.2446 21.2334L41.8729 21.2087C42.5454 21.1822 42.7693 21.0739 42.7693 20.7752C42.7693 20.4913 42.3961 20.349 41.7837 20.3996L41.2362 20.4448V19.7534C41.2362 19.174 41.2042 19.0451 41.0386 18.9568C40.8033 18.8315 40.8219 18.8313 40.5974 18.9614ZM41.1085 20.8349C41.1085 21.0445 41.0591 21.0892 40.8274 21.0892C40.5957 21.0892 40.5463 21.0445 40.5463 20.8349C40.5463 20.6253 40.5957 20.5806 40.8274 20.5806C41.0591 20.5806 41.1085 20.6253 41.1085 20.8349ZM33.8062 24.0589C33.4981 24.207 33.2344 24.7909 33.3136 25.1496C33.3896 25.4945 33.714 25.808 34.133 25.9414L34.4396 26.0392L34.4624 31.0593C34.4862 36.312 34.4882 36.2804 34.0352 37.6174C33.8645 38.1209 33.2987 39.9502 33.0599 40.7704C32.9622 41.1061 32.2045 43.5548 31.376 46.212C30.5475 48.8693 29.7106 51.5697 29.5162 52.213C29.3217 52.8564 29.0691 53.6802 28.955 54.0438C28.6357 55.0603 28.5566 55.6604 28.6598 56.2815C28.9549 58.058 30.0159 59.3114 31.622 59.7809C32.1055 59.9223 33.0505 59.9431 38.9584 59.9431C45.5105 59.9431 45.7605 59.9361 46.3577 59.736C47.5458 59.3377 48.2627 58.6919 48.8376 57.5021C49.133 56.8909 49.1571 56.7604 49.1571 55.773C49.1571 54.9399 49.1076 54.5595 48.9319 54.0438C48.808 53.6802 48.4732 52.6275 48.1877 51.7045C47.9024 50.7814 47.582 49.7516 47.476 49.416C47.3698 49.0803 47.16 48.3937 47.0098 47.8903C46.8596 47.3868 46.6731 46.7918 46.5955 46.568C46.5178 46.3443 45.7627 43.9078 44.9175 41.1539L43.3806 36.1466L43.4072 31.0935L43.4336 26.0403L43.7631 25.9295C44.3014 25.7486 44.5561 25.4233 44.5432 24.9333C44.5342 24.5922 44.4682 24.451 44.2111 24.2224L43.8903 23.9371L38.9605 23.944C35.7062 23.9485 33.9544 23.9876 33.8062 24.0589ZM43.6697 24.9288C43.6374 25.0952 43.3302 25.1068 38.9366 25.1068C34.543 25.1068 34.2358 25.0952 34.2035 24.9288C34.1711 24.7614 34.4511 24.7508 38.9366 24.7508C43.4221 24.7508 43.7021 24.7614 43.6697 24.9288ZM42.5649 30.9552V35.9391H40.6814C39.1055 35.9391 38.7717 35.9653 38.6373 36.0989C38.4433 36.292 38.4388 36.3582 38.6044 36.5796C38.7151 36.7276 38.9974 36.7539 40.7185 36.777L42.7047 36.8037L44.1636 41.5333C44.9661 44.1346 45.6245 46.3354 45.6269 46.4241C45.6298 46.537 45.3025 46.7077 44.5323 46.9947C43.9281 47.2199 43.2174 47.4883 42.9531 47.591C42.4863 47.7726 42.4664 47.7726 42.2642 47.5904C42.0111 47.3625 41.1479 47.2619 40.8423 47.4246C40.5432 47.5839 40.2934 47.9868 40.2217 48.4252C40.1643 48.7767 40.1328 48.8001 39.3571 49.0684C37.2733 49.789 35.4639 50.0538 33.8235 49.878C32.8825 49.7772 31.4989 49.4731 31.3622 49.337C31.333 49.3078 32.0288 46.9566 32.9086 44.1119C34.8718 37.7633 34.853 37.8242 35.1039 36.982C35.2966 36.3352 35.3083 35.9992 35.3083 31.1335V25.9713H38.9366H42.5649V30.9552ZM36.3306 43.6182C36.248 43.7171 36.2191 43.9839 36.2479 44.381L36.2924 44.9915H35.5995C35.02 44.9915 34.8895 45.0235 34.8013 45.1876C34.5596 45.637 34.9447 45.8658 35.8046 45.7836L36.2899 45.7372L36.2476 46.3192C36.2118 46.8115 36.2389 46.9347 36.4235 47.1184C36.598 47.292 36.6822 47.314 36.8438 47.2279C37.0142 47.1371 37.0458 47.0135 37.0458 46.4373V45.7543H37.7219C38.291 45.7543 38.4204 45.7212 38.5393 45.5446C38.7863 45.1779 38.5365 44.9994 37.749 44.9797L37.0724 44.9627L37.0684 44.3212C37.0662 43.9684 37.0345 43.6316 36.998 43.5728C36.8996 43.4143 36.4765 43.4431 36.3306 43.6182ZM36.9436 45.3729C36.9436 45.6035 36.8987 45.6526 36.6881 45.6526C36.4775 45.6526 36.4326 45.6035 36.4326 45.3729C36.4326 45.1423 36.4775 45.0932 36.6881 45.0932C36.8987 45.0932 36.9436 45.1423 36.9436 45.3729ZM46.1253 47.8648C46.4081 48.8227 46.5647 49.3269 47.4282 52.0605C48.2567 54.6831 48.3283 54.9769 48.3335 55.773C48.3383 56.5336 48.3029 56.7083 48.0392 57.2268C47.6891 57.915 47.0389 58.5486 46.3645 58.8588C45.8895 59.0773 45.8434 59.0786 38.9366 59.0786H31.9867L31.4038 58.7938C30.2506 58.2302 29.4826 57.0167 29.4826 55.7579C29.4826 55.1496 29.6311 54.5948 30.5674 51.7045C30.7576 51.1171 30.9134 50.5549 30.9134 50.4553C30.9135 50.1755 31.1092 50.1605 31.8823 50.3811C33.0613 50.7175 34.5994 50.8391 35.939 50.7019C37.2252 50.5702 37.7995 50.4401 39.4458 49.9077C40.4115 49.5955 40.6124 49.5606 40.8839 49.6583C41.6272 49.9258 42.413 49.6144 42.625 48.9684C42.7195 48.6804 42.8422 48.5838 43.4426 48.3246C44.4539 47.888 45.6558 47.4433 45.8399 47.4376C45.9391 47.4344 46.045 47.5929 46.1253 47.8648ZM41.6878 48.2063C41.8965 48.286 41.8964 48.6912 41.6876 48.8637C41.3902 49.1093 40.88 48.6017 41.1269 48.3057C41.27 48.1342 41.4263 48.1064 41.6878 48.2063ZM35.745 53.0804C35.4209 53.403 35.39 53.481 35.4399 53.8512C35.5057 54.3394 35.723 54.6067 36.1747 54.755C37.0658 55.0477 37.855 54.1019 37.4083 53.2767C37.052 52.6181 36.2989 52.5292 35.745 53.0804ZM36.637 53.7387C36.637 53.8506 36.5708 53.9421 36.4897 53.9421C36.2763 53.9421 36.1779 53.7311 36.3429 53.6272C36.5616 53.4893 36.637 53.5179 36.637 53.7387ZM41.6818 54.8026C41.1596 55.1666 41.1206 56.0963 41.6115 56.4806C41.9013 56.7074 42.5462 56.7599 42.8771 56.5836C43.1869 56.4186 43.4099 55.8993 43.337 55.5125C43.2064 54.8197 42.2473 54.4085 41.6818 54.8026ZM42.4627 55.6712C42.4627 55.7831 42.3965 55.8747 42.3154 55.8747C42.1348 55.8747 42.0194 55.7072 42.105 55.5695C42.2161 55.3905 42.4627 55.4607 42.4627 55.6712Z" fill="white" stroke="white"/>
</g>
</svg>
