<svg width="65" height="64" viewBox="0 0 65 64" fill="none" xmlns="http://www.w3.org/2000/svg">
<g opacity="0.4">
<path fill-rule="evenodd" clip-rule="evenodd" d="M11.7913 5.89832C11.7028 5.92426 11.5597 6.01871 11.4734 6.10816L11.3164 6.27086V31.995V57.719L11.4728 57.8812C11.5589 57.9704 11.7186 58.0672 11.8277 58.0964C11.9552 58.1305 13.4715 58.1443 16.0695 58.135C20.5271 58.1191 20.2341 58.1418 20.4646 57.7946C20.5596 57.6515 20.5626 56.8637 20.5629 32.0292C20.5633 9.24503 20.5544 6.39283 20.483 6.24329C20.4388 6.15084 20.3255 6.02886 20.2313 5.97225C20.0655 5.87269 19.9272 5.86901 16.0061 5.86027C13.7429 5.85522 11.8812 5.87201 11.7913 5.89832ZM19.0796 31.995V56.5683H15.9531H12.8266V31.995V7.4216H15.9531H19.0796V31.995ZM14.3699 10.7563C13.7784 10.9688 13.7501 11.9002 14.3271 12.1604C14.5272 12.2505 14.6886 12.2604 15.9796 12.2613C17.2375 12.2623 17.4326 12.2513 17.5948 12.1704C18.162 11.8874 18.162 11.0592 17.5948 10.7762C17.4322 10.6951 17.2412 10.6846 15.9796 10.6881C14.9948 10.6908 14.493 10.7121 14.3699 10.7563ZM45.0074 12.6114C44.9021 12.663 44.7959 12.7794 44.7292 12.9162C44.6288 13.1221 44.6212 13.2366 44.6212 14.5419V15.946L38.2225 15.9468C33.2496 15.9473 31.7955 15.962 31.6965 16.0125C31.6264 16.0483 31.5191 16.1443 31.458 16.2259C31.3565 16.3614 31.3447 16.4639 31.3205 17.4098L31.294 18.4454L29.6223 18.4717C27.7961 18.5004 27.7852 18.5023 27.5721 18.8253C27.4859 18.956 27.4786 19.1755 27.4786 21.6552C27.4786 24.1349 27.4859 24.3544 27.5721 24.4851C27.7852 24.8081 27.7961 24.81 29.6223 24.8387L31.294 24.865L31.3205 25.8937C31.3489 26.9955 31.3776 27.1151 31.6517 27.2705C31.7429 27.3222 32.4239 27.3443 34.5529 27.3644L37.3349 27.3907L37.3488 29.2606L37.3627 31.1304L37.1066 31.3244C36.7181 31.6186 35.8801 32.4986 35.5661 32.9421C34.7285 34.1255 34.264 35.4086 34.1265 36.9196C34.0614 37.6351 34.1014 37.9023 34.3006 38.0825C34.5436 38.3024 34.6017 38.3093 36.1921 38.3093C37.1699 38.3093 37.7324 38.3282 37.7324 38.3612C37.7324 38.3898 36.0858 42.6073 34.0734 47.7335C32.0611 52.8597 30.4012 57.1201 30.3849 57.2011C30.3091 57.5772 30.6657 58.0347 31.07 58.0799C31.3523 58.1115 31.6449 57.9911 31.7953 57.7815C31.8513 57.7034 33.5891 53.2962 35.657 47.9876L39.4169 38.3356L40.3498 38.3213L41.2827 38.3069L41.2828 47.9243C41.2829 56.9766 41.2884 57.5524 41.3756 57.7222C41.5179 57.9993 41.7157 58.1168 42.0392 58.1166C42.3647 58.1163 42.6007 57.9967 42.746 57.7582C42.8428 57.5995 42.8464 57.293 42.8599 47.9518L42.8738 38.3093H43.7437H44.6136L44.982 39.2433C45.1846 39.757 46.8946 44.1198 48.7821 48.9385C50.6694 53.7571 52.2706 57.7758 52.3401 57.869C52.7491 58.4166 53.6826 58.0782 53.6826 57.3823C53.6826 57.2556 52.4529 54.0244 50.0262 47.7752C48.0152 42.5962 46.3699 38.3478 46.3699 38.3341C46.3699 38.3205 47.0678 38.3093 47.9207 38.3093C49.6574 38.3093 49.7325 38.2954 49.9337 37.9369C50.1277 37.5913 49.9703 36.1603 49.6241 35.1203C49.1394 33.6649 48.1145 32.2109 46.966 31.3491L46.6878 31.1404V29.2524V27.3644L49.4566 27.3642C52.1092 27.3641 52.2325 27.3597 52.395 27.2613C52.7524 27.0449 52.7288 27.5615 52.7287 19.9608C52.7286 13.5137 52.7227 13.0666 52.6359 12.894C52.444 12.5125 52.5863 12.5258 48.675 12.527C45.5923 12.528 45.1574 12.538 45.0074 12.6114ZM51.1655 14.9988V15.9197L48.6882 15.9333L46.2109 15.947V14.9988V14.0506L48.6882 14.0643L51.1655 14.078V14.9988ZM51.1791 21.6157L51.1927 25.7332H42.0249H32.8572V21.6377C32.8572 19.3851 32.8731 17.5262 32.8926 17.5069C32.9122 17.4875 37.0315 17.4776 42.0468 17.4849L51.1655 17.4983L51.1791 21.6157ZM14.3634 17.5616C14.2014 17.6201 13.9892 17.8675 13.9375 18.0579C13.8732 18.2952 13.9404 18.6431 14.0803 18.7966C14.3026 19.0406 14.3777 19.0505 15.9902 19.0503C17.4275 19.0502 17.5266 19.044 17.6917 18.9439C18.1261 18.681 18.1261 17.8941 17.6917 17.6312C17.526 17.5308 17.4316 17.5252 15.9796 17.5289C15.1344 17.5311 14.4071 17.5458 14.3634 17.5616ZM41.508 18.5827C40.3374 18.7764 39.2893 19.7503 38.9813 20.9307C38.8772 21.3298 38.8755 22.0269 38.9777 22.4574C39.2404 23.5637 40.182 24.4988 41.2958 24.7595C41.6887 24.8515 42.3324 24.8614 42.7241 24.7813C43.4689 24.6292 44.2886 24.064 44.7273 23.4001C45.1904 22.6992 45.3605 21.6305 45.1305 20.8659C44.655 19.2847 43.1183 18.3162 41.508 18.5827ZM31.294 21.6552V23.2864H30.1812H29.0683L29.0544 21.641L29.0403 19.9956L30.1672 20.0098L31.294 20.024V21.6552ZM42.6935 20.1554C42.999 20.2861 43.3324 20.601 43.4982 20.9152C43.6948 21.2878 43.7012 21.9017 43.5124 22.2826C43.349 22.6124 43.068 22.8914 42.7359 23.0537C42.3524 23.2411 41.7341 23.2348 41.3589 23.0395C40.7973 22.7474 40.4707 22.2189 40.4707 21.6026C40.4707 20.4498 41.6251 19.6982 42.6935 20.1554ZM14.3634 24.4548C14.2014 24.5133 13.9892 24.7607 13.9375 24.951C13.8732 25.1883 13.9404 25.5363 14.0803 25.6898C14.3026 25.9338 14.3777 25.9437 15.9902 25.9435C17.4275 25.9433 17.5266 25.9371 17.6917 25.8371C18.1261 25.5742 18.1261 24.7873 17.6917 24.5243C17.526 24.424 17.4316 24.4184 15.9796 24.4221C15.1344 24.4243 14.4071 24.439 14.3634 24.4548ZM45.0981 28.8158C45.0981 29.9564 45.0839 30.2615 45.0318 30.2401C44.758 30.1276 43.9303 29.8813 43.5601 29.8021C42.87 29.6544 41.1878 29.6687 40.445 29.8286C39.9626 29.9323 39.3146 30.1185 39.0439 30.2312C38.9569 30.2674 38.9511 30.1802 38.9511 28.8171V27.3644H42.0246H45.0981V28.8158ZM14.3271 31.3079C14.0591 31.4288 13.9208 31.6626 13.9208 31.995C13.9208 32.3273 14.0591 32.5611 14.3271 32.682C14.5272 32.7721 14.6886 32.782 15.9796 32.783C17.2375 32.7839 17.4326 32.773 17.5948 32.6921C18.162 32.4091 18.162 31.5808 17.5948 31.2978C17.4326 31.2169 17.2375 31.206 15.9796 31.2069C14.6886 31.2079 14.5272 31.2178 14.3271 31.3079ZM43.3479 31.4158C45.7783 31.9077 47.621 33.5941 48.1968 35.8535C48.2644 36.119 48.3281 36.4308 48.3384 36.5465L48.357 36.757L42.054 36.7704C38.5873 36.7778 35.7314 36.7644 35.7076 36.7407C35.6466 36.6802 35.7967 35.938 35.9764 35.4109C36.3014 34.4576 36.8033 33.6592 37.4873 33.0071C38.2017 32.326 38.9455 31.8887 39.905 31.5856C40.3428 31.4473 40.6095 31.3929 41.3622 31.2886C41.7052 31.2411 42.8453 31.3142 43.3479 31.4158ZM14.3634 38.0832C14.2014 38.1418 13.9892 38.3891 13.9375 38.5795C13.8622 38.8572 13.948 39.184 14.1487 39.3833L14.3123 39.5459L15.9143 39.5601C17.448 39.5736 17.5238 39.5696 17.6917 39.4668C18.1261 39.2008 18.1261 38.4158 17.6917 38.1528C17.526 38.0525 17.4316 38.0468 15.9796 38.0506C15.1344 38.0527 14.4071 38.0675 14.3634 38.0832ZM14.3369 45.0008C13.8515 45.2673 13.7596 45.89 14.1487 46.2765L14.3123 46.439L15.9143 46.4532C17.448 46.4668 17.5238 46.4628 17.6917 46.36C18.1261 46.094 18.1261 45.3089 17.6917 45.046C17.5263 44.9458 17.4291 44.9398 15.9796 44.9412C14.9586 44.9421 14.4073 44.9621 14.3369 45.0008ZM14.3271 51.8295C14.0591 51.9504 13.9208 52.1842 13.9208 52.5166C13.9208 52.8489 14.0591 53.0828 14.3271 53.2037C14.5272 53.2938 14.6886 53.3037 15.9796 53.3046C17.2375 53.3056 17.4326 53.2946 17.5948 53.2137C18.162 52.9307 18.162 52.1025 17.5948 51.8195C17.4326 51.7386 17.2375 51.7276 15.9796 51.7286C14.6886 51.7295 14.5272 51.7394 14.3271 51.8295Z" fill="white"/>
</g>
</svg>
