<svg width="86" height="86" viewBox="0 0 86 86" fill="none" xmlns="http://www.w3.org/2000/svg">
<path d="M28.5818 57.1104L28.5814 57.11C28.0343 56.5652 27.6042 55.9327 27.3029 55.2268C26.9905 54.4973 26.8315 53.7212 26.8315 52.9241V42.9765C26.8315 42.6219 27.1221 42.3357 27.475 42.3357C27.8298 42.3357 28.1185 42.6224 28.1185 42.9765V52.9242C28.1185 54.1582 28.6054 55.3218 29.4914 56.2031L28.5818 57.1104ZM28.5818 57.1104C29.13 57.6536 29.7665 58.0821 30.4757 58.3812M28.5818 57.1104L30.4757 58.3812M57.94 54.2284L57.9496 54.1948C58.0452 53.8592 58.4085 53.6582 58.7454 53.7546L58.7456 53.7547C59.0185 53.8331 59.2134 54.0851 59.2112 54.3733M57.94 54.2284L59.2112 54.3733M57.94 54.2284V54.2288M57.94 54.2284V54.2288M59.2112 54.3733C59.211 54.4325 59.2025 54.4905 59.188 54.5439M59.2112 54.3733L59.188 54.5439M57.94 54.2288C57.3565 56.1945 55.5175 57.5674 53.455 57.5674H32.7898C31.5483 57.5663 30.3773 57.083 29.4914 56.2031L57.94 54.2288ZM59.188 54.5439L59.187 54.5476C59.0103 55.1599 58.7362 55.7382 58.3706 56.266C58.0119 56.7854 57.5739 57.2433 57.0705 57.6266M59.188 54.5439L55.395 58.5241C55.395 58.5241 55.3949 58.5241 55.3948 58.5241M57.0705 57.6266L56.9194 57.4282L57.0708 57.6264C57.0707 57.6265 57.0706 57.6266 57.0705 57.6266ZM57.0705 57.6266C56.5614 58.0154 55.9973 58.3173 55.3948 58.5241M55.3948 58.5241C54.7704 58.739 54.1172 58.8479 53.4537 58.8479H32.7896C31.9893 58.8479 31.2098 58.6915 30.4757 58.3812M55.3948 58.5241L30.4757 58.3812M55.7701 26.9476L55.7697 26.9474C55.0348 26.6389 54.2556 26.4811 53.4537 26.4811H32.7896C31.989 26.4811 31.2097 26.6388 30.4758 26.9489C29.7669 27.2479 29.1303 27.675 28.583 28.2185C28.0342 28.7623 27.6041 29.3962 27.3029 30.1006C26.9905 30.83 26.8315 31.6048 26.8315 32.4007V37.7654C26.8315 38.1219 27.1227 38.4063 27.475 38.4063C27.8292 38.4063 28.1185 38.1214 28.1185 37.7654V32.4007C28.1185 31.1694 28.6054 30.007 29.4914 29.1257C30.3775 28.247 31.5484 27.7627 32.7896 27.7627H53.4537C54.6965 27.7627 55.8689 28.2471 56.7562 29.126C57.642 30.0073 58.1287 31.1696 58.1287 32.4007V49.1802C58.1287 49.5341 58.4174 49.821 58.7722 49.821C59.1251 49.821 59.4157 49.5346 59.4157 49.1802V32.4007V32.4003C59.4144 31.6049 59.2568 30.8303 58.9444 30.1006C58.643 29.396 58.2115 28.7622 57.6643 28.2186C57.1171 27.6751 56.4791 27.2467 55.7701 26.9476ZM58.1287 51.7857C58.1287 52.1396 58.4174 52.4266 58.7722 52.4266C59.1251 52.4266 59.4157 52.1402 59.4157 51.7857C59.4157 51.4293 59.1245 51.1449 58.7722 51.1449C58.418 51.1449 58.1287 51.4298 58.1287 51.7857ZM26.8315 40.371C26.8315 40.7274 27.1227 41.0118 27.475 41.0118C27.8292 41.0118 28.1185 40.7269 28.1185 40.371C28.1185 40.0169 27.8298 39.7301 27.475 39.7301C27.1221 39.7301 26.8315 40.0163 26.8315 40.371Z" fill="#16246B" stroke="#16246B" stroke-width="0.5"/>
<path d="M26.8315 32.4007V32.4003C26.8329 31.6049 26.9904 30.8303 27.3029 30.1006C27.6041 29.3962 28.0342 28.7623 28.5816 28.2186L28.5818 28.2184C29.13 27.6753 29.7666 27.2468 30.4759 26.9488C31.2098 26.6388 31.9891 26.4811 32.7896 26.4811H53.4537C54.2556 26.4811 55.0349 26.6389 55.7701 26.9489L55.7701 26.9489C56.4791 27.248 57.1171 27.6764 57.6643 28.2199L57.6645 28.2202C58.2114 28.7647 58.6429 29.3971 58.9444 30.1019C59.2568 30.8315 59.4144 31.6049 59.4157 32.4003V32.4007V41.2477C59.4157 41.4206 59.3458 41.5808 59.2278 41.6999L59.2263 41.7014C59.1046 41.8221 58.943 41.8885 58.7722 41.8885H50.7846C50.4317 41.8885 50.1411 41.6023 50.1411 41.2477C50.1411 40.8931 50.4317 40.6069 50.7846 40.6069H58.1286V32.4009C58.1273 31.1693 57.6416 30.0083 56.7559 29.1284C55.8686 28.247 54.6963 27.7627 53.4536 27.7627H32.7896C31.5483 27.7627 30.3774 28.2458 29.4915 29.1256L26.8315 32.4007ZM26.8315 32.4007V41.2477C26.8315 41.4178 26.9005 41.5818 27.0208 41.7013C27.141 41.8207 27.3053 41.8885 27.475 41.8885H45.5382C45.8928 41.8885 46.1817 41.6019 46.1817 41.2477C46.1817 40.8936 45.8928 40.6069 45.5382 40.6069H28.1185V32.4007C28.1185 31.1695 28.6053 30.0071 29.4914 29.1257L26.8315 32.4007ZM47.518 41.2477C47.518 41.6023 47.8085 41.8885 48.1614 41.8885C48.516 41.8885 48.8049 41.6019 48.8049 41.2477C48.8049 40.8936 48.516 40.6069 48.1614 40.6069C47.8085 40.6069 47.518 40.8931 47.518 41.2477Z" fill="#16246B" stroke="#16246B" stroke-width="0.5"/>
<path d="M53.4539 58.8492H53.4537H32.7896H32.7892C31.9892 58.8479 31.21 58.6916 30.4759 58.3814C29.7666 58.0824 29.1301 57.6538 28.5818 57.1106L28.5814 57.1101C28.0343 56.5654 27.6042 55.9329 27.3029 55.2283L27.3029 55.2282C26.9904 54.4973 26.8329 53.7226 26.8315 52.9247L26.8315 52.9243L26.8315 51.7179C26.8315 51.5478 26.9005 51.3838 27.0208 51.2644C27.141 51.1449 27.3053 51.0771 27.475 51.0771H33.5844C33.9368 51.0771 34.2279 51.3615 34.2279 51.7179C34.2279 52.0725 33.9373 52.3587 33.5844 52.3587H28.1185V52.9243C28.1185 54.1582 28.6054 55.3219 29.4914 56.2031L53.4539 58.8492ZM53.4539 58.8492C56.738 58.8464 59.4143 56.1921 59.4157 52.9244V52.9243L53.4539 58.8492ZM32.7896 57.5674C31.5484 57.5674 30.3774 57.0832 29.4914 56.2032L59.2264 51.2644C59.1062 51.1448 58.9417 51.0771 58.7722 51.0771H38.8308C38.4784 51.0771 38.1873 51.3615 38.1873 51.7179C38.1873 52.0725 38.4779 52.3587 38.8308 52.3587H38.8308H38.8308H38.8308H38.8308H38.8308H38.8308H38.8308H38.8308H38.8308H38.8309H38.8309H38.8309H38.8309H38.8309H38.8309H38.8309H38.8309H38.8309H38.831H38.831H38.831H38.831H38.831H38.831H38.831H38.8311H38.8311H38.8311H38.8311H38.8311H38.8311H38.8311H38.8311H38.8312H38.8312H38.8312H38.8312H38.8312H38.8312H38.8312H38.8312H38.8312H38.8313H38.8313H38.8313H38.8313H38.8313H38.8313H38.8313H38.8313H38.8314H38.8314H38.8314H38.8314H38.8314H38.8314H38.8314H38.8314H38.8314H38.8314H38.8315H38.8315H38.8315H38.8315H38.8315H38.8315H38.8315H38.8315H38.8315H38.8315H38.8316H38.8316H38.8316H38.8316H38.8316H38.8316H38.8316H38.8316H38.8316H38.8316H38.8316H38.8317H38.8317H38.8317H38.8317H38.8317H38.8317H38.8317H38.8317H38.8317H38.8317H38.8317H38.8318H38.8318H38.8318H38.8318H38.8318H38.8318H38.8318H38.8318H38.8318H38.8318H38.8318H38.8318H38.8319H38.8319H38.8319H38.8319H38.8319H38.8319H38.8319H38.8319H38.8319H38.8319H38.8319H38.8319H38.8319H38.832H38.832H38.832H38.832H38.832H38.832H38.832H38.832H38.832H38.832H38.832H38.832H38.832H38.8321H38.8321H38.8321H38.8321H38.8321H38.8321H38.8321H38.8321H38.8321H38.8321H38.8321H38.8321H38.8321H38.8322H38.8322H38.8322H38.8322H38.8322H38.8322H38.8322H38.8322H38.8322H38.8322H38.8322H38.8322H38.8322H38.8323H38.8323H38.8323H38.8323H38.8323H38.8323H38.8323H38.8323H38.8323H38.8323H38.8323H38.8323H38.8324H38.8324H38.8324H38.8324H38.8324H38.8324H38.8324H38.8324H38.8324H38.8324H38.8324H38.8324H38.8325H38.8325H38.8325H38.8325H38.8325H38.8325H38.8325H38.8325H38.8325H38.8325H38.8325H38.8326H38.8326H38.8326H38.8326H38.8326H38.8326H38.8326H38.8326H38.8326H38.8326H38.8326H38.8327H38.8327H38.8327H38.8327H38.8327H38.8327H38.8327H38.8327H38.8327H38.8328H38.8328H38.8328H38.8328H38.8328H38.8328H38.8328H38.8328H38.8328H38.8328H38.8329H38.8329H38.8329H38.8329H38.8329H38.8329H38.8329H38.8329H38.833H38.833H38.833H38.833H38.833H38.833H38.833H38.833H38.8331H38.8331H38.8331H38.8331H38.8331H38.8331H38.8331H38.8331H38.8332H38.8332H38.8332H38.8332H38.8332H38.8332H38.8332H38.8332H38.8333H38.8333H38.8333H38.8333H38.8333H38.8333H38.8333H38.8333H38.8333H38.8334H38.8334H38.8334H38.8334H38.8334H38.8334H58.1278L58.1287 52.924C58.1287 52.9242 58.1287 52.9243 58.1287 52.9244C58.1275 54.1585 57.6416 55.3219 56.7561 56.203C55.8687 57.0831 54.6963 57.5674 53.4537 57.5674H32.7896ZM35.5641 51.718C35.5641 52.0727 35.8547 52.3589 36.2076 52.3589C36.5605 52.3589 36.8511 52.0727 36.8511 51.718C36.8511 51.3616 36.5599 51.0772 36.2076 51.0772C35.8552 51.0772 35.5641 51.3616 35.5641 51.718Z" fill="#16246B" stroke="#16246B" stroke-width="0.5"/>
<path d="M42.48 41.2478C42.48 41.6024 42.7706 41.8886 43.1235 41.8886C43.4762 41.8886 43.7669 41.6025 43.7669 41.2478V30.4414C43.7669 30.0868 43.4762 29.8006 43.1235 29.8006C42.7706 29.8006 42.48 30.0868 42.48 30.4414V41.2478Z" fill="#16246B" stroke="#16246B" stroke-width="0.5"/>
<path d="M30.7622 47.5506C30.7622 49.2366 32.1427 50.6054 33.8361 50.6054C35.5294 50.6054 36.9099 49.2365 36.9099 47.5506C36.9099 45.8646 35.5294 44.4958 33.8361 44.4958C32.1427 44.4958 30.7622 45.8646 30.7622 47.5506ZM33.836 49.3236C32.8511 49.3224 32.0505 48.5248 32.0492 47.5504C32.0505 46.5762 32.8511 45.7787 33.8361 45.7774C34.8206 45.7787 35.6203 46.576 35.623 47.5504C35.6203 48.5251 34.8206 49.3223 33.836 49.3236Z" fill="#16246B" stroke="#16246B" stroke-width="0.5"/>
<path d="M49.3372 47.5506C49.3372 49.2366 50.7175 50.6054 52.4109 50.6054C54.1042 50.6054 55.4847 49.2365 55.4847 47.5506C55.4847 45.8646 54.1042 44.4958 52.4109 44.4958C50.7175 44.4958 49.3372 45.8647 49.3372 47.5506ZM52.4109 49.3236C51.426 49.3224 50.6254 48.5248 50.6241 47.5504C50.6253 46.5763 51.4259 45.7787 52.4109 45.7774C53.3957 45.7787 54.1965 46.5764 54.1978 47.5505C54.1966 48.5247 53.3958 49.3223 52.4109 49.3236Z" fill="#16246B" stroke="#16246B" stroke-width="0.5"/>
<path d="M37.6554 20.497L37.6554 20.497L37.6538 20.4986C37.5329 20.6187 37.4646 20.7843 37.4646 20.9534V23.5954C37.4646 23.7646 37.5329 23.9302 37.6538 24.0503C37.7756 24.1712 37.9405 24.2363 38.1081 24.2363H48.1391C48.3097 24.2363 48.4707 24.1701 48.5918 24.0517L48.5918 24.0517L48.5946 24.0489C48.7128 23.9296 48.7826 23.7694 48.7826 23.5954V20.9534C48.7826 20.7842 48.7143 20.6186 48.5931 20.4984L48.5931 20.4984L48.5918 20.4972C48.4721 20.3802 48.3085 20.3126 48.1391 20.3126H38.1081C37.9386 20.3126 37.7751 20.3802 37.6554 20.497ZM47.4956 21.593V22.9559L38.7516 22.9546V21.593H47.4956Z" fill="#16246B" stroke="#16246B" stroke-width="0.5"/>
<path d="M45.0965 23.1418L45.0964 23.1417C44.9764 23.0227 44.8106 22.9559 44.6423 22.9559H41.6047C41.4365 22.9559 41.2704 23.0227 41.1504 23.1418C41.0295 23.2619 40.9612 23.4275 40.9612 23.5967V27.122C40.9612 27.2917 41.0298 27.4553 41.1496 27.5747C41.2701 27.6961 41.4367 27.7628 41.6047 27.7628H44.6423C44.8133 27.7628 44.9759 27.6972 45.0974 27.5747C45.2183 27.454 45.2858 27.293 45.2858 27.122V23.5967C45.2858 23.4258 45.2172 23.2616 45.0965 23.1418ZM43.9988 24.2375V26.4811H42.2481V24.2375H43.9988Z" fill="#16246B" stroke="#16246B" stroke-width="0.5"/>
<path d="M33.177 35.388L33.177 35.388C33.0852 35.2439 33.0542 35.0711 33.0931 34.9031M33.177 35.388L33.0932 34.9027C33.0932 34.9028 33.0931 34.9029 33.0931 34.9031M33.177 35.388L33.1781 35.3897M33.177 35.388L33.1781 35.3897M33.0931 34.9031C33.1313 34.737 33.2305 34.5947 33.3765 34.5029M33.0931 34.9031C33.0931 34.9032 33.0931 34.9033 33.093 34.9034L33.3765 34.5029M33.1781 35.3897C33.2976 35.5741 33.5012 35.6848 33.721 35.6848C33.8433 35.6848 33.9615 35.6504 34.0652 35.5852L34.0655 35.5851L38.0143 33.0957C38.0144 33.0956 38.0145 33.0956 38.0146 33.0955C38.1593 33.0045 38.2613 32.8613 38.2984 32.6942C38.3367 32.5272 38.3063 32.3529 38.2133 32.209L38.2131 32.2087C38.0936 32.0242 37.89 31.9136 37.6702 31.9136C37.5481 31.9136 37.4312 31.9478 37.3291 32.0099L37.3291 32.0099M33.1781 35.3897L37.3291 32.0099M37.3291 32.0099L37.3257 32.012M37.3291 32.0099L37.3257 32.012M37.3257 32.012L33.3769 34.5027C33.3768 34.5027 33.3767 34.5028 33.3765 34.5029M37.3257 32.012L33.3765 34.5029" fill="#16246B" stroke="#16246B" stroke-width="0.5"/>
<path d="M32.8406 38.336C32.6203 38.336 32.4155 38.2259 32.2966 38.0392L32.8406 38.336ZM32.8406 38.336C32.9622 38.336 33.081 38.302 33.1846 38.2358L37.1319 35.7461C37.2783 35.6557 37.3799 35.5115 37.4168 35.345M32.8406 38.336L37.4168 35.345M37.4168 35.345C37.455 35.1767 37.4244 35.0046 37.3326 34.8603L37.4168 35.345ZM32.2124 37.5557C32.174 37.7234 32.2051 37.8955 32.2966 38.0392L37.3326 34.8603C37.2137 34.6736 37.0088 34.5635 36.7885 34.5635C36.6687 34.5635 36.5486 34.5973 36.4446 34.6637L32.4965 37.1539C32.4964 37.1539 32.4963 37.154 32.4962 37.1541C32.3524 37.2445 32.2497 37.3861 32.2124 37.5557Z" fill="#16246B" stroke="#16246B" stroke-width="0.5"/>
<path d="M48.9024 35.3874L48.9028 35.388C49.0216 35.5747 49.2265 35.6848 49.4468 35.6848C49.5686 35.6848 49.6863 35.6507 49.7885 35.5874L49.7885 35.5874L49.7901 35.5864L53.7432 33.0956C53.7432 33.0956 53.7433 33.0956 53.7433 33.0956C53.7433 33.0956 53.7433 33.0955 53.7434 33.0955C53.8879 33.0046 53.9898 32.8614 54.0269 32.6942C54.0655 32.5265 54.0344 32.3542 53.9428 32.2104L53.9428 32.2104L53.9416 32.2086C53.8232 32.0262 53.6222 31.9123 53.3988 31.9123C53.276 31.9123 53.157 31.949 53.0569 32.0112L53.0569 32.0112L53.0557 32.012L49.1033 34.5023C49.1031 34.5024 49.103 34.5025 49.1028 34.5026C48.8007 34.6916 48.7137 35.0893 48.9024 35.3874Z" fill="#16246B" stroke="#16246B" stroke-width="0.5"/>
<path d="M48.021 38.0387L48.021 38.0387L48.0224 38.0409C48.1419 38.2253 48.3455 38.336 48.5653 38.336C48.6878 38.336 48.8057 38.3015 48.9093 38.2366L48.9099 38.2362L52.8581 35.746C52.8583 35.7459 52.8585 35.7457 52.8586 35.7456C53.1601 35.557 53.2482 35.1592 53.0585 34.8615L53.0582 34.861C52.9389 34.6749 52.7364 34.5635 52.5145 34.5635C52.3931 34.5635 52.2742 34.5974 52.1705 34.6637L48.2218 37.1535C48.2217 37.1536 48.2215 37.1537 48.2213 37.1538C47.9191 37.3428 47.8321 37.7405 48.021 38.0387Z" fill="#16246B" stroke="#16246B" stroke-width="0.5"/>
<path d="M25.5575 73.5384L25.559 73.5394C25.6639 73.6102 25.7896 73.6512 25.9206 73.6512C26.1321 73.6512 26.3313 73.5474 26.4517 73.3723C26.4517 73.3722 26.4518 73.3721 26.4519 73.372L36.684 58.5714C36.6841 58.5712 36.6842 58.5711 36.6843 58.5709C36.8876 58.2785 36.8104 57.8789 36.5194 57.6792L36.5194 57.6791L36.5159 57.6768C36.4112 57.6075 36.2877 57.5663 36.1549 57.5663C35.9424 57.5663 35.7449 57.671 35.625 57.8452C35.625 57.8453 35.625 57.8453 35.6249 57.8454L25.391 72.6468L25.3907 72.6472C25.1896 72.9393 25.2662 73.3386 25.5575 73.5384Z" fill="#16246B" stroke="#16246B" stroke-width="0.5"/>
<path d="M49.5739 58.5888L49.5739 58.5888L49.5761 58.5917L59.8094 72.234C59.8096 72.2342 59.8098 72.2345 59.81 72.2347C59.9316 72.3987 60.1249 72.4929 60.3265 72.4929C60.4634 72.4929 60.5976 72.4509 60.7107 72.3666C60.9938 72.1558 61.0548 71.7539 60.8413 71.469L60.8413 71.4689L50.6082 57.824L50.6083 57.824L50.6066 57.8218C50.4838 57.6617 50.2967 57.5676 50.0921 57.5676C49.9553 57.5676 49.8214 57.6098 49.7087 57.6935C49.5689 57.7964 49.4809 57.9468 49.4555 58.1133L49.4555 58.1133L49.455 58.1164C49.4314 58.2847 49.4748 58.4526 49.5739 58.5888Z" fill="#16246B" stroke="#16246B" stroke-width="0.5"/>
<path d="M32.4946 64.1437H54.0833C54.4381 64.1437 54.7268 63.8569 54.7268 63.5028C54.7268 63.1469 54.4375 62.862 54.0833 62.862H32.4946C32.1403 62.862 31.8511 63.1469 31.8511 63.5028C31.8511 63.8569 32.1398 64.1437 32.4946 64.1437Z" fill="#16246B" stroke="#16246B" stroke-width="0.5"/>
<path d="M28.1977 70.5572H58.742C59.0948 70.5572 59.3855 70.2708 59.3855 69.9163C59.3855 69.5598 59.0942 69.2755 58.742 69.2755H28.1977C27.8453 69.2755 27.5542 69.5599 27.5542 69.9163C27.5542 70.2708 27.8447 70.5572 28.1977 70.5572Z" fill="#16246B" stroke="#16246B" stroke-width="0.5"/>
<path d="M56.2377 67.2219H56.2394L30.4797 66.8038L30.4781 67.0538L30.4782 67.0538L56.2377 67.2219Z" fill="#16246B" stroke="#16246B" stroke-width="0.5"/>
<path d="M52.1041 61.5601H52.1017L34.6166 61.396C34.6162 61.396 34.6157 61.396 34.6153 61.396L34.6143 61.396L34.6166 61.146C34.5117 61.146 34.4133 61.1043 34.3399 61.0289L52.1041 61.5601ZM52.1041 61.5601H52.108C52.4574 61.5601 52.7469 61.2781 52.7515 60.9264L52.7515 60.9247C52.7536 60.5706 52.4672 60.2829 52.1138 60.2785L52.113 60.2785L34.6268 60.1143L34.6268 60.1143M52.1041 61.5601L34.6268 60.1143M34.6268 60.1143H34.6245M34.6268 60.1143H34.6245M34.6245 60.1143H34.6206C34.2689 60.1143 33.9814 60.3986 33.9771 60.7481L34.6245 60.1143ZM33.9771 60.7481C33.9749 60.9219 34.0425 61.0833 34.1615 61.204L33.9771 60.7481Z" fill="#16246B" stroke="#16246B" stroke-width="0.5"/>
<mask id="path-19-outside-1_1863_48849" maskUnits="userSpaceOnUse" x="15.7905" y="15.5084" width="55" height="51" fill="black">
<rect fill="white" x="15.7905" y="15.5084" width="55" height="51"/>
<path d="M31.1354 65.9103C31.0724 65.9103 31.0108 65.8947 30.9544 65.866C26.7534 63.6865 23.2134 60.4166 20.7161 56.4106C19.4557 54.3886 18.4812 52.2092 17.8201 49.9307C17.1368 47.5805 16.7905 45.1352 16.7905 42.6652C16.7905 39.6233 17.3112 36.6426 18.3395 33.8064C19.3324 31.0641 20.7751 28.5212 22.6258 26.2439C22.7006 26.1527 22.812 26.0993 22.9314 26.0993C23.0219 26.0993 23.1085 26.1306 23.1793 26.1853C23.3472 26.3208 23.3734 26.5683 23.2383 26.7351C19.5882 31.2257 17.5775 36.8836 17.5775 42.6652C17.5775 52.1506 22.8422 60.7749 31.3177 65.173C31.5105 65.272 31.5853 65.5091 31.4856 65.7006C31.4161 65.8296 31.2823 65.9103 31.1354 65.9103ZM55.5151 65.6965C55.3697 65.6965 55.2371 65.6184 55.1689 65.4921C55.0652 65.3032 55.1348 65.0648 55.3262 64.9619C63.5565 60.5104 68.6689 51.9656 68.6689 42.6652C68.6689 40.1978 68.3135 37.7603 67.6118 35.418C67.6013 35.3802 67.5947 35.3411 67.5961 35.302C67.5974 35.1301 67.7102 34.9815 67.8767 34.932C68.0815 34.8721 68.3069 34.9946 68.366 35.1952C69.09 37.6092 69.4559 40.1222 69.4559 42.6652C69.4559 45.0949 69.1201 47.501 68.4591 49.8174C67.8177 52.062 66.8734 54.2142 65.6523 56.2139C63.2338 60.1743 59.7921 63.4364 55.7027 65.6486C55.6451 65.6796 55.5795 65.6965 55.5151 65.6965ZM67.115 33.2437C66.9549 33.2437 66.8118 33.1486 66.7515 33.0013C66.7515 33.0013 66.7515 33 66.7502 33C66.7109 32.9036 66.7122 32.7981 66.7515 32.7017C66.7923 32.6053 66.8684 32.531 66.9654 32.492C67.0125 32.4711 67.0638 32.462 67.115 32.462C67.275 32.462 67.4179 32.5571 67.4783 32.703C67.4797 32.7043 67.4797 32.7043 67.4797 32.7043C67.5191 32.8007 67.5191 32.9062 67.4783 33.0026C67.4376 33.0991 67.3629 33.1746 67.2645 33.2137C67.2173 33.2332 67.1661 33.2437 67.115 33.2437ZM65.9949 30.8896C65.8493 30.8896 65.7168 30.8114 65.6473 30.6837C61.1839 22.4229 52.5524 17.2901 43.1233 17.2914C37.1989 17.2914 31.4253 19.351 26.8649 23.0926C26.8649 23.0926 26.8649 23.0926 26.8649 23.0939C26.7022 23.2254 26.4438 23.2007 26.3101 23.0405C26.2523 22.9714 26.2196 22.8828 26.2196 22.7916C26.2196 22.6744 26.272 22.5649 26.3625 22.4907C28.6722 20.5952 31.2626 19.1178 34.0629 18.0991C36.9615 17.0439 40.0096 16.5084 43.1233 16.5084C45.5839 16.5084 48.0208 16.8458 50.3646 17.5102C52.6363 18.1551 54.8135 19.1035 56.8347 20.3307C60.8377 22.7604 64.1258 26.2127 66.341 30.3138C66.3908 30.4062 66.4013 30.5118 66.3712 30.6121C66.341 30.7124 66.2728 30.7945 66.1797 30.844C66.1233 30.8739 66.0591 30.8896 65.9949 30.8896ZM24.6784 24.9399C24.5748 24.9399 24.4765 24.8995 24.4017 24.8265C24.2482 24.6754 24.2469 24.4279 24.3991 24.2742C24.5473 24.1257 24.8057 24.1243 24.9552 24.2716C25.0299 24.3445 25.0719 24.4422 25.0719 24.5464C25.0732 24.6507 25.0326 24.7497 24.9591 24.8239C24.8844 24.8982 24.7847 24.9399 24.6784 24.9399Z"/>
</mask>
<path d="M31.1354 65.9103C31.0724 65.9103 31.0108 65.8947 30.9544 65.866C26.7534 63.6865 23.2134 60.4166 20.7161 56.4106C19.4557 54.3886 18.4812 52.2092 17.8201 49.9307C17.1368 47.5805 16.7905 45.1352 16.7905 42.6652C16.7905 39.6233 17.3112 36.6426 18.3395 33.8064C19.3324 31.0641 20.7751 28.5212 22.6258 26.2439C22.7006 26.1527 22.812 26.0993 22.9314 26.0993C23.0219 26.0993 23.1085 26.1306 23.1793 26.1853C23.3472 26.3208 23.3734 26.5683 23.2383 26.7351C19.5882 31.2257 17.5775 36.8836 17.5775 42.6652C17.5775 52.1506 22.8422 60.7749 31.3177 65.173C31.5105 65.272 31.5853 65.5091 31.4856 65.7006C31.4161 65.8296 31.2823 65.9103 31.1354 65.9103ZM55.5151 65.6965C55.3697 65.6965 55.2371 65.6184 55.1689 65.4921C55.0652 65.3032 55.1348 65.0648 55.3262 64.9619C63.5565 60.5104 68.6689 51.9656 68.6689 42.6652C68.6689 40.1978 68.3135 37.7603 67.6118 35.418C67.6013 35.3802 67.5947 35.3411 67.5961 35.302C67.5974 35.1301 67.7102 34.9815 67.8767 34.932C68.0815 34.8721 68.3069 34.9946 68.366 35.1952C69.09 37.6092 69.4559 40.1222 69.4559 42.6652C69.4559 45.0949 69.1201 47.501 68.4591 49.8174C67.8177 52.062 66.8734 54.2142 65.6523 56.2139C63.2338 60.1743 59.7921 63.4364 55.7027 65.6486C55.6451 65.6796 55.5795 65.6965 55.5151 65.6965ZM67.115 33.2437C66.9549 33.2437 66.8118 33.1486 66.7515 33.0013C66.7515 33.0013 66.7515 33 66.7502 33C66.7109 32.9036 66.7122 32.7981 66.7515 32.7017C66.7923 32.6053 66.8684 32.531 66.9654 32.492C67.0125 32.4711 67.0638 32.462 67.115 32.462C67.275 32.462 67.4179 32.5571 67.4783 32.703C67.4797 32.7043 67.4797 32.7043 67.4797 32.7043C67.5191 32.8007 67.5191 32.9062 67.4783 33.0026C67.4376 33.0991 67.3629 33.1746 67.2645 33.2137C67.2173 33.2332 67.1661 33.2437 67.115 33.2437ZM65.9949 30.8896C65.8493 30.8896 65.7168 30.8114 65.6473 30.6837C61.1839 22.4229 52.5524 17.2901 43.1233 17.2914C37.1989 17.2914 31.4253 19.351 26.8649 23.0926C26.8649 23.0926 26.8649 23.0926 26.8649 23.0939C26.7022 23.2254 26.4438 23.2007 26.3101 23.0405C26.2523 22.9714 26.2196 22.8828 26.2196 22.7916C26.2196 22.6744 26.272 22.5649 26.3625 22.4907C28.6722 20.5952 31.2626 19.1178 34.0629 18.0991C36.9615 17.0439 40.0096 16.5084 43.1233 16.5084C45.5839 16.5084 48.0208 16.8458 50.3646 17.5102C52.6363 18.1551 54.8135 19.1035 56.8347 20.3307C60.8377 22.7604 64.1258 26.2127 66.341 30.3138C66.3908 30.4062 66.4013 30.5118 66.3712 30.6121C66.341 30.7124 66.2728 30.7945 66.1797 30.844C66.1233 30.8739 66.0591 30.8896 65.9949 30.8896ZM24.6784 24.9399C24.5748 24.9399 24.4765 24.8995 24.4017 24.8265C24.2482 24.6754 24.2469 24.4279 24.3991 24.2742C24.5473 24.1257 24.8057 24.1243 24.9552 24.2716C25.0299 24.3445 25.0719 24.4422 25.0719 24.5464C25.0732 24.6507 25.0326 24.7497 24.9591 24.8239C24.8844 24.8982 24.7847 24.9399 24.6784 24.9399Z" fill="#16246B"/>
<path d="M30.9544 65.866L30.7241 66.3099L30.7279 66.3118L30.9544 65.866ZM20.7161 56.4106L20.2918 56.6751L20.2918 56.6751L20.7161 56.4106ZM17.8201 49.9307L18.3003 49.7914L18.3002 49.7911L17.8201 49.9307ZM18.3395 33.8064L18.8096 33.9769L18.8097 33.9767L18.3395 33.8064ZM22.6258 26.2439L22.2391 25.9269L22.2378 25.9286L22.6258 26.2439ZM23.1793 26.1853L23.4934 25.7961L23.485 25.7896L23.1793 26.1853ZM23.2383 26.7351L23.6263 27.0505L23.6268 27.0498L23.2383 26.7351ZM31.3177 65.173L31.0874 65.6168L31.0893 65.6177L31.3177 65.173ZM31.4856 65.7006L31.9258 65.9378L31.9291 65.9314L31.4856 65.7006ZM55.1689 65.4921L55.6088 65.2545L55.6072 65.2517L55.1689 65.4921ZM55.3262 64.9619L55.563 65.4023L55.5641 65.4017L55.3262 64.9619ZM67.6118 35.418L67.1299 35.5518L67.1328 35.5614L67.6118 35.418ZM67.5961 35.302L68.0959 35.3188L68.096 35.3058L67.5961 35.302ZM67.8767 34.932L67.7363 34.4522L67.7343 34.4528L67.8767 34.932ZM68.366 35.1952L67.8863 35.3363L67.887 35.3388L68.366 35.1952ZM68.4591 49.8173L68.9398 49.9547L68.9399 49.9546L68.4591 49.8173ZM65.6523 56.2139L66.079 56.4745L66.079 56.4745L65.6523 56.2139ZM55.7027 65.6486L55.9397 66.0888L55.9406 66.0884L55.7027 65.6486ZM66.7515 33.0013L66.2515 33.0003L66.2513 33.0993L66.2889 33.191L66.7515 33.0013ZM66.7502 33L66.2873 33.189L66.4142 33.5H66.7502V33ZM66.7515 32.7017L66.291 32.5069L66.2886 32.5128L66.7515 32.7017ZM66.9654 32.492L67.1522 32.9558L67.1601 32.9526L67.1678 32.9492L66.9654 32.492ZM67.4783 32.703L67.0162 32.8941L67.0594 32.9984L67.1432 33.0741L67.4783 32.703ZM67.4797 32.7043L67.665 32.2399L66.5721 31.8038L67.0168 32.8933L67.4797 32.7043ZM67.4783 33.0026L67.0178 32.8078L67.0176 32.8083L67.4783 33.0026ZM67.2645 33.2137L67.0798 32.749L67.0733 32.7517L67.2645 33.2137ZM65.6473 30.6837L65.2074 30.9214L65.2082 30.9228L65.6473 30.6837ZM43.1233 17.2914V17.7914L43.1234 17.7914L43.1233 17.2914ZM26.8649 23.0926H26.3649V24.1495L27.182 23.4791L26.8649 23.0926ZM26.8649 23.0939L27.1793 23.4826L27.3649 23.3325V23.0939H26.8649ZM26.3101 23.0405L26.6939 22.72L26.6937 22.7198L26.3101 23.0405ZM26.3625 22.4907L26.6797 22.8772L26.6797 22.8772L26.3625 22.4907ZM34.0629 18.0991L34.2338 18.569L34.2339 18.5689L34.0629 18.0991ZM50.3646 17.5102L50.5012 17.0292L50.501 17.0292L50.3646 17.5102ZM56.8347 20.3307L56.5752 20.7581L56.5753 20.7581L56.8347 20.3307ZM66.341 30.3138L66.7812 30.0766L66.7809 30.0761L66.341 30.3138ZM66.1797 30.844L66.4143 31.2855L66.4144 31.2855L66.1797 30.844ZM24.4017 24.8265L24.0509 25.1828L24.0525 25.1844L24.4017 24.8265ZM24.3991 24.2742L24.0451 23.921L24.0437 23.9224L24.3991 24.2742ZM24.9552 24.2716L24.6044 24.6279L24.606 24.6294L24.9552 24.2716ZM25.0719 24.5464H24.5719L24.572 24.5527L25.0719 24.5464ZM24.9591 24.8239L25.3115 25.1787L25.3146 25.1755L24.9591 24.8239ZM31.1354 65.4103C31.1559 65.4103 31.1715 65.4155 31.1809 65.4203L30.7279 66.3118C30.8501 66.3739 30.989 66.4103 31.1354 66.4103V65.4103ZM31.1847 65.4222C27.0631 63.2839 23.5902 60.0758 21.1404 56.1461L20.2918 56.6751C22.8366 60.7574 26.4437 64.0891 30.7241 66.3099L31.1847 65.4222ZM21.1404 56.1461C19.9041 54.1628 18.9485 52.0255 18.3003 49.7914L17.3399 50.07C18.0138 52.3929 19.0072 54.6144 20.2918 56.6751L21.1404 56.1461ZM18.3002 49.7911C17.6302 47.4867 17.2905 45.0885 17.2905 42.6652H16.2905C16.2905 45.182 16.6433 47.6743 17.34 50.0703L18.3002 49.7911ZM17.2905 42.6652C17.2905 39.6808 17.8013 36.7578 18.8096 33.9769L17.8695 33.636C16.8212 36.5273 16.2905 39.5657 16.2905 42.6652H17.2905ZM18.8097 33.9767C19.7833 31.2875 21.1981 28.7935 23.0138 26.5593L22.2378 25.9286C20.3522 28.2488 18.8815 30.8408 17.8694 33.6362L18.8097 33.9767ZM23.0125 26.5609C22.9928 26.5849 22.9627 26.5993 22.9314 26.5993V25.5993C22.6614 25.5993 22.4083 25.7206 22.2391 25.9269L23.0125 26.5609ZM22.9314 26.5993C22.9055 26.5993 22.8857 26.5903 22.8736 26.581L23.485 25.7896C23.3313 25.6709 23.1383 25.5993 22.9314 25.5993V26.5993ZM22.8653 26.5744C22.8188 26.5369 22.8102 26.4692 22.8498 26.4203L23.6268 27.0498C23.9366 26.6674 23.8756 26.1047 23.4933 25.7962L22.8653 26.5744ZM22.8503 26.4197C19.1278 30.9993 17.0775 36.7686 17.0775 42.6652H18.0775C18.0775 36.9986 20.0485 31.452 23.6263 27.0505L22.8503 26.4197ZM17.0775 42.6652C17.0775 52.3388 22.4476 61.1334 31.0874 65.6168L31.548 64.7292C23.2368 60.4163 18.0775 51.9623 18.0775 42.6652H17.0775ZM31.0893 65.6177C31.0347 65.5897 31.0142 65.5233 31.0421 65.4697L31.9291 65.9314C32.1564 65.4949 31.9864 64.9543 31.5461 64.7282L31.0893 65.6177ZM31.0455 65.4634C31.0623 65.4321 31.0966 65.4103 31.1354 65.4103V66.4103C31.468 66.4103 31.7699 66.227 31.9257 65.9378L31.0455 65.4634ZM55.5151 65.1965C55.5497 65.1965 55.5879 65.2159 55.6088 65.2545L54.729 65.7298C54.8862 66.0208 55.1896 66.1965 55.5151 66.1965V65.1965ZM55.6072 65.2517C55.6368 65.3056 55.6169 65.3733 55.563 65.4023L55.0895 64.5215C54.6526 64.7563 54.4937 65.3009 54.7305 65.7326L55.6072 65.2517ZM55.5641 65.4017C63.9547 60.8635 69.1689 52.1506 69.1689 42.6652H68.1689C68.1689 51.7806 63.1583 60.1573 55.0884 64.5221L55.5641 65.4017ZM69.1689 42.6652C69.1689 40.1497 68.8065 37.6638 68.0908 35.2745L67.1328 35.5614C67.8204 37.8568 68.1689 40.2459 68.1689 42.6652H69.1689ZM68.0936 35.2842C68.0929 35.282 68.0936 35.2839 68.0944 35.2893C68.0952 35.2948 68.0962 35.3049 68.0958 35.3188L67.0963 35.2852C67.0928 35.3901 67.1106 35.4819 67.13 35.5518L68.0936 35.2842ZM68.096 35.3058C68.0956 35.3574 68.0599 35.3992 68.0192 35.4113L67.7343 34.4528C67.3605 34.5639 67.0991 34.9028 67.0961 35.2982L68.096 35.3058ZM68.0172 35.4119C67.9824 35.4221 67.9546 35.4146 67.9386 35.4059C67.9227 35.3974 67.8982 35.3767 67.8863 35.3363L68.8456 35.0541C68.7074 34.5841 68.2011 34.3161 67.7363 34.4522L68.0172 35.4119ZM67.887 35.3388C68.5969 37.7057 68.9559 40.1703 68.9559 42.6652H69.9559C69.9559 40.0742 69.583 37.5127 68.8449 35.0516L67.887 35.3388ZM68.9559 42.6652C68.9559 45.0488 68.6265 47.4088 67.9783 49.6801L68.9399 49.9546C69.6137 47.5933 69.9559 45.1409 69.9559 42.6652H68.9559ZM67.9783 49.68C67.3494 51.8812 66.4232 53.9919 65.2255 55.9533L66.079 56.4745C67.3235 54.4364 68.286 52.2428 68.9398 49.9547L67.9783 49.68ZM65.2255 55.9533C62.8533 59.8381 59.4768 63.0385 55.4648 65.2088L55.9406 66.0884C60.1074 63.8343 63.6144 60.5105 66.079 56.4745L65.2255 55.9533ZM55.4656 65.2084C55.4729 65.2045 55.48 65.2017 55.4873 65.1999C55.4946 65.198 55.5038 65.1965 55.5151 65.1965V66.1965C55.6649 66.1965 55.8117 66.1578 55.9397 66.0888L55.4656 65.2084ZM67.115 32.7437C67.1552 32.7437 67.1965 32.7687 67.2142 32.8117L66.2889 33.191C66.4272 33.5284 66.7547 33.7437 67.115 33.7437V32.7437ZM66.7515 33.0013C67.2515 33.0024 67.2515 33.0021 67.2515 33.0019C67.2515 33.0018 67.2515 33.0016 67.2515 33.0014C67.2515 33.0011 67.2515 33.0007 67.2515 33.0004C67.2515 32.9997 67.2515 32.9991 67.2515 32.9984C67.2515 32.997 67.2515 32.9957 67.2515 32.9943C67.2514 32.9915 67.2514 32.9886 67.2513 32.9856C67.2511 32.9796 67.2508 32.9732 67.2503 32.9664C67.2494 32.953 67.2477 32.9371 67.2448 32.9194C67.2393 32.8862 67.2273 32.8344 67.1983 32.7765C67.1682 32.7166 67.1154 32.6419 67.0272 32.5835C66.936 32.523 66.8373 32.5 66.7502 32.5V33.5C66.6638 33.5 66.5656 33.4772 66.4748 33.417C66.3869 33.3588 66.3343 33.2845 66.3044 33.2249C66.2756 33.1673 66.2637 33.1158 66.2582 33.0829C66.2553 33.0653 66.2537 33.0495 66.2527 33.0361C66.2523 33.0294 66.2519 33.023 66.2518 33.0171C66.2517 33.0141 66.2516 33.0112 66.2516 33.0084C66.2515 33.007 66.2515 33.0056 66.2515 33.0043C66.2515 33.0036 66.2515 33.0029 66.2515 33.0023C66.2515 33.0019 66.2515 33.0016 66.2515 33.0013C66.2515 33.0011 66.2515 33.0009 66.2515 33.0008C66.2515 33.0005 66.2515 33.0003 66.7515 33.0013ZM67.2131 32.8111C67.225 32.8401 67.2227 32.8703 67.2144 32.8907L66.2886 32.5128C66.2016 32.7259 66.1968 32.9672 66.2873 33.189L67.2131 32.8111ZM67.212 32.8965C67.2005 32.9238 67.1774 32.9456 67.1522 32.9558L66.7787 32.0282C66.5594 32.1165 66.3841 32.2868 66.291 32.5069L67.212 32.8965ZM67.1678 32.9492C67.1415 32.9608 67.1221 32.962 67.115 32.962V31.962C67.0055 31.962 66.8836 31.9814 66.763 32.0348L67.1678 32.9492ZM67.115 32.962C67.0753 32.962 67.0342 32.9376 67.0162 32.8941L67.9403 32.512C67.8017 32.1766 67.4747 31.962 67.115 31.962V32.962ZM67.1432 33.0741C67.1439 33.0747 67.1441 33.075 67.1442 33.075C67.1442 33.0751 67.1441 33.0749 67.1438 33.0747C67.1438 33.0746 67.1433 33.0743 67.1428 33.0738C67.1427 33.0736 67.1418 33.0728 67.1407 33.0718C67.1404 33.0716 67.1386 33.0699 67.1363 33.0677C67.1358 33.0673 67.1318 33.0634 67.1268 33.0585C67.1263 33.0581 67.1162 33.0481 67.1045 33.0348C67.1002 33.0298 67.0913 33.0192 67.0868 33.0136C67.0765 33 67.055 32.9681 67.0441 32.9497C67.0024 32.8531 66.9957 32.5787 67.0668 32.4224C67.3338 32.2261 67.6649 32.2399 67.4797 32.7043C67.2945 33.1688 67.6256 33.1826 67.8926 32.9863C67.9637 32.8299 67.9571 32.5555 67.9153 32.4589C67.9045 32.4405 67.8829 32.4087 67.8726 32.3951C67.8681 32.3894 67.8592 32.3788 67.8549 32.3738C67.8432 32.3606 67.8331 32.3506 67.8327 32.3502C67.8277 32.3452 67.8236 32.3414 67.8231 32.3409C67.8208 32.3387 67.819 32.3371 67.8187 32.3368C67.8176 32.3358 67.8168 32.335 67.8166 32.3349C67.8161 32.3344 67.8156 32.334 67.8156 32.3339C67.8153 32.3336 67.815 32.3334 67.8149 32.3333C67.8146 32.333 67.8141 32.3326 67.8134 32.3319L67.1432 33.0741ZM67.0168 32.8933C67.0122 32.882 67.009 32.8678 67.009 32.8517C67.0091 32.8355 67.0125 32.8204 67.0178 32.8078L67.9387 33.1975C68.0322 32.9767 68.0315 32.733 67.9426 32.5154L67.0168 32.8933ZM67.0176 32.8083C67.0218 32.7983 67.0292 32.7864 67.0407 32.7749C67.0523 32.7633 67.066 32.7545 67.0799 32.749L67.4491 33.6784C67.6767 33.5879 67.8482 33.4121 67.939 33.197L67.0176 32.8083ZM67.0733 32.7517C67.0852 32.7468 67.0989 32.7437 67.115 32.7437V33.7437C67.2333 33.7437 67.3493 33.7197 67.4557 33.6757L67.0733 32.7517ZM65.9949 30.3896C66.0309 30.3896 66.0677 30.4102 66.0864 30.4446L65.2082 30.9228C65.3659 31.2126 65.6676 31.3896 65.9949 31.3896V30.3896ZM66.0872 30.4461C61.5361 22.0228 52.7351 16.7901 43.1233 16.7914L43.1234 17.7914C52.3697 17.7901 60.8318 22.8231 65.2074 30.9214L66.0872 30.4461ZM43.1233 16.7914C37.0838 16.7914 31.198 18.8908 26.5477 22.706L27.182 23.4791C31.6525 19.8113 37.3139 17.7914 43.1233 17.7914V16.7914ZM26.8649 23.0926C27.3649 23.0926 26.8649 23.0926 26.3649 23.0926V23.0926C26.3649 23.0926 26.3649 23.0926 26.3649 23.0926V23.0926C26.3649 23.0926 26.3649 23.0926 26.3649 23.0926C26.3649 23.0926 26.3649 23.0926 26.3649 23.0926C26.3649 23.0926 26.3649 23.0926 26.3649 23.0926C26.3649 23.0926 26.3649 23.0926 26.3649 23.0926C26.3649 23.0926 26.3649 23.0926 26.3649 23.0926V23.0926C26.3649 23.0926 26.3649 23.0926 26.3649 23.0926C26.3649 23.0926 26.3649 23.0926 26.3649 23.0926V23.0926C26.3649 23.0926 26.3649 23.0926 26.3649 23.0926C26.3649 23.0926 26.3649 23.0926 26.3649 23.0926C26.3649 23.0926 26.3649 23.0926 26.3649 23.0926C26.3649 23.0926 26.3649 23.0926 26.3649 23.0926C26.3649 23.0926 26.3649 23.0926 26.3649 23.0926C26.3649 23.0926 26.3649 23.0926 26.3649 23.0926C26.3649 23.0926 26.3649 23.0926 26.3649 23.0926V23.0926C26.3649 23.0926 26.3649 23.0926 26.3649 23.0926C26.3649 23.0926 26.3649 23.0926 26.3649 23.0926C26.3649 23.0926 26.3649 23.0926 26.3649 23.0926C26.3649 23.0926 26.3649 23.0926 26.3649 23.0926C26.3649 23.0926 26.3649 23.0926 26.3649 23.0926C26.3649 23.0926 26.3649 23.0926 26.3649 23.0926C26.3649 23.0926 26.3649 23.0926 26.3649 23.0926V23.0926C26.3649 23.0926 26.3649 23.0926 26.3649 23.0926C26.3649 23.0926 26.3649 23.0926 26.3649 23.0926V23.0926V23.0926C26.3649 23.0926 26.3649 23.0926 26.3649 23.0926C26.3649 23.0926 26.3649 23.0926 26.3649 23.0926C26.3649 23.0926 26.3649 23.0926 26.3649 23.0926V23.0926V23.0926V23.0926C26.3649 23.0926 26.3649 23.0926 26.3649 23.0926C26.3649 23.0926 26.3649 23.0926 26.3649 23.0926C26.3649 23.0926 26.3649 23.0926 26.3649 23.0926C26.3649 23.0926 26.3649 23.0926 26.3649 23.0926C26.3649 23.0926 26.3649 23.0926 26.3649 23.0926C26.3649 23.0926 26.3649 23.0926 26.3649 23.0926C26.3649 23.0926 26.3649 23.0926 26.3649 23.0926C26.3649 23.0926 26.3649 23.0926 26.3649 23.0926C26.3649 23.0926 26.3649 23.0926 26.3649 23.0926C26.3649 23.0926 26.3649 23.0926 26.3649 23.0926V23.0926V23.0926V23.0926C26.3649 23.0926 26.3649 23.0926 26.3649 23.0926C26.3649 23.0926 26.3649 23.0926 26.3649 23.0926C26.3649 23.0926 26.3649 23.0926 26.3649 23.0926C26.3649 23.0926 26.3649 23.0926 26.3649 23.0926V23.0926V23.0926C26.3649 23.0926 26.3649 23.0926 26.3649 23.0926C26.3649 23.0926 26.3649 23.0926 26.3649 23.0926V23.0926V23.0926C26.3649 23.0926 26.3649 23.0926 26.3649 23.0926C26.3649 23.0926 26.3649 23.0926 26.3649 23.0926V23.0926C26.3649 23.0926 26.3649 23.0926 26.3649 23.0926V23.0926V23.0926C26.3649 23.0926 26.3649 23.0926 26.3649 23.0926V23.0926C26.3649 23.0926 26.3649 23.0926 26.3649 23.0926V23.0926C26.3649 23.0926 26.3649 23.0926 26.3649 23.0926V23.0926C26.3649 23.0926 26.3649 23.0926 26.3649 23.0926V23.0926C26.3649 23.0926 26.3649 23.0926 26.3649 23.0926V23.0926C26.3649 23.0926 26.3649 23.0926 26.3649 23.0926C26.3649 23.0926 26.3649 23.0926 26.3649 23.0926V23.0926C26.3649 23.0926 26.3649 23.0926 26.3649 23.0926C26.3649 23.0926 26.3649 23.0926 26.3649 23.0926V23.0926C26.3649 23.0926 26.3649 23.0926 26.3649 23.0926C26.3649 23.0926 26.3649 23.0926 26.3649 23.0926C26.3649 23.0926 26.3649 23.0926 26.3649 23.0926V23.0926C26.3649 23.0926 26.3649 23.0926 26.3649 23.0926C26.3649 23.0926 26.3649 23.0926 26.3649 23.0926C26.3649 23.0926 26.3649 23.0926 26.3649 23.0926C26.3649 23.0926 26.3649 23.0926 26.3649 23.0926C26.3649 23.0926 26.3649 23.0926 26.3649 23.0926C26.3649 23.0926 26.3649 23.0926 26.3649 23.0926C26.3649 23.0926 26.3649 23.0926 26.3649 23.0926V23.0926C26.3649 23.0926 26.3649 23.0926 26.3649 23.0926C26.3649 23.0926 26.3649 23.0926 26.3649 23.0926C26.3649 23.0926 26.3649 23.0926 26.3649 23.0926C26.3649 23.0926 26.3649 23.0926 26.3649 23.0926C26.3649 23.0926 26.3649 23.0926 26.3649 23.0926C26.3649 23.0926 26.3649 23.0926 26.3649 23.0926C26.3649 23.0926 26.3649 23.0926 26.3649 23.0926C26.3649 23.0926 26.3649 23.0926 26.3649 23.0926C26.3649 23.0926 26.3649 23.0926 26.3649 23.0926C26.3649 23.0926 26.3649 23.0926 26.3649 23.0926C26.3649 23.0926 26.3649 23.0926 26.3649 23.0926C26.3649 23.0926 26.3649 23.0926 26.3649 23.0926C26.3649 23.0926 26.3649 23.0926 26.3649 23.0926C26.3649 23.0926 26.3649 23.0926 26.3649 23.0926C26.3649 23.0926 26.3649 23.0926 26.3649 23.0926C26.3649 23.0926 26.3649 23.0926 26.3649 23.0926C26.3649 23.0926 26.3649 23.0926 26.3649 23.0926C26.3649 23.0926 26.3649 23.0926 26.3649 23.0926C26.3649 23.0926 26.3649 23.0926 26.3649 23.0926C26.3649 23.0926 26.3649 23.0926 26.3649 23.0926C26.3649 23.0926 26.3649 23.0926 26.3649 23.0926C26.3649 23.0926 26.3649 23.0926 26.3649 23.0926C26.3649 23.0926 26.3649 23.0926 26.3649 23.0926C26.3649 23.0926 26.3649 23.0926 26.3649 23.0926C26.3649 23.0926 26.3649 23.0926 26.3649 23.0926C26.3649 23.0926 26.3649 23.0926 26.3649 23.0926C26.3649 23.0926 26.3649 23.0926 26.3649 23.0926C26.3649 23.0927 26.3649 23.0927 26.3649 23.0927C26.3649 23.0927 26.3649 23.0927 26.3649 23.0927C26.3649 23.0927 26.3649 23.0927 26.3649 23.0927C26.3649 23.0927 26.3649 23.0927 26.3649 23.0927C26.3649 23.0927 26.3649 23.0927 26.3649 23.0927C26.3649 23.0927 26.3649 23.0927 26.3649 23.0927C26.3649 23.0927 26.3649 23.0927 26.3649 23.0927C26.3649 23.0927 26.3649 23.0927 26.3649 23.0927C26.3649 23.0927 26.3649 23.0927 26.3649 23.0927C26.3649 23.0927 26.3649 23.0927 26.3649 23.0927C26.3649 23.0927 26.3649 23.0927 26.3649 23.0927C26.3649 23.0927 26.3649 23.0927 26.3649 23.0927C26.3649 23.0927 26.3649 23.0927 26.3649 23.0927C26.3649 23.0927 26.3649 23.0927 26.3649 23.0927C26.3649 23.0927 26.3649 23.0927 26.3649 23.0927C26.3649 23.0927 26.3649 23.0927 26.3649 23.0927C26.3649 23.0927 26.3649 23.0927 26.3649 23.0927C26.3649 23.0927 26.3649 23.0927 26.3649 23.0927C26.3649 23.0927 26.3649 23.0927 26.3649 23.0927C26.3649 23.0927 26.3649 23.0927 26.3649 23.0927C26.3649 23.0927 26.3649 23.0927 26.3649 23.0927C26.3649 23.0927 26.3649 23.0927 26.3649 23.0927C26.3649 23.0927 26.3649 23.0927 26.3649 23.0927C26.3649 23.0927 26.3649 23.0927 26.3649 23.0927C26.3649 23.0927 26.3649 23.0927 26.3649 23.0927C26.3649 23.0927 26.3649 23.0927 26.3649 23.0927C26.3649 23.0927 26.3649 23.0927 26.3649 23.0927C26.3649 23.0927 26.3649 23.0927 26.3649 23.0927C26.3649 23.0927 26.3649 23.0927 26.3649 23.0927C26.3649 23.0927 26.3649 23.0927 26.3649 23.0927C26.3649 23.0927 26.3649 23.0927 26.3649 23.0927C26.3649 23.0927 26.3649 23.0927 26.3649 23.0927C26.3649 23.0927 26.3649 23.0927 26.3649 23.0927C26.3649 23.0927 26.3649 23.0927 26.3649 23.0927C26.3649 23.0927 26.3649 23.0927 26.3649 23.0927C26.3649 23.0927 26.3649 23.0927 26.3649 23.0927C26.3649 23.0927 26.3649 23.0927 26.3649 23.0927C26.3649 23.0927 26.3649 23.0927 26.3649 23.0927C26.3649 23.0927 26.3649 23.0927 26.3649 23.0927C26.3649 23.0927 26.3649 23.0927 26.3649 23.0927C26.3649 23.0927 26.3649 23.0927 26.3649 23.0927C26.3649 23.0927 26.3649 23.0927 26.3649 23.0927C26.3649 23.0927 26.3649 23.0927 26.3649 23.0927C26.3649 23.0927 26.3649 23.0927 26.3649 23.0927C26.3649 23.0927 26.3649 23.0927 26.3649 23.0927C26.3649 23.0927 26.3649 23.0927 26.3649 23.0927C26.3649 23.0927 26.3649 23.0927 26.3649 23.0927C26.3649 23.0927 26.3649 23.0927 26.3649 23.0927C26.3649 23.0927 26.3649 23.0927 26.3649 23.0927C26.3649 23.0927 26.3649 23.0927 26.3649 23.0927C26.3649 23.0927 26.3649 23.0927 26.3649 23.0927C26.3649 23.0927 26.3649 23.0927 26.3649 23.0927C26.3649 23.0927 26.3649 23.0927 26.3649 23.0927C26.3649 23.0927 26.3649 23.0927 26.3649 23.0927C26.3649 23.0927 26.3649 23.0927 26.3649 23.0927C26.3649 23.0927 26.3649 23.0927 26.3649 23.0927C26.3649 23.0927 26.3649 23.0927 26.3649 23.0927C26.3649 23.0927 26.3649 23.0927 26.3649 23.0927C26.3649 23.0927 26.3649 23.0927 26.3649 23.0927C26.3649 23.0927 26.3649 23.0927 26.3649 23.0927C26.3649 23.0927 26.3649 23.0928 26.3649 23.0928C26.3649 23.0928 26.3649 23.0928 26.3649 23.0928C26.3649 23.0928 26.3649 23.0928 26.3649 23.0928C26.3649 23.0928 26.3649 23.0928 26.3649 23.0928C26.3649 23.0928 26.3649 23.0928 26.3649 23.0928C26.3649 23.0928 26.3649 23.0928 26.3649 23.0928C26.3649 23.0928 26.3649 23.0928 26.3649 23.0928C26.3649 23.0928 26.3649 23.0928 26.3649 23.0928C26.3649 23.0928 26.3649 23.0928 26.3649 23.0928C26.3649 23.0928 26.3649 23.0928 26.3649 23.0928C26.3649 23.0928 26.3649 23.0928 26.3649 23.0928C26.3649 23.0928 26.3649 23.0928 26.3649 23.0928C26.3649 23.0928 26.3649 23.0928 26.3649 23.0928C26.3649 23.0928 26.3649 23.0928 26.3649 23.0928C26.3649 23.0928 26.3649 23.0928 26.3649 23.0928C26.3649 23.0928 26.3649 23.0928 26.3649 23.0928C26.3649 23.0928 26.3649 23.0928 26.3649 23.0928C26.3649 23.0928 26.3649 23.0928 26.3649 23.0928C26.3649 23.0928 26.3649 23.0928 26.3649 23.0928C26.3649 23.0928 26.3649 23.0928 26.3649 23.0928C26.3649 23.0928 26.3649 23.0928 26.3649 23.0928C26.3649 23.0928 26.3649 23.0928 26.3649 23.0928C26.3649 23.0928 26.3649 23.0928 26.3649 23.0928C26.3649 23.0928 26.3649 23.0928 26.3649 23.0928C26.3649 23.0928 26.3649 23.0928 26.3649 23.0928C26.3649 23.0928 26.3649 23.0928 26.3649 23.0928C26.3649 23.0928 26.3649 23.0928 26.3649 23.0928C26.3649 23.0928 26.3649 23.0928 26.3649 23.0928C26.3649 23.0928 26.3649 23.0928 26.3649 23.0928C26.3649 23.0928 26.3649 23.0928 26.3649 23.0928C26.3649 23.0928 26.3649 23.0928 26.3649 23.0928C26.3649 23.0928 26.3649 23.0928 26.3649 23.0928C26.3649 23.0928 26.3649 23.0928 26.3649 23.0928C26.3649 23.0928 26.3649 23.0928 26.3649 23.0928C26.3649 23.0928 26.3649 23.0928 26.3649 23.0928C26.3649 23.0928 26.3649 23.0928 26.3649 23.0928C26.3649 23.0928 26.3649 23.0928 26.3649 23.0928C26.3649 23.0928 26.3649 23.0928 26.3649 23.0928C26.3649 23.0928 26.3649 23.0928 26.3649 23.0928C26.3649 23.0928 26.3649 23.0928 26.3649 23.0928C26.3649 23.0928 26.3649 23.0928 26.3649 23.0928C26.3649 23.0928 26.3649 23.0928 26.3649 23.0929C26.3649 23.0929 26.3649 23.0929 26.3649 23.0929C26.3649 23.0929 26.3649 23.0929 26.3649 23.0929C26.3649 23.0929 26.3649 23.0929 26.3649 23.0929C26.3649 23.0929 26.3649 23.0929 26.3649 23.0929C26.3649 23.0929 26.3649 23.0929 26.3649 23.0929C26.3649 23.0929 26.3649 23.0929 26.3649 23.0929C26.3649 23.0929 26.3649 23.0929 26.3649 23.0929C26.3649 23.0929 26.3649 23.0929 26.3649 23.0929C26.3649 23.0929 26.3649 23.0929 26.3649 23.0929C26.3649 23.0929 26.3649 23.0929 26.3649 23.0929C26.3649 23.0929 26.3649 23.0929 26.3649 23.0929C26.3649 23.0929 26.3649 23.0929 26.3649 23.0929C26.3649 23.0929 26.3649 23.0929 26.3649 23.0929C26.3649 23.0929 26.3649 23.0929 26.3649 23.0929C26.3649 23.0929 26.3649 23.0929 26.3649 23.0929C26.3649 23.0929 26.3649 23.0929 26.3649 23.0929C26.3649 23.0929 26.3649 23.0929 26.3649 23.0929C26.3649 23.0929 26.3649 23.0929 26.3649 23.0929C26.3649 23.0929 26.3649 23.0929 26.3649 23.0929C26.3649 23.0929 26.3649 23.0929 26.3649 23.0929C26.3649 23.0929 26.3649 23.0929 26.3649 23.0929C26.3649 23.0929 26.3649 23.0929 26.3649 23.0929C26.3649 23.0929 26.3649 23.0929 26.3649 23.0929C26.3649 23.0929 26.3649 23.0929 26.3649 23.0929C26.3649 23.0929 26.3649 23.0929 26.3649 23.0929C26.3649 23.0929 26.3649 23.0929 26.3649 23.0929C26.3649 23.0929 26.3649 23.0929 26.3649 23.0929C26.3649 23.0929 26.3649 23.0929 26.3649 23.0929C26.3649 23.0929 26.3649 23.0929 26.3649 23.0929C26.3649 23.0929 26.3649 23.0929 26.3649 23.0929C26.3649 23.0929 26.3649 23.0929 26.3649 23.0929C26.3649 23.0929 26.3649 23.0929 26.3649 23.0929C26.3649 23.0929 26.3649 23.093 26.3649 23.093C26.3649 23.093 26.3649 23.093 26.3649 23.093C26.3649 23.093 26.3649 23.093 26.3649 23.093C26.3649 23.093 26.3649 23.093 26.3649 23.093C26.3649 23.093 26.3649 23.093 26.3649 23.093C26.3649 23.093 26.3649 23.093 26.3649 23.093C26.3649 23.093 26.3649 23.093 26.3649 23.093C26.3649 23.093 26.3649 23.093 26.3649 23.093C26.3649 23.093 26.3649 23.093 26.3649 23.093C26.3649 23.093 26.3649 23.093 26.3649 23.093C26.3649 23.093 26.3649 23.093 26.3649 23.093C26.3649 23.093 26.3649 23.093 26.3649 23.093C26.3649 23.093 26.3649 23.093 26.3649 23.093C26.3649 23.093 26.3649 23.093 26.3649 23.093C26.3649 23.093 26.3649 23.093 26.3649 23.093C26.3649 23.093 26.3649 23.093 26.3649 23.093C26.3649 23.093 26.3649 23.093 26.3649 23.093C26.3649 23.093 26.3649 23.093 26.3649 23.093C26.3649 23.093 26.3649 23.093 26.3649 23.093C26.3649 23.093 26.3649 23.093 26.3649 23.093C26.3649 23.093 26.3649 23.093 26.3649 23.093C26.3649 23.093 26.3649 23.093 26.3649 23.093C26.3649 23.093 26.3649 23.093 26.3649 23.093C26.3649 23.093 26.3649 23.093 26.3649 23.093C26.3649 23.093 26.3649 23.093 26.3649 23.093C26.3649 23.093 26.3649 23.093 26.3649 23.093C26.3649 23.093 26.3649 23.093 26.3649 23.093C26.3649 23.093 26.3649 23.0931 26.3649 23.0931C26.3649 23.0931 26.3649 23.0931 26.3649 23.0931C26.3649 23.0931 26.3649 23.0931 26.3649 23.0931C26.3649 23.0931 26.3649 23.0931 26.3649 23.0931C26.3649 23.0931 26.3649 23.0931 26.3649 23.0931C26.3649 23.0931 26.3649 23.0931 26.3649 23.0931C26.3649 23.0931 26.3649 23.0931 26.3649 23.0931C26.3649 23.0931 26.3649 23.0931 26.3649 23.0931C26.3649 23.0931 26.3649 23.0931 26.3649 23.0931C26.3649 23.0931 26.3649 23.0931 26.3649 23.0931C26.3649 23.0931 26.3649 23.0931 26.3649 23.0931C26.3649 23.0931 26.3649 23.0931 26.3649 23.0931C26.3649 23.0931 26.3649 23.0931 26.3649 23.0931C26.3649 23.0931 26.3649 23.0931 26.3649 23.0931C26.3649 23.0931 26.3649 23.0931 26.3649 23.0931C26.3649 23.0931 26.3649 23.0931 26.3649 23.0931C26.3649 23.0931 26.3649 23.0931 26.3649 23.0931C26.3649 23.0931 26.3649 23.0931 26.3649 23.0931C26.3649 23.0931 26.3649 23.0931 26.3649 23.0931C26.3649 23.0931 26.3649 23.0931 26.3649 23.0931C26.3649 23.0931 26.3649 23.0931 26.3649 23.0931C26.3649 23.0931 26.3649 23.0931 26.3649 23.0931C26.3649 23.0931 26.3649 23.0931 26.3649 23.0931C26.3649 23.0931 26.3649 23.0931 26.3649 23.0931C26.3649 23.0931 26.3649 23.0932 26.3649 23.0932C26.3649 23.0932 26.3649 23.0932 26.3649 23.0932C26.3649 23.0932 26.3649 23.0932 26.3649 23.0932C26.3649 23.0932 26.3649 23.0932 26.3649 23.0932C26.3649 23.0932 26.3649 23.0932 26.3649 23.0932C26.3649 23.0932 26.3649 23.0932 26.3649 23.0932C26.3649 23.0932 26.3649 23.0932 26.3649 23.0932C26.3649 23.0932 26.3649 23.0932 26.3649 23.0932C26.3649 23.0932 26.3649 23.0932 26.3649 23.0932C26.3649 23.0932 26.3649 23.0932 26.3649 23.0932C26.3649 23.0932 26.3649 23.0932 26.3649 23.0932C26.3649 23.0932 26.3649 23.0932 26.3649 23.0932C26.3649 23.0932 26.3649 23.0932 26.3649 23.0932C26.3649 23.0932 26.3649 23.0932 26.3649 23.0932C26.3649 23.0932 26.3649 23.0932 26.3649 23.0932C26.3649 23.0932 26.3649 23.0932 26.3649 23.0932C26.3649 23.0932 26.3649 23.0932 26.3649 23.0932C26.3649 23.0932 26.3649 23.0932 26.3649 23.0932C26.3649 23.0932 26.3649 23.0932 26.3649 23.0932C26.3649 23.0932 26.3649 23.0932 26.3649 23.0932C26.3649 23.0932 26.3649 23.0932 26.3649 23.0932C26.3649 23.0932 26.3649 23.0933 26.3649 23.0933C26.3649 23.0933 26.3649 23.0933 26.3649 23.0933C26.3649 23.0933 26.3649 23.0933 26.3649 23.0933C26.3649 23.0933 26.3649 23.0933 26.3649 23.0933C26.3649 23.0933 26.3649 23.0933 26.3649 23.0933C26.3649 23.0933 26.3649 23.0933 26.3649 23.0933C26.3649 23.0933 26.3649 23.0933 26.3649 23.0933C26.3649 23.0933 26.3649 23.0933 26.3649 23.0933C26.3649 23.0933 26.3649 23.0933 26.3649 23.0933C26.3649 23.0933 26.3649 23.0933 26.3649 23.0933C26.3649 23.0933 26.3649 23.0933 26.3649 23.0933C26.3649 23.0933 26.3649 23.0933 26.3649 23.0933C26.3649 23.0933 26.3649 23.0933 26.3649 23.0933C26.3649 23.0933 26.3649 23.0933 26.3649 23.0933C26.3649 23.0933 26.3649 23.0933 26.3649 23.0933C26.3649 23.0933 26.3649 23.0933 26.3649 23.0933C26.3649 23.0933 26.3649 23.0933 26.3649 23.0933C26.3649 23.0933 26.3649 23.0933 26.3649 23.0933C26.3649 23.0933 26.3649 23.0933 26.3649 23.0933C26.3649 23.0933 26.3649 23.0933 26.3649 23.0934C26.3649 23.0934 26.3649 23.0934 26.3649 23.0934C26.3649 23.0934 26.3649 23.0934 26.3649 23.0934C26.3649 23.0934 26.3649 23.0934 26.3649 23.0934C26.3649 23.0934 26.3649 23.0934 26.3649 23.0934C26.3649 23.0934 26.3649 23.0934 26.3649 23.0934C26.3649 23.0934 26.3649 23.0934 26.3649 23.0934C26.3649 23.0934 26.3649 23.0934 26.3649 23.0934C26.3649 23.0934 26.3649 23.0934 26.3649 23.0934C26.3649 23.0934 26.3649 23.0934 26.3649 23.0934C26.3649 23.0934 26.3649 23.0934 26.3649 23.0934C26.3649 23.0934 26.3649 23.0934 26.3649 23.0934C26.3649 23.0934 26.3649 23.0934 26.3649 23.0934C26.3649 23.0934 26.3649 23.0934 26.3649 23.0934C26.3649 23.0934 26.3649 23.0934 26.3649 23.0934C26.3649 23.0934 26.3649 23.0934 26.3649 23.0934C26.3649 23.0934 26.3649 23.0934 26.3649 23.0934C26.3649 23.0934 26.3649 23.0934 26.3649 23.0934C26.3649 23.0935 26.3649 23.0935 26.3649 23.0935C26.3649 23.0935 26.3649 23.0935 26.3649 23.0935C26.3649 23.0935 26.3649 23.0935 26.3649 23.0935C26.3649 23.0935 26.3649 23.0935 26.3649 23.0935C26.3649 23.0935 26.3649 23.0935 26.3649 23.0935C26.3649 23.0935 26.3649 23.0935 26.3649 23.0935C26.3649 23.0935 26.3649 23.0935 26.3649 23.0935C26.3649 23.0935 26.3649 23.0935 26.3649 23.0935C26.3649 23.0935 26.3649 23.0935 26.3649 23.0935C26.3649 23.0935 26.3649 23.0935 26.3649 23.0935C26.3649 23.0935 26.3649 23.0935 26.3649 23.0935C26.3649 23.0935 26.3649 23.0935 26.3649 23.0935C26.3649 23.0935 26.3649 23.0935 26.3649 23.0935C26.3649 23.0935 26.3649 23.0935 26.3649 23.0935C26.3649 23.0935 26.3649 23.0935 26.3649 23.0935C26.3649 23.0935 26.3649 23.0935 26.3649 23.0935C26.3649 23.0935 26.3649 23.0935 26.3649 23.0936C26.3649 23.0936 26.3649 23.0936 26.3649 23.0936C26.3649 23.0936 26.3649 23.0936 26.3649 23.0936C26.3649 23.0936 26.3649 23.0936 26.3649 23.0936C26.3649 23.0936 26.3649 23.0936 26.3649 23.0936C26.3649 23.0936 26.3649 23.0936 26.3649 23.0936C26.3649 23.0936 26.3649 23.0936 26.3649 23.0936C26.3649 23.0936 26.3649 23.0936 26.3649 23.0936C26.3649 23.0936 26.3649 23.0936 26.3649 23.0936C26.3649 23.0936 26.3649 23.0936 26.3649 23.0936C26.3649 23.0936 26.3649 23.0936 26.3649 23.0936C26.3649 23.0936 26.3649 23.0936 26.3649 23.0936C26.3649 23.0936 26.3649 23.0936 26.3649 23.0936C26.3649 23.0936 26.3649 23.0936 26.3649 23.0936C26.3649 23.0936 26.3649 23.0936 26.3649 23.0936C26.3649 23.0936 26.3649 23.0936 26.3649 23.0937C26.3649 23.0937 26.3649 23.0937 26.3649 23.0937C26.3649 23.0937 26.3649 23.0937 26.3649 23.0937C26.3649 23.0937 26.3649 23.0937 26.3649 23.0937C26.3649 23.0937 26.3649 23.0937 26.3649 23.0937C26.3649 23.0937 26.3649 23.0937 26.3649 23.0937C26.3649 23.0937 26.3649 23.0937 26.3649 23.0937C26.3649 23.0937 26.3649 23.0937 26.3649 23.0937C26.3649 23.0937 26.3649 23.0937 26.3649 23.0937C26.3649 23.0937 26.3649 23.0937 26.3649 23.0937C26.3649 23.0937 26.3649 23.0937 26.3649 23.0937C26.3649 23.0937 26.3649 23.0937 26.3649 23.0937C26.3649 23.0937 26.3649 23.0937 26.3649 23.0937C26.3649 23.0937 26.3649 23.0937 26.3649 23.0937C26.3649 23.0937 26.3649 23.0937 26.3649 23.0937C26.3649 23.0938 26.3649 23.0938 26.3649 23.0938C26.3649 23.0938 26.3649 23.0938 26.3649 23.0938C26.3649 23.0938 26.3649 23.0938 26.3649 23.0938C26.3649 23.0938 26.3649 23.0938 26.3649 23.0938C26.3649 23.0938 26.3649 23.0938 26.3649 23.0938C26.3649 23.0938 26.3649 23.0938 26.3649 23.0938C26.3649 23.0938 26.3649 23.0938 26.3649 23.0938C26.3649 23.0938 26.3649 23.0938 26.3649 23.0938C26.3649 23.0938 26.3649 23.0938 26.3649 23.0938C26.3649 23.0938 26.3649 23.0938 26.3649 23.0938C26.3649 23.0938 26.3649 23.0938 26.3649 23.0938C26.3649 23.0938 26.3649 23.0938 26.3649 23.0938C26.3649 23.0938 26.3649 23.0938 26.3649 23.0938C26.3649 23.0938 26.3649 23.0938 26.3649 23.0939C26.3649 23.0939 26.3649 23.0939 26.3649 23.0939C26.3649 23.0939 26.3649 23.0939 26.3649 23.0939H27.3649C27.3649 23.0939 27.3649 23.0939 27.3649 23.0939C27.3649 23.0939 27.3649 23.0939 27.3649 23.0939C27.3649 23.0938 27.3649 23.0938 27.3649 23.0938C27.3649 23.0938 27.3649 23.0938 27.3649 23.0938C27.3649 23.0938 27.3649 23.0938 27.3649 23.0938C27.3649 23.0938 27.3649 23.0938 27.3649 23.0938C27.3649 23.0938 27.3649 23.0938 27.3649 23.0938C27.3649 23.0938 27.3649 23.0938 27.3649 23.0938C27.3649 23.0938 27.3649 23.0938 27.3649 23.0938C27.3649 23.0938 27.3649 23.0938 27.3649 23.0938C27.3649 23.0938 27.3649 23.0938 27.3649 23.0938C27.3649 23.0938 27.3649 23.0938 27.3649 23.0938C27.3649 23.0938 27.3649 23.0938 27.3649 23.0938C27.3649 23.0938 27.3649 23.0938 27.3649 23.0938C27.3649 23.0938 27.3649 23.0938 27.3649 23.0938C27.3649 23.0938 27.3649 23.0938 27.3649 23.0937C27.3649 23.0937 27.3649 23.0937 27.3649 23.0937C27.3649 23.0937 27.3649 23.0937 27.3649 23.0937C27.3649 23.0937 27.3649 23.0937 27.3649 23.0937C27.3649 23.0937 27.3649 23.0937 27.3649 23.0937C27.3649 23.0937 27.3649 23.0937 27.3649 23.0937C27.3649 23.0937 27.3649 23.0937 27.3649 23.0937C27.3649 23.0937 27.3649 23.0937 27.3649 23.0937C27.3649 23.0937 27.3649 23.0937 27.3649 23.0937C27.3649 23.0937 27.3649 23.0937 27.3649 23.0937C27.3649 23.0937 27.3649 23.0937 27.3649 23.0937C27.3649 23.0937 27.3649 23.0937 27.3649 23.0937C27.3649 23.0937 27.3649 23.0937 27.3649 23.0937C27.3649 23.0937 27.3649 23.0937 27.3649 23.0937C27.3649 23.0937 27.3649 23.0937 27.3649 23.0937C27.3649 23.0936 27.3649 23.0936 27.3649 23.0936C27.3649 23.0936 27.3649 23.0936 27.3649 23.0936C27.3649 23.0936 27.3649 23.0936 27.3649 23.0936C27.3649 23.0936 27.3649 23.0936 27.3649 23.0936C27.3649 23.0936 27.3649 23.0936 27.3649 23.0936C27.3649 23.0936 27.3649 23.0936 27.3649 23.0936C27.3649 23.0936 27.3649 23.0936 27.3649 23.0936C27.3649 23.0936 27.3649 23.0936 27.3649 23.0936C27.3649 23.0936 27.3649 23.0936 27.3649 23.0936C27.3649 23.0936 27.3649 23.0936 27.3649 23.0936C27.3649 23.0936 27.3649 23.0936 27.3649 23.0936C27.3649 23.0936 27.3649 23.0936 27.3649 23.0936C27.3649 23.0936 27.3649 23.0936 27.3649 23.0936C27.3649 23.0936 27.3649 23.0936 27.3649 23.0936C27.3649 23.0936 27.3649 23.0936 27.3649 23.0936C27.3649 23.0935 27.3649 23.0935 27.3649 23.0935C27.3649 23.0935 27.3649 23.0935 27.3649 23.0935C27.3649 23.0935 27.3649 23.0935 27.3649 23.0935C27.3649 23.0935 27.3649 23.0935 27.3649 23.0935C27.3649 23.0935 27.3649 23.0935 27.3649 23.0935C27.3649 23.0935 27.3649 23.0935 27.3649 23.0935C27.3649 23.0935 27.3649 23.0935 27.3649 23.0935C27.3649 23.0935 27.3649 23.0935 27.3649 23.0935C27.3649 23.0935 27.3649 23.0935 27.3649 23.0935C27.3649 23.0935 27.3649 23.0935 27.3649 23.0935C27.3649 23.0935 27.3649 23.0935 27.3649 23.0935C27.3649 23.0935 27.3649 23.0935 27.3649 23.0935C27.3649 23.0935 27.3649 23.0935 27.3649 23.0935C27.3649 23.0935 27.3649 23.0935 27.3649 23.0935C27.3649 23.0935 27.3649 23.0935 27.3649 23.0935C27.3649 23.0935 27.3649 23.0935 27.3649 23.0935C27.3649 23.0935 27.3649 23.0935 27.3649 23.0934C27.3649 23.0934 27.3649 23.0934 27.3649 23.0934C27.3649 23.0934 27.3649 23.0934 27.3649 23.0934C27.3649 23.0934 27.3649 23.0934 27.3649 23.0934C27.3649 23.0934 27.3649 23.0934 27.3649 23.0934C27.3649 23.0934 27.3649 23.0934 27.3649 23.0934C27.3649 23.0934 27.3649 23.0934 27.3649 23.0934C27.3649 23.0934 27.3649 23.0934 27.3649 23.0934C27.3649 23.0934 27.3649 23.0934 27.3649 23.0934C27.3649 23.0934 27.3649 23.0934 27.3649 23.0934C27.3649 23.0934 27.3649 23.0934 27.3649 23.0934C27.3649 23.0934 27.3649 23.0934 27.3649 23.0934C27.3649 23.0934 27.3649 23.0934 27.3649 23.0934C27.3649 23.0934 27.3649 23.0934 27.3649 23.0934C27.3649 23.0934 27.3649 23.0934 27.3649 23.0934C27.3649 23.0934 27.3649 23.0934 27.3649 23.0934C27.3649 23.0934 27.3649 23.0934 27.3649 23.0934C27.3649 23.0934 27.3649 23.0934 27.3649 23.0934C27.3649 23.0933 27.3649 23.0933 27.3649 23.0933C27.3649 23.0933 27.3649 23.0933 27.3649 23.0933C27.3649 23.0933 27.3649 23.0933 27.3649 23.0933C27.3649 23.0933 27.3649 23.0933 27.3649 23.0933C27.3649 23.0933 27.3649 23.0933 27.3649 23.0933C27.3649 23.0933 27.3649 23.0933 27.3649 23.0933C27.3649 23.0933 27.3649 23.0933 27.3649 23.0933C27.3649 23.0933 27.3649 23.0933 27.3649 23.0933C27.3649 23.0933 27.3649 23.0933 27.3649 23.0933C27.3649 23.0933 27.3649 23.0933 27.3649 23.0933C27.3649 23.0933 27.3649 23.0933 27.3649 23.0933C27.3649 23.0933 27.3649 23.0933 27.3649 23.0933C27.3649 23.0933 27.3649 23.0933 27.3649 23.0933C27.3649 23.0933 27.3649 23.0933 27.3649 23.0933C27.3649 23.0933 27.3649 23.0933 27.3649 23.0933C27.3649 23.0933 27.3649 23.0933 27.3649 23.0933C27.3649 23.0933 27.3649 23.0933 27.3649 23.0933C27.3649 23.0933 27.3649 23.0933 27.3649 23.0933C27.3649 23.0933 27.3649 23.0933 27.3649 23.0933C27.3649 23.0933 27.3649 23.0932 27.3649 23.0932C27.3649 23.0932 27.3649 23.0932 27.3649 23.0932C27.3649 23.0932 27.3649 23.0932 27.3649 23.0932C27.3649 23.0932 27.3649 23.0932 27.3649 23.0932C27.3649 23.0932 27.3649 23.0932 27.3649 23.0932C27.3649 23.0932 27.3649 23.0932 27.3649 23.0932C27.3649 23.0932 27.3649 23.0932 27.3649 23.0932C27.3649 23.0932 27.3649 23.0932 27.3649 23.0932C27.3649 23.0932 27.3649 23.0932 27.3649 23.0932C27.3649 23.0932 27.3649 23.0932 27.3649 23.0932C27.3649 23.0932 27.3649 23.0932 27.3649 23.0932C27.3649 23.0932 27.3649 23.0932 27.3649 23.0932C27.3649 23.0932 27.3649 23.0932 27.3649 23.0932C27.3649 23.0932 27.3649 23.0932 27.3649 23.0932C27.3649 23.0932 27.3649 23.0932 27.3649 23.0932C27.3649 23.0932 27.3649 23.0932 27.3649 23.0932C27.3649 23.0932 27.3649 23.0932 27.3649 23.0932C27.3649 23.0932 27.3649 23.0932 27.3649 23.0932C27.3649 23.0932 27.3649 23.0932 27.3649 23.0932C27.3649 23.0932 27.3649 23.0932 27.3649 23.0932C27.3649 23.0932 27.3649 23.0932 27.3649 23.0932C27.3649 23.0932 27.3649 23.0931 27.3649 23.0931C27.3649 23.0931 27.3649 23.0931 27.3649 23.0931C27.3649 23.0931 27.3649 23.0931 27.3649 23.0931C27.3649 23.0931 27.3649 23.0931 27.3649 23.0931C27.3649 23.0931 27.3649 23.0931 27.3649 23.0931C27.3649 23.0931 27.3649 23.0931 27.3649 23.0931C27.3649 23.0931 27.3649 23.0931 27.3649 23.0931C27.3649 23.0931 27.3649 23.0931 27.3649 23.0931C27.3649 23.0931 27.3649 23.0931 27.3649 23.0931C27.3649 23.0931 27.3649 23.0931 27.3649 23.0931C27.3649 23.0931 27.3649 23.0931 27.3649 23.0931C27.3649 23.0931 27.3649 23.0931 27.3649 23.0931C27.3649 23.0931 27.3649 23.0931 27.3649 23.0931C27.3649 23.0931 27.3649 23.0931 27.3649 23.0931C27.3649 23.0931 27.3649 23.0931 27.3649 23.0931C27.3649 23.0931 27.3649 23.0931 27.3649 23.0931C27.3649 23.0931 27.3649 23.0931 27.3649 23.0931C27.3649 23.0931 27.3649 23.0931 27.3649 23.0931C27.3649 23.0931 27.3649 23.0931 27.3649 23.0931C27.3649 23.0931 27.3649 23.0931 27.3649 23.0931C27.3649 23.0931 27.3649 23.0931 27.3649 23.0931C27.3649 23.0931 27.3649 23.0931 27.3649 23.0931C27.3649 23.0931 27.3649 23.0931 27.3649 23.0931C27.3649 23.0931 27.3649 23.0931 27.3649 23.0931C27.3649 23.0931 27.3649 23.093 27.3649 23.093C27.3649 23.093 27.3649 23.093 27.3649 23.093C27.3649 23.093 27.3649 23.093 27.3649 23.093C27.3649 23.093 27.3649 23.093 27.3649 23.093C27.3649 23.093 27.3649 23.093 27.3649 23.093C27.3649 23.093 27.3649 23.093 27.3649 23.093C27.3649 23.093 27.3649 23.093 27.3649 23.093C27.3649 23.093 27.3649 23.093 27.3649 23.093C27.3649 23.093 27.3649 23.093 27.3649 23.093C27.3649 23.093 27.3649 23.093 27.3649 23.093C27.3649 23.093 27.3649 23.093 27.3649 23.093C27.3649 23.093 27.3649 23.093 27.3649 23.093C27.3649 23.093 27.3649 23.093 27.3649 23.093C27.3649 23.093 27.3649 23.093 27.3649 23.093C27.3649 23.093 27.3649 23.093 27.3649 23.093C27.3649 23.093 27.3649 23.093 27.3649 23.093C27.3649 23.093 27.3649 23.093 27.3649 23.093C27.3649 23.093 27.3649 23.093 27.3649 23.093C27.3649 23.093 27.3649 23.093 27.3649 23.093C27.3649 23.093 27.3649 23.093 27.3649 23.093C27.3649 23.093 27.3649 23.093 27.3649 23.093C27.3649 23.093 27.3649 23.093 27.3649 23.093C27.3649 23.093 27.3649 23.093 27.3649 23.093C27.3649 23.093 27.3649 23.093 27.3649 23.093C27.3649 23.093 27.3649 23.093 27.3649 23.093C27.3649 23.093 27.3649 23.093 27.3649 23.093C27.3649 23.093 27.3649 23.093 27.3649 23.093C27.3649 23.093 27.3649 23.0929 27.3649 23.0929C27.3649 23.0929 27.3649 23.0929 27.3649 23.0929C27.3649 23.0929 27.3649 23.0929 27.3649 23.0929C27.3649 23.0929 27.3649 23.0929 27.3649 23.0929C27.3649 23.0929 27.3649 23.0929 27.3649 23.0929C27.3649 23.0929 27.3649 23.0929 27.3649 23.0929C27.3649 23.0929 27.3649 23.0929 27.3649 23.0929C27.3649 23.0929 27.3649 23.0929 27.3649 23.0929C27.3649 23.0929 27.3649 23.0929 27.3649 23.0929C27.3649 23.0929 27.3649 23.0929 27.3649 23.0929C27.3649 23.0929 27.3649 23.0929 27.3649 23.0929C27.3649 23.0929 27.3649 23.0929 27.3649 23.0929C27.3649 23.0929 27.3649 23.0929 27.3649 23.0929C27.3649 23.0929 27.3649 23.0929 27.3649 23.0929C27.3649 23.0929 27.3649 23.0929 27.3649 23.0929C27.3649 23.0929 27.3649 23.0929 27.3649 23.0929C27.3649 23.0929 27.3649 23.0929 27.3649 23.0929C27.3649 23.0929 27.3649 23.0929 27.3649 23.0929C27.3649 23.0929 27.3649 23.0929 27.3649 23.0929C27.3649 23.0929 27.3649 23.0929 27.3649 23.0929C27.3649 23.0929 27.3649 23.0929 27.3649 23.0929C27.3649 23.0929 27.3649 23.0929 27.3649 23.0929C27.3649 23.0929 27.3649 23.0929 27.3649 23.0929C27.3649 23.0929 27.3649 23.0929 27.3649 23.0929C27.3649 23.0929 27.3649 23.0929 27.3649 23.0929C27.3649 23.0929 27.3649 23.0929 27.3649 23.0929C27.3649 23.0929 27.3649 23.0929 27.3649 23.0929C27.3649 23.0929 27.3649 23.0929 27.3649 23.0929C27.3649 23.0929 27.3649 23.0929 27.3649 23.0929C27.3649 23.0929 27.3649 23.0929 27.3649 23.0929C27.3649 23.0929 27.3649 23.0929 27.3649 23.0929C27.3649 23.0929 27.3649 23.0929 27.3649 23.0929C27.3649 23.0929 27.3649 23.0929 27.3649 23.0929C27.3649 23.0928 27.3649 23.0928 27.3649 23.0928C27.3649 23.0928 27.3649 23.0928 27.3649 23.0928C27.3649 23.0928 27.3649 23.0928 27.3649 23.0928C27.3649 23.0928 27.3649 23.0928 27.3649 23.0928C27.3649 23.0928 27.3649 23.0928 27.3649 23.0928C27.3649 23.0928 27.3649 23.0928 27.3649 23.0928C27.3649 23.0928 27.3649 23.0928 27.3649 23.0928C27.3649 23.0928 27.3649 23.0928 27.3649 23.0928C27.3649 23.0928 27.3649 23.0928 27.3649 23.0928C27.3649 23.0928 27.3649 23.0928 27.3649 23.0928C27.3649 23.0928 27.3649 23.0928 27.3649 23.0928C27.3649 23.0928 27.3649 23.0928 27.3649 23.0928C27.3649 23.0928 27.3649 23.0928 27.3649 23.0928C27.3649 23.0928 27.3649 23.0928 27.3649 23.0928C27.3649 23.0928 27.3649 23.0928 27.3649 23.0928C27.3649 23.0928 27.3649 23.0928 27.3649 23.0928C27.3649 23.0928 27.3649 23.0928 27.3649 23.0928C27.3649 23.0928 27.3649 23.0928 27.3649 23.0928C27.3649 23.0928 27.3649 23.0928 27.3649 23.0928C27.3649 23.0928 27.3649 23.0928 27.3649 23.0928C27.3649 23.0928 27.3649 23.0928 27.3649 23.0928C27.3649 23.0928 27.3649 23.0928 27.3649 23.0928C27.3649 23.0928 27.3649 23.0928 27.3649 23.0928C27.3649 23.0928 27.3649 23.0928 27.3649 23.0928C27.3649 23.0928 27.3649 23.0928 27.3649 23.0928C27.3649 23.0928 27.3649 23.0928 27.3649 23.0928C27.3649 23.0928 27.3649 23.0928 27.3649 23.0928C27.3649 23.0928 27.3649 23.0928 27.3649 23.0928C27.3649 23.0928 27.3649 23.0928 27.3649 23.0928C27.3649 23.0928 27.3649 23.0928 27.3649 23.0928C27.3649 23.0928 27.3649 23.0928 27.3649 23.0928C27.3649 23.0928 27.3649 23.0928 27.3649 23.0928C27.3649 23.0928 27.3649 23.0928 27.3649 23.0928C27.3649 23.0928 27.3649 23.0928 27.3649 23.0928C27.3649 23.0928 27.3649 23.0928 27.3649 23.0928C27.3649 23.0928 27.3649 23.0928 27.3649 23.0928C27.3649 23.0928 27.3649 23.0928 27.3649 23.0928C27.3649 23.0928 27.3649 23.0928 27.3649 23.0928C27.3649 23.0928 27.3649 23.0928 27.3649 23.0928C27.3649 23.0928 27.3649 23.0928 27.3649 23.0928C27.3649 23.0928 27.3649 23.0928 27.3649 23.0928C27.3649 23.0928 27.3649 23.0927 27.3649 23.0927C27.3649 23.0927 27.3649 23.0927 27.3649 23.0927C27.3649 23.0927 27.3649 23.0927 27.3649 23.0927C27.3649 23.0927 27.3649 23.0927 27.3649 23.0927C27.3649 23.0927 27.3649 23.0927 27.3649 23.0927C27.3649 23.0927 27.3649 23.0927 27.3649 23.0927C27.3649 23.0927 27.3649 23.0927 27.3649 23.0927C27.3649 23.0927 27.3649 23.0927 27.3649 23.0927C27.3649 23.0927 27.3649 23.0927 27.3649 23.0927C27.3649 23.0927 27.3649 23.0927 27.3649 23.0927C27.3649 23.0927 27.3649 23.0927 27.3649 23.0927C27.3649 23.0927 27.3649 23.0927 27.3649 23.0927C27.3649 23.0927 27.3649 23.0927 27.3649 23.0927C27.3649 23.0927 27.3649 23.0927 27.3649 23.0927C27.3649 23.0927 27.3649 23.0927 27.3649 23.0927C27.3649 23.0927 27.3649 23.0927 27.3649 23.0927C27.3649 23.0927 27.3649 23.0927 27.3649 23.0927C27.3649 23.0927 27.3649 23.0927 27.3649 23.0927C27.3649 23.0927 27.3649 23.0927 27.3649 23.0927C27.3649 23.0927 27.3649 23.0927 27.3649 23.0927C27.3649 23.0927 27.3649 23.0927 27.3649 23.0927C27.3649 23.0927 27.3649 23.0927 27.3649 23.0927C27.3649 23.0927 27.3649 23.0927 27.3649 23.0927C27.3649 23.0927 27.3649 23.0927 27.3649 23.0927C27.3649 23.0927 27.3649 23.0927 27.3649 23.0927C27.3649 23.0927 27.3649 23.0927 27.3649 23.0927C27.3649 23.0927 27.3649 23.0927 27.3649 23.0927C27.3649 23.0927 27.3649 23.0927 27.3649 23.0927C27.3649 23.0927 27.3649 23.0927 27.3649 23.0927C27.3649 23.0927 27.3649 23.0927 27.3649 23.0927C27.3649 23.0927 27.3649 23.0927 27.3649 23.0927C27.3649 23.0927 27.3649 23.0927 27.3649 23.0927C27.3649 23.0927 27.3649 23.0927 27.3649 23.0927C27.3649 23.0927 27.3649 23.0927 27.3649 23.0927C27.3649 23.0927 27.3649 23.0927 27.3649 23.0927C27.3649 23.0927 27.3649 23.0927 27.3649 23.0927C27.3649 23.0927 27.3649 23.0927 27.3649 23.0927C27.3649 23.0927 27.3649 23.0927 27.3649 23.0927C27.3649 23.0927 27.3649 23.0927 27.3649 23.0927C27.3649 23.0927 27.3649 23.0927 27.3649 23.0927C27.3649 23.0927 27.3649 23.0927 27.3649 23.0927C27.3649 23.0927 27.3649 23.0927 27.3649 23.0927C27.3649 23.0927 27.3649 23.0927 27.3649 23.0927C27.3649 23.0927 27.3649 23.0927 27.3649 23.0927C27.3649 23.0927 27.3649 23.0927 27.3649 23.0927C27.3649 23.0927 27.3649 23.0927 27.3649 23.0927C27.3649 23.0927 27.3649 23.0927 27.3649 23.0927C27.3649 23.0927 27.3649 23.0927 27.3649 23.0927C27.3649 23.0927 27.3649 23.0927 27.3649 23.0927C27.3649 23.0927 27.3649 23.0927 27.3649 23.0927C27.3649 23.0927 27.3649 23.0927 27.3649 23.0927C27.3649 23.0927 27.3649 23.0927 27.3649 23.0927C27.3649 23.0927 27.3649 23.0927 27.3649 23.0927C27.3649 23.0927 27.3649 23.0927 27.3649 23.0927C27.3649 23.0927 27.3649 23.0927 27.3649 23.0927C27.3649 23.0927 27.3649 23.0927 27.3649 23.0927C27.3649 23.0927 27.3649 23.0927 27.3649 23.0927C27.3649 23.0927 27.3649 23.0927 27.3649 23.0927C27.3649 23.0927 27.3649 23.0927 27.3649 23.0927C27.3649 23.0927 27.3649 23.0927 27.3649 23.0927C27.3649 23.0927 27.3649 23.0927 27.3649 23.0926C27.3649 23.0926 27.3649 23.0926 27.3649 23.0926C27.3649 23.0926 27.3649 23.0926 27.3649 23.0926C27.3649 23.0926 27.3649 23.0926 27.3649 23.0926C27.3649 23.0926 27.3649 23.0926 27.3649 23.0926C27.3649 23.0926 27.3649 23.0926 27.3649 23.0926C27.3649 23.0926 27.3649 23.0926 27.3649 23.0926C27.3649 23.0926 27.3649 23.0926 27.3649 23.0926C27.3649 23.0926 27.3649 23.0926 27.3649 23.0926C27.3649 23.0926 27.3649 23.0926 27.3649 23.0926C27.3649 23.0926 27.3649 23.0926 27.3649 23.0926C27.3649 23.0926 27.3649 23.0926 27.3649 23.0926C27.3649 23.0926 27.3649 23.0926 27.3649 23.0926C27.3649 23.0926 27.3649 23.0926 27.3649 23.0926C27.3649 23.0926 27.3649 23.0926 27.3649 23.0926C27.3649 23.0926 27.3649 23.0926 27.3649 23.0926C27.3649 23.0926 27.3649 23.0926 27.3649 23.0926C27.3649 23.0926 27.3649 23.0926 27.3649 23.0926C27.3649 23.0926 27.3649 23.0926 27.3649 23.0926C27.3649 23.0926 27.3649 23.0926 27.3649 23.0926C27.3649 23.0926 27.3649 23.0926 27.3649 23.0926C27.3649 23.0926 27.3649 23.0926 27.3649 23.0926C27.3649 23.0926 27.3649 23.0926 27.3649 23.0926C27.3649 23.0926 27.3649 23.0926 27.3649 23.0926C27.3649 23.0926 27.3649 23.0926 27.3649 23.0926C27.3649 23.0926 27.3649 23.0926 27.3649 23.0926C27.3649 23.0926 27.3649 23.0926 27.3649 23.0926C27.3649 23.0926 27.3649 23.0926 27.3649 23.0926V23.0926C27.3649 23.0926 27.3649 23.0926 27.3649 23.0926C27.3649 23.0926 27.3649 23.0926 27.3649 23.0926C27.3649 23.0926 27.3649 23.0926 27.3649 23.0926C27.3649 23.0926 27.3649 23.0926 27.3649 23.0926C27.3649 23.0926 27.3649 23.0926 27.3649 23.0926C27.3649 23.0926 27.3649 23.0926 27.3649 23.0926C27.3649 23.0926 27.3649 23.0926 27.3649 23.0926V23.0926C27.3649 23.0926 27.3649 23.0926 27.3649 23.0926C27.3649 23.0926 27.3649 23.0926 27.3649 23.0926C27.3649 23.0926 27.3649 23.0926 27.3649 23.0926V23.0926C27.3649 23.0926 27.3649 23.0926 27.3649 23.0926C27.3649 23.0926 27.3649 23.0926 27.3649 23.0926V23.0926C27.3649 23.0926 27.3649 23.0926 27.3649 23.0926C27.3649 23.0926 27.3649 23.0926 27.3649 23.0926V23.0926C27.3649 23.0926 27.3649 23.0926 27.3649 23.0926V23.0926C27.3649 23.0926 27.3649 23.0926 27.3649 23.0926V23.0926C27.3649 23.0926 27.3649 23.0926 27.3649 23.0926V23.0926C27.3649 23.0926 27.3649 23.0926 27.3649 23.0926V23.0926C27.3649 23.0926 27.3649 23.0926 27.3649 23.0926V23.0926V23.0926C27.3649 23.0926 27.3649 23.0926 27.3649 23.0926V23.0926C27.3649 23.0926 27.3649 23.0926 27.3649 23.0926C27.3649 23.0926 27.3649 23.0926 27.3649 23.0926V23.0926V23.0926C27.3649 23.0926 27.3649 23.0926 27.3649 23.0926C27.3649 23.0926 27.3649 23.0926 27.3649 23.0926V23.0926V23.0926C27.3649 23.0926 27.3649 23.0926 27.3649 23.0926C27.3649 23.0926 27.3649 23.0926 27.3649 23.0926C27.3649 23.0926 27.3649 23.0926 27.3649 23.0926C27.3649 23.0926 27.3649 23.0926 27.3649 23.0926V23.0926V23.0926V23.0926C27.3649 23.0926 27.3649 23.0926 27.3649 23.0926C27.3649 23.0926 27.3649 23.0926 27.3649 23.0926C27.3649 23.0926 27.3649 23.0926 27.3649 23.0926C27.3649 23.0926 27.3649 23.0926 27.3649 23.0926C27.3649 23.0926 27.3649 23.0926 27.3649 23.0926C27.3649 23.0926 27.3649 23.0926 27.3649 23.0926C27.3649 23.0926 27.3649 23.0926 27.3649 23.0926C27.3649 23.0926 27.3649 23.0926 27.3649 23.0926C27.3649 23.0926 27.3649 23.0926 27.3649 23.0926C27.3649 23.0926 27.3649 23.0926 27.3649 23.0926V23.0926V23.0926V23.0926C27.3649 23.0926 27.3649 23.0926 27.3649 23.0926C27.3649 23.0926 27.3649 23.0926 27.3649 23.0926C27.3649 23.0926 27.3649 23.0926 27.3649 23.0926V23.0926V23.0926C27.3649 23.0926 27.3649 23.0926 27.3649 23.0926C27.3649 23.0926 27.3649 23.0926 27.3649 23.0926V23.0926C27.3649 23.0926 27.3649 23.0926 27.3649 23.0926C27.3649 23.0926 27.3649 23.0926 27.3649 23.0926C27.3649 23.0926 27.3649 23.0926 27.3649 23.0926C27.3649 23.0926 27.3649 23.0926 27.3649 23.0926C27.3649 23.0926 27.3649 23.0926 27.3649 23.0926C27.3649 23.0926 27.3649 23.0926 27.3649 23.0926C27.3649 23.0926 27.3649 23.0926 27.3649 23.0926V23.0926C27.3649 23.0926 27.3649 23.0926 27.3649 23.0926C27.3649 23.0926 27.3649 23.0926 27.3649 23.0926C27.3649 23.0926 27.3649 23.0926 27.3649 23.0926C27.3649 23.0926 27.3649 23.0926 27.3649 23.0926C27.3649 23.0926 27.3649 23.0926 27.3649 23.0926C27.3649 23.0926 27.3649 23.0926 27.3649 23.0926C27.3649 23.0926 27.3649 23.0926 27.3649 23.0926V23.0926C27.3649 23.0926 27.3649 23.0926 27.3649 23.0926C27.3649 23.0926 27.3649 23.0926 27.3649 23.0926V23.0926C27.3649 23.0926 27.3649 23.0926 27.3649 23.0926C27.3649 23.0926 27.3649 23.0926 27.3649 23.0926C27.3649 23.0926 27.3649 23.0926 27.3649 23.0926C27.3649 23.0926 27.3649 23.0926 27.3649 23.0926C27.3649 23.0926 27.3649 23.0926 27.3649 23.0926V23.0926C27.3649 23.0926 27.3649 23.0926 27.3649 23.0926V23.0926C26.8649 23.0926 26.3649 23.0926 26.8649 23.0926ZM26.5504 22.7052C26.5823 22.6793 26.6111 22.6776 26.6245 22.6789C26.6378 22.6802 26.6667 22.6875 26.6939 22.72L25.9262 23.3609C26.236 23.732 26.8055 23.785 27.1793 23.4826L26.5504 22.7052ZM26.6937 22.7198C26.7101 22.7395 26.7196 22.764 26.7196 22.7916H25.7196C25.7196 23.0016 25.7945 23.2033 25.9264 23.3611L26.6937 22.7198ZM26.7196 22.7916C26.7196 22.826 26.7034 22.8577 26.6797 22.8772L26.0454 22.1042C25.8406 22.2722 25.7196 22.5227 25.7196 22.7916H26.7196ZM26.6797 22.8772C28.9459 21.0174 31.4868 19.5683 34.2338 18.569L33.8919 17.6292C31.0384 18.6674 28.3986 20.1729 26.0453 22.1042L26.6797 22.8772ZM34.2339 18.5689C37.0772 17.5338 40.0674 17.0084 43.1233 17.0084V16.0084C39.9518 16.0084 36.8457 16.5539 33.8918 17.6293L34.2339 18.5689ZM43.1233 17.0084C45.5382 17.0084 47.9292 17.3396 50.2283 17.9913L50.501 17.0292C48.1124 16.3521 45.6296 16.0084 43.1233 16.0084V17.0084ZM50.2281 17.9912C52.4566 18.6239 54.5925 19.5543 56.5752 20.7581L57.0942 19.9033C55.0346 18.6528 52.816 17.6864 50.5012 17.0292L50.2281 17.9912ZM56.5753 20.7581C60.5027 23.1419 63.7284 26.5289 65.9011 30.5514L66.7809 30.0761C64.5233 25.8964 61.1727 22.3788 57.0941 19.9033L56.5753 20.7581ZM65.9008 30.5509C65.8948 30.5398 65.8902 30.5258 65.8886 30.5101C65.887 30.4944 65.8888 30.48 65.8923 30.4681L66.85 30.7561C66.9182 30.5291 66.8942 30.2864 66.7812 30.0766L65.9008 30.5509ZM65.8923 30.4681C65.9014 30.4379 65.9228 30.4143 65.945 30.4025L66.4144 31.2855C66.6228 31.1747 66.7806 30.9869 66.85 30.7561L65.8923 30.4681ZM65.9451 30.4024C65.9627 30.393 65.9794 30.3896 65.9949 30.3896V31.3896C66.1388 31.3896 66.2838 31.3548 66.4143 31.2855L65.9451 30.4024ZM24.6784 24.4399C24.707 24.4399 24.7335 24.4517 24.7509 24.4687L24.0525 25.1844C24.2194 25.3473 24.4426 25.4399 24.6784 25.4399V24.4399ZM24.7525 24.4703C24.7972 24.5143 24.7959 24.584 24.7544 24.6259L24.0437 23.9224C23.6979 24.2718 23.6993 24.8366 24.0509 25.1828L24.7525 24.4703ZM24.753 24.6274C24.7241 24.6563 24.6946 24.6619 24.679 24.662C24.6634 24.662 24.6337 24.6567 24.6044 24.6279L25.306 23.9153C24.9604 23.575 24.3872 23.5782 24.0452 23.921L24.753 24.6274ZM24.606 24.6294C24.5863 24.6102 24.5719 24.5797 24.5719 24.5464H25.5719C25.5719 24.3047 25.4736 24.0788 25.3044 23.9137L24.606 24.6294ZM24.572 24.5527C24.5715 24.5207 24.5847 24.4915 24.6036 24.4723L25.3146 25.1755C25.4805 25.0079 25.5749 24.7806 25.5719 24.5402L24.572 24.5527ZM24.6068 24.4692C24.6247 24.4514 24.6513 24.4399 24.6784 24.4399V25.4399C24.918 25.4399 25.144 25.345 25.3115 25.1787L24.6068 24.4692Z" fill="#16246B" mask="url(#path-19-outside-1_1863_48849)"/>
<path d="M57.4834 69.0861L57.4835 69.0863C57.5989 69.2838 57.8121 69.4068 58.0416 69.4068C58.1548 69.4068 58.2637 69.3765 58.3595 69.3226L58.3607 69.3219C62.9612 66.7003 66.8212 62.9163 69.5241 58.3794C70.8917 56.0845 71.9483 53.6201 72.6652 51.0558L72.6652 51.0558C73.4047 48.4099 73.7788 45.6645 73.7788 42.8945C73.7788 42.5392 73.4901 42.2537 73.1367 42.2537C72.7837 42.2537 72.4918 42.5374 72.4918 42.8945C72.4918 53.3133 66.8327 63.0145 57.7211 68.2099L57.7199 68.2106C57.5741 68.2948 57.4656 68.4312 57.4202 68.5969L57.42 68.5977C57.3754 68.762 57.3962 68.9367 57.4834 69.0861Z" fill="#16246B" stroke="#16246B" stroke-width="0.5"/>
<path d="M42.2605 13.0939C42.2697 13.3088 42.1005 13.4912 41.8841 13.5003L41.841 12.4689C39.8326 12.5516 37.8307 12.83 35.8895 13.2963L35.8894 13.2963C33.9945 13.7521 32.1339 14.3917 30.3604 15.1996L30.3604 15.1996C28.6161 15.9943 26.9369 16.9596 25.3686 18.0668L25.3685 18.0669C23.8134 19.1663 22.3536 20.4179 21.0287 21.7852L21.0286 21.7853C19.7036 23.1538 18.5003 24.6524 17.4555 26.2393C16.3989 27.8431 15.4917 29.552 14.7603 31.319C13.2393 34.9933 12.4683 38.8872 12.4683 42.8945C12.4683 43.2486 12.757 43.5353 13.1117 43.5353C13.4657 43.5353 13.7539 43.248 13.7539 42.8945C13.7539 27.1975 26.1121 14.3948 41.8943 13.7501L41.8946 13.7501C42.2465 13.7353 42.5246 13.4391 42.5104 13.0848M42.2605 13.0939L42.5104 13.0848M42.2605 13.0939C42.2527 12.8776 42.0717 12.7096 41.8513 12.7187L42.5104 13.0848M42.2605 13.0939L42.5103 13.0832C42.5103 13.0837 42.5103 13.0843 42.5104 13.0848" fill="#16246B" stroke="#16246B" stroke-width="0.5"/>
</svg>
