<svg width="65" height="64" viewBox="0 0 65 64" fill="none" xmlns="http://www.w3.org/2000/svg">
<g opacity="0.4">
<path fill-rule="evenodd" clip-rule="evenodd" d="M55.4137 49.9329C53.7561 46.5375 50.3125 44.38 46.5319 44.3663C45.7593 44.364 44.9889 44.4534 44.2392 44.6345C44.0237 44.2906 43.7692 43.9742 43.4803 43.6876C43.4872 43.6624 43.4941 43.6349 43.4987 43.6097V32.1922C49.6201 31.7841 54.3155 26.5934 54.1115 20.4605C53.9074 14.3299 48.8773 9.46484 42.7421 9.46484C36.6069 9.46484 31.5767 14.3299 31.3704 20.4605C31.1664 26.5934 35.8618 31.7841 41.9832 32.1922V42.6032C41.0432 42.1561 39.9909 41.9979 38.9592 42.1493C37.2099 40.1638 34.6833 39.0381 32.0376 39.061C29.3918 39.0862 26.8882 40.2624 25.1756 42.2822C23.9536 41.9452 22.6491 42.0644 21.505 42.617V40.5375C27.6265 40.1271 32.3219 34.9388 32.1178 28.8059C31.9138 22.673 26.8836 17.8079 20.7461 17.8079C14.6109 17.8079 9.58079 22.673 9.37674 28.8059C9.17269 34.9388 13.8658 40.1271 19.9896 40.5375V43.6097C19.9896 43.6372 20.0033 43.6601 20.0056 43.6854C19.7809 43.9077 19.5792 44.1508 19.398 44.4098C19.0977 44.3823 18.7905 44.3663 18.4718 44.3663C13.029 44.3732 8.61787 48.782 8.61328 54.2271C8.61328 54.6467 8.9526 54.986 9.37216 54.986H54.8795C55.2991 54.986 55.6384 54.6467 55.6384 54.2271V50.9233C55.6384 50.5794 55.565 50.2424 55.4183 49.9329H55.4137ZM32.8813 20.8549C32.8767 15.5061 37.1365 11.1293 42.4807 10.9872C47.8273 10.8473 52.3117 14.9948 52.5868 20.3344C52.862 25.6764 48.8291 30.264 43.4987 30.6744V27.2996L46.2293 25.2522C46.564 25 46.6328 24.5254 46.3806 24.1907C46.1307 23.856 45.6538 23.7872 45.3191 24.0394L43.4987 25.4058V22.3703C43.4987 21.9508 43.1594 21.6115 42.7398 21.6115C42.3202 21.6115 41.9809 21.9508 41.9809 22.3703V24.177L40.0459 23.2094C39.6722 23.0237 39.216 23.1751 39.028 23.5488C38.8422 23.9248 38.9936 24.381 39.3673 24.5667L41.9809 25.8735V30.6744C36.8499 30.2755 32.8882 25.9996 32.879 20.8526L32.8813 20.8549ZM10.8853 29.1979C10.8807 23.8491 15.1405 19.4724 20.4871 19.3325C25.8336 19.1927 30.3181 23.3378 30.5932 28.6798C30.8683 34.0217 26.8378 38.6071 21.505 39.0198V35.6449L24.2356 33.5976C24.5703 33.3454 24.6391 32.8708 24.3869 32.5361C24.137 32.2013 23.6601 32.1326 23.3254 32.3847L21.505 33.7512V30.718C21.505 30.2984 21.1657 29.9591 20.7461 29.9591C20.3266 29.9591 19.9873 30.2984 19.9873 30.718V32.5246L18.0499 31.5525C17.6762 31.3645 17.22 31.5181 17.032 31.8918C16.844 32.2678 16.9976 32.7241 17.3713 32.9098L19.985 34.2212V39.0221C14.854 38.6231 10.8899 34.3473 10.883 29.2002L10.8853 29.1979ZM54.1184 53.4682H10.1608C10.5575 49.1763 14.157 45.8886 18.4695 45.884C18.8684 45.8817 19.2674 45.9116 19.6617 45.9735C19.9781 46.0262 20.2945 45.8726 20.4481 45.5883C21.3789 43.9238 23.3896 43.1947 25.171 43.8711C25.4874 43.9903 25.8451 43.8871 26.0491 43.6166C27.4591 41.732 29.6647 40.6109 32.0169 40.5765C34.3692 40.5421 36.6069 41.6013 38.0696 43.4446C38.2507 43.6739 38.5465 43.7794 38.8308 43.7129C40.6007 43.2864 42.4234 44.1806 43.1662 45.8405C43.3244 46.1935 43.7188 46.3701 44.0856 46.2509C44.8789 46.0056 45.7042 45.8817 46.5342 45.884C49.7325 45.8955 52.6465 47.7228 54.0496 50.5955C54.0954 50.6987 54.1207 50.811 54.1184 50.9256V53.4682Z" fill="white"/>
<path fill-rule="evenodd" clip-rule="evenodd" d="M46.5327 50.4336H37.4308C37.0112 50.4336 36.6719 50.7729 36.6719 51.1925C36.6719 51.612 37.0112 51.9513 37.4308 51.9513H46.5327C46.9522 51.9513 47.2916 51.612 47.2916 51.1925C47.2916 50.7729 46.9522 50.4336 46.5327 50.4336Z" fill="white"/>
<path fill-rule="evenodd" clip-rule="evenodd" d="M49.5646 50.4336H48.8058C48.3862 50.4336 48.0469 50.7729 48.0469 51.1925C48.0469 51.612 48.3862 51.9513 48.8058 51.9513H49.5646C49.9842 51.9513 50.3235 51.612 50.3235 51.1925C50.3235 50.7729 49.9842 50.4336 49.5646 50.4336Z" fill="white"/>
</g>
</svg>
