<svg width="65" height="64" viewBox="0 0 65 64" fill="none" xmlns="http://www.w3.org/2000/svg">
<path fill-rule="evenodd" clip-rule="evenodd" d="M11.4682 5.89832C11.3783 5.92426 11.233 6.01871 11.1453 6.10816L10.9858 6.27086V31.995V57.719L11.1447 57.8812C11.2321 57.9704 11.3943 58.0672 11.5051 58.0964C11.6346 58.1305 13.1747 58.1443 15.8132 58.135C20.3405 58.1191 20.0429 58.1418 20.277 57.7946C20.3735 57.6515 20.3765 56.8637 20.3769 32.0292C20.3772 9.24503 20.3682 6.39283 20.2956 6.24329C20.2508 6.15084 20.1357 6.02886 20.04 5.97225C19.8717 5.87269 19.7312 5.86901 15.7488 5.86027C13.4503 5.85522 11.5594 5.87201 11.4682 5.89832ZM18.8703 31.995V56.5683H15.695H12.5197V31.995V7.4216H15.695H18.8703V31.995ZM14.087 10.7563C13.4863 10.9688 13.4575 11.9002 14.0436 12.1604C14.2468 12.2505 14.4108 12.2604 15.7219 12.2613C16.9995 12.2623 17.1976 12.2513 17.3623 12.1704C17.9384 11.8874 17.9384 11.0592 17.3623 10.7762C17.1972 10.6951 17.0032 10.6846 15.7219 10.6881C14.7217 10.6908 14.2121 10.7121 14.087 10.7563ZM45.2032 12.6114C45.0963 12.663 44.9884 12.7794 44.9207 12.9162C44.8187 13.1221 44.811 13.2366 44.811 14.5419V15.946L38.3124 15.9468C33.2618 15.9473 31.7849 15.962 31.6844 16.0125C31.6132 16.0483 31.5042 16.1443 31.4422 16.2259C31.3391 16.3614 31.3271 16.4639 31.3025 17.4098L31.2755 18.4454L29.5778 18.4717C27.7231 18.5004 27.712 18.5023 27.4955 18.8253C27.408 18.956 27.4006 19.1755 27.4006 21.6552C27.4006 24.1349 27.408 24.3544 27.4955 24.4851C27.712 24.8081 27.7231 24.81 29.5778 24.8387L31.2755 24.865L31.3025 25.8937C31.3313 26.9955 31.3605 27.1151 31.6388 27.2705C31.7315 27.3222 32.4232 27.3443 34.5854 27.3644L37.4109 27.3907L37.425 29.2606L37.4391 31.1304L37.179 31.3244C36.7844 31.6186 35.9333 32.4986 35.6145 32.9421C34.7637 34.1255 34.292 35.4086 34.1523 36.9196C34.0862 37.6351 34.1268 37.9023 34.3292 38.0825C34.576 38.3024 34.635 38.3093 36.2502 38.3093C37.2432 38.3093 37.8145 38.3282 37.8145 38.3612C37.8145 38.3898 36.1423 42.6073 34.0985 47.7335C32.0546 52.8597 30.3689 57.1201 30.3523 57.2011C30.2753 57.5772 30.6375 58.0347 31.0481 58.0799C31.3348 58.1115 31.632 57.9911 31.7847 57.7815C31.8416 57.7034 33.6065 53.2962 35.7068 47.9876L39.5254 38.3356L40.4729 38.3212L41.4204 38.3069L41.4205 47.9243C41.4206 56.9766 41.4261 57.5524 41.5147 57.7222C41.6592 57.9993 41.8602 58.1168 42.1887 58.1166C42.5193 58.1163 42.7589 57.9967 42.9066 57.7582C43.0049 57.5995 43.0085 57.293 43.0222 47.9518L43.0364 38.3093H43.9199H44.8033L45.1775 39.2433C45.3832 39.757 47.12 44.1198 49.0369 48.9385C50.9538 53.7571 52.58 57.7758 52.6506 57.869C53.0659 58.4166 54.014 58.0782 54.014 57.3823C54.014 57.2556 52.7651 54.0244 50.3005 47.7751C48.2581 42.5962 46.587 38.3478 46.587 38.3341C46.587 38.3205 47.2958 38.3093 48.1621 38.3093C49.9259 38.3093 50.0021 38.2954 50.2065 37.9369C50.4035 37.5913 50.2437 36.1603 49.8921 35.1203C49.3999 33.6649 48.3589 32.2109 47.1925 31.3491L46.9099 31.1404V29.2524V27.3644L49.722 27.3642C52.416 27.3641 52.5412 27.3597 52.7063 27.2613C53.0693 27.0449 53.0453 27.5615 53.0452 19.9608C53.0451 13.5137 53.0391 13.0666 52.951 12.894C52.7561 12.5125 52.9006 12.5258 48.9281 12.527C45.7973 12.528 45.3556 12.538 45.2032 12.6114ZM51.4576 14.9988V15.9197L48.9416 15.9333L46.4256 15.947V14.9988V14.0506L48.9416 14.0643L51.4576 14.078V14.9988ZM51.4714 21.6157L51.4852 25.7332H42.1742H32.8632V21.6377C32.8632 19.3851 32.8794 17.5262 32.8992 17.5069C32.9191 17.4875 37.1028 17.4776 42.1964 17.4849L51.4576 17.4983L51.4714 21.6157ZM14.0804 17.5616C13.916 17.6201 13.7004 17.8675 13.6479 18.0579C13.5825 18.2952 13.6508 18.6431 13.7929 18.7966C14.0187 19.0406 14.095 19.0505 15.7327 19.0503C17.1924 19.0502 17.293 19.044 17.4608 18.9439C17.9019 18.681 17.9019 17.8941 17.4608 17.6312C17.2925 17.5308 17.1965 17.5252 15.7219 17.5289C14.8635 17.5311 14.1248 17.5458 14.0804 17.5616ZM41.6492 18.5827C40.4603 18.7764 39.3958 19.7503 39.083 20.9307C38.9772 21.3298 38.9756 22.0269 39.0794 22.4574C39.3462 23.5637 40.3024 24.4988 41.4336 24.7595C41.8327 24.8515 42.4864 24.8614 42.8843 24.7813C43.6407 24.6292 44.4732 24.064 44.9187 23.4001C45.3892 22.6992 45.5619 21.6305 45.3283 20.8659C44.8453 19.2847 43.2847 18.3162 41.6492 18.5827ZM31.2755 21.6552V23.2864H30.1453H29.0152L29.0009 21.641L28.9867 19.9956L30.1311 20.0098L31.2755 20.024V21.6552ZM42.8532 20.1554C43.1634 20.2861 43.5021 20.601 43.6705 20.9152C43.8702 21.2878 43.8766 21.9017 43.6849 22.2826C43.519 22.6124 43.2336 22.8914 42.8963 23.0537C42.5067 23.2411 41.8788 23.2348 41.4977 23.0395C40.9274 22.7474 40.5956 22.2189 40.5956 21.6026C40.5956 20.4498 41.7681 19.6982 42.8532 20.1554ZM14.0804 24.4548C13.916 24.5133 13.7004 24.7607 13.6479 24.951C13.5825 25.1883 13.6508 25.5363 13.7929 25.6898C14.0187 25.9338 14.095 25.9437 15.7327 25.9435C17.1924 25.9433 17.293 25.9371 17.4608 25.8371C17.9019 25.5742 17.9019 24.7873 17.4608 24.5243C17.2925 24.424 17.1965 24.4184 15.7219 24.4221C14.8635 24.4243 14.1248 24.439 14.0804 24.4548ZM45.2954 28.8158C45.2954 29.9564 45.2809 30.2615 45.2281 30.2401C44.95 30.1276 44.1093 29.8813 43.7333 29.8021C43.0324 29.6544 41.324 29.6687 40.5695 29.8286C40.0796 29.9323 39.4215 30.1185 39.1466 30.2312C39.0582 30.2674 39.0524 30.1802 39.0524 28.8171V27.3644H42.1739H45.2954V28.8158ZM14.0436 31.3079C13.7714 31.4288 13.6309 31.6626 13.6309 31.995C13.6309 32.3273 13.7714 32.5611 14.0436 32.682C14.2468 32.7721 14.4108 32.782 15.7219 32.783C16.9995 32.7839 17.1976 32.773 17.3623 32.6921C17.9384 32.4091 17.9384 31.5808 17.3623 31.2978C17.1976 31.2169 16.9995 31.206 15.7219 31.2069C14.4108 31.2079 14.2468 31.2178 14.0436 31.3079ZM43.5178 31.4158C45.9862 31.9077 47.8577 33.5941 48.4425 35.8535C48.5112 36.119 48.5759 36.4308 48.5863 36.5465L48.6052 36.757L42.2037 36.7704C38.6829 36.7778 35.7823 36.7644 35.7581 36.7407C35.6962 36.6802 35.8486 35.938 36.0311 35.4109C36.3613 34.4576 36.8709 33.6592 37.5656 33.0071C38.2913 32.326 39.0467 31.8887 40.0211 31.5856C40.4658 31.4473 40.7366 31.3929 41.5011 31.2886C41.8494 31.2411 43.0074 31.3142 43.5178 31.4158ZM14.0804 38.0832C13.916 38.1418 13.7004 38.3891 13.6479 38.5795C13.5715 38.8572 13.6586 39.184 13.8623 39.3833L14.0285 39.5459L15.6556 39.5601C17.2132 39.5736 17.2902 39.5696 17.4608 39.4668C17.9019 39.2008 17.9019 38.4158 17.4608 38.1528C17.2925 38.0525 17.1965 38.0468 15.7219 38.0506C14.8635 38.0527 14.1248 38.0675 14.0804 38.0832ZM14.0535 45.0008C13.5605 45.2673 13.4672 45.89 13.8623 46.2765L14.0285 46.439L15.6556 46.4532C17.2132 46.4668 17.2902 46.4628 17.4608 46.36C17.9019 46.094 17.9019 45.3089 17.4608 45.046C17.2928 44.9458 17.194 44.9398 15.7219 44.9412C14.6849 44.9421 14.125 44.9621 14.0535 45.0008ZM14.0436 51.8295C13.7714 51.9504 13.6309 52.1842 13.6309 52.5166C13.6309 52.8489 13.7714 53.0828 14.0436 53.2036C14.2468 53.2938 14.4108 53.3037 15.7219 53.3046C16.9995 53.3056 17.1976 53.2946 17.3623 53.2137C17.9384 52.9307 17.9384 52.1025 17.3623 51.8195C17.1976 51.7386 16.9995 51.7276 15.7219 51.7286C14.4108 51.7295 14.2468 51.7394 14.0436 51.8295Z" fill="#16246B"/>
</svg>
