<svg width="65" height="64" viewBox="0 0 65 64" fill="none" xmlns="http://www.w3.org/2000/svg">
<path fill-rule="evenodd" clip-rule="evenodd" d="M30.1029 8.59919C29.9506 8.62064 29.3693 8.70053 28.8111 8.7767C25.4835 9.23062 21.971 10.568 19.0767 12.483C16.8743 13.9402 14.7508 15.9583 13.2184 18.0505C10.8972 21.2197 9.52167 24.5352 8.90439 28.4486C8.62546 30.2175 8.62869 33.3337 8.91141 35.1293C9.15306 36.6645 9.52472 38.1299 10.0422 39.5883C10.466 40.7827 11.4218 42.8091 11.87 43.4632C12.0276 43.6933 12.1565 43.9105 12.1565 43.9461C12.1565 44.0637 13.3226 45.661 14.0487 46.5381C14.8923 47.557 16.4433 49.0796 17.4683 49.895C20.8388 52.5762 25.4943 54.4687 29.7667 54.8944C30.9936 55.0166 33.5489 55.0166 34.7758 54.8944C39.0481 54.4687 43.6659 52.5921 47.0804 49.8939C49.0862 48.309 51.4684 45.5827 52.6408 43.5306C52.7387 43.3592 52.9478 42.9938 53.1053 42.7189C54.2236 40.7667 55.2103 37.802 55.631 35.1293C55.9137 33.3337 55.917 30.2175 55.638 28.4486C54.8904 23.7083 52.926 19.6105 49.7338 16.1325C46.114 12.1883 41.2474 9.6192 35.7774 8.76452C34.8508 8.61982 30.7945 8.50157 30.1029 8.59919ZM31.8099 10.7166V12.0721L31.0948 12.1298C30.2013 12.2019 28.6892 12.4078 28.0485 12.5448C27.3455 12.6951 27.1408 12.9444 27.4158 13.3149C27.5389 13.4808 27.5692 13.4814 28.3616 13.3323C29.2385 13.1673 30.3037 13.0308 31.23 12.9645L31.8036 12.9235L31.8298 15.1049C31.8442 16.3046 31.8338 17.2996 31.8066 17.3162C31.7795 17.3326 31.3228 17.3928 30.7917 17.4499C28.8596 17.6575 27.1722 18.1643 25.4095 19.0665C24.3377 19.6151 24.0725 19.862 24.2347 20.1604C24.4141 20.4907 24.6086 20.4649 25.4299 20.0019C26.9367 19.1524 29.0697 18.4552 30.5804 18.3182C30.9268 18.2867 31.345 18.2405 31.51 18.2152L31.8099 18.1693V21.6233V25.0772L31.4639 25.1344C28.5386 25.6174 26.4104 27.4611 25.7094 30.1194C25.4885 30.9569 25.477 32.5214 25.6856 33.351C26.3427 35.9639 28.4286 37.8645 31.1887 38.3655L31.8099 38.4783V41.9211V45.3638L31.2332 45.3061C29.3582 45.1183 27.8912 44.7237 26.2424 43.9637C25.4688 43.6071 25.2075 43.524 25.0891 43.5971C24.896 43.7161 24.8416 44.1118 25.0003 44.2411C25.2985 44.4841 26.7504 45.1238 27.7544 45.4545C28.7579 45.785 30.8028 46.1712 31.5561 46.1724L31.8099 46.1729V48.4043V50.6357L31.2332 50.5813C30.0985 50.4743 29.08 50.3476 28.6042 50.2544C28.0452 50.1448 27.7826 50.2007 27.7035 50.446C27.5992 50.7699 27.8033 50.9593 28.3692 51.0638C29.1268 51.2036 30.163 51.3353 31.0486 51.4043L31.8099 51.4636V52.8176V54.1715H31.3249C30.6263 54.1715 28.6786 53.9346 27.6577 53.7253C22.4766 52.6636 17.7642 49.8032 14.4376 45.701C10.9945 41.4551 9.15537 35.6584 9.56744 30.3511C9.70464 28.5842 9.96549 27.0655 10.3705 25.6763C12.3498 18.8855 17.3853 13.4345 24.0536 10.8641C26.2183 10.0298 29.2213 9.40514 31.2332 9.37069L31.8099 9.36088V10.7166ZM35.5929 9.59265C36.7095 9.75072 38.8247 10.2428 38.9607 10.3762C39.0917 10.5045 37.7001 11.7537 37.0943 12.0516C36.6935 12.2488 36.4438 12.2969 35.618 12.3364C35.0713 12.3626 34.5722 12.4245 34.5087 12.4742C34.3622 12.5888 34.3596 12.927 34.5041 13.0693C34.6624 13.2252 36.0654 13.2052 36.7911 13.0368C37.6058 12.8477 37.973 12.6149 39.0755 11.5889L40.0207 10.7093L40.5057 10.8636C41.0535 11.038 43.6203 12.2744 43.6203 12.3639C43.6203 12.3959 43.527 12.4646 43.4127 12.5167C42.986 12.7112 42.3008 13.4106 41.6627 14.3029C40.4207 16.0399 39.1109 17.1321 37.3969 17.8596C35.8264 18.5263 35.4825 19.2797 35.465 22.0912L35.4545 23.7779L35.7313 24.3098C36.1439 25.1029 36.4245 25.2195 37.9458 25.2307C38.6055 25.2355 39.2333 25.2457 39.3409 25.2534C39.4485 25.261 39.9349 25.5297 40.4218 25.8504C41.4366 26.5187 41.9488 26.727 43.4462 27.0802C44.0355 27.2191 44.6477 27.4085 44.8065 27.5008C45.4666 27.885 45.3645 28.687 44.5748 29.3202C43.9146 29.8494 43.2324 30.0842 42.3481 30.0865C40.6641 30.0907 39.6437 30.3954 38.8309 31.1367C38.0552 31.8442 37.8564 32.3286 37.8637 33.4932C37.8697 34.4366 38.1424 36.0378 38.4005 36.6454C38.5388 36.971 38.7982 37.217 39.6528 37.8329C39.9445 38.0431 40.1503 38.2992 40.3448 38.694C40.6711 39.3566 40.9525 39.6712 41.4381 39.9165C41.8898 40.1447 42.5781 40.7673 42.7585 41.111C42.9222 41.4228 42.9352 41.9553 42.7941 42.5689C42.7383 42.8113 42.7173 43.1389 42.7474 43.2968C42.7774 43.4547 42.8097 44.0744 42.8191 44.6738C42.8389 45.9448 42.9455 46.1934 43.547 46.371C44.0383 46.516 44.663 46.3833 45.5936 45.936C47.5791 44.9818 49.1657 42.2382 48.9256 40.1739C48.8539 39.5568 49.0099 38.2686 49.2003 37.906C49.2781 37.7578 49.6104 37.3384 49.9388 36.974C50.6371 36.1993 50.9419 35.683 51.1372 34.9443C51.4389 33.8031 51.2776 32.9974 50.464 31.5844C49.9805 30.7445 49.9412 30.6333 49.9473 30.12C49.9588 29.1532 50.2147 28.8054 51.0019 28.6874C52.1074 28.5217 53.1104 28.0193 53.8917 27.2398C54.1871 26.9451 54.4426 26.7181 54.4596 26.7355C54.5513 26.8291 54.8813 29.1445 54.975 30.3511C55.3283 34.9008 54.0492 39.7918 51.451 43.8269C50.6404 45.0858 50.46 45.3204 49.3315 46.5819C47.4547 48.68 45.3261 50.326 42.7298 51.6867C42.3163 51.9035 41.941 52.081 41.896 52.081C41.851 52.081 41.5351 51.8128 41.1941 51.4851C40.7848 51.0917 40.3637 50.7922 39.9545 50.6035L39.3347 50.3178L36.9851 50.2481C34.5016 50.1744 34.3934 50.1883 34.3934 50.5812C34.3934 50.9784 34.5516 51.0097 36.9237 51.0809C38.9782 51.1427 39.2133 51.1662 39.5972 51.3494C40.0163 51.5491 40.9445 52.3036 40.9445 52.4443C40.9445 52.6105 38.3866 53.4175 36.8847 53.7253C35.8638 53.9346 33.9161 54.1715 33.2175 54.1715H32.7326L32.7217 41.2646C32.7158 34.1658 32.7109 27.7646 32.7109 27.0397C32.7109 26.3148 32.7158 22.0344 32.7217 17.5277L32.7326 9.33352L33.6783 9.39451C34.1984 9.42805 35.06 9.51721 35.5929 9.59265ZM45.2436 13.3467C47.6315 14.9989 49.5843 16.9708 51.2145 19.3755C52.3508 21.0515 53.2001 22.7567 53.8752 24.717L54.1396 25.4848L53.8394 25.9772C53.2626 26.9235 52.1987 27.6094 50.9407 27.8463C50.5938 27.9116 50.1748 28.0341 50.0096 28.1184C49.6139 28.3206 49.281 28.8323 49.1488 29.442C48.9648 30.2903 49.0729 30.747 49.7712 32.074C50.3962 33.2617 50.4021 33.2795 50.398 33.9841C50.3944 34.5976 50.3533 34.7751 50.0989 35.2759C49.9367 35.5952 49.5365 36.1567 49.2095 36.5238C48.2427 37.6095 48.0521 38.216 48.0489 40.2193C48.0479 40.84 47.9937 41.5058 47.9231 41.7645C47.4815 43.3841 46.0815 44.9712 44.6733 45.4484C43.6908 45.7815 43.5538 45.6778 43.6619 44.683C43.6954 44.3751 43.6815 43.9418 43.6309 43.7202C43.563 43.4226 43.5747 43.1152 43.6756 42.5454C43.8279 41.6851 43.7561 41.0921 43.4389 40.5896C43.1836 40.1853 42.547 39.6101 41.9362 39.2319C41.4932 38.9577 41.3595 38.8099 41.128 38.3393C40.7949 37.6617 40.6017 37.4467 39.9063 36.979C39.6144 36.7826 39.3161 36.5315 39.2434 36.421C39.0721 36.1605 38.7158 34.3126 38.6984 33.5953C38.6779 32.744 38.7883 32.3894 39.216 31.9322C39.8905 31.2114 40.5349 30.9942 42.1458 30.945C43.613 30.9001 44.4655 30.5896 45.3585 29.7748C46.3243 28.8937 46.3107 27.4112 45.3316 26.815C45.1613 26.7114 44.4472 26.4827 43.7445 26.3067C42.307 25.9468 41.3693 25.5495 40.6673 25.0029C39.9941 24.4786 39.4815 24.3562 38.0693 24.3823C36.9507 24.4029 36.8911 24.3946 36.6662 24.1871C36.3105 23.8591 36.2043 23.1803 36.2804 21.7228C36.401 19.4151 36.5068 19.2259 38.1071 18.4567C39.8589 17.6148 41.2059 16.4533 42.3312 14.8145C42.8648 14.0375 43.5692 13.3582 44.12 13.0897C44.3273 12.9886 44.5215 12.9058 44.5516 12.9058C44.5817 12.9057 44.8931 13.1042 45.2436 13.3467ZM24.3683 13.7092C17.8806 16.4732 13.433 22.2915 12.4757 29.2666C12.2437 30.9565 12.3014 31.3572 12.7767 31.3572C13.0668 31.3572 13.1363 31.1486 13.2606 29.9029C13.9602 22.8945 18.6827 16.7619 25.3379 14.2194C26.058 13.9443 26.1433 13.8578 26.0512 13.4964C25.9633 13.1512 25.5574 13.2025 24.3683 13.7092ZM21.7506 21.7905C20.3987 23.1581 19.8072 24.1405 20.2376 24.3032C20.5845 24.4343 20.732 24.3314 21.3638 23.5176C21.7228 23.0551 22.2685 22.4327 22.5766 22.1343C22.8846 21.836 23.1366 21.5218 23.1366 21.4364C23.1366 21.2376 22.8921 20.9953 22.6917 20.9952C22.6065 20.9952 22.183 21.3531 21.7506 21.7905ZM19.0941 25.699C18.8973 25.8658 18.3625 27.2003 18.1195 28.1304C17.6489 29.9321 17.5497 32.4522 17.8786 34.2514C18.3315 36.729 19.371 38.9638 20.9717 40.901C21.6999 41.7822 22.9011 42.9007 23.1194 42.9007C23.3303 42.9007 23.5979 42.6763 23.5979 42.4993C23.5979 42.4356 23.1308 41.917 22.5599 41.3469C20.9622 39.7514 19.8973 38.0651 19.2108 36.0441C18.7524 34.6948 18.6048 33.8518 18.5494 32.2647C18.4781 30.2266 18.7589 28.5331 19.4506 26.8316C19.7686 26.0493 19.7909 25.7641 19.5441 25.634C19.3134 25.5124 19.3144 25.5122 19.0941 25.699ZM31.825 31.7737C31.8079 34.9691 31.7811 37.5962 31.7654 37.6118C31.6992 37.6776 30.1159 37.2524 29.7563 37.0723C28.1156 36.2503 26.9275 34.8198 26.5151 33.1692C26.3346 32.4469 26.3263 31.1388 26.4977 30.4323C26.9343 28.6337 28.1984 27.1502 29.944 26.3878C30.4423 26.1703 31.5624 25.8964 31.7637 25.9428C31.8244 25.9569 31.8454 27.9503 31.825 31.7737ZM12.5238 33.3135C12.2807 33.6021 12.7158 36.3662 13.0412 36.6007C13.2631 36.7605 13.3232 36.7523 13.5477 36.5311C13.6639 36.4166 13.7163 36.2833 13.6809 36.1923C13.5932 35.9671 13.2637 34.0129 13.2637 33.7179C13.2637 33.2619 12.7868 33.0014 12.5238 33.3135ZM13.6607 38.4154C13.4686 38.9087 14.8052 41.5608 16.1756 43.4051C18.2785 46.2354 21.3884 48.6275 24.6949 49.9582C25.7081 50.3661 26.0656 50.4317 26.2553 50.2449C26.5716 49.9332 26.3186 49.6721 25.351 49.3116C20.5555 47.5247 16.6151 43.7073 14.5349 38.8332C14.3115 38.3095 14.2701 38.2651 14.0059 38.2651C13.8244 38.2651 13.6978 38.3203 13.6607 38.4154Z" fill="#16246B" stroke="#16246B" stroke-width="0.5"/>
</svg>
