<svg width="79" height="79" viewBox="0 0 79 79" fill="none" xmlns="http://www.w3.org/2000/svg">
<path d="M42.0037 32.8239H54.5213C57.2826 32.8239 59.5283 30.5783 59.5283 27.8169C59.5283 25.2199 57.5405 23.0777 55.007 22.8332C54.437 21.5013 53.2144 20.5583 51.7832 20.3497C51.0722 17.8704 48.8124 16.1338 46.1762 16.1338C43.1561 16.1338 40.6643 18.437 40.3647 21.3795C37.8929 22.0947 36.1621 24.352 36.1621 26.9824C36.1621 30.2036 38.7825 32.8239 42.0037 32.8239ZM41.3102 22.8733C41.7124 22.8057 42.0037 22.3834 42.0037 21.9753C42.0037 19.6746 43.8755 17.8028 46.1762 17.8028C48.2216 17.8028 49.9498 19.2674 50.2861 21.2852C50.3537 21.6883 50.7017 21.9828 51.109 21.9828C51.1373 21.9837 51.1782 21.9803 51.2191 21.9762C52.3432 21.992 53.3179 22.7631 53.5983 23.8622C53.6926 24.2327 54.0264 24.4905 54.4069 24.4905C54.4361 24.4922 54.4996 24.4855 54.5538 24.4789C56.3797 24.4964 57.8593 25.9876 57.8593 27.8169C57.8593 29.6578 56.3622 31.1549 54.5213 31.1549H42.0037C39.7029 31.1549 37.8311 29.2831 37.8311 26.9824C37.8311 24.9387 39.294 23.2104 41.3102 22.8733Z" fill="#16246B"/>
<path d="M22.8102 35.1288H23.6447C23.6447 33.8142 24.7679 32.7444 26.1482 32.7444V31.1549C24.4208 31.1549 22.9362 32.1603 22.3028 33.5885C20.7039 33.8229 19.4722 35.1311 19.4722 36.7183H21.1412C21.1412 35.8417 21.8897 35.1288 22.8102 35.1288Z" fill="#16246B"/>
<path d="M47.1777 26.7042H48.958C48.958 24.5569 46.9614 22.8099 44.5073 22.8099V24.3676C45.9796 24.3676 47.1777 25.416 47.1777 26.7042Z" fill="#16246B"/>
<path d="M31.1549 17.8028H29.4858V19.4718H31.1549V17.8028Z" fill="#16246B"/>
<path d="M34.4932 17.8028H32.8242V19.4718H34.4932V17.8028Z" fill="#16246B"/>
<path d="M24.4791 12.7958H22.8101V14.4648H24.4791V12.7958Z" fill="#16246B"/>
<path d="M27.817 12.7958H26.1479V14.4648H27.817V12.7958Z" fill="#16246B"/>
<path d="M31.1549 12.7958H29.4858V14.4648H31.1549V12.7958Z" fill="#16246B"/>
<path d="M16.1339 21.1409H14.4648V22.8099H16.1339V21.1409Z" fill="#16246B"/>
<path d="M57.0247 19.4718C57.236 19.4718 57.4473 19.3907 57.6083 19.2294L60.0846 16.7473L58.9174 15.5775L57.0247 17.4746L55.132 15.5775L53.9648 16.7473L56.4411 19.2294C56.6021 19.3907 56.8134 19.4718 57.0247 19.4718Z" fill="#16246B"/>
<path d="M62.2297 24.7928C62.4053 24.9542 62.6358 25.0352 62.8663 25.0352C63.0969 25.0352 63.3274 24.9542 63.503 24.7928L66.2044 22.3108L64.9311 21.1409L62.8663 23.038L60.8016 21.1409L59.5283 22.3108L62.2297 24.7928Z" fill="#16246B"/>
<path d="M14.4649 16.1338H12.7959V17.8028H14.4649V16.1338Z" fill="#16246B"/>
<path d="M17.8028 16.1338H16.1338V17.8028H17.8028V16.1338Z" fill="#16246B"/>
<path d="M21.1412 16.1338H19.4722V17.8028H21.1412V16.1338Z" fill="#16246B"/>
<path d="M66.2043 42.838V41.169C64.3242 41.169 62.7528 40.922 61.2574 40.3913C59.9639 39.9323 58.627 39.7053 57.3602 39.5334C56.8095 38.154 55.8239 36.9965 54.5212 36.9965C53.2361 36.9965 52.2606 38.1222 51.7048 39.4766C49.8163 39.3156 47.801 39.4249 45.3901 39.843C43.3564 40.1943 41.3327 40.9262 39.3766 42.0169C38.5162 42.4967 37.6876 43.0342 36.8856 43.5549C35.8375 44.2358 34.8477 44.8767 33.7821 45.4083C32.3467 46.1243 30.9856 46.489 29.7372 46.5024C28.538 46.5274 27.3656 46.0601 26.1488 45.5844V42.828C26.4626 42.591 26.7472 42.3165 26.9834 42.0019C27.7444 43.015 28.957 43.6726 30.3205 43.6726C32.6213 43.6726 34.4931 41.8008 34.4931 39.5C34.4931 38.3217 34.0057 37.2318 33.1562 36.4524C33.4842 35.8482 33.6586 35.1748 33.6586 34.493C33.6586 32.4776 31.9896 30.7919 30.3205 30.4039C30.3205 30.3764 30.3205 30.348 30.3205 30.3204C30.3205 28.6356 29.3066 27.1418 27.7887 26.4951C27.5466 24.423 25.7808 22.8099 23.6445 22.8099C21.5082 22.8099 19.7423 24.423 19.5003 26.4951C17.9824 27.1418 16.9684 28.6356 16.9684 30.3204C16.9684 30.348 16.9684 30.3764 16.9684 30.4039C15.2994 30.7911 13.6296 32.4776 13.6296 34.493C13.6296 35.1748 13.8048 35.8482 14.1319 36.4524C13.2841 37.2318 12.7959 38.3217 12.7959 39.5C12.7959 41.8008 14.6677 43.6726 16.9684 43.6726C18.332 43.6726 19.5446 43.015 20.3065 42.001C20.5426 42.3156 20.8264 42.591 21.141 42.8272V44.1574C19.8183 43.907 18.5181 44.1349 17.5676 44.4194C16.87 44.6281 16.2124 44.9502 15.5756 45.2615C14.6143 45.7321 13.7063 46.1761 12.7959 46.1761V47.8451C14.0927 47.8451 15.2193 47.2935 16.3092 46.7611C16.9117 46.4665 17.4808 46.1878 18.0458 46.0184C18.8803 45.7688 20.0444 45.5669 21.141 45.8681V50.6474C21.0784 50.6557 21.0175 50.6582 20.954 50.6666C19.8708 50.8134 18.7843 51.0529 17.7337 51.2849C16.0288 51.6621 14.4182 52.0176 12.7959 52.0176V53.6866C14.6001 53.6866 16.3768 53.2944 18.0942 52.9147C19.1582 52.6794 20.1629 52.4574 21.1777 52.3205C24.6058 51.8549 27.5859 52.2905 30.2888 53.6499C31.9387 54.4794 33.5334 55.6135 35.0747 56.7101C37.0116 58.0878 38.9994 59.4998 41.2267 60.4336C37.403 61.8247 33.2639 62.4314 29.2374 63.0131L28.6941 63.0915C23.9157 63.7842 19.1657 64.4159 13.6304 64.5352H12.7959V66.2042H13.6479C19.2959 66.0824 24.1018 65.4432 28.9344 64.743L29.4769 64.6646C31.0883 64.4317 32.7164 64.1914 34.3412 63.9043C36.0027 65.2713 38.3101 66.044 40.7185 66.044C41.22 66.044 41.7266 66.0106 42.2306 65.943C44.3486 65.6576 46.3439 64.7522 48.2741 63.8768C51.0439 62.6209 53.66 61.4342 56.4932 62.0259C57.9536 62.3313 59.3055 63.1691 60.6131 63.9794L60.9111 64.1639C61.35 64.4351 61.698 64.6279 62.0402 64.7889C63.2585 65.3614 64.4744 65.3973 65.3698 65.3706H66.2043V63.7016H65.3423C64.2349 63.7016 63.4597 63.6106 62.7495 63.2776C62.4674 63.1449 62.1712 62.9805 61.7881 62.7444L61.4927 62.5616C60.0624 61.6754 58.5836 60.7574 56.8345 60.3919C53.4631 59.6876 50.4756 61.0453 47.584 62.3572C45.6805 63.2209 43.8821 64.037 42.0078 64.289C40.1477 64.5411 38.2358 64.2114 36.702 63.447C39.1688 62.9138 41.5997 62.2061 43.9155 61.1446C44.8602 60.7115 45.7564 60.1991 46.6235 59.7034C47.5389 59.1802 48.4035 58.6862 49.3281 58.2714C51.5112 57.2934 53.5107 56.6717 55.4409 56.3721C57.3052 56.0817 59.0827 56.1151 60.7258 56.4722C61.3525 56.6082 61.8507 56.8452 62.3773 57.0973C63.2268 57.502 64.1031 57.9218 65.3698 57.8592H66.2043V56.1902H65.3306C64.446 56.1902 63.8502 55.9498 63.0991 55.591C62.5359 55.3223 61.8983 55.0185 61.0821 54.8416C59.2387 54.4419 57.2551 54.4018 55.1864 54.7231C53.1076 55.0469 50.9688 55.7095 48.6488 56.7484C47.6491 57.1966 46.7078 57.734 45.7973 58.2547C45.0354 58.6903 44.306 59.0959 43.5517 59.4614C41.4095 58.8931 39.5135 57.759 37.6133 56.4505C37.6292 56.4505 37.6442 56.4522 37.66 56.4522C42.2023 56.4522 47.211 55.0335 50.9446 52.5742L51.0706 52.4908C55.7822 49.3864 60.6549 46.1761 66.2043 46.1761V44.5071C62.2897 44.5071 58.6846 45.9758 55.3558 47.8476V45.2606C56.9363 44.9635 57.8593 43.7969 57.8593 42.0035C57.8593 41.7724 57.8409 41.5295 57.8109 41.2834C58.7781 41.4327 59.7661 41.633 60.6999 41.9643C62.379 42.5602 64.1281 42.838 66.2043 42.838ZM20.3065 38.6655C19.8458 38.6655 19.472 39.0394 19.472 39.5C19.472 40.8803 18.3487 42.0035 16.9684 42.0035C15.5882 42.0035 14.4649 40.8803 14.4649 39.5C14.4649 38.6188 14.9247 37.8176 15.6958 37.3587C15.9061 37.2335 16.0513 37.0207 16.0914 36.7787C16.1314 36.5367 16.063 36.2888 15.9044 36.1019C15.6282 35.7773 15.2994 35.2332 15.2994 34.493C15.2994 33.1127 16.4227 31.9895 17.7512 31.9878C17.7796 31.992 17.863 32.0003 17.8914 32.0011C18.1551 32.012 18.4096 31.896 18.5749 31.6899C18.7409 31.4837 18.7985 31.2109 18.7309 30.9547C18.6675 30.711 18.6374 30.509 18.6374 30.3204C18.6374 29.1822 19.4135 28.1891 20.5243 27.9054C20.904 27.8086 21.1643 27.4614 21.1518 27.07C21.1501 27.0208 21.1485 26.9766 21.141 26.9824C21.141 25.6021 22.2642 24.4789 23.6445 24.4789C25.0248 24.4789 26.148 25.6021 26.1505 26.9248C26.1463 26.9557 26.1372 27.04 26.1363 27.07C26.1238 27.4614 26.385 27.8086 26.7639 27.9054C27.8754 28.1891 28.6515 29.1822 28.6515 30.3204C28.6515 30.509 28.6215 30.711 28.5572 30.9538C28.4896 31.21 28.5472 31.4829 28.7133 31.689C28.8785 31.8952 29.1305 32.0112 29.3967 32.0003C29.4451 31.9995 29.491 31.9936 29.486 31.9895C30.8663 31.9895 31.9896 33.1127 31.9896 34.493C31.9896 35.2332 31.6608 35.7773 31.3845 36.1019C31.226 36.2897 31.1576 36.5367 31.1976 36.7787C31.2377 37.0207 31.3829 37.2327 31.5932 37.3587C32.3643 37.8176 32.8241 38.6188 32.8241 39.5C32.8241 40.8803 31.7008 42.0035 30.3205 42.0035C28.9403 42.0035 27.817 40.8803 27.817 39.5C27.817 39.0394 27.4432 38.6655 26.9825 38.6655C26.5219 38.6655 26.148 39.0394 26.148 39.5C26.148 40.8803 25.0248 42.0035 23.6445 42.0035C22.2642 42.0035 21.141 40.8803 21.141 39.5C21.141 39.0394 20.7671 38.6655 20.3065 38.6655ZM22.81 50.508V43.5824C23.0804 43.6375 23.3583 43.6726 23.6445 43.6726C23.9307 43.6726 24.2086 43.6375 24.479 43.5824V50.5055C23.9316 50.4821 23.3749 50.4821 22.81 50.508ZM47.0107 49.5141C45.8566 49.5141 45.3417 48.9992 45.3417 47.8451C45.3417 46.2337 46.3214 44.5071 47.0107 44.5071C47.7 44.5071 48.6797 46.2337 48.6797 47.8451C48.6797 48.9992 48.1648 49.5141 47.0107 49.5141ZM50.1518 51.0972L50.0258 51.1806C49.3423 51.6312 48.6088 52.0393 47.846 52.4115V51.1013C49.4266 50.8042 50.3495 49.6376 50.3495 47.8443C50.3495 45.7538 49.0794 42.8372 47.0115 42.8372C44.9436 42.8372 43.6735 45.7538 43.6735 47.8443C43.6735 49.6376 44.5965 50.8034 46.177 51.1013V53.1434C42.5561 54.5587 38.4428 55.1178 34.9546 54.5787C33.7003 53.7008 32.406 52.8429 31.0399 52.157C29.5169 51.3917 27.8813 50.891 26.1488 50.6482V47.2042C27.2546 47.5864 28.4045 47.8451 29.6838 47.8451C29.7072 47.8451 29.7305 47.8451 29.7539 47.8451C31.2569 47.8451 32.8625 47.568 34.5256 46.7385C35.6756 46.1644 36.7521 45.6328 37.7936 44.956C38.5722 44.4503 39.3766 43.9279 40.1878 43.4756C41.9794 42.4767 43.8254 41.8074 45.6738 41.4878C47.8085 41.119 49.596 41.008 51.2533 41.119C51.2083 41.4227 51.1832 41.7206 51.1832 42.0035C51.1832 43.7969 52.1062 44.9627 53.6867 45.2606V48.8265C52.47 49.57 51.2925 50.3453 50.1518 51.0972ZM54.5212 43.6726C53.3671 43.6726 52.8522 43.1577 52.8522 42.0035C52.8522 40.3921 53.8319 38.6655 54.5212 38.6655C55.2106 38.6655 56.1903 40.3921 56.1903 42.0035C56.1903 43.1577 55.6754 43.6726 54.5212 43.6726Z" fill="#16246B"/>
<path d="M16.1339 60.0845H14.4648V61.7535H16.1339V60.0845Z" fill="#16246B"/>
<path d="M19.4717 60.0845H17.8027V61.7535H19.4717V60.0845Z" fill="#16246B"/>
<path d="M20.0284 60.0845H18.3594V61.7535H20.0284V60.0845Z" fill="#16246B"/>
</svg>
