<svg width="96" height="96" viewBox="0 0 96 96" fill="none" xmlns="http://www.w3.org/2000/svg">
<path fill-rule="evenodd" clip-rule="evenodd" d="M32 68H20L28 52H16V28H40V52L32 68ZM72 68H60L68 52H56V28H80V52L72 68Z" fill="#16246B"/>
<path d="M20 68L18.2111 67.1056L16.7639 70H20V68ZM32 68V70H33.2361L33.7889 68.8944L32 68ZM28 52L29.7889 52.8944L31.2361 50H28V52ZM16 52H14V54H16V52ZM16 28V26H14V28H16ZM40 28H42V26H40V28ZM40 52L41.7889 52.8944L42 52.4721V52H40ZM60 68L58.2111 67.1056L56.7639 70H60V68ZM72 68V70H73.2361L73.7889 68.8944L72 68ZM68 52L69.7889 52.8944L71.2361 50H68V52ZM56 52H54V54H56V52ZM56 28V26H54V28H56ZM80 28H82V26H80V28ZM80 52L81.7889 52.8944L82 52.4721V52H80ZM20 70H32V66H20V70ZM26.2111 51.1056L18.2111 67.1056L21.7889 68.8944L29.7889 52.8944L26.2111 51.1056ZM16 54H28V50H16V54ZM14 28V52H18V28H14ZM40 26H16V30H40V26ZM42 52V28H38V52H42ZM33.7889 68.8944L41.7889 52.8944L38.2111 51.1056L30.2111 67.1056L33.7889 68.8944ZM60 70H72V66H60V70ZM66.2111 51.1056L58.2111 67.1056L61.7889 68.8944L69.7889 52.8944L66.2111 51.1056ZM56 54H68V50H56V54ZM54 28V52H58V28H54ZM80 26H56V30H80V26ZM82 52V28H78V52H82ZM73.7889 68.8944L81.7889 52.8944L78.2111 51.1056L70.2111 67.1056L73.7889 68.8944Z" fill="#16246B"/>
</svg>
