<svg width="80" height="80" viewBox="0 0 80 80" fill="none" xmlns="http://www.w3.org/2000/svg">
<path d="M40.0002 3.33337C25.2573 3.33337 13.3335 14.2884 13.3335 27.8334C13.3335 46.2084 40.0002 73.3334 40.0002 73.3334C40.0002 73.3334 66.6668 46.2084 66.6668 27.8334C66.6668 14.2884 54.743 3.33337 40.0002 3.33337Z" fill="white"/>
<path d="M46.9726 21.2555H38.2821L47.9994 36.4886H42.5898L39.8849 40.7276L41.1121 42.6544H38.6577L36.0781 46.6667H44.7687L53.9601 32.2496L46.9726 21.2555Z" fill="#D20000"/>
<path d="M37.2359 27.1896H32.2146L39.9643 40.7358L41.2483 42.9281H33.1547L26.666 31.5511L35.1953 16.6665H43.266L40.8814 20.8204H38.5886L39.735 22.8281L37.2359 27.1896Z" fill="#16246B"/>
</svg>
