<svg width="48" height="48" viewBox="0 0 48 48" fill="none" xmlns="http://www.w3.org/2000/svg">
<path d="M24.001 1.99994C15.1553 1.99994 8.00098 8.57294 8.00098 16.6999C8.00098 27.7249 24.001 43.9999 24.001 43.9999C24.001 43.9999 40.001 27.7249 40.001 16.6999C40.001 8.57294 32.8467 1.99994 24.001 1.99994Z" fill="white"/>
<path d="M28.1822 12.7533H22.9679L28.7983 21.8932H25.5525L23.9296 24.4366L24.6659 25.5926H23.1933L21.6455 28H26.8598L32.3747 19.3498L28.1822 12.7533Z" fill="#D20000"/>
<path d="M22.3429 16.3139H19.3301L23.98 24.4416L24.7503 25.757H19.8942L16.001 18.9308L21.1185 10H25.9609L24.5302 12.4923H23.1545L23.8424 13.6969L22.3429 16.3139Z" fill="#16246B"/>
</svg>
