<svg width="24" height="24" viewBox="0 0 24 24" fill="none" xmlns="http://www.w3.org/2000/svg">
<path fill-rule="evenodd" clip-rule="evenodd" d="M15.7761 7L15.7498 0.517648C15.7491 0.231531 15.5119 0 15.2196 0H0.530195C0.237222 0 0 0.23263 0 0.519114V20.041C0 21.6661 1.35 22.9879 3.0098 22.9883L16.9895 23C18.6496 23 19.9996 21.6779 19.9996 20.0406C19.9996 19.7538 19.7624 19.5215 19.4694 19.5215H5.48979C5.19681 19.5215 4.95959 19.7542 4.95959 20.0406C4.95959 21.0932 4.08516 21.9493 3.01018 21.9493C1.93519 21.9493 1.06039 21.0932 1.06039 20.0406V1.03859H14.6913L14.7157 7H15.7761ZM18.8693 20.5605H5.97321C5.8778 21.0851 5.6402 21.5621 5.30046 21.9519L16.9902 21.9618C17.8852 21.9618 18.6422 21.3676 18.8693 20.5605Z" fill="#444444"/>
<rect x="2" y="5" width="22" height="12" rx="2" fill="#FE2E2E"/>
<path d="M4.50568 14H5.7358V12.1136H6.76989C8.10795 12.1136 8.88636 11.3153 8.88636 10.1534C8.88636 8.99716 8.12216 8.18182 6.80114 8.18182H4.50568V14ZM5.7358 11.1278V9.1875H6.56534C7.27557 9.1875 7.61932 9.57386 7.61932 10.1534C7.61932 10.7301 7.27557 11.1278 6.57102 11.1278H5.7358ZM12.7479 14C14.5206 14 15.5945 12.9034 15.5945 11.0852C15.5945 9.27273 14.5206 8.18182 12.7649 8.18182H10.6854V14H12.7479ZM11.9155 12.946V9.2358H12.6996C13.7905 9.2358 14.3672 9.79261 14.3672 11.0852C14.3672 12.3835 13.7905 12.946 12.6967 12.946H11.9155ZM17.5057 14H18.7358V11.5966H21.1023V10.5824H18.7358V9.19602H21.358V8.18182H17.5057V14Z" fill="white"/>
</svg>
