<svg width="88" height="88" viewBox="0 0 88 88" fill="none" xmlns="http://www.w3.org/2000/svg">
<path d="M31.6875 14.4375H68.0625L67.9375 14.5312C65.4194 16.4198 63.9375 19.3837 63.9375 22.5312V67.25C63.9375 71.116 60.8035 74.25 56.9375 74.25H22.6875V63.25V23.4375C22.6875 18.4669 26.7169 14.4375 31.6875 14.4375Z" stroke="#16246B" stroke-width="1.5" stroke-linejoin="round"/>
<path fill-rule="evenodd" clip-rule="evenodd" d="M55 64.625H14.4375V65.25C14.4375 70.2206 18.4669 74.25 23.4375 74.25H59.125V74.237C56.8176 74.0614 55 72.1336 55 69.7812V64.625Z" fill="#E6E6E6"/>
<path d="M14.4375 64.625V63.875C14.0233 63.875 13.6875 64.2108 13.6875 64.625H14.4375ZM55 64.625H55.75C55.75 64.2108 55.4142 63.875 55 63.875V64.625ZM59.125 74.25V75C59.5392 75 59.875 74.6642 59.875 74.25H59.125ZM59.125 74.237H59.875C59.875 73.8448 59.5729 73.5189 59.1819 73.4891L59.125 74.237ZM14.4375 65.375H55V63.875H14.4375V65.375ZM15.1875 65.25V64.625H13.6875V65.25H15.1875ZM23.4375 73.5C18.8812 73.5 15.1875 69.8063 15.1875 65.25H13.6875C13.6875 70.6348 18.0527 75 23.4375 75V73.5ZM59.125 73.5H23.4375V75H59.125V73.5ZM58.375 74.237V74.25H59.875V74.237H58.375ZM59.1819 73.4891C57.2625 73.3431 55.75 71.7385 55.75 69.7812H54.25C54.25 72.5288 56.3727 74.7798 59.0681 74.9848L59.1819 73.4891ZM55.75 69.7812V64.625H54.25V69.7812H55.75Z" fill="#16246B"/>
<path d="M33 22H53.9688" stroke="#16246B" stroke-width="1.5" stroke-linecap="round" stroke-linejoin="round"/>
<path d="M33 28.1875H53.9688" stroke="#16246B" stroke-width="1.5" stroke-linecap="round" stroke-linejoin="round"/>
<path d="M33 34.375H53.9688" stroke="#16246B" stroke-width="1.5" stroke-linecap="round" stroke-linejoin="round"/>
<path d="M33 40.5625H53.9688" stroke="#16246B" stroke-width="1.5" stroke-linecap="round" stroke-linejoin="round"/>
<path d="M33 46.75H44" stroke="#16246B" stroke-width="1.5" stroke-linecap="round" stroke-linejoin="round"/>
<path d="M63.9375 18.9062C63.9375 16.4382 65.9382 14.4375 68.4062 14.4375C70.8743 14.4375 72.875 16.4382 72.875 18.9062V28.875H63.9375V18.9062Z" fill="#E6E6E6" stroke="#16246B" stroke-width="1.5" stroke-linejoin="round"/>
</svg>
