<svg width="128" height="128" viewBox="0 0 128 128" fill="none" xmlns="http://www.w3.org/2000/svg">
<mask id="path-1-inside-1_2305_57992" fill="white">
<path fill-rule="evenodd" clip-rule="evenodd" d="M108.406 41.375H96.1558V39.7159C96.1537 39.6448 96.1462 39.5744 96.1346 39.5047C96.1331 39.4939 96.1324 39.4829 96.1317 39.4719C96.1307 39.4573 96.1298 39.4426 96.127 39.4282C96.1045 39.3126 96.0689 39.1998 96.0204 39.0925C96.0177 39.0864 96.0177 39.0802 96.0149 39.0747L91.5621 29.4265V27.5938C91.5607 26.3756 91.0761 25.208 90.2154 24.3467C89.3541 23.486 88.1865 23.0014 86.9683 23H41.0312C39.813 23.0014 38.6454 23.486 37.7841 24.3467C36.9234 25.208 36.4388 26.3756 36.4374 27.5938V41.3749H19.5938C18.3756 41.3763 17.208 41.8609 16.3467 42.7216C15.486 43.5829 15.0014 44.7505 15 45.9687V94.9683C15.0014 96.1865 15.486 97.3541 16.3467 98.2154C17.208 99.0761 18.3756 99.5607 19.5938 99.5621H62.4685V102.625H50.2185C49.373 102.625 48.6873 103.31 48.6873 104.156C48.6873 105.001 49.373 105.687 50.2185 105.687H77.7808C78.6264 105.687 79.3121 105.001 79.3121 104.156C79.3121 103.31 78.6264 102.625 77.7808 102.625H65.5309V99.5621H108.406C109.624 99.5607 110.791 99.0761 111.653 98.2154C112.513 97.3541 112.998 96.1865 112.999 94.9683V45.9687C112.998 44.7505 112.513 43.5829 111.653 42.7216C110.791 41.8609 109.624 41.3763 108.406 41.3749L108.406 41.375ZM86.9683 72.6368V41.2455H93.0933V72.6368H86.9683ZM93.0933 75.6993V80.4207H86.9683V75.6993H93.0933ZM87.8304 38.183L90.0308 33.415L92.2313 38.183H87.8304ZM109.938 94.9666C109.937 95.8122 109.252 96.4972 108.406 96.4979H19.5946C18.749 96.4972 18.064 95.8122 18.0633 94.9666V93.4354H109.938V94.9666ZM109.938 90.3729H18.0633V45.967C18.064 45.1214 18.749 44.4364 19.5946 44.4357H36.4382V52.1289L36.51 52.1226L36.5101 52.1226C36.6858 52.1073 36.8617 52.0919 37.0397 52.0919H38.8984C39.0767 52.0919 39.2519 52.1072 39.4271 52.1225L39.4272 52.1225L39.5 52.1289L39.5006 27.5923C39.5013 26.7467 40.1863 26.0617 41.0319 26.0611H86.969C87.8146 26.0617 88.4996 26.7467 88.5003 27.5923V29.4251L84.0474 39.0733C84.0447 39.0794 84.0447 39.0856 84.042 39.091C83.9934 39.1984 83.9579 39.3111 83.9353 39.4267C83.9326 39.4411 83.9317 39.4558 83.9307 39.4704C83.93 39.4814 83.9293 39.4924 83.9278 39.5032C83.9162 39.573 83.9087 39.6434 83.9066 39.7145V80.4209C83.9073 81.233 84.2306 82.0116 84.8048 82.5851C85.3784 83.1593 86.157 83.4827 86.9691 83.4834H88.287C88.0156 83.9557 87.5139 84.2469 86.9691 84.249H52.0218L50.8447 85.4261H50.844C49.9054 86.3661 48.7186 87.0203 47.4226 87.3114H86.9688C88.0536 87.3093 89.1022 86.9245 89.9301 86.2238C90.7586 85.5231 91.3117 84.5524 91.4935 83.4833H93.0938C93.9059 83.4826 94.6845 83.1593 95.258 82.5851C95.8322 82.0116 96.1555 81.2329 96.1562 80.4209V44.4376H108.406C109.252 44.4383 109.937 45.1233 109.937 45.9689L109.938 90.3729ZM51.1047 79.7982C50.9645 80.611 50.5769 81.3609 49.9945 81.9447L48.6793 83.2599C48.0954 83.843 47.3455 84.2313 46.5321 84.3714C45.7187 84.5109 44.882 84.396 44.1362 84.0419C43.6563 84.273 43.1634 84.4767 42.661 84.6531C42.3841 85.4303 41.8742 86.103 41.2008 86.5788C40.5268 87.0545 39.7229 87.3109 38.8978 87.3116H37.0385C36.2134 87.3109 35.4095 87.0545 34.7355 86.5788C34.0622 86.103 33.5522 85.4303 33.2753 84.6531C32.7729 84.4767 32.28 84.273 31.8002 84.0419C31.0544 84.396 30.2177 84.5109 29.4042 84.3714C28.5907 84.2313 27.8408 83.843 27.257 83.2599L25.9418 81.9447C25.3594 81.3608 24.9718 80.6109 24.8316 79.7982C24.6922 78.9853 24.807 78.1486 25.1611 77.4035C24.9294 76.9229 24.725 76.4294 24.5486 75.9262C23.7714 75.6494 23.0987 75.1394 22.6229 74.4661C22.1472 73.7921 21.8908 72.9882 21.8901 72.1631V70.3037C21.8908 69.4787 22.1472 68.6748 22.6229 68.0008C23.0987 67.3274 23.7714 66.8175 24.5486 66.5406C24.725 66.0375 24.9294 65.5439 25.1611 65.0634C24.807 64.3182 24.6922 63.4815 24.8316 62.6687C24.9718 61.8558 25.3594 61.1059 25.9418 60.5221L27.257 59.2069C27.8409 58.6238 28.5908 58.2355 29.4042 58.0954C30.2176 57.956 31.0544 58.0708 31.8002 58.4249C32.28 58.1938 32.7729 57.9901 33.2753 57.8138C33.5522 57.0365 34.0622 56.3639 34.7355 55.8881C35.4095 55.4123 36.2134 55.156 37.0385 55.1553H38.8978C39.7229 55.156 40.5268 55.4123 41.2008 55.8881C41.8742 56.3639 42.3841 57.0365 42.661 57.8138C43.1634 57.9901 43.6563 58.1938 44.1362 58.4249C44.8819 58.0708 45.7186 57.956 46.5321 58.0954C47.3456 58.2355 48.0955 58.6238 48.6793 59.2069L49.9945 60.5215C50.577 61.106 50.9646 61.8559 51.1047 62.6687C51.2441 63.4816 51.1293 64.3183 50.7752 65.0634C51.0069 65.5439 51.2113 66.0375 51.3877 66.5406C52.165 66.8175 52.8376 67.3274 53.3134 68.0008C53.7891 68.6748 54.0455 69.4787 54.0462 70.3038V72.1631C54.0455 72.9882 53.7892 73.7921 53.3134 74.4661C52.8376 75.1394 52.1649 75.6494 51.3877 75.9263C51.2113 76.4294 51.0069 76.9229 50.7752 77.4035C51.1293 78.1487 51.2441 78.9854 51.1047 79.7982ZM46.5144 81.0936L47.8289 79.7791C48.1919 79.4154 48.1919 78.8275 47.8289 78.4646L47.0592 77.6955C48.036 76.3256 48.6881 74.752 48.967 73.0929H50.0539C50.3007 73.0929 50.5372 72.9951 50.7115 72.8208C50.8859 72.6465 50.9836 72.41 50.9836 72.1632V70.3038C50.9836 70.0571 50.8859 69.8206 50.7115 69.6462C50.5372 69.4719 50.3007 69.3742 50.0539 69.3742H48.967C48.6882 67.715 48.036 66.1414 47.0592 64.7715L47.8289 64.0025C48.1919 63.6395 48.1919 63.0503 47.8289 62.6873L46.5144 61.3727C46.3401 61.1984 46.1035 61.1007 45.8568 61.1007C45.61 61.1007 45.3742 61.1984 45.1998 61.3727L44.4301 62.1424C43.0602 61.1657 41.4866 60.5135 39.8275 60.2346V59.1477C39.8275 58.6343 39.4112 58.218 38.8978 58.218H37.0384C36.5251 58.218 36.1088 58.6343 36.1088 59.1477V60.2346C34.4496 60.5135 32.876 61.1656 31.5061 62.1424L30.7371 61.3727C30.5628 61.1984 30.3262 61.1007 30.0795 61.1007C29.8327 61.1007 29.5962 61.1984 29.4219 61.3727L28.1073 62.6873C27.7444 63.0503 27.7444 63.6388 28.1073 64.0018L28.877 64.7715C27.9003 66.1414 27.2481 67.7151 26.9692 69.3742H25.8823C25.6355 69.3742 25.399 69.4719 25.2247 69.6462C25.0504 69.8206 24.9526 70.0571 24.9526 70.3038V72.1632C24.9526 72.41 25.0504 72.6465 25.2247 72.8208C25.399 72.9951 25.6355 73.0929 25.8823 73.0929H26.9692C27.2481 74.7521 27.9002 76.3256 28.877 77.6955L28.1073 78.4646C27.7444 78.8275 27.7444 79.4161 28.1073 79.7798L29.4219 81.0943C29.5962 81.2686 29.8327 81.3664 30.0795 81.3664C30.3262 81.3664 30.5621 81.2686 30.7364 81.0943L31.5061 80.3246C32.876 81.3014 34.4497 81.9535 36.1088 82.2324V83.3193C36.1088 83.8327 36.5251 84.249 37.0384 84.249H38.8978C39.4112 84.249 39.8275 83.8327 39.8275 83.3193V82.2324C41.4866 81.9536 43.0602 81.3014 44.4301 80.3246L45.1992 81.0943C45.3735 81.2686 45.61 81.3664 45.8568 81.3664C46.1035 81.3664 46.3401 81.268 46.5144 81.0936ZM33.096 66.3617C34.3888 65.0697 36.1415 64.3438 37.9687 64.3438C39.7952 64.3458 41.5473 65.0725 42.8386 66.3645C44.1306 67.6558 44.8572 69.4077 44.8593 71.2343C44.8593 73.0617 44.1333 74.8143 42.8414 76.107C41.5486 77.3989 39.796 78.1249 37.9687 78.1249C36.1414 78.1249 34.3887 77.399 33.096 76.107C31.8041 74.8143 31.0781 73.0617 31.0781 71.2343C31.0781 69.407 31.8041 67.6543 33.096 66.3617ZM35.2616 73.9413C35.9795 74.6591 36.9536 75.0624 37.9687 75.0624C38.9838 75.061 39.9566 74.6577 40.6744 73.9399C41.3921 73.2221 41.7955 72.2494 41.7968 71.2343C41.7968 70.2191 41.3936 69.245 40.6758 68.5272C39.9579 67.8095 38.9839 67.4062 37.9687 67.4062C36.9535 67.4062 35.9794 67.8094 35.2616 68.5272C34.5439 69.2451 34.1406 70.2191 34.1406 71.2343C34.1406 72.2495 34.5438 73.2236 35.2616 73.9413ZM76.2498 38.3125H51.75C50.9044 38.3125 50.2188 37.6268 50.2188 36.7812C50.2188 35.9356 50.9044 35.25 51.75 35.25H76.2498C77.0954 35.25 77.781 35.9356 77.781 36.7812C77.781 37.6268 77.0954 38.3125 76.2498 38.3125ZM68.5936 44.4374H51.75C50.9044 44.4374 50.2188 43.7518 50.2188 42.9062C50.2188 42.0606 50.9044 41.375 51.75 41.375H68.5936C69.4392 41.375 70.1249 42.0606 70.1249 42.9062C70.1249 43.7518 69.4392 44.4374 68.5936 44.4374ZM51.75 53.6249H76.2498C77.0954 53.6249 77.781 52.9392 77.781 52.0936C77.781 51.248 77.0954 50.5624 76.2498 50.5624H51.75C50.9044 50.5624 50.2188 51.248 50.2188 52.0936C50.2188 52.9392 50.9044 53.6249 51.75 53.6249ZM68.5953 56.6873C69.4409 56.6873 70.1265 57.373 70.1265 58.2186C70.1265 59.0642 69.4409 59.7498 68.5953 59.7498H53.2384C52.9404 59.2426 52.5788 58.7757 52.1638 58.3587L50.8466 57.0415C50.8418 57.0367 50.8367 57.0322 50.8315 57.0278C50.8264 57.0233 50.8213 57.0189 50.8165 57.0141C51.0831 56.8036 51.4119 56.6887 51.7517 56.6873H68.5953ZM76.2498 65.8748H55.5282C56.2473 66.7641 56.7402 67.8155 56.963 68.9373H76.2496C77.0952 68.9373 77.7809 68.2516 77.7809 67.406C77.7809 66.5604 77.0954 65.8748 76.2498 65.8748ZM57.108 71.9997H68.5923C69.4379 71.9997 70.1235 72.6853 70.1235 73.5309C70.1235 74.3765 69.4378 75.0621 68.5922 75.0621H56.4688C56.8865 74.1523 57.1046 73.1646 57.108 72.1638V71.9997Z"/>
</mask>
<path fill-rule="evenodd" clip-rule="evenodd" d="M108.406 41.375H96.1558V39.7159C96.1537 39.6448 96.1462 39.5744 96.1346 39.5047C96.1331 39.4939 96.1324 39.4829 96.1317 39.4719C96.1307 39.4573 96.1298 39.4426 96.127 39.4282C96.1045 39.3126 96.0689 39.1998 96.0204 39.0925C96.0177 39.0864 96.0177 39.0802 96.0149 39.0747L91.5621 29.4265V27.5938C91.5607 26.3756 91.0761 25.208 90.2154 24.3467C89.3541 23.486 88.1865 23.0014 86.9683 23H41.0312C39.813 23.0014 38.6454 23.486 37.7841 24.3467C36.9234 25.208 36.4388 26.3756 36.4374 27.5938V41.3749H19.5938C18.3756 41.3763 17.208 41.8609 16.3467 42.7216C15.486 43.5829 15.0014 44.7505 15 45.9687V94.9683C15.0014 96.1865 15.486 97.3541 16.3467 98.2154C17.208 99.0761 18.3756 99.5607 19.5938 99.5621H62.4685V102.625H50.2185C49.373 102.625 48.6873 103.31 48.6873 104.156C48.6873 105.001 49.373 105.687 50.2185 105.687H77.7808C78.6264 105.687 79.3121 105.001 79.3121 104.156C79.3121 103.31 78.6264 102.625 77.7808 102.625H65.5309V99.5621H108.406C109.624 99.5607 110.791 99.0761 111.653 98.2154C112.513 97.3541 112.998 96.1865 112.999 94.9683V45.9687C112.998 44.7505 112.513 43.5829 111.653 42.7216C110.791 41.8609 109.624 41.3763 108.406 41.3749L108.406 41.375ZM86.9683 72.6368V41.2455H93.0933V72.6368H86.9683ZM93.0933 75.6993V80.4207H86.9683V75.6993H93.0933ZM87.8304 38.183L90.0308 33.415L92.2313 38.183H87.8304ZM109.938 94.9666C109.937 95.8122 109.252 96.4972 108.406 96.4979H19.5946C18.749 96.4972 18.064 95.8122 18.0633 94.9666V93.4354H109.938V94.9666ZM109.938 90.3729H18.0633V45.967C18.064 45.1214 18.749 44.4364 19.5946 44.4357H36.4382V52.1289L36.51 52.1226L36.5101 52.1226C36.6858 52.1073 36.8617 52.0919 37.0397 52.0919H38.8984C39.0767 52.0919 39.2519 52.1072 39.4271 52.1225L39.4272 52.1225L39.5 52.1289L39.5006 27.5923C39.5013 26.7467 40.1863 26.0617 41.0319 26.0611H86.969C87.8146 26.0617 88.4996 26.7467 88.5003 27.5923V29.4251L84.0474 39.0733C84.0447 39.0794 84.0447 39.0856 84.042 39.091C83.9934 39.1984 83.9579 39.3111 83.9353 39.4267C83.9326 39.4411 83.9317 39.4558 83.9307 39.4704C83.93 39.4814 83.9293 39.4924 83.9278 39.5032C83.9162 39.573 83.9087 39.6434 83.9066 39.7145V80.4209C83.9073 81.233 84.2306 82.0116 84.8048 82.5851C85.3784 83.1593 86.157 83.4827 86.9691 83.4834H88.287C88.0156 83.9557 87.5139 84.2469 86.9691 84.249H52.0218L50.8447 85.4261H50.844C49.9054 86.3661 48.7186 87.0203 47.4226 87.3114H86.9688C88.0536 87.3093 89.1022 86.9245 89.9301 86.2238C90.7586 85.5231 91.3117 84.5524 91.4935 83.4833H93.0938C93.9059 83.4826 94.6845 83.1593 95.258 82.5851C95.8322 82.0116 96.1555 81.2329 96.1562 80.4209V44.4376H108.406C109.252 44.4383 109.937 45.1233 109.937 45.9689L109.938 90.3729ZM51.1047 79.7982C50.9645 80.611 50.5769 81.3609 49.9945 81.9447L48.6793 83.2599C48.0954 83.843 47.3455 84.2313 46.5321 84.3714C45.7187 84.5109 44.882 84.396 44.1362 84.0419C43.6563 84.273 43.1634 84.4767 42.661 84.6531C42.3841 85.4303 41.8742 86.103 41.2008 86.5788C40.5268 87.0545 39.7229 87.3109 38.8978 87.3116H37.0385C36.2134 87.3109 35.4095 87.0545 34.7355 86.5788C34.0622 86.103 33.5522 85.4303 33.2753 84.6531C32.7729 84.4767 32.28 84.273 31.8002 84.0419C31.0544 84.396 30.2177 84.5109 29.4042 84.3714C28.5907 84.2313 27.8408 83.843 27.257 83.2599L25.9418 81.9447C25.3594 81.3608 24.9718 80.6109 24.8316 79.7982C24.6922 78.9853 24.807 78.1486 25.1611 77.4035C24.9294 76.9229 24.725 76.4294 24.5486 75.9262C23.7714 75.6494 23.0987 75.1394 22.6229 74.4661C22.1472 73.7921 21.8908 72.9882 21.8901 72.1631V70.3037C21.8908 69.4787 22.1472 68.6748 22.6229 68.0008C23.0987 67.3274 23.7714 66.8175 24.5486 66.5406C24.725 66.0375 24.9294 65.5439 25.1611 65.0634C24.807 64.3182 24.6922 63.4815 24.8316 62.6687C24.9718 61.8558 25.3594 61.1059 25.9418 60.5221L27.257 59.2069C27.8409 58.6238 28.5908 58.2355 29.4042 58.0954C30.2176 57.956 31.0544 58.0708 31.8002 58.4249C32.28 58.1938 32.7729 57.9901 33.2753 57.8138C33.5522 57.0365 34.0622 56.3639 34.7355 55.8881C35.4095 55.4123 36.2134 55.156 37.0385 55.1553H38.8978C39.7229 55.156 40.5268 55.4123 41.2008 55.8881C41.8742 56.3639 42.3841 57.0365 42.661 57.8138C43.1634 57.9901 43.6563 58.1938 44.1362 58.4249C44.8819 58.0708 45.7186 57.956 46.5321 58.0954C47.3456 58.2355 48.0955 58.6238 48.6793 59.2069L49.9945 60.5215C50.577 61.106 50.9646 61.8559 51.1047 62.6687C51.2441 63.4816 51.1293 64.3183 50.7752 65.0634C51.0069 65.5439 51.2113 66.0375 51.3877 66.5406C52.165 66.8175 52.8376 67.3274 53.3134 68.0008C53.7891 68.6748 54.0455 69.4787 54.0462 70.3038V72.1631C54.0455 72.9882 53.7892 73.7921 53.3134 74.4661C52.8376 75.1394 52.1649 75.6494 51.3877 75.9263C51.2113 76.4294 51.0069 76.9229 50.7752 77.4035C51.1293 78.1487 51.2441 78.9854 51.1047 79.7982ZM46.5144 81.0936L47.8289 79.7791C48.1919 79.4154 48.1919 78.8275 47.8289 78.4646L47.0592 77.6955C48.036 76.3256 48.6881 74.752 48.967 73.0929H50.0539C50.3007 73.0929 50.5372 72.9951 50.7115 72.8208C50.8859 72.6465 50.9836 72.41 50.9836 72.1632V70.3038C50.9836 70.0571 50.8859 69.8206 50.7115 69.6462C50.5372 69.4719 50.3007 69.3742 50.0539 69.3742H48.967C48.6882 67.715 48.036 66.1414 47.0592 64.7715L47.8289 64.0025C48.1919 63.6395 48.1919 63.0503 47.8289 62.6873L46.5144 61.3727C46.3401 61.1984 46.1035 61.1007 45.8568 61.1007C45.61 61.1007 45.3742 61.1984 45.1998 61.3727L44.4301 62.1424C43.0602 61.1657 41.4866 60.5135 39.8275 60.2346V59.1477C39.8275 58.6343 39.4112 58.218 38.8978 58.218H37.0384C36.5251 58.218 36.1088 58.6343 36.1088 59.1477V60.2346C34.4496 60.5135 32.876 61.1656 31.5061 62.1424L30.7371 61.3727C30.5628 61.1984 30.3262 61.1007 30.0795 61.1007C29.8327 61.1007 29.5962 61.1984 29.4219 61.3727L28.1073 62.6873C27.7444 63.0503 27.7444 63.6388 28.1073 64.0018L28.877 64.7715C27.9003 66.1414 27.2481 67.7151 26.9692 69.3742H25.8823C25.6355 69.3742 25.399 69.4719 25.2247 69.6462C25.0504 69.8206 24.9526 70.0571 24.9526 70.3038V72.1632C24.9526 72.41 25.0504 72.6465 25.2247 72.8208C25.399 72.9951 25.6355 73.0929 25.8823 73.0929H26.9692C27.2481 74.7521 27.9002 76.3256 28.877 77.6955L28.1073 78.4646C27.7444 78.8275 27.7444 79.4161 28.1073 79.7798L29.4219 81.0943C29.5962 81.2686 29.8327 81.3664 30.0795 81.3664C30.3262 81.3664 30.5621 81.2686 30.7364 81.0943L31.5061 80.3246C32.876 81.3014 34.4497 81.9535 36.1088 82.2324V83.3193C36.1088 83.8327 36.5251 84.249 37.0384 84.249H38.8978C39.4112 84.249 39.8275 83.8327 39.8275 83.3193V82.2324C41.4866 81.9536 43.0602 81.3014 44.4301 80.3246L45.1992 81.0943C45.3735 81.2686 45.61 81.3664 45.8568 81.3664C46.1035 81.3664 46.3401 81.268 46.5144 81.0936ZM33.096 66.3617C34.3888 65.0697 36.1415 64.3438 37.9687 64.3438C39.7952 64.3458 41.5473 65.0725 42.8386 66.3645C44.1306 67.6558 44.8572 69.4077 44.8593 71.2343C44.8593 73.0617 44.1333 74.8143 42.8414 76.107C41.5486 77.3989 39.796 78.1249 37.9687 78.1249C36.1414 78.1249 34.3887 77.399 33.096 76.107C31.8041 74.8143 31.0781 73.0617 31.0781 71.2343C31.0781 69.407 31.8041 67.6543 33.096 66.3617ZM35.2616 73.9413C35.9795 74.6591 36.9536 75.0624 37.9687 75.0624C38.9838 75.061 39.9566 74.6577 40.6744 73.9399C41.3921 73.2221 41.7955 72.2494 41.7968 71.2343C41.7968 70.2191 41.3936 69.245 40.6758 68.5272C39.9579 67.8095 38.9839 67.4062 37.9687 67.4062C36.9535 67.4062 35.9794 67.8094 35.2616 68.5272C34.5439 69.2451 34.1406 70.2191 34.1406 71.2343C34.1406 72.2495 34.5438 73.2236 35.2616 73.9413ZM76.2498 38.3125H51.75C50.9044 38.3125 50.2188 37.6268 50.2188 36.7812C50.2188 35.9356 50.9044 35.25 51.75 35.25H76.2498C77.0954 35.25 77.781 35.9356 77.781 36.7812C77.781 37.6268 77.0954 38.3125 76.2498 38.3125ZM68.5936 44.4374H51.75C50.9044 44.4374 50.2188 43.7518 50.2188 42.9062C50.2188 42.0606 50.9044 41.375 51.75 41.375H68.5936C69.4392 41.375 70.1249 42.0606 70.1249 42.9062C70.1249 43.7518 69.4392 44.4374 68.5936 44.4374ZM51.75 53.6249H76.2498C77.0954 53.6249 77.781 52.9392 77.781 52.0936C77.781 51.248 77.0954 50.5624 76.2498 50.5624H51.75C50.9044 50.5624 50.2188 51.248 50.2188 52.0936C50.2188 52.9392 50.9044 53.6249 51.75 53.6249ZM68.5953 56.6873C69.4409 56.6873 70.1265 57.373 70.1265 58.2186C70.1265 59.0642 69.4409 59.7498 68.5953 59.7498H53.2384C52.9404 59.2426 52.5788 58.7757 52.1638 58.3587L50.8466 57.0415C50.8418 57.0367 50.8367 57.0322 50.8315 57.0278C50.8264 57.0233 50.8213 57.0189 50.8165 57.0141C51.0831 56.8036 51.4119 56.6887 51.7517 56.6873H68.5953ZM76.2498 65.8748H55.5282C56.2473 66.7641 56.7402 67.8155 56.963 68.9373H76.2496C77.0952 68.9373 77.7809 68.2516 77.7809 67.406C77.7809 66.5604 77.0954 65.8748 76.2498 65.8748ZM57.108 71.9997H68.5923C69.4379 71.9997 70.1235 72.6853 70.1235 73.5309C70.1235 74.3765 69.4378 75.0621 68.5922 75.0621H56.4688C56.8865 74.1523 57.1046 73.1646 57.108 72.1638V71.9997Z" fill="#16246B"/>
<path d="M96.1558 41.375H95.3558V42.175H96.1558V41.375ZM108.406 41.375V42.175H109.745L109.11 40.9957L108.406 41.375ZM96.1558 39.7159H96.9558V39.7044L96.9554 39.6929L96.1558 39.7159ZM96.1346 39.5047L95.3418 39.6117L95.3434 39.624L95.3455 39.6362L96.1346 39.5047ZM96.1317 39.4719L95.3333 39.5235L95.3334 39.5239L96.1317 39.4719ZM96.127 39.4282L96.9131 39.2794L96.9122 39.2748L96.127 39.4282ZM96.0204 39.0925L95.2895 39.4178L95.2915 39.4221L96.0204 39.0925ZM96.0149 39.0747L95.2886 39.41L95.2937 39.4212L95.2992 39.4322L96.0149 39.0747ZM91.5621 29.4265H90.7621V29.6022L90.8357 29.7618L91.5621 29.4265ZM91.5621 27.5938H92.3621V27.5929L91.5621 27.5938ZM90.2154 24.3467L90.7813 23.7812L90.7809 23.7808L90.2154 24.3467ZM86.9683 23L86.9692 22.2H86.9683V23ZM41.0312 23V22.2L41.0303 22.2L41.0312 23ZM37.7841 24.3467L37.2186 23.7808L37.2182 23.7812L37.7841 24.3467ZM36.4374 27.5938L35.6374 27.5929V27.5938H36.4374ZM36.4374 41.3749V42.1749H37.2374V41.3749H36.4374ZM19.5938 41.3749V40.5749L19.5929 40.5749L19.5938 41.3749ZM16.3467 42.7216L15.7812 42.1557L15.7808 42.1561L16.3467 42.7216ZM15 45.9687L14.2 45.9678V45.9687H15ZM15 94.9683H14.2L14.2 94.9692L15 94.9683ZM16.3467 98.2154L15.7808 98.7809L15.7812 98.7813L16.3467 98.2154ZM19.5938 99.5621L19.5929 100.362H19.5938V99.5621ZM62.4685 99.5621H63.2685V98.7621H62.4685V99.5621ZM62.4685 102.625V103.425H63.2685V102.625H62.4685ZM65.5309 102.625H64.7309V103.425H65.5309V102.625ZM65.5309 99.5621V98.7621H64.7309V99.5621H65.5309ZM108.406 99.5621V100.362H108.407L108.406 99.5621ZM111.653 98.2154L112.218 98.7813L112.219 98.7809L111.653 98.2154ZM112.999 94.9683L113.799 94.9692V94.9683H112.999ZM112.999 45.9687H113.799V45.9678L112.999 45.9687ZM111.653 42.7216L112.219 42.1561L112.218 42.1557L111.653 42.7216ZM108.406 41.3749L108.407 40.5749L107.065 40.5734L107.701 41.7542L108.406 41.3749ZM86.9683 41.2455V40.4455H86.1683V41.2455H86.9683ZM86.9683 72.6368H86.1683V73.4368H86.9683V72.6368ZM93.0933 41.2455H93.8933V40.4455H93.0933V41.2455ZM93.0933 72.6368V73.4368H93.8933V72.6368H93.0933ZM93.0933 80.4207V81.2207H93.8933V80.4207H93.0933ZM93.0933 75.6993H93.8933V74.8993H93.0933V75.6993ZM86.9683 80.4207H86.1683V81.2207H86.9683V80.4207ZM86.9683 75.6993V74.8993H86.1683V75.6993H86.9683ZM90.0308 33.415L90.7572 33.0798L90.0308 31.5058L89.3045 33.0798L90.0308 33.415ZM87.8304 38.183L87.104 37.8478L86.5801 38.983H87.8304V38.183ZM92.2313 38.183V38.983H93.4816L92.9576 37.8478L92.2313 38.183ZM108.406 96.4979V97.2979H108.407L108.406 96.4979ZM109.938 94.9666L110.738 94.9673V94.9666H109.938ZM19.5946 96.4979L19.5939 97.2979H19.5946V96.4979ZM18.0633 94.9666H17.2633L17.2633 94.9673L18.0633 94.9666ZM18.0633 93.4354V92.6354H17.2633V93.4354H18.0633ZM109.938 93.4354H110.738V92.6354H109.938V93.4354ZM18.0633 90.3729H17.2633V91.1729H18.0633V90.3729ZM109.938 90.3729V91.1729H110.738V90.3729L109.938 90.3729ZM18.0633 45.967L17.2633 45.9663V45.967H18.0633ZM19.5946 44.4357V43.6357L19.5939 43.6357L19.5946 44.4357ZM36.4382 44.4357H37.2382V43.6357H36.4382V44.4357ZM36.4382 52.1289H35.6382V53.0013L36.5073 52.9259L36.4382 52.1289ZM36.51 52.1226L36.4568 51.3244L36.4488 51.3249L36.4409 51.3256L36.51 52.1226ZM36.5101 52.1226L36.5633 52.9209L36.5715 52.9203L36.5796 52.9196L36.5101 52.1226ZM39.4271 52.1225L39.3575 52.9195L39.3657 52.9202L39.3738 52.9208L39.4271 52.1225ZM39.4272 52.1225L39.4963 51.3255L39.4883 51.3249L39.4804 51.3243L39.4272 52.1225ZM39.5 52.1289L39.4308 52.9259L40.2999 53.0013L40.3 52.1289L39.5 52.1289ZM39.5006 27.5923L38.7006 27.5916V27.5923L39.5006 27.5923ZM41.0319 26.0611V25.2611L41.0312 25.2611L41.0319 26.0611ZM86.969 26.0611L86.9697 25.2611H86.969V26.0611ZM88.5003 27.5923H89.3003V27.5916L88.5003 27.5923ZM88.5003 29.4251L89.2267 29.7603L89.3003 29.6008V29.4251H88.5003ZM84.0474 39.0733L83.321 38.738L83.3162 38.7487L84.0474 39.0733ZM84.042 39.091L83.3267 38.7328L83.3196 38.747L83.313 38.7614L84.042 39.091ZM83.9353 39.4267L83.1501 39.2734L83.1493 39.278L83.9353 39.4267ZM83.9307 39.4704L84.729 39.5224L84.729 39.522L83.9307 39.4704ZM83.9278 39.5032L84.7169 39.6347L84.719 39.6225L84.7206 39.6102L83.9278 39.5032ZM83.9066 39.7145L83.107 39.6915L83.1066 39.703V39.7145H83.9066ZM83.9066 80.4209H83.1066V80.4216L83.9066 80.4209ZM84.8048 82.5851L85.3709 82.0198L85.3702 82.0191L84.8048 82.5851ZM86.9691 83.4834L86.9684 84.2834H86.9691V83.4834ZM88.287 83.4834L88.9807 83.8819L89.6693 82.6834H88.287V83.4834ZM86.9691 84.249V85.049L86.9721 85.049L86.9691 84.249ZM52.0218 84.249V83.449H51.6904L51.4561 83.6833L52.0218 84.249ZM50.8447 85.4261V86.2261H51.176L51.4104 85.9918L50.8447 85.4261ZM50.844 85.4261V84.6261H50.5123L50.2779 84.8609L50.844 85.4261ZM47.4226 87.3114L47.2473 86.5308L47.4226 88.1114V87.3114ZM86.9688 87.3114V88.1114L86.9703 88.1114L86.9688 87.3114ZM89.9301 86.2238L89.4135 85.613L89.4133 85.6131L89.9301 86.2238ZM91.4935 83.4833V82.6833H90.8181L90.7048 83.3492L91.4935 83.4833ZM93.0938 83.4833V84.2833H93.0944L93.0938 83.4833ZM95.258 82.5851L94.6926 82.0191L94.6919 82.0197L95.258 82.5851ZM96.1562 80.4209L96.9562 80.4216V80.4209H96.1562ZM96.1562 44.4376V43.6376H95.3562V44.4376H96.1562ZM108.406 44.4376L108.407 43.6376H108.406V44.4376ZM109.937 45.9689L110.737 45.9689V45.9682L109.937 45.9689ZM49.9945 81.9447L50.5602 82.5104L50.5609 82.5097L49.9945 81.9447ZM51.1047 79.7982L51.8931 79.9341L51.8932 79.9335L51.1047 79.7982ZM48.6793 83.2599L49.2446 83.826L49.245 83.8256L48.6793 83.2599ZM46.5321 84.3714L46.6673 85.1599L46.6679 85.1598L46.5321 84.3714ZM44.1362 84.0419L44.4793 83.3193L44.1338 83.1552L43.7891 83.3211L44.1362 84.0419ZM42.661 84.6531L42.396 83.8982L42.0356 84.0248L41.9074 84.3846L42.661 84.6531ZM41.2008 86.5788L41.6622 87.2323L41.6625 87.2321L41.2008 86.5788ZM38.8978 87.3116V88.1116H38.8985L38.8978 87.3116ZM37.0385 87.3116L37.0378 88.1116H37.0385V87.3116ZM34.7355 86.5788L34.2738 87.2321L34.2742 87.2323L34.7355 86.5788ZM33.2753 84.6531L34.029 84.3846L33.9008 84.0248L33.5403 83.8982L33.2753 84.6531ZM31.8002 84.0419L32.1472 83.3211L31.8026 83.1552L31.457 83.3193L31.8002 84.0419ZM29.4042 84.3714L29.2684 85.1598L29.2691 85.1599L29.4042 84.3714ZM27.257 83.2599L26.6913 83.8256L26.6917 83.8259L27.257 83.2599ZM25.9418 81.9447L25.3754 82.5097L25.3761 82.5104L25.9418 81.9447ZM24.8316 79.7982L24.0432 79.9334L24.0433 79.9341L24.8316 79.7982ZM25.1611 77.4035L25.8837 77.7468L26.0481 77.401L25.8817 77.056L25.1611 77.4035ZM24.5486 75.9262L25.3036 75.6616L25.1771 75.3009L24.8171 75.1726L24.5486 75.9262ZM22.6229 74.4661L21.9694 74.9274L21.9696 74.9277L22.6229 74.4661ZM21.8901 72.1631H21.0901L21.0901 72.1638L21.8901 72.1631ZM21.8901 70.3037L21.0901 70.3031V70.3037H21.8901ZM22.6229 68.0008L21.9696 67.5391L21.9694 67.5394L22.6229 68.0008ZM24.5486 66.5406L24.8171 67.2942L25.1771 67.166L25.3036 66.8052L24.5486 66.5406ZM25.1611 65.0634L25.8817 65.4109L26.0481 65.0659L25.8837 64.72L25.1611 65.0634ZM24.8316 62.6687L24.0433 62.5328L24.0432 62.5334L24.8316 62.6687ZM25.9418 60.5221L25.3761 59.9565L25.3754 59.9571L25.9418 60.5221ZM27.257 59.2069L26.6917 58.6409L26.6913 58.6412L27.257 59.2069ZM29.4042 58.0954L29.2691 57.3069L29.2684 57.307L29.4042 58.0954ZM31.8002 58.4249L31.457 59.1476L31.8026 59.3116L32.1472 59.1457L31.8002 58.4249ZM33.2753 57.8138L33.5403 58.5686L33.9008 58.4421L34.029 58.0822L33.2753 57.8138ZM34.7355 55.8881L34.2741 55.2345L34.2738 55.2347L34.7355 55.8881ZM37.0385 55.1553V54.3553L37.0378 54.3553L37.0385 55.1553ZM38.8978 55.1553L38.8985 54.3553H38.8978V55.1553ZM41.2008 55.8881L41.6625 55.2347L41.6622 55.2345L41.2008 55.8881ZM42.661 57.8138L41.9074 58.0822L42.0355 58.4421L42.396 58.5686L42.661 57.8138ZM44.1362 58.4249L43.7891 59.1457L44.1338 59.3116L44.4793 59.1476L44.1362 58.4249ZM46.5321 58.0954L46.6679 57.307L46.6672 57.3069L46.5321 58.0954ZM48.6793 59.2069L49.2449 58.6411L49.2447 58.6409L48.6793 59.2069ZM49.9945 60.5215L50.5612 59.9568L50.5601 59.9556L49.9945 60.5215ZM51.1047 62.6687L51.8932 62.5334L51.8931 62.5328L51.1047 62.6687ZM50.7752 65.0634L50.0526 64.72L49.8883 65.0659L50.0546 65.4109L50.7752 65.0634ZM51.3877 66.5406L50.6327 66.8053L50.7592 67.166L51.1192 67.2942L51.3877 66.5406ZM53.3134 68.0008L53.9669 67.5394L53.9667 67.5391L53.3134 68.0008ZM54.0462 70.3038H54.8462V70.3031L54.0462 70.3038ZM54.0462 72.1631L54.8462 72.1638V72.1631H54.0462ZM53.3134 74.4661L53.9667 74.9278L53.9669 74.9274L53.3134 74.4661ZM51.3877 75.9263L51.1193 75.1726L50.7592 75.3009L50.6327 75.6616L51.3877 75.9263ZM50.7752 77.4035L50.0546 77.056L49.8883 77.401L50.0526 77.7468L50.7752 77.4035ZM47.8289 79.7791L48.3946 80.3448L48.3951 80.3442L47.8289 79.7791ZM46.5144 81.0936L45.9487 80.528L45.9487 80.528L46.5144 81.0936ZM47.8289 78.4646L48.3946 77.8989L48.3944 77.8986L47.8289 78.4646ZM47.0592 77.6955L46.4078 77.2311L46.0145 77.7827L46.4938 78.2615L47.0592 77.6955ZM48.967 73.0929V72.2929H48.2903L48.1781 72.9603L48.967 73.0929ZM50.7115 69.6462L50.1459 70.2119L50.1459 70.2119L50.7115 69.6462ZM48.967 69.3742L48.1781 69.5068L48.2903 70.1742H48.967V69.3742ZM47.0592 64.7715L46.4938 64.2056L46.0145 64.6844L46.4078 65.236L47.0592 64.7715ZM47.8289 64.0025L48.3944 64.5684L48.3946 64.5682L47.8289 64.0025ZM47.8289 62.6873L48.3946 62.1216L47.8289 62.6873ZM46.5144 61.3727L45.9487 61.9384L45.9487 61.9384L46.5144 61.3727ZM45.1998 61.3727L45.7655 61.9384L45.7655 61.9384L45.1998 61.3727ZM44.4301 62.1424L43.9657 62.7938L44.517 63.1869L44.9958 62.7081L44.4301 62.1424ZM39.8275 60.2346H39.0275V60.9114L39.6949 61.0235L39.8275 60.2346ZM36.1088 60.2346L36.2414 61.0236L36.9088 60.9114V60.2346H36.1088ZM31.5061 62.1424L30.9402 62.7079L31.419 63.1871L31.9706 62.7938L31.5061 62.1424ZM30.7371 61.3727L31.303 60.8073L31.3028 60.8071L30.7371 61.3727ZM29.4219 61.3727L29.9876 61.9384L29.9876 61.9384L29.4219 61.3727ZM28.1073 62.6873L27.5417 62.1216H27.5416L28.1073 62.6873ZM28.1073 64.0018L28.673 63.4361L28.673 63.4361L28.1073 64.0018ZM28.877 64.7715L29.5284 65.236L29.9215 64.6846L29.4427 64.2058L28.877 64.7715ZM26.9692 69.3742V70.1742H27.646L27.7581 69.5068L26.9692 69.3742ZM25.2247 69.6462L25.7904 70.2119L25.7904 70.2119L25.2247 69.6462ZM25.2247 72.8208L25.7904 72.2551L25.7904 72.2551L25.2247 72.8208ZM26.9692 73.0929L27.7582 72.9603L27.646 72.2929H26.9692V73.0929ZM28.877 77.6955L29.4425 78.2615L29.9217 77.7826L29.5284 77.2311L28.877 77.6955ZM28.1073 78.4646L27.5419 77.8986L27.5417 77.8989L28.1073 78.4646ZM28.1073 79.7798L27.5411 80.3449L27.5416 80.3455L28.1073 79.7798ZM29.4219 81.0943L28.8562 81.66H28.8562L29.4219 81.0943ZM30.7364 81.0943L31.3021 81.66L31.3021 81.66L30.7364 81.0943ZM31.5061 80.3246L31.9706 79.6732L31.4192 79.2801L30.9404 79.7589L31.5061 80.3246ZM36.1088 82.2324H36.9088V81.5557L36.2414 81.4435L36.1088 82.2324ZM39.8275 82.2324L39.6949 81.4435L39.0275 81.5557V82.2324H39.8275ZM44.4301 80.3246L44.9961 79.7592L44.5172 79.2799L43.9657 79.6732L44.4301 80.3246ZM45.1992 81.0943L44.6332 81.6598L44.6335 81.66L45.1992 81.0943ZM37.9687 64.3438L37.9696 63.5438H37.9687V64.3438ZM33.096 66.3617L32.5305 65.7958L32.5302 65.7961L33.096 66.3617ZM42.8386 66.3645L42.2727 66.93L42.273 66.9303L42.8386 66.3645ZM44.8593 71.2343H45.6593L45.6593 71.2334L44.8593 71.2343ZM42.8414 76.107L43.4069 76.6728L43.4072 76.6725L42.8414 76.107ZM33.096 76.107L32.5302 76.6725L32.5305 76.6728L33.096 76.107ZM37.9687 75.0624V75.8624H37.9698L37.9687 75.0624ZM35.2616 73.9413L35.8273 73.3756L35.2616 73.9413ZM40.6744 73.9399L41.2401 74.5056L41.2401 74.5056L40.6744 73.9399ZM41.7968 71.2343L42.5968 71.2354V71.2343H41.7968ZM40.6758 68.5272L41.2414 67.9615L40.6758 68.5272ZM35.2616 68.5272L35.8274 69.0929H35.8274L35.2616 68.5272ZM53.2384 59.7498L52.5487 60.1551L52.7806 60.5498H53.2384V59.7498ZM52.1638 58.3587L52.7309 57.7944L52.7295 57.793L52.1638 58.3587ZM50.8466 57.0415L51.4123 56.4758L51.412 56.4755L50.8466 57.0415ZM50.8165 57.0141L50.3207 56.3863L49.6145 56.944L50.251 57.58L50.8165 57.0141ZM51.7517 56.6873V55.8873L51.7484 55.8874L51.7517 56.6873ZM55.5282 65.8748V65.0748H53.8525L54.9061 66.3778L55.5282 65.8748ZM56.963 68.9373L56.1784 69.0931L56.3063 69.7373H56.963V68.9373ZM57.108 71.9997V71.1997H56.308V71.9997H57.108ZM56.4688 75.0621L55.7418 74.7283L55.2213 75.8621H56.4688V75.0621ZM57.108 72.1638L57.908 72.1665V72.1638H57.108ZM96.1558 42.175H108.406V40.575H96.1558V42.175ZM95.3558 39.7159V41.375H96.9558V39.7159H95.3558ZM95.3455 39.6362C95.3519 39.6751 95.3552 39.709 95.3561 39.739L96.9554 39.6929C96.9522 39.5807 96.9405 39.4738 96.9237 39.3732L95.3455 39.6362ZM95.3334 39.5239C95.3338 39.5303 95.336 39.5689 95.3418 39.6117L96.9274 39.3977C96.9291 39.4102 96.9299 39.4193 96.9301 39.4226C96.9303 39.4243 96.9303 39.4252 96.9303 39.4246C96.9302 39.4239 96.9302 39.4228 96.93 39.4198L95.3334 39.5239ZM95.341 39.5769C95.3364 39.5527 95.3344 39.5342 95.3336 39.5259C95.333 39.519 95.3327 39.5141 95.3333 39.5235L96.93 39.4202C96.9296 39.4139 96.9265 39.3501 96.9131 39.2794L95.341 39.5769ZM95.2915 39.4221C95.3137 39.4714 95.3308 39.5249 95.3419 39.5815L96.9122 39.2748C96.8782 39.1004 96.8241 38.9283 96.7494 38.7629L95.2915 39.4221ZM95.2992 39.4322C95.2732 39.38 95.258 39.335 95.2495 39.306C95.2452 39.2916 95.2422 39.2799 95.2404 39.2728C95.2395 39.2691 95.2389 39.2662 95.2384 39.2644C95.2382 39.2635 95.2381 39.2628 95.238 39.2624C95.2379 39.2621 95.2379 39.262 95.2378 39.2618C95.2378 39.2618 95.2378 39.2617 95.2378 39.2617C95.2378 39.2617 95.2378 39.2617 95.2378 39.2617C95.2377 39.2613 95.2381 39.2629 95.2384 39.2643C95.2388 39.2661 95.2395 39.2689 95.2403 39.2724C95.2419 39.2792 95.2447 39.2902 95.2484 39.3037C95.256 39.3308 95.2687 39.3711 95.2895 39.4178L96.7513 38.7672C96.7707 38.8109 96.7824 38.8481 96.7891 38.8721C96.7925 38.884 96.7948 38.8936 96.7961 38.8989C96.7972 38.9034 96.7981 38.9077 96.7975 38.9051C96.7974 38.9043 96.7959 38.8976 96.7939 38.8895C96.7917 38.8809 96.7884 38.8677 96.7837 38.8519C96.7742 38.8201 96.758 38.7722 96.7306 38.7173L95.2992 39.4322ZM90.8357 29.7618L95.2886 39.41L96.7413 38.7395L92.2885 29.0913L90.8357 29.7618ZM90.7621 27.5938V29.4265H92.3621V27.5938H90.7621ZM89.6495 24.9121C90.3606 25.6238 90.761 26.5885 90.7621 27.5947L92.3621 27.5929C92.3605 26.1628 91.7915 24.7922 90.7813 23.7812L89.6495 24.9121ZM86.9674 23.8C87.9737 23.8011 88.9383 24.2015 89.65 24.9126L90.7809 23.7808C89.7699 22.7706 88.3993 22.2016 86.9692 22.2L86.9674 23.8ZM41.0312 23.8H86.9683V22.2H41.0312V23.8ZM38.3495 24.9126C39.0612 24.2015 40.0259 23.8011 41.0321 23.8L41.0303 22.2C39.6002 22.2016 38.2296 22.7706 37.2186 23.7808L38.3495 24.9126ZM37.2374 27.5947C37.2385 26.5884 37.6389 25.6238 38.35 24.9121L37.2182 23.7812C36.208 24.7922 35.639 26.1628 35.6374 27.5929L37.2374 27.5947ZM37.2374 41.3749V27.5938H35.6374V41.3749H37.2374ZM19.5938 42.1749H36.4374V40.5749H19.5938V42.1749ZM16.9121 43.2875C17.6238 42.5764 18.5885 42.176 19.5947 42.1749L19.5929 40.5749C18.1628 40.5765 16.7922 41.1455 15.7812 42.1557L16.9121 43.2875ZM15.8 45.9696C15.8011 44.9634 16.2015 43.9987 16.9126 43.287L15.7808 42.1561C14.7706 43.1671 14.2016 44.5377 14.2 45.9678L15.8 45.9696ZM15.8 94.9683V45.9687H14.2V94.9683H15.8ZM16.9126 97.65C16.2015 96.9383 15.8011 95.9736 15.8 94.9674L14.2 94.9692C14.2016 96.3993 14.7706 97.7699 15.7808 98.7809L16.9126 97.65ZM19.5947 98.7621C18.5884 98.761 17.6238 98.3606 16.9121 97.6495L15.7812 98.7813C16.7922 99.7915 18.1628 100.361 19.5929 100.362L19.5947 98.7621ZM62.4685 98.7621H19.5938V100.362H62.4685V98.7621ZM63.2685 102.625V99.5621H61.6685V102.625H63.2685ZM50.2185 103.425H62.4685V101.825H50.2185V103.425ZM49.4873 104.156C49.4873 103.752 49.8148 103.425 50.2185 103.425V101.825C48.9311 101.825 47.8873 102.868 47.8873 104.156H49.4873ZM50.2185 104.887C49.8148 104.887 49.4873 104.56 49.4873 104.156H47.8873C47.8873 105.443 48.9311 106.487 50.2185 106.487V104.887ZM77.7808 104.887H50.2185V106.487H77.7808V104.887ZM78.5121 104.156C78.5121 104.56 78.1846 104.887 77.7808 104.887V106.487C79.0683 106.487 80.1121 105.443 80.1121 104.156H78.5121ZM77.7808 103.425C78.1846 103.425 78.5121 103.752 78.5121 104.156H80.1121C80.1121 102.868 79.0683 101.825 77.7808 101.825V103.425ZM65.5309 103.425H77.7808V101.825H65.5309V103.425ZM64.7309 99.5621V102.625H66.3309V99.5621H64.7309ZM108.406 98.7621H65.5309V100.362H108.406V98.7621ZM111.087 97.6495C110.376 98.3606 109.411 98.761 108.405 98.7621L108.407 100.362C109.837 100.36 111.207 99.7915 112.218 98.7813L111.087 97.6495ZM112.199 94.9674C112.198 95.9737 111.798 96.9383 111.087 97.65L112.219 98.7809C113.229 97.7699 113.798 96.3993 113.799 94.9692L112.199 94.9674ZM112.199 45.9687V94.9683H113.799V45.9687H112.199ZM111.087 43.287C111.798 43.9987 112.198 44.9634 112.199 45.9696L113.799 45.9678C113.798 44.5377 113.229 43.1671 112.219 42.1561L111.087 43.287ZM108.405 42.1749C109.411 42.176 110.376 42.5764 111.087 43.2875L112.218 42.1557C111.207 41.1455 109.837 40.5765 108.407 40.5749L108.405 42.1749ZM109.11 40.9957L109.11 40.9956L107.701 41.7542L107.701 41.7543L109.11 40.9957ZM86.1683 41.2455V72.6368H87.7683V41.2455H86.1683ZM93.0933 40.4455H86.9683V42.0455H93.0933V40.4455ZM93.8933 72.6368V41.2455H92.2933V72.6368H93.8933ZM86.9683 73.4368H93.0933V71.8368H86.9683V73.4368ZM93.8933 80.4207V75.6993H92.2933V80.4207H93.8933ZM86.9683 81.2207H93.0933V79.6207H86.9683V81.2207ZM86.1683 75.6993V80.4207H87.7683V75.6993H86.1683ZM93.0933 74.8993H86.9683V76.4993H93.0933V74.8993ZM89.3045 33.0798L87.104 37.8478L88.5568 38.5183L90.7572 33.7502L89.3045 33.0798ZM92.9576 37.8478L90.7572 33.0798L89.3045 33.7502L91.5049 38.5183L92.9576 37.8478ZM87.8304 38.983H92.2313V37.383H87.8304V38.983ZM108.407 97.2979C109.694 97.2968 110.737 96.2542 110.738 94.9673L109.138 94.966C109.137 95.3702 108.81 95.6975 108.406 95.6979L108.407 97.2979ZM19.5946 97.2979H108.406V95.6979H19.5946V97.2979ZM17.2633 94.9673C17.2644 96.2542 18.307 97.2968 19.5939 97.2979L19.5952 95.6979C19.1909 95.6975 18.8636 95.3702 18.8633 94.966L17.2633 94.9673ZM17.2633 93.4354V94.9666H18.8633V93.4354H17.2633ZM109.938 92.6354H18.0633V94.2354H109.938V92.6354ZM110.738 94.9666V93.4354H109.138V94.9666H110.738ZM18.0633 91.1729H109.938V89.5729H18.0633V91.1729ZM17.2633 45.967V90.3729H18.8633V45.967H17.2633ZM19.5939 43.6357C18.307 43.6368 17.2644 44.6794 17.2633 45.9663L18.8633 45.9676C18.8636 45.5634 19.1909 45.2361 19.5952 45.2357L19.5939 43.6357ZM36.4382 43.6357H19.5946V45.2357H36.4382V43.6357ZM37.2382 52.1289V44.4357H35.6382V52.1289H37.2382ZM36.4409 51.3256L36.369 51.3319L36.5073 52.9259L36.5792 52.9196L36.4409 51.3256ZM36.4569 51.3244L36.4568 51.3244L36.5632 52.9209L36.5633 52.9209L36.4569 51.3244ZM37.0397 51.292C36.8211 51.292 36.6106 51.3108 36.4406 51.3257L36.5796 52.9196C36.7609 52.9038 36.9023 52.8919 37.0397 52.8919V51.292ZM38.8984 51.292H37.0397V52.8919H38.8984V51.292ZM39.4967 51.3256C39.3269 51.3108 39.1173 51.292 38.8984 51.292V52.8919C39.0362 52.8919 39.1768 52.9037 39.3575 52.9195L39.4967 51.3256ZM39.4804 51.3243L39.4803 51.3243L39.3738 52.9208L39.3739 52.9208L39.4804 51.3243ZM39.5691 51.3319L39.4963 51.3255L39.358 52.9196L39.4308 52.9259L39.5691 51.3319ZM38.7006 27.5923L38.7 52.1288L40.3 52.1289L40.3006 27.5923L38.7006 27.5923ZM41.0312 25.2611C39.7443 25.2621 38.7017 26.3047 38.7006 27.5916L40.3006 27.5929C40.301 27.1887 40.6283 26.8614 41.0325 26.8611L41.0312 25.2611ZM86.969 25.2611H41.0319V26.8611H86.969V25.2611ZM89.3003 27.5916C89.2992 26.3047 88.2566 25.2621 86.9697 25.2611L86.9684 26.8611C87.3727 26.8614 87.7 27.1887 87.7003 27.5929L89.3003 27.5916ZM89.3003 29.4251V27.5923H87.7003V29.4251H89.3003ZM84.7738 39.4085L89.2267 29.7603L87.7739 29.0898L83.3211 38.738L84.7738 39.4085ZM84.7573 39.4493C84.7848 39.3943 84.8011 39.3463 84.8105 39.3144C84.8153 39.2984 84.8187 39.2852 84.8208 39.2765C84.8229 39.2683 84.8244 39.2615 84.8246 39.2607C84.8252 39.258 84.8242 39.2623 84.8232 39.2667C84.8219 39.2719 84.8196 39.2814 84.8163 39.2932C84.8096 39.3171 84.798 39.3542 84.7786 39.3978L83.3162 38.7487C83.2955 38.7954 83.2829 38.8356 83.2753 38.8625C83.2716 38.8759 83.2689 38.8869 83.2673 38.8936C83.2665 38.8971 83.2658 38.8999 83.2654 38.9015C83.2651 38.9029 83.2647 38.9046 83.2648 38.9041C83.2648 38.9041 83.2648 38.904 83.2649 38.9039C83.2649 38.9038 83.2649 38.9036 83.265 38.9033C83.2651 38.9029 83.2653 38.9021 83.2655 38.9012C83.2659 38.8994 83.2666 38.8964 83.2675 38.8928C83.2693 38.8856 83.2723 38.8738 83.2766 38.8593C83.2853 38.8302 83.3005 38.785 83.3267 38.7328L84.7573 39.4493ZM84.7205 39.58C84.7316 39.5234 84.7486 39.4699 84.7709 39.4207L83.313 38.7614C83.2382 38.9268 83.1842 39.0989 83.1502 39.2734L84.7205 39.58ZM84.729 39.522C84.7297 39.5126 84.7294 39.5175 84.7287 39.5244C84.7279 39.5327 84.726 39.5512 84.7214 39.5754L83.1493 39.278C83.1359 39.3486 83.1328 39.4125 83.1324 39.4188L84.729 39.522ZM84.7206 39.6102C84.7264 39.5674 84.7286 39.5288 84.729 39.5224L83.1324 39.4184C83.1322 39.4214 83.1321 39.4224 83.1321 39.4231C83.132 39.4237 83.1321 39.4228 83.1322 39.4211C83.1325 39.4178 83.1333 39.4087 83.135 39.3963L84.7206 39.6102ZM84.7063 39.7375C84.7072 39.7075 84.7104 39.6737 84.7169 39.6347L83.1387 39.3717C83.1219 39.4723 83.1102 39.5792 83.107 39.6915L84.7063 39.7375ZM84.7066 80.4209V39.7145H83.1066V80.4209H84.7066ZM85.3702 82.0191C84.946 81.5955 84.7071 81.0202 84.7066 80.4202L83.1066 80.4216C83.1075 81.4458 83.5153 82.4278 84.2395 83.1512L85.3702 82.0191ZM86.9697 82.6834C86.3698 82.6829 85.7945 82.4439 85.3709 82.0198L84.2388 83.1505C84.9622 83.8747 85.9442 84.2825 86.9684 84.2834L86.9697 82.6834ZM88.287 82.6834H86.9691V84.2834H88.287V82.6834ZM86.9721 85.049C87.8018 85.0459 88.5669 84.6021 88.9807 83.8819L87.5933 83.0848C87.4643 83.3094 87.226 83.448 86.9661 83.449L86.9721 85.049ZM52.0218 85.049H86.9691V83.449H52.0218V85.049ZM51.4104 85.9918L52.5875 84.8147L51.4561 83.6833L50.279 84.8604L51.4104 85.9918ZM50.844 86.2261H50.8447V84.6261H50.844V86.2261ZM47.5979 88.0919C49.0421 87.7675 50.3644 87.0386 51.4101 85.9914L50.2779 84.8609C49.4464 85.6935 48.3951 86.273 47.2473 86.5308L47.5979 88.0919ZM86.9688 86.5114H47.4226V88.1114H86.9688V86.5114ZM89.4133 85.6131C88.7296 86.1918 87.8636 86.5097 86.9673 86.5114L86.9703 88.1114C88.2437 88.109 89.4748 87.6572 90.4469 86.8345L89.4133 85.6131ZM90.7048 83.3492C90.5546 84.2327 90.0977 85.0344 89.4135 85.613L90.4467 86.8347C91.4196 86.0119 92.0688 84.8722 92.2822 83.6175L90.7048 83.3492ZM93.0938 82.6833H91.4935V84.2833H93.0938V82.6833ZM94.6919 82.0197C94.2683 82.4439 93.693 82.6828 93.0931 82.6833L93.0944 84.2833C94.1187 84.2825 95.1006 83.8747 95.824 83.1504L94.6919 82.0197ZM95.3562 80.4202C95.3557 81.0201 95.1168 81.5954 94.6926 82.0191L95.8233 83.1511C96.5476 82.4277 96.9554 81.4458 96.9562 80.4216L95.3562 80.4202ZM95.3562 44.4376V80.4209H96.9562V44.4376H95.3562ZM108.406 43.6376H96.1562V45.2376H108.406V43.6376ZM110.737 45.9682C110.736 44.6813 109.694 43.6387 108.407 43.6376L108.405 45.2376C108.81 45.238 109.137 45.5653 109.137 45.9695L110.737 45.9682ZM110.738 90.3729L110.737 45.9689L109.137 45.9689L109.138 90.3729L110.738 90.3729ZM50.5609 82.5097C51.2599 81.809 51.7249 80.9092 51.8931 79.9341L50.3163 79.6623C50.2041 80.3129 49.8939 80.9128 49.4282 81.3797L50.5609 82.5097ZM49.245 83.8256L50.5602 82.5104L49.4288 81.379L48.1136 82.6942L49.245 83.8256ZM46.6679 85.1598C47.6441 84.9917 48.544 84.5257 49.2446 83.826L48.114 82.6939C47.6469 83.1603 47.047 83.4709 46.3963 83.583L46.6679 85.1598ZM43.793 84.7646C44.6878 85.1895 45.6916 85.3272 46.6673 85.1599L46.3969 83.5829C45.7457 83.6946 45.0761 83.6026 44.4793 83.3193L43.793 84.7646ZM42.9259 85.4079C43.4557 85.222 43.976 85.0069 44.4832 84.7628L43.7891 83.3211C43.3365 83.5391 42.8711 83.7315 42.396 83.8982L42.9259 85.4079ZM41.6625 87.2321C42.4707 86.6611 43.0825 85.8539 43.4146 84.9215L41.9074 84.3846C41.6858 85.0068 41.2777 85.5449 40.7392 85.9254L41.6625 87.2321ZM38.8985 88.1116C39.8891 88.1107 40.8538 87.8029 41.6622 87.2323L40.7395 85.9252C40.1998 86.3061 39.5567 86.511 38.8972 86.5116L38.8985 88.1116ZM37.0385 88.1116H38.8978V86.5116H37.0385V88.1116ZM34.2742 87.2323C35.0825 87.8029 36.0472 88.1107 37.0378 88.1116L37.0391 86.5116C36.3796 86.511 35.7365 86.3061 35.1968 85.9252L34.2742 87.2323ZM32.5217 84.9215C32.8538 85.8539 33.4657 86.6611 34.2738 87.2321L35.1972 85.9254C34.6586 85.5449 34.2506 85.0067 34.029 84.3846L32.5217 84.9215ZM31.4531 84.7628C31.9603 85.0069 32.4806 85.222 33.0104 85.4079L33.5403 83.8982C33.0652 83.7315 32.5998 83.5391 32.1472 83.3211L31.4531 84.7628ZM29.2691 85.1599C30.2448 85.3272 31.2486 85.1895 32.1433 84.7646L31.457 83.3193C30.8603 83.6026 30.1907 83.6946 29.5394 83.5829L29.2691 85.1599ZM26.6917 83.8259C27.3922 84.5257 28.2922 84.9917 29.2684 85.1598L29.5401 83.583C28.8892 83.4709 28.2893 83.1603 27.8224 82.6939L26.6917 83.8259ZM25.3761 82.5104L26.6913 83.8256L27.8227 82.6942L26.5075 81.379L25.3761 82.5104ZM24.0433 79.9341C24.2114 80.9091 24.6764 81.8089 25.3754 82.5097L26.5082 81.3797C26.0424 80.9128 25.7322 80.3128 25.62 79.6622L24.0433 79.9341ZM24.4386 77.0601C24.0136 77.9544 23.8759 78.9583 24.0432 79.9334L25.6201 79.6629C25.5085 79.0123 25.6005 78.3428 25.8837 77.7468L24.4386 77.0601ZM23.7937 76.1909C23.9798 76.7219 24.1957 77.2432 24.4405 77.751L25.8817 77.056C25.6631 76.6027 25.4702 76.1368 25.3036 75.6616L23.7937 76.1909ZM21.9696 74.9277C22.5406 75.7359 23.3478 76.3477 24.2802 76.6799L24.8171 75.1726C24.1949 74.951 23.6568 74.5429 23.2763 74.0044L21.9696 74.9277ZM21.0901 72.1638C21.091 73.1544 21.3988 74.1191 21.9694 74.9274L23.2765 74.0047C22.8956 73.4651 22.6907 72.822 22.6901 72.1624L21.0901 72.1638ZM21.0901 70.3037V72.1631H22.6901V70.3037H21.0901ZM21.9694 67.5394C21.3987 68.3478 21.091 69.3125 21.0901 70.3031L22.6901 70.3044C22.6907 69.6449 22.8956 69.0018 23.2765 68.4621L21.9694 67.5394ZM24.2802 65.787C23.3478 66.1191 22.5406 66.7309 21.9696 67.5391L23.2763 68.4624C23.6568 67.9239 24.195 67.5158 24.8171 67.2942L24.2802 65.787ZM24.4405 64.7159C24.1957 65.2237 23.9798 65.7449 23.7937 66.276L25.3036 66.8052C25.4702 66.3301 25.6631 65.8642 25.8817 65.4109L24.4405 64.7159ZM24.0432 62.5334C23.8759 63.5085 24.0136 64.5124 24.4386 65.4067L25.8837 64.72C25.6005 64.124 25.5085 63.4544 25.6201 62.804L24.0432 62.5334ZM25.3754 59.9571C24.6764 60.6578 24.2114 61.5577 24.0433 62.5328L25.62 62.8046C25.7322 62.154 26.0424 61.554 26.5081 61.0872L25.3754 59.9571ZM26.6913 58.6412L25.3761 59.9565L26.5075 61.0878L27.8227 59.7726L26.6913 58.6412ZM29.2684 57.307C28.2923 57.4752 27.3923 57.9411 26.6917 58.6409L27.8223 59.773C28.2894 59.3065 28.8893 58.9959 29.5401 58.8838L29.2684 57.307ZM32.1433 57.7022C31.2485 57.2774 30.2447 57.1396 29.2691 57.3069L29.5394 58.8839C30.1906 58.7723 30.8602 58.8642 31.457 59.1476L32.1433 57.7022ZM33.0104 57.0589C32.4806 57.2449 31.9603 57.4599 31.4531 57.7041L32.1472 59.1457C32.5998 58.9278 33.0652 58.7354 33.5403 58.5686L33.0104 57.0589ZM34.2738 55.2347C33.4657 55.8058 32.8539 56.6129 32.5217 57.5453L34.029 58.0822C34.2506 57.4601 34.6586 56.922 35.1972 56.5414L34.2738 55.2347ZM37.0378 54.3553C36.0472 54.3561 35.0825 54.6639 34.2741 55.2345L35.1969 56.5416C35.7365 56.1607 36.3796 55.9558 37.0391 55.9553L37.0378 54.3553ZM38.8978 54.3553H37.0385V55.9553H38.8978V54.3553ZM41.6622 55.2345C40.8538 54.6639 39.8891 54.3561 38.8985 54.3553L38.8972 55.9553C39.5567 55.9558 40.1998 56.1607 40.7395 56.5417L41.6622 55.2345ZM43.4146 57.5453C43.0825 56.6129 42.4706 55.8058 41.6625 55.2347L40.7392 56.5414C41.2777 56.922 41.6858 57.4601 41.9074 58.0822L43.4146 57.5453ZM44.4832 57.7041C43.976 57.4599 43.4557 57.2449 42.9259 57.0589L42.396 58.5686C42.8711 58.7354 43.3365 58.9278 43.7891 59.1457L44.4832 57.7041ZM46.6672 57.3069C45.6916 57.1396 44.6878 57.2774 43.793 57.7022L44.4793 59.1476C45.076 58.8642 45.7457 58.7723 46.3969 58.8839L46.6672 57.3069ZM49.2447 58.6409C48.5441 57.9411 47.6441 57.4752 46.6679 57.307L46.3963 58.8838C47.0471 58.9959 47.647 59.3065 48.114 59.7729L49.2447 58.6409ZM50.5601 59.9556L49.2449 58.6411L48.1138 59.7728L49.429 61.0873L50.5601 59.9556ZM51.8931 62.5328C51.7249 61.5577 51.2599 60.6581 50.5612 59.9568L49.4278 61.0861C49.894 61.554 50.2042 62.1541 50.3163 62.8046L51.8931 62.5328ZM51.4978 65.4068C51.9227 64.5125 52.0605 63.5086 51.8932 62.5334L50.3162 62.804C50.4278 63.4545 50.3358 64.1241 50.0526 64.72L51.4978 65.4068ZM52.1427 66.276C51.9565 65.7449 51.7407 65.2237 51.4958 64.7159L50.0546 65.4109C50.2732 65.8642 50.4662 66.3301 50.6327 66.8053L52.1427 66.276ZM53.9667 67.5391C53.3957 66.7309 52.5885 66.1191 51.6561 65.787L51.1192 67.2942C51.7414 67.5158 52.2795 67.9239 52.66 68.4624L53.9667 67.5391ZM54.8462 70.3031C54.8454 69.3125 54.5376 68.3478 53.9669 67.5394L52.6598 68.4621C53.0407 69.0018 53.2456 69.6449 53.2462 70.3044L54.8462 70.3031ZM54.8462 72.1631V70.3038H53.2462V72.1631H54.8462ZM53.9669 74.9274C54.5376 74.1191 54.8454 73.1544 54.8462 72.1638L53.2462 72.1625C53.2456 72.822 53.0408 73.4651 52.6598 74.0047L53.9669 74.9274ZM51.6561 76.6799C52.5885 76.3478 53.3957 75.7359 53.9667 74.9278L52.66 74.0044C52.2795 74.543 51.7414 74.951 51.1193 75.1726L51.6561 76.6799ZM51.4958 77.751C51.7407 77.2432 51.9565 76.722 52.1427 76.1909L50.6327 75.6616C50.4662 76.1368 50.2732 76.6027 50.0546 77.056L51.4958 77.751ZM51.8932 79.9335C52.0605 78.9584 51.9227 77.9544 51.4978 77.0601L50.0526 77.7468C50.3359 78.3429 50.4278 79.0124 50.3162 79.6629L51.8932 79.9335ZM47.2632 79.2134L45.9487 80.528L47.0801 81.6593L48.3946 80.3448L47.2632 79.2134ZM47.2632 79.0303C47.3135 79.0805 47.3143 79.1623 47.2627 79.2139L48.3951 80.3442C49.0695 79.6686 49.0703 78.5746 48.3946 77.8989L47.2632 79.0303ZM46.4938 78.2615L47.2635 79.0305L48.3944 77.8986L47.6246 77.1296L46.4938 78.2615ZM48.1781 72.9603C47.9193 74.4998 47.3142 75.96 46.4078 77.2311L47.7106 78.16C48.7578 76.6913 49.457 75.0041 49.756 73.2255L48.1781 72.9603ZM50.0539 72.2929H48.967V73.8929H50.0539V72.2929ZM50.1459 72.2551C50.122 72.279 50.0891 72.2929 50.0539 72.2929V73.8929C50.5123 73.8929 50.9525 73.7113 51.2772 73.3865L50.1459 72.2551ZM50.1836 72.1632C50.1836 72.1984 50.1697 72.2313 50.1459 72.2551L51.2772 73.3865C51.602 73.0617 51.7836 72.6216 51.7836 72.1632H50.1836ZM50.1836 70.3038V72.1632H51.7836V70.3038H50.1836ZM50.1459 70.2119C50.1697 70.2358 50.1836 70.2687 50.1836 70.3038H51.7836C51.7836 69.8455 51.602 69.4053 51.2772 69.0806L50.1459 70.2119ZM50.0539 70.1742C50.0891 70.1742 50.122 70.188 50.1459 70.2119L51.2772 69.0806C50.9525 68.7558 50.5123 68.5742 50.0539 68.5742V70.1742ZM48.967 70.1742H50.0539V68.5742H48.967V70.1742ZM46.4078 65.236C47.3142 66.5071 47.9194 67.9672 48.1781 69.5068L49.756 69.2416C49.457 67.4628 48.7579 65.7758 47.7106 64.3071L46.4078 65.236ZM47.2635 63.4366L46.4938 64.2056L47.6246 65.3375L48.3944 64.5684L47.2635 63.4366ZM47.2632 63.253C47.3138 63.3035 47.3138 63.3862 47.2632 63.4368L48.3946 64.5682C49.07 63.8928 49.07 62.797 48.3946 62.1216L47.2632 63.253ZM45.9487 61.9384L47.2632 63.253L48.3946 62.1216L47.0801 60.8071L45.9487 61.9384ZM45.8568 61.9007C45.892 61.9007 45.9248 61.9146 45.9487 61.9384L47.0801 60.8071C46.7553 60.4823 46.3151 60.3007 45.8568 60.3007V61.9007ZM45.7655 61.9384C45.7898 61.9141 45.8222 61.9007 45.8568 61.9007V60.3007C45.3978 60.3007 44.9585 60.4827 44.6342 60.8071L45.7655 61.9384ZM44.9958 62.7081L45.7655 61.9384L44.6342 60.8071L43.8644 61.5768L44.9958 62.7081ZM39.6949 61.0235C41.2344 61.2824 42.6946 61.8875 43.9657 62.7938L44.8946 61.4911C43.4259 60.4438 41.7387 59.7447 39.9601 59.4457L39.6949 61.0235ZM39.0275 59.1477V60.2346H40.6275V59.1477H39.0275ZM38.8978 59.018C38.9694 59.018 39.0275 59.0762 39.0275 59.1477H40.6275C40.6275 58.1925 39.853 57.418 38.8978 57.418V59.018ZM37.0384 59.018H38.8978V57.418H37.0384V59.018ZM36.9088 59.1477C36.9088 59.0762 36.9669 59.018 37.0384 59.018V57.418C36.0832 57.418 35.3088 58.1925 35.3088 59.1477H36.9088ZM36.9088 60.2346V59.1477H35.3088V60.2346H36.9088ZM31.9706 62.7938C33.2417 61.8874 34.7018 61.2823 36.2414 61.0236L35.9762 59.4457C34.1974 59.7446 32.5104 60.4438 31.0417 61.4911L31.9706 62.7938ZM30.1712 61.9382L30.9402 62.7079L32.0721 61.577L31.303 60.8073L30.1712 61.9382ZM30.0795 61.9007C30.1147 61.9007 30.1475 61.9146 30.1714 61.9384L31.3028 60.8071C30.978 60.4823 30.5378 60.3007 30.0795 60.3007V61.9007ZM29.9876 61.9384C30.0114 61.9146 30.0443 61.9007 30.0795 61.9007V60.3007C29.6211 60.3007 29.1809 60.4823 28.8562 60.8071L29.9876 61.9384ZM28.673 63.253L29.9876 61.9384L28.8562 60.8071L27.5417 62.1216L28.673 63.253ZM28.673 63.4361C28.6225 63.3856 28.6225 63.3035 28.673 63.253L27.5416 62.1216C26.8663 62.797 26.8662 63.8921 27.5417 64.5675L28.673 63.4361ZM29.4427 64.2058L28.673 63.4361L27.5416 64.5675L28.3114 65.3372L29.4427 64.2058ZM27.7581 69.5068C28.017 67.9673 28.6221 66.5071 29.5284 65.236L28.2257 64.3071C27.1784 65.7758 26.4793 67.4629 26.1803 69.2415L27.7581 69.5068ZM25.8823 70.1742H26.9692V68.5742H25.8823V70.1742ZM25.7904 70.2119C25.8143 70.1881 25.8471 70.1742 25.8823 70.1742V68.5742C25.424 68.5742 24.9838 68.7558 24.659 69.0806L25.7904 70.2119ZM25.7526 70.3038C25.7526 70.2686 25.7665 70.2358 25.7904 70.2119L24.659 69.0805C24.3343 69.4053 24.1526 69.8455 24.1526 70.3038H25.7526ZM25.7526 72.1632V70.3038H24.1526V72.1632H25.7526ZM25.7904 72.2551C25.7665 72.2313 25.7526 72.1984 25.7526 72.1632H24.1526C24.1526 72.6215 24.3343 73.0617 24.659 73.3865L25.7904 72.2551ZM25.8823 72.2929C25.8471 72.2929 25.8143 72.279 25.7904 72.2551L24.659 73.3865C24.9838 73.7113 25.424 73.8929 25.8823 73.8929V72.2929ZM26.9692 72.2929H25.8823V73.8929H26.9692V72.2929ZM29.5284 77.2311C28.622 75.96 28.0169 74.4999 27.7582 72.9603L26.1803 73.2255C26.4792 75.0042 27.1784 76.6913 28.2257 78.16L29.5284 77.2311ZM28.6728 79.0305L29.4425 78.2615L28.3116 77.1296L27.5419 77.8986L28.6728 79.0305ZM28.6736 79.2146C28.622 79.163 28.6228 79.0805 28.673 79.0303L27.5417 77.8989C26.866 78.5746 26.8667 79.6693 27.5411 80.3449L28.6736 79.2146ZM29.9876 80.5286L28.673 79.2141L27.5416 80.3455L28.8562 81.66L29.9876 80.5286ZM30.0795 80.5664C30.0443 80.5664 30.0114 80.5525 29.9876 80.5286L28.8562 81.66C29.181 81.9848 29.6212 82.1664 30.0795 82.1664V80.5664ZM30.1707 80.5286C30.1464 80.5529 30.1141 80.5664 30.0795 80.5664V82.1664C30.5384 82.1664 30.9778 81.9843 31.3021 81.66L30.1707 80.5286ZM30.9404 79.7589L30.1707 80.5286L31.3021 81.66L32.0718 80.8903L30.9404 79.7589ZM36.2414 81.4435C34.7019 81.1847 33.2417 80.5796 31.9706 79.6732L31.0417 80.976C32.5104 82.0232 34.1975 82.7224 35.9761 83.0214L36.2414 81.4435ZM36.9088 83.3193V82.2324H35.3088V83.3193H36.9088ZM37.0384 83.449C36.9669 83.449 36.9088 83.3909 36.9088 83.3193H35.3088C35.3088 84.2745 36.0832 85.049 37.0384 85.049V83.449ZM38.8978 83.449H37.0384V85.049H38.8978V83.449ZM39.0275 83.3193C39.0275 83.3909 38.9694 83.449 38.8978 83.449V85.049C39.853 85.049 40.6275 84.2745 40.6275 83.3193H39.0275ZM39.0275 82.2324V83.3193H40.6275V82.2324H39.0275ZM43.9657 79.6732C42.6946 80.5796 41.2345 81.1848 39.6949 81.4435L39.9601 83.0214C41.7388 82.7224 43.4259 82.0233 44.8946 80.976L43.9657 79.6732ZM45.7651 80.5289L44.9961 79.7592L43.8642 80.89L44.6332 81.6598L45.7651 80.5289ZM45.8568 80.5664C45.8216 80.5664 45.7887 80.5525 45.7648 80.5286L44.6335 81.66C44.9583 81.9848 45.3984 82.1664 45.8568 82.1664V80.5664ZM45.9487 80.528C45.9238 80.5529 45.8905 80.5664 45.8568 80.5664V82.1664C46.3166 82.1664 46.7564 81.983 47.0801 81.6593L45.9487 80.528ZM37.9687 63.5438C35.9293 63.5438 33.9732 64.354 32.5305 65.7958L33.6616 66.9275C34.8043 65.7854 36.3537 65.1437 37.9687 65.1437V63.5438ZM43.4044 65.7989C41.9632 64.3569 40.0079 63.5461 37.9696 63.5438L37.9678 65.1437C39.5825 65.1456 41.1314 65.788 42.2727 66.93L43.4044 65.7989ZM45.6593 71.2334C45.657 69.195 44.8461 67.2399 43.4041 65.7986L42.273 66.9303C43.415 68.0717 44.0575 69.6204 44.0593 71.2352L45.6593 71.2334ZM43.4072 76.6725C44.8491 75.2299 45.6593 73.2738 45.6593 71.2343H44.0593C44.0593 72.8495 43.4176 74.3987 42.2755 75.5415L43.4072 76.6725ZM37.9687 78.9249C40.0082 78.9249 41.9642 78.1146 43.4069 76.6728L42.2758 75.5411C41.1331 76.6832 39.5838 77.3249 37.9687 77.3249V78.9249ZM32.5305 76.6728C33.9731 78.1147 35.9292 78.9249 37.9687 78.9249V77.3249C36.3535 77.3249 34.8043 76.6833 33.6616 75.5412L32.5305 76.6728ZM30.2781 71.2343C30.2781 73.2739 31.0884 75.2299 32.5302 76.6725L33.6619 75.5415C32.5198 74.3987 31.8781 72.8495 31.8781 71.2343H30.2781ZM32.5302 65.7961C31.0883 67.2387 30.2781 69.1948 30.2781 71.2343H31.8781C31.8781 69.6192 32.5198 68.0699 33.6619 66.9272L32.5302 65.7961ZM37.9687 74.2624C37.1657 74.2624 36.3951 73.9433 35.8273 73.3756L34.696 74.5071C35.5639 75.3749 36.7415 75.8624 37.9687 75.8624V74.2624ZM40.1087 73.3743C39.5408 73.9421 38.7712 74.2613 37.9676 74.2624L37.9698 75.8624C39.1965 75.8607 40.3724 75.3733 41.2401 74.5056L40.1087 73.3743ZM40.9968 71.2332C40.9957 72.0367 40.6766 72.8063 40.1087 73.3743L41.2401 74.5056C42.1077 73.6379 42.5952 72.4621 42.5968 71.2354L40.9968 71.2332ZM40.1101 69.093C40.6778 69.6606 40.9968 70.4311 40.9968 71.2343H42.5968C42.5968 70.0071 42.1094 68.8294 41.2414 67.9615L40.1101 69.093ZM37.9687 68.2062C38.7718 68.2062 39.5423 68.5252 40.1101 69.093L41.2414 67.9615C40.3735 67.0937 39.196 66.6062 37.9687 66.6062V68.2062ZM35.8274 69.0929C36.395 68.5252 37.1656 68.2062 37.9687 68.2062V66.6062C36.7415 66.6062 35.5638 67.0936 34.6959 67.9616L35.8274 69.0929ZM34.9406 71.2343C34.9406 70.4312 35.2597 69.6607 35.8274 69.0929L34.6959 67.9616C33.8281 68.8295 33.3406 70.007 33.3406 71.2343H34.9406ZM35.8273 73.3756C35.2596 72.808 34.9406 72.0374 34.9406 71.2343H33.3406C33.3406 72.4615 33.828 73.6392 34.696 74.5071L35.8273 73.3756ZM51.75 39.1125H76.2498V37.5125H51.75V39.1125ZM49.4188 36.7812C49.4188 38.0687 50.4626 39.1125 51.75 39.1125V37.5125C51.3462 37.5125 51.0187 37.185 51.0187 36.7812H49.4188ZM51.75 34.45C50.4626 34.45 49.4188 35.4938 49.4188 36.7812H51.0187C51.0187 36.3775 51.3462 36.05 51.75 36.05V34.45ZM76.2498 34.45H51.75V36.05H76.2498V34.45ZM78.581 36.7812C78.581 35.4938 77.5372 34.45 76.2498 34.45V36.05C76.6536 36.05 76.981 36.3775 76.981 36.7812H78.581ZM76.2498 39.1125C77.5372 39.1125 78.581 38.0687 78.581 36.7812H76.981C76.981 37.185 76.6536 37.5125 76.2498 37.5125V39.1125ZM51.75 45.2374H68.5936V43.6374H51.75V45.2374ZM49.4188 42.9062C49.4188 44.1936 50.4626 45.2374 51.75 45.2374V43.6374C51.3462 43.6374 51.0187 43.31 51.0187 42.9062H49.4188ZM51.75 40.575C50.4626 40.575 49.4188 41.6188 49.4188 42.9062H51.0187C51.0187 42.5024 51.3462 42.175 51.75 42.175V40.575ZM68.5936 40.575H51.75V42.175H68.5936V40.575ZM70.9249 42.9062C70.9249 41.6188 69.881 40.575 68.5936 40.575V42.175C68.9974 42.175 69.3249 42.5024 69.3249 42.9062H70.9249ZM68.5936 45.2374C69.881 45.2374 70.9249 44.1936 70.9249 42.9062H69.3249C69.3249 43.31 68.9974 43.6374 68.5936 43.6374V45.2374ZM76.2498 52.8249H51.75V54.4249H76.2498V52.8249ZM76.981 52.0936C76.981 52.4974 76.6536 52.8249 76.2498 52.8249V54.4249C77.5372 54.4249 78.581 53.381 78.581 52.0936H76.981ZM76.2498 51.3624C76.6536 51.3624 76.981 51.6899 76.981 52.0936H78.581C78.581 50.8062 77.5372 49.7624 76.2498 49.7624V51.3624ZM51.75 51.3624H76.2498V49.7624H51.75V51.3624ZM51.0187 52.0936C51.0187 51.6899 51.3462 51.3624 51.75 51.3624V49.7624C50.4626 49.7624 49.4188 50.8062 49.4188 52.0936H51.0187ZM51.75 52.8249C51.3462 52.8249 51.0187 52.4974 51.0187 52.0936H49.4188C49.4188 53.381 50.4626 54.4249 51.75 54.4249V52.8249ZM70.9265 58.2186C70.9265 56.9312 69.8827 55.8873 68.5953 55.8873V57.4873C68.999 57.4873 69.3265 57.8148 69.3265 58.2186H70.9265ZM68.5953 60.5498C69.8827 60.5498 70.9265 59.506 70.9265 58.2186H69.3265C69.3265 58.6223 68.9991 58.9498 68.5953 58.9498V60.5498ZM53.2384 60.5498H68.5953V58.9498H53.2384V60.5498ZM51.5968 58.923C51.965 59.2931 52.2852 59.7067 52.5487 60.1551L53.9282 59.3445C53.5956 58.7785 53.1925 58.2583 52.7309 57.7944L51.5968 58.923ZM50.2809 57.6071L51.5982 58.9244L52.7295 57.793L51.4123 56.4758L50.2809 57.6071ZM50.3075 57.6323C50.311 57.6353 50.3082 57.6329 50.3046 57.6296C50.3004 57.6259 50.2918 57.6181 50.2811 57.6074L51.412 56.4755C51.3838 56.4474 51.357 56.4246 51.3555 56.4233L50.3075 57.6323ZM50.251 57.58C50.2792 57.6082 50.306 57.631 50.3075 57.6323L51.3555 56.4233C51.3521 56.4203 51.3549 56.4227 51.3585 56.4259C51.3627 56.4297 51.3712 56.4375 51.382 56.4482L50.251 57.58ZM51.7484 55.8874C51.23 55.8894 50.7277 56.0648 50.3207 56.3863L51.3123 57.6419C51.4385 57.5423 51.5938 57.488 51.7549 57.4873L51.7484 55.8874ZM68.5953 55.8873H51.7517V57.4873H68.5953V55.8873ZM55.5282 66.6748H76.2498V65.0748H55.5282V66.6748ZM57.7477 68.7814C57.4996 67.5323 56.9508 66.3618 56.1503 65.3718L54.9061 66.3778C55.5438 67.1665 55.9808 68.0988 56.1784 69.0931L57.7477 68.7814ZM76.2496 68.1373H56.963V69.7373H76.2496V68.1373ZM76.9809 67.406C76.9809 67.8098 76.6534 68.1373 76.2496 68.1373V69.7373C77.5371 69.7373 78.5809 68.6934 78.5809 67.406H76.9809ZM76.2498 66.6748C76.6535 66.6748 76.9809 67.0022 76.9809 67.406H78.5809C78.5809 66.1187 77.5373 65.0748 76.2498 65.0748V66.6748ZM68.5923 71.1997H57.108V72.7997H68.5923V71.1997ZM70.9235 73.5309C70.9235 72.2434 69.8797 71.1997 68.5923 71.1997V72.7997C68.9961 72.7997 69.3235 73.1271 69.3235 73.5309H70.9235ZM68.5922 75.8621C69.8796 75.8621 70.9235 74.8183 70.9235 73.5309H69.3235C69.3235 73.9346 68.996 74.2621 68.5922 74.2621V75.8621ZM56.4688 75.8621H68.5922V74.2621H56.4688V75.8621ZM56.308 72.161C56.305 73.0473 56.1119 73.9222 55.7418 74.7283L57.1959 75.3959C57.6611 74.3824 57.9042 73.2818 57.908 72.1665L56.308 72.161ZM56.308 71.9997V72.1638H57.908V71.9997H56.308Z" fill="#E6E6E6" mask="url(#path-1-inside-1_2305_57992)"/>
</svg>
