<svg width="128" height="128" viewBox="0 0 128 128" fill="none" xmlns="http://www.w3.org/2000/svg">
<path fill-rule="evenodd" clip-rule="evenodd" d="M59.6444 23.2809C59.507 23.4179 59.3947 23.898 59.3947 24.3473C59.3947 24.9914 58.7958 25.4602 56.5628 26.5641C52.8913 28.3791 50.1485 31.1099 48.3828 34.7084C46.7941 37.9456 46.1105 40.9543 46.8023 41.6636C48.0103 42.9022 59.9881 44.2046 67.0874 43.8695C72.1634 43.6298 80.64 42.3701 81.2446 41.7654C81.7814 41.2284 80.8773 37.3708 79.6184 34.8264C77.6299 30.8078 74.0692 27.4972 70.0634 25.944C68.9022 25.4935 68.5234 25.1224 68.3751 24.2908C68.1348 22.9394 66.7587 22.7637 66.5746 24.0609C66.4652 24.833 66.2579 24.9034 64.0886 24.9034C61.8762 24.9034 61.7066 24.8423 61.4869 23.9672C61.2638 23.0779 60.2317 22.6933 59.6444 23.2809ZM66.5072 29.3968C66.6704 31.5189 66.7902 31.8308 67.443 31.8308C68.0918 31.8308 68.2067 31.5436 68.304 29.6777C68.3658 28.4933 68.544 27.5246 68.7004 27.5246C68.8565 27.5246 69.9852 28.1162 71.2085 28.8393C74.9279 31.0381 77.7231 34.61 78.808 38.55C79.0315 39.3622 79.1381 40.1028 79.0449 40.1961C78.4774 40.7637 72.4172 41.4318 66.1328 41.619C60.4388 41.789 57.8652 41.701 54.431 41.2202C48.0754 40.3297 48.4112 40.5698 49.4021 37.6239C50.8033 33.4596 54.2251 29.675 58.0254 28.0866L59.3577 27.5302L59.4696 29.6769C59.5613 31.4297 59.711 31.848 60.2856 31.9577C61.2649 32.1442 61.6284 31.396 61.6351 29.1785C61.6381 28.1315 61.7605 27.1553 61.9065 27.0089C62.0529 26.8625 63.1055 26.7925 64.2462 26.8528L66.32 26.9629L66.5072 29.3968ZM56.6613 37.1237C56.1971 37.588 56.3835 38.6717 56.9664 38.8952C58.6876 39.5561 64.0545 39.8699 67.3154 39.5003C71.0303 39.0794 71.5256 38.8641 71.3021 37.7681C71.1804 37.1716 70.8967 37.0993 69.3016 37.2589C66.4739 37.5412 60.5391 37.4835 58.6266 37.1548C57.6896 36.9941 56.805 36.9799 56.6613 37.1237ZM46.4486 44.4098C45.9185 44.9954 45.7471 45.7286 45.7695 47.3118C45.8036 49.7196 46.4886 51.2859 48.2989 53.0968C49.1663 53.9644 49.6233 54.8425 49.8075 55.995C50.4843 60.2275 54.3842 65.2616 58.478 67.1863C66.4069 70.9144 75.5209 65.857 77.9474 56.3826C78.3969 54.6271 78.9004 53.6963 79.9883 52.6081C82.0018 50.5939 82.7412 47.6428 81.8315 45.2493C81.3681 44.0297 80.8601 43.6395 79.7236 43.6317C78.5662 43.6238 76.8011 45.2186 77.1014 46.0009C77.3619 46.6797 78.6777 46.846 79.0476 46.2472C79.5623 45.4141 79.9834 45.9623 79.9819 47.4642C79.9804 49.3372 78.9001 51.317 77.542 51.9359C76.5982 52.3662 76.4979 52.5991 76.0405 55.4214C75.4004 59.3715 72.2005 63.529 68.4612 65.2691C65.681 66.5629 62.2813 66.6314 59.6751 65.4462C55.5918 63.5889 52.1748 58.9083 51.6466 54.4489C51.449 52.7788 51.2547 52.4231 50.2006 51.8011C48.7541 50.9474 47.7902 49.0995 47.7902 47.1804C47.7902 46.0035 47.8898 45.8346 48.4453 46.0683C48.8058 46.2195 49.4796 46.4259 49.9426 46.5262C51.2749 46.8153 51.0878 45.0898 49.6978 44.2686C48.2566 43.4167 47.3095 43.4579 46.4486 44.4098ZM52.7828 47.5818C52.4253 48.5134 52.9493 51.8712 53.6097 52.8788C54.7956 54.6893 58.3447 55.4221 60.5084 54.3029C61.2638 53.9119 61.8032 53.1582 62.3172 51.7753C62.9169 50.1614 63.2268 49.7832 64.0298 49.6862C64.759 49.5979 65.0098 49.7353 65.0098 50.2232C65.0098 51.4278 66.5068 53.9906 67.4662 54.4276C68.9378 55.0982 71.4133 54.9469 72.7998 54.101C74.3428 53.1604 75.1896 51.2065 75.0425 48.9283L74.9298 47.1834L70.2506 47.077C67.0653 47.0048 65.2951 47.1186 64.7059 47.4335C64.0298 47.7952 63.6832 47.7979 63.1202 47.4462C62.6586 47.1579 60.7113 46.9961 57.7035 46.9961C53.7886 46.9961 52.9699 47.0935 52.7828 47.5818ZM60.8921 49.3743C60.8921 49.6525 60.703 50.4228 60.4717 51.0859C59.4385 54.0509 54.9026 53.0919 54.9026 49.9083V48.8684H57.8974C60.1629 48.8684 60.8921 48.9916 60.8921 49.3743ZM72.9301 50.179C72.8593 50.7969 72.5561 51.578 72.2555 51.9146C71.5327 52.7257 69.6273 53.081 68.6907 52.5796C67.8488 52.1288 66.7337 49.7851 67.0882 49.211C67.2188 48.9995 68.5616 48.8853 70.1884 48.9467L73.0581 49.0556L72.9301 50.179ZM50.1111 63.1726C49.864 63.4197 49.6574 63.9675 49.6518 64.3895C49.6439 64.9797 48.9304 65.493 46.5635 66.6108C44.1591 67.7461 42.8931 68.665 40.7796 70.8073L38.0738 73.5505L34.2286 72.4526C32.1136 71.8486 29.5943 71.1091 28.63 70.8088C25.9958 69.9887 25.9157 70.2029 26.4427 76.66C26.6831 79.6013 27.0248 82.1562 27.2026 82.3382C27.3801 82.5198 27.8151 82.5577 28.1688 82.4217C28.7479 82.1997 28.7872 81.7136 28.5645 77.5437L28.3171 72.9125L31.2219 73.81C38.8506 76.1676 49.4845 77.9627 57.9909 78.3289L63.5125 78.5667L63.5181 89.8355C63.5214 96.0335 63.6678 101.332 63.8438 101.609C64.0197 101.887 64.4805 102.054 64.8676 101.979C65.5388 101.85 65.5758 101.217 65.6694 88.3261L65.7679 74.8091L67.7283 74.5736C68.8067 74.4436 70.4737 74.3361 71.4327 74.3346C76.2527 74.3257 88.6782 72.1714 95.3553 70.1872C97.3879 69.5832 99.1825 69.0889 99.3435 69.0886C99.5045 69.0886 99.4951 72.1445 99.3225 75.88C99.0676 81.4028 99.1028 82.731 99.5097 82.989C100.948 83.9008 101.176 82.8954 101.494 74.2395C101.725 67.957 101.685 66.8145 101.224 66.6378C100.926 66.5235 98.6783 67.0193 96.2286 67.7394C93.7793 68.4595 90.6236 69.3114 89.2165 69.6326L86.6579 70.2164L85.165 68.938C84.3437 68.2348 82.4207 67.0493 80.8919 66.3034C78.5781 65.1751 78.1117 64.7958 78.1117 64.0447C78.1117 63.0142 77.6797 62.6251 76.8771 62.9333C76.4938 63.0804 76.2437 63.9971 76.0644 65.9128L75.805 68.6796L74.0288 67.9794C72.1335 67.232 71.2164 67.4335 71.4312 68.5501C71.5705 69.2743 75.3532 70.9612 76.8378 70.9612C77.7033 70.9612 78.0975 70.1082 78.1065 68.2153L78.1117 67.1545L80.7976 68.5995C82.2751 69.3945 83.5445 70.2273 83.619 70.4501C83.7983 70.9889 75.8844 72.0396 69.4345 72.3336C66.6921 72.4586 64.2379 72.7271 63.9804 72.9304C63.7228 73.1334 63.5125 74.0373 63.5125 74.9386C63.5125 76.8588 64.2024 76.7375 56.4 76.1886C51.3498 75.8332 41.6413 74.499 40.9233 74.0617C39.9949 73.4959 46.5657 68.3801 49.0068 67.7679C50.0055 67.5177 50.0362 67.5559 50.0362 69.0601C50.0362 71.1297 50.6595 71.3094 53.9384 70.1842C55.8037 69.5443 56.6235 69.0683 56.7163 68.5722C56.9155 67.5072 56.0792 67.2309 54.4246 67.815C51.991 68.6737 51.9079 68.6134 51.9079 65.981C51.9079 63.8896 51.5059 62.7232 50.7849 62.7232C50.6614 62.7232 50.3582 62.9254 50.1111 63.1726ZM24.1686 84.9235C22.2179 86.2363 21.8885 87.7457 22.0281 94.739C22.1363 100.142 22.2288 100.86 22.9719 102.055C25.5155 106.146 31.7 105.932 33.846 101.679C34.6138 100.158 34.6883 99.4852 34.6883 94.086C34.6883 87.3668 34.3551 86.0356 32.3711 84.8257C30.5118 83.6915 25.9172 83.7462 24.1686 84.9235ZM96.3858 85.4593C94.5868 86.5755 94.3955 87.4162 94.3955 94.2065C94.3955 99.9937 94.4572 100.572 95.1786 101.545C97.9019 105.222 102.493 105.222 105.217 101.546C105.938 100.572 106 99.9948 106 94.208C106 87.3331 105.757 86.3168 103.879 85.3458C102.413 84.5876 97.6751 84.6591 96.3858 85.4593ZM31.6797 86.8628C32.099 87.2424 32.4423 87.9393 32.4423 88.4107C32.4423 89.1679 32.2345 89.2817 30.6675 89.3825C29.2799 89.4719 28.8636 89.6502 28.7591 90.2006C28.5847 91.1184 29.3023 91.5434 31.0385 91.5505C32.3416 91.5558 32.4423 91.6352 32.4423 92.6589C32.4423 93.7085 32.3569 93.7673 30.6675 93.8759C29.2799 93.9654 28.8636 94.1436 28.7591 94.6941C28.5847 95.6119 29.3023 96.0369 31.0385 96.044C32.3416 96.0492 32.4423 96.1286 32.4423 97.1524C32.4423 98.2023 32.3569 98.2607 30.6642 98.3693C29.1735 98.4652 28.886 98.6045 28.886 99.2325C28.886 99.8458 29.1739 100.002 30.477 100.096C32.3232 100.23 32.4483 100.601 31.0774 101.872C29.1953 103.616 25.8898 103.087 24.7365 100.856C24.0848 99.5953 23.9777 88.565 24.6055 87.3915C25.1861 86.3063 26.3604 85.9315 28.7786 86.0592C30.2075 86.1348 31.1699 86.4014 31.6797 86.8628ZM102.562 87.1189C103.012 87.3555 103.504 87.7348 103.655 87.9614C103.806 88.1879 103.932 90.9402 103.936 94.0777L103.941 99.7822L102.856 100.997C101.456 102.565 99.2638 102.701 97.7855 101.312C96.4809 100.086 96.5786 99.7941 98.295 99.7941C99.1312 99.7941 99.8313 99.5931 99.9241 99.3261C100.267 98.3435 99.7186 97.9219 98.0988 97.9219C96.5943 97.9219 96.4543 97.8421 96.4543 96.9857C96.4543 96.1691 96.6183 96.0496 97.738 96.0496C99.3087 96.0496 100.436 95.1026 99.7905 94.3249C99.5524 94.0377 98.7041 93.8029 97.906 93.8029C96.5427 93.8029 96.4543 93.7347 96.4543 92.6795C96.4543 91.6007 96.5202 91.5562 98.1078 91.5562C99.0938 91.5562 99.8268 91.3674 99.9241 91.0881C100.267 90.1055 99.7186 89.6839 98.0988 89.6839C96.78 89.6839 96.4555 89.5539 96.46 89.0286C96.4727 87.5772 97.8293 86.716 100.129 86.6995C101.017 86.6935 102.112 86.8818 102.562 87.1189Z" fill="#16246B" stroke="#E6E6E6" stroke-width="0.8"/>
</svg>
