<svg width="88" height="88" viewBox="0 0 88 88" fill="none" xmlns="http://www.w3.org/2000/svg">
<circle cx="44.6875" cy="31.625" r="18.5625" stroke="#16246B" stroke-width="1.5" stroke-linejoin="round"/>
<circle cx="44.6875" cy="31.625" r="13.75" stroke="#16246B" stroke-width="1.5" stroke-linejoin="round"/>
<path d="M41.2812 37.3519V25.4375H45.9301C46.415 25.4375 46.8578 25.5376 47.2584 25.7379C47.6695 25.9382 48.0226 26.2123 48.3178 26.5602C48.613 26.8975 48.8449 27.277 49.0136 27.6987C49.1822 28.1098 49.2666 28.5315 49.2666 28.9637C49.2666 29.5751 49.1295 30.1549 48.8554 30.7031C48.5919 31.2407 48.2177 31.6782 47.7328 32.0155C47.2478 32.3528 46.6786 32.5215 46.025 32.5215H42.3881V37.3519H41.2812ZM42.3881 31.5411H45.9776C46.4203 31.5411 46.8051 31.4199 47.1319 31.1774C47.4587 30.935 47.7117 30.6187 47.8909 30.2287C48.0701 29.8386 48.1597 29.417 48.1597 28.9637C48.1597 28.4999 48.0543 28.0729 47.8434 27.6829C47.6326 27.2928 47.3533 26.9871 47.0054 26.7658C46.668 26.5338 46.2938 26.4179 45.8827 26.4179H42.3881V31.5411Z" fill="#16246B"/>
<line x1="39.875" y1="33.625" x2="46.75" y2="33.625" stroke="#16246B" stroke-width="1.5" stroke-linejoin="round"/>
<rect x="7.5625" y="61.1875" width="11.6875" height="19.25" stroke="#16246B" stroke-width="1.5" stroke-linejoin="round"/>
<path d="M19.25 64.625H27.8438L32.6562 59.8125H49.1563C51.4344 59.8125 53.2812 61.6593 53.2812 63.9375V63.9375C53.2812 66.2157 51.4344 68.0625 49.1563 68.0625H39.1875H59.8125L73.5218 61.7791C75.1398 61.0375 77.0564 61.5539 78.0828 63.008V63.008C79.3438 64.7943 78.7874 67.2788 76.8851 68.3568L59.8125 78.0312H19.25V64.625Z" stroke="#16246B" stroke-width="1.5" stroke-linejoin="round"/>
</svg>
