<svg width="128" height="128" viewBox="0 0 128 128" fill="none" xmlns="http://www.w3.org/2000/svg">
<path fill-rule="evenodd" clip-rule="evenodd" d="M100.921 13.647C100.395 13.8587 100.29 14.2715 100.29 16.1154V17.873L96.283 17.9161C92.583 17.9559 92.253 17.9806 91.9689 18.2378C91.6827 18.4971 91.6614 18.6667 91.6614 20.6869V22.8574H89.2646C87.1928 22.8574 86.8275 22.8921 86.5703 23.1133C86.3385 23.3128 85.868 24.9832 84.4396 30.6799C83.4312 34.7008 81.9403 40.6224 81.126 43.8391C80.3119 47.0558 79.4501 50.4772 79.211 51.4423C78.9719 52.4073 78.709 53.4106 78.6266 53.672L78.477 54.1472H77.1721H75.8674V51.3773C75.8674 48.6601 75.8606 48.5996 75.5145 48.1972L75.1616 47.7869L65.8992 47.7432C60.8049 47.7192 56.3567 47.7397 56.0142 47.7888C55.0352 47.9293 54.9549 48.2058 54.9549 51.4349V54.1472H51.7377H48.5204V49.5415C48.5204 45.1306 48.5079 44.9233 48.2279 44.6433C47.9565 44.3719 47.7405 44.3509 45.2299 44.3509H42.5245V42.5487C42.5245 39.8862 43.079 40.1107 36.4988 40.1107C31.6154 40.1107 31.1243 40.1329 30.8535 40.3666C30.6904 40.5072 29.4522 42.0041 28.1018 43.6929C24.0015 48.8212 21.1029 52.4269 20.4638 53.1942L19.8572 53.9225V61.8347C19.8572 69.6921 19.8594 69.7487 20.165 70.0253C20.4553 70.288 20.8012 70.3057 26.2706 70.3382L32.0683 70.3726L32.1562 70.7768C32.2928 71.4061 32.7006 72.2896 33.0902 72.8002C33.2853 73.0559 33.4051 73.3049 33.3565 73.3536C33.3078 73.4023 29.3507 73.4433 24.5629 73.4451C16.6757 73.4479 15.8328 73.4708 15.5908 73.6897C15.2293 74.0168 15.243 74.8289 15.6162 75.202C15.9072 75.493 16.1036 75.4944 56.8561 75.4944H97.8035V79.7346C97.8035 83.6903 97.7861 83.9748 97.5452 83.9748C96.949 83.9748 93.085 85.0671 89.5409 86.2372C84.3563 87.9492 81.286 88.875 77.6222 89.8311C74.9281 90.5341 70.9181 91.2279 67.8241 91.5262C61.6936 92.1172 56.6961 91.3235 48.0691 88.3889C45.9445 87.6662 42.0675 86.3429 39.4534 85.4482C36.8394 84.5536 33.6148 83.5263 32.2876 83.1653C27.0019 81.7277 22.082 80.9666 17.5549 80.8864C15.6247 80.8521 15.3237 80.9953 15.3237 81.9472C15.3237 82.8095 15.5636 82.887 18.8335 83.0815C20.4019 83.1748 21.9704 83.2917 22.3189 83.3414L22.9524 83.4316L19.1381 87.2553C15.7379 90.6637 15.3237 91.1298 15.3237 91.5477C15.3237 92.1586 15.769 92.6015 16.3831 92.6015C16.81 92.6015 17.2964 92.1628 21.2456 88.2162L25.6337 83.8308L27.6811 84.2525C30.1451 84.76 30.9715 84.9758 30.9715 85.1118C30.9715 85.1681 27.4507 88.7364 23.1476 93.0414C17.362 98.8297 15.3237 100.956 15.3237 101.204C15.3237 101.694 15.5833 102.1 15.9978 102.258C16.4436 102.427 16.921 102.223 18.2433 101.299C22.1867 98.5423 27.3554 97.2648 32.8279 97.6944C36.7106 97.9991 39.4938 98.5193 46.7655 100.3C58.5073 103.175 64.6729 103.945 71.7726 103.424C79.0455 102.891 84.3356 101.566 93.0103 98.1033C95.1597 97.2454 97.1176 96.5036 97.3609 96.4549L97.8035 96.3665V104.182V111.997L98.1331 112.307C98.4414 112.596 98.6442 112.619 101.268 112.659C103.926 112.7 104.096 112.687 104.485 112.396L104.896 112.09L104.934 104.102L104.972 96.1156L105.3 96.0406C105.48 95.9992 107.503 95.7376 109.795 95.4591C113.549 95.0032 113.989 94.9216 114.219 94.6382C114.731 94.0086 114.453 93.1502 113.672 92.9544C113.484 92.907 111.984 93.0385 110.339 93.2466C108.694 93.4548 107.258 93.625 107.148 93.625C107.037 93.625 108.161 92.4089 109.646 90.9225L112.346 88.2202L113.1 88.3088C113.744 88.3844 113.899 88.3519 114.164 88.0868C114.335 87.916 114.475 87.5904 114.475 87.3632C114.475 86.5226 114.66 86.5962 105.664 83.8709L104.969 83.6605V79.5775V75.4944H109.419H113.869L114.172 75.1092C114.525 74.6596 114.559 74.2032 114.268 73.8043C114.072 73.5369 113.8 73.5163 109.551 73.4474L105.042 73.3743L104.969 62.4318L104.896 51.4895L104.551 51.2099C104.298 51.0055 103.974 50.9305 103.344 50.9305H102.483L102.481 32.7634C102.48 22.7715 102.439 14.4456 102.389 14.2615C102.34 14.0773 102.114 13.8306 101.887 13.7132C101.42 13.472 101.365 13.4682 100.921 13.647ZM100.29 35.5049V50.9305H99.4318C98.7862 50.9305 98.4791 51.0052 98.1897 51.2329L97.8054 51.5351L97.7678 62.4548L97.7303 73.3743L93.5259 73.4039C89.7071 73.4308 88.9944 73.3743 89.466 73.0829C89.7351 72.9167 90.4028 71.6442 90.5733 70.9723L90.7431 70.3043L91.9177 70.304C92.8672 70.3038 93.1514 70.2505 93.4006 70.0253L93.7087 69.7468V44.9131V20.0794H96.9991H100.29V35.5049ZM91.597 25.0939C91.6371 25.1982 91.6514 26.2234 91.629 27.3725L91.5882 29.4615L90.0527 28.2581C87.6919 26.408 87.7184 26.4378 87.8823 25.8056C87.9588 25.5109 88.0485 25.1878 88.0818 25.0872C88.1699 24.8217 91.4949 24.828 91.597 25.0939ZM89.5894 30.6068C90.1606 31.0491 90.6301 31.4498 90.6328 31.4975C90.6388 31.6037 85.924 34.1307 85.8528 34.0595C85.8247 34.0314 86.1001 32.8447 86.4648 31.4224C86.8296 29.9998 87.1279 28.8038 87.1279 28.7643C87.1279 28.725 87.4482 28.9424 87.8395 29.2476C88.2308 29.5529 89.0183 30.1645 89.5894 30.6068ZM91.6614 37.2595C91.6614 39.3102 91.6121 40.9865 91.5517 40.9846C91.4913 40.9827 91.2035 40.7689 90.912 40.5094C90.6204 40.2499 89.424 39.248 88.2532 38.283C86.6365 36.9504 86.1661 36.4882 86.2971 36.3613C86.3922 36.2693 87.3911 35.7149 88.5172 35.129C89.6432 34.5431 90.762 33.9443 91.0033 33.798C91.2446 33.6518 91.4913 33.5319 91.5517 33.5316C91.6121 33.5313 91.6614 35.2089 91.6614 37.2595ZM88.5537 41.325C89.6195 42.2105 90.4904 42.9738 90.4891 43.0215C90.4865 43.1212 82.8827 46.1503 82.8129 46.0794C82.7726 46.0382 84.5435 38.8908 84.7208 38.3802C84.7665 38.2481 85.084 38.4324 85.7022 38.95C86.2048 39.371 87.4879 40.4397 88.5537 41.325ZM39.9233 42.2839L40.4662 42.3039L40.4521 48.9695C40.4382 55.5335 40.4426 55.6398 40.742 55.9391C41.1586 56.3556 41.9055 56.3413 42.2548 55.91C42.5042 55.6022 42.5245 55.2298 42.5245 50.9831V46.3894L44.4622 46.4302L46.3999 46.471V57.2908V68.1106L45.425 68.1536L44.45 68.1966L44.2225 67.4226C43.6984 65.6392 42.194 64.0539 40.3483 63.34C39.1602 62.8803 37.3537 62.8942 36.163 63.3718C35.2865 63.7236 35.2791 63.7239 28.5951 63.7635L21.9046 63.803V59.3242V54.8454L25.3269 50.585C27.2091 48.2419 29.4674 45.4365 30.3453 44.3509L31.9415 42.377L34.1984 42.3039C36.2401 42.2378 38.4684 42.2299 39.9233 42.2839ZM33.4397 45.033C33.3093 45.0678 32.9821 45.3726 32.7125 45.7105C32.443 46.0483 32.1696 46.3906 32.105 46.471C32.0405 46.5514 31.249 47.5411 30.3462 48.6703C29.4434 49.7997 28.3586 51.1485 27.9357 51.6677C25.2039 55.0216 25.1096 55.2005 25.6938 55.9221L25.9731 56.2673L31.2126 56.311C34.0943 56.335 36.6025 56.3169 36.7864 56.2707C36.9706 56.2245 37.2509 56.0569 37.4097 55.8981C37.686 55.6219 37.6986 55.3929 37.6986 50.6315V45.6535L37.3395 45.2947C36.9985 44.9536 36.8988 44.9366 35.3287 44.9527C34.4203 44.9621 33.5702 44.9982 33.4397 45.033ZM91.6614 49.1759V53.2699L90.4348 52.5023C85.7431 49.566 83.6298 48.2153 83.6244 48.1497C83.6209 48.108 84.1281 47.88 84.7515 47.6433C85.3749 47.4066 87.0694 46.7375 88.5172 46.1565C89.965 45.5754 91.2647 45.096 91.4054 45.091C91.6432 45.0825 91.6614 45.371 91.6614 49.1759ZM35.5049 50.6381V54.1472H32.1414C30.2915 54.1472 28.7779 54.1263 28.7779 54.1006C28.7779 54.075 29.3061 53.4006 29.9516 52.6019C30.5971 51.8033 31.8309 50.2471 32.6936 49.1438L34.2619 47.1376L34.8834 47.1333L35.5049 47.1289V50.6381ZM85.7301 52.0597C87.4144 53.1315 88.8238 54.0396 88.862 54.0778C88.9003 54.1159 87.0852 54.1472 84.8284 54.1472H80.7253L81.1559 52.4292C81.3928 51.4844 81.6526 50.4594 81.7335 50.1518L81.8805 49.5922L82.274 49.8517C82.4905 49.9944 84.0457 50.988 85.7301 52.0597ZM73.6738 52.0271V54.1472H65.4112H57.1486V52.0271V49.907H65.4112H73.6738V52.0271ZM102.921 81.5541C102.92 97.1908 102.88 110.087 102.832 110.212C102.761 110.397 102.472 110.44 101.298 110.44H99.8508V81.7816V53.1237H101.387H102.923L102.921 81.5541ZM91.5568 56.3371C91.62 56.339 91.6529 57.0149 91.6299 57.8391L91.5882 59.3378H70.0909H48.5935L48.5518 57.8401L48.5101 56.3425L58.2037 56.3049C65.3171 56.2773 90.3428 56.3014 91.5568 56.3371ZM91.6276 64.7843L91.5882 68.1106H91.1757C90.8025 68.1106 90.7354 68.028 90.4708 67.2449C89.7161 65.0094 87.8803 63.4793 85.4444 63.0553C82.5305 62.5479 79.3941 64.5331 78.5561 67.4154L78.3292 68.196L77.3068 68.1533L76.2844 68.1106L75.9969 67.2576C75.6226 66.1471 75.1922 65.4842 74.3152 64.6666C70.9505 61.5303 65.5181 62.9911 64.0897 67.4161L63.842 68.1837H56.1812H48.5204V64.8208V61.4579H70.0936H91.6669L91.6276 64.7843ZM40.013 65.5623C41.0578 66.0843 41.6827 66.7761 42.0887 67.8603C42.6797 69.4384 42.3415 70.8771 41.0856 72.1284C40.1608 73.0499 39.3539 73.3727 38.0511 73.3422C36.6306 73.309 35.2234 72.3954 34.5683 71.0808C34.0737 70.0886 34.0355 68.5066 34.483 67.5546C35.4992 65.3931 37.9251 64.519 40.013 65.5623ZM71.5645 65.4225C73.1645 66.0209 74.1597 67.4663 74.1708 69.2072C74.1948 72.9472 69.6126 74.7746 67.0852 72.033C65.9777 70.8318 65.6602 69.3147 66.2109 67.8564C67.0476 65.6406 69.3499 64.5939 71.5645 65.4225ZM86.0148 65.4121C88.1922 66.2267 89.2598 68.7894 88.311 70.9241C87.1153 73.6143 83.4941 74.1746 81.5165 71.9754C79.8906 70.1674 80.1382 67.4421 82.0593 65.9974C83.2895 65.0723 84.5913 64.8796 86.0148 65.4121ZM32.826 66.0271C32.5781 66.6084 32.1471 67.7084 32.0812 67.9279C32.0099 68.1652 31.6372 68.1837 26.9544 68.1837H21.9046V67.014V65.8443H27.4042C31.748 65.8443 32.8875 65.8828 32.826 66.0271ZM63.8391 70.4477C63.9397 70.4841 64.0219 70.6441 64.0219 70.8032C64.0219 70.9621 64.2851 71.6009 64.6068 72.2225C64.9286 72.8442 65.1918 73.3742 65.1918 73.4004C65.1918 73.4265 60.2233 73.4461 54.1506 73.4438C48.078 73.4414 43.1095 73.4113 43.1095 73.3768C43.1095 73.3423 43.306 72.9809 43.5463 72.5735C43.7864 72.1662 44.0898 71.5062 44.2204 71.1068L44.4579 70.3809L49.085 70.3424C54.7736 70.2949 63.591 70.3579 63.8391 70.4477ZM78.6272 71.2351C78.7993 71.7072 79.1044 72.3352 79.3049 72.6307C79.5055 72.9262 79.6696 73.2309 79.6696 73.3077C79.6696 73.4841 75.0377 73.4969 74.9289 73.3208C74.8858 73.2511 74.9756 73.0809 75.1286 72.9426C75.3655 72.7282 75.9437 71.5006 76.2164 70.6328C76.2828 70.4217 76.4731 70.3769 77.3056 70.3769H78.3143L78.6272 71.2351ZM111.843 76.4157C110.772 76.9539 111.13 78.5467 112.324 78.5602C112.864 78.5664 113.451 77.976 113.451 77.4274C113.451 76.6709 112.511 76.0796 111.843 76.4157ZM25.6736 76.6276C25.1717 77.1991 25.2402 77.9168 25.8403 78.3775C26.2248 78.6725 26.8596 78.5953 27.2489 78.206C27.6876 77.7675 27.707 77.268 27.3048 76.757C26.936 76.2881 26.0347 76.2166 25.6736 76.6276ZM76.463 76.757C76.0608 77.268 76.0801 77.7675 76.5189 78.206C77.2422 78.9293 78.412 78.4896 78.412 77.4945C78.412 76.777 78.017 76.3717 77.3178 76.3717C76.8959 76.3717 76.6946 76.4624 76.463 76.757ZM86.2222 76.6276C85.8765 77.03 85.8117 77.3516 85.9795 77.8328C86.2578 78.631 87.1781 78.8205 87.7926 78.206C88.5309 77.4679 88.0565 76.3717 86.9986 76.3717C86.6497 76.3717 86.36 76.4672 86.2222 76.6276ZM94.1822 76.6631C93.7402 77.075 93.7539 77.7461 94.214 78.206C95.1575 79.1495 96.5258 78.1324 95.9268 76.933C95.7191 76.5171 95.5961 76.4384 95.0963 76.4015C94.6622 76.3695 94.4243 76.4377 94.1822 76.6631ZM33.7755 77.2949C33.081 78.0342 33.5589 79.2083 34.5544 79.2083C35.2262 79.2083 35.6512 78.7585 35.6512 78.0476C35.6512 77.1021 34.4207 76.6083 33.7755 77.2949ZM39.6662 77.3155C39.4688 77.5129 39.3072 77.833 39.3072 78.0269C39.3072 78.4387 39.7822 79.0952 40.1691 79.2179C40.8607 79.4374 41.7616 78.6024 41.5864 77.9043C41.3516 76.9691 40.3268 76.6549 39.6662 77.3155ZM106.791 77.3155C106.401 77.7048 106.324 78.3395 106.619 78.7239C107.271 79.5732 108.434 79.3133 108.697 78.259C108.768 77.9734 108.696 77.7664 108.403 77.4183C107.915 76.8389 107.306 76.8 106.791 77.3155ZM20.07 77.7542C19.3465 78.4773 19.7863 79.6469 20.7816 79.6469C21.4992 79.6469 21.9046 79.252 21.9046 78.5529C21.9046 77.5312 20.7817 77.0424 20.07 77.7542ZM46.2296 77.7714C45.9157 78.0855 45.8677 78.2368 45.9404 78.6848C46.1371 79.8965 47.6556 80.0508 48.0919 78.9036C48.5207 77.776 47.0931 76.9082 46.2296 77.7714ZM53.3796 77.5751C52.3867 78.0536 53.0724 79.9452 54.1416 79.6769C55.0882 79.4393 55.407 78.4187 54.7422 77.7542C54.3603 77.3723 53.9206 77.3145 53.3796 77.5751ZM60.7249 77.7542C59.8771 78.6016 60.762 80.0215 61.8745 79.5987C62.7816 79.2537 62.93 78.1158 62.1294 77.6429C61.5501 77.3008 61.1462 77.3328 60.7249 77.7542ZM69.4993 77.7542C69.0055 78.2478 69.0218 78.9077 69.5397 79.3877C70.2647 80.0594 71.3339 79.562 71.3339 78.5529C71.3339 77.5312 70.2111 77.0424 69.4993 77.7542ZM82.9417 77.5392C82.7709 77.6082 82.5596 77.8697 82.4722 78.1203C82.0418 79.3546 83.4565 80.2205 84.3452 79.2666C85.1923 78.3577 84.1357 77.0572 82.9417 77.5392ZM90.5843 77.6983C89.7751 78.3346 90.2542 79.6469 91.2958 79.6469C92.3167 79.6469 92.7682 78.4886 92.0335 77.7542C91.595 77.3155 91.0954 77.2962 90.5843 77.6983ZM65.6971 78.426C65.5393 78.6003 65.4258 78.9445 65.4258 79.2491C65.4258 80.2442 66.5956 80.6839 67.3189 79.9605C67.7576 79.522 67.7769 79.0226 67.3747 78.5116C66.9857 78.0171 66.1078 77.9722 65.6971 78.426ZM29.9585 78.9502C29.5563 79.4612 29.5756 79.9607 30.0143 80.3992C30.764 81.1488 31.9074 80.7032 31.9074 79.6615C31.9074 78.9715 31.5016 78.5649 30.8132 78.5649C30.3913 78.5649 30.1901 78.6556 29.9585 78.9502ZM56.8448 80.0158C56.6097 80.2509 56.4174 80.5849 56.4174 80.7581C56.4174 81.201 57.187 81.9278 57.6559 81.9278C58.1866 81.9278 58.7572 81.3218 58.7572 80.7581C58.7572 80.1945 58.1866 79.5884 57.6559 79.5884C57.4269 79.5884 57.1 79.7608 56.8448 80.0158ZM74.0394 80.1959C73.2928 80.6042 73.1574 81.4247 73.7403 82.0075C74.2282 82.4953 74.7659 82.4668 75.3086 81.9242C75.8302 81.4026 75.7934 80.89 75.1957 80.356C74.7912 79.9948 74.4848 79.9524 74.0394 80.1959ZM80.3007 80.1711C79.6073 80.4572 79.4617 81.4408 80.0286 82.0075C80.2261 82.2049 80.558 82.3665 80.7664 82.3665C81.6377 82.3665 82.2338 80.9912 81.6073 80.4267C81.2674 80.1203 80.6949 80.0085 80.3007 80.1711ZM35.8903 80.915C35.0529 81.5736 35.6858 83.098 36.7116 82.8929C37.3912 82.7569 37.6986 82.4071 37.6986 81.7696C37.6986 81.1512 37.1877 80.6119 36.6017 80.6119C36.4223 80.6119 36.1022 80.7483 35.8903 80.915ZM50.3681 80.915C49.8238 81.343 49.8238 82.2203 50.3681 82.6482C50.8792 83.0503 51.3788 83.031 51.8174 82.5924C52.5358 81.874 52.0657 80.6119 51.0796 80.6119C50.9001 80.6119 50.58 80.7483 50.3681 80.915ZM85.3196 81.0612C84.6918 81.555 84.8047 82.5088 85.5358 82.8867C86.6704 83.4735 87.6786 82.0265 86.7689 81.1171C86.3303 80.6785 85.8307 80.6591 85.3196 81.0612ZM93.1806 81.1006C92.8962 81.3452 92.7826 81.5813 92.7826 81.9278C92.7826 82.5019 93.3734 83.0976 93.9429 83.0976C94.4563 83.0976 95.0249 82.4829 95.0249 81.9278C95.0249 81.3728 94.4563 80.7581 93.9429 80.7581C93.7427 80.7581 93.3996 80.9122 93.1806 81.1006ZM107.124 81.1959C106.565 81.6356 106.558 82.5069 107.109 82.9407C107.621 83.3428 108.12 83.3235 108.559 82.8848C109.555 81.8882 108.229 80.3268 107.124 81.1959ZM111.658 81.3795C111.34 81.6207 111.096 82.2984 111.211 82.621C111.631 83.8061 113.451 83.5565 113.451 82.3139C113.451 81.4858 112.305 80.8884 111.658 81.3795ZM89.3665 81.6382C88.8667 81.8373 88.5485 82.4277 88.6621 82.9452C88.8889 83.9776 90.2337 84.1662 90.7162 83.2332C91.0077 82.6699 90.9862 82.4444 90.6011 82.021C90.209 81.5897 89.8037 81.4641 89.3665 81.6382ZM40.6488 82.12C40.2487 82.5459 40.2431 83.0927 40.634 83.5896C40.8698 83.8895 41.065 83.9748 41.5135 83.9748C42.0062 83.9748 42.1327 83.9058 42.3837 83.4996C42.5695 83.1986 42.6469 82.8905 42.5945 82.6589C42.4008 81.8005 41.2488 81.4816 40.6488 82.12ZM62.1668 82.3643C61.4801 82.6478 61.3136 83.7153 61.8742 84.2418C62.3002 84.6419 62.8471 84.6474 63.344 84.2566C64.3266 83.484 63.3312 81.8838 62.1668 82.3643ZM69.9644 82.5234C69.3365 83.0171 69.4494 83.9709 70.1805 84.3489C70.9841 84.7644 71.7726 84.2424 71.7726 83.2949C71.7726 82.7617 71.2201 82.2203 70.6758 82.2203C70.4964 82.2203 70.1763 82.3567 69.9644 82.5234ZM65.7934 82.9148C64.9958 83.5768 65.4721 84.9008 66.508 84.9008C67.0821 84.9008 67.6779 84.3101 67.6779 83.7408C67.6779 82.8838 66.4691 82.3539 65.7934 82.9148ZM54.5893 82.9799C54.1705 83.2173 54.0823 83.3941 54.0797 84.0007C54.0756 85.0083 55.2055 85.4922 55.9121 84.7856C56.401 84.2969 56.3894 83.6318 55.8842 83.1637C55.4662 82.7765 55.0519 82.7175 54.5893 82.9799ZM45.1845 83.6881C44.7811 84.0637 44.7447 84.9925 45.1203 85.3276C45.8357 85.966 47.058 85.4738 47.058 84.5474C47.058 83.5953 45.8693 83.0502 45.1845 83.6881ZM77.6499 84.273C77.2341 84.6601 77.2201 85.4735 77.6222 85.8756C77.8033 86.0566 78.1097 86.168 78.4266 86.168C79.0877 86.168 79.5234 85.7426 79.5234 85.0969C79.5234 84.1326 78.353 83.6179 77.6499 84.273ZM59.1228 84.8219C58.2986 84.9922 58.0055 86.1577 58.6386 86.7472C59.5506 87.5967 60.9653 86.4106 60.3689 85.2965C60.2024 84.9853 59.5444 84.7347 59.1228 84.8219ZM83.0331 84.8961C82.4947 85.1669 82.2664 85.73 82.4646 86.2985C82.7478 87.111 83.663 87.3062 84.2828 86.6864C84.7303 86.2391 84.7411 85.7088 84.3128 85.2377C83.8897 84.7724 83.4909 84.666 83.0331 84.8961ZM50.3029 85.8813C49.8871 86.2685 49.8731 87.0819 50.2752 87.484C50.4563 87.665 50.7627 87.7764 51.0796 87.7764C51.7407 87.7764 52.1764 87.3509 52.1764 86.7052C52.1764 85.741 51.006 85.2263 50.3029 85.8813ZM73.5275 85.8756C73.3465 86.0566 73.235 86.3629 73.235 86.6798C73.235 87.3408 73.6606 87.7764 74.3064 87.7764C75.2973 87.7764 75.8018 86.5695 75.0902 85.9011C74.6594 85.4965 73.9189 85.4844 73.5275 85.8756ZM34.7654 86.1043C36.5415 86.6365 38.1917 87.2019 38.3199 87.3224C38.3802 87.379 36.6206 89.2314 34.4097 91.4389L30.3902 95.4526L28.7584 95.5567C27.1135 95.6617 24.79 96.0609 23.4401 96.4704C23.0379 96.5925 22.6434 96.693 22.5632 96.6938C22.4831 96.6947 24.8851 94.2282 27.901 91.2129C30.9169 88.1975 33.4137 85.7301 33.4492 85.7298C33.4849 85.7296 34.0772 85.8981 34.7654 86.1043ZM107.315 86.6241C108.398 86.9554 109.431 87.2592 109.612 87.2992C109.793 87.3391 109.941 87.4142 109.941 87.4661C109.941 87.5179 108.823 88.6774 107.455 90.0427L104.969 92.5251V89.2735C104.969 86.7165 105.009 86.0218 105.158 86.0218C105.262 86.0218 106.232 86.2929 107.315 86.6241ZM91.5881 92.4514L85.2999 98.735L83.0586 99.3367C80.717 99.9652 76.8662 100.792 76.7512 100.69C76.6322 100.585 88.3595 88.928 88.7365 88.7765C89.3996 88.5102 94.9298 86.7747 96.0486 86.4818C98.1952 85.9198 98.4032 85.6414 91.5881 92.4514ZM55.7527 87.1119C55.0842 87.7801 55.4156 88.8508 56.3466 89.0302C57.4266 89.2383 58.0747 87.7423 57.2019 87.056C56.6908 86.6539 56.1913 86.6732 55.7527 87.1119ZM64.0325 87.5768C63.8658 87.7887 63.7294 88.1087 63.7294 88.2881C63.7294 88.8324 64.2709 89.3848 64.8043 89.3848C65.7519 89.3848 66.274 88.5964 65.8584 87.7929C65.4803 87.062 64.5264 86.9491 64.0325 87.5768ZM68.4258 87.4474C67.6083 88.126 68.0726 89.3848 69.1403 89.3848C70.1741 89.3848 70.6681 88.2671 69.9512 87.5505C69.5249 87.1241 68.8686 87.0798 68.4258 87.4474ZM45.3538 89.7583C45.578 89.8474 45.0722 90.4178 42.3809 93.1106L39.1376 96.3557L38.3815 96.2273C37.9657 96.1566 36.7187 95.9854 35.6104 95.847C34.5022 95.7084 33.5842 95.5335 33.5705 95.4583C33.5567 95.3832 35.1544 93.6991 37.1209 91.7161L40.6965 88.1108L42.8901 88.8809C44.0966 89.3045 45.2052 89.6993 45.3538 89.7583ZM61.0753 88.3816C60.8622 88.4588 60.6079 88.7148 60.5102 88.9505C60.1354 89.8554 60.7864 90.6728 61.7398 90.4939C62.3686 90.3759 62.618 90.0771 62.618 89.4409C62.618 88.6171 61.8603 88.0969 61.0753 88.3816ZM97.8035 91.7973C97.8035 94.0937 97.7897 94.2098 97.5176 94.2098C97.1641 94.2098 94.6758 95.1011 92.2551 96.0948C91.2545 96.5057 90.3779 96.8417 90.3073 96.8417C90.2365 96.8417 91.8601 95.1639 93.9154 93.1132C95.9705 91.0626 97.686 89.3848 97.7277 89.3848C97.7694 89.3848 97.8035 90.4704 97.8035 91.7973ZM78.5708 95.7307L73.0869 101.199L71.4426 101.297C70.5383 101.351 69.0252 101.373 68.0802 101.348L66.362 101.301L70.6716 96.9879L74.981 92.6746L78.5317 91.7715C80.4848 91.275 82.4774 90.7387 82.96 90.5799C83.4426 90.4211 83.8863 90.2847 83.946 90.2767C84.0058 90.2686 81.5868 92.723 78.5708 95.7307ZM50.6381 91.494C51.8429 91.8721 52.8564 92.2092 52.89 92.2428C52.9238 92.2764 51.6227 93.6247 49.9988 95.2389C47.8965 97.3288 46.9745 98.1525 46.7963 98.1001C46.6587 98.0596 45.4932 97.7823 44.2063 97.4837C42.9193 97.1853 41.8366 96.9162 41.8 96.886C41.7635 96.8556 43.1125 95.4484 44.7979 93.7586C47.126 91.4247 47.9326 90.701 48.1548 90.7466C48.3156 90.7795 49.433 91.1159 50.6381 91.494ZM58.1722 93.3192C59.2581 93.5001 60.3713 93.6807 60.6459 93.7207L61.1453 93.7934L58.088 96.8528C56.315 98.6269 54.9172 99.9121 54.7606 99.9121C54.4959 99.9121 50.1145 98.9542 49.698 98.8052C49.5562 98.7544 50.4469 97.7662 52.4035 95.8035C55.0712 93.1275 55.358 92.8822 55.7593 92.9341C56.0006 92.9652 57.0864 93.1385 58.1722 93.3192ZM67.3113 97.2908L63.3638 101.249L62.3411 101.153C61.0064 101.028 57.7376 100.55 57.6556 100.468C57.6205 100.433 59.0393 98.961 60.8084 97.1973L64.0251 93.9905L65.0837 93.8867C66.8648 93.712 70.5081 93.3786 70.8942 93.3549C71.183 93.3372 70.4391 94.1544 67.3113 97.2908Z" fill="#16246B" stroke="#E6E6E6"/>
</svg>
