<svg width="88" height="88" viewBox="0 0 88 88" fill="none" xmlns="http://www.w3.org/2000/svg">
<mask id="path-1-inside-1_3222_60398" fill="white">
<path d="M22.9805 20H33.659V46.6962C33.659 52.5938 38.4399 57.3747 44.3375 57.3747C50.235 57.3747 55.016 52.5938 55.016 46.6962V20H65.6945V46.524C65.6945 58.3191 56.1326 67.881 44.3375 67.881C32.5423 67.881 22.9805 58.3191 22.9805 46.524V20Z"/>
</mask>
<path d="M22.9805 20V18H20.9805V20H22.9805ZM65.6945 20H67.6945V18H65.6945V20ZM33.659 20H35.659V18H33.659V20ZM55.016 20V18H53.016V20H55.016ZM63.6945 20V46.524H67.6945V20H63.6945ZM24.9805 46.524V20H20.9805V46.524H24.9805ZM22.9805 22H33.659V18H22.9805V22ZM31.659 20V46.6962H35.659V20H31.659ZM55.016 22H65.6945V18H55.016V22ZM57.016 46.6962V20H53.016V46.6962H57.016ZM31.659 46.6962C31.659 53.6984 37.3353 59.3747 44.3375 59.3747V55.3747C39.5445 55.3747 35.659 51.4892 35.659 46.6962H31.659ZM44.3375 65.881C33.6469 65.881 24.9805 57.2146 24.9805 46.524H20.9805C20.9805 59.4237 31.4378 69.881 44.3375 69.881V65.881ZM44.3375 59.3747C51.3396 59.3747 57.016 53.6984 57.016 46.6962H53.016C53.016 51.4892 49.1305 55.3747 44.3375 55.3747V59.3747ZM63.6945 46.524C63.6945 57.2146 55.028 65.881 44.3375 65.881V69.881C57.2372 69.881 67.6945 59.4237 67.6945 46.524H63.6945Z" fill="#16246B" mask="url(#path-1-inside-1_3222_60398)"/>
<path d="M15.9191 24.1328L11.6133 28.4387L15.9191 32.7445L11.6133 37.0503L15.9191 41.3562L11.6133 45.662L15.9191 49.9679" stroke="#16246B" stroke-width="2"/>
<path d="M72.5809 24.1328L76.8867 28.4387L72.5809 32.7445L76.8867 37.0503L72.5809 41.3562L76.8867 45.662L72.5809 49.9679" stroke="#16246B" stroke-width="2"/>
<path d="M7.30585 27.2344L3 31.5402L7.30585 35.8461L3 40.1519L7.30585 44.4578" stroke="#16246B" stroke-width="2"/>
<path d="M81.1942 27.2344L85.5 31.5402L81.1942 35.8461L85.5 40.1519L81.1942 44.4578" stroke="#16246B" stroke-width="2"/>
</svg>
