<svg width="84" height="85" viewBox="0 0 84 85" fill="none" xmlns="http://www.w3.org/2000/svg">
<path d="M21.9219 52.3966L31.8214 62.2961L16.265 77.8525C13.5314 80.5861 9.0992 80.5861 6.36553 77.8525C3.63186 75.1188 3.63186 70.6867 6.36553 67.953L21.9219 52.3966Z" stroke="#16246B" stroke-width="2"/>
<rect x="30.4062" y="49.5685" width="6" height="7.91521" transform="rotate(45 30.4062 49.5685)" stroke="#16246B" stroke-width="2"/>
<circle cx="51.6172" cy="32.598" r="27" transform="rotate(45 51.6172 32.598)" stroke="#16246B" stroke-width="2"/>
<circle cx="51.6172" cy="32.5969" r="20" transform="rotate(45 51.6172 32.5969)" stroke="#16246B" stroke-width="2"/>
<circle cx="51.6172" cy="32.5969" r="3.24074" transform="rotate(45 51.6172 32.5969)" stroke="#16246B" stroke-width="2"/>
<path d="M15.2031 59.1133L24.3955 68.3057" stroke="#16246B" stroke-width="2"/>
<path d="M51.2188 22.498C42.0188 22.498 36.7188 29.498 35.2188 32.998C36.7188 36.3314 42.0188 42.998 51.2188 42.998C60.4188 42.998 66.3854 36.3314 68.2188 32.998C66.3854 29.498 60.4188 22.498 51.2188 22.498Z" stroke="#16246B" stroke-width="2"/>
</svg>
