<svg width="148" height="60" viewBox="0 0 148 60" fill="none" xmlns="http://www.w3.org/2000/svg">
<g opacity="0.6">
<path d="M18.9922 41.749C19.8672 42.1044 20.6592 42.4295 21.4512 42.7621C24.2648 43.934 27.0633 45.1361 29.8995 46.2475C30.8801 46.6331 31.9512 46.7994 32.9922 47.0565C38.823 48.493 44.6538 49.9295 50.4846 51.3659C50.545 51.3811 50.5978 51.4037 50.7411 51.4491C50.3489 51.6154 50.0321 51.7591 49.7077 51.8876C43.2734 54.5565 36.8316 57.2329 30.3974 59.9093C30.1258 60.0227 29.99 60.0151 29.8241 59.7278C26.2864 53.8533 22.7411 47.9789 19.1959 42.1119C19.1355 42.0136 19.0827 41.9154 18.9922 41.749Z" fill="#2B2B2B"/>
<path d="M29.4867 0.189308C28.8229 1.29314 28.1817 2.35917 27.533 3.4252C24.5535 8.36219 21.5513 13.2916 18.5944 18.2437C17.9759 19.2871 17.6289 20.4741 17.1612 21.6006C16.1127 24.1182 15.0793 26.6359 14.0384 29.1535C14.0007 29.2367 13.9931 29.3501 13.8649 29.4181C13.5028 27.9287 13.1407 26.462 12.7787 24.9877C11.4813 19.7029 10.1914 14.4181 8.8789 9.13336C8.79592 8.79314 8.87136 8.67217 9.18817 8.53608C15.8035 5.80675 22.4112 3.05473 29.0265 0.310276C29.1623 0.257353 29.2754 0.174187 29.4867 0.189308Z" fill="#2B2B2B"/>
<path d="M8.65349 51.1693C5.79465 44.2515 2.9509 37.3639 0.0996094 30.4762C0.212756 30.378 0.333446 30.4158 0.431506 30.4158C4.76879 30.4158 9.09853 30.4158 13.4358 30.4082C13.6998 30.4082 13.8054 30.4989 13.9035 30.7257C15.3367 34.2187 16.7774 37.7116 18.2257 41.2046C18.3087 41.4011 18.3237 41.5297 18.1503 41.696C15.0425 44.7958 11.9423 47.9032 8.84206 51.0105C8.79681 51.0559 8.73646 51.1013 8.65349 51.1693Z" fill="#2B2B2B"/>
<path d="M29.9388 0.0986328C33.6274 6.2075 37.2933 12.2786 41.0121 18.4252C40.2427 18.1077 39.5487 17.828 38.8623 17.5407C36.0034 16.3537 33.1446 15.1667 30.2858 13.9721C30.0293 13.8663 29.8256 13.8738 29.5767 13.9797C26.1748 15.401 22.7728 16.8148 19.3709 18.2287C19.2351 18.2891 19.0918 18.3345 18.873 18.4252C22.5767 12.2786 26.2502 6.19994 29.9388 0.0986328Z" fill="#2B2B2B"/>
<path d="M30.3541 0C31.463 0.46119 32.5718 0.922379 33.6806 1.38357C39.3304 3.72732 44.9802 6.07863 50.6375 8.41482C50.9468 8.54335 50.9845 8.61139 50.728 8.86089C47.6731 11.9078 44.6332 14.9698 41.5783 18.0242C41.5028 18.0998 41.4123 18.1754 41.3143 18.2737C37.6408 12.1875 33.9748 6.12399 30.3164 0.0604839C30.3315 0.0378024 30.3466 0.0226815 30.3541 0Z" fill="#2B2B2B"/>
<path d="M0 30.0528C2.86638 23.1123 5.71767 16.2247 8.59914 9.25391C9.17996 11.6203 9.73815 13.8885 10.2963 16.1642C11.3976 20.64 12.4989 25.1234 13.5927 29.5992C13.7058 30.0528 13.7058 30.0528 13.2381 30.0528C8.99138 30.0528 4.74461 30.0528 0.490302 30.0528C0.354526 30.0528 0.21875 30.0528 0 30.0528Z" fill="#2B2B2B"/>
<path d="M18.6247 41.832C22.2379 47.8124 25.8963 53.8759 29.5622 59.9318C29.5471 59.9545 29.5245 59.9771 29.5094 59.9998C22.6527 57.1571 15.7961 54.3068 8.99219 51.4867C12.198 48.266 15.4038 45.0528 18.6247 41.832Z" fill="#2B2B2B"/>
<path d="M30.4824 46.1035C31.2669 45.7709 31.9835 45.4685 32.6925 45.1736C35.5363 43.9942 38.3876 42.8147 41.2313 41.6277C41.4576 41.5295 41.6009 41.537 41.782 41.726C44.8294 44.7956 47.8843 47.8576 50.9393 50.9196C51.0147 50.9952 51.0902 51.0783 51.2033 51.2144C44.2863 49.5058 37.4296 47.8122 30.4824 46.1035Z" fill="#2B2B2B"/>
<path d="M88.7238 25.7206C89.8251 24.2992 90.8585 22.9534 91.8994 21.6152C92.0503 21.4187 92.1483 21.1162 92.3973 21.0784C92.7895 21.0179 93.1968 21.0557 93.6042 21.0633C93.755 21.0633 93.7248 21.1994 93.7248 21.2901C93.7248 23.6036 93.7248 25.9247 93.7324 28.2382C93.7324 28.4348 93.657 28.4726 93.491 28.465C93.1365 28.4575 92.7895 28.4424 92.435 28.465C92.171 28.4802 92.1257 28.3743 92.1257 28.1399C92.1333 26.7337 92.1333 25.3199 92.1333 23.9061C91.9824 23.8909 91.9522 24.027 91.8919 24.1102C90.8509 25.4484 89.81 26.7866 88.7766 28.1399C88.6031 28.3667 88.4296 28.5028 88.1279 28.465C87.8035 28.4272 87.3736 28.5633 87.185 28.397C86.9662 28.2004 87.1171 27.7543 87.1171 27.4217C87.1096 25.4182 87.1171 23.4146 87.1096 21.4187C87.1096 21.1162 87.1925 21.0179 87.4867 21.0482C87.7884 21.0709 88.0902 21.0709 88.3919 21.0482C88.6634 21.0255 88.7313 21.1314 88.7313 21.3884C88.7162 22.6888 88.7238 23.9817 88.7238 25.2821C88.6936 25.3955 88.7087 25.5089 88.7238 25.7206Z" fill="#2B2B2B"/>
<path d="M110.484 35.4654C110.831 35.0193 111.178 34.5732 111.517 34.1347C112.294 33.1292 113.071 32.1312 113.84 31.1181C113.976 30.9442 114.112 30.8459 114.338 30.8686C114.685 30.9064 115.138 30.725 115.356 30.9367C115.568 31.1484 115.417 31.602 115.417 31.9573C115.424 33.9457 115.417 35.9341 115.424 37.9225C115.424 38.2174 115.349 38.3232 115.055 38.3005C114.768 38.2779 114.474 38.2779 114.187 38.3005C113.901 38.3232 113.803 38.24 113.81 37.9301C113.825 36.607 113.818 35.2839 113.818 33.9608C113.818 33.8928 113.818 33.8172 113.818 33.7416C113.659 33.7416 113.637 33.855 113.584 33.9306C112.535 35.2839 111.487 36.6297 110.454 37.9906C110.28 38.2174 110.107 38.3157 109.827 38.293C109.503 38.2627 109.088 38.4215 108.885 38.2325C108.673 38.0359 108.824 37.6125 108.817 37.2874C108.809 35.2612 108.817 33.235 108.809 31.2088C108.809 30.9518 108.862 30.8459 109.133 30.8686C109.458 30.8913 109.79 30.8913 110.114 30.8686C110.371 30.8535 110.423 30.9518 110.423 31.1862C110.416 32.5244 110.416 33.855 110.423 35.1932C110.416 35.2764 110.378 35.3671 110.484 35.4654Z" fill="#2B2B2B"/>
<path d="M145.393 23.8152C144.699 24.7149 144.066 25.5239 143.439 26.3329C142.972 26.9377 142.497 27.5426 142.036 28.1625C141.871 28.3893 141.705 28.5103 141.418 28.4725C141.086 28.4271 140.641 28.6161 140.452 28.3893C140.286 28.2003 140.4 27.7694 140.392 27.4443C140.392 25.4407 140.4 23.4372 140.384 21.4337C140.384 21.1539 140.437 21.0178 140.754 21.0481C141.041 21.0783 141.335 21.0708 141.622 21.0481C141.908 21.0254 142.006 21.1086 141.999 21.4186C141.984 22.7568 141.991 24.0874 141.991 25.4256C141.991 25.5012 141.991 25.5768 141.991 25.6676C142.127 25.6297 142.172 25.5163 142.233 25.4332C143.274 24.095 144.315 22.7568 145.34 21.3959C145.537 21.1313 145.74 21.0405 146.057 21.0481C147 21.0708 147 21.0556 147 21.9856C147 24.0269 146.992 26.0683 147.007 28.1096C147.007 28.3818 146.947 28.5027 146.66 28.4649C146.253 28.4196 145.718 28.6388 145.469 28.3818C145.235 28.1474 145.408 27.6182 145.408 27.2175C145.386 26.1212 145.393 25.0325 145.393 23.8152Z" fill="#2B2B2B"/>
<path d="M73.8627 35.4577C74.9716 34.0288 76.0804 32.5999 77.1817 31.1558C77.3477 30.9441 77.5061 30.8458 77.7776 30.8685C78.102 30.8988 78.5319 30.7702 78.7205 30.929C78.9393 31.1256 78.7884 31.5641 78.7884 31.9043C78.7959 33.9078 78.7809 35.9114 78.8035 37.9149C78.8035 38.24 78.713 38.3307 78.4037 38.3005C78.102 38.2702 77.8002 38.2778 77.4985 38.3005C77.2421 38.3232 77.1892 38.2249 77.1892 37.9829C77.1968 36.6372 77.1968 35.2838 77.1968 33.9381C77.1968 33.87 77.1968 33.7944 77.1968 33.6205C76.9102 33.991 76.6839 34.2859 76.4576 34.5807C75.5826 35.6997 74.7075 36.8186 73.8476 37.9527C73.6515 38.2098 73.4554 38.3383 73.131 38.3005C72.8368 38.2627 72.4446 38.4214 72.256 38.24C72.0448 38.0434 72.1881 37.6427 72.1881 37.3403C72.1806 35.3141 72.1881 33.2879 72.1806 31.2541C72.1806 30.9895 72.2108 30.8307 72.5351 30.8685C72.9424 30.9214 73.4931 30.6946 73.7194 30.9592C73.9231 31.1936 73.7873 31.7228 73.7873 32.1236C73.7873 33.2274 73.7873 34.3312 73.7873 35.4351C73.8099 35.4426 73.8401 35.4502 73.8627 35.4577Z" fill="#2B2B2B"/>
<path d="M114.218 24.7902C114.218 25.9091 114.21 27.0356 114.225 28.1546C114.225 28.3965 114.165 28.4873 113.909 28.4721C113.569 28.4495 113.23 28.4495 112.89 28.4721C112.649 28.4873 112.596 28.389 112.604 28.1697C112.611 26.4308 112.596 24.6919 112.626 22.953C112.634 22.5523 112.513 22.4615 112.143 22.4842C111.691 22.5145 111.238 22.5069 110.786 22.4842C110.537 22.4767 110.469 22.5523 110.469 22.8018C110.476 23.9888 110.469 25.1682 110.228 26.3401C110.114 26.8693 109.948 27.3759 109.639 27.8371C109.021 28.7519 107.98 28.7216 107.248 28.5099C107.135 28.4797 107.082 28.4192 107.082 28.2982C107.082 27.9051 107.09 27.5195 107.082 27.1264C107.082 26.9676 107.135 26.9525 107.286 26.9827C108.07 27.1112 108.349 26.9222 108.583 26.1511C108.847 25.2892 108.862 24.3895 108.877 23.4973C108.892 22.7942 108.892 22.0835 108.87 21.3804C108.862 21.1082 108.953 21.0477 109.209 21.0553C110.771 21.0704 112.324 21.0704 113.886 21.0553C114.15 21.0553 114.225 21.1233 114.225 21.388C114.21 22.522 114.218 23.6561 114.218 24.7902Z" fill="#2B2B2B"/>
<path d="M122.742 24.7523C122.742 23.6333 122.749 22.5144 122.734 21.3878C122.734 21.1232 122.802 21.0325 123.066 21.0552C123.391 21.0779 123.723 21.0779 124.047 21.0552C124.288 21.0401 124.341 21.1232 124.341 21.35C124.326 22.1288 124.341 22.9151 124.334 23.6938C124.326 23.9357 124.386 24.0189 124.643 24.0113C125.495 23.9962 126.355 23.9962 127.207 24.0113C127.441 24.0113 127.509 23.9433 127.502 23.7089C127.487 22.9302 127.509 22.1439 127.494 21.3652C127.487 21.1157 127.562 21.0325 127.811 21.0476C128.135 21.0703 128.467 21.0627 128.792 21.0476C129.025 21.0325 129.093 21.1157 129.086 21.3425C129.078 22.4388 129.078 23.535 129.078 24.6313C129.078 25.8032 129.071 26.975 129.086 28.1469C129.086 28.3888 129.025 28.4871 128.769 28.4645C128.46 28.4418 128.143 28.4418 127.826 28.4645C127.57 28.4796 127.479 28.4115 127.487 28.1394C127.509 27.3606 127.479 26.5743 127.502 25.7956C127.509 25.5234 127.419 25.4554 127.162 25.4554C126.317 25.4629 125.48 25.4705 124.635 25.4478C124.371 25.4403 124.334 25.5461 124.334 25.7729C124.349 26.5517 124.326 27.3379 124.349 28.1167C124.356 28.4115 124.258 28.4796 123.987 28.4569C123.677 28.4342 123.36 28.4342 123.044 28.4569C122.787 28.472 122.734 28.3737 122.734 28.1394C122.742 27.0204 122.742 25.8863 122.742 24.7523Z" fill="#2B2B2B"/>
<path d="M64.2221 34.5655C64.2221 33.4314 64.2297 32.2974 64.2146 31.1633C64.2146 30.944 64.2523 30.8458 64.5012 30.8609C64.8406 30.8836 65.1801 30.8836 65.5195 30.8609C65.7835 30.8458 65.8288 30.9516 65.8212 31.186C65.8062 31.9571 65.8288 32.7208 65.8137 33.4919C65.8062 33.7414 65.859 33.8473 66.1381 33.8397C66.9829 33.8246 67.8202 33.8246 68.665 33.8397C68.9064 33.8473 68.9893 33.7868 68.9818 33.5297C68.9667 32.7586 68.9893 31.9949 68.9667 31.2238C68.9592 30.9592 69.0044 30.8306 69.3061 30.8684C69.7135 30.9138 70.2641 30.6945 70.4904 30.9516C70.6941 31.1784 70.5507 31.7152 70.5507 32.1159C70.5507 34.0438 70.5432 35.9718 70.5583 37.8921C70.5583 38.187 70.513 38.3306 70.1811 38.2928C69.7889 38.2399 69.2533 38.4592 69.0346 38.2021C68.8385 37.9829 68.9742 37.4612 68.9742 37.0756C68.9667 36.569 68.9667 36.07 68.9742 35.5635C68.9818 35.3594 68.929 35.2762 68.7027 35.2762C67.8352 35.2913 66.9678 35.2913 66.1003 35.2762C65.8665 35.2762 65.7986 35.3518 65.8062 35.5786C65.8212 36.3725 65.7986 37.1663 65.8212 37.9602C65.8288 38.2323 65.7458 38.308 65.4818 38.2928C65.1575 38.2702 64.8256 38.2702 64.5012 38.2928C64.2674 38.308 64.207 38.2248 64.207 37.998C64.2297 36.8563 64.2221 35.7071 64.2221 34.5655Z" fill="#2B2B2B"/>
<path d="M101.266 24.7449C101.266 23.626 101.274 22.507 101.259 21.3805C101.259 21.1083 101.342 21.0479 101.598 21.0479C103.19 21.0554 104.789 21.0554 106.38 21.0479C106.644 21.0479 106.742 21.1235 106.712 21.3881C106.675 21.7434 106.878 22.2273 106.637 22.4314C106.433 22.6053 105.966 22.4843 105.611 22.4843C104.796 22.4843 103.982 22.4919 103.159 22.4843C102.926 22.4843 102.85 22.5599 102.865 22.7868C102.888 23.1648 102.752 23.6411 102.933 23.883C103.129 24.1401 103.635 23.9586 104.004 23.9662C104.532 23.9813 105.06 23.9813 105.588 23.9662C105.822 23.9586 105.898 24.0342 105.883 24.2611C105.86 24.624 106.026 25.0776 105.815 25.3271C105.611 25.569 105.151 25.3951 104.811 25.4027C104.246 25.4178 103.68 25.4178 103.114 25.4027C102.918 25.3951 102.85 25.4556 102.858 25.6597C102.873 26.0151 102.88 26.3629 102.858 26.7182C102.835 26.9828 102.933 27.0282 103.175 27.0282C104.283 27.0131 105.385 27.0282 106.494 27.0206C106.75 27.0206 106.856 27.0811 106.833 27.3533C106.81 27.6255 106.81 27.9052 106.833 28.1849C106.856 28.4269 106.75 28.4722 106.531 28.4722C104.872 28.4647 103.212 28.4647 101.56 28.4722C101.296 28.4722 101.251 28.3815 101.259 28.1471C101.274 27.0131 101.266 25.879 101.266 24.7449Z" fill="#2B2B2B"/>
<path d="M122.99 34.5357C122.99 33.4243 122.998 32.3205 122.982 31.2091C122.982 30.9596 123.02 30.8613 123.307 30.8613C124.913 30.8764 126.528 30.8764 128.134 30.8613C128.383 30.8613 128.466 30.9294 128.451 31.1789C128.429 31.5418 128.564 32.0105 128.383 32.2373C128.195 32.4793 127.697 32.3054 127.342 32.3129C126.535 32.3281 125.736 32.3281 124.929 32.3129C124.687 32.3054 124.582 32.3659 124.597 32.6229C124.612 32.9102 124.612 33.2051 124.597 33.4924C124.582 33.7268 124.672 33.7948 124.898 33.7872C125.675 33.7721 126.46 33.7948 127.237 33.7797C127.508 33.7721 127.629 33.8251 127.599 34.1275C127.569 34.3996 127.576 34.6794 127.599 34.9591C127.614 35.2011 127.516 35.254 127.297 35.2464C126.505 35.2313 125.713 35.254 124.921 35.2389C124.68 35.2313 124.589 35.2994 124.604 35.5564C124.627 35.8966 124.627 36.2369 124.604 36.5771C124.589 36.8266 124.687 36.8644 124.906 36.8644C126.015 36.8568 127.116 36.8719 128.225 36.8568C128.512 36.8493 128.602 36.9324 128.572 37.2122C128.549 37.4995 128.557 37.7943 128.572 38.0816C128.579 38.2404 128.527 38.3009 128.361 38.3009C126.648 38.2933 124.944 38.2933 123.231 38.3009C122.967 38.3009 122.998 38.1421 122.998 37.9833C122.99 36.8341 122.99 35.6849 122.99 34.5357Z" fill="#2B2B2B"/>
<path d="M87.4607 34.5658C87.4607 33.4468 87.4682 32.3278 87.4531 31.2013C87.4531 30.9367 87.521 30.8611 87.785 30.8687C89.3917 30.8838 90.9984 30.8838 92.6051 30.8687C92.8616 30.8687 92.9294 30.9518 92.9144 31.1938C92.8842 31.5567 93.0577 32.0254 92.8465 32.2522C92.6277 32.4866 92.16 32.3203 91.798 32.3203C91.0059 32.3354 90.2139 32.343 89.4219 32.3127C89.1051 32.3052 89.0296 32.411 89.0598 32.6983C89.0824 32.9629 89.0749 33.2275 89.0598 33.4922C89.0447 33.7265 89.1277 33.7946 89.3615 33.7946C90.1536 33.7795 90.9456 33.8021 91.7376 33.787C92.0092 33.7795 92.0846 33.8702 92.0695 34.1272C92.0469 34.3994 92.0544 34.6792 92.0695 34.9589C92.0846 35.1933 92.0092 35.2613 91.7753 35.2538C90.9833 35.2386 90.1913 35.2613 89.3993 35.2462C89.1352 35.2386 89.0447 35.3218 89.0674 35.5864C89.09 35.8888 89.0975 36.1913 89.0674 36.4937C89.0372 36.8263 89.173 36.8793 89.4747 36.8793C90.5534 36.8641 91.632 36.8793 92.7182 36.8642C92.9898 36.8566 93.0728 36.9398 93.0426 37.2044C93.0049 37.5597 93.201 38.0436 92.9672 38.2477C92.7635 38.4216 92.2958 38.3006 91.9488 38.3082C90.5684 38.3082 89.188 38.3006 87.8001 38.3158C87.5361 38.3158 87.4607 38.2477 87.4682 37.9831C87.4682 36.8339 87.4607 35.6998 87.4607 34.5658Z" fill="#2B2B2B"/>
<path d="M104.533 38.4595C102.926 38.3914 101.667 37.6127 100.98 36.0552C99.9166 33.6283 101.697 30.8914 104.412 30.7326C105.634 30.657 106.675 31.0577 107.55 31.9196C107.746 32.1086 107.822 32.275 107.55 32.4564C107.543 32.464 107.535 32.4716 107.52 32.4791C107.301 32.6984 107.113 33.031 106.841 33.1218C106.524 33.2276 106.396 32.7891 106.155 32.6228C105.317 32.0633 104.193 32.0179 103.379 32.5396C102.549 33.0764 102.119 34.0744 102.33 35.0648C102.542 36.0703 103.153 36.7281 104.156 36.9474C105.159 37.1666 106.019 36.8415 106.72 36.1157C106.856 35.9796 106.901 35.9721 107.022 36.1081C107.218 36.335 107.422 36.5618 107.648 36.7659C107.814 36.9171 107.814 37.0381 107.656 37.1969C106.834 38.0512 105.815 38.467 104.533 38.4595Z" fill="#2B2B2B"/>
<path d="M61.2722 28.6389C59.4317 28.6087 57.8854 27.4519 57.4253 25.7659C56.7087 23.0971 59.0546 20.5265 61.8229 20.9272C62.7733 21.0633 63.5578 21.4791 64.214 22.1596C64.3649 22.3108 64.4177 22.4393 64.214 22.5829C64.1839 22.6056 64.1612 22.6359 64.1311 22.6661C63.9123 22.8854 63.7237 23.218 63.4522 23.3012C63.1429 23.407 63.0072 22.9685 62.7658 22.8022C61.9587 22.2578 60.8272 22.1974 60.0201 22.7039C59.1677 23.2407 58.7528 24.2085 58.9339 25.2518C59.0923 26.1742 59.8089 26.9378 60.7669 27.1344C61.7475 27.3385 62.6074 27.0436 63.3089 26.333C63.4673 26.1666 63.5503 26.1742 63.6785 26.333C63.852 26.5371 64.0179 26.7412 64.2216 26.9076C64.4328 27.089 64.4403 27.21 64.2367 27.4141C63.4371 28.2231 62.4112 28.654 61.2722 28.6389Z" fill="#2B2B2B"/>
<path d="M56.9883 30.8768C57.4937 30.8768 57.9915 30.8844 58.4894 30.8768C58.7006 30.8693 58.7232 31.0356 58.7911 31.1641C59.304 32.1848 59.8169 33.2055 60.3223 34.2261C60.3299 34.2337 60.3374 34.2413 60.3525 34.2564C60.4883 34.2261 60.4883 34.0976 60.526 33.9993C60.9258 33.0618 61.3331 32.1319 61.7103 31.1944C61.8159 30.9373 61.9441 30.8617 62.2081 30.8768C62.6456 30.8995 63.0756 30.8844 63.5659 30.8844C63.2641 31.5422 62.985 32.1546 62.6984 32.767C62.1251 33.9993 61.5519 35.2241 60.9786 36.4489C60.7447 36.9404 60.4656 37.4016 60.0659 37.7796C59.4021 38.3995 58.6176 38.5356 57.7577 38.3391C57.5842 38.3013 57.4861 38.2257 57.5163 38.0291C57.5238 37.9686 57.5163 37.9006 57.5163 37.8401C57.5163 37.5603 57.4258 37.2352 57.5389 37.0235C57.6822 36.7589 58.0141 37.016 58.2631 36.9782C58.8062 36.9026 59.3493 36.4867 59.5228 35.9651C59.5756 35.8063 59.4775 35.7004 59.4172 35.587C58.6629 34.1657 57.9085 32.7518 57.1618 31.3305C57.1014 31.1868 56.9958 31.0659 56.9883 30.8768Z" fill="#2B2B2B"/>
<path d="M98.3023 25.5012C98.3023 26.3782 98.2947 27.2628 98.3098 28.1398C98.3174 28.412 98.2268 28.4876 97.9704 28.4725C97.6611 28.4498 97.3443 28.4498 97.0275 28.4725C96.7635 28.4876 96.6881 28.4044 96.6881 28.1398C96.7031 26.6051 96.6956 25.0703 96.6881 23.5355C96.6881 23.2028 96.8389 22.7719 96.6126 22.5526C96.409 22.3636 95.9866 22.5148 95.6697 22.4922C95.3152 22.4695 94.8325 22.6585 94.6363 22.409C94.4628 22.1973 94.6062 21.7361 94.576 21.3883C94.5534 21.1161 94.659 21.0557 94.9154 21.0557C96.6353 21.0632 98.3551 21.0632 100.075 21.0557C100.339 21.0557 100.437 21.1237 100.407 21.3883C100.369 21.7437 100.565 22.2275 100.324 22.4317C100.12 22.6056 99.6525 22.477 99.3055 22.4922C98.9811 22.5073 98.5663 22.3561 98.3626 22.5526C98.1589 22.7492 98.3023 23.1726 98.2947 23.4977C98.2947 24.163 98.3023 24.8359 98.3023 25.5012Z" fill="#2B2B2B"/>
<path d="M68.4002 25.4934C68.4002 26.3855 68.3926 27.2777 68.4077 28.1698C68.4077 28.4042 68.3398 28.4798 68.106 28.4647C67.7967 28.4496 67.4799 28.442 67.1631 28.4647C66.8689 28.4874 66.7859 28.3966 66.7859 28.0942C66.801 26.3704 66.7784 24.6466 66.801 22.9228C66.8086 22.5448 66.6954 22.4541 66.3409 22.4768C65.8808 22.507 65.4131 22.4768 64.9454 22.4919C64.7267 22.4995 64.6588 22.4239 64.6739 22.2122C64.689 21.9097 64.689 21.6073 64.6739 21.3049C64.6663 21.1008 64.7418 21.0479 64.9379 21.0479C66.7105 21.0554 68.4756 21.0554 70.2482 21.0479C70.4443 21.0479 70.5349 21.1083 70.5122 21.3049C70.5122 21.3276 70.5122 21.3578 70.5122 21.3805C70.4821 21.7434 70.6782 22.2197 70.4443 22.4239C70.2407 22.5977 69.773 22.4692 69.426 22.4843C69.1017 22.4995 68.6793 22.3483 68.4831 22.5448C68.2644 22.7565 68.4153 23.1875 68.4077 23.5277C68.3926 24.1854 68.4002 24.8432 68.4002 25.4934Z" fill="#2B2B2B"/>
<path d="M132.705 35.36C132.705 36.2446 132.697 37.1216 132.712 38.0062C132.712 38.2405 132.652 38.3161 132.418 38.301C132.094 38.2783 131.762 38.2783 131.437 38.301C131.173 38.3161 131.098 38.2405 131.098 37.9684C131.113 36.2597 131.105 34.5435 131.105 32.8272C131.105 32.2451 131.181 32.3282 130.615 32.3207C130.178 32.3131 129.733 32.3131 129.295 32.3207C129.076 32.3282 128.971 32.2904 128.986 32.0334C129.016 31.6629 128.865 31.1639 129.054 30.9371C129.25 30.6952 129.763 30.8691 130.132 30.8691C131.588 30.8615 133.044 30.8691 134.507 30.8615C134.756 30.8615 134.839 30.9296 134.817 31.1715C134.779 31.542 134.975 32.0409 134.734 32.2526C134.53 32.4341 134.04 32.298 133.678 32.3131C133.368 32.3282 132.961 32.177 132.772 32.366C132.561 32.5702 132.712 32.986 132.705 33.3111C132.697 33.9991 132.705 34.6796 132.705 35.36Z" fill="#2B2B2B"/>
<path d="M120.027 35.3073C120.027 36.1919 120.02 37.0689 120.035 37.9535C120.042 38.203 119.989 38.3239 119.71 38.3012C119.386 38.2786 119.054 38.2786 118.73 38.3012C118.473 38.3164 118.42 38.2181 118.42 37.9837C118.428 36.2221 118.413 34.4605 118.428 32.6989C118.428 32.3965 118.353 32.3058 118.051 32.3209C117.56 32.3436 117.07 32.3209 116.58 32.3285C116.361 32.336 116.293 32.2604 116.308 32.0487C116.331 31.6707 116.188 31.1944 116.376 30.9524C116.55 30.7181 117.055 30.8844 117.417 30.8844C118.873 30.8768 120.329 30.8844 121.792 30.8768C122.064 30.8768 122.139 30.9524 122.124 31.2171C122.101 31.4892 122.101 31.769 122.124 32.0487C122.139 32.2906 122.049 32.3511 121.822 32.3436C121.347 32.3284 120.864 32.3587 120.389 32.336C120.11 32.3209 120.02 32.3965 120.027 32.6838C120.035 33.5457 120.027 34.4303 120.027 35.3073Z" fill="#2B2B2B"/>
<path d="M137.172 24.7446C137.172 23.6257 137.179 22.5067 137.164 21.3878C137.164 21.1231 137.232 21.0324 137.504 21.0551C137.805 21.0778 138.107 21.0778 138.409 21.0551C138.703 21.0324 138.786 21.1307 138.786 21.4331C138.771 23.4215 138.778 25.4099 138.778 27.3908C138.778 27.5269 138.778 27.6705 138.778 27.8066C138.786 28.4719 138.786 28.4719 138.107 28.4719C137.172 28.4719 137.172 28.4719 137.172 27.542C137.172 26.6121 137.172 25.6746 137.172 24.7446Z" fill="#2B2B2B"/>
<path d="M142.602 18.5676C142.821 18.5298 143.055 18.5298 143.145 18.9154C143.198 19.1271 143.439 19.2178 143.666 19.2178C143.907 19.2178 144.149 19.112 144.209 18.8776C144.284 18.5525 144.488 18.5601 144.737 18.5676C145.438 18.5752 145.537 18.7188 145.205 19.3615C144.858 20.0344 144.269 20.2687 143.545 20.2309C142.874 20.1931 142.376 19.8907 142.104 19.2556C141.848 18.6659 141.916 18.5676 142.602 18.5676Z" fill="#2B2B2B"/>
<path d="M85.1763 16.7159C85.644 16.0959 86.1192 15.4759 86.5868 14.856C86.6774 14.735 86.7603 14.5762 86.9414 14.6443C87.1148 14.7048 87.0394 14.8862 87.0394 15.0072C87.047 15.7254 87.047 16.4437 87.0394 17.1619C87.0394 17.2829 87.0771 17.4265 86.8659 17.419C86.6547 17.419 86.7075 17.2678 86.7075 17.1544C86.7075 16.5571 86.7075 15.9522 86.7075 15.234C86.2549 15.8237 85.8778 16.3303 85.4931 16.8293C85.3649 16.9956 85.2291 17.1695 85.1084 17.3358C85.0481 17.419 84.9576 17.419 84.8746 17.4114C84.7464 17.3963 84.7765 17.2829 84.7765 17.2073C84.7765 16.4286 84.7765 15.6498 84.7765 14.8635C84.7765 14.7501 84.769 14.6292 84.9425 14.6292C85.1461 14.6292 85.1084 14.7728 85.1084 14.8938C85.1084 15.4911 85.1084 16.0959 85.1084 16.6932C85.1235 16.7083 85.1537 16.7083 85.1763 16.7159Z" fill="#2B2B2B"/>
<path d="M61.265 15.1966C60.8577 15.7258 60.5258 16.1643 60.1713 16.6331C59.8243 16.1794 59.4924 15.7409 59.085 15.2117C59.085 15.8619 59.085 16.4062 59.085 16.9506C59.085 17.0489 59.085 17.1547 59.085 17.253C59.085 17.3589 59.0549 17.4118 58.9342 17.4194C58.8135 17.4194 58.7833 17.3664 58.7833 17.2606C58.7833 16.444 58.7833 15.6275 58.7833 14.811C58.7833 14.7354 58.7758 14.6522 58.8814 14.6371C58.9945 14.622 59.07 14.6825 59.1379 14.7656C59.417 15.1361 59.7111 15.499 59.9751 15.877C60.1336 16.1038 60.2241 16.0887 60.3749 15.877C60.6314 15.5065 60.9181 15.1588 61.1896 14.7959C61.2575 14.7051 61.3329 14.6144 61.4612 14.6446C61.6347 14.6825 61.5668 14.8185 61.5668 14.9244C61.5743 15.6653 61.5743 16.4062 61.5668 17.1472C61.5668 17.253 61.6347 17.4194 61.4159 17.4269C61.1972 17.4345 61.265 17.2606 61.265 17.1547C61.265 16.5348 61.265 15.9224 61.265 15.1966Z" fill="#2B2B2B"/>
<path d="M82.2268 16.7078C82.702 16.0878 83.1697 15.4679 83.6449 14.8479C83.7279 14.7421 83.7958 14.5909 83.9617 14.6362C84.1578 14.6891 84.0673 14.8706 84.0673 14.984C84.0749 15.6796 84.0824 16.3676 84.0673 17.0631C84.0673 17.1841 84.188 17.4034 83.924 17.4109C83.6298 17.4185 83.7656 17.1765 83.7656 17.048C83.7505 16.481 83.7581 15.9139 83.7581 15.3242C83.6072 15.3469 83.5619 15.483 83.494 15.5662C83.0716 16.1105 82.6568 16.67 82.2419 17.2143C82.1589 17.3278 82.0835 17.4563 81.91 17.4034C81.729 17.3504 81.8119 17.1917 81.8119 17.0858C81.8044 16.3524 81.8044 15.6266 81.8119 14.8933C81.8119 14.7799 81.7667 14.6211 81.9703 14.6211C82.174 14.6211 82.1363 14.7647 82.1363 14.8857C82.1363 15.483 82.1363 16.0803 82.1363 16.6776C82.1665 16.7002 82.1966 16.7002 82.2268 16.7078Z" fill="#2B2B2B"/>
<path d="M125.676 16.7088C126.143 16.0888 126.619 15.4688 127.086 14.8489C127.169 14.743 127.237 14.5918 127.403 14.6372C127.599 14.6901 127.509 14.8716 127.509 14.985C127.516 15.6805 127.524 16.3685 127.509 17.0641C127.509 17.1851 127.629 17.4043 127.365 17.4119C127.071 17.4194 127.207 17.1775 127.207 17.049C127.192 16.4819 127.199 15.9149 127.199 15.3479C127.056 15.3176 127.034 15.4461 126.981 15.5142C126.543 16.0812 126.113 16.6558 125.683 17.2229C125.6 17.3363 125.517 17.4572 125.351 17.4119C125.17 17.359 125.253 17.2002 125.253 17.0943C125.246 16.361 125.246 15.6352 125.253 14.9018C125.253 14.7884 125.208 14.6296 125.412 14.6296C125.615 14.6296 125.578 14.7733 125.578 14.8942C125.578 15.4915 125.578 16.0888 125.578 16.6861C125.615 16.7012 125.646 16.7088 125.676 16.7088Z" fill="#2B2B2B"/>
<path d="M95.4938 12.0203C95.9615 11.4003 96.4292 10.7879 96.8968 10.168C96.9874 10.0546 97.0553 9.88066 97.2438 9.94114C97.4324 10.0016 97.3343 10.1755 97.3343 10.2965C97.3419 10.9996 97.3419 11.7103 97.3343 12.4134C97.3343 12.5193 97.4022 12.6932 97.191 12.6932C96.9874 12.6932 97.0326 12.5344 97.0326 12.421C97.0326 11.8237 97.0326 11.2189 97.0326 10.5157C96.4971 11.2189 96.0143 11.8464 95.5391 12.4663C95.4486 12.5873 95.3731 12.7536 95.1846 12.6856C95.0111 12.6176 95.094 12.4437 95.094 12.3151C95.0865 11.612 95.0865 10.9013 95.094 10.1982C95.094 10.0848 95.0413 9.92602 95.2525 9.93358C95.4637 9.94114 95.3958 10.0999 95.4033 10.2133C95.4109 10.803 95.4033 11.3928 95.4033 11.9825C95.441 11.9976 95.4637 12.0052 95.4938 12.0203Z" fill="#2B2B2B"/>
<path d="M136.553 12.1189C137.089 11.4082 137.564 10.7958 138.032 10.1759C138.13 10.0473 138.22 9.87344 138.416 9.94904C138.59 10.0171 138.499 10.191 138.499 10.3119C138.507 11.0151 138.507 11.7182 138.507 12.4289C138.507 12.5498 138.545 12.7011 138.341 12.7011C138.145 12.7011 138.175 12.5574 138.175 12.4364C138.175 11.8467 138.175 11.257 138.175 10.6673C138.024 10.6446 137.994 10.7656 137.941 10.8336C137.511 11.3931 137.081 11.9526 136.666 12.512C136.576 12.633 136.493 12.7464 136.335 12.6935C136.184 12.6406 136.252 12.4969 136.252 12.3986C136.244 11.6728 136.244 10.9395 136.252 10.2061C136.252 10.0927 136.191 9.94148 136.41 9.94148C136.629 9.94148 136.568 10.1003 136.568 10.2061C136.553 10.7958 136.553 11.4007 136.553 12.1189Z" fill="#2B2B2B"/>
<path d="M141.23 10.516C140.687 11.2267 140.204 11.8542 139.729 12.4893C139.638 12.6178 139.548 12.7539 139.367 12.6783C139.208 12.6178 139.284 12.459 139.284 12.3456C139.276 11.6274 139.276 10.9091 139.284 10.1909C139.284 10.0699 139.246 9.92628 139.457 9.93384C139.668 9.9414 139.615 10.0926 139.615 10.206C139.615 10.8033 139.615 11.4081 139.615 12.1188C140.136 11.4308 140.596 10.8335 141.056 10.2287C141.117 10.1455 141.162 10.0472 141.245 9.99432C141.373 9.91872 141.547 9.85824 141.547 10.1229C141.547 10.9167 141.547 11.7106 141.547 12.5044C141.547 12.6102 141.539 12.701 141.396 12.7085C141.215 12.7161 141.237 12.5951 141.237 12.4817C141.23 11.8542 141.23 11.2342 141.23 10.516Z" fill="#2B2B2B"/>
<path d="M69.3512 10.5084C68.8081 11.2267 68.3253 11.8542 67.8501 12.4817C67.7671 12.5951 67.6917 12.7236 67.5258 12.6858C67.3221 12.6329 67.4126 12.459 67.4126 12.3381C67.4051 11.6425 67.4051 10.9545 67.4126 10.2589C67.4126 10.138 67.3146 9.9187 67.5786 9.93382C67.8426 9.94138 67.7294 10.1531 67.7294 10.274C67.7445 10.8486 67.737 11.4232 67.737 12.0961C68.2574 11.4081 68.7251 10.8033 69.1852 10.1984C69.2456 10.1153 69.2908 10.017 69.3738 9.97162C69.5171 9.89602 69.668 9.85066 69.668 10.1153C69.668 10.9091 69.668 11.703 69.668 12.4968C69.668 12.6102 69.6454 12.6934 69.5021 12.6934C69.3512 12.6934 69.3512 12.6027 69.3512 12.4968C69.3512 11.8693 69.3512 11.2418 69.3512 10.5084Z" fill="#2B2B2B"/>
<path d="M118.343 16.0651C118.343 16.4281 118.343 16.791 118.343 17.1614C118.343 17.2748 118.389 17.426 118.177 17.4185C117.996 17.4109 118.034 17.2748 118.034 17.1765C118.027 16.9119 118.027 16.6473 118.034 16.3827C118.042 16.2012 117.966 16.1256 117.793 16.1483C117.74 16.1559 117.695 16.1483 117.642 16.1483C117.295 16.1634 116.857 16.0122 116.616 16.2088C116.382 16.4054 116.563 16.8514 116.533 17.1841C116.525 17.2899 116.563 17.4185 116.382 17.426C116.186 17.4336 116.201 17.3051 116.201 17.1765C116.201 16.4129 116.201 15.6418 116.201 14.8782C116.201 14.7723 116.171 14.6438 116.352 14.6362C116.548 14.6287 116.533 14.7647 116.533 14.8933C116.533 15.1428 116.541 15.3998 116.533 15.6493C116.525 15.8081 116.593 15.8761 116.752 15.8686C117.106 15.861 117.453 15.861 117.808 15.8686C118.004 15.8761 118.034 15.7703 118.034 15.6115C118.027 15.3469 118.034 15.0823 118.034 14.8177C118.034 14.7269 118.049 14.6438 118.177 14.6362C118.313 14.6287 118.351 14.7118 118.351 14.8252C118.343 15.2335 118.343 15.6493 118.343 16.0651Z" fill="#2B2B2B"/>
<path d="M73.7573 11.2952C73.7573 10.9172 73.7573 10.5392 73.7573 10.1611C73.7573 10.0477 73.7346 9.92676 73.9157 9.92676C74.0967 9.92676 74.0666 10.0553 74.0666 10.1611C74.0666 10.4106 74.0741 10.6677 74.0666 10.9172C74.059 11.076 74.1194 11.1516 74.2853 11.1364C74.3758 11.1289 74.4588 11.1364 74.5493 11.1364C74.8737 11.1289 75.281 11.2347 75.4998 11.076C75.711 10.9247 75.545 10.4862 75.5677 10.1838C75.5752 10.0628 75.5375 9.92676 75.7412 9.92676C75.9524 9.93432 75.8996 10.0855 75.8996 10.1989C75.8996 10.9399 75.8996 11.6884 75.8996 12.4293C75.8996 12.5502 75.9222 12.6939 75.7261 12.6939C75.5299 12.6863 75.5677 12.5427 75.5601 12.4217C75.545 12.1117 75.6959 11.6959 75.4998 11.5145C75.2886 11.3103 74.8812 11.4615 74.5569 11.454C74.059 11.4464 74.059 11.454 74.059 11.953C74.059 12.142 74.059 12.331 74.059 12.52C74.059 12.6183 74.0364 12.6939 73.9157 12.7015C73.7799 12.709 73.7422 12.6334 73.7422 12.5124C73.7573 12.1042 73.7573 11.7035 73.7573 11.2952Z" fill="#2B2B2B"/>
<path d="M93.166 10.5991C92.721 11.1888 92.2759 11.7785 91.8234 12.3607C91.7178 12.4968 91.6348 12.7538 91.4085 12.6706C91.1822 12.5875 91.3104 12.3455 91.3029 12.1792C91.2878 11.529 91.2953 10.8713 91.3029 10.2211C91.3029 10.1152 91.2199 9.94888 91.4386 9.94132C91.68 9.9262 91.6121 10.1076 91.6121 10.2286C91.6197 10.8183 91.6121 11.408 91.6121 12.0204C91.7781 12.0053 91.8158 11.8692 91.8837 11.7785C92.291 11.2493 92.6908 10.72 93.0906 10.1908C93.1887 10.0623 93.2716 9.88839 93.4678 9.95644C93.6488 10.0169 93.5507 10.1984 93.5507 10.3193C93.5583 11.0225 93.5583 11.7256 93.5507 12.4287C93.5507 12.5346 93.6186 12.7009 93.3999 12.7009C93.1887 12.7009 93.2415 12.5421 93.2415 12.4287C93.2339 11.8314 93.2415 11.2342 93.2415 10.6293C93.2188 10.6142 93.1962 10.6066 93.166 10.5991Z" fill="#2B2B2B"/>
<path d="M107.851 9.93436C108.093 9.93436 108.326 9.93436 108.568 9.93436C108.658 9.93436 108.779 9.89655 108.787 10.0629C108.794 10.2368 108.673 10.2292 108.553 10.2292C108.198 10.2292 107.851 10.2443 107.497 10.2217C107.278 10.2141 107.165 10.2595 107.195 10.509C107.21 10.6299 107.202 10.7584 107.195 10.887C107.187 11.0533 107.255 11.1062 107.414 11.1062C107.678 11.0987 107.942 11.1062 108.206 11.1062C108.311 11.1062 108.447 11.0836 108.455 11.2574C108.462 11.4238 108.341 11.4238 108.221 11.4238C108.108 11.4238 107.994 11.4238 107.881 11.4238C107.18 11.4238 107.195 11.4238 107.187 12.1118C107.187 12.3613 107.255 12.4444 107.504 12.4293C107.851 12.4066 108.206 12.4218 108.56 12.4293C108.658 12.4293 108.802 12.384 108.802 12.573C108.802 12.7242 108.688 12.7091 108.583 12.7091C108.077 12.7091 107.58 12.7091 107.074 12.7091C106.908 12.7091 106.855 12.641 106.855 12.4822C106.863 11.7035 106.863 10.9248 106.855 10.146C106.855 9.97216 106.938 9.93436 107.089 9.94192C107.346 9.94192 107.602 9.93436 107.851 9.93436Z" fill="#2B2B2B"/>
<path d="M122.688 11.3027C122.688 10.9247 122.696 10.5467 122.688 10.1686C122.681 9.98719 122.741 9.92671 122.922 9.93427C123.397 9.94183 123.872 9.93427 124.355 9.94183C124.453 9.94183 124.604 9.88134 124.604 10.0704C124.604 10.2745 124.446 10.2291 124.332 10.2291C123.993 10.2367 123.654 10.2442 123.314 10.2291C123.08 10.214 122.997 10.3047 123.028 10.5315C123.043 10.645 123.035 10.7584 123.028 10.8718C123.012 11.0532 123.088 11.1213 123.269 11.1137C123.533 11.1061 123.797 11.1137 124.061 11.1137C124.182 11.1137 124.295 11.1137 124.287 11.28C124.28 11.4312 124.174 11.4237 124.076 11.4237C123.85 11.4237 123.623 11.4464 123.397 11.4161C123.088 11.3783 123.02 11.5144 123.028 11.8017C123.058 12.5502 122.945 12.4065 123.639 12.4217C123.903 12.4292 124.167 12.4217 124.431 12.4217C124.521 12.4217 124.642 12.3839 124.649 12.5502C124.657 12.7014 124.559 12.7014 124.453 12.7014C123.94 12.7014 123.427 12.7014 122.907 12.7014C122.741 12.7014 122.696 12.6258 122.696 12.467C122.688 12.0814 122.688 11.6883 122.688 11.3027Z" fill="#2B2B2B"/>
<path d="M64.4484 11.2945C64.4484 10.9165 64.4484 10.5385 64.4484 10.1604C64.4484 10.0546 64.4182 9.92605 64.5993 9.92605C64.7803 9.92605 64.7577 10.047 64.7577 10.1529C64.7577 10.8106 64.7652 11.4608 64.7501 12.1186C64.7426 12.3605 64.8256 12.4361 65.0519 12.4135C65.4366 12.3756 65.9269 12.5722 66.1758 12.3303C66.3945 12.1186 66.2286 11.6347 66.2361 11.2718C66.2437 10.9089 66.2361 10.5385 66.2437 10.1756C66.2437 10.0773 66.1833 9.93361 66.3795 9.92605C66.5907 9.91849 66.5454 10.0697 66.5454 10.1907C66.5454 10.8333 66.5454 11.476 66.5454 12.1186C66.5454 12.2698 66.5228 12.4135 66.7642 12.421C66.9829 12.4286 66.8999 12.6327 66.8924 12.7461C66.8924 12.92 66.9905 13.1619 66.8019 13.2678C66.6435 13.3585 66.5454 13.2224 66.5756 13.0485C66.6284 12.731 66.4775 12.6705 66.1984 12.6856C65.7232 12.7083 65.2404 12.6781 64.7652 12.6932C64.5314 12.7008 64.4258 12.6478 64.4409 12.3832C64.4635 12.0279 64.4484 11.665 64.4484 11.2945Z" fill="#2B2B2B"/>
<path d="M113.786 16.0129C113.786 15.65 113.793 15.2795 113.786 14.9166C113.778 14.7125 113.831 14.6218 114.057 14.6293C114.518 14.6445 114.985 14.6293 115.453 14.6369C115.559 14.6369 115.694 14.6067 115.702 14.7806C115.709 14.9922 115.551 14.9393 115.438 14.9393C115.098 14.9469 114.759 14.9544 114.419 14.9393C114.186 14.9242 114.088 15.0074 114.125 15.2342C114.133 15.272 114.133 15.3098 114.125 15.3476C114.065 15.7256 114.193 15.8995 114.601 15.839C114.782 15.8088 114.978 15.8315 115.166 15.839C115.257 15.839 115.377 15.8012 115.385 15.9675C115.393 16.1414 115.272 16.1263 115.151 16.1263C114.902 16.1263 114.646 16.1414 114.397 16.1263C114.178 16.1112 114.125 16.2019 114.125 16.406C114.11 17.1243 114.103 17.1243 114.827 17.1243C115.076 17.1243 115.332 17.1243 115.581 17.1243C115.679 17.1243 115.747 17.1319 115.755 17.2604C115.762 17.3965 115.694 17.4267 115.574 17.4267C115.046 17.4267 114.518 17.4191 113.99 17.4267C113.801 17.4267 113.801 17.3209 113.801 17.1848C113.786 16.7916 113.786 16.3985 113.786 16.0129Z" fill="#2B2B2B"/>
<path d="M84.8906 11.3176C84.8906 10.9244 84.8906 10.5388 84.8906 10.1457C84.8906 10.0247 84.8906 9.92644 85.0641 9.934C85.2225 9.94156 85.2074 10.0399 85.2074 10.1381C85.2074 10.3876 85.2225 10.6447 85.2074 10.8942C85.1923 11.0983 85.2753 11.1664 85.4639 11.1437C85.5242 11.1361 85.5921 11.1437 85.6525 11.1437C85.9919 11.1361 86.4143 11.2495 86.6406 11.0908C86.8669 10.932 86.6934 10.4859 86.716 10.1608C86.7236 10.0474 86.7009 9.934 86.8744 9.934C87.0479 9.934 87.0479 10.0323 87.0479 10.1533C87.0479 10.9169 87.0479 11.688 87.0479 12.4516C87.0479 12.5651 87.063 12.686 86.8895 12.6936C86.6934 12.7011 86.7085 12.5651 86.716 12.4365C86.716 12.4138 86.716 12.3836 86.716 12.3609C86.6859 12.0661 86.8367 11.5671 86.6557 11.5141C86.2484 11.3856 85.7732 11.4537 85.3206 11.4537C85.1697 11.4537 85.2074 11.5973 85.2074 11.688C85.1999 11.9527 85.2074 12.2173 85.2074 12.4819C85.2074 12.6029 85.1999 12.7087 85.0339 12.7011C84.8831 12.6936 84.8982 12.5877 84.8982 12.4894C84.8906 12.0963 84.8906 11.7032 84.8906 11.3176Z" fill="#2B2B2B"/>
<path d="M68.6588 16.1263C69.2019 15.6121 69.579 15.0602 70.092 14.6444C70.1448 14.599 70.2654 14.6368 70.4314 14.6368C70.1523 14.9544 69.9185 15.2417 69.6545 15.4912C69.4432 15.6953 69.3904 15.8541 69.6017 16.1111C69.926 16.5043 70.1976 16.9428 70.4993 17.3737C70.2579 17.472 70.1221 17.404 70.0014 17.2225C69.7374 16.8294 69.4583 16.4438 69.1868 16.0582C68.787 16.3531 68.5607 16.6933 68.6512 17.1847C68.6663 17.2906 68.6814 17.4115 68.5003 17.4191C68.2967 17.4267 68.3193 17.2906 68.3193 17.1696C68.3193 16.4135 68.3193 15.6575 68.3193 14.909C68.3193 14.7956 68.2816 14.6444 68.4777 14.6368C68.6814 14.6293 68.6437 14.7805 68.6437 14.9015C68.6588 15.287 68.6588 15.6726 68.6588 16.1263Z" fill="#2B2B2B"/>
<path d="M127.274 11.3326C127.274 11.688 127.282 12.0358 127.274 12.3911C127.274 12.5121 127.35 12.7011 127.116 12.6935C126.875 12.686 126.98 12.4894 126.98 12.376C126.973 11.7485 126.973 11.1209 126.98 10.4859C126.98 10.3044 126.95 10.2288 126.739 10.2212C125.841 10.191 125.849 10.1834 125.811 11.0831C125.796 11.4612 125.788 11.8392 125.683 12.2021C125.562 12.6104 125.283 12.7994 124.936 12.7313C124.83 12.7086 124.785 12.6708 124.785 12.565C124.785 12.4516 124.823 12.4138 124.944 12.4213C125.26 12.4516 125.351 12.2172 125.404 11.9753C125.532 11.4536 125.524 10.9244 125.494 10.4027C125.472 9.98688 125.615 9.88859 125.992 9.92639C126.332 9.95663 126.671 9.94151 127.01 9.92639C127.222 9.91883 127.297 9.97175 127.289 10.1986C127.267 10.5766 127.274 10.9546 127.274 11.3326Z" fill="#2B2B2B"/>
<path d="M81.5027 11.3403C81.5027 11.7032 81.5027 12.0661 81.5027 12.4366C81.5027 12.55 81.5555 12.7163 81.3443 12.7012C81.1708 12.6861 81.2085 12.55 81.2085 12.4441C81.2085 11.8015 81.1934 11.1588 81.216 10.5238C81.2236 10.2894 81.1481 10.2289 80.9218 10.2289C80.0619 10.2213 80.0619 10.2138 80.0544 11.0832C80.0544 11.4991 80.0317 11.9149 79.8884 12.308C79.7828 12.618 79.5716 12.7768 79.2246 12.7465C79.0964 12.739 79.0059 12.7239 79.0059 12.5651C79.0059 12.3988 79.1039 12.4366 79.202 12.4366C79.5113 12.4366 79.6018 12.1946 79.647 11.9603C79.7526 11.4159 79.7677 10.864 79.7375 10.3121C79.7225 10.0172 79.813 9.91893 80.1072 9.94161C80.4919 9.97185 80.8841 9.95673 81.2764 9.94161C81.4574 9.93405 81.5177 9.99453 81.5102 10.176C81.4951 10.554 81.5027 10.9471 81.5027 11.3403Z" fill="#2B2B2B"/>
<path d="M106.079 11.3404C106.079 11.7184 106.079 12.0964 106.079 12.4745C106.079 12.5728 106.094 12.6786 105.943 12.6862C105.777 12.6937 105.77 12.5954 105.77 12.4669C105.77 11.8243 105.762 11.1816 105.777 10.539C105.785 10.3046 105.732 10.2139 105.468 10.2139C104.653 10.2139 104.661 10.1988 104.608 11.0077C104.578 11.4311 104.601 11.8621 104.45 12.2779C104.329 12.603 104.118 12.7693 103.763 12.7391C103.635 12.7315 103.59 12.6786 103.59 12.5576C103.59 12.4291 103.665 12.4291 103.763 12.4291C104.073 12.4291 104.156 12.2023 104.208 11.9604C104.337 11.3858 104.291 10.8036 104.284 10.229C104.284 9.99463 104.352 9.92659 104.578 9.93415C104.993 9.94927 105.408 9.94927 105.823 9.93415C106.041 9.92659 106.102 10.0022 106.087 10.2139C106.071 10.5844 106.079 10.9624 106.079 11.3404Z" fill="#2B2B2B"/>
<path d="M79.6101 16.1029C80.2512 15.6417 80.5303 14.863 81.2545 14.5908C81.2846 14.6211 81.3148 14.6513 81.3525 14.6815C81.1036 14.9613 80.8773 15.2713 80.5982 15.5208C80.3644 15.7324 80.3945 15.8761 80.5756 16.1029C80.8924 16.5036 81.1715 16.9346 81.4732 17.3731C81.2243 17.4714 81.081 17.3882 80.9603 17.1916C80.7415 16.8514 80.5001 16.5339 80.2738 16.2012C80.1758 16.0575 80.123 16.0727 79.9948 16.1861C79.7006 16.4431 79.5573 16.7456 79.6176 17.1463C79.6327 17.2445 79.693 17.4109 79.4743 17.4184C79.2555 17.426 79.3083 17.2748 79.3083 17.1614C79.3083 16.4053 79.3083 15.6493 79.3083 14.9008C79.3083 14.7874 79.2631 14.6286 79.4743 14.6362C79.6855 14.6437 79.6176 14.8101 79.6176 14.9159C79.6101 15.3015 79.6101 15.6871 79.6101 16.1029Z" fill="#2B2B2B"/>
<path d="M60.902 11.3176C60.902 11.7107 60.902 12.0963 60.902 12.4895C60.902 12.5953 60.9096 12.686 60.7587 12.7012C60.5852 12.7163 60.5852 12.6029 60.5852 12.4819C60.5852 12.4592 60.5852 12.429 60.5852 12.4063C60.555 12.0963 60.7134 11.5822 60.5248 11.5217C60.1251 11.3781 59.6423 11.4613 59.1897 11.4613C59.0313 11.4613 59.0841 11.6049 59.0841 11.6956C59.0766 11.9602 59.0841 12.2249 59.0841 12.4895C59.0841 12.5953 59.0766 12.6936 58.9332 12.6936C58.7824 12.6936 58.7824 12.5953 58.7824 12.4895C58.7824 11.7107 58.7824 10.932 58.7824 10.1533C58.7824 10.055 58.7597 9.94915 58.9181 9.94159C59.0615 9.94159 59.0916 10.0172 59.0841 10.1306C59.0841 10.1684 59.0841 10.2062 59.0841 10.244C59.1143 10.5389 58.9559 11.0303 59.1444 11.0908C59.5518 11.2193 60.0345 11.1437 60.4796 11.1437C60.6078 11.1437 60.5852 11.0227 60.5852 10.9396C60.5852 10.675 60.5927 10.4103 60.5852 10.1457C60.5852 10.0172 60.6003 9.92647 60.7662 9.93403C60.9246 9.94159 60.902 10.0474 60.902 10.1457C60.902 10.5313 60.902 10.9245 60.902 11.3176Z" fill="#2B2B2B"/>
<path d="M133.913 11.4465C134.426 10.9097 134.879 10.4182 135.347 9.94948C135.392 9.89656 135.535 9.94192 135.701 9.94192C135.384 10.2973 135.113 10.6148 134.819 10.9172C134.698 11.0458 134.698 11.1289 134.804 11.265C135.083 11.6355 135.347 12.0211 135.603 12.4066C135.656 12.4822 135.829 12.573 135.671 12.6713C135.573 12.7317 135.43 12.7015 135.347 12.573C135.128 12.2479 134.887 11.9455 134.683 11.6128C134.54 11.386 134.457 11.3255 134.223 11.5599C133.966 11.8245 133.891 12.0967 133.921 12.4369C133.929 12.5352 133.974 12.6788 133.785 12.6864C133.574 12.6939 133.619 12.5427 133.619 12.4293C133.619 11.6733 133.619 10.9172 133.619 10.1612C133.619 10.0553 133.589 9.9268 133.778 9.93436C133.966 9.94192 133.921 10.0705 133.921 10.1763C133.913 10.577 133.913 10.9777 133.913 11.4465Z" fill="#2B2B2B"/>
<path d="M119.052 16.0273C119.052 15.6341 119.052 15.2485 119.052 14.8554C119.052 14.7344 119.045 14.621 119.218 14.6361C119.377 14.6437 119.346 14.7571 119.354 14.8554C119.354 14.8932 119.354 14.931 119.354 14.9688C119.384 15.2636 119.226 15.7475 119.422 15.8156C119.829 15.9516 120.312 15.8685 120.757 15.8685C120.885 15.8685 120.855 15.7475 120.863 15.6644C120.863 15.3846 120.863 15.1124 120.863 14.8327C120.863 14.7269 120.87 14.6361 121.021 14.6361C121.164 14.6361 121.18 14.7269 121.18 14.8327C121.18 15.6341 121.18 16.4431 121.18 17.2445C121.18 17.373 121.134 17.4259 121.006 17.4184C120.885 17.4184 120.863 17.3503 120.863 17.2521C120.863 16.9648 120.855 16.6699 120.863 16.3826C120.87 16.2087 120.817 16.1331 120.629 16.1407C120.274 16.1558 119.927 16.1558 119.573 16.1407C119.384 16.1331 119.339 16.2163 119.346 16.3826C119.354 16.6472 119.354 16.9118 119.346 17.1764C119.346 17.2747 119.392 17.4108 119.203 17.4184C119.015 17.4259 119.045 17.2974 119.045 17.1916C119.052 16.806 119.052 16.4128 119.052 16.0273Z" fill="#2B2B2B"/>
<path d="M106.154 16.0275C106.154 15.4454 106.486 14.9237 107.007 14.7196C107.55 14.5154 108.07 14.5683 108.508 14.9766C108.583 15.0447 108.757 15.0976 108.621 15.2639C108.478 15.4378 108.41 15.2639 108.327 15.1959C107.799 14.7725 107.105 14.8178 106.72 15.3017C106.32 15.8007 106.388 16.519 106.886 16.9197C107.286 17.2448 107.889 17.2221 108.342 16.8667C108.425 16.7987 108.485 16.6248 108.636 16.7836C108.794 16.9499 108.606 17.0104 108.538 17.0709C108.078 17.4716 107.557 17.5547 106.999 17.3279C106.471 17.1238 106.154 16.6097 106.154 16.0275Z" fill="#2B2B2B"/>
<path d="M66.7031 14.6068C67.0727 14.5992 67.3971 14.7202 67.6536 14.9848C67.729 15.0604 67.9025 15.1133 67.7441 15.2721C67.5857 15.4309 67.5329 15.257 67.4574 15.1889C67.0954 14.879 66.688 14.8185 66.2656 14.9999C65.8281 15.1814 65.6094 15.5518 65.6018 16.013C65.5943 16.4591 65.7829 16.8296 66.1977 17.0337C66.6579 17.2605 67.0954 17.1849 67.4951 16.8598C67.5706 16.7993 67.6309 16.6557 67.7667 16.7918C67.9251 16.9505 67.7441 17.0186 67.6686 17.0866C67.216 17.5176 66.4844 17.5856 65.9563 17.253C65.4132 16.9127 65.1643 16.2776 65.3378 15.6426C65.5113 15.0226 66.0544 14.6143 66.7031 14.6068Z" fill="#2B2B2B"/>
<path d="M76.2539 15.8841C76.2841 15.3776 76.5782 14.9391 77.1213 14.7123C77.6644 14.493 78.1849 14.5762 78.6299 14.9769C78.7129 15.0525 78.8638 15.1205 78.7129 15.2717C78.5771 15.4154 78.5243 15.2717 78.4489 15.2112C77.9586 14.7954 77.3024 14.7954 76.8875 15.2188C76.4877 15.6271 76.4651 16.3302 76.8347 16.7687C77.2194 17.2223 77.8907 17.2753 78.3961 16.8972C78.4263 16.8746 78.4564 16.8519 78.4866 16.8292C78.562 16.7687 78.6224 16.6704 78.7355 16.7838C78.8713 16.9275 78.728 16.9804 78.6601 17.056C78.2754 17.4491 77.6041 17.5626 77.0912 17.3357C76.5481 17.0938 76.2237 16.5721 76.2539 15.8841Z" fill="#2B2B2B"/>
<path d="M131.808 12.7312C131.257 12.7312 130.699 12.3305 130.525 11.7483C130.337 11.1132 130.586 10.4404 131.129 10.1001C131.657 9.76748 132.381 9.83552 132.841 10.2589C132.916 10.327 133.06 10.3874 132.954 10.5311C132.834 10.6974 132.751 10.5613 132.66 10.4857C132.117 10.0548 131.483 10.085 131.068 10.5462C130.684 10.9772 130.691 11.6727 131.084 12.0961C131.491 12.5422 132.162 12.5573 132.683 12.1263C132.758 12.0583 132.811 11.9298 132.947 12.0659C133.082 12.202 132.954 12.2624 132.879 12.338C132.607 12.6027 132.283 12.7387 131.808 12.7312Z" fill="#2B2B2B"/>
<path d="M93.6998 16.0582C93.7149 16.5119 93.9186 16.8521 94.3259 17.0487C94.7483 17.2452 95.1481 17.1772 95.5253 16.905C95.6158 16.837 95.6988 16.6177 95.8496 16.7992C96.008 16.9882 95.7742 17.0562 95.6837 17.1394C95.1029 17.6233 94.2203 17.5477 93.7225 16.9806C93.2246 16.4211 93.2548 15.5668 93.7828 15.0376C94.3108 14.5008 95.1708 14.4705 95.7214 14.9695C95.7968 15.0376 95.9477 15.0981 95.8723 15.2341C95.7742 15.408 95.6762 15.34 95.5555 15.2266C95.2009 14.8939 94.771 14.8183 94.341 15.0225C93.911 15.2039 93.6772 15.5668 93.6998 16.0582Z" fill="#2B2B2B"/>
<path d="M99.4024 9.90362C99.7871 9.89606 100.111 10.0321 100.391 10.2968C100.458 10.3648 100.572 10.4253 100.466 10.5463C100.353 10.6748 100.285 10.5841 100.187 10.5085C99.7268 10.138 99.2591 10.0851 98.8367 10.3421C98.3011 10.6748 98.1352 11.4006 98.4746 11.9298C98.8141 12.4666 99.5231 12.6027 100.059 12.2398C100.119 12.1944 100.187 12.1566 100.232 12.0962C100.315 11.9979 100.375 11.9827 100.474 12.081C100.602 12.202 100.474 12.2549 100.413 12.3154C100.029 12.7312 99.3496 12.8522 98.8141 12.6178C98.286 12.3835 97.9541 11.8391 97.9843 11.2569C98.0145 10.4707 98.6104 9.89606 99.4024 9.90362Z" fill="#2B2B2B"/>
<path d="M102.27 12.7315C101.629 12.7315 101.086 12.3157 100.912 11.7184C100.739 11.1136 100.988 10.4407 101.523 10.108C102.036 9.78291 102.768 9.83584 103.198 10.2441C103.273 10.3197 103.454 10.3802 103.334 10.539C103.183 10.728 103.1 10.539 103.009 10.4634C102.541 10.0853 101.923 10.1005 101.508 10.5087C101.093 10.917 101.055 11.605 101.433 12.0511C101.802 12.4896 102.421 12.5652 102.934 12.2552C103.054 12.1796 103.168 11.8318 103.349 12.1115C103.484 12.3157 103.19 12.3988 103.062 12.4971C102.828 12.6786 102.549 12.7542 102.27 12.7315Z" fill="#2B2B2B"/>
<path d="M97.291 16.2246C97.5098 15.7559 97.7059 15.3249 97.9096 14.894C97.9548 14.8032 97.9699 14.6898 98.0755 14.652C98.1359 14.6293 98.2339 14.6369 98.2867 14.6671C98.3471 14.705 98.3018 14.773 98.2792 14.8335C97.9096 15.5895 97.5551 16.3456 97.1779 17.0941C97.0346 17.3814 96.763 17.4797 96.4538 17.4494C96.3406 17.4419 96.2652 17.404 96.2727 17.268C96.2803 17.1319 96.3633 17.1546 96.4538 17.147C97.0195 17.0789 97.2005 16.7236 96.929 16.2171C96.7027 15.7937 96.4764 15.3778 96.2652 14.9544C96.2199 14.8637 96.0314 14.7503 96.2049 14.652C96.3633 14.5689 96.4689 14.6898 96.5443 14.8486C96.7178 15.1964 96.9063 15.5366 97.0949 15.8768C97.1477 15.9827 97.2156 16.0885 97.291 16.2246Z" fill="#2B2B2B"/>
<path d="M109.88 14.6293C110.144 14.6293 110.408 14.6293 110.672 14.6293C110.793 14.6293 110.906 14.6217 110.899 14.7956C110.891 14.9544 110.778 14.9242 110.687 14.9317C110.054 14.9846 110.054 14.9846 110.054 15.6424C110.054 16.1187 110.061 16.595 110.046 17.0713C110.046 17.1923 110.152 17.404 109.888 17.4116C109.624 17.4191 109.722 17.215 109.714 17.0865C109.707 16.4816 109.692 15.8843 109.714 15.2795C109.722 14.9922 109.639 14.9166 109.36 14.9166C109.201 14.9166 108.885 15.0905 108.877 14.7805C108.87 14.4781 109.186 14.6595 109.352 14.6293C109.526 14.6066 109.707 14.6293 109.88 14.6293Z" fill="#2B2B2B"/>
<path d="M121.044 11.4457C121.044 11.1282 121.029 10.8182 121.052 10.5006C121.059 10.2814 120.984 10.2058 120.773 10.2285C120.637 10.2436 120.494 10.2285 120.358 10.2285C120.26 10.2285 120.192 10.2058 120.184 10.0848C120.177 9.96384 120.23 9.93359 120.343 9.93359C120.916 9.93359 121.497 9.93359 122.07 9.93359C122.176 9.93359 122.236 9.96384 122.221 10.0848C122.213 10.1755 122.183 10.2285 122.085 10.2285C122.063 10.2285 122.032 10.2285 122.01 10.2285C121.361 10.2889 121.361 10.2889 121.361 10.9543C121.361 11.4457 121.361 11.9371 121.361 12.4286C121.361 12.5495 121.399 12.7007 121.203 12.7007C121.007 12.7007 121.044 12.542 121.044 12.4286C121.044 12.0959 121.044 11.7708 121.044 11.4457Z" fill="#2B2B2B"/>
<path d="M88.3663 16.0585C88.3663 15.6653 88.3738 15.2797 88.3663 14.8866C88.3587 14.6824 88.4342 14.622 88.6303 14.6295C89.0452 14.6371 89.46 14.6295 89.8749 14.6371C89.9881 14.6371 90.1087 14.622 90.1087 14.7959C90.1087 14.9849 89.973 14.9395 89.8674 14.9395C89.5807 14.9471 89.2866 14.9546 88.9999 14.9395C88.7585 14.9244 88.6982 15.0151 88.7057 15.2419C88.7208 15.8694 88.7133 16.5045 88.7057 17.1321C88.7057 17.253 88.7736 17.4345 88.5322 17.4269C88.2908 17.4194 88.3814 17.2379 88.3738 17.1245C88.3587 16.7616 88.3663 16.4138 88.3663 16.0585Z" fill="#2B2B2B"/>
<path d="M124.242 16.0276C124.242 15.6496 124.242 15.2715 124.242 14.8935C124.242 14.7801 124.197 14.6289 124.408 14.6289C124.597 14.6365 124.552 14.765 124.552 14.8708C124.552 15.642 124.552 16.4056 124.552 17.1768C124.552 17.2826 124.597 17.4112 124.408 17.4187C124.197 17.4263 124.242 17.2751 124.242 17.1617C124.242 16.7836 124.242 16.4056 124.242 16.0276Z" fill="#2B2B2B"/>
<path d="M90.1775 11.302C90.1775 10.924 90.1775 10.546 90.1775 10.168C90.1775 10.0546 90.1548 9.93359 90.3359 9.93359C90.5245 9.93359 90.4792 10.0697 90.4792 10.1755C90.4792 10.9467 90.4792 11.7103 90.4792 12.4815C90.4792 12.5798 90.5018 12.6932 90.3434 12.7007C90.1775 12.7083 90.1699 12.5949 90.1699 12.4739C90.1775 12.0808 90.1775 11.6876 90.1775 11.302Z" fill="#2B2B2B"/>
<path d="M85.9086 14.3036C85.7427 14.2884 85.5692 14.2431 85.4636 14.0843C85.3957 13.986 85.2826 13.8499 85.3957 13.7592C85.539 13.6382 85.5843 13.8046 85.6597 13.9029C85.8181 14.0994 86.0067 14.0994 86.15 13.8877C86.2179 13.797 86.2556 13.6534 86.3838 13.7516C86.4894 13.8348 86.4065 13.9633 86.3537 14.0541C86.2632 14.228 86.0972 14.2809 85.9086 14.3036Z" fill="#2B2B2B"/>
<path d="M126.377 14.3043C126.227 14.2816 126.076 14.2513 125.978 14.1153C125.902 14.0094 125.766 13.8582 125.895 13.7523C126.038 13.6238 126.076 13.828 126.159 13.9111C126.355 14.1077 126.536 14.085 126.672 13.8431C126.724 13.7523 126.777 13.6843 126.868 13.7372C126.958 13.7902 126.928 13.896 126.89 13.9792C126.792 14.206 126.596 14.2816 126.377 14.3043Z" fill="#2B2B2B"/>
<path d="M140.377 9.57118C140.165 9.57874 139.992 9.46533 139.901 9.22339C139.879 9.16291 139.834 9.07219 139.932 9.03438C140 9.0117 140.075 9.01926 140.12 9.10243C140.301 9.41997 140.505 9.45021 140.693 9.10999C140.754 9.00414 140.837 8.99658 140.912 9.04194C140.988 9.08731 140.935 9.18559 140.912 9.24608C140.837 9.48045 140.656 9.57118 140.377 9.57118Z" fill="#2B2B2B"/>
<path d="M92.4482 9.57128C92.1615 9.57128 91.9956 9.45031 91.9126 9.20838C91.8975 9.15546 91.8749 9.07229 91.9428 9.04205C92.0031 9.01181 92.0785 9.00425 92.1313 9.09497C92.335 9.44275 92.5387 9.42007 92.7273 9.08741C92.765 9.01937 92.8329 9.01937 92.8932 9.03449C92.9988 9.06473 92.9611 9.15546 92.9385 9.2235C92.848 9.45787 92.682 9.5864 92.4482 9.57128Z" fill="#2B2B2B"/>
<path d="M85.8247 23.951C85.4551 22.3028 84.0974 21.1233 82.3398 20.9268C80.6351 20.7302 78.9832 21.6072 78.2439 23.1042C76.9691 25.6899 78.9077 28.646 81.8872 28.646C84.4745 28.6385 86.3754 26.3779 85.8247 23.951ZM81.8948 27.1793C80.5521 27.1793 79.5338 26.1435 79.5338 24.7751C79.5338 23.4217 80.5747 22.3406 81.8872 22.3481C83.2073 22.3481 84.2482 23.4066 84.2558 24.7675C84.2558 26.1284 83.2299 27.1793 81.8948 27.1793Z" fill="#2B2B2B"/>
<path d="M85.1316 34.3925C85.1919 34.3245 85.2447 34.264 85.2975 34.2111C86.1499 33.3719 86.1197 32.2227 85.207 31.4364C84.7243 31.0206 84.151 30.8694 83.5325 30.8694C82.6047 30.8694 81.6769 30.8845 80.7491 30.8618C80.4624 30.8542 80.3945 30.9374 80.3945 31.2171C80.4096 33.0543 80.4021 34.8915 80.4021 36.7287C80.4021 37.1672 80.4021 37.6133 80.4021 38.0518C80.4021 38.1879 80.4096 38.2938 80.5982 38.2938C81.8126 38.2786 83.0346 38.324 84.249 38.256C85.2296 38.1955 86.0594 37.4167 86.2329 36.5548C86.4215 35.6778 86.0594 34.9596 85.1316 34.3925ZM82.6725 32.2227C82.9818 32.2227 83.2986 32.2151 83.6079 32.2378C84.0454 32.2756 84.3018 32.578 84.2943 33.0241C84.2868 33.4475 84.0303 33.7348 83.6079 33.7726C83.374 33.7953 83.1327 33.7726 82.8913 33.7726C82.0012 33.7801 82.0012 33.7801 82.0012 32.888C82.0087 32.2227 82.0087 32.2227 82.6725 32.2227ZM83.8794 36.9329C83.5853 36.9707 83.276 36.9404 82.9818 36.9404C82.6725 36.9329 82.2652 37.0992 82.0766 36.9026C81.8805 36.7061 82.0238 36.3053 82.0163 35.9954C82.0088 35.073 82.0163 35.0654 82.9215 35.073C83.2383 35.073 83.5475 35.073 83.8644 35.1108C84.3471 35.1637 84.6865 35.5644 84.679 36.0332C84.6715 36.4868 84.3546 36.8724 83.8794 36.9329Z" fill="#2B2B2B"/>
<path d="M97.9707 30.9443C97.322 30.8158 96.6658 30.9065 96.1227 30.8763C95.5117 30.8763 95.0063 30.8914 94.5085 30.8687C94.2445 30.8536 94.1992 30.9519 94.1992 31.1862C94.2068 33.4544 94.2068 35.7225 94.1992 37.9907C94.1992 38.2099 94.2369 38.3158 94.4858 38.3006C94.8404 38.278 95.1874 38.2855 95.5419 38.3006C95.7531 38.3082 95.8285 38.2402 95.821 38.0209C95.8059 37.3934 95.8285 36.7583 95.8134 36.1308C95.8059 35.9191 95.8738 35.851 96.085 35.8586C96.5602 35.8737 97.0429 35.8662 97.5182 35.8586C98.7854 35.8435 99.8716 34.8606 99.9697 33.6434C100.083 32.3127 99.2531 31.2089 97.9707 30.9443ZM97.4503 34.407C96.9675 34.4524 96.4772 34.4221 95.9869 34.4297C95.821 34.4297 95.8134 34.339 95.8134 34.2104C95.8134 33.9307 95.8134 33.6585 95.8134 33.3183C95.8587 33.0386 95.655 32.5774 95.8964 32.3808C96.1001 32.2145 96.5451 32.3279 96.877 32.3279C97.0731 32.3279 97.2768 32.3203 97.4729 32.3505C98.016 32.4413 98.3781 32.8798 98.3705 33.3939C98.3705 33.908 97.9934 34.3541 97.4503 34.407Z" fill="#2B2B2B"/>
<path d="M119.399 23.5276C118.848 23.4519 118.298 23.4822 117.74 23.4897C117.483 23.4897 117.423 23.399 117.423 23.1646C117.43 22.5825 117.408 22.0079 117.43 21.4257C117.445 21.1158 117.332 21.0326 117.046 21.0553C116.744 21.0779 116.442 21.0779 116.14 21.0553C115.861 21.0326 115.809 21.146 115.809 21.4031C115.824 22.522 115.816 23.6485 115.816 24.7675C115.816 25.9016 115.816 27.0356 115.816 28.1697C115.816 28.3436 115.809 28.4797 116.058 28.4797C117.129 28.4646 118.192 28.5024 119.263 28.457C120.538 28.4041 121.534 27.3607 121.571 26.1132C121.609 24.7372 120.727 23.7014 119.399 23.5276ZM119.972 26.0906C119.935 26.5896 119.527 26.9978 119.007 27.0205C118.554 27.0432 118.102 27.0205 117.657 27.0281C117.461 27.0356 117.423 26.9449 117.43 26.7786C117.438 26.514 117.43 26.2493 117.43 25.9242C117.461 25.6521 117.287 25.2135 117.491 25.0019C117.717 24.775 118.154 24.9414 118.501 24.9262C118.713 24.9187 118.931 24.9262 119.135 24.964C119.701 25.085 120.018 25.5311 119.972 26.0906Z" fill="#2B2B2B"/>
<path d="M75.0683 21.1162C73.967 20.965 72.8582 21.0936 71.7569 21.0482C71.4703 21.0331 71.3722 21.1087 71.3798 21.4187C71.4024 22.5301 71.3873 23.6339 71.3873 24.7453C71.3873 25.3123 71.3873 25.8793 71.3873 26.4464C71.3873 27.0134 71.3948 27.5805 71.3798 28.1475C71.3722 28.3743 71.4099 28.4953 71.6815 28.4726C72.0209 28.4499 72.3604 28.4499 72.6998 28.4726C72.9487 28.4877 72.994 28.3894 72.9864 28.1702C72.9713 27.5653 72.994 26.9605 72.9789 26.3557C72.9713 26.0986 73.0619 26.0381 73.3032 26.0457C73.8086 26.0608 74.3065 26.0608 74.8118 26.0381C76.1017 25.9701 77.0898 24.9645 77.1577 23.6717C77.2105 22.394 76.3431 21.2901 75.0683 21.1162ZM74.6308 24.5865C74.1481 24.6243 73.6502 24.5941 73.1675 24.6016C73.0091 24.6016 72.9864 24.5185 72.9864 24.3899C72.994 24.1026 72.9864 23.8153 72.9864 23.5205C72.994 23.5205 73.0015 23.5205 73.0166 23.5205C73.0166 23.1954 72.8884 22.7644 73.0468 22.5754C73.2353 22.3486 73.6804 22.5149 74.0123 22.4998C74.2386 22.4923 74.4649 22.4998 74.6836 22.5376C75.2267 22.6359 75.5661 23.0669 75.5435 23.6036C75.5284 24.1102 75.1513 24.5411 74.6308 24.5865Z" fill="#2B2B2B"/>
<path d="M134.222 23.5356C133.709 23.46 133.196 23.4751 132.675 23.4903C132.374 23.4978 132.253 23.4298 132.275 23.1047C132.306 22.5301 132.275 21.9479 132.291 21.3658C132.298 21.139 132.238 21.0482 131.996 21.0634C131.672 21.0785 131.34 21.086 131.016 21.0634C130.752 21.0482 130.669 21.1238 130.676 21.396C130.691 22.515 130.684 23.6415 130.684 24.7604C130.684 25.3275 130.684 25.8945 130.684 26.4615C130.684 27.0286 130.691 27.5956 130.676 28.1626C130.669 28.4046 130.737 28.4877 130.986 28.4802C131.981 28.465 132.969 28.4953 133.965 28.465C135.217 28.4348 136.273 27.4141 136.334 26.212C136.409 24.8209 135.542 23.7322 134.222 23.5356ZM133.86 27.0134C133.399 27.0588 132.932 27.0286 132.472 27.0361C132.313 27.0361 132.283 26.9605 132.283 26.8244C132.291 26.5371 132.283 26.2498 132.283 25.8945C132.313 25.6374 132.14 25.214 132.343 25.0099C132.562 24.7907 132.985 24.9494 133.316 24.9419C133.513 24.9343 133.716 24.9419 133.912 24.9797C134.425 25.078 134.75 25.5165 134.735 26.0381C134.727 26.522 134.357 26.9681 133.86 27.0134Z" fill="#2B2B2B"/>
<path d="M111.578 12.452C111.254 12.3764 111.337 12.1874 111.329 12.0059C111.322 11.7262 111.329 11.454 111.329 11.1743C111.329 11.0004 111.329 10.819 111.329 10.6451C111.329 9.93438 111.329 9.93438 110.628 9.93438C110.311 9.93438 109.904 9.82097 109.707 9.97218C109.474 10.1536 109.647 10.5846 109.625 10.9021C109.587 11.3936 109.564 11.9379 109.202 12.2781C108.961 12.5125 108.953 12.7242 108.961 12.9812C108.961 13.1022 108.893 13.2837 109.119 13.2912C109.353 13.2988 109.293 13.1098 109.285 12.9888C109.27 12.7544 109.353 12.6788 109.587 12.6864C110.039 12.7015 110.492 12.7091 110.945 12.6864C111.239 12.6713 111.412 12.7318 111.352 13.0644C111.344 13.1022 111.344 13.14 111.352 13.1778C111.382 13.3215 111.495 13.3139 111.586 13.2761C111.714 13.2307 111.669 13.1022 111.661 13.0115C111.631 12.8225 111.782 12.4974 111.578 12.452ZM110.741 12.4218C110.394 12.3991 110.039 12.4142 109.685 12.4142C109.647 12.4142 109.617 12.4067 109.526 12.3915C109.881 11.7943 109.964 11.1819 109.926 10.5468C109.911 10.32 109.956 10.2217 110.228 10.2217C111.028 10.2292 111.028 10.2141 111.028 11.0306C111.028 11.3936 111.02 11.7565 111.028 12.1269C111.035 12.3386 110.982 12.4369 110.741 12.4218Z" fill="#2B2B2B"/>
<path d="M100.754 17.1314C100.369 17.1314 100.52 16.8592 100.505 16.6778C100.49 16.4132 100.497 16.1486 100.497 15.8839C100.497 15.7327 100.497 15.5815 100.497 15.4303C100.497 14.6289 100.497 14.6289 99.6978 14.6289C98.7776 14.6289 98.7776 14.6289 98.77 15.5362C98.7625 16.0427 98.7399 16.5871 98.3853 16.9575C98.144 17.207 98.1364 17.4338 98.1439 17.706C98.1515 17.8119 98.0685 17.9858 98.2646 18.0009C98.4985 18.0236 98.4532 17.8345 98.4381 17.7136C98.408 17.449 98.5286 17.4036 98.7625 17.4112C99.1924 17.4263 99.6148 17.4338 100.045 17.4112C100.369 17.396 100.58 17.4263 100.512 17.827C100.482 18.016 100.626 18.0311 100.754 17.9858C100.852 17.9555 100.837 17.1314 100.754 17.1314ZM99.9241 17.1239C99.5243 17.1087 99.1245 17.1163 98.6795 17.1163C99.0567 16.5039 99.117 15.8613 99.0944 15.2035C99.0868 14.9767 99.1849 14.9389 99.381 14.9313C100.181 14.9162 100.181 14.9086 100.181 15.7025C100.181 16.0805 100.173 16.4585 100.188 16.8366C100.196 17.0407 100.15 17.1314 99.9241 17.1239Z" fill="#2B2B2B"/>
<path d="M117.212 11.3706C117.084 11.2497 117.084 11.1967 117.182 11.0455C117.499 10.5465 117.182 9.97193 116.593 9.94169C116.307 9.92657 116.02 9.95681 115.734 9.93413C115.507 9.91901 115.462 10.0173 115.47 10.2214C115.485 10.5692 115.47 10.9246 115.47 11.2723C115.47 11.6579 115.477 12.0511 115.47 12.4366C115.462 12.6257 115.522 12.7088 115.726 12.7013C116.035 12.6861 116.352 12.7088 116.661 12.6937C116.986 12.6861 117.25 12.5425 117.378 12.2325C117.499 11.9225 117.476 11.6126 117.212 11.3706ZM115.779 10.3273C115.779 10.3046 115.794 10.2744 115.809 10.2592C115.96 10.108 116.85 10.2592 116.948 10.4558C117.076 10.7129 116.94 11.0077 116.654 11.0606C116.533 11.0833 116.405 11.0606 116.224 11.0606C116.118 11.0228 115.877 11.174 115.801 10.985C115.726 10.796 115.779 10.5541 115.779 10.3273ZM116.79 12.3686C116.631 12.4291 116.473 12.4064 116.284 12.414C116.141 12.361 115.862 12.5274 115.801 12.3232C115.726 12.0435 115.786 11.7335 115.786 11.4311C115.786 11.4235 115.794 11.4084 115.809 11.4009C116.035 11.1892 117.008 11.4387 117.091 11.7411C117.182 12.0359 117.084 12.2552 116.79 12.3686Z" fill="#2B2B2B"/>
<path d="M75.6276 16.0584C75.5446 15.9828 75.4767 15.9525 75.5748 15.8089C75.9368 15.2721 75.6577 14.7126 75.0166 14.6446C74.73 14.6143 74.4433 14.6521 74.1492 14.6294C73.9229 14.6143 73.8701 14.7126 73.8776 14.9167C73.8927 15.2796 73.8776 15.6425 73.8776 16.013C73.8776 16.1113 73.8776 16.2171 73.8776 16.3154C73.8776 17.5175 73.8776 17.5175 75.0769 17.4268C75.092 17.4268 75.0996 17.4268 75.1147 17.4268C75.439 17.3966 75.6955 17.2378 75.8086 16.9278C75.9368 16.6027 75.8916 16.3003 75.6276 16.0584ZM74.2246 15.0831C74.3 14.7807 74.5716 15.0377 74.6998 14.9243C74.8657 14.9394 75.0091 14.9394 75.1373 14.9772C75.3485 15.0301 75.439 15.1889 75.4239 15.4006C75.4088 15.6123 75.3032 15.7635 75.0845 15.7862C74.8507 15.8089 74.6093 15.8013 74.3755 15.8013C74.2699 15.8013 74.2095 15.7484 74.2095 15.6425C74.2095 15.4535 74.1793 15.257 74.2246 15.0831ZM75.5295 16.7766C75.4692 16.9959 75.3032 17.1017 75.0845 17.1168C74.9714 17.1244 74.8582 17.1168 74.7149 17.1168C74.5791 17.0866 74.3151 17.2076 74.2548 17.0564C74.1416 16.7842 74.2095 16.4666 74.2246 16.1642C74.2246 16.134 74.2623 16.1037 74.2925 16.0886C74.4283 16.013 75.2278 16.0962 75.356 16.202C75.5446 16.3532 75.5899 16.5574 75.5295 16.7766Z" fill="#2B2B2B"/>
<path d="M112.995 16.0576C112.904 15.9745 112.859 15.9367 112.949 15.793C113.304 15.2487 113.025 14.6892 112.376 14.6363C112.105 14.6136 111.826 14.6438 111.546 14.6212C111.335 14.606 111.252 14.6741 111.267 14.8933C111.282 15.2714 111.275 15.6494 111.275 16.0274C111.275 16.4054 111.275 16.7834 111.275 17.1615C111.275 17.1766 111.275 17.1841 111.275 17.1993C111.252 17.358 111.313 17.4261 111.486 17.4185C111.81 17.411 112.135 17.4261 112.467 17.411C112.806 17.3958 113.07 17.2371 113.198 16.912C113.319 16.5944 113.259 16.2996 112.995 16.0576ZM111.592 15.0445C111.592 15.0143 111.622 14.9765 111.645 14.9538C111.773 14.8631 112.58 14.9689 112.685 15.0823C112.897 15.3167 112.791 15.6947 112.489 15.7703C112.361 15.8006 112.218 15.793 112.097 15.8006C111.916 15.7703 111.667 15.8686 111.622 15.7401C111.546 15.536 111.592 15.2789 111.592 15.0445ZM112.354 17.1161C112.263 17.1161 112.18 17.1161 112.059 17.1161C111.924 17.0783 111.645 17.2068 111.607 17.0481C111.539 16.7532 111.592 16.4281 111.607 16.1181C111.607 16.0954 111.712 16.0728 111.773 16.0728C111.969 16.0652 112.173 16.0576 112.369 16.0728C112.701 16.0954 112.919 16.3223 112.919 16.6171C112.927 16.9271 112.723 17.1085 112.354 17.1161Z" fill="#2B2B2B"/>
<path d="M63.5197 14.6064C62.7126 14.6064 62.0941 15.234 62.1016 16.0429C62.1092 16.8292 62.7277 17.4492 63.5197 17.4568C64.3118 17.4643 64.9529 16.8141 64.9454 16.0127C64.9303 15.2188 64.3118 14.614 63.5197 14.6064ZM63.5273 17.1468C62.9087 17.1543 62.426 16.6856 62.4109 16.0656C62.3958 15.423 62.8635 14.9164 63.4896 14.9089C64.1383 14.9013 64.606 15.3625 64.621 16.0127C64.6361 16.6553 64.1609 17.1468 63.5273 17.1468Z" fill="#2B2B2B"/>
<path d="M91.5884 14.6064C90.7813 14.614 90.1703 15.2415 90.1778 16.0505C90.1853 16.8368 90.8039 17.4492 91.5959 17.4492C92.3955 17.4492 93.0292 16.8217 93.0292 16.0203C93.0292 15.2264 92.3955 14.6064 91.5884 14.6064ZM91.6186 17.1468C90.9849 17.1468 90.4946 16.6705 90.4871 16.0354C90.4795 15.4079 90.9774 14.9164 91.611 14.9089C92.2296 14.9089 92.7274 15.4154 92.7199 16.0429C92.7123 16.6553 92.222 17.1468 91.6186 17.1468Z" fill="#2B2B2B"/>
<path d="M71.7644 9.90396C70.9347 9.88128 70.3162 10.4634 70.3011 11.2875C70.286 12.0965 70.8743 12.724 71.6663 12.7391C72.5036 12.7543 73.1146 12.1721 73.1372 11.3556C73.1448 10.5466 72.5564 9.92664 71.7644 9.90396ZM71.7267 12.4443C71.1006 12.4519 70.6103 11.9604 70.6103 11.3178C70.6103 10.6827 71.1006 10.1837 71.7267 10.1761C72.315 10.1686 72.8204 10.6827 72.828 11.2951C72.828 11.9377 72.3528 12.4367 71.7267 12.4443Z" fill="#2B2B2B"/>
<path d="M71.9679 14.6065C71.1683 14.599 70.5121 15.234 70.5196 16.0279C70.5271 16.8217 71.1381 17.4341 71.9302 17.4492C72.7448 17.4644 73.3633 16.8444 73.3633 16.0279C73.3633 15.2265 72.7674 14.6216 71.9679 14.6065ZM71.9528 17.1544C71.3192 17.1544 70.8439 16.6705 70.8515 16.0203C70.8515 15.3701 71.3192 14.9014 71.9679 14.9089C72.5864 14.9165 73.0541 15.3928 73.0616 16.0128C73.0541 16.663 72.5789 17.1544 71.9528 17.1544Z" fill="#2B2B2B"/>
<path d="M113.434 9.90339C112.619 9.89583 112.008 10.4855 112.008 11.2794C112 12.1262 112.581 12.731 113.396 12.731C114.218 12.7386 114.829 12.1337 114.829 11.3172C114.829 10.5082 114.241 9.91095 113.434 9.90339ZM113.434 12.4437C112.807 12.4513 112.317 11.975 112.302 11.3399C112.287 10.7199 112.785 10.1983 113.396 10.1831C113.992 10.168 114.52 10.6897 114.527 11.3021C114.542 11.922 114.052 12.4362 113.434 12.4437Z" fill="#2B2B2B"/>
<path d="M122.922 15.6649C122.228 15.6271 122.228 15.6271 122.205 14.924C122.205 14.803 122.266 14.6216 122.032 14.6291C121.806 14.6443 121.881 14.8257 121.873 14.9467C121.866 15.5515 121.873 16.1564 121.873 16.7612C121.873 17.419 121.873 17.419 122.515 17.419C122.643 17.419 122.763 17.419 122.892 17.419C123.427 17.4038 123.789 17.0561 123.789 16.5571C123.797 16.0505 123.457 15.7027 122.922 15.6649ZM122.62 17.1317C122.054 17.1846 122.228 16.8141 122.205 16.5646C122.205 15.9749 122.205 15.9749 122.673 15.9749C123.224 15.9749 123.472 16.1412 123.48 16.5344C123.495 16.9275 123.216 17.0712 122.62 17.1317Z" fill="#2B2B2B"/>
<path d="M119.657 11.1962C119.506 10.8257 119.348 10.4553 119.197 10.0848C119.152 9.97896 119.091 9.93359 118.971 9.93359C118.842 9.93359 118.797 10.0092 118.76 10.1075C118.435 10.8938 118.103 11.6801 117.786 12.4739C117.764 12.5344 117.651 12.6402 117.794 12.6932C117.885 12.7234 117.998 12.731 118.066 12.6251C118.111 12.5495 118.149 12.4664 118.164 12.3832C118.247 12.0354 118.443 11.8842 118.805 11.9447C118.903 11.9598 119.008 11.9598 119.107 11.9447C119.506 11.8766 119.74 12.0278 119.823 12.4361C119.868 12.6402 119.982 12.7839 120.246 12.6629C120.049 12.1639 119.853 11.6801 119.657 11.1962ZM119.257 11.6423C118.458 11.7179 118.443 11.7027 118.744 10.9618C118.812 10.8031 118.873 10.6443 118.978 10.3948C119.144 10.7955 119.265 11.1055 119.401 11.4155C119.469 11.5742 119.438 11.6271 119.257 11.6423Z" fill="#2B2B2B"/>
<path d="M102.404 14.7804C102.367 14.6896 102.321 14.6367 102.216 14.6367C102.095 14.6367 102.042 14.6896 101.997 14.803C101.846 15.1886 101.68 15.5667 101.522 15.9522C101.326 16.4285 101.129 16.9124 100.926 17.3887C101.295 17.5248 101.341 17.2602 101.386 17.0712C101.469 16.7234 101.657 16.5949 102.004 16.6554C102.08 16.6705 102.155 16.6705 102.231 16.6554C102.683 16.5722 102.977 16.7234 103.06 17.1997C103.098 17.419 103.242 17.4795 103.475 17.3887C103.121 16.5117 102.759 15.6498 102.404 14.7804ZM101.695 16.3454C101.861 15.9371 102.02 15.5515 102.201 15.0979C102.382 15.544 102.54 15.9296 102.706 16.3454C102.351 16.3454 102.05 16.3454 101.695 16.3454Z" fill="#2B2B2B"/>
<path d="M78.8637 12.4664C78.5393 11.6801 78.215 10.8938 77.8906 10.1075C77.8529 10.0092 77.8077 9.93359 77.6794 9.93359C77.5587 9.93359 77.4984 9.97896 77.4607 10.0848C77.1363 10.8862 76.8044 11.6801 76.4725 12.4815C76.4273 12.5798 76.3971 12.678 76.6008 12.6932C76.7516 12.7083 76.7743 12.5571 76.8346 12.4361C76.9176 12.2773 76.91 11.9976 77.0986 11.9749C77.4682 11.922 77.8529 11.9144 78.2225 11.9674C78.4714 12.0052 78.4262 12.3303 78.5469 12.5193C78.5695 12.5495 78.577 12.5873 78.5921 12.6176C78.66 12.7234 78.7732 12.7234 78.8561 12.6932C78.9919 12.6327 78.8863 12.5344 78.8637 12.4664ZM77.951 11.6498C77.1288 11.6952 77.1288 11.7027 77.438 10.9618C77.5059 10.7955 77.5437 10.5989 77.6945 10.4477C77.8378 10.7879 77.9661 11.1055 78.1018 11.4306C78.1697 11.5969 78.1245 11.6347 77.951 11.6498Z" fill="#2B2B2B"/>
<path d="M63.8764 12.4741C63.5521 11.6878 63.2277 10.9016 62.9034 10.1077C62.8657 10.0094 62.8279 9.93382 62.6997 9.92626C62.5564 9.9187 62.5036 10.0019 62.4583 10.1153C62.1415 10.894 61.8172 11.6652 61.5003 12.4439C61.4702 12.5195 61.3495 12.6253 61.5154 12.6858C61.6361 12.7236 61.7417 12.6858 61.787 12.5573C61.8247 12.4515 61.8775 12.3532 61.9077 12.2398C61.9756 11.9978 62.1189 11.8844 62.3753 11.9298C62.4885 11.9449 62.6016 11.9449 62.7148 11.9298C63.1447 11.8693 63.4465 11.9827 63.537 12.4515C63.5596 12.5573 63.5898 12.6858 63.7331 12.6934C63.8161 12.6934 63.9217 12.7236 63.9141 12.58C63.9066 12.5422 63.8915 12.5119 63.8764 12.4741ZM63.107 11.6274C62.8204 11.6349 62.5338 11.6425 62.2471 11.6274C62.1641 11.6198 62.2169 11.5291 62.2396 11.4762C62.3753 11.1435 62.5111 10.8108 62.6771 10.3874C62.843 10.7957 62.9713 11.1133 63.0995 11.4384C63.107 11.461 63.1221 11.4837 63.1297 11.5064C63.1523 11.5518 63.1598 11.6198 63.107 11.6274Z" fill="#2B2B2B"/>
<path d="M104.94 14.6361C104.676 14.621 104.412 14.6437 104.148 14.6286C103.929 14.6134 103.869 14.7042 103.877 14.9083C103.892 15.2863 103.877 15.6644 103.877 16.0348C103.877 16.4128 103.877 16.7909 103.877 17.1613C103.877 17.2823 103.846 17.4184 104.05 17.4108C104.239 17.4033 104.186 17.2672 104.186 17.1689C104.201 16.9345 104.118 16.6321 104.231 16.4733C104.374 16.2768 104.691 16.4204 104.933 16.3977C105.476 16.3524 105.808 16.0197 105.808 15.5131C105.808 15.0066 105.483 14.6739 104.94 14.6361ZM104.616 16.0953C104.193 16.0953 104.193 16.0953 104.193 15.4905C104.193 14.9386 104.193 14.9386 104.669 14.9386C105.249 14.9386 105.491 15.1049 105.498 15.5131C105.513 15.9365 105.265 16.1029 104.616 16.0953Z" fill="#2B2B2B"/>
<path d="M129.175 10.9624C128.927 10.9473 128.602 11.0229 128.451 10.9019C128.285 10.7658 128.414 10.4256 128.399 10.1836C128.391 10.0778 128.429 9.94927 128.248 9.94171C128.059 9.93415 128.097 10.0702 128.097 10.1761C128.097 10.5541 128.097 10.9321 128.097 11.3102C128.097 11.6882 128.104 12.0662 128.097 12.4442C128.089 12.6332 128.142 12.724 128.346 12.7088C128.625 12.6937 128.896 12.7164 129.175 12.7013C129.681 12.6786 130.035 12.3157 130.035 11.8318C130.028 11.3404 129.688 10.9926 129.175 10.9624ZM128.821 12.414C128.323 12.4064 128.399 12.5047 128.391 11.8091C128.391 11.227 128.391 11.227 128.836 11.227C129.447 11.227 129.688 11.3933 129.696 11.8167C129.703 12.2552 129.462 12.4215 128.821 12.414Z" fill="#2B2B2B"/>
<path d="M83.404 10.9621C83.1702 10.947 82.876 11.0528 82.71 10.9092C82.529 10.7428 82.6723 10.4329 82.6421 10.1909C82.6271 10.0775 82.6874 9.92631 82.4762 9.93387C82.2574 9.94143 82.3329 10.1002 82.3329 10.206C82.3253 10.5689 82.3329 10.9319 82.3329 11.3023C82.3329 11.4308 82.3329 11.5518 82.3329 11.6803C82.3329 12.7539 82.3329 12.7539 83.404 12.701C83.9245 12.6708 84.2866 12.3079 84.279 11.8164C84.2639 11.3326 83.9094 10.9848 83.404 10.9621ZM83.9471 11.8694C83.932 12.1113 83.8189 12.2927 83.5775 12.3759C83.4191 12.4364 83.2607 12.4137 83.0193 12.4213C82.695 12.512 82.5818 12.323 82.6421 11.9525C82.6497 11.9298 82.6421 11.8996 82.6421 11.8769C82.6874 11.6652 82.5139 11.3477 82.7327 11.2645C83.0118 11.1587 83.3512 11.1738 83.6454 11.3099C83.8717 11.4157 83.9622 11.6199 83.9471 11.8694Z" fill="#2B2B2B"/>
<path d="M88.9188 10.9618C88.6699 10.9391 88.3531 11.0752 88.1947 10.8938C88.0439 10.7274 88.1646 10.4099 88.1419 10.168C88.1344 10.0621 88.1721 9.94115 87.9835 9.93359C87.8025 9.93359 87.8251 10.047 87.8251 10.1604C87.8251 10.5384 87.8251 10.9165 87.8251 11.2945C87.8251 11.4306 87.8251 11.5742 87.8251 11.7103C87.8251 12.799 87.8251 12.799 88.9188 12.7007C89.4091 12.6554 89.7184 12.3227 89.7184 11.8313C89.7259 11.3398 89.4091 11.0072 88.9188 10.9618ZM88.5794 12.4134C88.0665 12.4059 88.157 12.489 88.1495 11.8162C88.1721 11.544 87.9986 11.1735 88.5568 11.2189C89.1602 11.2642 89.4167 11.4003 89.4167 11.8162C89.4167 12.2471 89.1829 12.421 88.5794 12.4134Z" fill="#2B2B2B"/>
</g>
</svg>
