<?xml version="1.0" encoding="utf-8"?><svg xmlns="http://www.w3.org/2000/svg" xmlns:xlink="http://www.w3.org/1999/xlink"><symbol viewBox="0 0 22 24" id="basket" xmlns="http://www.w3.org/2000/svg"><g clip-path="url(#aa)"><path d="M10.363 18.443a2.046 2.046 0 00-2.045 2.042 2.046 2.046 0 004.09 0 2.046 2.046 0 00-2.045-2.042zm6.134 0a2.046 2.046 0 00-2.045 2.042 2.046 2.046 0 004.089 0 2.046 2.046 0 00-2.044-2.042zm3.978-8.199L7.413 6.891a.614.614 0 00-.75.73L8.67 16.4h-.786L5.482 5.895a.613.613 0 00-.474-.464l-4.27-.882A.614.614 0 00.489 5.75l3.885.802L6.797 17.15a.613.613 0 00.598.477h12.07a.615.615 0 00.607-.53l.858-6.175a.613.613 0 00-.455-.678zm-8.14 3.91a.613.613 0 01-1.227 0v-2.696a.613.613 0 011.227 0v2.696zm2.625 0a.613.613 0 01-1.227 0v-1.88a.613.613 0 011.227 0v1.88zm2.625 0a.613.613 0 01-1.227 0v-1.226a.613.613 0 011.227 0v1.226z"/></g><path fill-rule="evenodd" clip-rule="evenodd" d="M16.268 4.568a2.996 2.996 0 00-1.693-.523c-.627 0-1.21.193-1.693.523-.28-.843-.492-1.752-.492-2.383C12.39.98 13.37 0 14.575 0s2.185.98 2.185 2.185c0 .631-.212 1.54-.492 2.383zm-4.722 2.274l.024.006v-.011l-.024.005zm4.972 1.217c-1.333-.33-2.766-.681-4.129-1.013a2.185 2.185 0 114.129 1.013zm4.436 1.103c-.866-.217-2.155-.538-3.618-.9a2.995 2.995 0 00.243-1.425c.87.18 1.762.45 2.308.765.596.344.969.928 1.067 1.56zM9.869 6.439c-.36-.086-.706-.167-1.03-.243a2.19 2.19 0 01-.376-2.667 2.188 2.188 0 013.147-.7c.098.738.338 1.599.61 2.353a3.01 3.01 0 00-.449.774c-.628.113-1.305.278-1.902.483zm10.124.075a3.43 3.43 0 01-.217.114c-.696-.295-1.587-.526-2.397-.672a3.01 3.01 0 00-.449-.774c.262-.727.494-1.553.599-2.273.095-.067.189-.128.278-.18a2.188 2.188 0 012.986.8 2.188 2.188 0 01-.8 2.985z"/><defs><clipPath id="aa"><path transform="translate(0 3.064)" d="M0 0h20.936v20.936H0z"/></clipPath></defs></symbol><symbol viewBox="0 0 16 16" id="cards" xmlns="http://www.w3.org/2000/svg"><path d="M2.5 2.5h4.333v4.333H2.5zm6.667 0H13.5v4.333H9.167zm0 6.667H13.5V13.5H9.167zm-6.667 0h4.333V13.5H2.5z"/></symbol><symbol viewBox="0 0 344.96 344.96" id="check" xmlns="http://www.w3.org/2000/svg"><g data-name="Слой 2"><path class="ccls-1" d="M321.85 86.24l-40-23.11-23.1-40H212.5L172.48 0l-40 23.11H86.24l-23.11 40-40 23.1v46.21L0 172.48l23.11 40v46.21l40 23.11 23.11 40h46.21l40 23.1 40-23.11h46.21l23.11-40 40-23.11V212.5l23.11-40-23.11-40V86.24zM156.91 243.07a16.79 16.79 0 01-23.34 0l-50.45-50.44a16.19 16.19 0 010-22.89l13.35-13.35a16.19 16.19 0 0122.89 0l25.87 25.87 80.34-80.35a16.19 16.19 0 0122.89 0l13.35 13.35a16.19 16.19 0 010 22.89z" data-name="Capa 1"/></g></symbol><symbol viewBox="0 0 32 32" id="chevron-left" xmlns="http://www.w3.org/2000/svg"><path d="M20 7.333l-8 8 8 8"/></symbol><symbol viewBox="0 0 30 30" id="chevron-right" xmlns="http://www.w3.org/2000/svg"><path d="M11.25 21.875l7.5-7.5-7.5-7.5"/></symbol><symbol viewBox="0 0 17 16" id="download" xmlns="http://www.w3.org/2000/svg"><path d="M13.5 7l-.94-.94-3.727 3.72V1.667H7.5V9.78L3.773 6.06l-.94.94 5.334 5.333L13.5 7zm-11 6.333h11.333v1.333H2.5z"/></symbol><symbol viewBox="0 0 24 24" id="fb" xmlns="http://www.w3.org/2000/svg"><path d="M16.417 13.048l.464-3.23h-2.928V7.72c0-.883.421-1.753 1.729-1.753H17V3.24S15.8 3 14.655 3c-2.409 0-3.965 1.558-3.965 4.354v2.463H8v3.231h2.69v7.815c.53.091 1.08.137 1.643.137.561 0 1.102-.046 1.642-.137v-7.815h2.442z"/></symbol><symbol viewBox="0 0 24 24" id="instagram" xmlns="http://www.w3.org/2000/svg"><path d="M15.75 2h-7.5A6.25 6.25 0 002 8.25v7.5A6.25 6.25 0 008.25 22h7.5A6.25 6.25 0 0022 15.75v-7.5A6.25 6.25 0 0015.75 2zm4.375 13.75a4.38 4.38 0 01-4.375 4.375h-7.5a4.38 4.38 0 01-4.375-4.375v-7.5A4.38 4.38 0 018.25 3.875h7.5a4.38 4.38 0 014.375 4.375v7.5z"/><path d="M12 7a5 5 0 100 10 5 5 0 000-10zm0 8.125A3.13 3.13 0 018.875 12 3.129 3.129 0 0112 8.875 3.129 3.129 0 0115.125 12 3.13 3.13 0 0112 15.125zm5.375-7.834a.666.666 0 100-1.332.666.666 0 000 1.332z"/></symbol><symbol viewBox="0 0 40 40" id="mail" xmlns="http://www.w3.org/2000/svg"><path fill-rule="evenodd" clip-rule="evenodd" d="M35 7.5H5c-1.5 0-2.5 1-2.5 2.5v20c0 1.5 1 2.5 2.5 2.5h30c1.5 0 2.5-1 2.5-2.5V10c0-1.5-1-2.5-2.5-2.5zM32.25 10L20 18.5 7.75 10h24.5zM5 30V11.25l14.25 10c.5.25 1 .25 1.5 0l14.25-10V30H5z"/></symbol><symbol viewBox="0 0 40 40" id="map" xmlns="http://www.w3.org/2000/svg"><path fill-rule="evenodd" clip-rule="evenodd" d="M20 30l-7.613-10.75A10.175 10.175 0 0120 2.5a10.1 10.1 0 0110 10.162 10.25 10.25 0 01-2.25 6.413L20 30zm0-25a7.588 7.588 0 00-7.5 7.662 7.737 7.737 0 001.863 5L20 25.65l5.788-8.15a7.8 7.8 0 001.712-4.838A7.588 7.588 0 0020 5zm0 8.75a2.5 2.5 0 100-5 2.5 2.5 0 000 5zM32.5 15H35a2.5 2.5 0 012.5 2.5V35a2.5 2.5 0 01-2.5 2.5H5A2.5 2.5 0 012.5 35V17.5A2.5 2.5 0 015 15h2.5v2.5H5V35h30V17.5h-2.5V15z"/></symbol><symbol viewBox="0 0 16 16" id="mark" xmlns="http://www.w3.org/2000/svg"><path fill-rule="evenodd" clip-rule="evenodd" d="M3.333 6A4.663 4.663 0 018 1.333 4.663 4.663 0 0112.666 6C12.666 9.5 8 14.667 8 14.667S3.333 9.5 3.333 6zm3 0a1.667 1.667 0 103.335-.001A1.667 1.667 0 006.333 6z"/></symbol><symbol viewBox="0 0 40 40" id="phone" xmlns="http://www.w3.org/2000/svg"><path d="M32.5 36.25h-.212C7.725 34.837 4.238 14.113 3.75 7.788A3.75 3.75 0 017.2 3.75h6.888a2.5 2.5 0 012.325 1.575l1.9 4.675a2.501 2.501 0 01-.55 2.7L15.1 15.388a11.712 11.712 0 009.475 9.5l2.713-2.688A2.5 2.5 0 0130 21.688l4.712 1.887A2.5 2.5 0 0136.25 25.9v6.6a3.75 3.75 0 01-3.75 3.75zm-25-30A1.25 1.25 0 006.25 7.5v.1c.575 7.4 4.262 24.9 26.175 26.15a1.251 1.251 0 001.325-1.175V25.9l-4.712-1.887-3.588 3.562-.6-.075C13.975 26.137 12.5 15.262 12.5 15.15l-.075-.6 3.55-3.588L14.1 6.25H7.5z"/></symbol><symbol viewBox="0 0 24 24" id="search" xmlns="http://www.w3.org/2000/svg"><path fill-rule="evenodd" clip-rule="evenodd" d="M14.71 14h.79l4.99 5L19 20.49l-5-4.99v-.79l-.27-.28A6.471 6.471 0 019.5 16 6.5 6.5 0 1116 9.5c0 1.61-.59 3.09-1.57 4.23l.28.27zM5 9.5C5 11.99 7.01 14 9.5 14S14 11.99 14 9.5 11.99 5 9.5 5 5 7.01 5 9.5z"/></symbol><symbol viewBox="0 0 22 22" id="spinner" xmlns="http://www.w3.org/2000/svg"><path d="M11 0a10.934 10.934 0 017.857 3.327V0h1.572v6.286h-6.286V4.714h3.867A9.414 9.414 0 1020.429 11H22A11 11 0 1111 0z"/></symbol><symbol viewBox="0 0 16 16" id="telegram" xmlns="http://www.w3.org/2000/svg"><path d="M14.629 3.698l-2.012 9.618c-.152.679-.548.848-1.11.528l-3.066-2.29-1.48 1.442c-.163.166-.3.305-.616.305l.22-3.165 5.683-5.204c.247-.223-.054-.347-.384-.123L4.839 9.29l-3.024-.959c-.658-.208-.67-.667.137-.986L13.78 2.727c.548-.208 1.027.124.849.971z"/></symbol><symbol viewBox="0 0 40 40" id="time" xmlns="http://www.w3.org/2000/svg"><path fill-rule="evenodd" clip-rule="evenodd" d="M10.277 34.55a17.5 17.5 0 1019.445-29.1 17.5 17.5 0 00-19.445 29.1zm1.39-27.022a15 15 0 1116.666 24.944A15 15 0 0111.667 7.528zm7.083 12.985l6.988 6.987 1.762-1.762-6.25-6.263V8.75h-2.5v11.762z"/></symbol><symbol viewBox="0 0 24 24" id="twitter" xmlns="http://www.w3.org/2000/svg"><path d="M21 6.705c-.67.289-1.383.48-2.126.574a3.624 3.624 0 001.623-2.009c-.713.419-1.5.715-2.34.88A3.725 3.725 0 0015.462 5c-2.043 0-3.688 1.633-3.688 3.634 0 .288.025.565.085.829a10.5 10.5 0 01-7.606-3.8 3.615 3.615 0 00-.505 1.836c0 1.258.658 2.374 1.64 3.02a3.688 3.688 0 01-1.668-.448v.04c0 1.766 1.28 3.232 2.956 3.57-.3.08-.627.12-.967.12-.236 0-.475-.014-.699-.062a3.718 3.718 0 003.449 2.53 7.489 7.489 0 01-4.576 1.55c-.303 0-.593-.013-.883-.05A10.507 10.507 0 008.661 19.4c6.79 0 10.503-5.538 10.503-10.34a9.1 9.1 0 00-.014-.469A7.3 7.3 0 0021 6.705z"/></symbol><symbol viewBox="0 0 16 16" id="viber" xmlns="http://www.w3.org/2000/svg"><path d="M8 1.335c-1.071.013-3.374.19-4.662 1.37-.958.948-1.292 2.35-1.331 4.084-.033 1.728-.072 4.973 3.058 5.856v1.346s-.02.538.337.648c.438.14.688-.275 1.105-.72l.778-.879c2.142.178 3.782-.232 3.97-.293.435-.139 2.883-.451 3.283-3.696.41-3.351-.2-5.463-1.301-6.418h-.007c-.332-.306-1.668-1.279-4.652-1.29 0 0-.222-.014-.578-.008zm.037.942a7.02 7.02 0 01.488.011c2.527.007 3.732.767 4.017 1.023.927.794 1.405 2.697 1.055 5.495-.332 2.713-2.317 2.885-2.685 3.002-.156.05-1.6.406-3.42.289 0 0-1.356 1.634-1.78 2.055-.067.074-.146.095-.196.085-.071-.018-.093-.107-.089-.229l.013-2.233c-2.655-.733-2.498-3.5-2.47-4.946.033-1.446.304-2.628 1.113-3.43 1.088-.982 3.043-1.115 3.953-1.122zm.2 1.446a.166.166 0 100 .332 3.136 3.136 0 012.242.883c.606.588.9 1.378.912 2.411 0 .092.074.167.167.167V7.51a.167.167 0 00.168-.165 3.588 3.588 0 00-1.009-2.646c-.66-.645-1.496-.977-2.48-.977zm-2.198.382a.523.523 0 00-.342.067H5.69a2.61 2.61 0 00-.637.523 1.003 1.003 0 00-.256.525.71.71 0 00.026.302l.01.006c.172.504.396.988.67 1.444a8.48 8.48 0 001.29 1.762l.015.022.024.017.015.018.017.015c.532.505 1.127.94 1.769 1.295.734.4 1.18.588 1.447.667v.004c.078.024.15.034.221.034.228-.016.444-.109.613-.262a2.53 2.53 0 00.517-.638v-.004c.128-.241.085-.469-.1-.623-.37-.323-.77-.61-1.195-.857-.285-.155-.574-.061-.69.095l-.25.315c-.129.156-.361.134-.361.134l-.007.004C7.093 8.527 6.63 6.772 6.63 6.772s-.022-.239.139-.36l.312-.252c.15-.122.254-.41.094-.695a7.498 7.498 0 00-.856-1.194.475.475 0 00-.28-.167zm2.486.495c-.221 0-.221.334.003.334A2.098 2.098 0 0110 5.572 1.94 1.94 0 0110.5 7a.168.168 0 00.167.165l.007.009a.169.169 0 00.167-.167c.015-.662-.191-1.218-.595-1.663C9.84 4.9 9.273 4.65 8.549 4.6h-.024zm.274.898c-.228-.006-.236.335-.01.341.55.029.816.306.851.877a.166.166 0 00.165.163h.007a.168.168 0 00.16-.178c-.039-.744-.445-1.164-1.166-1.202H8.8z"/></symbol><symbol viewBox="0 0 24 24" id="vk" xmlns="http://www.w3.org/2000/svg"><path fill-rule="evenodd" clip-rule="evenodd" d="M20.576 6.75c.134-.423 0-.73-.59-.73h-1.964c-.496 0-.724.268-.858.557 0 0-1.01 2.46-2.421 4.054-.457.461-.667.615-.915.615-.133 0-.305-.154-.305-.576V6.73c0-.5-.152-.73-.572-.73H9.863a.475.475 0 00-.496.461c0 .48.705.596.782 1.941v2.921c0 .634-.115.75-.362.75-.668 0-2.288-2.48-3.26-5.304C6.337 6.21 6.145 6 5.65 6H3.667C3.095 6 3 6.269 3 6.557c0 .52.667 3.133 3.107 6.592 1.62 2.364 3.927 3.632 6.005 3.632 1.258 0 1.411-.288 1.411-.769v-1.787c0-.577.114-.673.515-.673.286 0 .8.154 1.963 1.288 1.335 1.345 1.563 1.96 2.307 1.96h1.963c.572 0 .84-.288.687-.846-.172-.557-.82-1.364-1.659-2.325-.457-.538-1.144-1.134-1.353-1.422-.286-.384-.21-.538 0-.884-.02 0 2.383-3.42 2.63-4.574z"/></symbol><symbol viewBox="0 0 16 16" id="whatsapp" xmlns="http://www.w3.org/2000/svg"><path fill-rule="evenodd" clip-rule="evenodd" d="M12.269 3.755A5.947 5.947 0 008.035 2 5.994 5.994 0 002.05 7.985a5.98 5.98 0 00.799 2.992L2 14.077l3.173-.832c.877.477 1.86.728 2.86.728h.002a5.993 5.993 0 005.533-8.276 5.953 5.953 0 00-1.3-1.942zm-4.234 9.208h-.002c-.89 0-1.765-.24-2.532-.694l-.181-.108-1.883.494.502-1.835-.118-.188a4.965 4.965 0 01-.76-2.647 4.982 4.982 0 016.88-4.597c.604.25 1.152.618 1.613 1.081a4.946 4.946 0 011.455 3.52 4.982 4.982 0 01-4.974 4.974zm2.729-3.726c-.15-.075-.885-.436-1.022-.486-.137-.05-.236-.075-.336.074-.1.15-.387.486-.474.586-.087.1-.175.112-.324.038-.15-.075-.631-.233-1.203-.742a4.505 4.505 0 01-.832-1.036c-.087-.15-.009-.231.066-.306.068-.066.15-.174.224-.262.075-.087.1-.149.15-.249.05-.1.025-.187-.013-.262-.037-.075-.337-.811-.461-1.11-.121-.29-.244-.252-.336-.256a6.418 6.418 0 00-.286-.005.55.55 0 00-.4.186c-.137.15-.523.512-.523 1.248s.536 1.447.61 1.547c.075.1 1.055 1.61 2.555 2.258.358.154.636.246.853.315.358.114.684.098.942.06.287-.043.885-.362 1.01-.711.124-.35.124-.649.087-.711-.038-.063-.138-.101-.287-.176z"/></symbol></svg>