<svg width="125" height="16" viewBox="0 0 125 16" fill="none" xmlns="http://www.w3.org/2000/svg">
<path d="M16.7581 8.71538C17.2144 8.60875 17.7153 9.15828 17.8699 9.9403C18.0255 10.7216 17.7736 11.4392 17.3166 11.543C16.8597 11.6468 16.3612 11.0976 16.2046 10.3185C16.0479 9.53931 16.3019 8.82205 16.7581 8.71538Z" fill="black"/>
<path d="M17.0002 1.76454C17.7812 1.20215 18.7143 0.896382 19.6729 0.888672C20.9711 0.896902 22.2142 1.42111 23.1341 2.34828C24.054 3.27545 24.577 4.53131 24.5903 5.84507C24.5903 8.57743 22.6715 10.8371 20.0241 10.8413L19.6729 9.06405C19.7342 9.06948 19.8372 9.06735 19.9242 9.06555C19.9622 9.0648 19.9971 9.06405 20.0241 9.06405C20.8053 8.98904 21.5295 8.61738 22.0508 8.02385C22.5722 7.43028 22.8521 6.65892 22.8341 5.86498C22.815 5.0226 22.4759 4.22005 21.8871 3.62423C21.2984 3.02842 20.5053 2.68519 19.6729 2.66593C19.0871 2.68008 18.5191 2.87143 18.0418 3.21532C17.5646 3.5592 17.2001 4.03986 16.9952 4.59532C16.8276 4.99017 16.741 5.41535 16.7406 5.84507C16.7579 6.09212 16.7988 6.33687 16.8628 6.57589C16.2652 6.2479 15.6293 5.99713 14.9699 5.82947C13.2117 5.40292 11.3787 5.40292 9.62039 5.82947C8.96204 5.99746 8.3271 6.24819 7.7303 6.57589C7.79458 6.33721 7.8341 6.09241 7.84836 5.84545C7.8494 5.41568 7.76317 4.99032 7.5951 4.59568C7.39023 4.04078 7.02612 3.56053 6.54946 3.21666C6.07285 2.87279 5.5055 2.681 4.92033 2.66593C4.08777 2.68484 3.29451 3.02796 2.70566 3.62385C2.11681 4.21974 1.77775 5.02249 1.75907 5.86498C1.74058 6.65905 2.02026 7.43069 2.54171 8.02435C3.06317 8.61801 3.78763 8.98955 4.56905 9.06405C4.5938 9.06405 4.62768 9.06476 4.66519 9.06551C4.7538 9.06731 4.86282 9.06957 4.92033 9.06405L4.56905 10.8413C1.92626 10.8274 0 8.57388 0 5.84507C0.0143393 4.53114 0.538038 3.27544 1.45832 2.34841C2.3786 1.42137 3.62184 0.897166 4.92033 0.888672C5.87852 0.896086 6.81125 1.20184 7.59176 1.7644C8.37227 2.32695 8.96271 3.11902 9.28283 4.033C9.29742 4.06988 9.31039 4.10937 9.32344 4.1492C9.33301 4.17846 9.34267 4.20792 9.35309 4.23667C10.3114 3.95286 11.2993 3.78358 12.2966 3.73229C13.2925 3.78383 14.2791 3.95299 15.2362 4.23632C15.2469 4.20727 15.2565 4.1775 15.2661 4.14793C15.2789 4.10841 15.2916 4.06925 15.3065 4.03264C15.6278 3.11874 16.2191 2.32693 17.0002 1.76454Z" fill="black"/>
<path d="M10.1914 12.0855C10.1914 10.4142 11.1338 9.05957 12.2964 9.05957C13.4626 9.05957 14.4081 10.4171 14.4081 12.0855C14.4081 13.754 13.459 15.1111 12.2964 15.1111C11.1338 15.1111 10.1914 13.7569 10.1914 12.0855Z" fill="black"/>
<path d="M8.39091 10.3185C8.2381 11.1008 7.73264 11.6496 7.27008 11.543C6.80782 11.442 6.56088 10.7254 6.71649 9.94273C6.87209 9.16004 7.37229 8.60872 7.83593 8.71534C8.29958 8.82201 8.54367 9.5361 8.39091 10.3185Z" fill="black"/>
<path d="M41.141 10.6239C40.375 11.1785 39.5381 11.463 38.6445 11.463C37.5523 11.463 36.6587 11.1217 35.9637 10.4248C35.2828 9.72788 34.9424 8.81766 34.9424 7.6941C34.9424 6.59899 35.2828 5.70299 35.9779 5.0061C36.6729 4.30921 37.5381 3.95366 38.602 3.95366C39.5523 3.95366 40.3608 4.22388 40.9991 4.7501L41.7367 3.81144C40.9849 3.11455 39.9495 2.77321 38.6303 2.77321C37.1552 2.77321 35.9353 3.24255 34.9566 4.19544C33.992 5.1341 33.5098 6.30033 33.5098 7.6941C33.5098 8.93144 33.9637 10.1119 34.7722 11.0648C35.5807 12.0177 36.9566 12.6434 38.602 12.6434C39.9211 12.6434 41.0133 12.2452 41.8927 11.4488L41.141 10.6239Z" fill="black"/>
<path d="M42.9541 9.34388C42.9541 10.2399 43.2662 11.0079 43.8903 11.6479C44.5144 12.2879 45.3655 12.6008 46.4577 12.6008C47.4931 12.6008 48.33 12.3021 48.9825 11.719C49.635 11.1217 49.9612 10.3252 49.9612 9.34388C49.9612 8.39099 49.635 7.60877 48.9825 6.99721C48.3442 6.38566 47.4931 6.07277 46.4577 6.07277C45.3797 6.07277 44.5286 6.39988 43.8903 7.0541C43.2662 7.6941 42.9541 8.4621 42.9541 9.34388ZM44.3158 9.34388C44.3158 8.02121 45.2095 7.1821 46.4577 7.1821C47.6917 7.1821 48.5995 7.99277 48.5995 9.34388C48.5995 10.6097 47.7768 11.4914 46.4577 11.4914C45.2095 11.4914 44.3158 10.6523 44.3158 9.34388Z" fill="black"/>
<path d="M52.0623 7.48077C52.6722 7.23899 53.3105 7.12521 53.963 7.12521C55.1687 7.12521 55.4807 7.67988 55.4807 8.68966V9.03099C54.9559 8.73233 54.3318 8.5901 53.6084 8.5901C52.0197 8.5901 50.9843 9.38655 50.9843 10.5954C50.9843 11.8612 51.963 12.6008 53.3673 12.6008C54.2183 12.6008 54.9275 12.4017 55.4807 11.9892V12.4443H56.7006V7.97855C56.7006 6.74121 55.7219 6.07277 54.19 6.07277C53.2822 6.07277 52.502 6.21499 51.8353 6.49944L52.0623 7.48077ZM52.346 10.5528C52.346 9.91277 52.9417 9.55721 53.8353 9.55721C54.8141 9.55721 55.4949 9.96966 55.4949 10.5528C55.4949 11.1785 54.6864 11.5483 53.7219 11.5483C52.7999 11.5483 52.346 11.2212 52.346 10.5528Z" fill="black"/>
<path d="M59.9627 12.4443V2.48877H58.6861V12.4443H59.9627Z" fill="black"/>
<path d="M63.2871 12.4443V2.48877H62.0105V12.4443H63.2871Z" fill="black"/>
<path d="M65.8173 7.48077C66.4272 7.23899 67.0655 7.12521 67.718 7.12521C68.9237 7.12521 69.2357 7.67988 69.2357 8.68966V9.03099C68.7109 8.73233 68.0868 8.5901 67.3634 8.5901C65.7747 8.5901 64.7393 9.38655 64.7393 10.5954C64.7393 11.8612 65.718 12.6008 67.1222 12.6008C67.9733 12.6008 68.6825 12.4017 69.2357 11.9892V12.4443H70.4556V7.97855C70.4556 6.74121 69.4769 6.07277 67.9449 6.07277C67.0371 6.07277 66.257 6.21499 65.5903 6.49944L65.8173 7.48077ZM66.101 10.5528C66.101 9.91277 66.6967 9.55721 67.5903 9.55721C68.569 9.55721 69.2499 9.96966 69.2499 10.5528C69.2499 11.1785 68.4414 11.5483 67.4769 11.5483C66.5549 11.5483 66.101 11.2212 66.101 10.5528Z" fill="black"/>
<path d="M81.4538 9.89855L82.6737 12.4443H84.1347L79.4822 2.77321L74.8439 12.4443H76.3049L77.5247 9.89855H81.4538ZM79.468 5.60344L80.9857 8.7181H77.9786L79.468 5.60344Z" fill="black"/>
<path d="M90.4595 7.1821C90.0056 6.61321 89.1545 6.07277 88.19 6.07277C87.1829 6.07277 86.3602 6.39988 85.7502 7.06833C85.1403 7.73677 84.8424 8.49055 84.8424 9.34388C84.8424 10.2257 85.1403 10.9937 85.736 11.6337C86.3318 12.2737 87.1119 12.6008 88.0765 12.6008C89.0552 12.6008 89.9488 12.103 90.4595 11.4914V12.0461C90.4595 13.0274 90.2467 13.6959 89.807 13.9945C89.3673 14.3217 88.9559 14.407 88.2892 14.407C87.3956 14.407 86.4878 14.2221 85.5375 13.8523L85.2254 14.9901C86.2041 15.3457 87.1829 15.5163 88.1474 15.5163C89.4382 15.5163 90.2183 15.3457 90.8424 14.791C91.4665 14.2363 91.736 13.255 91.736 11.7048V6.22921H90.4595V7.1821ZM86.2041 9.34388C86.2041 8.09233 87.0268 7.1821 88.346 7.1821C88.9559 7.1821 89.4665 7.39544 89.8779 7.80788C90.2892 8.22033 90.4878 8.73233 90.4878 9.34388C90.4878 9.98388 90.2751 10.5101 89.8495 10.9083C89.4382 11.2923 88.9134 11.4914 88.3034 11.4914C86.9985 11.4914 86.2041 10.6097 86.2041 9.34388Z" fill="black"/>
<path d="M98.9646 10.6239C98.4397 11.207 97.7447 11.4914 96.8794 11.4914C96.2411 11.4914 95.7021 11.3065 95.2766 10.9368C94.8653 10.567 94.6383 10.1119 94.5958 9.57144H99.9291C99.9575 9.44344 99.9716 9.28699 99.9716 9.08788C99.9716 8.27721 99.688 7.5661 99.1064 6.96877C98.5248 6.37144 97.7447 6.07277 96.7376 6.07277C95.8298 6.07277 95.0355 6.37144 94.3546 6.98299C93.688 7.58033 93.3475 8.3341 93.3475 9.24433C93.3475 10.183 93.6596 10.9794 94.2837 11.6337C94.9078 12.2737 95.7731 12.6008 96.8653 12.6008C98.156 12.6008 99.1348 12.1741 99.8156 11.3065L98.9646 10.6239ZM94.6809 8.60433C94.9646 7.70833 95.7163 7.1821 96.7943 7.1821C97.8014 7.1821 98.4681 7.79366 98.6241 8.60433H94.6809Z" fill="black"/>
<path d="M102.876 12.4443V8.95988C102.876 7.9501 103.571 7.1821 104.578 7.1821C105.642 7.1821 105.968 7.76521 105.968 8.91721V12.4443H107.245V8.57588C107.245 6.91188 106.465 6.07277 104.89 6.07277C103.968 6.07277 103.259 6.57055 102.876 7.25321V6.22921H101.599V12.4443H102.876Z" fill="black"/>
<path d="M112.241 12.6008C113.248 12.6008 114.085 12.2879 114.737 11.6763L114.056 10.8372C113.531 11.2781 112.936 11.4914 112.297 11.4914C111.673 11.4914 111.148 11.2923 110.723 10.9083C110.312 10.5101 110.099 9.98388 110.099 9.34388C110.099 8.09233 110.936 7.1821 112.226 7.1821C112.836 7.1821 113.418 7.40966 113.943 7.86477L114.666 6.98299C113.971 6.37144 113.163 6.07277 112.226 6.07277C109.787 6.07277 108.737 7.89321 108.737 9.34388C108.737 10.2257 109.049 10.9937 109.673 11.6337C110.297 12.2737 111.148 12.6008 112.241 12.6008Z" fill="black"/>
<path d="M118.926 9.4861C118.699 10.055 118.529 10.5385 118.416 10.9225L118.189 10.2399C118.075 9.85588 117.99 9.6141 117.934 9.50033L116.501 6.22921H115.082L117.749 12.0603L116.217 15.4594H117.494L121.678 6.22921H120.331L118.926 9.4861Z" fill="black"/>
</svg>
