<svg width="28" height="16" viewBox="0 0 28 16" fill="none" xmlns="http://www.w3.org/2000/svg">
<path fill-rule="evenodd" clip-rule="evenodd" d="M23 11L22 9.00001C22.022 9.00001 22.042 9.00001 22 9.00001C25.048 8.92501 26.049 7.34301 26.049 5.50001C26.0328 4.5714 25.6583 3.685 25.0038 3.02604C24.3493 2.36708 23.4655 1.98656 22.537 1.964C18.108 2 19.307 8.38101 19 7.00001C18.435 6.69001 18.108 5.657 17.314 5.46C15.1469 4.84692 12.8521 4.84692 10.685 5.46C9.891 5.66 9.565 6.69001 8.999 7.00001C8.692 8.38101 9.891 2 5.462 1.964C4.5337 1.98682 3.65012 2.36745 2.99585 3.02638C2.34158 3.68531 1.96722 4.57157 1.951 5.50001C1.951 7.34301 2.951 8.92501 6 9.00001C5.956 9.00001 5.977 9.00001 6 9.00001L5 11C3.63443 10.8529 2.37054 10.2091 1.44867 9.19095C0.526795 8.17283 0.0112292 6.85143 0 5.47801C0.0109325 4.03112 0.589538 2.64637 1.61127 1.62184C2.633 0.5973 4.01615 0.0148998 5.463 0C6.52993 0.0105767 7.56766 0.349928 8.43469 0.971795C9.30173 1.59366 9.95588 2.46779 10.308 3.475C10.338 3.546 10.361 3.625 10.388 3.7C11.4017 3.4129 12.4333 3.19341 13.476 3.043C13.6493 3.01529 13.8245 3.00092 14 3C15.2256 3.10347 16.4365 3.33815 17.612 3.7C17.639 3.625 17.662 3.545 17.692 3.475C18.0441 2.46779 18.6983 1.59366 19.5653 0.971795C20.4323 0.349928 21.4701 0.0105767 22.537 0C23.9838 0.0151564 25.3668 0.597638 26.3885 1.62212C27.4101 2.6466 27.9888 4.0312 28 5.47801C27.9888 6.85143 27.4732 8.17283 26.5513 9.19095C25.6295 10.2091 24.3656 10.8529 23 11ZM22 9.00001C21.978 9.00001 21.952 9.00001 22 9.00001V9.00001ZM6 9.00001C6.048 9.00001 6.022 9.00001 6 9.00001V9.00001ZM9.318 9.00001C9.61388 9.15363 9.842 9.41189 9.9579 9.72449C10.0738 10.0371 10.0692 10.3816 9.945 10.691C9.83006 10.8449 9.67579 10.965 9.49841 11.0386C9.32102 11.1123 9.12706 11.1367 8.93694 11.1095C8.74681 11.0823 8.56753 11.0043 8.41795 10.8838C8.26837 10.7634 8.15402 10.6048 8.08691 10.4248C8.0198 10.2449 8.00241 10.0502 8.03658 9.86115C8.07074 9.67215 8.1552 9.49584 8.28107 9.35076C8.40693 9.20569 8.56956 9.0972 8.75185 9.03671C8.93415 8.97622 9.12937 8.96596 9.317 9.00701L9.318 9.00001ZM14 8.99501C15.1 8.99501 16 10.565 16 12.5C16 14.435 15.1 16 14 16C12.924 16 12.048 14.508 12 12.645V12.345C12.045 10.484 12.921 8.99501 14 8.99501ZM18.686 9.00801C19.0183 9.03057 19.3306 9.17482 19.5633 9.41317C19.7959 9.65153 19.9325 9.96726 19.947 10.3C20.0558 10.4434 20.1266 10.6119 20.1529 10.7899C20.1792 10.968 20.16 11.1498 20.0972 11.3185C20.0344 11.4871 19.93 11.6372 19.7937 11.7547C19.6574 11.8722 19.4936 11.9534 19.3175 11.9906C19.1414 12.0279 18.9588 12.0201 18.7865 11.9678C18.6143 11.9156 18.458 11.8207 18.3323 11.692C18.2065 11.5632 18.1154 11.4048 18.0672 11.2314C18.0191 11.0579 18.0156 10.8752 18.057 10.7C17.9321 10.3905 17.9271 10.0456 18.0428 9.73254C18.1586 9.41951 18.3868 9.16084 18.683 9.00701L18.686 9.00801Z" fill="#444444"/>
</svg>
