<svg width="787" height="170" viewBox="0 0 787 170" fill="none" xmlns="http://www.w3.org/2000/svg">
<g opacity="0.3" clip-path="url(#clip0_1792_45568)">
<path d="M548.47 79.9314L525.809 108.634L816.472 281.628L1224.51 -315.182" stroke="#231F20" stroke-width="0.3"/>
<path d="M542.492 85.4221L1276.55 -292.953" stroke="#231F20" stroke-width="0.3"/>
<path d="M538.247 99.7945L1592.52 -274.863" stroke="#231F20" stroke-width="0.3"/>
<path d="M534.001 92.0039L1006.81 31.9655" stroke="#231F20" stroke-width="0.3"/>
<path d="M529.884 92.9453L918.685 157.439" stroke="#231F20" stroke-width="0.3"/>
<path d="M1008.83 -186.404L711.907 201.759" stroke="#231F20" stroke-width="0.3"/>
<path d="M840.494 -94.491L643.276 163.331" stroke="#231F20" stroke-width="0.3"/>
<path d="M727.836 -33.0328L597.386 137.503" stroke="#231F20" stroke-width="0.3"/>
<path d="M662.525 2.64075L570.928 122.386" stroke="#231F20" stroke-width="0.3"/>
<path d="M623.115 24.2605L555.317 112.892" stroke="#231F20" stroke-width="0.3"/>
<path d="M597.344 38.146L544.727 106.932" stroke="#231F20" stroke-width="0.3"/>
<path d="M578.775 48.4417L536.579 103.605" stroke="#231F20" stroke-width="0.3"/>
<path d="M567.09 54.7859L533.255 99.0175" stroke="#231F20" stroke-width="0.3"/>
<path d="M559.373 59.0481L530.17 97.2253" stroke="#231F20" stroke-width="0.3"/>
<path d="M553.613 61.9192L527.626 95.8918" stroke="#231F20" stroke-width="0.3"/>
<path d="M548.648 64.9138L525.749 94.85" stroke="#231F20" stroke-width="0.3"/>
<path d="M557.758 -272.413L-10.9972 146.863" stroke="#231F20" stroke-width="0.3"/>
<path d="M513.814 52.2012L454.009 489.199" stroke="#231F20" stroke-width="0.3"/>
<path d="M545.229 65.8899L72.8251 323.092" stroke="#231F20" stroke-width="0.3"/>
<path d="M508.278 87.0119C509.169 87.4002 510.223 87.1869 510.738 86.5142C511.253 85.8415 510.97 85.0457 510.079 84.6574C509.188 84.269 508.134 84.4823 507.619 85.1551C507.104 85.8278 507.387 86.6235 508.278 87.0119Z" stroke="#231F20" stroke-width="0.3"/>
</g>
<defs>
<clipPath id="clip0_1792_45568">
<rect width="787" height="170" fill="white" transform="matrix(-1 0 0 1 787 0)"/>
</clipPath>
</defs>
</svg>
