<?xml version="1.0" encoding="utf-8"?><svg xmlns="http://www.w3.org/2000/svg" xmlns:xlink="http://www.w3.org/1999/xlink"><symbol viewBox="0 0 22 24" id="basket" xmlns="http://www.w3.org/2000/svg"><g clip-path="url(#aaa)"><path d="M10.363 18.443a2.046 2.046 0 00-2.045 2.042 2.046 2.046 0 004.09 0 2.046 2.046 0 00-2.045-2.042zm6.134 0a2.046 2.046 0 00-2.045 2.042 2.046 2.046 0 004.089 0 2.046 2.046 0 00-2.044-2.042zm3.978-8.199L7.413 6.891a.614.614 0 00-.75.73L8.67 16.4h-.786L5.482 5.895a.613.613 0 00-.474-.464l-4.27-.882A.614.614 0 00.489 5.75l3.885.802L6.797 17.15a.613.613 0 00.598.477h12.07a.615.615 0 00.607-.53l.858-6.175a.613.613 0 00-.455-.678zm-8.14 3.91a.613.613 0 01-1.227 0v-2.696a.613.613 0 011.227 0v2.696zm2.625 0a.613.613 0 01-1.227 0v-1.88a.613.613 0 011.227 0v1.88zm2.625 0a.613.613 0 01-1.227 0v-1.226a.613.613 0 011.227 0v1.226z"/></g><path fill-rule="evenodd" clip-rule="evenodd" d="M16.268 4.568a2.996 2.996 0 00-1.693-.523c-.627 0-1.21.193-1.693.523-.28-.843-.492-1.752-.492-2.383C12.39.98 13.37 0 14.575 0s2.185.98 2.185 2.185c0 .631-.212 1.54-.492 2.383zm-4.722 2.274l.024.006v-.011l-.024.005zm4.972 1.217c-1.333-.33-2.766-.681-4.129-1.013a2.185 2.185 0 114.129 1.013zm4.436 1.103c-.866-.217-2.155-.538-3.618-.9a2.995 2.995 0 00.243-1.425c.87.18 1.762.45 2.308.765.596.344.969.928 1.067 1.56zM9.869 6.439c-.36-.086-.706-.167-1.03-.243a2.19 2.19 0 01-.376-2.667 2.188 2.188 0 013.147-.7c.098.738.338 1.599.61 2.353a3.01 3.01 0 00-.449.774c-.628.113-1.305.278-1.902.483zm10.124.075a3.43 3.43 0 01-.217.114c-.696-.295-1.587-.526-2.397-.672a3.01 3.01 0 00-.449-.774c.262-.727.494-1.553.599-2.273.095-.067.189-.128.278-.18a2.188 2.188 0 012.986.8 2.188 2.188 0 01-.8 2.985z"/><defs><clipPath id="aaa"><path transform="translate(0 3.064)" d="M0 0h20.936v20.936H0z"/></clipPath></defs></symbol><symbol viewBox="0 0 16 16" id="cards" xmlns="http://www.w3.org/2000/svg"><path d="M2.5 2.5h4.333v4.333H2.5zm6.667 0H13.5v4.333H9.167zm0 6.667H13.5V13.5H9.167zm-6.667 0h4.333V13.5H2.5z"/></symbol><symbol viewBox="0 0 344.96 344.96" id="check" xmlns="http://www.w3.org/2000/svg"><g data-name="Слой 2"><path class="accls-1" d="M321.85 86.24l-40-23.11-23.1-40H212.5L172.48 0l-40 23.11H86.24l-23.11 40-40 23.1v46.21L0 172.48l23.11 40v46.21l40 23.11 23.11 40h46.21l40 23.1 40-23.11h46.21l23.11-40 40-23.11V212.5l23.11-40-23.11-40V86.24zM156.91 243.07a16.79 16.79 0 01-23.34 0l-50.45-50.44a16.19 16.19 0 010-22.89l13.35-13.35a16.19 16.19 0 0122.89 0l25.87 25.87 80.34-80.35a16.19 16.19 0 0122.89 0l13.35 13.35a16.19 16.19 0 010 22.89z" data-name="Capa 1"/></g></symbol><symbol viewBox="0 0 32 32" id="chevron-left" xmlns="http://www.w3.org/2000/svg"><path d="M20 7.333l-8 8 8 8"/></symbol><symbol viewBox="0 0 30 30" id="chevron-right" xmlns="http://www.w3.org/2000/svg"><path d="M11.25 21.875l7.5-7.5-7.5-7.5"/></symbol><symbol viewBox="0 0 17 16" id="download" xmlns="http://www.w3.org/2000/svg"><path d="M13.5 7l-.94-.94-3.727 3.72V1.667H7.5V9.78L3.773 6.06l-.94.94 5.334 5.333L13.5 7zm-11 6.333h11.333v1.333H2.5z"/></symbol><symbol viewBox="0 0 24 24" id="fb" xmlns="http://www.w3.org/2000/svg"><path d="M16.417 13.048l.464-3.23h-2.928V7.72c0-.883.421-1.753 1.729-1.753H17V3.24S15.8 3 14.655 3c-2.409 0-3.965 1.558-3.965 4.354v2.463H8v3.231h2.69v7.815c.53.091 1.08.137 1.643.137.561 0 1.102-.046 1.642-.137v-7.815h2.442z"/></symbol><symbol viewBox="0 0 72 72" id="fig-1" xmlns="http://www.w3.org/2000/svg"><path d="M65.566 18.57c-27.088-2.683-45.33 1.198-54.219 11.53-7.768 9.03-5.721 20.066-4.91 23.233a1.897 1.897 0 001.843 1.428h35.903a1.903 1.903 0 001.757-1.173 1.895 1.895 0 00-.413-2.069 473.296 473.296 0 00-5.413-5.288c-2.279-2.203-4.248-4.105-5.298-5.262-1.648-1.815-3.536-4.251-3.507-6.996.037-3.389 3.06-5.747 7.07-7.388v7.298h-.475a1.905 1.905 0 00-1.901 1.898v.95a1.899 1.899 0 001.901 1.897h9.506a1.905 1.905 0 001.902-1.898v-.949a1.899 1.899 0 00-1.902-1.898h-.475v-9.676a69.12 69.12 0 011.17-.21 88.372 88.372 0 015.484-.745v5.412h-.475a1.905 1.905 0 00-1.901 1.898v.949a1.899 1.899 0 001.901 1.898h9.506a1.905 1.905 0 001.902-1.898v-.949a1.899 1.899 0 00-1.902-1.898h-.475v-5.99a86.832 86.832 0 013.316-.052.93.93 0 00.68-.274.95.95 0 00.282-.675v-2.159a.948.948 0 00-.857-.944zM47.41 36.73h-9.507v-.949h9.506l.002.95zm-7.13-2.847v-3.32h4.753v3.32H40.28zm4.753-5.219H40.28v-2.783a46.302 46.302 0 014.753-1.29v4.073zm17.587 2.847h-9.507v-.949h9.506l.001.949zm-7.13-2.847v-1.898h4.753v1.898H55.49zm4.753-3.796H55.49v-1.8c1.734-.151 3.348-.252 4.753-.319v2.12zm4.278-4.142c-5.599.052-11.185.519-16.714 1.396-12.147 2.06-18.337 6.04-18.4 11.83-.036 3.404 2.118 6.22 4 8.292 1.091 1.203 3.08 3.125 5.384 5.35 1.676 1.62 3.575 3.455 5.391 5.269H26.034a30.13 30.13 0 01-1.133-1.475.951.951 0 00-1.696.774.947.947 0 00.154.337c.093.128.181.248.268.364H8.28c-.755-2.943-2.66-13.191 4.51-21.526 6.693-7.782 19.166-11.698 37.176-11.698 4.506 0 9.358.246 14.556.737v.35z"/><path d="M23.371 27.58a15.114 15.114 0 00-3.45 3.879 1.026 1.026 0 00-.126.734.977.977 0 00.399.614.884.884 0 00.69.129.93.93 0 00.578-.42 13.228 13.228 0 013.02-3.384.957.957 0 00.238-.286 1.016 1.016 0 00.095-.74 1 1 0 00-.158-.341.938.938 0 00-.268-.252.882.882 0 00-.696-.1.896.896 0 00-.322.167zm8.265-4.196c-1.57.58-2.496 1.008-2.534 1.025-.767.355-1.515.732-2.223 1.12a.983.983 0 00-.473.59.995.995 0 00.08.753 1 1 0 001.334.395 34.412 34.412 0 012.103-1.06c.01-.003.9-.414 2.39-.964a.982.982 0 00.644-.888.997.997 0 00-.569-.94.98.98 0 00-.752-.03zM20.897 43.757a1.033 1.033 0 00-.562-.561 1.215 1.215 0 00-.839-.042c-.274.087-.5.267-.626.503a.895.895 0 00-.048.753 28.708 28.708 0 002.445 4.778c.143.228.381.395.662.466.281.07.582.037.836-.091.254-.129.44-.343.519-.595a.898.898 0 00-.102-.75 26.819 26.819 0 01-2.285-4.461zm-1.762-2.187c.284-.034.542-.162.716-.358a.83.83 0 00.212-.685 11.742 11.742 0 01-.149-1.828 9.701 9.701 0 01.34-2.58.813.813 0 00-.136-.696 1.093 1.093 0 00-.671-.412 1.244 1.244 0 00-.816.112.95.95 0 00-.486.571 11.305 11.305 0 00-.398 3.005c.002.695.058 1.389.168 2.077a.896.896 0 00.36.572 1.197 1.197 0 00.86.221zm18.777-20.248a48.71 48.71 0 00-2.26.618.9.9 0 00-.318.172.955.955 0 00-.232.287 1.004 1.004 0 00-.081.735.978.978 0 00.44.571c.21.124.458.158.692.095a45.71 45.71 0 012.178-.595.895.895 0 00.327-.156.946.946 0 00.245-.275.997.997 0 00.115-.732.992.992 0 00-.149-.344.935.935 0 00-.262-.258.886.886 0 00-.695-.118z"/></symbol><symbol viewBox="0 0 65 64" id="fig-10" xmlns="http://www.w3.org/2000/svg"><path fill-rule="evenodd" clip-rule="evenodd" d="M36.329 10.4c-.02.02-.036.483-.036 1.03s-.012.995-.026.995c-.014 0-.14-.07-.281-.155-1.064-.645-2.856-1.04-4.125-.907-1.582.164-2.744.818-3.39 1.907-.341.576-.403.826-.4 1.636.003.638.019.758.15 1.132a8.36 8.36 0 001.29 2.354c.477.616.854 1.078 1.054 1.293 1.234 1.33 1.57 1.751 1.86 2.324.596 1.182.79 2.486.57 3.828-.09.555-.379 1.442-.624 1.922-.914 1.785-2.651 3.299-4.609 4.014l-.52.19H20.1c-7.572 0-7.347-.007-7.891.242-.87.398-1.408 1.015-1.697 1.95-.09.291-.097.572-.097 3.643v3.326l.153.433c.334.945 1.013 1.605 1.989 1.932l.348.117 5.96.015 5.961.015v1.58h-3.03c-2.557 0-3.093.014-3.442.085-1.923.39-3.268 2.06-3.22 4.002.015.604.127 1.039.423 1.643.522 1.066 1.37 1.743 2.66 2.124.294.087.968.094 10.574.109 6.99.01 10.4-.003 10.696-.04a4.336 4.336 0 001.598-.538c.427-.248 1.137-.924 1.324-1.26l.217-.389c.05-.09.158-.354.238-.587.131-.38.146-.497.147-1.161.002-.7-.008-.766-.174-1.241-.448-1.28-1.336-2.135-2.7-2.6-.327-.11-.423-.114-3.564-.133l-3.228-.02v-1.573l3.603-.016c3.562-.016 3.607-.017 3.956-.133a4.013 4.013 0 001.22-.719c.248-.23.523-.651.723-1.103l.169-.383.014-15.459.014-15.459h-3.34c-1.837 0-3.357.016-3.376.035zm5 16.087v14.432l-.139.274a1.59 1.59 0 01-.334.435c-.415.337.588.315-14.154.315-15.172 0-13.737.043-14.206-.43-.138-.14-.283-.344-.322-.454-.056-.157-.071-.852-.071-3.314 0-2.992.004-3.124.105-3.325a1.71 1.71 0 01.7-.69c.21-.102.405-.104 12.656-.118l12.443-.014V12.056h3.322v14.432zM33.24 13.08c1.1.18 1.99.582 2.8 1.268l.254.215v17.401l-2.625-.002c-1.444-.002-2.624-.02-2.622-.04.002-.022.222-.217.489-.435 1.247-1.016 2.293-2.555 2.827-4.158.284-.852.38-1.382.415-2.284a7.616 7.616 0 00-.78-3.69c-.422-.838-.586-1.059-1.67-2.25-1.817-1.999-2.57-3.222-2.57-4.175 0-1.365 1.515-2.17 3.482-1.85zm11.466 9.504c0 .794.002.813.119.843.065.016 1.313.031 2.772.032l2.654.003 1.112 1.101 1.111 1.102v2.284h-7.768v1.69h2.625l.002 3.868v6.297l-.002 2.575v.145h-1.5v1.69h1.494l.016.638c.01.35.007.648-.006.66-.012.012-.355.022-.763.022h-.741v1.637l.469.006c.258.004.595.005.75.003.305-.005.294-.019.294.387l-.006.528-.007.396h-1.5v1.69h1.5l.008 1.095c.005.603.005 1.137.001 1.188-.007.085.066.093.849.093h.856V50.18h1.554v-1.69h-1.554v-.628c0-.545.013-.633.093-.663.05-.02.322-.032.602-.029.281.003.59.005.685.003l.174-.003v-1.637h-1.554v-1.32h1.557l-.015-.832-.015-.832-.763-.014-.764-.015V29.64h5.09v-2.364l-.002-2.363-1.597-1.57-1.597-1.572h-6.234v.813zM31.632 44.74v2.164l3.978.014 3.978.015.32.13c.413.17.974.684 1.166 1.071.21.423.271.729.245 1.226-.02.379-.053.502-.222.839a2.382 2.382 0 01-1.642 1.249c-.183.034-3.858.053-10.418.053-11.15 0-10.443.02-11.048-.321-.368-.208-.745-.625-.952-1.052-.156-.323-.166-.38-.166-.95 0-.58.01-.625.177-.963.228-.46.656-.883 1.124-1.108l.36-.174 4.005-.015 4.005-.015v-4.326h5.09v2.163z"/></symbol><symbol viewBox="0 0 65 64" id="fig-11" xmlns="http://www.w3.org/2000/svg"><g fill-rule="evenodd" clip-rule="evenodd"><path d="M37.195 5.686a143.746 143.746 0 00-2.136 2.271c-.584.722-.957 1.57-1.116 2.54-.059.36-.06 1.126-.001 1.505a5.295 5.295 0 003.333 4.17 5.13 5.13 0 001.893.344 4.906 4.906 0 001.747-.287c1.866-.645 3.2-2.265 3.502-4.251.084-.558.048-1.33-.09-1.92-.177-.76-.604-1.608-1.097-2.182a597.091 597.091 0 00-3.954-4.168l-.1-.103-1.981 2.081zm3.46.804c1.778 1.87 1.718 1.807 1.855 1.966.513.594.855 1.342.99 2.159.04.245.041 1.03.001 1.28a4.381 4.381 0 01-3.759 3.676c-2.166.287-4.248-1.114-4.791-3.226-.108-.418-.125-.565-.124-1.102 0-.576.038-.831.194-1.316.164-.508.493-1.1.82-1.472.07-.08.85-.904 1.732-1.832l1.605-1.687.063.066 1.414 1.488zM5.838 33.44c1.438-1.635 2.995-2.9 4.645-3.777 2.375-1.262 4.763-1.489 6.718-.64.58.252 1.302.765 1.699 1.208a5.09 5.09 0 011.094 1.957c.064.219.125.426.137.462.014.043.19.114.51.206a23.67 23.67 0 013.566 1.347c.445.213 1.629.867 2.433 1.345l.227.135-.107-.187c-.487-.86-1.12-2.206-1.434-3.055l-.132-.358-.474-.02a6.201 6.201 0 01-2.427-.621c-.504-.244-1.39-.897-1.79-1.32-1.334-1.41-2.005-3.38-1.925-5.648.096-2.696 1.353-5.72 3.576-8.599a20.808 20.808 0 012.244-2.518c.987-.957 1.118-1.062 1.361-1.092.172-.02.232-.005.37.097.143.106.188.186.347.612.27.728.85 1.801 1.758 3.257 1.941 3.114 2.678 4.788 3.035 6.9.186 1.103.197 1.937.038 3.007-.358 2.403-1.644 4.359-3.476 5.287-.355.18-1.115.457-1.303.475-.064.007-.126.025-.138.041-.02.027.231.758.27.787.01.007.085.176.168.376.183.444.77 1.575 1.136 2.188.546.916 1.54 2.23 2.165 2.86.513.518.565.586.586.762a.548.548 0 01-.223.514c-.127.082-.42.144-.477.101-.123-.09-1.98-.28-2.808-.287-.427-.004-1.618.058-1.638.084-.006.009.005.174.025.367.091.89-.242 1.826-.892 2.51-1.126 1.183-2.7 1.64-4.851 1.41a28.35 28.35 0 01-1.46-.231c-.942-.17-1.414-.224-1.805-.207-.333.015-.63-.31-.579-.633.029-.184.468-1.23.743-1.767.334-.655 1.352-2.02 1.863-2.5.64-.6 1.464-1.128 2.119-1.36 1.64-.583 3.37-.129 4.235 1.11l.137.198.56-.053c.662-.063 1.451-.08 2.172-.048l.52.023-.789-.58c-2.068-1.522-4.167-2.624-6.405-3.362-.434-.144-.835-.261-.89-.262-.099 0-.102.004-.105.154-.005.233-.152.858-.291 1.241-.111.306-.176.412-.616 1.008-.433.588-.527.695-.793.904-.887.7-1.95 1.151-3.144 1.333-.903.137-1.707.11-2.736-.091-1.298-.254-2.417-.683-4.378-1.677-1.565-.793-2.055-1.01-2.694-1.192-.514-.146-.642-.23-.723-.468-.072-.211.004-.384.396-.904.198-.264.49-.628.65-.809zm.52 1.255c.234.08.783.317 1.157.5.467.227.469.228 1.215.617 2.67 1.391 4.52 1.878 6.308 1.66 1.532-.187 2.972-1.04 3.553-2.103.094-.172.218-.46.276-.64.122-.379.22-.973.174-1.046-.068-.106-1.7-.313-2.695-.34a15.512 15.512 0 00-5.004.718c-.503.163-.652.165-.86.011-.211-.154-.281-.342-.217-.578.077-.276.218-.367.898-.574 2.418-.734 5.043-.917 7.375-.514l.353.061-.035-.124c-.072-.255-.27-.636-.504-.966-1.271-1.802-3.824-2.225-6.553-1.087-1.272.53-2.75 1.547-4.038 2.776-.395.377-.63.631-1.398 1.51-.066.075-.067.097-.005.119zM22.01 18.043c-1.234 1.95-2.02 3.962-2.236 5.72-.374 3.044.814 5.604 3.109 6.699.49.233 1.151.412 1.656.446l.282.02-.048-.152c-.293-.913-.689-3.041-.796-4.274-.11-1.272-.123-3.166-.029-4.12.185-1.875.314-2.823.423-3.124.06-.162.085-.188.274-.285.241-.124.469-.088.645.1.173.186.183.346.067 1.055-.06.372-.123.827-.139 1.01a3.847 3.847 0 01-.037.345c-.031.042-.091.847-.13 1.719a23 23 0 00.776 7.135l.138.52.133-.02a5.8 5.8 0 00.542-.154c2.15-.694 3.562-2.936 3.632-5.77.055-2.239-.78-4.547-2.823-7.8-.993-1.58-1.578-2.606-1.807-3.168l-.061-.15-.174.158c-.413.376-1.303 1.328-1.91 2.045-.317.372-1.179 1.56-1.487 2.045zm-4.03 22.88c-.288.497-.59 1.109-.557 1.133a2 2 0 00.32.053c.16.017.514.078.787.133 2.165.44 3.483.388 4.5-.18a3.48 3.48 0 00.92-.72c.37-.412.59-1.104.505-1.596l-.04-.24-.241.05c-.717.144-1.764.49-2.572.85-.385.172-1.239.625-1.734.92-.292.174-.741-.064-.796-.422-.037-.238.078-.452.332-.619.294-.194 1.36-.755 1.827-.962.723-.32 1.794-.685 2.37-.806l.224-.047-.061-.094c-.082-.127-.456-.342-.784-.45-.75-.25-1.607-.129-2.483.352-.381.209-1.016.718-1.36 1.09a11.601 11.601 0 00-1.157 1.555zM40.597 18.961c-.142.083-.178.244-.178.786v.681l-.552-.034c-.62-.039-.981.102-.981.381 0 .322.275.45.92.427l.603-.021.03.68c.023.517.074.709.21.793.344.216.533-.04.566-.766l.03-.655.628-.024c.672-.027.896-.135.896-.434 0-.284-.373-.426-.985-.375l-.548.045v-.692c0-.579-.032-.708-.197-.796-.236-.126-.217-.126-.442.004zm.511 1.874c0 .21-.049.254-.28.254-.232 0-.282-.044-.282-.254 0-.21.05-.254.281-.254.232 0 .282.044.282.254zm-7.302 3.224c-.308.148-.572.732-.492 1.09.076.345.4.659.819.792l.307.098.022 5.02c.024 5.253.026 5.221-.427 6.558-.17.504-.736 2.333-.975 3.153-.098.336-.855 2.785-1.684 5.442a1298.861 1298.861 0 00-2.421 7.832c-.32 1.016-.398 1.616-.295 2.238.295 1.776 1.356 3.03 2.962 3.499.483.141 1.428.162 7.336.162 6.553 0 6.803-.007 7.4-.207 1.188-.398 1.905-1.044 2.48-2.234.295-.611.32-.742.32-1.729 0-.833-.05-1.214-.226-1.73a120.77 120.77 0 01-.744-2.338c-.286-.924-.606-1.953-.712-2.289-.106-.336-.316-1.022-.466-1.526a43.525 43.525 0 00-.414-1.322c-.078-.224-.833-2.66-1.678-5.414l-1.537-5.007.026-5.053.027-5.054.33-.11c.537-.181.792-.507.78-.997-.01-.34-.076-.482-.333-.71l-.32-.286-4.93.007c-3.255.005-5.007.044-5.155.115zm9.864.87c-.033.166-.34.178-4.733.178-4.394 0-4.701-.012-4.733-.178-.033-.168.247-.178 4.733-.178 4.485 0 4.765.01 4.733.178zm-1.105 6.026v4.984H40.68c-1.575 0-1.91.026-2.044.16-.194.193-.198.26-.033.48.111.149.393.175 2.114.198l1.987.027 1.459 4.73c.802 2.6 1.46 4.801 1.463 4.89.003.113-.325.284-1.095.57-.604.226-1.315.494-1.579.597-.467.182-.487.182-.689 0-.253-.229-1.116-.33-1.422-.166-.299.159-.549.562-.62 1-.058.352-.09.375-.865.643-2.084.721-3.893.986-5.533.81-.941-.1-2.325-.405-2.462-.541-.029-.03.667-2.38 1.547-5.225 1.963-6.349 1.944-6.288 2.195-7.13.193-.647.204-.983.204-5.848V25.97h7.257v4.984zM36.33 43.618c-.083.1-.112.366-.083.763l.044.61H35.6c-.579 0-.71.032-.798.197-.241.449.144.678 1.004.596l.485-.047-.042.582c-.036.492-.01.616.175.8.175.173.26.195.42.109.171-.09.203-.215.203-.79v-.684h.676c.569 0 .698-.033.817-.21.247-.366-.003-.545-.79-.564l-.677-.017-.004-.642c-.002-.353-.033-.69-.07-.748-.098-.159-.521-.13-.667.045zm.613 1.755c0 .23-.045.28-.256.28-.21 0-.255-.05-.255-.28 0-.23.044-.28.255-.28.21 0 .256.05.256.28zm9.181 2.492c.283.958.44 1.462 1.303 4.195.829 2.623.9 2.917.906 3.713.004.76-.031.935-.295 1.454-.35.688-1 1.322-1.675 1.632-.474.218-.52.22-7.427.22h-6.95l-.583-.285c-1.153-.564-1.921-1.777-1.921-3.036 0-.608.148-1.163 1.084-4.053.19-.588.346-1.15.346-1.25 0-.28.196-.294.97-.074 1.178.337 2.716.458 4.056.32 1.286-.13 1.86-.26 3.507-.793.965-.313 1.166-.347 1.438-.25.743.268 1.529-.044 1.741-.69.094-.288.217-.384.818-.643 1.01-.437 2.213-.882 2.397-.887.1-.004.205.155.285.427zm-4.437.341c.209.08.208.485 0 .658-.298.245-.808-.262-.561-.558.143-.172.3-.2.56-.1zm-5.943 4.874c-.324.323-.355.401-.305.771.066.488.283.756.735.904.89.293 1.68-.653 1.233-1.478-.356-.659-1.11-.748-1.663-.197zm.892.659c0 .112-.066.203-.147.203-.214 0-.312-.21-.147-.315.219-.138.294-.11.294.112zm5.045 1.064c-.522.364-.561 1.293-.07 1.678.29.226.934.279 1.265.103.31-.165.533-.685.46-1.072-.13-.692-1.09-1.104-1.655-.71zm.78.868c0 .112-.066.204-.147.204-.18 0-.296-.168-.21-.306.111-.178.358-.108.358.102z"/></g></symbol><symbol viewBox="0 0 65 64" id="fig-12" xmlns="http://www.w3.org/2000/svg"><g fill-rule="evenodd" clip-rule="evenodd"><path d="M55.414 49.933a9.921 9.921 0 00-8.882-5.567 9.645 9.645 0 00-2.293.269 5.29 5.29 0 00-.759-.947.954.954 0 00.019-.078V32.192c6.121-.408 10.816-5.599 10.612-11.732-.204-6.13-5.234-10.995-11.369-10.995S31.577 14.33 31.37 20.46c-.204 6.133 4.492 11.324 10.613 11.732v10.411a5.261 5.261 0 00-3.024-.454 9.119 9.119 0 00-6.921-3.088 9.111 9.111 0 00-6.862 3.221 5.239 5.239 0 00-3.671.335v-2.08c6.122-.41 10.817-5.598 10.613-11.731-.204-6.133-5.234-10.998-11.372-10.998-6.135 0-11.165 4.865-11.37 10.998-.203 6.133 4.49 11.321 10.614 11.732v3.072c0 .027.013.05.016.075a5.246 5.246 0 00-.608.725 9.926 9.926 0 00-.926-.044c-5.443.007-9.854 4.416-9.859 9.861 0 .42.34.759.76.759H54.88c.42 0 .758-.34.758-.759v-3.304a2.3 2.3 0 00-.22-.99h-.004zM32.88 20.855a9.863 9.863 0 019.6-9.868c5.346-.14 9.83 4.008 10.106 9.347.275 5.342-3.758 9.93-9.088 10.34V27.3l2.73-2.048a.758.758 0 10-.91-1.213l-1.82 1.367V22.37a.758.758 0 10-1.518 0v1.807l-1.935-.968a.762.762 0 00-1.018.34.76.76 0 00.34 1.018l2.613 1.306v4.801a9.868 9.868 0 01-9.102-9.821l.002.002zm-21.996 8.343a9.86 9.86 0 019.602-9.866c5.347-.14 9.831 4.006 10.106 9.348a9.86 9.86 0 01-9.088 10.34v-3.375l2.73-2.047a.758.758 0 10-.91-1.213l-1.82 1.366v-3.033a.758.758 0 10-1.518 0v1.807l-1.937-.973a.76.76 0 00-.679 1.358l2.614 1.311v4.801a9.866 9.866 0 01-9.102-9.822l.002-.002zm43.233 24.27H10.161a8.354 8.354 0 018.309-7.584 7.45 7.45 0 011.192.09.753.753 0 00.786-.386 3.847 3.847 0 014.723-1.717c.316.12.674.016.878-.254a7.59 7.59 0 0112.02-.172.755.755 0 00.762.268 3.779 3.779 0 014.335 2.127.75.75 0 00.92.41 8.21 8.21 0 012.448-.366 8.398 8.398 0 017.516 4.712.776.776 0 01.068.33v2.542z"/><path d="M46.533 50.434H37.43a.758.758 0 100 1.517h9.102a.758.758 0 100-1.517zm3.032 0h-.76a.758.758 0 100 1.517h.76a.758.758 0 100-1.517z"/></g></symbol><symbol viewBox="0 0 68 68" id="fig-2" xmlns="http://www.w3.org/2000/svg"><path d="M37.064 28.051v-3.37a7.244 7.244 0 003.6-3.276 7.16 7.16 0 00.695-4.795 7.2 7.2 0 00-2.52-4.15 7.3 7.3 0 00-4.6-1.629 7.3 7.3 0 00-4.599 1.629 7.2 7.2 0 00-2.521 4.15 7.16 7.16 0 00.696 4.796 7.243 7.243 0 003.6 3.274v3.371h1.613V25.14a6.797 6.797 0 002.422 0v2.912h1.614zm-2.825-4.405a5.673 5.673 0 01-3.696-1.37 5.59 5.59 0 01-1.89-3.435h.34a.81.81 0 00.57-.235.798.798 0 000-1.133.81.81 0 00-.57-.234h-.34c.134-.926.5-1.804 1.066-2.552l.24.238a.81.81 0 001.376-.567.798.798 0 00-.235-.566l-.24-.238a5.637 5.637 0 012.572-1.057v.337c0 .212.085.416.236.566a.81.81 0 001.142 0 .798.798 0 00.236-.566v-.337a5.637 5.637 0 012.572 1.057l-.24.238a.799.799 0 00.57 1.368.813.813 0 00.572-.235l.24-.238a5.547 5.547 0 011.065 2.552h-.34a.81.81 0 00-.57.234.798.798 0 00.57 1.368h.34a5.59 5.59 0 01-1.89 3.436 5.673 5.673 0 01-3.696 1.37zM58.28 42.688h-.411v-4.482a6.899 6.899 0 00-2.051-4.895 7.04 7.04 0 00-4.945-2.031h-4.115v1.63h4.115a5.383 5.383 0 013.781 1.553 5.276 5.276 0 011.569 3.743v4.482h-5.761v-1.63c0-.648-.261-1.27-.724-1.728a2.484 2.484 0 00-1.745-.716h-1.235v1.63h1.235c.218 0 .427.086.582.238.154.153.24.36.24.576v1.63h-.41a2.07 2.07 0 00-1.455.597 2.03 2.03 0 00-.603 1.44v2.445c0 .54.218 1.057.603 1.44a2.07 2.07 0 001.454.597h.412v4.074h-.412a2.07 2.07 0 00-1.454.597 2.03 2.03 0 00-.603 1.44v2.445c0 .54.218 1.058.603 1.44a2.07 2.07 0 001.454.597h9.876a2.07 2.07 0 001.455-.597c.385-.382.602-.9.603-1.44v-2.445a2.03 2.03 0 00-.603-1.44 2.07 2.07 0 00-1.455-.597h-.411v-4.074h.411a2.07 2.07 0 001.455-.598c.385-.382.602-.9.603-1.44v-2.444a2.03 2.03 0 00-.603-1.44 2.07 2.07 0 00-1.455-.597zm0 12.223a.41.41 0 01.411.407v2.445a.406.406 0 01-.12.288.414.414 0 01-.29.12h-9.877a.414.414 0 01-.29-.12.406.406 0 01-.121-.288v-2.445c0-.108.043-.211.12-.288a.414.414 0 01.291-.12h9.876zm-7.818-1.63v-4.074h5.76v4.074h-5.76zm8.23-6.111a.406.406 0 01-.12.288.415.415 0 01-.292.12h-9.876a.414.414 0 01-.29-.12.406.406 0 01-.121-.288v-2.445c0-.108.043-.212.12-.288a.414.414 0 01.291-.12h9.876c.11 0 .214.044.291.12.077.076.12.18.12.288v2.445zM10.657 25.091h.396v8.476a6.939 6.939 0 001.972 4.849 6.667 6.667 0 004.754 2.012h3.957v-1.615h-3.957a5.099 5.099 0 01-3.635-1.538 5.307 5.307 0 01-1.509-3.708V25.09h5.54v5.65c0 .643.25 1.258.696 1.712.445.454 1.049.71 1.678.71h1.187V31.55h-1.187a.785.785 0 01-.56-.237.816.816 0 01-.231-.57v-5.65h.395a1.965 1.965 0 001.399-.592c.37-.378.579-.891.58-1.426v-2.422a2.045 2.045 0 00-.58-1.426 1.961 1.961 0 00-1.399-.592h-.395v-4.036h.395a1.96 1.96 0 001.399-.591 2.05 2.05 0 00.58-1.427V10.16a2.045 2.045 0 00-.58-1.426 1.961 1.961 0 00-1.399-.592h-9.496c-.524 0-1.027.213-1.398.592-.371.378-.58.89-.58 1.426v2.421c0 .535.209 1.048.58 1.427.37.378.874.59 1.398.591h.396v4.036h-.396c-.524 0-1.027.214-1.398.592s-.58.891-.58 1.426v2.422c0 .535.209 1.047.58 1.426.37.378.874.59 1.398.591zm0-12.107a.393.393 0 01-.28-.118.408.408 0 01-.116-.286v-2.42c0-.107.042-.21.116-.285a.392.392 0 01.28-.119h9.496c.105 0 .206.043.28.119a.408.408 0 01.116.285v2.421a.41.41 0 01-.116.286.393.393 0 01-.28.118h-9.496zm7.518 1.614v4.036h-5.54v-4.036h5.54zm-7.914 6.054c0-.107.042-.21.116-.285a.392.392 0 01.28-.119h9.496c.105 0 .206.043.28.119a.408.408 0 01.116.285v2.422c0 .107-.042.21-.116.285a.393.393 0 01-.28.118h-9.496a.393.393 0 01-.28-.118.408.408 0 01-.116-.285v-2.422z"/><path d="M10.159 59.262h2.421c.535 0 1.048-.217 1.426-.6a2.06 2.06 0 00.592-1.445v-.409h17.354a6.823 6.823 0 004.85-2.039 7.007 7.007 0 002.011-4.913v-7.77h.865c.089.35.29.66.572.882a1.6 1.6 0 00.985.344h2.421c.428 0 .839-.173 1.141-.48.303-.306.473-.722.474-1.156v-11.45c0-.435-.171-.85-.474-1.157a1.605 1.605 0 00-1.14-.48h-2.422a1.6 1.6 0 00-.986.344 1.636 1.636 0 00-.571.883H29.07c-.09-.35-.29-.66-.572-.883a1.6 1.6 0 00-.985-.344H25.09a1.6 1.6 0 00-1.14.48 1.65 1.65 0 00-.474 1.156v11.451c0 .434.17.85.473 1.156.303.307.713.48 1.141.48h2.422a1.6 1.6 0 00.985-.344c.282-.222.483-.533.572-.883h.864v4.908a.825.825 0 01-.236.578.803.803 0 01-.57.24h-14.53v-.41c0-.541-.213-1.061-.592-1.445a2.007 2.007 0 00-1.426-.6H10.16a2.017 2.017 0 00-1.427.6 2.061 2.061 0 00-.591 1.446v9.815c0 .542.213 1.062.591 1.445.379.383.892.6 1.427.6zm31.076-29.037h2.421l.001 11.451h-2.422v-11.45zM25.09 41.676v-11.45h2.422l.001 11.45H25.09zm4.036-1.227v-8.997H39.62v8.997H29.127zm-14.529 8.998h14.53a2.407 2.407 0 001.71-.72c.455-.46.71-1.084.71-1.734v-4.908h5.65v7.77a5.358 5.358 0 01-1.538 3.758 5.218 5.218 0 01-3.708 1.56H14.598v-5.726zm-4.843-2.045c0-.109.043-.213.118-.29a.401.401 0 01.286-.12h2.421a.4.4 0 01.285.12.413.413 0 01.119.29v9.815a.412.412 0 01-.119.289.4.4 0 01-.285.12H10.16a.401.401 0 01-.286-.12.412.412 0 01-.118-.289v-9.815z"/><path d="M34.508 32.894c-1.81 0-3.229 1.3-3.229 2.96s1.419 2.96 3.23 2.96c1.81 0 3.228-1.3 3.228-2.96s-1.418-2.96-3.229-2.96zm0 4.228c-.891 0-1.614-.568-1.614-1.268 0-.7.723-1.269 1.614-1.269.892 0 1.615.568 1.615 1.269 0 .7-.723 1.268-1.615 1.268z"/></symbol><symbol viewBox="0 0 86 86" id="fig-3" xmlns="http://www.w3.org/2000/svg"><path d="M28.582 57.11a5.932 5.932 0 01-1.28-1.883 5.822 5.822 0 01-.47-2.303v-9.947a.643.643 0 011.287 0v9.947a4.6 4.6 0 001.372 3.28l-.91.906zm0 0a5.985 5.985 0 001.894 1.271m-1.894-1.27l1.894 1.27m27.464-4.153l.01-.033a.642.642 0 011.262.178m-1.272-.145l1.271.145m0 0c0 .06-.008.117-.023.17m.023-.17l-.023.17m-1.248-.314a4.697 4.697 0 01-4.485 3.338H32.79a4.658 4.658 0 01-3.299-1.364L57.94 54.23zm1.248.315l-.001.004a5.87 5.87 0 01-.816 1.718 5.98 5.98 0 01-1.3 1.36m2.117-3.082l-3.793 3.98m1.675-.897l-.15-.199.15.198zm0 0a5.953 5.953 0 01-1.675.897m0 0a5.952 5.952 0 01-1.941.324H32.79c-.8 0-1.58-.157-2.314-.467m24.919.143l-24.92-.143M55.77 26.948a5.953 5.953 0 00-2.316-.467H32.79a5.963 5.963 0 00-4.207 1.737 5.908 5.908 0 00-1.28 1.883 5.813 5.813 0 00-.472 2.3v5.364a.643.643 0 001.288 0v-5.364a4.59 4.59 0 011.372-3.275 4.657 4.657 0 013.299-1.363h20.664c1.242 0 2.415.484 3.302 1.363a4.592 4.592 0 011.373 3.275v16.78a.643.643 0 001.287 0V32.4a5.837 5.837 0 00-.472-2.3 5.933 5.933 0 00-1.28-1.882 5.973 5.973 0 00-1.894-1.271zm2.359 24.838a.643.643 0 001.287 0 .643.643 0 00-1.287 0zM26.832 40.37a.643.643 0 001.287 0 .642.642 0 00-1.288 0z"/><path d="M26.831 32.4c.002-.795.16-1.57.472-2.3a5.964 5.964 0 015.487-3.62h20.664a5.973 5.973 0 014.21 1.739v.001a5.945 5.945 0 011.28 1.882c.313.73.47 1.503.472 2.298v8.848a.64.64 0 01-.188.452l-.002.001a.641.641 0 01-.454.188h-7.987a.643.643 0 01-.644-.641c0-.355.29-.641.644-.641h7.344V32.4a4.59 4.59 0 00-1.373-3.273 4.657 4.657 0 00-3.302-1.365H32.79a4.652 4.652 0 00-3.299 1.363l-2.66 3.275zm0 0v8.848a.642.642 0 00.644.64h18.063a.642.642 0 00.644-.64.643.643 0 00-.644-.641h-17.42V32.4a4.59 4.59 0 011.373-3.275l-2.66 3.275zm20.687 8.848a.643.643 0 001.287 0 .643.643 0 00-1.287 0zm5.936 17.602H32.79a5.938 5.938 0 01-2.314-.469 5.984 5.984 0 01-1.894-1.27 5.94 5.94 0 01-1.28-1.883 5.85 5.85 0 01-.47-2.303v-1.207a.641.641 0 01.643-.64h6.11c.352 0 .643.283.643.64 0 .354-.29.64-.644.64h-5.466v.566a4.6 4.6 0 001.373 3.28l23.963 2.645zm0 0c3.284-.004 5.96-2.658 5.962-5.926l-5.962 5.925zM32.79 57.566a4.653 4.653 0 01-3.299-1.364l29.735-4.939a.646.646 0 00-.454-.187H38.831a.642.642 0 00-.644.64c0 .355.29.642.644.642h19.297v.565a4.602 4.602 0 01-1.372 3.279 4.662 4.662 0 01-3.302 1.364H32.79zm2.774-5.849a.643.643 0 001.287 0 .643.643 0 00-1.287 0z"/><path d="M42.48 41.248a.643.643 0 001.287 0V30.44a.643.643 0 00-1.287 0v10.807zM30.762 47.55c0 1.687 1.38 3.055 3.074 3.055 1.693 0 3.074-1.368 3.074-3.054 0-1.686-1.38-3.055-3.074-3.055-1.693 0-3.074 1.369-3.074 3.055zm3.074 1.774a1.786 1.786 0 01-1.787-1.774 1.787 1.787 0 013.574 0 1.787 1.787 0 01-1.787 1.774zm15.501-1.774c0 1.687 1.38 3.055 3.074 3.055 1.693 0 3.074-1.368 3.074-3.054 0-1.686-1.38-3.055-3.074-3.055s-3.074 1.369-3.074 3.055zm3.074 1.774a1.786 1.786 0 01-1.787-1.774 1.786 1.786 0 011.787-1.773 1.786 1.786 0 011.787 1.773 1.786 1.786 0 01-1.787 1.774zM37.655 20.497l-.001.002a.644.644 0 00-.19.454v2.642a.645.645 0 00.644.641H48.14c.17 0 .332-.066.453-.184l.003-.003a.642.642 0 00.188-.454v-2.642a.644.644 0 00-.19-.455h-.001a.65.65 0 00-.453-.185H38.11a.651.651 0 00-.454.184zm9.84 1.096v1.363l-8.743-.001v-1.362h8.744z"/><path d="M45.096 23.142a.649.649 0 00-.454-.186h-3.037a.645.645 0 00-.644.64v3.526a.641.641 0 00.644.64h3.037a.637.637 0 00.455-.187.637.637 0 00.189-.453v-3.525a.642.642 0 00-.19-.455zM44 24.238v2.243h-1.75v-2.244H44zm-10.823 11.15a.632.632 0 01-.084-.485m.084.485l-.084-.485m.084.485l.001.002m-.001-.002l.001.002m-.085-.487a.637.637 0 01.283-.4m-.283.4l.283-.4m-.198.887a.646.646 0 00.887.195l3.95-2.49a.636.636 0 00.283-.4.632.632 0 00-.085-.486.645.645 0 00-.884-.2m-4.15 3.38l4.15-3.38m0 0l-.003.003m.003-.002l-.003.002m0 0l-3.95 2.49m3.95-2.49l-3.95 2.49m-.536 3.834a.642.642 0 01-.543-.297l.544.297zm0 0a.642.642 0 00.345-.1l3.947-2.49a.63.63 0 00.285-.401m-4.576 2.991l4.576-2.991m0 0a.635.635 0 00-.084-.485l.084.485zm-5.205 2.21a.633.633 0 00.085.484l5.036-3.179a.643.643 0 00-.888-.196l-3.949 2.49a.632.632 0 00-.284.402zm16.69-2.168v.001a.642.642 0 00.886.2l.002-.002 3.953-2.49a.636.636 0 00.284-.402.632.632 0 00-.084-.484l-.001-.001a.645.645 0 00-.885-.198l-.001.001-3.953 2.49a.64.64 0 00-.2.885zm-.881 2.652l.001.002a.646.646 0 00.887.196l3.95-2.491a.639.639 0 00.2-.885.642.642 0 00-.889-.197l-3.948 2.49a.64.64 0 00-.201.885zM25.558 73.538l.001.001a.645.645 0 00.893-.167l10.232-14.8v-.001a.64.64 0 00-.165-.892l-.003-.002a.643.643 0 00-.89.168h-.001L25.39 72.647a.64.64 0 00.167.891zm24.016-14.949l.002.003L59.81 72.234h.001a.643.643 0 001.031-.765L50.608 57.824l-.001-.002a.644.644 0 00-1.151.291l-.001.003a.647.647 0 00.119.473z"/><path d="M32.495 64.144h21.588a.642.642 0 100-1.282H32.495a.642.642 0 100 1.282zm-4.297 6.413h30.544a.644.644 0 00.644-.64.643.643 0 00-.644-.642H28.198a.642.642 0 00-.644.641c0 .355.29.641.644.641zm28.04-3.335h.001l-25.76-.418v.25l25.759.168zm-4.134-5.662h-.002l-17.485-.164h-.002l.002-.25a.384.384 0 01-.277-.117l17.764.531zm0 0h.004c.35 0 .639-.282.644-.634v-.001a.644.644 0 00-.638-.646h-.001l-17.486-.165m17.477 1.446l-17.477-1.446m0 0h-.003m.003 0h-.003m0 0h-.003a.644.644 0 00-.644.634l.648-.634zm-.647.634a.634.634 0 00.184.456l-.184-.456z"/><mask id="ama" maskUnits="userSpaceOnUse" x="15.79" y="15.508" width="55" height="51"><path d="M15.79 15.508h55v51h-55z"/><path d="M31.135 65.91a.399.399 0 01-.18-.044 26.39 26.39 0 01-10.239-9.455 25.885 25.885 0 01-3.925-13.746 25.9 25.9 0 011.549-8.859 26.002 26.002 0 014.286-7.562.394.394 0 01.553-.059.392.392 0 01.06.55 25.333 25.333 0 00-5.662 15.93c0 9.486 5.265 18.11 13.74 22.508a.39.39 0 01-.182.737zm24.38-.213a.392.392 0 01-.189-.735c8.23-4.452 13.343-12.996 13.343-22.297a25.22 25.22 0 00-1.057-7.247.388.388 0 01.265-.486.4.4 0 01.489.263 25.982 25.982 0 011.09 7.47c0 2.43-.336 4.836-.997 7.152a25.965 25.965 0 01-2.807 6.397 26.368 26.368 0 01-9.95 9.435.4.4 0 01-.187.047zm11.6-32.453a.391.391 0 01-.364-.243V33a.387.387 0 01.215-.508.392.392 0 01.513.211v.001c.04.097.04.202 0 .299a.393.393 0 01-.363.241zm-1.12-2.354a.394.394 0 01-.348-.206C61.184 22.423 52.552 17.29 43.123 17.29a25.689 25.689 0 00-16.258 5.802.408.408 0 01-.555-.052.39.39 0 01.053-.55 26.26 26.26 0 017.7-4.392 26.404 26.404 0 019.06-1.59 26.316 26.316 0 0113.711 3.822 26.342 26.342 0 019.507 9.983.388.388 0 01-.161.53.397.397 0 01-.185.046zm-41.317-5.95a.39.39 0 01-.28-.666.404.404 0 01.557-.002.386.386 0 01.004.552.396.396 0 01-.28.116z"/></mask><path d="M31.135 65.91a.399.399 0 01-.18-.044 26.39 26.39 0 01-10.239-9.455 25.885 25.885 0 01-3.925-13.746 25.9 25.9 0 011.549-8.859 26.002 26.002 0 014.286-7.562.394.394 0 01.553-.059.392.392 0 01.06.55 25.333 25.333 0 00-5.662 15.93c0 9.486 5.265 18.11 13.74 22.508a.39.39 0 01-.182.737zm24.38-.213a.392.392 0 01-.189-.735c8.23-4.452 13.343-12.996 13.343-22.297a25.22 25.22 0 00-1.057-7.247.388.388 0 01.265-.486.4.4 0 01.489.263 25.982 25.982 0 011.09 7.47c0 2.43-.336 4.836-.997 7.152a25.965 25.965 0 01-2.807 6.397 26.368 26.368 0 01-9.95 9.435.4.4 0 01-.187.047zm11.6-32.453a.391.391 0 01-.364-.243V33a.387.387 0 01.215-.508.392.392 0 01.513.211v.001c.04.097.04.202 0 .299a.393.393 0 01-.363.241zm-1.12-2.354a.394.394 0 01-.348-.206C61.184 22.423 52.552 17.29 43.123 17.29a25.689 25.689 0 00-16.258 5.802.408.408 0 01-.555-.052.39.39 0 01.053-.55 26.26 26.26 0 017.7-4.392 26.404 26.404 0 019.06-1.59 26.316 26.316 0 0113.711 3.822 26.342 26.342 0 019.507 9.983.388.388 0 01-.161.53.397.397 0 01-.185.046zm-41.317-5.95a.39.39 0 01-.28-.666.404.404 0 01.557-.002.386.386 0 01.004.552.396.396 0 01-.28.116z"/><path d="M30.954 65.866l-.23.444.004.002.226-.446zm-10.238-9.455l-.424.264.424-.264zm-2.896-6.48l.48-.14-.48.14zm.52-16.125l.47.17-.47-.17zm4.286-7.562l-.387-.317-.001.002.388.315zm.553-.059l.314-.389-.008-.006-.306.395zm.06.55l.387.316v-.001l-.388-.315zm8.079 38.438l-.23.444h.001l.229-.444zm.168.528l.44.237.003-.007-.443-.23zm23.683-.209l.44-.238-.002-.002-.438.24zm.157-.53l.237.44h.001l-.238-.44zm12.286-29.544l-.482.134.003.01.479-.144zm-.016-.116l.5.017v-.013l-.5-.004zm.28-.37l-.14-.48h-.002l.143.48zm.49.263l-.48.141.001.003.479-.144zm.093 14.622l.48.138-.48-.138zm-2.807 6.397l.427.26-.427-.26zm-9.95 9.435l.238.44-.237-.44zM66.753 33h-.5v.098l.037.092.462-.19zm-.003 0l-.463.189.127.311h.336V33zm.001-.298l-.46-.195-.002.006.462.189zm.214-.21l.187.464.008-.003.008-.004-.203-.457zm.513.211l-.462.191.043.104.084.076.335-.371zm.002.001l.185-.464-1.093-.436.445 1.09.463-.19zm-.002.299l-.46-.195.46.195zm-.213.21l-.185-.464-.007.003.192.462zm-1.618-2.53l-.44.238.001.002.44-.24zM43.123 17.292v.5-.5zm-16.258 5.802h-.5v1.056l.817-.67-.317-.386zm0 0l.314.39.186-.15v-.24h-.5zm-.555-.052l.384-.321-.384.32zm.053-.55l.317.386-.317-.386zm7.7-4.392l.17.47-.17-.47zm16.302-.589l.136-.48-.136.48zm6.47 2.82l-.26.428.26-.427zm9.506 9.984l.44-.237-.44.237zm-.161.53l.234.441-.234-.441zm-41.778-6.018l-.351.357.002.001.349-.358zm-.003-.552l-.354-.353-.001.001.355.352zm.556-.002l-.35.356.001.001.35-.357zm.117.274h-.5v.007l.5-.007zm-.113.278l.352.355.004-.003-.356-.352zm6.176 40.586c.02 0 .037.005.046.01l-.453.892a.9.9 0 00.407.098v-1zm.05.012a25.89 25.89 0 01-10.045-9.276l-.848.53a26.89 26.89 0 0010.432 9.634l.46-.888zM21.14 56.146a25.383 25.383 0 01-2.84-6.355l-.96.279a26.379 26.379 0 002.952 6.605l.848-.529zm-2.84-6.355a25.516 25.516 0 01-1.01-7.126h-1c0 2.517.353 5.01 1.05 7.405l.96-.279zm-1.01-7.126c0-2.984.511-5.907 1.52-8.688l-.94-.341a26.411 26.411 0 00-1.58 9.03h1zm1.52-8.688a25.5 25.5 0 014.204-7.418l-.776-.63a26.501 26.501 0 00-4.369 7.707l.94.34zm4.203-7.416a.106.106 0 01-.082.038v-1a.895.895 0 00-.692.328l.773.634zm-.082.038a.095.095 0 01-.057-.018l.611-.791a.906.906 0 00-.554-.19v1zm-.066-.025a.108.108 0 01-.015-.154l.777.63a.892.892 0 00-.134-1.254l-.628.778zm-.015-.154a25.833 25.833 0 00-5.773 16.245h1a24.832 24.832 0 015.55-15.614l-.777-.631zm-5.773 16.245c0 9.674 5.37 18.468 14.01 22.952l.461-.888c-8.311-4.313-13.47-12.767-13.47-22.064h-1zM31.09 65.618a.11.11 0 01-.047-.148l.887.461a.89.89 0 00-.383-1.203l-.457.89zm-.043-.155a.102.102 0 01.09-.053v1a.897.897 0 00.79-.472l-.88-.475zm24.47-.266c.034 0 .072.019.093.057l-.88.476c.157.29.46.466.786.466v-1zm.091.055a.11.11 0 01-.044.15l-.474-.88a.89.89 0 00-.358 1.21l.876-.48zm-.043.15c8.39-4.538 13.605-13.251 13.605-22.737h-1c0 9.116-5.01 17.492-13.08 21.857l.475.88zM69.17 42.665a25.72 25.72 0 00-1.078-7.39l-.958.286a24.733 24.733 0 011.036 7.104h1zm-1.075-7.38v.004l.002.03-1-.034a.886.886 0 00.034.267l.964-.268zm.002.02a.112.112 0 01-.077.106l-.285-.958a.888.888 0 00-.638.845l1 .008zm-.079.107a.103.103 0 01-.078-.006.113.113 0 01-.053-.07l.96-.282a.9.9 0 00-1.11-.602l.281.96zm-.13-.073a25.48 25.48 0 011.069 7.326h1c0-2.59-.373-5.152-1.111-7.613l-.958.287zm1.069 7.326c0 2.384-.33 4.744-.978 7.015l.962.275a26.559 26.559 0 001.016-7.29h-1zm-.978 7.015a25.462 25.462 0 01-2.752 6.273l.853.521a26.466 26.466 0 002.86-6.52l-.96-.274zm-2.752 6.273a25.867 25.867 0 01-9.761 9.256l.476.88a26.868 26.868 0 0010.138-9.614l-.853-.522zm-9.76 9.255a.11.11 0 01.05-.012v1a.898.898 0 00.424-.107l-.474-.88zm11.649-32.464a.11.11 0 01.1.068l-.926.379a.891.891 0 00.826.553v-1zm-.364.257h.5v-.015a.477.477 0 00-.006-.067.503.503 0 00-.495-.419v1a.498.498 0 01-.497-.464l-.001-.019v-.016h.5zm.462-.19c.012.03.01.06.001.08l-.925-.378a.892.892 0 00-.002.676l.926-.378zm-.001.086a.113.113 0 01-.06.059l-.373-.928a.887.887 0 00-.488.479l.921.39zm-.044.052a.135.135 0 01-.053.013v-1c-.11 0-.231.02-.352.073l.405.914zm-.053.013a.108.108 0 01-.099-.068l.924-.382a.892.892 0 00-.825-.55v1zm.028.112l.001.001-.001-.001-.002-.002-.005-.004a.497.497 0 01-.092-.118.857.857 0 01.023-.528c.267-.196.598-.182.413.282-.186.465.146.479.413.282.07-.156.064-.43.022-.527a.87.87 0 00-.06-.085l-.022-.024-.01-.01-.004-.003-.002-.002-.001-.001h-.001l-.002-.002-.67.742zm-.126-.18a.111.111 0 010-.086l.922.39a.885.885 0 00.004-.683l-.926.378zm0-.086a.117.117 0 01.062-.06l.37.93a.88.88 0 00.49-.481l-.921-.389zm.056-.056a.108.108 0 01.042-.008v1a.893.893 0 00.34-.068l-.382-.924zm-1.078-2.362c.036 0 .073.02.091.055l-.878.478c.158.29.46.467.787.467v-1zm.092.056c-4.55-8.423-13.352-13.656-22.964-13.655v1c9.247 0 17.709 5.032 22.084 13.13l.88-.475zM43.123 16.791a26.19 26.19 0 00-16.575 5.915l.634.773a25.19 25.19 0 0115.941-5.688v-1zm-16.258 6.302h-.5 1-.5zm-.315-.388a.103.103 0 01.075-.026.107.107 0 01.069.041l-.768.64c.31.372.88.425 1.253.123l-.629-.778zm.144.015a.11.11 0 01.026.072h-1c0 .21.075.411.206.57l.768-.642zm.026.072a.112.112 0 01-.04.085l-.635-.773a.888.888 0 00-.325.688h1zm-.04.085a25.76 25.76 0 017.554-4.308l-.342-.94a26.763 26.763 0 00-7.847 4.475l.635.773zm7.554-4.308a25.904 25.904 0 018.89-1.56v-1c-3.172 0-6.278.545-9.232 1.62l.342.94zm8.89-1.56c2.414 0 4.805.33 7.104.982l.273-.962a27.05 27.05 0 00-7.378-1.02v1zm7.104.982a25.82 25.82 0 016.347 2.767l.52-.855A26.819 26.819 0 0050.5 17.03l-.273.962zm6.347 2.767a25.842 25.842 0 019.326 9.793l.88-.475a26.84 26.84 0 00-9.687-10.173l-.519.855zm9.326 9.793a.11.11 0 01-.009-.083l.958.288a.888.888 0 00-.069-.68l-.88.475zm-.009-.083c.01-.03.03-.054.053-.066l.47.883a.888.888 0 00.435-.529l-.958-.288zm.053-.066a.104.104 0 01.05-.012v1a.896.896 0 00.42-.105l-.47-.883zM24.678 24.44c.029 0 .055.012.073.029l-.699.715c.167.163.39.256.626.256v-1zm.075.03a.11.11 0 01.001.156l-.71-.704a.89.89 0 00.007 1.26l.702-.712zm0 .157a.108.108 0 01-.074.035.108.108 0 01-.075-.034l.702-.713a.904.904 0 00-1.26.006l.707.706zm-.147.002a.118.118 0 01-.034-.083h1a.882.882 0 00-.268-.632l-.698.715zm-.034-.076c0-.032.013-.062.032-.08l.71.703a.886.886 0 00.258-.636l-1 .013zm.035-.084a.104.104 0 01.071-.03v1c.24 0 .466-.094.633-.26l-.704-.71z" mask="url(#ama)"/><path d="M57.483 69.086a.648.648 0 00.877.237v-.001a30.717 30.717 0 0011.164-10.943 30.19 30.19 0 003.141-7.323 30.315 30.315 0 001.114-8.161.643.643 0 00-1.287 0c0 10.418-5.66 20.12-14.77 25.315h-.002a.635.635 0 00-.236.876zM42.26 13.094a.392.392 0 01-.376.406l-.043-1.031a30.672 30.672 0 00-11.48 2.73 30.868 30.868 0 00-4.992 2.868 30.662 30.662 0 00-7.913 8.172 30.37 30.37 0 00-2.696 5.08 30.108 30.108 0 00-2.292 11.576.642.642 0 001.286 0c0-15.698 12.358-28.5 28.14-29.145a.642.642 0 00.616-.665m-.25.009l.25-.01m-.25.01a.39.39 0 00-.409-.375l.66.366m-.25.009l.25-.01"/></symbol><symbol viewBox="0 0 79 79" id="fig-4" xmlns="http://www.w3.org/2000/svg"><path d="M65.001 59.248h-2.789V31.817h1.183c.357 0 .646-.29.646-.647v-4.535a.647.647 0 00-.646-.647h-1.183v-3.545h1.183a.647.647 0 000-1.294H41.719V19.18h1.016c.357 0 .647-.29.647-.647V14a.647.647 0 00-.647-.647H16.39a.647.647 0 00-.646.647v4.534c0 .357.29.647.646.647h.954V31.57l.001.003c-.934.912-1.512 2.146-1.512 3.506 0 .598.112 1.184.334 1.745a5.669 5.669 0 00-1.254 3.532c0 .735.146 1.452.432 2.138a6.566 6.566 0 00-1.436 4.072c0 2.439 1.375 4.579 3.435 5.794v6.889h-2.789a.647.647 0 00-.646.646v4.55c0 .358.29.648.646.648h50.446c.358 0 .647-.29.647-.647v-4.55a.647.647 0 00-.647-.648zm-4.082 0h-3.807v-7.51a5.594 5.594 0 00-5.587-5.588 5.594 5.594 0 00-5.588 5.587v7.51h-4.218v-27.43h19.2v27.43zm-5.1 0H47.23v-7.51a4.299 4.299 0 014.295-4.295 4.299 4.299 0 014.294 4.294v7.51zm6.929-28.725h-21.03v-3.241h21.03v3.241zm-10.782-4.535v-3.545h3.83v3.545h-3.83zm-1.294 0h-3.83v-3.545h3.83v3.545zm10.247 0h-3.83v-3.545h3.83v3.545zm-15.37-3.545v3.545h-3.83v-3.545h3.83zm-28.512-7.797h25.051v3.24h-25.05v-3.24zm23.388 4.534v40.068H21.938l-.02-5.859c3.737-.315 6.677-3.254 6.677-6.824a6.505 6.505 0 00-1.436-4.072 5.506 5.506 0 00.431-2.138 5.668 5.668 0 00-1.253-3.532 4.72 4.72 0 00.327-2.002c-.144-2.7-2.521-4.815-5.412-4.815a5.67 5.67 0 00-2.614.632V19.18h21.787zM15.202 46.565c0-1.288.491-2.544 1.383-3.538a.646.646 0 00.096-.724 4.273 4.273 0 01-.474-1.948c0-1.088.424-2.148 1.192-2.984a.647.647 0 00.103-.727 3.483 3.483 0 01-.376-1.566c0-2.084 1.85-3.779 4.126-3.779 2.203 0 4.013 1.577 4.12 3.59a3.48 3.48 0 01-.371 1.756.645.645 0 00.103.726c.77.836 1.193 1.895 1.193 2.984 0 .673-.16 1.328-.474 1.948a.647.647 0 00.096.724c.133.15.26.306.377.468a5.218 5.218 0 011.006 3.07c0 2.861-2.363 5.223-5.389 5.527l-.01-2.864 2.127-2.127a.646.646 0 10-.915-.914l-1.218 1.218-.008-2.365a.647.647 0 00-.647-.644h-.003a.647.647 0 00-.644.649l.008 2.275-1.133-1.133a.647.647 0 10-.915.914l2.054 2.054.01 2.941c-3.04-.291-5.417-2.66-5.417-5.531zm3.436 6.399a7.709 7.709 0 001.986.427l.02 5.857h-2.006v-6.284zm45.717 10.834H15.202v-3.257h49.153v3.257z"/><path d="M53.519 41.169h4.23a.666.666 0 00.667-.666v-3.228a2.785 2.785 0 00-2.782-2.782 2.785 2.785 0 00-2.782 2.782v3.228c0 .368.299.666.667.666zm.666-3.894c0-.8.65-1.45 1.45-1.45.798 0 1.449.65 1.449 1.45v2.562h-2.9v-2.562zm-9.078 3.894h3.808c.331 0 .6-.298.6-.666v-3.228c0-1.534-1.124-2.782-2.504-2.782s-2.504 1.248-2.504 2.782v3.228c0 .368.269.666.6.666zm.6-3.894c0-.8.585-1.45 1.304-1.45.72 0 1.304.65 1.304 1.45v2.562h-2.609v-2.562zM32.31 53.408h3.809c.331 0 .6-.273.6-.61v-2.96c0-1.405-1.124-2.55-2.504-2.55s-2.504 1.145-2.504 2.55v2.96c0 .337.269.61.6.61zm.6-3.57c0-.732.585-1.328 1.305-1.328s1.305.596 1.305 1.329v2.348h-2.61V49.84zm-.6-8.669h3.809c.331 0 .6-.298.6-.666v-3.228c0-1.534-1.124-2.782-2.504-2.782s-2.504 1.248-2.504 2.782v3.228c0 .368.269.666.6.666zm.6-3.894c0-.8.585-1.45 1.305-1.45s1.305.65 1.305 1.45v2.562h-2.61v-2.562zm-.6-8.902h3.809c.331 0 .6-.298.6-.666V24.48c0-1.535-1.124-2.783-2.504-2.783s-2.504 1.248-2.504 2.783v3.227c0 .368.269.666.6.666zm.6-3.893c0-.8.585-1.45 1.305-1.45s1.305.65 1.305 1.45v2.561h-2.61V24.48zm-10.057 3.893h3.808c.332 0 .6-.298.6-.666V24.48c0-1.535-1.123-2.783-2.503-2.783-1.381 0-2.504 1.248-2.504 2.783v3.227c0 .368.268.666.6.666zm.6-3.893c0-.8.585-1.45 1.305-1.45.719 0 1.304.65 1.304 1.45v2.561h-2.61V24.48z"/></symbol><symbol viewBox="0 0 79 79" id="fig-5" xmlns="http://www.w3.org/2000/svg"><path d="M42.004 32.824H54.52a5.012 5.012 0 005.007-5.007 5.014 5.014 0 00-4.521-4.984 4.165 4.165 0 00-3.224-2.483 5.815 5.815 0 00-5.607-4.216 5.85 5.85 0 00-5.811 5.245 5.816 5.816 0 00-4.203 5.603 5.848 5.848 0 005.842 5.842zm-.694-9.95c.402-.068.694-.49.694-.899 0-2.3 1.872-4.172 4.172-4.172a4.154 4.154 0 014.11 3.482.835.835 0 00.933.691 2.495 2.495 0 012.38 1.886.834.834 0 00.955.617 3.342 3.342 0 013.305 3.338 3.341 3.341 0 01-3.338 3.338H42.004a4.177 4.177 0 01-4.173-4.173 4.153 4.153 0 013.48-4.109zm-18.5 12.255h.835c0-1.315 1.123-2.385 2.503-2.385v-1.59c-1.727 0-3.212 1.006-3.845 2.435-1.6.234-2.83 1.542-2.83 3.13h1.668c0-.877.749-1.59 1.67-1.59z"/><path d="M47.178 26.704h1.78c0-2.147-1.997-3.894-4.45-3.894v1.558c1.472 0 2.67 1.048 2.67 2.336zm-16.023-8.901h-1.67v1.669h1.67v-1.67zm3.338 0h-1.669v1.669h1.67v-1.67zM24.48 12.796h-1.67v1.669h1.67v-1.67zm3.337 0h-1.67v1.669h1.67v-1.67zm3.338 0h-1.67v1.669h1.67v-1.67zM16.134 21.14h-1.67v1.67h1.67v-1.67zm40.891-1.668a.822.822 0 00.583-.243l2.477-2.482-1.168-1.17-1.892 1.898-1.893-1.898-1.167 1.17 2.476 2.482a.822.822 0 00.584.243zm5.205 5.321a.94.94 0 00.636.242.94.94 0 00.637-.242l2.701-2.482-1.273-1.17-2.065 1.897-2.064-1.897-1.274 1.17 2.702 2.482zm-47.765-8.659h-1.67v1.669h1.67v-1.67zm3.338 0h-1.67v1.669h1.67v-1.67zm3.338 0h-1.669v1.669h1.67v-1.67zm45.063 26.704v-1.669c-1.88 0-3.451-.247-4.947-.778-1.293-.459-2.63-.686-3.897-.858-.55-1.379-1.536-2.537-2.839-2.537-1.285 0-2.26 1.126-2.816 2.48-1.889-.16-3.904-.051-6.315.367-2.034.351-4.057 1.083-6.013 2.174-.86.48-1.69 1.017-2.491 1.538-1.049.68-2.038 1.322-3.104 1.853-1.435.716-2.796 1.081-4.045 1.094-1.199.025-2.371-.442-3.588-.918v-2.756a4.21 4.21 0 00.834-.826 4.168 4.168 0 003.337 1.67 4.177 4.177 0 004.173-4.172 4.11 4.11 0 00-1.337-3.048 4.11 4.11 0 00.503-1.959c0-2.015-1.67-3.701-3.338-4.09v-.083a4.16 4.16 0 00-2.532-3.825 4.178 4.178 0 00-4.145-3.685 4.178 4.178 0 00-4.144 3.685 4.16 4.16 0 00-2.532 3.825v.084c-1.669.387-3.338 2.074-3.338 4.089 0 .682.175 1.355.502 1.96a4.116 4.116 0 00-1.336 3.047 4.17 4.17 0 007.51 2.501c.237.315.52.59.835.826v1.33c-1.323-.25-2.623-.022-3.573.262-.698.21-1.356.531-1.992.843-.962.47-1.87.914-2.78.914v1.67c1.297 0 2.423-.552 3.513-1.085.603-.294 1.172-.573 1.737-.743.834-.25 1.998-.451 3.095-.15v4.78c-.063.008-.123.01-.187.019-1.083.146-2.17.386-3.22.618-1.705.377-3.316.733-4.938.733v1.669c1.804 0 3.58-.393 5.298-.772 1.064-.236 2.069-.458 3.084-.594 3.428-.466 6.408-.03 9.11 1.329 1.65.83 3.245 1.964 4.787 3.06 1.937 1.378 3.924 2.79 6.152 3.724-3.824 1.39-7.963 1.997-11.99 2.58l-.543.078c-4.778.692-9.528 1.324-15.064 1.443h-.834v1.67h.852c5.648-.123 10.454-.762 15.286-1.462l.543-.078c1.611-.233 3.24-.474 4.864-.76 1.662 1.366 3.97 2.139 6.377 2.139.502 0 1.009-.033 1.513-.101 2.118-.285 4.113-1.19 6.043-2.066 2.77-1.256 5.386-2.443 8.22-1.851 1.46.305 2.812 1.143 4.12 1.953l.297.185c.439.271.787.464 1.13.625 1.218.572 2.433.608 3.329.582h.834V63.7h-.862c-1.107 0-1.882-.09-2.593-.423a9.643 9.643 0 01-.96-.534l-.296-.182c-1.43-.887-2.91-1.805-4.659-2.17-3.37-.704-6.358.653-9.25 1.965-1.904.864-3.702 1.68-5.576 1.932-1.86.252-3.772-.078-5.306-.842 2.467-.533 4.898-1.24 7.214-2.302.944-.434 1.84-.946 2.708-1.442.915-.523 1.78-1.017 2.704-1.432 2.183-.978 4.183-1.6 6.113-1.899 1.864-.29 3.642-.257 5.285.1.627.136 1.125.373 1.651.625.85.405 1.726.825 2.993.762h.834V56.19h-.873c-.885 0-1.48-.24-2.232-.599-.563-.269-1.2-.572-2.017-.75-1.843-.4-3.827-.44-5.896-.118-2.078.324-4.217.986-6.537 2.025-1 .449-1.941.986-2.852 1.507-.762.435-1.491.84-2.245 1.206-2.142-.568-4.038-1.702-5.939-3.01l.047.001c4.542 0 9.551-1.419 13.285-3.878l.126-.083c4.711-3.105 9.584-6.315 15.133-6.315v-1.669c-3.914 0-7.52 1.469-10.848 3.34v-2.586c1.58-.297 2.503-1.464 2.503-3.258 0-.23-.018-.474-.048-.72.967.15 1.955.35 2.889.681 1.679.596 3.428.874 5.504.874zm-45.897-4.172a.835.835 0 00-.835.834 2.507 2.507 0 01-2.504 2.504 2.507 2.507 0 01-2.503-2.504c0-.881.46-1.682 1.23-2.141a.835.835 0 00.21-1.257 2.472 2.472 0 01-.606-1.609c0-1.38 1.124-2.504 2.452-2.505.029.004.112.012.14.013a.834.834 0 00.84-1.046 2.502 2.502 0 01-.094-.635c0-1.138.776-2.13 1.887-2.415a.834.834 0 00.628-.835c-.002-.05-.004-.093-.011-.088a2.507 2.507 0 012.504-2.503c1.38 0 2.503 1.123 2.506 2.446a2.22 2.22 0 00-.015.145.835.835 0 00.628.835 2.497 2.497 0 011.887 2.415c0 .189-.03.391-.094.634a.833.833 0 00.929 1.035 2.507 2.507 0 012.504 2.504c0 .74-.33 1.284-.605 1.609a.837.837 0 00.208 1.257 2.478 2.478 0 011.231 2.141 2.507 2.507 0 01-2.503 2.504 2.507 2.507 0 01-2.504-2.504.835.835 0 00-1.669 0 2.507 2.507 0 01-2.503 2.504A2.507 2.507 0 0121.14 39.5a.835.835 0 00-.834-.834zm2.503 11.842v-6.926c.27.056.548.09.835.09.286 0 .564-.034.834-.09v6.923a18.852 18.852 0 00-1.669.003zm24.2-.994c-1.153 0-1.668-.515-1.668-1.669 0-1.611.98-3.338 1.669-3.338.689 0 1.669 1.727 1.669 3.338 0 1.154-.515 1.67-1.67 1.67zm3.142 1.583l-.126.084c-.684.45-1.417.858-2.18 1.23v-1.31c1.58-.297 2.504-1.463 2.504-3.257 0-2.09-1.27-5.007-3.339-5.007-2.067 0-3.338 2.917-3.338 5.007 0 1.794.923 2.96 2.504 3.257v2.042c-3.62 1.416-7.734 1.975-11.222 1.436-1.255-.878-2.549-1.736-3.915-2.422a15.67 15.67 0 00-4.891-1.509v-3.444c1.106.382 2.255.641 3.535.641h.07c1.503 0 3.108-.277 4.772-1.106 1.15-.575 2.226-1.106 3.268-1.783.778-.506 1.583-1.028 2.394-1.48 1.791-1 3.637-1.669 5.486-1.988 2.135-.369 3.922-.48 5.58-.369a5.95 5.95 0 00-.07.885c0 1.793.922 2.959 2.503 3.257v3.566a122.212 122.212 0 00-3.535 2.27zm4.37-7.424c-1.155 0-1.67-.515-1.67-1.67 0-1.61.98-3.337 1.67-3.337.689 0 1.668 1.726 1.668 3.338 0 1.154-.515 1.669-1.669 1.669z"/><path d="M16.134 60.084h-1.67v1.67h1.67v-1.67zm3.338 0h-1.67v1.67h1.67v-1.67z"/><path d="M20.028 60.084H18.36v1.67h1.67v-1.67z"/></symbol><symbol viewBox="0 0 74 74" id="fig-6" xmlns="http://www.w3.org/2000/svg"><path d="M64.099 60.36H9.9m41.117-33.639H11.77v33.64h39.247V26.72z"/><path d="M51.017 22.983H11.77a1.869 1.869 0 000 3.738h39.246a1.869 1.869 0 000-3.738zm0 7.476H11.77v14.95h39.247V30.46zM15.508 49.148h14.016m-14.016 3.737h14.016m-14.016 2.804h14.016m-12.147-6.541V60.36m10.279-11.212V60.36m5.606-11.212H47.28m-14.018 3.737H47.28m-14.018 2.804H47.28m-12.149-6.541V60.36M45.41 49.148V60.36"/><path clip-rule="evenodd" d="M17.377 19.246H45.41a1.87 1.87 0 011.869 1.869v1.869H15.508v-1.87c0-1.032.837-1.868 1.869-1.868z"/><path d="M44.476 34.197L47.279 37m-8.41-2.803l7.475 7.475m-22.426-7.475L26.721 37m-8.41-2.803l7.476 7.475"/><path clip-rule="evenodd" d="M60.361 47.279c1.032 0 1.869.836 1.869 1.869V60.36h-3.738V49.148a1.87 1.87 0 011.87-1.87z"/><path d="M60.36 47.279V21.115m0 0a3.738 3.738 0 100-7.476 3.738 3.738 0 000 7.476z"/></symbol><symbol viewBox="0 0 65 64" id="fig-7" xmlns="http://www.w3.org/2000/svg"><path fill-rule="evenodd" clip-rule="evenodd" d="M50.96 6.823c-.262.105-.315.312-.315 1.234v.879l-2.003.021c-1.85.02-2.015.032-2.157.16-.143.13-.154.215-.154 1.225v1.086h-1.198c-1.036 0-1.219.017-1.348.128-.115.1-.35.935-1.065 3.783-.504 2.01-1.25 4.971-1.657 6.58-.407 1.608-.838 3.319-.957 3.801-.12.483-.251.984-.292 1.115l-.075.238h-1.305v-1.385c0-1.359-.003-1.39-.176-1.59l-.177-.206-4.631-.021c-2.547-.012-4.771-.002-4.943.022-.49.07-.53.209-.53 1.823v1.357H24.76V24.77c0-2.206-.006-2.31-.146-2.45-.136-.135-.244-.146-1.499-.146h-1.352v-.9c0-1.332.277-1.22-3.013-1.22-2.442 0-2.688.012-2.823.128-.082.07-.7.82-1.376 1.664-2.05 2.564-3.5 4.366-3.819 4.75l-.303.364v3.956c0 3.93 0 3.957.154 4.096.145.131.318.14 3.053.156l2.898.017.044.202c.069.315.273.757.467 1.012.098.128.158.252.133.277-.024.024-2.002.045-4.396.046-3.944.001-4.365.012-4.486.122-.181.163-.174.57.012.756.146.145.244.146 20.62.146h20.474v2.12c0 1.978-.009 2.12-.13 2.12-.297 0-2.23.547-4.001 1.132-2.593.856-4.128 1.319-5.96 1.797-1.347.351-3.352.698-4.899.847-3.065.296-5.564-.101-9.877-1.569-1.063-.36-3.001-1.023-4.308-1.47-1.307-.447-2.92-.96-3.583-1.141-2.643-.72-5.103-1.1-7.366-1.14-.965-.017-1.116.055-1.116.53 0 .432.12.47 1.755.568a40.19 40.19 0 011.743.13l.316.045-1.907 1.912c-1.7 1.704-1.907 1.937-1.907 2.146a.51.51 0 00.53.527c.213 0 .456-.22 2.431-2.193l2.194-2.193 1.024.211c1.232.254 1.645.362 1.645.43 0 .028-1.76 1.812-3.912 3.965-2.893 2.894-3.912 3.957-3.912 4.081 0 .245.13.448.337.527.223.085.462-.017 1.123-.48 1.972-1.378 4.556-2.017 7.292-1.802 1.941.153 3.333.413 6.969 1.303 5.87 1.437 8.954 1.822 12.504 1.562 3.636-.267 6.281-.93 10.618-2.66 1.075-.43 2.054-.8 2.176-.825l.221-.044v7.815l.165.155c.154.145.255.157 1.568.177 1.328.02 1.413.013 1.608-.132l.205-.153.02-3.994.018-3.993.164-.038c.09-.02 1.102-.151 2.248-.29 1.877-.228 2.096-.27 2.212-.41.256-.316.117-.745-.273-.843-.095-.023-.845.042-1.667.146-.823.104-1.54.19-1.596.19-.055 0 .507-.608 1.25-1.352l1.35-1.35.376.043c.322.038.4.022.533-.11a.593.593 0 00.155-.362c0-.42.092-.384-4.406-1.746l-.347-.106v-4.083h4.45l.151-.192c.177-.225.194-.453.048-.653-.098-.134-.234-.144-2.358-.178l-2.255-.037-.036-5.471-.037-5.471-.172-.14c-.127-.102-.289-.14-.604-.14h-.43l-.001-9.083c0-4.996-.021-9.16-.046-9.251-.025-.092-.138-.216-.251-.274-.234-.121-.262-.123-.483-.033zm-.315 10.928v7.713h-.429c-.323 0-.476.038-.62.152l-.193.15-.019 5.46-.019 5.46-2.102.015c-1.91.013-2.266-.015-2.03-.16.135-.084.469-.72.554-1.056l.085-.334h.587c.475 0 .617-.027.741-.14l.155-.139V10.04h3.29v7.713zm-4.346-5.205c.02.052.027.565.016 1.14l-.02 1.044-.768-.602c-1.18-.925-1.168-.91-1.086-1.226a8.63 8.63 0 01.1-.36c.044-.132 1.707-.129 1.758.004zm-1.004 2.756c.286.222.52.422.522.446.003.053-2.355 1.316-2.39 1.28-.014-.013.123-.607.306-1.318.182-.711.331-1.31.331-1.329 0-.02.16.09.356.242l.875.68zm1.036 3.327c0 1.025-.025 1.863-.055 1.862-.03 0-.174-.107-.32-.237-.146-.13-.744-.631-1.33-1.114-.807-.666-1.043-.897-.977-.96.047-.046.547-.323 1.11-.616a40.834 40.834 0 001.243-.666c.12-.073.244-.133.274-.133.03 0 .055.838.055 1.864zm-1.554 2.032c.533.443.968.825.968.849-.002.05-3.803 1.564-3.838 1.529-.02-.02.865-3.595.954-3.85.023-.066.181.026.49.285l1.426 1.188zm-24.315.48l.271.01-.007 3.333c-.007 3.282-.005 3.335.145 3.485.209.208.582.2.757-.015.124-.154.134-.34.134-2.463v-2.297l.97.02.968.02v10.82l-.487.022-.488.021-.114-.387c-.262-.891-1.014-1.684-1.937-2.041-.594-.23-1.497-.223-2.092.016-.439.176-.442.176-3.784.196l-3.345.02v-4.48l1.71-2.13c.942-1.171 2.07-2.574 2.51-3.117l.798-.986 1.128-.037a45.97 45.97 0 012.863-.01zm-3.242 1.375c-.065.017-.229.17-.363.338l-.304.38-.88 1.1c-.451.565-.993 1.24-1.205 1.499-1.366 1.677-1.413 1.766-1.12 2.127l.139.173 2.62.021c1.44.012 2.695.003 2.787-.02a.811.811 0 00.311-.186c.138-.138.145-.253.145-2.633v-2.49l-.18-.179c-.17-.17-.22-.179-1.005-.17-.455.004-.88.022-.945.04zm29.11 2.071v2.047l-.612-.384c-2.346-1.468-3.403-2.143-3.406-2.176-.001-.021.252-.135.564-.253a152.79 152.79 0 001.883-.744c.724-.29 1.374-.53 1.444-.533.119-.004.128.14.128 2.043zm-28.077.731v1.755H16.57c-.925 0-1.682-.01-1.682-.024 0-.012.264-.35.587-.749.323-.4.94-1.177 1.371-1.73l.784-1.002.311-.002.31-.002v1.754zm25.112.71c.842.537 1.547.99 1.566 1.01.02.019-.888.035-2.017.035h-2.051l.215-.86.289-1.138.074-.28.196.13c.108.071.886.568 1.728 1.104zm-6.028-.015v1.06h-8.263v-2.12h8.263v1.06zm14.624 14.763c0 7.818-.02 14.266-.045 14.329-.035.092-.18.114-.767.114h-.723V26.56h1.536l-.001 14.215zm-5.682-12.608c.031 0 .048.338.036.75l-.02.75H24.796l-.02-.749-.022-.749 4.847-.019c3.557-.013 16.07-.001 16.677.017zm.035 4.223l-.02 1.663h-.206c-.187 0-.22-.041-.352-.433-.378-1.117-1.296-1.882-2.514-2.094-1.456-.254-3.025.739-3.444 2.18l-.113.39-.511-.021-.512-.022-.143-.426c-.188-.555-.403-.887-.841-1.296-1.683-1.568-4.399-.837-5.113 1.375l-.124.384h-7.66v-3.363h21.573l-.02 1.663zm-25.807.39c.522.26.835.606 1.038 1.148.295.79.126 1.509-.502 2.134-.462.461-.866.622-1.517.607-.71-.017-1.414-.473-1.742-1.13-.247-.497-.266-1.288-.042-1.764.508-1.08 1.72-1.518 2.765-.996zm15.775-.07c.8.299 1.298 1.021 1.304 1.892.012 1.87-2.28 2.783-3.543 1.413-.554-.601-.713-1.36-.437-2.089.418-1.108 1.57-1.631 2.676-1.217zm7.226-.006c1.088.407 1.622 1.689 1.148 2.756-.598 1.345-2.409 1.625-3.398.526-.813-.904-.689-2.267.272-2.99.615-.462 1.266-.558 1.978-.292zm-26.595.308c-.124.29-.34.84-.372.95-.036.119-.222.128-2.564.128h-2.524v-1.17h2.75c2.171 0 2.741.02 2.71.092zm15.507 2.21c.05.018.091.098.091.178 0 .08.132.398.293.71.16.31.292.575.292.588 0 .013-2.484.023-5.52.022-3.037-.001-5.521-.016-5.521-.034 0-.017.098-.197.218-.401.12-.204.272-.534.337-.734l.12-.362 2.313-.02c2.844-.023 7.253.008 7.377.053zm7.394.394c.086.236.238.55.339.697.1.148.182.3.182.339 0 .088-2.316.094-2.37.006-.022-.034.023-.12.1-.189.118-.107.407-.72.544-1.155.033-.105.128-.127.544-.127h.504l.157.429zm16.608 2.59c-.536.269-.357 1.065.24 1.072.27.003.564-.292.564-.566 0-.379-.47-.674-.804-.506zm-43.085.106c-.25.286-.217.644.083.875.193.147.51.109.705-.086.22-.22.229-.469.028-.724-.185-.235-.635-.27-.816-.065zm25.395.064c-.201.256-.192.506.028.725.361.362.946.142.946-.356 0-.358-.197-.561-.547-.561-.21 0-.311.045-.427.192zm4.88-.064c-.174.201-.206.362-.122.602.14.4.6.494.907.187.369-.369.132-.917-.397-.917-.175 0-.32.048-.389.128zm3.98.018c-.222.205-.215.541.015.771.472.472 1.156-.037.857-.636-.104-.208-.166-.248-.416-.266-.217-.016-.336.018-.457.13zm-30.204.316c-.347.37-.108.956.39.956.335 0 .548-.225.548-.58 0-.473-.615-.72-.938-.377zm2.945.01c-.098.099-.18.259-.18.356 0 .205.238.534.432.595.346.11.796-.308.708-.657-.117-.467-.63-.624-.96-.294zm33.563 0c-.195.194-.234.512-.086.704.326.425.907.295 1.039-.232.035-.143 0-.247-.147-.42-.244-.29-.549-.31-.806-.052zm-43.36.22c-.362.36-.143.945.355.945.359 0 .562-.197.562-.547 0-.51-.562-.755-.918-.399zm13.08.008c-.158.157-.182.232-.146.456.099.606.858.683 1.076.11.215-.564-.5-.998-.93-.566zm3.574-.099c-.496.24-.154 1.186.381 1.051.473-.118.633-.629.3-.96-.19-.192-.41-.22-.68-.09zm3.673.09c-.424.424.018 1.134.575.922.453-.172.527-.741.127-.977-.29-.172-.492-.156-.702.055zm4.387 0c-.247.247-.239.577.02.817.363.336.897.087.897-.417 0-.511-.561-.756-.917-.4zm6.721-.107c-.085.034-.19.165-.235.29-.215.617.492 1.05.937.573.423-.454-.105-1.104-.702-.863zm3.821.08c-.404.317-.165.974.356.974.51 0 .736-.58.369-.947-.22-.22-.47-.229-.725-.028zm-12.443.363a.672.672 0 00-.136.412c0 .497.585.717.947.355.219-.219.229-.469.028-.724-.195-.247-.634-.27-.84-.043zm-17.87.262c-.2.256-.19.505.028.725.375.374.947.152.947-.37 0-.344-.203-.547-.547-.547-.211 0-.312.045-.428.192zm13.444.533c-.118.117-.214.285-.214.371 0 .221.385.585.62.585.264 0 .55-.303.55-.585s-.286-.585-.55-.585c-.115 0-.279.086-.406.214zm8.597.09c-.373.204-.441.614-.15.906.244.244.513.23.785-.042.26-.26.242-.517-.057-.784-.202-.18-.355-.202-.578-.08zm3.13-.012c-.346.143-.419.634-.135.918.098.099.264.18.368.18.436 0 .734-.688.42-.97-.169-.154-.455-.21-.652-.128zm-22.205.371c-.418.33-.102 1.092.411.99.34-.069.493-.243.493-.562 0-.31-.255-.579-.548-.579-.09 0-.25.068-.356.151zm7.24 0a.562.562 0 000 .867c.255.201.505.191.724-.028.36-.359.124-.99-.369-.99-.09 0-.25.068-.356.151zm17.475.074c-.314.246-.257.723.108.912.568.294 1.072-.43.617-.884-.22-.22-.47-.23-.725-.028zm3.93.02a.495.495 0 00-.199.413c0 .287.296.585.58.585.257 0 .542-.308.542-.585 0-.278-.285-.585-.541-.585-.1 0-.272.077-.381.171zm6.972.047a.561.561 0 00-.007.872c.255.201.505.192.725-.028.498-.498-.165-1.279-.718-.844zm2.267.092c-.159.12-.28.46-.223.62.21.593 1.12.468 1.12-.153 0-.414-.573-.713-.897-.467zm-11.145.13a.597.597 0 00-.353.653.548.548 0 001.027.144c.146-.282.135-.395-.057-.606-.196-.216-.399-.279-.617-.192zm-24.36.24c-.2.213-.202.486-.007.735.118.15.216.192.44.192.246 0 .31-.034.435-.237.093-.15.132-.305.105-.42-.096-.43-.672-.59-.972-.27zm10.76.122c-.344.142-.427.676-.147.939.213.2.487.203.735.007.492-.386-.006-1.186-.588-.946zm3.898.08c-.313.247-.257.723.108.912.402.208.797-.053.797-.526 0-.267-.277-.538-.549-.538-.09 0-.25.068-.356.152zm-2.085.195c-.399.331-.16.993.357.993.287 0 .585-.295.585-.58 0-.428-.604-.693-.942-.413zm-5.602.033c-.21.119-.254.207-.255.51-.002.504.563.746.916.393.245-.245.239-.577-.014-.811-.209-.194-.416-.223-.647-.092zm-4.703.354c-.201.188-.22.652-.032.82.358.319.97.073.97-.39 0-.476-.595-.749-.938-.43zm16.233.292c-.208.194-.215.6-.014.802.09.09.244.146.403.146.33 0 .548-.213.548-.535 0-.483-.585-.74-.937-.413zm-9.263.275c-.413.085-.559.668-.242.963.456.424 1.163-.169.865-.726-.084-.155-.412-.28-.623-.237zm11.955.037a.555.555 0 00-.285.701c.142.406.6.504.91.194.223-.223.229-.489.015-.724-.212-.233-.411-.286-.64-.17zm-16.365.493c-.208.193-.215.6-.014.801.09.09.244.146.402.146.33 0 .548-.212.548-.535 0-.482-.585-.74-.936-.412zm11.612-.003a.582.582 0 00-.146.402c0 .33.212.548.535.548.496 0 .748-.603.392-.937-.215-.203-.585-.209-.781-.013zm-19.381.114c.888.266 1.713.549 1.777.61.03.027-.85.954-1.955 2.057l-2.01 2.007-.816.052c-.822.053-1.984.252-2.659.457a3.298 3.298 0 01-.438.112c-.04 0 1.16-1.233 2.669-2.74 1.508-1.508 2.756-2.742 2.774-2.742.018 0 .314.084.658.187zm36.275.26a34.34 34.34 0 001.148.338c.09.02.165.057.165.083 0 .026-.56.606-1.243 1.288l-1.243 1.242v-1.626c0-1.279.02-1.626.094-1.626.052 0 .537.136 1.079.301zm-7.864 2.914l-3.144 3.142-1.12.3c-1.171.315-3.097.728-3.154.677-.06-.052 5.804-5.881 5.992-5.957.332-.133 3.097-1 3.657-1.147 1.073-.281 1.177-.42-2.23 2.985zm-17.917-2.67a.559.559 0 00.297.96c.54.103.864-.645.427-.988-.255-.201-.505-.191-.724.028zm4.14.232c-.084.106-.152.266-.152.356 0 .272.27.548.537.548.474 0 .735-.394.527-.796-.189-.365-.666-.421-.913-.108zm2.196-.064a.543.543 0 00.357.968c.517 0 .764-.558.406-.917a.565.565 0 00-.763-.051zm-11.536 1.155c.112.045-.14.33-1.486 1.676l-1.622 1.623-.378-.064a46.25 46.25 0 00-1.386-.19c-.554-.07-1.013-.157-1.02-.195-.006-.037.792-.88 1.776-1.87l1.788-1.804 1.096.386a84.41 84.41 0 011.232.438zm7.86-.688a.571.571 0 00-.282.284c-.187.453.139.861.615.772.315-.059.44-.208.44-.527 0-.411-.38-.672-.772-.53zm18.365 1.708c0 1.148-.007 1.206-.143 1.206-.177 0-1.42.446-2.631.942-.5.206-.939.374-.974.374-.036 0 .776-.839 1.804-1.864 1.028-1.026 1.885-1.865 1.906-1.865.02 0 .038.543.038 1.207zm-9.616 1.966L37.044 50.6l-.822.049a24.02 24.02 0 01-1.682.025l-.859-.023 2.155-2.157 2.155-2.157 1.775-.451a58.929 58.929 0 002.214-.596 8.01 8.01 0 01.493-.152c.03-.004-1.18 1.224-2.687 2.727zm-13.967-2.118c.603.19 1.11.358 1.126.374.017.017-.633.691-1.445 1.498-1.052 1.045-1.512 1.457-1.602 1.431a69.72 69.72 0 00-1.295-.308c-.643-.15-1.184-.284-1.203-.299-.018-.015.657-.719 1.5-1.564 1.163-1.167 1.567-1.529 1.678-1.506.08.017.639.185 1.241.374zm3.767.913c.543.09 1.1.18 1.237.2l.25.037-1.529 1.53c-.886.886-1.585 1.53-1.663 1.53-.133 0-2.323-.48-2.532-.554-.07-.026.375-.52 1.353-1.501 1.334-1.338 1.477-1.46 1.678-1.435.12.016.663.102 1.206.193zm4.57 1.985l-1.974 1.98-.511-.048c-.668-.063-2.302-.302-2.343-.343-.017-.018.692-.753 1.576-1.635l1.609-1.604.53-.052c.89-.087 2.711-.254 2.904-.266.145-.008-.227.4-1.791 1.968z"/></symbol><symbol viewBox="0 0 65 64" id="fig-8" xmlns="http://www.w3.org/2000/svg"><path fill-rule="evenodd" clip-rule="evenodd" d="M30.139 8.598l-1.272.178c-3.277.454-6.735 1.791-9.585 3.706-2.168 1.457-4.259 3.475-5.768 5.567-2.285 3.17-3.64 6.485-4.248 10.399-.274 1.768-.271 4.885.007 6.68a25.005 25.005 0 001.114 4.46c.417 1.194 1.358 3.22 1.8 3.874.155.23.282.447.282.483 0 .118 1.148 1.715 1.863 2.592.83 1.019 2.357 2.542 3.367 3.357 3.318 2.681 7.902 4.574 12.109 5 1.208.122 3.724.122 4.932 0 4.206-.426 8.753-2.303 12.115-5.001 1.975-1.585 4.32-4.311 5.475-6.363l.457-.812c1.102-1.952 2.073-4.917 2.487-7.59.279-1.795.282-4.912.007-6.68-.736-4.74-2.67-8.838-5.813-12.317-3.564-3.944-8.356-6.513-13.742-7.367-.912-.145-4.906-.263-5.587-.166zm1.68 2.118v1.355l-.704.058c-.88.072-2.368.278-2.999.415-.692.15-.894.4-.623.77.121.166.151.166.931.017a25.952 25.952 0 012.825-.367l.564-.041.026 2.18c.014 1.2.004 2.196-.023 2.212-.026.017-.476.077-.999.134-1.902.207-3.564.714-5.3 1.616-1.055.55-1.316.796-1.156 1.094.177.33.368.305 1.177-.158 1.483-.85 3.584-1.547 5.07-1.684.342-.031.754-.078.916-.103l.296-.046v6.908l-.341.057c-2.88.483-4.976 2.327-5.666 4.985-.218.838-.229 2.402-.023 3.232.646 2.613 2.7 4.514 5.418 5.015l.612.112v6.886l-.568-.058c-1.846-.188-3.29-.582-4.914-1.342-.762-.357-1.02-.44-1.136-.367-.19.12-.244.515-.087.644.293.243 1.723.883 2.712 1.213.987.331 3.001.717 3.743.718h.25v4.464l-.568-.055c-1.118-.107-2.12-.233-2.589-.327-.55-.11-.809-.053-.887.192-.102.324.099.513.656.618.746.14 1.766.271 2.638.34l.75.06v2.707h-.478c-.688 0-2.606-.236-3.61-.446-5.102-1.061-9.742-3.922-13.018-8.024-3.39-4.246-5.2-10.043-4.795-15.35.135-1.767.392-3.285.791-4.675a22.537 22.537 0 0113.473-14.812c2.13-.834 5.088-1.459 7.069-1.493l.568-.01v1.356zm3.725-1.124c1.1.158 3.183.65 3.316.783.13.129-1.24 1.378-1.837 1.676-.395.197-.64.245-1.454.284-.538.027-1.03.089-1.092.138-.144.115-.147.453-.005.595.156.156 1.538.136 2.252-.032.802-.19 1.164-.422 2.25-1.448l.93-.88.478.155c.539.174 3.066 1.41 3.066 1.5 0 .032-.092.1-.204.153-.42.194-1.095.894-1.723 1.786-1.223 1.737-2.513 2.83-4.2 3.557-1.547.666-1.885 1.42-1.903 4.231l-.01 1.687.273.532c.406.793.682.91 2.18.92.65.006 1.268.016 1.374.023.106.008.585.277 1.064.597 1 .669 1.504.877 2.978 1.23.58.14 1.183.328 1.34.42.65.385.549 1.187-.229 1.82-.65.53-1.322.764-2.192.767-1.658.004-2.663.308-3.463 1.05-.764.707-.96 1.192-.953 2.356.006.944.275 2.545.529 3.152.136.326.391.572 1.233 1.188.287.21.49.466.681.861.322.663.599.977 1.077 1.223.444.228 1.122.85 1.3 1.194.16.312.174.844.035 1.458-.055.242-.076.57-.046.728.03.158.061.777.07 1.377.02 1.27.125 1.52.717 1.697.484.145 1.099.012 2.015-.435 1.955-.954 3.517-3.698 3.281-5.762-.07-.617.083-1.905.27-2.268.077-.148.404-.568.728-.932.687-.775.987-1.291 1.18-2.03.297-1.14.138-1.947-.663-3.36-.476-.84-.515-.95-.51-1.464.012-.967.264-1.315 1.04-1.433a5.04 5.04 0 002.845-1.447c.29-.295.542-.522.559-.505.09.094.415 2.41.507 3.616.348 4.55-.911 9.44-3.47 13.476-.798 1.259-.975 1.493-2.086 2.755-1.848 2.098-3.944 3.744-6.5 5.105-.408.217-.777.394-.822.394-.044 0-.355-.268-.69-.596-.404-.393-.818-.693-1.221-.882l-.61-.285-2.314-.07c-2.445-.074-2.552-.06-2.552.333 0 .397.156.429 2.492.5 2.023.062 2.254.085 2.632.268.413.2 1.327.955 1.327 1.095 0 .166-2.519.974-3.998 1.281-1.005.21-2.923.447-3.61.447h-.478l-.01-12.907c-.007-7.1-.011-13.5-.011-14.225l.01-9.512.011-8.194.931.06c.512.034 1.36.123 1.885.199zm9.503 3.754a22.509 22.509 0 015.879 6.029 22.242 22.242 0 012.62 5.341l.26.768-.296.492c-.568.947-1.615 1.633-2.854 1.87-.342.065-.754.187-.917.271-.39.203-.717.714-.847 1.324-.181.848-.075 1.305.612 2.632.616 1.188.622 1.206.618 1.91-.004.614-.044.791-.295 1.292-.16.32-.553.88-.875 1.248-.953 1.085-1.14 1.692-1.143 3.695-.001.621-.055 1.287-.124 1.545-.435 1.62-1.813 3.207-3.2 3.684-.967.334-1.102.23-.996-.765.033-.308.02-.741-.03-.963-.067-.297-.056-.605.044-1.175.15-.86.079-1.453-.233-1.955-.252-.405-.879-.98-1.48-1.358-.436-.274-.568-.422-.796-.893-.328-.677-.518-.892-1.203-1.36-.287-.196-.58-.447-.652-.558-.169-.26-.52-2.108-.537-2.826-.02-.85.089-1.206.51-1.663.664-.72 1.298-.938 2.884-.987 1.445-.045 2.285-.355 3.164-1.17.95-.881.937-2.364-.027-2.96-.167-.104-.87-.332-1.562-.508-1.416-.36-2.34-.758-3.03-1.304-.663-.524-1.168-.647-2.558-.62-1.102.02-1.16.012-1.382-.196-.35-.328-.455-1.007-.38-2.464.119-2.308.223-2.497 1.799-3.266 1.725-.842 3.051-2.004 4.159-3.643.525-.777 1.219-1.456 1.761-1.724.204-.101.396-.184.425-.184.03 0 .337.198.682.44zm-20.555.362c-6.387 2.764-10.767 8.583-11.71 15.558-.228 1.69-.17 2.09.297 2.09.286 0 .354-.208.477-1.454.689-7.009 5.338-13.141 11.891-15.684.71-.275.793-.361.703-.723-.087-.345-.487-.293-1.658.213zm-2.577 8.082c-1.331 1.367-1.913 2.35-1.49 2.512.342.131.487.028 1.11-.785a15.99 15.99 0 011.193-1.384c.303-.298.552-.612.552-.698 0-.198-.241-.44-.438-.44-.084 0-.501.357-.927.794zm-2.616 3.908c-.193.167-.72 1.501-.96 2.431-.462 1.802-.56 4.322-.236 6.121a14.472 14.472 0 003.045 6.65c.717.881 1.9 2 2.115 2 .207 0 .47-.225.47-.402 0-.063-.459-.582-1.021-1.152-1.573-1.596-2.622-3.282-3.298-5.303-.451-1.35-.596-2.192-.65-3.78-.071-2.037.205-3.73.886-5.432.314-.783.335-1.068.093-1.198-.228-.121-.227-.122-.444.065zm12.535 6.075c-.016 3.195-.043 5.822-.058 5.838-.065.066-1.624-.36-1.978-.54-1.616-.822-2.786-2.252-3.192-3.903-.178-.722-.186-2.03-.017-2.737.43-1.798 1.675-3.282 3.393-4.044.49-.218 1.594-.492 1.792-.445.06.014.08 2.007.06 5.83zm-19.004 1.54c-.24.288.19 3.052.51 3.287.218.16.277.151.498-.07.115-.114.166-.248.132-.339-.087-.225-.411-2.18-.411-2.474 0-.456-.47-.717-.729-.404zm1.12 5.101c-.19.494 1.127 3.146 2.476 4.99 2.07 2.83 5.132 5.223 8.388 6.553.998.408 1.35.474 1.536.287.312-.312.063-.573-.89-.933-4.722-1.787-8.602-5.605-10.65-10.479-.22-.523-.26-.568-.52-.568-.18 0-.304.055-.34.15z"/></symbol><symbol viewBox="0 0 65 64" id="fig-9" xmlns="http://www.w3.org/2000/svg"><path fill-rule="evenodd" clip-rule="evenodd" d="M11.791 5.898a.899.899 0 00-.318.21l-.157.163v51.448l.157.162a.92.92 0 00.355.215c.127.035 1.644.048 4.242.039 4.457-.016 4.164.007 4.395-.34.095-.144.098-.931.098-25.766 0-22.784-.009-25.636-.08-25.786a.759.759 0 00-.252-.27c-.166-.1-.304-.104-4.225-.113-2.263-.005-4.125.012-4.215.038zm7.289 26.097v24.573h-6.253V7.422h6.253v24.573zm-4.71-21.239c-.592.213-.62 1.144-.043 1.404.2.09.362.1 1.653.101 1.258.001 1.453-.01 1.615-.09.567-.284.567-1.112 0-1.395-.163-.08-.354-.091-1.615-.088-.985.003-1.487.024-1.61.068zm30.637 1.855a.674.674 0 00-.278.305c-.1.206-.108.32-.108 1.626v1.404h-6.399c-4.972.001-6.427.016-6.526.066a.856.856 0 00-.238.214c-.101.135-.113.238-.137 1.184l-.027 1.035-1.672.027c-1.826.028-1.837.03-2.05.353-.086.131-.093.35-.093 2.83s.007 2.7.093 2.83c.213.323.224.325 2.05.354l1.672.026.026 1.029c.029 1.102.058 1.221.332 1.377.09.051.772.073 2.9.093l2.783.027.014 1.87.014 1.87-.256.193c-.389.295-1.227 1.175-1.54 1.618-.839 1.184-1.303 2.467-1.44 3.978-.066.715-.026.982.174 1.163.243.22.3.226 1.891.226.978 0 1.54.02 1.54.052 0 .029-1.646 4.246-3.659 9.373-2.012 5.126-3.672 9.386-3.688 9.467-.076.376.28.834.685.879.282.032.575-.089.725-.298.056-.079 1.794-4.486 3.862-9.794l3.76-9.652.933-.015.933-.014v9.617c0 9.053.005 9.628.093 9.798.142.277.34.395.663.395.326 0 .562-.12.707-.359.097-.159.1-.465.114-9.806l.014-9.643h1.74l.368.934c.203.514 1.913 4.877 3.8 9.695 1.887 4.82 3.489 8.838 3.558 8.931.41.548 1.343.21 1.343-.487 0-.126-1.23-3.358-3.657-9.607a2871.256 2871.256 0 01-3.656-9.44c0-.014.698-.026 1.55-.026 1.737 0 1.813-.014 2.014-.372.194-.346.036-1.777-.31-2.817-.485-1.455-1.51-2.91-2.658-3.77l-.278-.21v-3.776h2.769c2.652 0 2.776-.004 2.938-.103.357-.216.334.3.334-7.3 0-6.447-.006-6.894-.093-7.067-.192-.382-.05-.368-3.961-.367-3.083.001-3.518.011-3.668.084zM51.166 15v.92l-2.478.014-2.477.014v-1.896l2.477.013 2.477.014v.92zm.013 6.617l.014 4.117H32.857v-4.095c0-2.253.016-4.112.036-4.131.02-.02 4.139-.03 9.154-.022l9.119.013.013 4.118zm-36.816-4.054c-.162.058-.374.305-.425.496-.065.237.002.585.142.739.223.244.298.253 1.91.253 1.437 0 1.537-.006 1.702-.106.434-.263.434-1.05 0-1.313-.166-.1-.26-.106-1.712-.102-.846.002-1.573.017-1.617.033zm27.145 1.02c-1.17.194-2.219 1.168-2.527 2.349-.104.399-.105 1.096-.003 1.526.262 1.107 1.204 2.042 2.318 2.302a3.985 3.985 0 001.428.022c.745-.152 1.565-.717 2.003-1.38.463-.702.634-1.77.404-2.535-.476-1.581-2.013-2.55-3.623-2.283zm-10.214 3.073v1.631h-2.226l-.014-1.645-.014-1.645 1.127.014 1.127.014v1.631zm11.4-1.5c.305.131.638.446.804.76.197.373.203.987.014 1.368-.163.33-.444.608-.776.77-.384.188-1.002.182-1.377-.014-.562-.292-.888-.82-.888-1.436 0-1.153 1.154-1.905 2.223-1.448zm-28.33 4.3c-.163.058-.375.306-.427.496-.064.237.003.585.143.739.223.244.298.254 1.91.253 1.437 0 1.537-.006 1.702-.106.434-.263.434-1.05 0-1.313-.166-.1-.26-.106-1.712-.102-.846.002-1.573.017-1.617.033zm30.734 4.36c0 1.141-.014 1.447-.066 1.425a13.217 13.217 0 00-1.472-.438c-.69-.148-2.372-.133-3.115.027-.482.103-1.13.29-1.401.402-.087.036-.093-.05-.093-1.414v-1.453h6.147v1.452zm-30.77 2.493c-.269.12-.407.355-.407.687 0 .332.138.566.406.687.2.09.362.1 1.653.101 1.258 0 1.453-.01 1.615-.09.567-.284.567-1.112 0-1.395-.162-.081-.357-.092-1.615-.091-1.291 0-1.453.01-1.653.1zm29.02.108c2.43.492 4.273 2.178 4.849 4.437.067.266.131.578.141.694l.019.21-6.303.013c-3.467.008-6.323-.006-6.346-.03-.061-.06.089-.802.268-1.33.325-.952.827-1.75 1.511-2.403a5.91 5.91 0 012.418-1.421c.438-.139.704-.193 1.457-.297.343-.048 1.483.025 1.986.127zm-28.985 6.667c-.162.059-.374.306-.425.497a.856.856 0 00.21.803l.164.163 1.602.014c1.534.014 1.61.01 1.778-.093.434-.266.434-1.051 0-1.314-.166-.1-.26-.106-1.712-.102-.846.002-1.573.017-1.617.032zm-.026 6.918a.793.793 0 00-.188 1.276l.163.162 1.602.014c1.534.014 1.61.01 1.778-.093.434-.266.434-1.051 0-1.314-.166-.1-.263-.106-1.712-.105-1.021.001-1.573.021-1.643.06zm-.01 6.829c-.268.12-.406.354-.406.687 0 .332.138.566.406.687.2.09.362.1 1.653.1 1.258.002 1.453-.01 1.615-.09.567-.283.567-1.111 0-1.395-.162-.08-.357-.091-1.615-.09-1.291 0-1.453.01-1.653.1z"/></symbol><symbol viewBox="0 0 24 24" id="instagram" xmlns="http://www.w3.org/2000/svg"><path d="M15.75 2h-7.5A6.25 6.25 0 002 8.25v7.5A6.25 6.25 0 008.25 22h7.5A6.25 6.25 0 0022 15.75v-7.5A6.25 6.25 0 0015.75 2zm4.375 13.75a4.38 4.38 0 01-4.375 4.375h-7.5a4.38 4.38 0 01-4.375-4.375v-7.5A4.38 4.38 0 018.25 3.875h7.5a4.38 4.38 0 014.375 4.375v7.5z"/><path d="M12 7a5 5 0 100 10 5 5 0 000-10zm0 8.125A3.13 3.13 0 018.875 12 3.129 3.129 0 0112 8.875 3.129 3.129 0 0115.125 12 3.13 3.13 0 0112 15.125zm5.375-7.834a.666.666 0 100-1.332.666.666 0 000 1.332z"/></symbol><symbol viewBox="0 0 40 40" id="mail" xmlns="http://www.w3.org/2000/svg"><path fill-rule="evenodd" clip-rule="evenodd" d="M35 7.5H5c-1.5 0-2.5 1-2.5 2.5v20c0 1.5 1 2.5 2.5 2.5h30c1.5 0 2.5-1 2.5-2.5V10c0-1.5-1-2.5-2.5-2.5zM32.25 10L20 18.5 7.75 10h24.5zM5 30V11.25l14.25 10c.5.25 1 .25 1.5 0l14.25-10V30H5z"/></symbol><symbol viewBox="0 0 40 40" id="map" xmlns="http://www.w3.org/2000/svg"><path fill-rule="evenodd" clip-rule="evenodd" d="M20 30l-7.613-10.75A10.175 10.175 0 0120 2.5a10.1 10.1 0 0110 10.162 10.25 10.25 0 01-2.25 6.413L20 30zm0-25a7.588 7.588 0 00-7.5 7.662 7.737 7.737 0 001.863 5L20 25.65l5.788-8.15a7.8 7.8 0 001.712-4.838A7.588 7.588 0 0020 5zm0 8.75a2.5 2.5 0 100-5 2.5 2.5 0 000 5zM32.5 15H35a2.5 2.5 0 012.5 2.5V35a2.5 2.5 0 01-2.5 2.5H5A2.5 2.5 0 012.5 35V17.5A2.5 2.5 0 015 15h2.5v2.5H5V35h30V17.5h-2.5V15z"/></symbol><symbol viewBox="0 0 16 16" id="mark" xmlns="http://www.w3.org/2000/svg"><path fill-rule="evenodd" clip-rule="evenodd" d="M3.333 6A4.663 4.663 0 018 1.333 4.663 4.663 0 0112.666 6C12.666 9.5 8 14.667 8 14.667S3.333 9.5 3.333 6zm3 0a1.667 1.667 0 103.335-.001A1.667 1.667 0 006.333 6z"/></symbol><symbol viewBox="0 0 40 40" id="phone" xmlns="http://www.w3.org/2000/svg"><path d="M32.5 36.25h-.212C7.725 34.837 4.238 14.113 3.75 7.788A3.75 3.75 0 017.2 3.75h6.888a2.5 2.5 0 012.325 1.575l1.9 4.675a2.501 2.501 0 01-.55 2.7L15.1 15.388a11.712 11.712 0 009.475 9.5l2.713-2.688A2.5 2.5 0 0130 21.688l4.712 1.887A2.5 2.5 0 0136.25 25.9v6.6a3.75 3.75 0 01-3.75 3.75zm-25-30A1.25 1.25 0 006.25 7.5v.1c.575 7.4 4.262 24.9 26.175 26.15a1.251 1.251 0 001.325-1.175V25.9l-4.712-1.887-3.588 3.562-.6-.075C13.975 26.137 12.5 15.262 12.5 15.15l-.075-.6 3.55-3.588L14.1 6.25H7.5z"/></symbol><symbol viewBox="0 0 24 24" id="search" xmlns="http://www.w3.org/2000/svg"><path fill-rule="evenodd" clip-rule="evenodd" d="M14.71 14h.79l4.99 5L19 20.49l-5-4.99v-.79l-.27-.28A6.471 6.471 0 019.5 16 6.5 6.5 0 1116 9.5c0 1.61-.59 3.09-1.57 4.23l.28.27zM5 9.5C5 11.99 7.01 14 9.5 14S14 11.99 14 9.5 11.99 5 9.5 5 5 7.01 5 9.5z"/></symbol><symbol viewBox="0 0 22 22" id="spinner" xmlns="http://www.w3.org/2000/svg"><path d="M11 0a10.934 10.934 0 017.857 3.327V0h1.572v6.286h-6.286V4.714h3.867A9.414 9.414 0 1020.429 11H22A11 11 0 1111 0z"/></symbol><symbol viewBox="0 0 16 16" id="telegram" xmlns="http://www.w3.org/2000/svg"><path d="M14.629 3.698l-2.012 9.618c-.152.679-.548.848-1.11.528l-3.066-2.29-1.48 1.442c-.163.166-.3.305-.616.305l.22-3.165 5.683-5.204c.247-.223-.054-.347-.384-.123L4.839 9.29l-3.024-.959c-.658-.208-.67-.667.137-.986L13.78 2.727c.548-.208 1.027.124.849.971z"/></symbol><symbol viewBox="0 0 40 40" id="time" xmlns="http://www.w3.org/2000/svg"><path fill-rule="evenodd" clip-rule="evenodd" d="M10.277 34.55a17.5 17.5 0 1019.445-29.1 17.5 17.5 0 00-19.445 29.1zm1.39-27.022a15 15 0 1116.666 24.944A15 15 0 0111.667 7.528zm7.083 12.985l6.988 6.987 1.762-1.762-6.25-6.263V8.75h-2.5v11.762z"/></symbol><symbol viewBox="0 0 24 24" id="twitter" xmlns="http://www.w3.org/2000/svg"><path d="M21 6.705c-.67.289-1.383.48-2.126.574a3.624 3.624 0 001.623-2.009c-.713.419-1.5.715-2.34.88A3.725 3.725 0 0015.462 5c-2.043 0-3.688 1.633-3.688 3.634 0 .288.025.565.085.829a10.5 10.5 0 01-7.606-3.8 3.615 3.615 0 00-.505 1.836c0 1.258.658 2.374 1.64 3.02a3.688 3.688 0 01-1.668-.448v.04c0 1.766 1.28 3.232 2.956 3.57-.3.08-.627.12-.967.12-.236 0-.475-.014-.699-.062a3.718 3.718 0 003.449 2.53 7.489 7.489 0 01-4.576 1.55c-.303 0-.593-.013-.883-.05A10.507 10.507 0 008.661 19.4c6.79 0 10.503-5.538 10.503-10.34a9.1 9.1 0 00-.014-.469A7.3 7.3 0 0021 6.705z"/></symbol><symbol viewBox="0 0 16 16" id="viber" xmlns="http://www.w3.org/2000/svg"><path d="M8 1.335c-1.071.013-3.374.19-4.662 1.37-.958.948-1.292 2.35-1.331 4.084-.033 1.728-.072 4.973 3.058 5.856v1.346s-.02.538.337.648c.438.14.688-.275 1.105-.72l.778-.879c2.142.178 3.782-.232 3.97-.293.435-.139 2.883-.451 3.283-3.696.41-3.351-.2-5.463-1.301-6.418h-.007c-.332-.306-1.668-1.279-4.652-1.29 0 0-.222-.014-.578-.008zm.037.942a7.02 7.02 0 01.488.011c2.527.007 3.732.767 4.017 1.023.927.794 1.405 2.697 1.055 5.495-.332 2.713-2.317 2.885-2.685 3.002-.156.05-1.6.406-3.42.289 0 0-1.356 1.634-1.78 2.055-.067.074-.146.095-.196.085-.071-.018-.093-.107-.089-.229l.013-2.233c-2.655-.733-2.498-3.5-2.47-4.946.033-1.446.304-2.628 1.113-3.43 1.088-.982 3.043-1.115 3.953-1.122zm.2 1.446a.166.166 0 100 .332 3.136 3.136 0 012.242.883c.606.588.9 1.378.912 2.411 0 .092.074.167.167.167V7.51a.167.167 0 00.168-.165 3.588 3.588 0 00-1.009-2.646c-.66-.645-1.496-.977-2.48-.977zm-2.198.382a.523.523 0 00-.342.067H5.69a2.61 2.61 0 00-.637.523 1.003 1.003 0 00-.256.525.71.71 0 00.026.302l.01.006c.172.504.396.988.67 1.444a8.48 8.48 0 001.29 1.762l.015.022.024.017.015.018.017.015c.532.505 1.127.94 1.769 1.295.734.4 1.18.588 1.447.667v.004c.078.024.15.034.221.034.228-.016.444-.109.613-.262a2.53 2.53 0 00.517-.638v-.004c.128-.241.085-.469-.1-.623-.37-.323-.77-.61-1.195-.857-.285-.155-.574-.061-.69.095l-.25.315c-.129.156-.361.134-.361.134l-.007.004C7.093 8.527 6.63 6.772 6.63 6.772s-.022-.239.139-.36l.312-.252c.15-.122.254-.41.094-.695a7.498 7.498 0 00-.856-1.194.475.475 0 00-.28-.167zm2.486.495c-.221 0-.221.334.003.334A2.098 2.098 0 0110 5.572 1.94 1.94 0 0110.5 7a.168.168 0 00.167.165l.007.009a.169.169 0 00.167-.167c.015-.662-.191-1.218-.595-1.663C9.84 4.9 9.273 4.65 8.549 4.6h-.024zm.274.898c-.228-.006-.236.335-.01.341.55.029.816.306.851.877a.166.166 0 00.165.163h.007a.168.168 0 00.16-.178c-.039-.744-.445-1.164-1.166-1.202H8.8z"/></symbol><symbol viewBox="0 0 24 24" id="vk" xmlns="http://www.w3.org/2000/svg"><path fill-rule="evenodd" clip-rule="evenodd" d="M20.576 6.75c.134-.423 0-.73-.59-.73h-1.964c-.496 0-.724.268-.858.557 0 0-1.01 2.46-2.421 4.054-.457.461-.667.615-.915.615-.133 0-.305-.154-.305-.576V6.73c0-.5-.152-.73-.572-.73H9.863a.475.475 0 00-.496.461c0 .48.705.596.782 1.941v2.921c0 .634-.115.75-.362.75-.668 0-2.288-2.48-3.26-5.304C6.337 6.21 6.145 6 5.65 6H3.667C3.095 6 3 6.269 3 6.557c0 .52.667 3.133 3.107 6.592 1.62 2.364 3.927 3.632 6.005 3.632 1.258 0 1.411-.288 1.411-.769v-1.787c0-.577.114-.673.515-.673.286 0 .8.154 1.963 1.288 1.335 1.345 1.563 1.96 2.307 1.96h1.963c.572 0 .84-.288.687-.846-.172-.557-.82-1.364-1.659-2.325-.457-.538-1.144-1.134-1.353-1.422-.286-.384-.21-.538 0-.884-.02 0 2.383-3.42 2.63-4.574z"/></symbol><symbol viewBox="0 0 16 16" id="whatsapp" xmlns="http://www.w3.org/2000/svg"><path fill-rule="evenodd" clip-rule="evenodd" d="M12.269 3.755A5.947 5.947 0 008.035 2 5.994 5.994 0 002.05 7.985a5.98 5.98 0 00.799 2.992L2 14.077l3.173-.832c.877.477 1.86.728 2.86.728h.002a5.993 5.993 0 005.533-8.276 5.953 5.953 0 00-1.3-1.942zm-4.234 9.208h-.002c-.89 0-1.765-.24-2.532-.694l-.181-.108-1.883.494.502-1.835-.118-.188a4.965 4.965 0 01-.76-2.647 4.982 4.982 0 016.88-4.597c.604.25 1.152.618 1.613 1.081a4.946 4.946 0 011.455 3.52 4.982 4.982 0 01-4.974 4.974zm2.729-3.726c-.15-.075-.885-.436-1.022-.486-.137-.05-.236-.075-.336.074-.1.15-.387.486-.474.586-.087.1-.175.112-.324.038-.15-.075-.631-.233-1.203-.742a4.505 4.505 0 01-.832-1.036c-.087-.15-.009-.231.066-.306.068-.066.15-.174.224-.262.075-.087.1-.149.15-.249.05-.1.025-.187-.013-.262-.037-.075-.337-.811-.461-1.11-.121-.29-.244-.252-.336-.256a6.418 6.418 0 00-.286-.005.55.55 0 00-.4.186c-.137.15-.523.512-.523 1.248s.536 1.447.61 1.547c.075.1 1.055 1.61 2.555 2.258.358.154.636.246.853.315.358.114.684.098.942.06.287-.043.885-.362 1.01-.711.124-.35.124-.649.087-.711-.038-.063-.138-.101-.287-.176z"/></symbol></svg>