<svg width="89" height="88" viewBox="0 0 89 88" fill="none" xmlns="http://www.w3.org/2000/svg">
<path d="M63.5833 13.1309H34.8613C34.5153 13.1309 34.1824 13.2679 33.9411 13.5161L20.8857 26.5715C20.6371 26.8128 20.5 27.1457 20.5 27.4917V67.9636C20.5 70.1241 22.2557 71.8804 24.4169 71.8804H63.5831C65.7437 71.8804 67.5 70.1247 67.5 67.9636V17.0474C67.5 14.8864 65.7439 13.1309 63.5833 13.1309ZM33.5558 17.5891V24.8809C33.5558 25.5989 32.9684 26.1863 32.2504 26.1863H24.959L33.5558 17.5891ZM64.8888 67.9632C64.8888 68.6813 64.3014 69.2686 63.5834 69.2686L24.4171 69.2691C23.699 69.2691 23.1117 68.6817 23.1117 67.9636V28.7974H32.2502C34.4108 28.7974 36.1671 27.0416 36.1671 24.8805V15.7419H63.5835C64.3016 15.7419 64.8889 16.3293 64.8889 17.0474L64.8888 67.9632Z" fill="#16246B"/>
<path d="M59.6725 60.783H28.3395C27.6214 60.783 27.0341 61.3704 27.0341 62.0884C27.0341 62.8064 27.6214 63.3938 28.3395 63.3938H59.6725C60.3906 63.3938 60.9779 62.8064 60.9779 62.0884C60.9779 61.3704 60.3905 60.783 59.6725 60.783Z" fill="#16246B"/>
<path d="M59.6725 54.2552H28.3395C27.6214 54.2552 27.0341 54.8426 27.0341 55.5607C27.0341 56.2787 27.6214 56.8661 28.3395 56.8661H59.6725C60.3906 56.8661 60.9779 56.2787 60.9779 55.5607C60.9779 54.8426 60.3905 54.2552 59.6725 54.2552Z" fill="#16246B"/>
<path d="M47.4901 44.7772L46.7657 48.7982C46.681 49.2877 46.8768 49.7772 47.2684 50.0778C47.4969 50.2476 47.771 50.3387 48.0515 50.3387C48.2537 50.3387 48.4495 50.2932 48.6389 50.2016L52.4902 48.2697L56.3414 50.2016C56.779 50.4234 57.314 50.3778 57.7056 50.0841C58.1035 49.7905 58.2998 49.2941 58.2083 48.8046L57.4838 44.7835L60.5519 41.9245C60.9175 41.5784 61.0609 41.0562 60.9043 40.573C60.7476 40.0899 60.3365 39.7439 59.8402 39.6724L55.5513 39.0782L53.6452 35.3836C53.424 34.9465 52.98 34.6723 52.4905 34.6723C52.001 34.6723 51.5571 34.9465 51.3285 35.3772L49.4224 39.0718L45.1336 39.666C44.6373 39.7379 44.2197 40.084 44.0694 40.5667C43.9192 41.0498 44.0562 41.572 44.4219 41.9181L47.4901 44.7772ZM50.4539 41.5656C50.8719 41.5069 51.2371 41.246 51.4329 40.8735L52.4906 38.8236L53.5479 40.8735C53.7437 41.2519 54.1094 41.5069 54.5269 41.5656L56.7727 41.8789L55.1931 43.3542C54.8666 43.6542 54.7163 44.105 54.7951 44.5421L55.1803 46.6962L53.078 45.6385C52.8955 45.547 52.6928 45.5014 52.4907 45.5014C52.2885 45.5014 52.0859 45.547 51.9033 45.6385L49.7946 46.6958L50.1798 44.5416C50.2581 44.1041 50.1079 43.6606 49.7818 43.3537L48.2022 41.8785L50.4539 41.5656Z" fill="#16246B"/>
<path d="M28.3395 37.2832H38.784C39.5021 37.2832 40.0895 36.6958 40.0895 35.9778C40.0895 35.2597 39.5021 34.6723 38.784 34.6723H28.3395C27.6214 34.6723 27.0341 35.2597 27.0341 35.9778C27.0336 36.6958 27.6214 37.2832 28.3395 37.2832Z" fill="#16246B"/>
<path d="M28.3395 43.8111H38.784C39.5021 43.8111 40.0895 43.2301 40.0895 42.5056C40.0895 41.7876 39.5021 41.2002 38.784 41.2002H28.3395C27.6214 41.2002 27.0341 41.7876 27.0341 42.5056C27.0336 43.2301 27.6214 43.8111 28.3395 43.8111Z" fill="#16246B"/>
<path d="M28.3395 50.3388H38.784C39.5021 50.3388 40.0895 49.7514 40.0895 49.0334C40.0895 48.3153 39.5021 47.728 38.784 47.728H28.3395C27.6214 47.728 27.0341 48.3153 27.0341 49.0334C27.0336 49.7514 27.6214 50.3388 28.3395 50.3388Z" fill="#16246B"/>
<path d="M63.5833 13.1309H34.8613C34.5153 13.1309 34.1824 13.2679 33.9411 13.5161L20.8857 26.5715C20.6371 26.8128 20.5 27.1457 20.5 27.4917V67.9636C20.5 70.1241 22.2557 71.8804 24.4169 71.8804H63.5831C65.7437 71.8804 67.5 70.1247 67.5 67.9636V17.0474C67.5 14.8864 65.7439 13.1309 63.5833 13.1309ZM33.5558 17.5891V24.8809C33.5558 25.5989 32.9684 26.1863 32.2504 26.1863H24.959L33.5558 17.5891ZM64.8888 67.9632C64.8888 68.6813 64.3014 69.2686 63.5834 69.2686L24.4171 69.2691C23.699 69.2691 23.1117 68.6817 23.1117 67.9636V28.7974H32.2502C34.4108 28.7974 36.1671 27.0416 36.1671 24.8805V15.7419H63.5835C64.3016 15.7419 64.8889 16.3293 64.8889 17.0474L64.8888 67.9632Z" stroke="#F0F0F0" stroke-width="0.3"/>
<path d="M59.6725 60.783H28.3395C27.6214 60.783 27.0341 61.3704 27.0341 62.0884C27.0341 62.8064 27.6214 63.3938 28.3395 63.3938H59.6725C60.3906 63.3938 60.9779 62.8064 60.9779 62.0884C60.9779 61.3704 60.3905 60.783 59.6725 60.783Z" stroke="#F0F0F0" stroke-width="0.3"/>
<path d="M59.6725 54.2552H28.3395C27.6214 54.2552 27.0341 54.8426 27.0341 55.5607C27.0341 56.2787 27.6214 56.8661 28.3395 56.8661H59.6725C60.3906 56.8661 60.9779 56.2787 60.9779 55.5607C60.9779 54.8426 60.3905 54.2552 59.6725 54.2552Z" stroke="#F0F0F0" stroke-width="0.3"/>
<path d="M47.4901 44.7772L46.7657 48.7982C46.681 49.2877 46.8768 49.7772 47.2684 50.0778C47.4969 50.2476 47.771 50.3387 48.0515 50.3387C48.2537 50.3387 48.4495 50.2932 48.6389 50.2016L52.4902 48.2697L56.3414 50.2016C56.779 50.4234 57.314 50.3778 57.7056 50.0841C58.1035 49.7905 58.2998 49.2941 58.2083 48.8046L57.4838 44.7835L60.5519 41.9245C60.9175 41.5784 61.0609 41.0562 60.9043 40.573C60.7476 40.0899 60.3365 39.7439 59.8402 39.6724L55.5513 39.0782L53.6452 35.3836C53.424 34.9465 52.98 34.6723 52.4905 34.6723C52.001 34.6723 51.5571 34.9465 51.3285 35.3772L49.4224 39.0718L45.1336 39.666C44.6373 39.7379 44.2197 40.084 44.0694 40.5667C43.9192 41.0498 44.0562 41.572 44.4219 41.9181L47.4901 44.7772ZM50.4539 41.5656C50.8719 41.5069 51.2371 41.246 51.4329 40.8735L52.4906 38.8236L53.5479 40.8735C53.7437 41.2519 54.1094 41.5069 54.5269 41.5656L56.7727 41.8789L55.1931 43.3542C54.8666 43.6542 54.7163 44.105 54.7951 44.5421L55.1803 46.6962L53.078 45.6385C52.8955 45.547 52.6928 45.5014 52.4907 45.5014C52.2885 45.5014 52.0859 45.547 51.9033 45.6385L49.7946 46.6958L50.1798 44.5416C50.2581 44.1041 50.1079 43.6606 49.7818 43.3537L48.2022 41.8785L50.4539 41.5656Z" stroke="#F0F0F0" stroke-width="0.3"/>
<path d="M28.3395 37.2832H38.784C39.5021 37.2832 40.0895 36.6958 40.0895 35.9778C40.0895 35.2597 39.5021 34.6723 38.784 34.6723H28.3395C27.6214 34.6723 27.0341 35.2597 27.0341 35.9778C27.0336 36.6958 27.6214 37.2832 28.3395 37.2832Z" stroke="#F0F0F0" stroke-width="0.3"/>
<path d="M28.3395 43.8111H38.784C39.5021 43.8111 40.0895 43.2301 40.0895 42.5056C40.0895 41.7876 39.5021 41.2002 38.784 41.2002H28.3395C27.6214 41.2002 27.0341 41.7876 27.0341 42.5056C27.0336 43.2301 27.6214 43.8111 28.3395 43.8111Z" stroke="#F0F0F0" stroke-width="0.3"/>
<path d="M28.3395 50.3388H38.784C39.5021 50.3388 40.0895 49.7514 40.0895 49.0334C40.0895 48.3153 39.5021 47.728 38.784 47.728H28.3395C27.6214 47.728 27.0341 48.3153 27.0341 49.0334C27.0336 49.7514 27.6214 50.3388 28.3395 50.3388Z" stroke="#F0F0F0" stroke-width="0.3"/>
</svg>
