<svg width="88" height="88" viewBox="0 0 88 88" fill="none" xmlns="http://www.w3.org/2000/svg">
<path d="M85.9986 63.3861H84.1019V54.0454C84.1019 51.5134 82.6131 49.2186 80.2992 48.1849L69.9629 43.5763L64.2446 50.9445L58.6118 43.5856L48.2184 48.2038C47.8201 48.384 47.4692 48.5832 47.1468 48.8107L46.0563 47.2555C46.4735 46.9616 46.9192 46.7055 47.4313 46.4779H47.4408L58.1945 41.6986C58.7919 41.4426 59.4842 41.6228 59.873 42.1348L64.2542 47.8625L68.6922 42.1442C69.0905 41.6321 69.7828 41.4614 70.3707 41.708L70.3802 41.7175L81.058 46.4779C84.0452 47.815 85.9796 50.7926 85.9796 54.0642V63.386L85.9986 63.3861Z" fill="#16246B"/>
<path d="M75.9869 57.1072H77.8836V63.3849H75.9869V57.1072Z" fill="#16246B"/>
<path d="M63.306 49.3978H65.2027V63.3851H63.306V49.3978Z" fill="#16246B"/>
<path d="M71.3951 52.4705C71.2813 52.4705 71.1675 52.4515 71.0537 52.4136L64.2449 50.3843L57.4076 52.4231C57.0188 52.5274 56.6205 52.4231 56.3266 52.1481C56.0421 51.8731 55.9188 51.4748 55.9947 51.086L57.9767 42.2006L59.8258 42.6178L58.1284 50.2231L64.2448 48.4023L70.3803 50.2326L68.7397 42.6178L70.5984 42.2195L72.5045 51.105C72.5803 51.5033 72.4381 51.9205 72.1347 52.1955C71.926 52.3757 71.6606 52.4705 71.3951 52.4705Z" fill="#16246B"/>
<path d="M64.2483 41.1957C60.5309 41.1957 57.2689 38.3603 55.2491 33.4103C54.2439 32.7275 53.2577 31.3335 53.2577 29.9775C53.2577 29.1619 53.5138 28.593 53.8172 28.2041C53.6276 26.9713 53.5233 25.7385 53.5233 24.5531C53.5233 17.5072 57.0319 14.0839 64.239 14.0839C71.4461 14.0839 74.9548 17.5072 74.9548 24.5531C74.9548 25.7385 74.8599 26.9712 74.6608 28.2041C74.9643 28.5834 75.2203 29.1524 75.2203 29.9775C75.2203 31.3335 74.2436 32.7275 73.2289 33.4103C71.2281 38.3604 67.9656 41.1957 64.2483 41.1957ZM64.2483 15.9813C58.0655 15.9813 55.4293 18.5418 55.4293 24.554C55.4293 25.7962 55.5431 27.0764 55.7707 28.3756L55.875 28.9635L55.3913 29.3144C55.3344 29.3523 55.1543 29.4851 55.1543 29.9877C55.1543 30.623 55.8086 31.5998 56.4439 31.9317L56.7664 32.0929L56.8991 32.4248C57.7052 34.4921 60.0285 39.2999 64.2484 39.2999C68.4684 39.2999 70.7916 34.4919 71.5977 32.4248L71.7305 32.0929L72.0529 31.9317C72.6883 31.5998 73.3426 30.623 73.3426 29.9877C73.3426 29.4756 73.1814 29.3618 73.115 29.3239L72.6219 28.973L72.7262 28.3851C72.9538 27.0954 73.0676 25.8057 73.0676 24.5634C73.0676 18.5417 70.4312 15.9813 64.2483 15.9813Z" fill="#16246B"/>
<path d="M55.4752 27.1034L53.7398 26.3447C54.5743 24.4292 56.5088 21.0723 60.0934 20.1713L60.7193 20.0101L61.0986 20.5316C61.1081 20.5411 61.971 21.6885 63.9625 22.7222C65.8117 23.68 69.0453 24.7326 73.9385 24.2964L74.1092 26.1835C73.2557 26.2594 72.4497 26.2973 71.6911 26.2973C64.7021 26.2973 61.1935 23.405 60.027 22.1722C57.5521 23.0826 56.1201 25.605 55.4752 27.1034Z" fill="#16246B"/>
<path d="M12.7102 61.3852H14.6069V69.1232H12.7102V61.3852Z" fill="#16246B"/>
<path d="M55.874 69.1223H53.9773V57.6195C53.9773 54.4143 52.0902 51.5031 49.16 50.1944L36.2632 44.4383L29.2838 53.4282L22.4087 44.4289L9.43616 50.185C6.49648 51.4842 4.5998 54.3954 4.5998 57.6197V69.1129H2.70312V57.629C2.70312 53.6652 5.04544 50.0616 8.66782 48.4685L21.9249 42.5796C22.5698 42.3046 23.3095 42.5037 23.7361 43.0537L29.2932 50.3271L34.9355 43.0537C35.3527 42.5132 36.1019 42.3141 36.7467 42.5891L36.7657 42.5986L49.9279 48.4686C53.5314 50.0807 55.8642 53.6746 55.8642 57.6195V69.1224L55.874 69.1223Z" fill="#16246B"/>
<path d="M43.9881 61.3852H45.8847V69.1232H43.9881V61.3852Z" fill="#16246B"/>
<path d="M28.3492 51.8826H30.2458V69.1226H28.3492V51.8826Z" fill="#16246B"/>
<path d="M38.094 55.4478C37.9897 55.4478 37.8759 55.4288 37.7716 55.4004L37.7526 55.3909L29.2843 52.8684L20.8065 55.4004C20.3987 55.5142 19.9815 55.4099 19.678 55.1159C19.3746 54.8314 19.2513 54.4142 19.3366 54.0064L21.7832 43.0632L23.6323 43.4804L21.4513 53.2383L29.2842 50.896L37.1456 53.2383L35.0499 43.4709L36.9086 43.0726L39.2602 54.0158C39.3456 54.4141 39.2223 54.8314 38.9188 55.1253C38.6818 55.334 38.3975 55.4478 38.094 55.4478Z" fill="#16246B"/>
<path d="M32.5596 64.5047H34.4563V66.6952H32.5596V64.5047Z" fill="#16246B"/>
<path d="M32.5596 58.5014H34.4563V60.692H32.5596V58.5014Z" fill="#16246B"/>
<path d="M42.1444 40.0097H30.8218L33.2115 38.2933C35.1175 36.9278 36.7485 34.5855 37.9245 31.532L38.0573 31.2001L38.3797 31.0389C39.0909 30.6691 39.9634 29.4837 39.9634 28.6302C39.9634 28.1845 39.8496 27.881 39.6409 27.7293L39.1478 27.3784L39.2521 26.781C39.4133 25.8801 39.5271 24.9983 39.5935 24.1352C30.196 24.6663 25.6915 20.8161 24.3355 19.3653C21.4622 20.3705 19.7837 23.1964 18.9682 24.9981C19.0251 25.5386 19.1104 26.1266 19.2242 26.7808L19.3285 27.3783L18.8354 27.7291C18.7501 27.786 18.513 27.9567 18.513 28.63C18.513 29.474 19.3854 30.6689 20.1061 31.0481L20.4191 31.2093L20.5423 31.5412C21.7182 34.5853 23.3494 36.9181 25.2554 38.3025L27.6262 40.0189H16.4457C15.2983 40.0189 14.2078 39.5163 13.4681 38.6439C12.7284 37.7715 12.406 36.6241 12.5861 35.4861L14.1508 25.8515C14.3689 24.5333 14.5301 23.1393 14.6534 21.5936C15.0043 17.3357 16.8249 13.9028 19.9165 11.6745C22.4201 9.87263 25.7486 8.87695 29.2856 8.87695C33.1546 8.87695 36.5021 9.84421 38.9677 11.684C41.9263 13.8841 43.5955 17.2221 43.9178 21.5936C44.0316 23.1109 44.2213 24.647 44.4868 26.2971L45.9851 35.4861C46.1748 36.6145 45.8618 37.762 45.1221 38.6344C44.3825 39.5068 43.2919 40.0097 42.1444 40.0097ZM36.2176 38.1131H42.1444C42.7324 38.1131 43.2919 37.857 43.6807 37.4018C44.06 36.9561 44.2212 36.3682 44.1264 35.7897L42.6281 26.5913C42.3531 24.8938 42.1634 23.3006 42.0401 21.736C41.3195 12.1961 33.7425 10.7643 29.2951 10.7643C23.5768 10.7643 17.2233 13.6471 16.5595 21.736C16.4363 23.3291 16.2656 24.7705 16.038 26.1456L14.4733 35.7802C14.3785 36.3586 14.5397 36.9561 14.9285 37.4018C15.3078 37.857 15.8673 38.113 16.4647 38.113H22.2588C20.9312 36.6431 19.7932 34.7561 18.9019 32.518C17.7545 31.7499 16.626 30.1568 16.626 28.6204C16.626 27.6627 16.9294 27.0178 17.2803 26.6007C17.1855 25.9937 17.1096 25.4437 17.0622 24.9317L17.0432 24.6851L17.1381 24.4575C18.0958 22.248 20.3054 18.398 24.4305 17.3548L25.0564 17.1936L25.4357 17.7151C25.4452 17.7246 26.4598 19.0807 28.8021 20.2945C30.9736 21.4229 34.7764 22.6652 40.5231 22.1532L41.5852 22.0583L41.5567 23.1299C41.5188 24.2489 41.4145 25.4058 41.2248 26.5912C41.5852 27.0179 41.8791 27.6533 41.8791 28.611C41.8791 30.1093 40.7507 31.7404 39.6032 32.5086C38.6739 34.756 37.5356 36.6527 36.2176 38.1131Z" fill="#16246B"/>
<path d="M29.2376 41.5461C27.4264 41.5461 25.7099 40.9677 24.1453 39.8392C22.0116 38.303 20.2004 35.7805 18.8917 32.5279C17.7348 31.7597 16.6158 30.1287 16.6158 28.6303C16.6158 27.6725 16.9193 27.0277 17.2702 26.6105C17.1753 26.0036 17.0995 25.4536 17.0521 24.9415L17.0331 24.695L17.1279 24.4674C18.0952 22.2579 20.3237 18.3983 24.4204 17.3646L25.0462 17.2034L25.4255 17.725C25.435 17.7345 26.4497 19.0905 28.792 20.3139C30.9635 21.4423 34.7662 22.6846 40.5129 22.1726L41.575 22.0777L41.5466 23.1493C41.5086 24.2683 41.4043 25.4252 41.2052 26.6106C41.5561 27.0373 41.8595 27.6727 41.8595 28.6304C41.8595 30.1666 40.731 31.7598 39.5836 32.528C38.2844 35.7711 36.4731 38.2936 34.33 39.8393C32.7464 40.9772 31.0393 41.5461 29.2376 41.5461ZM18.9682 24.9981C19.0251 25.5386 19.1104 26.1266 19.2242 26.7808L19.3285 27.3783L18.8354 27.7291C18.6173 27.8808 18.513 28.1843 18.513 28.63C18.513 29.4835 19.3848 30.6691 20.096 31.039L20.4184 31.2002L20.5512 31.5321C21.7365 34.5856 23.3582 36.9279 25.2642 38.2934C26.497 39.1848 27.8436 39.64 29.2471 39.64C30.6411 39.64 31.9782 39.1848 33.23 38.2934C35.136 36.9184 36.7671 34.576 37.9431 31.5321L38.0758 31.2002L38.3888 31.039C39.1 30.6597 39.9819 29.4743 39.9819 28.6209C39.9819 28.1752 39.8681 27.8718 39.6595 27.7105L39.1759 27.3597L39.2802 26.7717C39.4414 25.8709 39.5552 24.989 39.6216 24.126C30.224 24.657 25.7195 20.8069 24.3635 19.3467C21.6136 20.3139 19.9354 22.8739 18.9682 24.9981Z" fill="#16246B"/>
</svg>
