<svg width="89" height="88" viewBox="0 0 89 88" fill="none" xmlns="http://www.w3.org/2000/svg">
<path fill-rule="evenodd" clip-rule="evenodd" d="M45.7635 26.6639L41.9935 23.3128L43.9972 21.0586L47.7672 24.4097L45.7635 26.6639ZM53.3034 33.366L49.5334 30.0149L51.5371 27.7608L55.3071 31.1118L53.3034 33.366ZM38.6389 37.8123L33.6975 33.42L35.7012 31.1658L40.6426 35.5582L38.6389 37.8123ZM40.2551 51.205L35.0623 55.7348L33.0797 53.4621L38.2725 48.9322L40.2551 51.205ZM52.7058 63.8685L48.7683 67.3034L46.7857 65.0306L50.7232 61.5958L52.7058 63.8685ZM44.8308 70.7382L40.8933 74.1731L38.9107 71.9003L42.8482 68.4655L44.8308 70.7382Z" fill="#16246B"/>
<path d="M71.4962 43.8646L69.098 43.7073C68.9477 43.2779 68.776 42.8625 68.5828 42.4546L70.1645 40.6507C70.5365 40.2283 70.515 39.5842 70.1146 39.1833L66.4498 35.5185C66.0488 35.1175 65.4047 35.096 64.9824 35.4685L63.2144 37.0218C62.792 36.8141 62.3626 36.6283 61.9187 36.4706L61.7614 34.1368C61.7255 33.5711 61.2531 33.1348 60.6879 33.1348H55.4982C54.9325 33.1348 54.4677 33.5711 54.4247 34.1368L54.2745 36.4061C53.8091 36.5634 53.3512 36.7497 52.9074 36.9644L51.2039 35.4755C50.7814 35.1035 50.1374 35.125 49.7365 35.5254L46.0717 39.1903C45.6707 39.5912 45.6493 40.2283 46.0217 40.6576L47.4822 42.3253C47.253 42.7837 47.0598 43.2485 46.895 43.7353L44.6906 43.8856C44.1249 43.9215 43.6886 44.3939 43.6886 44.9591V50.1488C43.6886 50.7145 44.125 51.1793 44.6906 51.2223L46.895 51.3656C47.0598 51.8454 47.253 52.3177 47.4822 52.7755L46.0217 54.4432C45.6497 54.8656 45.6712 55.5097 46.0717 55.9105L49.7365 59.5754C50.1374 59.9763 50.7745 59.9978 51.2039 59.6253L52.9074 58.1365C53.3513 58.3512 53.8092 58.5374 54.2745 58.6947L54.4247 60.964C54.4607 61.5297 54.933 61.9661 55.4982 61.9661L60.6879 61.9666C61.2536 61.9666 61.7185 61.5302 61.7614 60.9645L61.9187 58.6308C62.3626 58.4735 62.792 58.2942 63.2144 58.0795L64.9824 59.6328C65.4118 60.0048 66.0489 59.9833 66.4498 59.5829L70.1146 55.918C70.5155 55.5171 70.537 54.88 70.1645 54.4507L68.5828 52.6468C68.776 52.2388 68.9547 51.8164 69.098 51.394L71.4962 51.2367C72.0619 51.2008 72.4982 50.7285 72.4982 50.1633V44.9735C72.4982 44.3654 72.0619 43.9 71.4962 43.8646ZM70.3513 49.1182L68.2182 49.2615C67.7599 49.29 67.3734 49.612 67.2521 50.0489C67.0444 50.8078 66.7438 51.5448 66.3504 52.2393C66.1287 52.6328 66.1786 53.1341 66.4792 53.4776L67.8823 55.0808L65.6344 57.3287L64.0597 55.9471C63.7092 55.6395 63.2079 55.5966 62.8145 55.8252C62.1199 56.2332 61.3755 56.5482 60.6026 56.7629C60.1662 56.8847 59.8511 57.2712 59.8222 57.7221L59.6863 59.7837H56.5084L56.3726 57.7725C56.3441 57.3142 56.0221 56.9207 55.5707 56.8064C54.7763 56.5987 54.0104 56.2837 53.2875 55.8757C52.894 55.654 52.3927 55.704 52.0492 56.0045L50.5534 57.3142L48.3055 55.0664L49.5937 53.592C49.8943 53.2484 49.9442 52.7402 49.7155 52.3467C49.2931 51.6167 48.9641 50.8364 48.7494 50.0345C48.6276 49.5906 48.2411 49.2755 47.7833 49.2401L45.8435 49.1113V45.9333L47.7833 45.8045C48.2416 45.776 48.6281 45.454 48.7494 45.0101C48.9641 44.2013 49.2936 43.4208 49.7155 42.6979C49.9447 42.2969 49.9018 41.7961 49.5937 41.4526L48.3055 39.9853L50.5534 37.7374L52.0568 39.0471C52.4003 39.3476 52.8941 39.3976 53.295 39.1759C54.018 38.768 54.7909 38.4529 55.5858 38.2452C56.0297 38.1309 56.3587 37.7369 56.3877 37.2791L56.5235 35.268H59.7014L59.8372 37.3295C59.8657 37.7804 60.1808 38.1669 60.6176 38.2887C61.3905 38.5034 62.135 38.8254 62.8295 39.2264C63.2305 39.4555 63.7313 39.4126 64.0748 39.1045L65.6495 37.7229L67.8973 39.9708L66.4943 41.574C66.1937 41.9175 66.1438 42.4113 66.3655 42.8123C66.7519 43.4993 67.0525 44.2368 67.2602 44.9952C67.382 45.439 67.7685 45.7541 68.2263 45.7826L70.3594 45.9258L70.3584 49.1184L70.3513 49.1182Z" fill="#16246B"/>
<path d="M58.1002 40.7279C54.3211 40.7279 51.243 43.8055 51.243 47.5851C51.243 51.3642 54.3206 54.4424 58.1002 54.4424C61.8793 54.4424 64.9575 51.3647 64.9575 47.5851C64.9575 43.806 61.8799 40.7279 58.1002 40.7279ZM58.1002 52.295C55.5019 52.295 53.3903 50.1834 53.3903 47.5851C53.3903 44.9868 55.5019 42.8752 58.1002 42.8752C60.6986 42.8752 62.8101 44.9868 62.8101 47.5851C62.8101 50.1834 60.6916 52.295 58.1002 52.295Z" fill="#16246B"/>
<path d="M36.2449 63.9393L34.7275 63.8389C34.6561 63.6527 34.5772 63.4669 34.4983 63.2807L35.5004 62.1353C35.8724 61.7129 35.8509 61.0688 35.4505 60.668L32.8237 58.0412C32.4227 57.6402 31.7787 57.6188 31.3563 57.9912L30.2399 58.9719C30.0467 58.879 29.8534 58.8001 29.6527 58.7212L29.5524 57.2468C29.5164 56.6811 29.0441 56.2447 28.4789 56.2447H24.7566C24.1909 56.2447 23.7261 56.6811 23.6832 57.2468L23.5903 58.6714C23.3756 58.7502 23.1609 58.8361 22.9532 58.929L21.8797 57.9913C21.4573 57.6194 20.8132 57.6408 20.4124 58.0413L17.7855 60.6681C17.3846 61.069 17.3631 61.7061 17.7356 62.1354L18.6518 63.1805C18.5515 63.4021 18.4586 63.6243 18.3727 63.8535L16.9911 63.9464C16.4254 63.9823 15.989 64.4547 15.989 65.0198V68.7421C15.989 69.3078 16.4254 69.7726 16.9911 69.8155L18.3727 69.9084C18.4586 70.1376 18.5515 70.3593 18.6518 70.5815L17.7356 71.6265C17.3636 72.0489 17.3851 72.693 17.7855 73.0938L20.4124 75.7207C20.8133 76.1216 21.4504 76.1431 21.8797 75.7706L22.9532 74.8329C23.1609 74.9258 23.3756 75.0117 23.5903 75.0905L23.6832 76.5151C23.7191 77.0808 24.1915 77.5172 24.7566 77.5172H28.4789C29.0446 77.5172 29.5094 77.0808 29.5524 76.5151L29.6527 75.0407C29.8529 74.9618 30.0462 74.8834 30.2399 74.7901L31.3563 75.7707C31.7857 76.1427 32.4228 76.1212 32.8237 75.7207L35.4505 73.0939C35.8514 72.693 35.8729 72.0559 35.5004 71.6266L34.4983 70.4812C34.5842 70.295 34.6556 70.1092 34.7275 69.923L36.2449 69.8226C36.8106 69.7867 37.2469 69.3143 37.2469 68.7491V65.0269C37.2469 64.4478 36.8101 63.9822 36.2449 63.9393ZM35.0995 67.7259L33.8542 67.8118C33.3959 67.8403 33.0094 68.1553 32.8881 68.5992C32.7448 69.122 32.5376 69.6297 32.2725 70.0951C32.0508 70.4885 32.1007 70.9898 32.4013 71.3333L33.2171 72.271L32.0074 73.4808L31.0912 72.6789C30.7406 72.3783 30.2394 72.3284 29.8459 72.5571C29.3661 72.8362 28.8583 73.0509 28.3286 73.2012C27.8922 73.323 27.5771 73.7095 27.5482 74.1603L27.4693 75.3556H25.7587L25.6798 74.1963C25.6513 73.7379 25.3293 73.3445 24.8779 73.2301C24.3337 73.0868 23.8114 72.8721 23.3101 72.593C22.9092 72.3713 22.4154 72.4213 22.0718 72.7219L21.213 73.4733L20.0033 72.2635L20.7407 71.4262C21.0413 71.0757 21.0912 70.5744 20.8625 70.1809C20.569 69.6871 20.3473 69.1504 20.197 68.5916C20.0752 68.1478 19.6887 67.8327 19.2309 67.8042L18.1284 67.7329V66.0222L19.2378 65.9509C19.6962 65.9224 20.0827 65.6003 20.204 65.1565C20.3543 64.6053 20.576 64.0685 20.8695 63.5672C21.0987 63.1662 21.0558 62.6654 20.7477 62.3219L20.0103 61.4846L21.22 60.2748L22.0788 61.0263C22.4224 61.3269 22.9162 61.3768 23.3171 61.1551C23.8109 60.876 24.3406 60.6613 24.8849 60.518C25.3288 60.4036 25.6578 60.0097 25.6868 59.5518L25.7657 58.3995H27.4763L27.5552 59.5948C27.5836 60.0457 27.8987 60.4321 28.3356 60.5539C28.8653 60.7042 29.3806 60.9189 29.8529 61.198C30.2538 61.4272 30.7546 61.3843 31.0981 61.0762L32.0144 60.2743L33.2241 61.4841L32.4008 62.4148C32.1002 62.7583 32.0503 63.2521 32.272 63.6531C32.5366 64.1254 32.7443 64.6337 32.8876 65.1489C33.0094 65.5928 33.3959 65.9078 33.8538 65.9363L35.099 66.0222L35.0995 67.7259Z" fill="#16246B"/>
<path d="M36.2441 17.6945L34.7268 17.5942C34.6554 17.408 34.5765 17.2222 34.4976 17.036L35.4997 15.8906C35.8716 15.4682 35.8502 14.8241 35.4497 14.4232L32.8229 11.7964C32.422 11.3955 31.7779 11.374 31.3556 11.7465L30.2391 12.7271C30.0459 12.6342 29.8527 12.5554 29.652 12.4765L29.5516 11.0021C29.5156 10.4364 29.0433 10 28.4781 10H24.7559C24.1902 10 23.7253 10.4364 23.6824 11.0021L23.5895 12.4266C23.3748 12.5055 23.1602 12.5914 22.9524 12.6843L21.879 11.7466C21.4566 11.3746 20.8125 11.3961 20.4116 11.7965L17.7848 14.4233C17.3839 14.8243 17.3624 15.4614 17.7349 15.8907L18.6511 16.9357C18.5507 17.1574 18.4578 17.3796 18.372 17.6088L16.9904 17.7016C16.4247 17.7376 15.9883 18.2099 15.9883 18.7751V22.4973C15.9883 23.063 16.4247 23.5279 16.9904 23.5708L18.372 23.6637C18.4578 23.8928 18.5507 24.1145 18.6511 24.3367L17.7349 25.3817C17.3629 25.8041 17.3843 26.4482 17.7848 26.8491L20.4116 29.4759C20.8125 29.8768 21.4496 29.8983 21.879 29.5258L22.9524 28.5882C23.1602 28.681 23.3748 28.7669 23.5895 28.8458L23.6824 30.2704C23.7184 30.8361 24.1907 31.2724 24.7559 31.2724H28.4781C29.0438 31.2724 29.5087 30.836 29.5516 30.2704L29.652 28.796C29.8522 28.7171 30.0454 28.6387 30.2391 28.5453L31.3556 29.5259C31.7849 29.8979 32.4221 29.8764 32.8229 29.476L35.4497 26.8492C35.8507 26.4483 35.8721 25.8112 35.4997 25.3818L34.4976 24.2365C34.5835 24.0502 34.6549 23.8645 34.7268 23.6782L36.2441 23.5779C36.8098 23.5419 37.2462 23.0696 37.2462 22.5044V18.7822C37.2462 18.203 36.8093 17.7375 36.2441 17.6945ZM35.0987 21.4812L33.8535 21.5671C33.3951 21.5955 33.0087 21.9106 32.8874 22.3545C32.7441 22.8772 32.5368 23.385 32.2717 23.8503C32.05 24.2438 32.1 24.7451 32.4005 25.0886L33.2164 26.0262L32.0066 27.236L31.0904 26.4342C30.7399 26.1336 30.2386 26.0837 29.8452 26.3123C29.3653 26.5914 28.8575 26.8061 28.3278 26.9564C27.8914 27.0783 27.5764 27.4647 27.5474 27.9156L27.4685 29.1109H25.7579L25.679 27.9515C25.6506 27.4932 25.3285 27.0997 24.8772 26.9854C24.3329 26.8421 23.8107 26.6274 23.3093 26.3483C22.9084 26.1266 22.4146 26.1765 22.0711 26.4771L21.2123 27.2285L20.0025 26.0188L20.74 25.1814C21.0405 24.8309 21.0905 24.3296 20.8618 23.9362C20.5682 23.4424 20.3465 22.9057 20.1962 22.3469C20.0744 21.903 19.6879 21.588 19.2301 21.5595L18.1277 21.4881V19.7775L19.2371 19.7061C19.6954 19.6777 20.0819 19.3556 20.2032 18.9117C20.3535 18.3605 20.5752 17.8238 20.8688 17.3224C21.098 16.9215 21.055 16.4207 20.747 16.0772L20.0095 15.2399L21.2193 14.0301L22.0781 14.7815C22.4216 15.0821 22.9154 15.132 23.3163 14.9103C23.8101 14.6312 24.3399 14.4165 24.8842 14.2732C25.328 14.1589 25.6571 13.765 25.686 13.3071L25.7649 12.1547H27.4755L27.5544 13.3501C27.5829 13.8009 27.8979 14.1874 28.3348 14.3092C28.8646 14.4595 29.3798 14.6742 29.8521 14.9533C30.2531 15.1825 30.7539 15.1395 31.0974 14.8315L32.0136 14.0296L33.2234 15.2394L32.4 16.1701C32.0995 16.5136 32.0495 17.0074 32.2712 17.4083C32.5359 17.8806 32.7436 18.3889 32.8869 18.9042C33.0087 19.3481 33.3951 19.6631 33.853 19.6916L35.0982 19.7775L35.0987 21.4812Z" fill="#16246B"/>
<path d="M26.6161 62.794C24.3468 62.794 22.4929 64.6409 22.4929 66.9172C22.4929 69.1936 24.3397 71.0404 26.6161 71.0404C28.8924 71.0404 30.7393 69.1936 30.7393 66.9172C30.7388 64.6405 28.8924 62.794 26.6161 62.794ZM26.6161 68.8854C25.5281 68.8854 24.6404 67.9977 24.6404 66.9097C24.6404 65.8217 25.5281 64.934 26.6161 64.934C27.704 64.934 28.5918 65.8217 28.5918 66.9097C28.5913 67.9977 27.704 68.8854 26.6161 68.8854Z" fill="#16246B"/>
<path d="M26.6161 16.5493C24.3468 16.5493 22.4929 18.3962 22.4929 20.6725C22.4929 22.9488 24.3397 24.7957 26.6161 24.7957C28.8924 24.7957 30.7393 22.9488 30.7393 20.6725C30.7388 18.3958 28.8924 16.5493 26.6161 16.5493ZM26.6161 22.6407C25.5281 22.6407 24.6404 21.7529 24.6404 20.665C24.6404 19.577 25.5281 18.6893 26.6161 18.6893C27.704 18.6893 28.5918 19.577 28.5918 20.665C28.5913 21.7529 27.704 22.6407 26.6161 22.6407Z" fill="#16246B"/>
</svg>
