<svg width="89" height="88" viewBox="0 0 89 88" fill="none" xmlns="http://www.w3.org/2000/svg">
<path d="M69.5757 37.5465L66.7127 31.3508L67.699 24.605C67.7628 24.1421 67.5443 23.6858 67.1421 23.4412L61.3367 19.7617L58.4737 13.5583C58.2812 13.1382 57.8585 12.8678 57.392 12.8662H50.5209L44.7234 9.18674C44.3312 8.93775 43.8275 8.93775 43.4353 9.18674L37.6377 12.8662H30.7428C30.2763 12.8678 29.8536 13.1382 29.6611 13.5583L26.7981 19.7617L21.0166 23.4412C20.6233 23.6924 20.4147 24.147 20.4835 24.605L21.4698 31.3508L18.6068 37.5465C18.4143 37.9649 18.4859 38.4558 18.7899 38.804L23.2994 43.9615L24.2857 50.7072C24.3506 51.1652 24.6796 51.5436 25.1278 51.6747L29.2235 52.862V78.8079C29.2351 79.1967 29.4393 79.5549 29.7699 79.7655C30.1005 79.9761 30.5149 80.0117 30.8777 79.8614L44.3495 73.8862L57.8297 79.8614C58.1986 80.0238 58.6258 79.9903 58.9642 79.7731C59.3031 79.5559 59.5078 79.1836 59.5078 78.7843V52.6966L63.0549 51.6667C63.5009 51.5367 63.8299 51.1621 63.8975 50.7075L64.8839 43.9617L69.3934 38.8042C69.6973 38.456 69.7682 37.9649 69.5757 37.5465ZM31.5857 53.5548H31.7127L36.1268 58.6339V74.9482L31.578 76.9687L31.5857 53.5548ZM44.3104 71.4108C44.1429 71.4108 43.9775 71.4454 43.825 71.5129L38.5128 73.8876V58.7918L44.0796 57.18L49.6464 58.7918V73.6517L44.8745 71.521C44.7103 71.4453 44.5311 71.4075 44.3497 71.4108L44.3104 71.4108ZM57.1221 53.3906V76.9777L52.0324 74.7055V58.6353L56.438 53.6034L57.1221 53.3906ZM62.8559 42.6741C62.7067 42.8452 62.6096 43.0553 62.578 43.2796L61.6555 49.6168L55.4363 51.425C55.2166 51.4892 55.0208 51.6148 54.8715 51.7864L50.6327 56.622L44.4135 54.8215C44.1955 54.7578 43.9636 54.7578 43.7456 54.8215L37.5264 56.622L33.2876 51.7864C33.1384 51.6148 32.9426 51.4892 32.7229 51.425L26.5197 49.6168L25.5972 43.2796C25.565 43.0553 25.4685 42.8452 25.3187 42.6741L21.0799 37.8309L23.7682 32.0126C23.8637 31.8064 23.8969 31.5766 23.8637 31.3523L22.925 25.0151L28.3803 21.5555C28.5717 21.4326 28.7243 21.2582 28.818 21.0526L31.5063 15.2266H37.988C38.2165 15.226 38.4401 15.1602 38.632 15.0379L44.0795 11.5783L49.527 15.0379C49.719 15.1602 49.9425 15.226 50.1711 15.2266H56.6527L59.341 21.0526C59.4348 21.2582 59.5868 21.4326 59.7781 21.5555L65.2334 25.0151L64.3109 31.3523C64.2776 31.5766 64.3115 31.8064 64.4069 32.0126L67.0952 37.8309L62.8559 42.6741Z" fill="#16246B"/>
<path d="M44.3426 16.176C39.3966 16.176 34.653 18.1197 31.157 21.5786C27.6604 25.0376 25.6982 29.7289 25.7017 34.6188C25.705 39.5086 27.6744 44.1972 31.1758 47.6512C34.6768 51.1053 39.4231 53.0419 44.3692 53.0353C49.3158 53.0281 54.056 51.0779 57.5476 47.614C61.0391 44.1501 62.9945 39.4565 62.984 34.5661C62.9674 29.6872 60.9964 25.0135 57.5031 21.5671C54.0099 18.1207 49.2781 16.1825 44.3426 16.176ZM44.3426 50.6764C40.0339 50.6764 35.9012 48.9856 32.8534 45.9747C29.8051 42.9633 28.091 38.879 28.0876 34.6193C28.0837 30.359 29.7912 26.2721 32.8346 23.2562C35.8779 20.2404 40.0074 18.5424 44.3166 18.5353C48.6253 18.5287 52.7609 20.2129 55.8136 23.2194C58.8669 26.2254 60.5877 30.3068 60.5982 34.5665C60.5943 38.8279 58.8801 42.9126 55.8323 45.9257C52.7852 48.9388 48.6529 50.6329 44.3426 50.6374V50.6764Z" fill="#16246B"/>
<path d="M69.5757 37.5465L66.7127 31.3508L67.699 24.605C67.7628 24.1421 67.5443 23.6858 67.1421 23.4412L61.3367 19.7617L58.4737 13.5583C58.2812 13.1382 57.8585 12.8678 57.392 12.8662H50.5209L44.7234 9.18674C44.3312 8.93775 43.8275 8.93775 43.4353 9.18674L37.6377 12.8662H30.7428C30.2763 12.8678 29.8536 13.1382 29.6611 13.5583L26.7981 19.7617L21.0166 23.4412C20.6233 23.6924 20.4147 24.147 20.4835 24.605L21.4698 31.3508L18.6068 37.5465C18.4143 37.9649 18.4859 38.4558 18.7899 38.804L23.2994 43.9615L24.2857 50.7072C24.3506 51.1652 24.6796 51.5436 25.1278 51.6747L29.2235 52.862V78.8079C29.2351 79.1967 29.4393 79.5549 29.7699 79.7655C30.1005 79.9761 30.5149 80.0117 30.8777 79.8614L44.3495 73.8862L57.8297 79.8614C58.1986 80.0238 58.6258 79.9903 58.9642 79.7731C59.3031 79.5559 59.5078 79.1836 59.5078 78.7843V52.6966L63.0549 51.6667C63.5009 51.5367 63.8299 51.1621 63.8975 50.7075L64.8839 43.9617L69.3934 38.8042C69.6973 38.456 69.7682 37.9649 69.5757 37.5465ZM31.5857 53.5548H31.7127L36.1268 58.6339V74.9482L31.578 76.9687L31.5857 53.5548ZM44.3104 71.4108C44.1429 71.4108 43.9775 71.4454 43.825 71.5129L38.5128 73.8876V58.7918L44.0796 57.18L49.6464 58.7918V73.6517L44.8745 71.521C44.7103 71.4453 44.5311 71.4075 44.3497 71.4108L44.3104 71.4108ZM57.1221 53.3906V76.9777L52.0324 74.7055V58.6353L56.438 53.6034L57.1221 53.3906ZM62.8559 42.6741C62.7067 42.8452 62.6096 43.0553 62.578 43.2796L61.6555 49.6168L55.4363 51.425C55.2166 51.4892 55.0208 51.6148 54.8715 51.7864L50.6327 56.622L44.4135 54.8215C44.1955 54.7578 43.9636 54.7578 43.7456 54.8215L37.5264 56.622L33.2876 51.7864C33.1384 51.6148 32.9426 51.4892 32.7229 51.425L26.5197 49.6168L25.5972 43.2796C25.565 43.0553 25.4685 42.8452 25.3187 42.6741L21.0799 37.8309L23.7682 32.0126C23.8637 31.8064 23.8969 31.5766 23.8637 31.3523L22.925 25.0151L28.3803 21.5555C28.5717 21.4326 28.7243 21.2582 28.818 21.0526L31.5063 15.2266H37.988C38.2165 15.226 38.4401 15.1602 38.632 15.0379L44.0795 11.5783L49.527 15.0379C49.719 15.1602 49.9425 15.226 50.1711 15.2266H56.6527L59.341 21.0526C59.4348 21.2582 59.5868 21.4326 59.7781 21.5555L65.2334 25.0151L64.3109 31.3523C64.2776 31.5766 64.3115 31.8064 64.4069 32.0126L67.0952 37.8309L62.8559 42.6741Z" stroke="#F0F0F0" stroke-width="0.2"/>
<path d="M44.3426 16.176C39.3966 16.176 34.653 18.1197 31.157 21.5786C27.6604 25.0376 25.6982 29.7289 25.7017 34.6188C25.705 39.5086 27.6744 44.1972 31.1758 47.6512C34.6768 51.1053 39.4231 53.0419 44.3692 53.0353C49.3158 53.0281 54.056 51.0779 57.5476 47.614C61.0391 44.1501 62.9945 39.4565 62.984 34.5661C62.9674 29.6872 60.9964 25.0135 57.5031 21.5671C54.0099 18.1207 49.2781 16.1825 44.3426 16.176ZM44.3426 50.6764C40.0339 50.6764 35.9012 48.9856 32.8534 45.9747C29.8051 42.9633 28.091 38.879 28.0876 34.6193C28.0837 30.359 29.7912 26.2721 32.8346 23.2562C35.8779 20.2404 40.0074 18.5424 44.3166 18.5353C48.6253 18.5287 52.7609 20.2129 55.8136 23.2194C58.8669 26.2254 60.5877 30.3068 60.5982 34.5665C60.5943 38.8279 58.8801 42.9126 55.8323 45.9257C52.7852 48.9388 48.6529 50.6329 44.3426 50.6374V50.6764Z" stroke="#F0F0F0" stroke-width="0.2"/>
</svg>
