<svg width="89" height="88" viewBox="0 0 89 88" fill="none" xmlns="http://www.w3.org/2000/svg">
<path d="M38.4481 21.6421C29.6932 22.1726 22.7073 29.2472 22.0883 37.9135C21.7349 42.6003 23.3263 47.11 26.4216 50.6477C28.8977 53.4778 30.3127 57.0148 30.4009 60.5518H30.1356C28.6324 60.5518 27.3944 61.7899 27.3944 63.2931C27.3944 64.0006 27.6596 64.6193 28.1019 65.1504C27.6596 65.5927 27.3944 66.3002 27.3944 67.0078C27.3944 67.7153 27.6596 68.334 28.1019 68.8652C27.6596 69.3074 27.3944 70.0149 27.3944 70.7225C27.3944 72.2258 28.6324 73.4637 30.1356 73.4637L30.5779 73.4631C31.0202 75.4969 32.7887 77.0001 34.9112 77.0001H44.2847C46.4072 77.0001 48.1758 75.4968 48.618 73.4631H49.1485C50.6517 73.4631 51.8897 72.2251 51.8897 70.7219C51.8897 70.0144 51.6245 69.3957 51.1822 68.8645C51.6245 68.4223 51.8897 67.7148 51.8897 67.0072C51.8897 66.2996 51.6245 65.681 51.1822 65.1498C51.6245 64.7075 51.8897 64 51.8897 63.2924C51.8897 61.7892 50.6517 60.5512 49.1485 60.5512H48.8832C48.9715 56.9254 50.2983 53.4766 52.5974 50.9124C55.5156 47.6406 57.1959 43.4843 57.1959 39.1511C57.1071 29.0712 48.617 21.0247 38.4481 21.6421ZM50.0324 66.9189C50.0324 67.4494 49.5901 67.8917 49.0596 67.8917H30.1354C29.6049 67.8917 29.1626 67.4494 29.1626 66.9189C29.1626 66.3884 29.6049 65.9461 30.1354 65.9461H49.0596C49.5901 66.0343 50.0324 66.3884 50.0324 66.9189ZM44.2841 75.0546H34.9105C33.7607 75.0546 32.788 74.347 32.4345 73.2861H46.7601C46.4067 74.3471 45.4339 75.0546 44.2841 75.0546ZM49.0597 71.517H30.047C29.5165 71.517 29.0742 71.0747 29.0742 70.5442C29.0742 70.0137 29.5165 69.5714 30.047 69.5714H48.9712C49.5017 69.5714 49.944 70.0137 49.944 70.5442C49.9434 71.0753 49.5902 71.517 49.0597 71.517ZM50.0324 63.2932C50.0324 63.8237 49.5902 64.266 49.0597 64.266H30.1354C29.6049 64.266 29.1626 63.8237 29.1626 63.2932C29.1626 62.7627 29.6049 62.3204 30.1354 62.3204H49.0597C49.5895 62.3204 50.0324 62.7627 50.0324 63.2932ZM38.3592 60.552L34.6451 41.893H44.5492L40.8351 60.552H38.3592ZM51.2705 49.7634C48.6174 52.6816 47.1142 56.5728 47.0259 60.6403H42.6044L47.3793 36.6754C47.4676 36.2332 47.2023 35.7027 46.6718 35.6145C46.2295 35.5262 45.699 35.7915 45.6108 36.322L44.8151 40.2131H34.2035L33.4078 36.322C33.3196 35.8797 32.8773 35.5262 32.3468 35.6145C31.9045 35.7027 31.5511 36.1449 31.6393 36.6754L36.4142 60.6403H31.9927C31.9045 56.661 30.4012 52.7699 27.5711 49.5864C24.8299 46.4029 23.4149 42.3347 23.68 38.0902C24.2105 30.2198 30.4893 23.9409 38.3597 23.4104C47.4681 22.7911 55.5007 30.1309 55.5007 39.1511C55.6772 43.0422 53.9236 46.8452 51.2705 49.7634Z" fill="#16246B"/>
<path d="M39.593 18.8124C40.1235 18.8124 40.4775 18.4589 40.4775 17.9278V6.96269C40.4775 6.4322 40.1241 6.07812 39.593 6.07812C39.0625 6.07812 38.7084 6.43158 38.7084 6.96269V17.9283C38.709 18.37 39.0625 18.8124 39.593 18.8124Z" fill="#16246B"/>
<path d="M66.3031 18.5472C65.9497 18.1937 65.4185 18.1937 65.0651 18.5472L57.283 26.3293C56.9296 26.6827 56.9296 27.2138 57.283 27.5673C57.46 27.7443 57.7253 27.8325 57.9023 27.8325C58.0794 27.8325 58.3446 27.7443 58.5216 27.5673L66.3037 19.7852C66.6566 19.4311 66.6566 18.9006 66.3031 18.5472Z" fill="#16246B"/>
<path d="M12.0031 18.5472C11.6496 18.1937 11.1185 18.1937 10.7651 18.5472C10.4116 18.9006 10.4116 19.4318 10.7651 19.7852L18.5472 27.5673C18.7242 27.7443 18.9895 27.8325 19.1665 27.8325C19.3436 27.8325 19.6088 27.7443 19.7858 27.5673C20.1393 27.2138 20.1393 26.6827 19.7858 26.3293L12.0031 18.5472Z" fill="#16246B"/>
<path d="M64.7303 51.0001C64.3796 51.0013 64.0853 51.277 64.0455 51.6411L63.8117 53.8075C63.369 53.9576 62.9388 54.1413 62.5245 54.3624L60.8914 53.0066C60.6163 52.7778 60.2205 52.8007 59.9713 53.0605L57.4696 55.6704C57.2223 55.9309 57.2007 56.3438 57.4196 56.6307L58.7164 58.3451C58.5059 58.7767 58.3326 59.2228 58.1897 59.6841L56.112 59.9298C55.7625 59.9721 55.4991 60.2823 55.5 60.6499V64.3444C55.4994 64.7124 55.7625 65.0223 56.112 65.0646L58.1897 65.3161C58.332 65.7748 58.5071 66.2209 58.7164 66.6505L57.4196 68.3636C57.2007 68.6506 57.2223 69.0634 57.4696 69.3239L59.9716 71.9338C60.2192 72.1953 60.615 72.2208 60.8914 71.9932L62.53 70.6319C62.9413 70.8511 63.3674 71.038 63.8064 71.1868L64.0454 73.3589C64.0852 73.7234 64.3795 73.9987 64.7303 74H68.2682C68.6189 73.9987 68.9132 73.723 68.953 73.3589L69.192 71.1868C69.6332 71.037 70.0605 70.8523 70.474 70.6319L72.1071 71.9932C72.3834 72.2211 72.7796 72.1956 73.0269 71.9338L75.5289 69.3239C75.7762 69.0634 75.7978 68.6506 75.5789 68.3636L74.278 66.6505C74.4889 66.2186 74.6699 65.7715 74.8131 65.3102L76.8868 65.0649C77.2369 65.0232 77.5009 64.713 77.5 64.3447V60.6502C77.5006 60.2819 77.2366 59.9717 76.8868 59.93L74.8131 59.6844C74.6693 59.2205 74.4908 58.774 74.278 58.3399L75.5789 56.6368C75.8009 56.3488 75.7796 55.9321 75.5289 55.6707L73.0269 53.0608C72.7781 52.8009 72.3822 52.7777 72.1071 53.0072L70.474 54.363C70.0597 54.1418 69.6292 53.9579 69.1868 53.8081L68.953 51.6417C68.9135 51.277 68.6193 51.0013 68.2685 51L64.7303 51.0001ZM65.3475 52.4462H67.6507L67.86 54.3895C67.8934 54.6846 68.0959 54.9283 68.3707 55.0038C69.0269 55.183 69.6592 55.4564 70.2443 55.8144C70.491 55.9658 70.8013 55.9425 71.0252 55.7566L72.4854 54.5393L74.1144 56.237L72.9445 57.768C72.7657 58.0023 72.7438 58.3274 72.8892 58.5857C73.2322 59.1974 73.4928 59.853 73.6645 60.539C73.7377 60.8279 73.9733 61.04 74.2577 61.0729L76.1152 61.2976V63.6986L74.2577 63.9175C73.9721 63.951 73.7358 64.1657 73.6645 64.4569C73.4932 65.1428 73.236 65.7984 72.8932 66.4102C72.7466 66.6674 72.7672 66.9928 72.9445 67.2278L74.1144 68.7585L72.4854 70.4561L71.0252 69.2401C70.8016 69.0536 70.4913 69.03 70.2443 69.1807C69.6601 69.5387 69.0299 69.8134 68.3747 69.9929C68.1009 70.0688 67.8992 70.3118 67.8656 70.6059L67.6507 72.5547H65.3476L65.1326 70.6059C65.099 70.3118 64.8971 70.0691 64.6235 69.9929C63.9695 69.8141 63.343 69.5432 62.7595 69.1865C62.5137 69.0342 62.2034 69.0555 61.9786 69.2401L60.5129 70.4561L58.8838 68.7585L60.0481 67.2278C60.2272 66.9938 60.2498 66.6687 60.105 66.4102C59.7638 65.8001 59.5047 65.1464 59.3337 64.4627C59.2608 64.1741 59.0258 63.9621 58.7421 63.9288L56.8832 63.7035V61.297L58.7421 61.0723C59.0258 61.0391 59.2608 60.827 59.3337 60.5384C59.5047 59.855 59.7638 59.1991 60.105 58.5893C60.2492 58.3311 60.2266 58.0066 60.0481 57.7729L58.8838 56.2406L60.5129 54.5387L61.9786 55.756C62.2024 55.9423 62.5127 55.9652 62.7595 55.8138C63.344 55.4561 63.9686 55.1821 64.6235 55.0032C64.8998 54.929 65.1042 54.6849 65.1382 54.3889L65.3475 52.4462ZM66.5016 57.1547C63.6878 57.1547 61.3912 59.5554 61.3912 62.4974C61.3912 65.4391 63.6875 67.8401 66.5016 67.8401C69.3154 67.8401 71.6081 65.4393 71.6081 62.4974C71.6081 59.5556 69.3158 57.1547 66.5016 57.1547ZM66.5016 58.6008C68.5679 58.6008 70.2248 60.3372 70.2248 62.4974C70.2248 64.6575 68.5682 66.3939 66.5016 66.3939C64.4353 66.3939 62.7745 64.6575 62.7745 62.4974C62.7745 60.3372 64.4354 58.6008 66.5016 58.6008Z" fill="#16246B"/>
<path d="M38.4481 21.6421C29.6932 22.1726 22.7073 29.2472 22.0883 37.9135C21.7349 42.6003 23.3263 47.11 26.4216 50.6477C28.8977 53.4778 30.3127 57.0148 30.4009 60.5518H30.1356C28.6324 60.5518 27.3944 61.7899 27.3944 63.2931C27.3944 64.0006 27.6596 64.6193 28.1019 65.1504C27.6596 65.5927 27.3944 66.3002 27.3944 67.0078C27.3944 67.7153 27.6596 68.334 28.1019 68.8652C27.6596 69.3074 27.3944 70.0149 27.3944 70.7225C27.3944 72.2258 28.6324 73.4637 30.1356 73.4637L30.5779 73.4631C31.0202 75.4969 32.7887 77.0001 34.9112 77.0001H44.2847C46.4072 77.0001 48.1758 75.4968 48.618 73.4631H49.1485C50.6517 73.4631 51.8897 72.2251 51.8897 70.7219C51.8897 70.0144 51.6245 69.3957 51.1822 68.8645C51.6245 68.4223 51.8897 67.7148 51.8897 67.0072C51.8897 66.2996 51.6245 65.681 51.1822 65.1498C51.6245 64.7075 51.8897 64 51.8897 63.2924C51.8897 61.7892 50.6517 60.5512 49.1485 60.5512H48.8832C48.9715 56.9254 50.2983 53.4766 52.5974 50.9124C55.5156 47.6406 57.1959 43.4843 57.1959 39.1511C57.1071 29.0712 48.617 21.0247 38.4481 21.6421ZM50.0324 66.9189C50.0324 67.4494 49.5901 67.8917 49.0596 67.8917H30.1354C29.6049 67.8917 29.1626 67.4494 29.1626 66.9189C29.1626 66.3884 29.6049 65.9461 30.1354 65.9461H49.0596C49.5901 66.0343 50.0324 66.3884 50.0324 66.9189ZM44.2841 75.0546H34.9105C33.7607 75.0546 32.788 74.347 32.4345 73.2861H46.7601C46.4067 74.3471 45.4339 75.0546 44.2841 75.0546ZM49.0597 71.517H30.047C29.5165 71.517 29.0742 71.0747 29.0742 70.5442C29.0742 70.0137 29.5165 69.5714 30.047 69.5714H48.9712C49.5017 69.5714 49.944 70.0137 49.944 70.5442C49.9434 71.0753 49.5902 71.517 49.0597 71.517ZM50.0324 63.2932C50.0324 63.8237 49.5902 64.266 49.0597 64.266H30.1354C29.6049 64.266 29.1626 63.8237 29.1626 63.2932C29.1626 62.7627 29.6049 62.3204 30.1354 62.3204H49.0597C49.5895 62.3204 50.0324 62.7627 50.0324 63.2932ZM38.3592 60.552L34.6451 41.893H44.5492L40.8351 60.552H38.3592ZM51.2705 49.7634C48.6174 52.6816 47.1142 56.5728 47.0259 60.6403H42.6044L47.3793 36.6754C47.4676 36.2332 47.2023 35.7027 46.6718 35.6145C46.2295 35.5262 45.699 35.7915 45.6108 36.322L44.8151 40.2131H34.2035L33.4078 36.322C33.3196 35.8797 32.8773 35.5262 32.3468 35.6145C31.9045 35.7027 31.5511 36.1449 31.6393 36.6754L36.4142 60.6403H31.9927C31.9045 56.661 30.4012 52.7699 27.5711 49.5864C24.8299 46.4029 23.4149 42.3347 23.68 38.0902C24.2105 30.2198 30.4893 23.9409 38.3597 23.4104C47.4681 22.7911 55.5007 30.1309 55.5007 39.1511C55.6772 43.0422 53.9236 46.8452 51.2705 49.7634Z" stroke="#16246B" stroke-width="0.5"/>
<path d="M39.593 18.8124C40.1235 18.8124 40.4775 18.4589 40.4775 17.9278V6.96269C40.4775 6.4322 40.1241 6.07812 39.593 6.07812C39.0625 6.07812 38.7084 6.43158 38.7084 6.96269V17.9283C38.709 18.37 39.0625 18.8124 39.593 18.8124Z" stroke="#16246B" stroke-width="0.5"/>
<path d="M66.3031 18.5472C65.9497 18.1937 65.4185 18.1937 65.0651 18.5472L57.283 26.3293C56.9296 26.6827 56.9296 27.2138 57.283 27.5673C57.46 27.7443 57.7253 27.8325 57.9023 27.8325C58.0794 27.8325 58.3446 27.7443 58.5216 27.5673L66.3037 19.7852C66.6566 19.4311 66.6566 18.9006 66.3031 18.5472Z" stroke="#16246B" stroke-width="0.5"/>
<path d="M12.0031 18.5472C11.6496 18.1937 11.1185 18.1937 10.7651 18.5472C10.4116 18.9006 10.4116 19.4318 10.7651 19.7852L18.5472 27.5673C18.7242 27.7443 18.9895 27.8325 19.1665 27.8325C19.3436 27.8325 19.6088 27.7443 19.7858 27.5673C20.1393 27.2138 20.1393 26.6827 19.7858 26.3293L12.0031 18.5472Z" stroke="#16246B" stroke-width="0.5"/>
<path d="M64.7303 51.0001C64.3796 51.0013 64.0853 51.277 64.0455 51.6411L63.8117 53.8075C63.369 53.9576 62.9388 54.1413 62.5245 54.3624L60.8914 53.0066C60.6163 52.7778 60.2205 52.8007 59.9713 53.0605L57.4696 55.6704C57.2223 55.9309 57.2007 56.3438 57.4196 56.6307L58.7164 58.3451C58.5059 58.7767 58.3326 59.2228 58.1897 59.6841L56.112 59.9298C55.7625 59.9721 55.4991 60.2823 55.5 60.6499V64.3444C55.4994 64.7124 55.7625 65.0223 56.112 65.0646L58.1897 65.3161C58.332 65.7748 58.5071 66.2209 58.7164 66.6505L57.4196 68.3636C57.2007 68.6506 57.2223 69.0634 57.4696 69.3239L59.9716 71.9338C60.2192 72.1953 60.615 72.2208 60.8914 71.9932L62.53 70.6319C62.9413 70.8511 63.3674 71.038 63.8064 71.1868L64.0454 73.3589C64.0852 73.7234 64.3795 73.9987 64.7303 74H68.2682C68.6189 73.9987 68.9132 73.723 68.953 73.3589L69.192 71.1868C69.6332 71.037 70.0605 70.8523 70.474 70.6319L72.1071 71.9932C72.3834 72.2211 72.7796 72.1956 73.0269 71.9338L75.5289 69.3239C75.7762 69.0634 75.7978 68.6506 75.5789 68.3636L74.278 66.6505C74.4889 66.2186 74.6699 65.7715 74.8131 65.3102L76.8868 65.0649C77.2369 65.0232 77.5009 64.713 77.5 64.3447V60.6502C77.5006 60.2819 77.2366 59.9717 76.8868 59.93L74.8131 59.6844C74.6693 59.2205 74.4908 58.774 74.278 58.3399L75.5789 56.6368C75.8009 56.3488 75.7796 55.9321 75.5289 55.6707L73.0269 53.0608C72.7781 52.8009 72.3822 52.7777 72.1071 53.0072L70.474 54.363C70.0597 54.1418 69.6292 53.9579 69.1868 53.8081L68.953 51.6417C68.9135 51.277 68.6193 51.0013 68.2685 51L64.7303 51.0001ZM65.3475 52.4462H67.6507L67.86 54.3895C67.8934 54.6846 68.0959 54.9283 68.3707 55.0038C69.0269 55.183 69.6592 55.4564 70.2443 55.8144C70.491 55.9658 70.8013 55.9425 71.0252 55.7566L72.4854 54.5393L74.1144 56.237L72.9445 57.768C72.7657 58.0023 72.7438 58.3274 72.8892 58.5857C73.2322 59.1974 73.4928 59.853 73.6645 60.539C73.7377 60.8279 73.9733 61.04 74.2577 61.0729L76.1152 61.2976V63.6986L74.2577 63.9175C73.9721 63.951 73.7358 64.1657 73.6645 64.4569C73.4932 65.1428 73.236 65.7984 72.8932 66.4102C72.7466 66.6674 72.7672 66.9928 72.9445 67.2278L74.1144 68.7585L72.4854 70.4561L71.0252 69.2401C70.8016 69.0536 70.4913 69.03 70.2443 69.1807C69.6601 69.5387 69.0299 69.8134 68.3747 69.9929C68.1009 70.0688 67.8992 70.3118 67.8656 70.6059L67.6507 72.5547H65.3476L65.1326 70.6059C65.099 70.3118 64.8971 70.0691 64.6235 69.9929C63.9695 69.8141 63.343 69.5432 62.7595 69.1865C62.5137 69.0342 62.2034 69.0555 61.9786 69.2401L60.5129 70.4561L58.8838 68.7585L60.0481 67.2278C60.2272 66.9938 60.2498 66.6687 60.105 66.4102C59.7638 65.8001 59.5047 65.1464 59.3337 64.4627C59.2608 64.1741 59.0258 63.9621 58.7421 63.9288L56.8832 63.7035V61.297L58.7421 61.0723C59.0258 61.0391 59.2608 60.827 59.3337 60.5384C59.5047 59.855 59.7638 59.1991 60.105 58.5893C60.2492 58.3311 60.2266 58.0066 60.0481 57.7729L58.8838 56.2406L60.5129 54.5387L61.9786 55.756C62.2024 55.9423 62.5127 55.9652 62.7595 55.8138C63.344 55.4561 63.9686 55.1821 64.6235 55.0032C64.8998 54.929 65.1042 54.6849 65.1382 54.3889L65.3475 52.4462ZM66.5016 57.1547C63.6878 57.1547 61.3912 59.5554 61.3912 62.4974C61.3912 65.4391 63.6875 67.8401 66.5016 67.8401C69.3154 67.8401 71.6081 65.4393 71.6081 62.4974C71.6081 59.5556 69.3158 57.1547 66.5016 57.1547ZM66.5016 58.6008C68.5679 58.6008 70.2248 60.3372 70.2248 62.4974C70.2248 64.6575 68.5682 66.3939 66.5016 66.3939C64.4353 66.3939 62.7745 64.6575 62.7745 62.4974C62.7745 60.3372 64.4354 58.6008 66.5016 58.6008Z" stroke="#16246B" stroke-width="0.5"/>
</svg>
