<svg width="89" height="88" viewBox="0 0 89 88" fill="none" xmlns="http://www.w3.org/2000/svg">
<mask id="path-1-inside-1_2424_58250" fill="white">
<path d="M76.5279 14.5166H14.1651C12.6946 14.5166 11.5 15.712 11.5 17.1817V64.65C11.5 66.1205 12.6954 67.3151 14.1651 67.3151H33.0655C32.2854 68.7471 31.3103 70.0744 30.1661 71.292H26.6453C25.897 71.292 25.2912 71.8978 25.2912 72.6461C25.2912 73.3943 25.897 74.0001 26.6453 74.0001H64.0447C64.793 74.0001 65.3988 73.3943 65.3988 72.6461C65.3988 71.8978 64.793 71.292 64.0447 71.292H60.5224C59.3789 70.0736 58.403 68.7471 57.6236 67.3151H76.5247C77.9952 67.3151 79.1898 66.1198 79.1898 64.65V17.1817C79.192 15.712 77.9976 14.5166 76.5279 14.5166ZM76.4857 17.1825V57.2909L14.2026 57.2901L14.167 17.2254L76.4857 17.1825ZM56.9649 71.2931H33.7271C34.663 70.0503 35.4564 68.7214 36.1031 67.3163H54.5876C55.2342 68.7208 56.029 70.0503 56.9649 71.2931ZM55.5708 64.6229C55.5389 64.6207 55.5085 64.6088 55.4759 64.6088H35.2166C35.1521 64.6088 35.092 64.6281 35.029 64.637L14.2079 64.6511L14.2034 59.9971H76.4865V64.6087L55.5708 64.6229Z"/>
<path d="M30.5982 34.9904C31.1233 35.2907 31.652 36.1079 31.652 37.258C31.652 38.4081 31.1233 39.2252 30.602 39.5242C29.6543 40.0633 29.1975 41.1994 29.5178 42.2263C29.8048 43.1377 30.1726 44.0312 30.6124 44.8797C31.1322 45.883 32.2608 46.3924 33.2923 46.0884C33.8766 45.923 34.8361 46.1158 35.6629 46.9412C36.4883 47.7665 36.6848 48.7261 36.5157 49.309C36.2131 50.3427 36.7204 51.4706 37.7229 51.9919C38.5728 52.4324 39.4678 52.8009 40.3763 53.0857C41.4026 53.406 42.5356 52.9537 43.0784 52.0067C43.3794 51.481 44.1966 50.9523 45.3467 50.9523C46.4968 50.9523 47.314 51.481 47.613 52.006C48.0386 52.749 48.8291 53.188 49.6425 53.188C49.8657 53.188 50.0919 53.1554 50.3114 53.0864C51.222 52.8024 52.1163 52.4331 52.9698 51.9919C53.9717 51.4714 54.4796 50.3435 54.1771 49.3105C54.0065 48.7262 54.2045 47.7674 55.0299 46.9414C55.8552 46.116 56.817 45.9165 57.3962 46.0886C58.4284 46.3896 59.5607 45.8839 60.0799 44.8799C60.5174 44.0352 60.8852 43.1424 61.1744 42.2237C61.4932 41.1974 61.0379 40.0635 60.0939 39.5252C59.5689 39.2248 59.0402 38.4077 59.0402 37.2576C59.0402 36.1074 59.5689 35.2903 60.0902 34.9913C61.0379 34.4522 61.4947 33.3162 61.1729 32.2913C60.8859 31.3748 60.5181 30.4812 60.0791 29.6351C59.5593 28.6318 58.4321 28.1201 57.3977 28.4264C56.8163 28.5932 55.8545 28.3997 55.0285 27.5736C54.2032 26.7475 54.0052 25.7887 54.1757 25.2058C54.4783 24.1721 53.9711 23.0441 52.967 22.5229C52.1142 22.0809 51.2207 21.7124 50.3145 21.4306C49.2874 21.105 48.1543 21.5618 47.6108 22.5095C47.3142 23.0345 46.497 23.5632 45.3468 23.5632C44.1967 23.5632 43.3796 23.0345 43.0793 22.5095C42.5372 21.5618 41.3974 21.1058 40.3807 21.4306C39.4686 21.7146 38.5736 22.0839 37.7223 22.5243C36.7212 23.0449 36.214 24.1728 36.5165 25.2042C36.6856 25.7901 36.4891 26.7496 35.6638 27.5734C34.8377 28.3995 33.8803 28.5982 33.2959 28.4277C32.2555 28.1251 31.1314 28.6338 30.613 29.6364C30.1725 30.4862 29.804 31.3805 29.5185 32.2925C29.1974 33.3166 29.6535 34.452 30.5982 34.9904ZM32.2007 32.7999C32.395 32.2244 32.6293 31.6601 32.8985 31.1143C34.4706 31.425 36.2643 30.8021 37.5776 29.4896C38.8879 28.1793 39.5027 26.3826 39.2023 24.8105C39.7473 24.5406 40.3117 24.307 40.8878 24.1127C41.7918 25.4512 43.4692 26.2714 45.3467 26.2714C47.2258 26.2714 48.9031 25.452 49.8035 24.112C50.3789 24.3063 50.9447 24.5406 51.4905 24.8098C51.1894 26.3789 51.8027 28.1771 53.1152 29.4888C54.4255 30.7991 56.2141 31.4161 57.7943 31.1136C58.0627 31.6571 58.297 32.2214 58.4921 32.7991C57.1528 33.7023 56.3327 35.3797 56.3327 37.2572C56.3327 39.1333 57.1513 40.8115 58.4921 41.714C58.2948 42.2931 58.0627 42.8574 57.7943 43.401C56.217 43.1021 54.427 43.7146 53.1152 45.0257C51.8034 46.3375 51.1887 48.1343 51.4905 49.7048C50.9447 49.9747 50.3796 50.2083 49.8035 50.4026C48.9017 49.0641 47.2259 48.2447 45.3467 48.2447C43.4691 48.2447 41.7916 49.0641 40.8886 50.4041C40.3132 50.2098 39.7474 49.9755 39.2031 49.7063C39.5041 48.1372 38.8894 46.339 37.5783 45.0257C36.2665 43.7154 34.4713 43.1044 32.8993 43.4025C32.6294 42.8567 32.3958 42.2916 32.2 41.7169C33.5392 40.8152 34.3601 39.1378 34.3601 37.2588C34.3601 35.3805 33.5407 33.7037 32.2007 32.7999Z"/>
<path d="M45.3499 43.9926C49.0622 43.9926 52.0832 40.9715 52.0832 37.2578C52.0832 33.5435 49.0622 30.5224 45.3499 30.5224C41.6364 30.5224 38.6152 33.5434 38.6152 37.2572C38.6152 40.9715 41.6362 43.9926 45.3499 43.9926ZM45.3499 33.2306C47.5701 33.2306 49.3758 35.037 49.3758 37.258C49.3758 39.4789 47.5701 41.2846 45.3499 41.2846C43.1291 41.2846 41.3226 39.4782 41.3226 37.2572C41.3226 35.0362 43.129 33.2306 45.3499 33.2306Z"/>
</mask>
<path d="M76.5279 14.5166H14.1651C12.6946 14.5166 11.5 15.712 11.5 17.1817V64.65C11.5 66.1205 12.6954 67.3151 14.1651 67.3151H33.0655C32.2854 68.7471 31.3103 70.0744 30.1661 71.292H26.6453C25.897 71.292 25.2912 71.8978 25.2912 72.6461C25.2912 73.3943 25.897 74.0001 26.6453 74.0001H64.0447C64.793 74.0001 65.3988 73.3943 65.3988 72.6461C65.3988 71.8978 64.793 71.292 64.0447 71.292H60.5224C59.3789 70.0736 58.403 68.7471 57.6236 67.3151H76.5247C77.9952 67.3151 79.1898 66.1198 79.1898 64.65V17.1817C79.192 15.712 77.9976 14.5166 76.5279 14.5166ZM76.4857 17.1825V57.2909L14.2026 57.2901L14.167 17.2254L76.4857 17.1825ZM56.9649 71.2931H33.7271C34.663 70.0503 35.4564 68.7214 36.1031 67.3163H54.5876C55.2342 68.7208 56.029 70.0503 56.9649 71.2931ZM55.5708 64.6229C55.5389 64.6207 55.5085 64.6088 55.4759 64.6088H35.2166C35.1521 64.6088 35.092 64.6281 35.029 64.637L14.2079 64.6511L14.2034 59.9971H76.4865V64.6087L55.5708 64.6229Z" fill="#16246B"/>
<path d="M30.5982 34.9904C31.1233 35.2907 31.652 36.1079 31.652 37.258C31.652 38.4081 31.1233 39.2252 30.602 39.5242C29.6543 40.0633 29.1975 41.1994 29.5178 42.2263C29.8048 43.1377 30.1726 44.0312 30.6124 44.8797C31.1322 45.883 32.2608 46.3924 33.2923 46.0884C33.8766 45.923 34.8361 46.1158 35.6629 46.9412C36.4883 47.7665 36.6848 48.7261 36.5157 49.309C36.2131 50.3427 36.7204 51.4706 37.7229 51.9919C38.5728 52.4324 39.4678 52.8009 40.3763 53.0857C41.4026 53.406 42.5356 52.9537 43.0784 52.0067C43.3794 51.481 44.1966 50.9523 45.3467 50.9523C46.4968 50.9523 47.314 51.481 47.613 52.006C48.0386 52.749 48.8291 53.188 49.6425 53.188C49.8657 53.188 50.0919 53.1554 50.3114 53.0864C51.222 52.8024 52.1163 52.4331 52.9698 51.9919C53.9717 51.4714 54.4796 50.3435 54.1771 49.3105C54.0065 48.7262 54.2045 47.7674 55.0299 46.9414C55.8552 46.116 56.817 45.9165 57.3962 46.0886C58.4284 46.3896 59.5607 45.8839 60.0799 44.8799C60.5174 44.0352 60.8852 43.1424 61.1744 42.2237C61.4932 41.1974 61.0379 40.0635 60.0939 39.5252C59.5689 39.2248 59.0402 38.4077 59.0402 37.2576C59.0402 36.1074 59.5689 35.2903 60.0902 34.9913C61.0379 34.4522 61.4947 33.3162 61.1729 32.2913C60.8859 31.3748 60.5181 30.4812 60.0791 29.6351C59.5593 28.6318 58.4321 28.1201 57.3977 28.4264C56.8163 28.5932 55.8545 28.3997 55.0285 27.5736C54.2032 26.7475 54.0052 25.7887 54.1757 25.2058C54.4783 24.1721 53.9711 23.0441 52.967 22.5229C52.1142 22.0809 51.2207 21.7124 50.3145 21.4306C49.2874 21.105 48.1543 21.5618 47.6108 22.5095C47.3142 23.0345 46.497 23.5632 45.3468 23.5632C44.1967 23.5632 43.3796 23.0345 43.0793 22.5095C42.5372 21.5618 41.3974 21.1058 40.3807 21.4306C39.4686 21.7146 38.5736 22.0839 37.7223 22.5243C36.7212 23.0449 36.214 24.1728 36.5165 25.2042C36.6856 25.7901 36.4891 26.7496 35.6638 27.5734C34.8377 28.3995 33.8803 28.5982 33.2959 28.4277C32.2555 28.1251 31.1314 28.6338 30.613 29.6364C30.1725 30.4862 29.804 31.3805 29.5185 32.2925C29.1974 33.3166 29.6535 34.452 30.5982 34.9904ZM32.2007 32.7999C32.395 32.2244 32.6293 31.6601 32.8985 31.1143C34.4706 31.425 36.2643 30.8021 37.5776 29.4896C38.8879 28.1793 39.5027 26.3826 39.2023 24.8105C39.7473 24.5406 40.3117 24.307 40.8878 24.1127C41.7918 25.4512 43.4692 26.2714 45.3467 26.2714C47.2258 26.2714 48.9031 25.452 49.8035 24.112C50.3789 24.3063 50.9447 24.5406 51.4905 24.8098C51.1894 26.3789 51.8027 28.1771 53.1152 29.4888C54.4255 30.7991 56.2141 31.4161 57.7943 31.1136C58.0627 31.6571 58.297 32.2214 58.4921 32.7991C57.1528 33.7023 56.3327 35.3797 56.3327 37.2572C56.3327 39.1333 57.1513 40.8115 58.4921 41.714C58.2948 42.2931 58.0627 42.8574 57.7943 43.401C56.217 43.1021 54.427 43.7146 53.1152 45.0257C51.8034 46.3375 51.1887 48.1343 51.4905 49.7048C50.9447 49.9747 50.3796 50.2083 49.8035 50.4026C48.9017 49.0641 47.2259 48.2447 45.3467 48.2447C43.4691 48.2447 41.7916 49.0641 40.8886 50.4041C40.3132 50.2098 39.7474 49.9755 39.2031 49.7063C39.5041 48.1372 38.8894 46.339 37.5783 45.0257C36.2665 43.7154 34.4713 43.1044 32.8993 43.4025C32.6294 42.8567 32.3958 42.2916 32.2 41.7169C33.5392 40.8152 34.3601 39.1378 34.3601 37.2588C34.3601 35.3805 33.5407 33.7037 32.2007 32.7999Z" fill="#16246B"/>
<path d="M45.3499 43.9926C49.0622 43.9926 52.0832 40.9715 52.0832 37.2578C52.0832 33.5435 49.0622 30.5224 45.3499 30.5224C41.6364 30.5224 38.6152 33.5434 38.6152 37.2572C38.6152 40.9715 41.6362 43.9926 45.3499 43.9926ZM45.3499 33.2306C47.5701 33.2306 49.3758 35.037 49.3758 37.258C49.3758 39.4789 47.5701 41.2846 45.3499 41.2846C43.1291 41.2846 41.3226 39.4782 41.3226 37.2572C41.3226 35.0362 43.129 33.2306 45.3499 33.2306Z" fill="#16246B"/>
<path d="M76.5279 14.5166H14.1651C12.6946 14.5166 11.5 15.712 11.5 17.1817V64.65C11.5 66.1205 12.6954 67.3151 14.1651 67.3151H33.0655C32.2854 68.7471 31.3103 70.0744 30.1661 71.292H26.6453C25.897 71.292 25.2912 71.8978 25.2912 72.6461C25.2912 73.3943 25.897 74.0001 26.6453 74.0001H64.0447C64.793 74.0001 65.3988 73.3943 65.3988 72.6461C65.3988 71.8978 64.793 71.292 64.0447 71.292H60.5224C59.3789 70.0736 58.403 68.7471 57.6236 67.3151H76.5247C77.9952 67.3151 79.1898 66.1198 79.1898 64.65V17.1817C79.192 15.712 77.9976 14.5166 76.5279 14.5166ZM76.4857 17.1825V57.2909L14.2026 57.2901L14.167 17.2254L76.4857 17.1825ZM56.9649 71.2931H33.7271C34.663 70.0503 35.4564 68.7214 36.1031 67.3163H54.5876C55.2342 68.7208 56.029 70.0503 56.9649 71.2931ZM55.5708 64.6229C55.5389 64.6207 55.5085 64.6088 55.4759 64.6088H35.2166C35.1521 64.6088 35.092 64.6281 35.029 64.637L14.2079 64.6511L14.2034 59.9971H76.4865V64.6087L55.5708 64.6229Z" stroke="#F0F0F0" stroke-width="0.4" mask="url(#path-1-inside-1_2424_58250)"/>
<path d="M30.5982 34.9904C31.1233 35.2907 31.652 36.1079 31.652 37.258C31.652 38.4081 31.1233 39.2252 30.602 39.5242C29.6543 40.0633 29.1975 41.1994 29.5178 42.2263C29.8048 43.1377 30.1726 44.0312 30.6124 44.8797C31.1322 45.883 32.2608 46.3924 33.2923 46.0884C33.8766 45.923 34.8361 46.1158 35.6629 46.9412C36.4883 47.7665 36.6848 48.7261 36.5157 49.309C36.2131 50.3427 36.7204 51.4706 37.7229 51.9919C38.5728 52.4324 39.4678 52.8009 40.3763 53.0857C41.4026 53.406 42.5356 52.9537 43.0784 52.0067C43.3794 51.481 44.1966 50.9523 45.3467 50.9523C46.4968 50.9523 47.314 51.481 47.613 52.006C48.0386 52.749 48.8291 53.188 49.6425 53.188C49.8657 53.188 50.0919 53.1554 50.3114 53.0864C51.222 52.8024 52.1163 52.4331 52.9698 51.9919C53.9717 51.4714 54.4796 50.3435 54.1771 49.3105C54.0065 48.7262 54.2045 47.7674 55.0299 46.9414C55.8552 46.116 56.817 45.9165 57.3962 46.0886C58.4284 46.3896 59.5607 45.8839 60.0799 44.8799C60.5174 44.0352 60.8852 43.1424 61.1744 42.2237C61.4932 41.1974 61.0379 40.0635 60.0939 39.5252C59.5689 39.2248 59.0402 38.4077 59.0402 37.2576C59.0402 36.1074 59.5689 35.2903 60.0902 34.9913C61.0379 34.4522 61.4947 33.3162 61.1729 32.2913C60.8859 31.3748 60.5181 30.4812 60.0791 29.6351C59.5593 28.6318 58.4321 28.1201 57.3977 28.4264C56.8163 28.5932 55.8545 28.3997 55.0285 27.5736C54.2032 26.7475 54.0052 25.7887 54.1757 25.2058C54.4783 24.1721 53.9711 23.0441 52.967 22.5229C52.1142 22.0809 51.2207 21.7124 50.3145 21.4306C49.2874 21.105 48.1543 21.5618 47.6108 22.5095C47.3142 23.0345 46.497 23.5632 45.3468 23.5632C44.1967 23.5632 43.3796 23.0345 43.0793 22.5095C42.5372 21.5618 41.3974 21.1058 40.3807 21.4306C39.4686 21.7146 38.5736 22.0839 37.7223 22.5243C36.7212 23.0449 36.214 24.1728 36.5165 25.2042C36.6856 25.7901 36.4891 26.7496 35.6638 27.5734C34.8377 28.3995 33.8803 28.5982 33.2959 28.4277C32.2555 28.1251 31.1314 28.6338 30.613 29.6364C30.1725 30.4862 29.804 31.3805 29.5185 32.2925C29.1974 33.3166 29.6535 34.452 30.5982 34.9904ZM32.2007 32.7999C32.395 32.2244 32.6293 31.6601 32.8985 31.1143C34.4706 31.425 36.2643 30.8021 37.5776 29.4896C38.8879 28.1793 39.5027 26.3826 39.2023 24.8105C39.7473 24.5406 40.3117 24.307 40.8878 24.1127C41.7918 25.4512 43.4692 26.2714 45.3467 26.2714C47.2258 26.2714 48.9031 25.452 49.8035 24.112C50.3789 24.3063 50.9447 24.5406 51.4905 24.8098C51.1894 26.3789 51.8027 28.1771 53.1152 29.4888C54.4255 30.7991 56.2141 31.4161 57.7943 31.1136C58.0627 31.6571 58.297 32.2214 58.4921 32.7991C57.1528 33.7023 56.3327 35.3797 56.3327 37.2572C56.3327 39.1333 57.1513 40.8115 58.4921 41.714C58.2948 42.2931 58.0627 42.8574 57.7943 43.401C56.217 43.1021 54.427 43.7146 53.1152 45.0257C51.8034 46.3375 51.1887 48.1343 51.4905 49.7048C50.9447 49.9747 50.3796 50.2083 49.8035 50.4026C48.9017 49.0641 47.2259 48.2447 45.3467 48.2447C43.4691 48.2447 41.7916 49.0641 40.8886 50.4041C40.3132 50.2098 39.7474 49.9755 39.2031 49.7063C39.5041 48.1372 38.8894 46.339 37.5783 45.0257C36.2665 43.7154 34.4713 43.1044 32.8993 43.4025C32.6294 42.8567 32.3958 42.2916 32.2 41.7169C33.5392 40.8152 34.3601 39.1378 34.3601 37.2588C34.3601 35.3805 33.5407 33.7037 32.2007 32.7999Z" stroke="#F0F0F0" stroke-width="0.4" mask="url(#path-1-inside-1_2424_58250)"/>
<path d="M45.3499 43.9926C49.0622 43.9926 52.0832 40.9715 52.0832 37.2578C52.0832 33.5435 49.0622 30.5224 45.3499 30.5224C41.6364 30.5224 38.6152 33.5434 38.6152 37.2572C38.6152 40.9715 41.6362 43.9926 45.3499 43.9926ZM45.3499 33.2306C47.5701 33.2306 49.3758 35.037 49.3758 37.258C49.3758 39.4789 47.5701 41.2846 45.3499 41.2846C43.1291 41.2846 41.3226 39.4782 41.3226 37.2572C41.3226 35.0362 43.129 33.2306 45.3499 33.2306Z" stroke="#F0F0F0" stroke-width="0.4" mask="url(#path-1-inside-1_2424_58250)"/>
</svg>
