<svg width="89" height="88" viewBox="0 0 89 88" fill="none" xmlns="http://www.w3.org/2000/svg">
<path d="M65.3144 15H23.6442C18.7763 15 14.8164 19.0049 14.8164 23.9281C14.8164 27.3981 16.8296 30.5789 19.9452 32.0329L27.6703 35.64V40.9997C27.6703 42.6538 26.3395 43.9997 24.704 43.9997C23.0685 43.9997 21.7377 42.6538 21.7377 40.9997V37.9998H19.7602V40.9997C19.7602 43.7569 21.9778 45.9997 24.704 45.9997C26.742 45.9997 28.4939 44.7457 29.2492 42.9618C31.1883 47.3859 34.9394 50.7917 39.5354 52.2367V64.0001H31.6253C28.8992 64.0001 26.6815 66.2429 26.6815 69V74C26.6815 74.5518 27.1234 75 27.6703 75H61.2881C61.835 75 62.2768 74.5518 62.2768 74V69C62.2768 66.2429 60.0592 64.0001 57.333 64.0001H49.423V52.2367C54.0189 50.7916 57.77 47.3859 59.7091 42.9618C60.4643 44.7466 62.2164 46.0006 64.2543 46.0006C66.9805 46.0006 69.1981 43.7578 69.1981 41.0007V38.0007H67.2206V41.0007C67.2206 42.6547 65.8898 44.0006 64.2543 44.0006C62.6189 44.0006 61.2881 42.6547 61.2881 41.0007V35.6409L69.0131 32.0351C72.1286 30.5798 74.1419 27.3976 74.1419 23.9289C74.1419 19.0057 70.1822 15 65.3144 15ZM16.794 23.9281C16.794 20.108 19.8663 17 23.6443 17H26.7359L27.6377 33.4216L20.7738 30.2176C18.3561 29.0886 16.794 26.62 16.794 23.9281ZM33.6029 72.9998V70.9998H55.3556V72.9998H33.6029ZM60.2994 68.9998V72.9998H57.3331V69.9998C57.3331 69.448 56.8913 68.9998 56.3444 68.9998H32.6142C32.0673 68.9998 31.6254 69.448 31.6254 69.9998V72.9998H28.6591V68.9998C28.6591 67.3458 29.9899 65.9998 31.6254 65.9998H57.3331C58.9686 65.9998 60.2994 67.3458 60.2994 68.9998ZM47.4455 63.9998H41.513V52.7217C41.9955 52.8097 42.4841 52.8807 42.9794 52.9258C43.2871 52.9548 43.5934 52.9597 43.8997 52.9708C44.0949 52.978 44.2847 52.9999 44.4793 52.9999C44.674 52.9999 44.8638 52.978 45.0576 52.9708C45.3639 52.9597 45.6707 52.9548 45.9779 52.9258C46.4732 52.8807 46.9618 52.8097 47.4443 52.7217L47.4455 63.9998ZM48.1862 50.5051C47.6711 50.6399 47.16 50.7412 46.6496 50.8211C46.5044 50.843 46.3601 50.868 46.2135 50.8863C46.0237 50.9104 45.8348 50.9274 45.645 50.9434C45.31 50.9702 44.9736 50.9894 44.6333 50.9934C44.5313 50.9943 44.4285 50.9943 44.327 50.9934C43.9866 50.9894 43.6498 50.9702 43.3153 50.9434C43.1263 50.9274 42.9365 50.9104 42.7467 50.8863C42.6002 50.8684 42.4558 50.8434 42.3106 50.8211C41.8003 50.7412 41.2892 50.6412 40.774 50.5051C34.7386 48.9121 30.1744 43.5421 29.8138 36.9668L28.7156 17.0001H60.244L59.1475 36.9668C58.7843 43.5427 54.2216 48.9131 48.1862 50.5051ZM68.1851 30.2183L61.3212 33.4223L62.223 17.0007H65.3146C69.0918 17.0007 72.164 20.1087 72.164 23.9287C72.164 26.6207 70.6019 29.0893 68.1851 30.2183Z" fill="#16246B"/>
<path d="M45.4709 45.9999H44.4821V47.9999H45.4709C51.4679 47.9999 56.3472 43.065 56.3472 36.9999H54.3697C54.3697 41.9619 50.3781 45.9999 45.4709 45.9999Z" fill="#16246B"/>
</svg>
