<svg width="89" height="88" viewBox="0 0 89 88" fill="none" xmlns="http://www.w3.org/2000/svg">
<path d="M16.8038 55.4978V54.4978C16.2515 54.4978 15.8038 54.9455 15.8038 55.4978H16.8038ZM34.5528 55.4978H35.5528C35.5528 54.9455 35.1051 54.4978 34.5528 54.4978V55.4978ZM34.5528 69.5746V70.5746C35.1051 70.5746 35.5528 70.1269 35.5528 69.5746H34.5528ZM16.8038 69.5746H15.8038C15.8038 70.1269 16.2515 70.5746 16.8038 70.5746V69.5746ZM34.5554 47.5414V46.5414C34.0031 46.5414 33.5554 46.9891 33.5554 47.5414H34.5554ZM52.3043 47.5414H53.3043C53.3043 46.9891 52.8566 46.5414 52.3043 46.5414V47.5414ZM52.3043 69.5746V70.5746C52.8566 70.5746 53.3043 70.1269 53.3043 69.5746H52.3043ZM34.5554 69.5746H33.5554C33.5554 70.1269 34.0031 70.5746 34.5554 70.5746V69.5746ZM52.3028 39.5851V38.5851C51.7505 38.5851 51.3028 39.0328 51.3028 39.5851H52.3028ZM70.0518 39.5851H71.0518C71.0518 39.0328 70.6041 38.5851 70.0518 38.5851V39.5851ZM70.0518 69.5747V70.5747C70.6041 70.5747 71.0518 70.127 71.0518 69.5747H70.0518ZM52.3028 69.5747H51.3028C51.3028 70.127 51.7505 70.5747 52.3028 70.5747V69.5747ZM16.5 39.5029C15.9477 39.5029 15.5 39.9506 15.5 40.5029C15.5 41.0551 15.9477 41.5029 16.5 41.5029V39.5029ZM27.8226 40.5029V41.5029C28.1957 41.5029 28.5377 41.2952 28.7098 40.9642L27.8226 40.5029ZM31.8008 32.8524V31.8524C31.4278 31.8524 31.0857 32.0601 30.9136 32.3911L31.8008 32.8524ZM45.5716 32.8524V33.8524C45.9152 33.8524 46.2347 33.676 46.4178 33.3853L45.5716 32.8524ZM62.7071 10.8193L63.6204 10.4122C63.4597 10.0516 63.1019 9.81934 62.7071 9.81934C62.3123 9.81934 61.9544 10.0516 61.7937 10.4122L62.7071 10.8193ZM65.4123 16.8884L64.499 17.2955C64.6443 17.6215 64.9524 17.8454 65.3074 17.8829L65.4123 16.8884ZM72.0203 17.5858L72.6898 18.3287C72.9831 18.0644 73.0934 17.6523 72.9714 17.2768C72.8494 16.9013 72.5179 16.6328 72.1253 16.5913L72.0203 17.5858ZM67.0843 22.0341L66.4148 21.2913C66.1497 21.5302 66.032 21.8924 66.1061 22.2416L67.0843 22.0341ZM68.463 28.5342L67.9634 29.4004C68.3053 29.5977 68.7314 29.5753 69.0508 29.3432C69.3702 29.1112 69.5231 28.7129 69.4412 28.3267L68.463 28.5342ZM62.7071 25.2144L63.2067 24.3481C62.8975 24.1698 62.5167 24.1698 62.2074 24.3481L62.7071 25.2144ZM56.9512 28.5342L55.9729 28.3267C55.891 28.7129 56.044 29.1112 56.3634 29.3432C56.6828 29.5753 57.1088 29.5977 57.4508 29.4004L56.9512 28.5342ZM58.3298 22.0341L59.3081 22.2416C59.3821 21.8924 59.2645 21.5302 58.9993 21.2913L58.3298 22.0341ZM53.3938 17.5858L53.2889 16.5913C52.8962 16.6328 52.5648 16.9013 52.4428 17.2768C52.3208 17.6523 52.4311 18.0644 52.7244 18.3287L53.3938 17.5858ZM60.0018 16.8884L60.1068 17.8829C60.4617 17.8454 60.7698 17.6215 60.9152 17.2955L60.0018 16.8884ZM16.8038 56.4978H34.5528V54.4978H16.8038V56.4978ZM33.5528 55.4978V69.5746H35.5528V55.4978H33.5528ZM34.5528 68.5746H16.8038V70.5746H34.5528V68.5746ZM17.8038 69.5746V55.4978H15.8038V69.5746H17.8038ZM34.5554 48.5414H52.3043V46.5414H34.5554V48.5414ZM51.3043 47.5414V69.5746H53.3043V47.5414H51.3043ZM52.3043 68.5746H34.5554V70.5746H52.3043V68.5746ZM35.5554 69.5746V47.5414H33.5554V69.5746H35.5554ZM52.3028 40.5851H70.0518V38.5851H52.3028V40.5851ZM69.0518 39.5851V69.5747H71.0518V39.5851H69.0518ZM70.0518 68.5747H52.3028V70.5747H70.0518V68.5747ZM53.3028 69.5747V39.5851H51.3028V69.5747H53.3028ZM16.5 41.5029H27.8226V39.5029H16.5V41.5029ZM28.7098 40.9642L32.6881 33.3138L30.9136 32.3911L26.9354 40.0415L28.7098 40.9642ZM31.8008 33.8524H45.5716V31.8524H31.8008V33.8524ZM46.4178 33.3853L51.6201 25.1228L49.9276 24.0572L44.7254 32.3196L46.4178 33.3853ZM61.7937 11.2265L64.499 17.2955L66.3257 16.4812L63.6204 10.4122L61.7937 11.2265ZM65.3074 17.8829L71.9154 18.5803L72.1253 16.5913L65.5173 15.8939L65.3074 17.8829ZM71.3509 16.843L66.4148 21.2913L67.7537 22.777L72.6898 18.3287L71.3509 16.843ZM66.1061 22.2416L67.4847 28.7417L69.4412 28.3267L68.0625 21.8266L66.1061 22.2416ZM68.9626 27.668L63.2067 24.3481L62.2074 26.0806L67.9634 29.4004L68.9626 27.668ZM62.2074 24.3481L56.4515 27.668L57.4508 29.4004L63.2067 26.0806L62.2074 24.3481ZM57.9294 28.7417L59.3081 22.2416L57.3516 21.8266L55.9729 28.3267L57.9294 28.7417ZM58.9993 21.2913L54.0633 16.843L52.7244 18.3287L57.6604 22.777L58.9993 21.2913ZM53.4988 18.5803L60.1068 17.8829L59.8968 15.8939L53.2889 16.5913L53.4988 18.5803ZM60.9152 17.2955L63.6204 11.2265L61.7937 10.4122L59.0884 16.4812L60.9152 17.2955Z" fill="#16246B"/>
</svg>
