<svg width="79" height="79" viewBox="0 0 79 79" fill="none" xmlns="http://www.w3.org/2000/svg">
<path d="M65.0014 59.2475H62.2123V31.8165H63.3946C63.7518 31.8165 64.0414 31.5269 64.0414 31.1698V26.6353C64.0414 26.2781 63.7518 25.9885 63.3946 25.9885H62.2123V22.4428H63.3946C63.7518 22.4428 64.0414 22.1532 64.0414 21.7961C64.0414 21.4389 63.7518 21.1493 63.3946 21.1493H41.7186V19.1801H42.7349C43.092 19.1801 43.3816 18.8905 43.3816 18.5333V13.9989C43.3816 13.6417 43.092 13.3521 42.7349 13.3521H16.3905C16.0333 13.3521 15.7438 13.6417 15.7438 13.9989V18.5333C15.7438 18.8905 16.0333 19.1801 16.3905 19.1801H17.3445V31.5689C17.3445 31.57 17.3451 31.5709 17.3451 31.5719C16.4108 32.4836 15.8328 33.7176 15.8328 35.0777C15.8328 35.6764 15.9449 36.2619 16.1669 36.8234C15.3557 37.8425 14.9135 39.0813 14.9135 40.3552C14.9135 41.0901 15.0585 41.8072 15.3449 42.4928C14.4159 43.6672 13.9087 45.0975 13.9087 46.5646C13.9087 49.0036 15.284 51.1436 17.3445 52.3592V59.2475H14.5554C14.1983 59.2475 13.9087 59.5371 13.9087 59.8942V64.4448C13.9087 64.802 14.1983 65.0916 14.5554 65.0916H65.0014C65.3585 65.0916 65.6481 64.802 65.6481 64.4448V59.8942C65.6481 59.5371 65.3585 59.2475 65.0014 59.2475ZM60.9188 59.2475H57.1123V51.7373C57.1123 48.6561 54.6058 46.1497 51.5246 46.1497C48.4434 46.1497 45.937 48.6561 45.937 51.7373V59.2475H41.7186V31.8165H60.9188V59.2475ZM55.8188 59.2475H47.2305V51.7373C47.2305 49.3695 49.1568 47.4432 51.5246 47.4432C53.8924 47.4432 55.8188 49.3695 55.8188 51.7373V59.2475ZM62.7479 30.523H41.7186V27.282H62.7479V30.523ZM51.9655 25.9885V22.4428H55.7954V25.9885H51.9655ZM50.672 25.9885H46.8421V22.4428H50.672V25.9885ZM60.9188 25.9885H57.0889V22.4428H60.9188V25.9885ZM45.5486 22.4428V25.9885H41.7186V22.4428H45.5486ZM17.0372 14.6456H42.0881V17.8866H17.0372V14.6456ZM40.4252 19.1801V59.2475H21.9378L21.9175 53.3893C25.6554 53.0738 28.5953 50.1352 28.5953 46.5646C28.5953 45.1938 28.1626 43.8703 27.3444 42.7375C27.2847 42.6545 27.2228 42.573 27.159 42.4925C27.4455 41.8072 27.5901 41.0901 27.5901 40.3552C27.5901 39.081 27.148 37.8421 26.337 36.8234C26.559 36.2622 26.6711 35.6767 26.6711 35.0777C26.6711 34.9921 26.6686 34.9068 26.6642 34.8209C26.5199 32.1209 24.1426 30.0057 21.2518 30.0057C20.3043 30.0057 19.4137 30.2359 18.638 30.6376V19.1801H40.4252ZM15.2022 46.5646C15.2022 45.2768 15.6932 44.0206 16.5853 43.0271C16.7638 42.8285 16.8017 42.5408 16.681 42.3027C16.3665 41.6825 16.207 41.0272 16.207 40.3552C16.207 39.2667 16.6305 38.2069 17.3995 37.3713C17.581 37.1736 17.6221 36.8847 17.5021 36.6443C17.2529 36.1448 17.1263 35.6177 17.1263 35.0777C17.1263 32.9941 18.9768 31.2992 21.2518 31.2992C23.4551 31.2992 25.2649 32.8763 25.3726 34.8885C25.3757 34.9511 25.3776 35.0142 25.3776 35.0777C25.3776 35.6177 25.251 36.1448 25.0015 36.6443C24.8815 36.8843 24.9223 37.1736 25.1042 37.3713C25.8731 38.2066 26.2966 39.2664 26.2966 40.3552C26.2966 41.0275 26.1371 41.6828 25.8229 42.3027C25.7023 42.5408 25.7402 42.8285 25.9186 43.0271C26.0525 43.1765 26.1788 43.3325 26.296 43.4948C26.9541 44.4059 27.3018 45.4673 27.3018 46.5646C27.3018 49.4263 24.9388 51.7884 21.913 52.0924L21.903 49.228L24.0298 47.1012C24.2825 46.8485 24.2825 46.4393 24.0298 46.1866C23.7772 45.934 23.3679 45.934 23.1153 46.1866L21.8967 47.4053L21.8885 45.0403C21.8872 44.6838 21.5979 44.3958 21.2417 44.3958C21.2411 44.3958 21.2401 44.3958 21.2395 44.3958C20.8823 44.397 20.5937 44.6876 20.595 45.0447L20.6029 47.3197L19.4698 46.1866C19.2172 45.934 18.8079 45.934 18.5553 46.1866C18.3026 46.4393 18.3026 46.8485 18.5553 47.1012L20.6093 49.1552L20.6195 52.0965C17.5799 51.8048 15.2022 49.4355 15.2022 46.5646ZM18.638 52.9639C19.2643 53.1878 19.9294 53.3358 20.624 53.3911L20.6443 59.2475H18.638V52.9639ZM64.3546 63.7981H15.2022V60.541H64.3546V63.7981Z" fill="#16246B" stroke="#16246B" stroke-width="0.5"/>
<path d="M53.5186 41.169H57.7499C58.1177 41.169 58.4159 40.8708 58.4159 40.5029V37.275C58.4159 35.741 57.1681 34.493 55.6341 34.493C54.1004 34.493 52.8525 35.741 52.8525 37.275V40.5029C52.8525 40.8708 53.1508 41.169 53.5186 41.169ZM54.1846 37.275C54.1846 36.4755 54.8347 35.8253 55.6341 35.8253C56.4334 35.8253 57.0839 36.4755 57.0839 37.275V39.8368H54.1846V37.275Z" fill="#16246B" stroke="#16246B" stroke-width="0.5"/>
<path d="M45.1068 41.169H48.9149C49.246 41.169 49.5144 40.8708 49.5144 40.5029V37.275C49.5144 35.741 48.3913 34.493 47.011 34.493C45.6304 34.493 44.5073 35.741 44.5073 37.275V40.5029C44.5073 40.8708 44.7757 41.169 45.1068 41.169ZM45.7062 37.275C45.7062 36.4755 46.2916 35.8253 47.011 35.8253C47.7304 35.8253 48.3155 36.4755 48.3155 37.275V39.8368H45.7062V37.275Z" fill="#16246B" stroke="#16246B" stroke-width="0.5"/>
<path d="M32.3109 53.4085H36.119C36.4501 53.4085 36.7185 53.1351 36.7185 52.7978V49.8389C36.7185 48.4328 35.5954 47.2888 34.2148 47.2888C32.8345 47.2888 31.7114 48.4328 31.7114 49.8389V52.7978C31.7114 53.1351 31.9798 53.4085 32.3109 53.4085ZM32.9103 49.8389C32.9103 49.106 33.4954 48.51 34.2148 48.51C34.9342 48.51 35.5196 49.106 35.5196 49.8389V52.1872H32.9103V49.8389Z" fill="#16246B" stroke="#16246B" stroke-width="0.5"/>
<path d="M32.3109 41.169H36.119C36.4501 41.169 36.7185 40.8708 36.7185 40.5029V37.2752C36.7185 35.741 35.5954 34.493 34.2148 34.493C32.8345 34.493 31.7114 35.741 31.7114 37.2752V40.5029C31.7114 40.8708 31.9798 41.169 32.3109 41.169ZM32.9103 37.2752C32.9103 36.4757 33.4954 35.8252 34.2148 35.8252C34.9342 35.8252 35.5196 36.4757 35.5196 37.2752V39.8368H32.9103V37.2752Z" fill="#16246B" stroke="#16246B" stroke-width="0.5"/>
<path d="M32.3109 28.3733H36.119C36.4501 28.3733 36.7185 28.075 36.7185 27.7071V24.4795C36.7185 22.9452 35.5954 21.6972 34.2148 21.6972C32.8345 21.6972 31.7114 22.9452 31.7114 24.4795V27.7071C31.7114 28.075 31.9798 28.3733 32.3109 28.3733ZM32.9103 24.4795C32.9103 23.68 33.4954 23.0295 34.2148 23.0295C34.9342 23.0295 35.5196 23.68 35.5196 24.4795V27.041H32.9103V24.4795Z" fill="#16246B" stroke="#16246B" stroke-width="0.5"/>
<path d="M22.8533 28.3733H26.6615C26.9926 28.3733 27.2609 28.075 27.2609 27.7071V24.4795C27.2609 22.9452 26.1379 21.6972 24.7576 21.6972C23.377 21.6972 22.2539 22.9452 22.2539 24.4795V27.7071C22.2539 28.075 22.5223 28.3733 22.8533 28.3733ZM23.4528 24.4795C23.4528 23.68 24.0381 23.0295 24.7576 23.0295C25.477 23.0295 26.0621 23.68 26.0621 24.4795V27.041H23.4528V24.4795Z" fill="#16246B" stroke="#16246B" stroke-width="0.5"/>
</svg>
