<svg width="74" height="74" viewBox="0 0 74 74" fill="none" xmlns="http://www.w3.org/2000/svg">
<path d="M64.0985 60.3609H9.90137" stroke="#16246B" stroke-width="2" stroke-linecap="round" stroke-linejoin="round"/>
<path d="M51.0167 26.7213H11.7705V60.3609H51.0167V26.7213Z" stroke="#16246B" stroke-width="2" stroke-linecap="round" stroke-linejoin="round"/>
<path d="M51.0165 22.9835H11.7702C10.7381 22.9835 9.90137 23.8202 9.90137 24.8524C9.90137 25.8845 10.7381 26.7213 11.7702 26.7213H51.0165C52.0486 26.7213 52.8853 25.8845 52.8853 24.8524C52.8853 23.8202 52.0486 22.9835 51.0165 22.9835Z" stroke="#16246B" stroke-width="2" stroke-linecap="round" stroke-linejoin="round"/>
<path d="M51.0167 30.459H11.7705V45.4099H51.0167V30.459Z" stroke="#16246B" stroke-width="2" stroke-linecap="round" stroke-linejoin="round"/>
<path d="M15.5078 49.1476H29.5243" stroke="#16246B" stroke-width="2" stroke-linecap="round" stroke-linejoin="round"/>
<path d="M15.5078 52.8854H29.5243" stroke="#16246B" stroke-width="2" stroke-linecap="round" stroke-linejoin="round"/>
<path d="M15.5078 55.6887H29.5243" stroke="#16246B" stroke-width="2" stroke-linecap="round" stroke-linejoin="round"/>
<path d="M17.377 49.1476V60.3609" stroke="#16246B" stroke-width="2" stroke-linecap="round" stroke-linejoin="round"/>
<path d="M27.6558 49.1476V60.3609" stroke="#16246B" stroke-width="2" stroke-linecap="round" stroke-linejoin="round"/>
<path d="M33.2622 49.1476H47.2787" stroke="#16246B" stroke-width="2" stroke-linecap="round" stroke-linejoin="round"/>
<path d="M33.2622 52.8854H47.2787" stroke="#16246B" stroke-width="2" stroke-linecap="round" stroke-linejoin="round"/>
<path d="M33.2622 55.6887H47.2787" stroke="#16246B" stroke-width="2" stroke-linecap="round" stroke-linejoin="round"/>
<path d="M35.1313 49.1476V60.3609" stroke="#16246B" stroke-width="2" stroke-linecap="round" stroke-linejoin="round"/>
<path d="M45.4097 49.1476V60.3609" stroke="#16246B" stroke-width="2" stroke-linecap="round" stroke-linejoin="round"/>
<path fill-rule="evenodd" clip-rule="evenodd" d="M17.3767 19.2458H45.4097C46.4419 19.2458 47.2786 20.0825 47.2786 21.1147V22.9835H15.5078V21.1147C15.5078 20.0825 16.3445 19.2458 17.3767 19.2458Z" stroke="#16246B" stroke-width="2" stroke-linecap="round" stroke-linejoin="round"/>
<path d="M44.4756 34.1967L47.2789 37" stroke="#16246B" stroke-width="2" stroke-linecap="round" stroke-linejoin="round"/>
<path d="M38.8687 34.1967L46.3441 41.6722" stroke="#16246B" stroke-width="2" stroke-linecap="round" stroke-linejoin="round"/>
<path d="M23.918 34.1967L26.7213 37" stroke="#16246B" stroke-width="2" stroke-linecap="round" stroke-linejoin="round"/>
<path d="M18.3115 34.1967L25.787 41.6722" stroke="#16246B" stroke-width="2" stroke-linecap="round" stroke-linejoin="round"/>
<path fill-rule="evenodd" clip-rule="evenodd" d="M60.3611 47.2788C61.3932 47.2788 62.2299 48.1155 62.2299 49.1477V60.3609H58.4922V49.1477C58.4922 48.1155 59.3289 47.2788 60.3611 47.2788Z" stroke="#16246B" stroke-width="2" stroke-linecap="round" stroke-linejoin="round"/>
<path d="M60.3608 47.2788V21.1146" stroke="#16246B" stroke-width="2" stroke-linecap="round" stroke-linejoin="round"/>
<path d="M60.3608 21.1146C62.4251 21.1146 64.0985 19.4412 64.0985 17.3769C64.0985 15.3126 62.4251 13.6392 60.3608 13.6392C58.2965 13.6392 56.623 15.3126 56.623 17.3769C56.623 19.4412 58.2965 21.1146 60.3608 21.1146Z" stroke="#16246B" stroke-width="2" stroke-linecap="round" stroke-linejoin="round"/>
</svg>
