<svg width="65" height="64" viewBox="0 0 65 64" fill="none" xmlns="http://www.w3.org/2000/svg">
<g opacity="0.4">
<path fill-rule="evenodd" clip-rule="evenodd" d="M30.1388 8.59821C29.9889 8.61966 29.4165 8.69956 28.8669 8.77572C25.5905 9.22965 22.132 10.5671 19.2823 12.482C17.1138 13.9392 15.023 15.9573 13.5141 18.0495C11.2286 21.2187 9.87423 24.5343 9.26644 28.4476C8.9918 30.2165 8.99498 33.3328 9.27335 35.1283C9.51128 36.6635 9.87722 38.129 10.3867 39.5874C10.804 40.7817 11.7451 42.8081 12.1864 43.4622C12.3416 43.6923 12.4685 43.9095 12.4685 43.9452C12.4685 44.0627 13.6167 45.6601 14.3316 46.5371C15.1622 47.556 16.6893 49.0787 17.6986 49.894C21.0172 52.5753 25.6011 54.4678 29.8077 54.8934C31.0158 55.0156 33.5318 55.0156 34.7398 54.8934C38.9464 54.4678 43.4932 52.5912 46.8551 49.8929C48.83 48.308 51.1756 45.5817 52.3299 43.5296C52.4264 43.3582 52.6323 42.9929 52.7874 42.7179C53.8885 40.7657 54.8599 37.801 55.2742 35.1283C55.5526 33.3328 55.5557 30.2165 55.2811 28.4476C54.5449 23.7073 52.6108 19.6095 49.4677 16.1315C45.9036 12.1873 41.1119 9.61822 35.7261 8.76354C34.8137 8.61884 30.8198 8.50059 30.1388 8.59821ZM31.8195 10.7156V12.0712L31.1154 12.1288C30.2357 12.2009 28.7469 12.4068 28.116 12.5438C27.4238 12.6942 27.2223 12.9434 27.4931 13.314C27.6143 13.4798 27.6441 13.4804 28.4243 13.3313C29.2877 13.1663 30.3365 13.0298 31.2486 12.9636L31.8133 12.9226L31.8391 15.1039C31.8533 16.3036 31.8431 17.2987 31.8163 17.3152C31.7896 17.3316 31.3399 17.3918 30.817 17.4489C28.9146 17.6565 27.2532 18.1633 25.5176 19.0655C24.4623 19.6141 24.2012 19.861 24.3608 20.1594C24.5376 20.4898 24.7291 20.4639 25.5377 20.0009C27.0213 19.1514 29.1215 18.4542 30.6089 18.3172C30.95 18.2858 31.3618 18.2395 31.5243 18.2142L31.8195 18.1683V21.6223V25.0763L31.4788 25.1334C28.5986 25.6164 26.5031 27.4601 25.8129 30.1184C25.5954 30.9559 25.5841 32.5205 25.7895 33.35C26.4365 35.963 28.4902 37.8636 31.2079 38.3646L31.8195 38.4774V41.9201V45.3628L31.2517 45.3051C29.4056 45.1173 27.9611 44.7228 26.3377 43.9627C25.576 43.6061 25.3188 43.5231 25.2021 43.5961C25.0121 43.7151 24.9585 44.1108 25.1147 44.2401C25.4083 44.4832 26.8379 45.1228 27.8265 45.4535C28.8145 45.784 30.828 46.1702 31.5697 46.1714L31.8195 46.1719V48.4033V50.6347L31.2517 50.5803C30.1344 50.4733 29.1316 50.3466 28.6631 50.2534C28.1128 50.1438 27.8542 50.1997 27.7763 50.4451C27.6736 50.7689 27.8746 50.9584 28.4318 51.0628C29.1777 51.2027 30.1979 51.3343 31.07 51.4034L31.8195 51.4626V52.8166V54.1705H31.342C30.6542 54.1705 28.7364 53.9336 27.7313 53.7243C22.6299 52.6626 17.9899 49.8023 14.7145 45.7001C11.3244 41.4541 9.51355 35.6575 9.91929 30.3501C10.0544 28.5832 10.3112 27.0646 10.71 25.6753C12.6589 18.8845 17.6169 13.4335 24.1826 10.8631C26.3139 10.0288 29.2707 9.40416 31.2517 9.36972L31.8195 9.3599V10.7156ZM35.5444 9.59168C36.6437 9.74974 38.7265 10.2418 38.8604 10.3752C38.9893 10.5035 37.6191 11.7527 37.0227 12.0506C36.628 12.2478 36.3822 12.296 35.5691 12.3354C35.0308 12.3616 34.5394 12.4236 34.4769 12.4732C34.3326 12.5878 34.3301 12.926 34.4723 13.0684C34.6281 13.2242 36.0096 13.2043 36.7241 13.0358C37.5262 12.8467 37.8878 12.6139 38.9734 11.5879L39.9041 10.7083L40.3816 10.8626C40.9209 11.0371 43.4483 12.2734 43.4483 12.3629C43.4483 12.3949 43.3563 12.4636 43.2439 12.5157C42.8237 12.7102 42.149 13.4096 41.5208 14.3019C40.2979 16.039 39.0082 17.1311 37.3206 17.8587C35.7743 18.5254 35.4356 19.2787 35.4184 22.0902L35.4081 23.7769L35.6806 24.3088C36.0869 25.1019 36.3632 25.2185 37.861 25.2297C38.5106 25.2345 39.1287 25.2447 39.2347 25.2524C39.3406 25.26 39.8196 25.5287 40.299 25.8494C41.2981 26.5177 41.8025 26.726 43.2769 27.0792C43.8571 27.2182 44.4598 27.4075 44.6162 27.4998C45.2662 27.8841 45.1656 28.686 44.388 29.3192C43.738 29.8484 43.0664 30.0832 42.1956 30.0855C40.5375 30.0898 39.5328 30.3944 38.7325 31.1357C37.9688 31.8432 37.773 32.3277 37.7803 33.4922C37.7862 34.4356 38.0546 36.0369 38.3087 36.6444C38.4449 36.97 38.7004 37.216 39.5417 37.8319C39.829 38.0422 40.0316 38.2982 40.2231 38.6931C40.5445 39.3556 40.8215 39.6702 41.2996 39.9155C41.7444 40.1437 42.4221 40.7663 42.5997 41.11C42.7609 41.4218 42.7737 41.9543 42.6347 42.5679C42.5799 42.8104 42.5591 43.1379 42.5888 43.2958C42.6184 43.4537 42.6502 44.0734 42.6593 44.6729C42.6789 45.9438 42.7838 46.1924 43.3761 46.37C43.8598 46.515 44.4749 46.3823 45.3912 45.935C47.3462 44.9808 48.9084 42.2372 48.672 40.1729C48.6014 39.5558 48.7549 38.2677 48.9424 37.905C49.019 37.7568 49.3462 37.3375 49.6696 36.9731C50.3571 36.1983 50.6572 35.682 50.8495 34.9433C51.1466 33.8021 50.9877 32.9965 50.1867 31.5834C49.7106 30.7435 49.6719 30.6323 49.6779 30.119C49.6892 29.1522 49.9412 28.8044 50.7163 28.6865C51.8048 28.5208 52.7924 28.0183 53.5617 27.2388C53.8525 26.9441 54.104 26.7172 54.1208 26.7345C54.2111 26.8281 54.536 29.1435 54.6283 30.3501C54.9761 34.8998 53.7168 39.7908 51.1585 43.8259C50.3604 45.0848 50.1827 45.3194 49.0716 46.5809C47.2236 48.679 45.1278 50.325 42.5715 51.6858C42.1643 51.9026 41.7948 52.08 41.7505 52.08C41.7062 52.08 41.3952 51.8118 41.0594 51.4841C40.6564 51.0907 40.2417 50.7912 39.8388 50.6025L39.2286 50.3168L36.9151 50.2471C34.4699 50.1734 34.3633 50.1873 34.3633 50.5802C34.3633 50.9774 34.519 51.0087 36.8547 51.08C38.8775 51.1417 39.109 51.1652 39.4871 51.3484C39.8997 51.5482 40.8136 52.3026 40.8136 52.4434C40.8136 52.6095 38.2951 53.4166 36.8163 53.7243C35.8111 53.9336 33.8933 54.1705 33.2055 54.1705H32.728L32.7173 41.2636C32.7115 34.1648 32.7067 27.7636 32.7067 27.0387C32.7067 26.3139 32.7115 22.0334 32.7173 17.5267L32.728 9.33254L33.6592 9.39353C34.1713 9.42707 35.0197 9.51624 35.5444 9.59168ZM45.0466 13.3457C47.3978 14.9979 49.3205 16.9698 50.9257 19.3745C52.0444 21.0505 52.8807 22.7557 53.5454 24.716L53.8057 25.4838L53.5102 25.9762C52.9422 26.9225 51.8947 27.6085 50.656 27.8453C50.3144 27.9106 49.9019 28.0331 49.7393 28.1175C49.3496 28.3196 49.0219 28.8313 48.8917 29.4411C48.7106 30.2893 48.817 30.746 49.5045 32.073C50.1199 33.2607 50.1257 33.2785 50.1217 33.9831C50.1181 34.5966 50.0777 34.7741 49.8272 35.2749C49.6675 35.5942 49.2735 36.1558 48.9515 36.5229C47.9995 37.6085 47.8119 38.215 47.8087 40.2183C47.8077 40.8391 47.7544 41.5049 47.6849 41.7635C47.2501 43.3832 45.8716 44.9702 44.4851 45.4475C43.5177 45.7805 43.3828 45.6768 43.4893 44.682C43.5222 44.3741 43.5085 43.9408 43.4587 43.7192C43.3919 43.4216 43.4034 43.1142 43.5027 42.5444C43.6527 41.6841 43.582 41.0911 43.2697 40.5886C43.0183 40.1843 42.3914 39.6092 41.7901 39.231C41.3539 38.9567 41.2222 38.8089 40.9943 38.3383C40.6663 37.6607 40.4761 37.4457 39.7914 36.978C39.504 36.7816 39.2102 36.5305 39.1386 36.42C38.97 36.1595 38.6192 34.3116 38.6021 33.5944C38.5819 32.7431 38.6906 32.3884 39.1118 31.9312C39.7759 31.2104 40.4104 30.9933 41.9964 30.944C43.4411 30.8991 44.2805 30.5886 45.1597 29.7738C46.1106 28.8927 46.0973 27.4102 45.1332 26.8141C44.9656 26.7104 44.2625 26.4817 43.5706 26.3058C42.1551 25.9458 41.2319 25.5485 40.5407 25.0019C39.8778 24.4776 39.3731 24.3552 37.9827 24.3813C36.8813 24.4019 36.8226 24.3936 36.6011 24.1861C36.2509 23.8581 36.1463 23.1793 36.2213 21.7218C36.34 19.4141 36.4442 19.2249 38.0198 18.4557C39.7447 17.6138 41.071 16.4523 42.179 14.8135C42.7044 14.0365 43.398 13.3572 43.9402 13.0887C44.1444 12.9877 44.3356 12.9048 44.3652 12.9048C44.3948 12.9048 44.7015 13.1032 45.0466 13.3457ZM24.4924 13.7083C18.1046 16.4722 13.7253 22.2905 12.7828 29.2656C12.5544 30.9555 12.6112 31.3562 13.0791 31.3562C13.3649 31.3562 13.4333 31.1476 13.5556 29.9019C14.2445 22.8935 18.8943 16.7609 25.4471 14.2184C26.1561 13.9433 26.2402 13.8568 26.1495 13.4954C26.0629 13.1503 25.6633 13.2015 24.4924 13.7083ZM21.915 21.7895C20.5839 23.1571 20.0015 24.1395 20.4253 24.3022C20.7668 24.4334 20.9121 24.3304 21.5342 23.5166C21.8876 23.0541 22.4249 22.4317 22.7283 22.1333C23.0315 21.835 23.2796 21.5209 23.2796 21.4354C23.2796 21.2366 23.039 20.9943 22.8417 20.9942C22.7577 20.9942 22.3407 21.3522 21.915 21.7895ZM19.2993 25.6981C19.1056 25.8648 18.579 27.1994 18.3398 28.1295C17.8765 29.9312 17.7788 32.4512 18.1026 34.2504C18.5486 36.728 19.5721 38.9628 21.1481 40.9C21.8651 41.7813 23.0478 42.8997 23.2627 42.8997C23.4704 42.8997 23.7339 42.6753 23.7339 42.4983C23.7339 42.4346 23.274 41.9161 22.7118 41.3459C21.1388 39.7504 20.0902 38.0642 19.4143 36.0431C18.9629 34.6938 18.8177 33.8508 18.7631 32.2637C18.6928 30.2257 18.9694 28.5321 19.6504 26.8306C19.9635 26.0484 19.9854 25.7631 19.7425 25.6331C19.5153 25.5115 19.5163 25.5113 19.2993 25.6981ZM31.8344 31.7728C31.8176 34.9681 31.7912 37.5952 31.7757 37.6108C31.7106 37.6766 30.1516 37.2514 29.7976 37.0713C28.1821 36.2494 27.0123 34.8188 26.6062 33.1683C26.4285 32.4459 26.4203 31.1378 26.5891 30.4314C27.0189 28.6327 28.2637 27.1492 29.9824 26.3869C30.4729 26.1693 31.5759 25.8954 31.7741 25.9418C31.8339 25.9559 31.8545 27.9493 31.8344 31.7728ZM12.8302 33.3125C12.5908 33.6011 13.0192 36.3653 13.3396 36.5997C13.5581 36.7596 13.6172 36.7513 13.8383 36.5301C13.9527 36.4156 14.0043 36.2823 13.9695 36.1913C13.8832 35.9661 13.5587 34.0119 13.5587 33.7169C13.5587 33.261 13.0891 33.0004 12.8302 33.3125ZM13.9496 38.4145C13.7604 38.9077 15.0765 41.5598 16.4258 43.4042C18.4963 46.2344 21.5584 48.6266 24.814 49.9572C25.8116 50.3651 26.1637 50.4307 26.3504 50.2439C26.6619 49.9323 26.4127 49.6711 25.46 49.3106C20.7383 47.5237 16.8585 43.7063 14.8104 38.8322C14.5903 38.3086 14.5496 38.2641 14.2894 38.2641C14.1107 38.2641 13.9861 38.3193 13.9496 38.4145Z" fill="white" stroke="white" stroke-width="0.5"/>
</g>
</svg>
