<svg width="24" height="24" viewBox="0 0 24 24" fill="none" xmlns="http://www.w3.org/2000/svg">
<path d="M15.75 2H8.25C4.79875 2 2 4.79875 2 8.25V15.75C2 19.2013 4.79875 22 8.25 22H15.75C19.2013 22 22 19.2013 22 15.75V8.25C22 4.79875 19.2013 2 15.75 2ZM20.125 15.75C20.125 18.1625 18.1625 20.125 15.75 20.125H8.25C5.8375 20.125 3.875 18.1625 3.875 15.75V8.25C3.875 5.8375 5.8375 3.875 8.25 3.875H15.75C18.1625 3.875 20.125 5.8375 20.125 8.25V15.75Z" fill="white"/>
<path d="M11.9999 7C9.23866 7 6.99991 9.23875 6.99991 12C6.99991 14.7613 9.23866 17 11.9999 17C14.7612 17 16.9999 14.7613 16.9999 12C16.9999 9.23875 14.7612 7 11.9999 7ZM11.9999 15.125C10.2774 15.125 8.87491 13.7225 8.87491 12C8.87491 10.2763 10.2774 8.875 11.9999 8.875C13.7224 8.875 15.1249 10.2763 15.1249 12C15.1249 13.7225 13.7224 15.125 11.9999 15.125Z" fill="white"/>
<path d="M17.375 7.29148C17.743 7.29148 18.0413 6.99319 18.0413 6.62523C18.0413 6.25727 17.743 5.95898 17.375 5.95898C17.0071 5.95898 16.7088 6.25727 16.7088 6.62523C16.7088 6.99319 17.0071 7.29148 17.375 7.29148Z" fill="white"/>
</svg>
