<svg width="40" height="40" viewBox="0 0 40 40" fill="none" xmlns="http://www.w3.org/2000/svg">
<path fill-rule="evenodd" clip-rule="evenodd" d="M20 30L12.3875 19.25C11.1415 17.7788 10.339 15.9839 10.0737 14.0744C9.80831 12.1648 10.0909 10.2191 10.8886 8.46394C11.6863 6.70878 12.9662 5.21635 14.5793 4.16049C16.1924 3.10462 18.0723 2.52877 20 2.5C22.6722 2.52641 25.225 3.61074 27.0993 5.51552C28.9736 7.42029 30.0166 9.99024 30 12.6625C30.001 14.9937 29.2074 17.2556 27.75 19.075L20 30ZM20 5C17.9898 5.02308 16.0709 5.84297 14.6647 7.27963C13.2585 8.71629 12.48 10.6523 12.5 12.6625C12.5083 14.4973 13.1685 16.2694 14.3625 17.6625L20 25.65L25.7875 17.5C26.8876 16.1268 27.4911 14.422 27.5 12.6625C27.52 10.6523 26.7414 8.71629 25.3352 7.27963C23.929 5.84297 22.0102 5.02308 20 5ZM20 13.75C21.3807 13.75 22.5 12.6307 22.5 11.25C22.5 9.86929 21.3807 8.75 20 8.75C18.6193 8.75 17.5 9.86929 17.5 11.25C17.5 12.6307 18.6193 13.75 20 13.75ZM32.5 15H35C35.663 15 36.2989 15.2634 36.7678 15.7322C37.2366 16.2011 37.5 16.837 37.5 17.5V35C37.5 35.663 37.2366 36.2989 36.7678 36.7678C36.2989 37.2366 35.663 37.5 35 37.5H5C4.33696 37.5 3.70107 37.2366 3.23223 36.7678C2.76339 36.2989 2.5 35.663 2.5 35V17.5C2.5 16.837 2.76339 16.2011 3.23223 15.7322C3.70107 15.2634 4.33696 15 5 15H7.5V17.5H5V35H35V17.5H32.5V15Z" fill="#16246B"/>
</svg>
