<svg width="22" height="22" viewBox="0 0 22 22" fill="none" xmlns="http://www.w3.org/2000/svg">
<path d="M11 4.74121e-07C12.4658 -0.00043117 13.9167 0.29387 15.2665 0.865408C16.6163 1.43694 17.8374 2.27405 18.8571 3.32695V4.74121e-07H20.4286V6.28571H14.1429V4.71429H18.0099C16.5378 3.07966 14.5398 2.01215 12.3627 1.69709C10.1856 1.38202 7.96689 1.83929 6.09178 2.98951C4.21667 4.13974 2.80356 5.91028 2.09777 7.99376C1.39197 10.0772 1.43807 12.3421 2.22805 14.3951C3.01804 16.4482 4.50202 18.1598 6.42238 19.2327C8.34274 20.3057 10.5782 20.6723 12.7407 20.2689C14.9032 19.8655 16.8561 18.7176 18.2605 17.0244C19.6648 15.3313 20.4319 13.1998 20.4286 11H22C22 13.1756 21.3549 15.3023 20.1462 17.1113C18.9375 18.9202 17.2195 20.3301 15.2095 21.1627C13.1995 21.9952 10.9878 22.2131 8.85401 21.7886C6.72022 21.3642 4.76021 20.3165 3.22183 18.7782C1.68345 17.2398 0.635804 15.2798 0.211367 13.146C-0.213071 11.0122 0.00476612 8.80047 0.83733 6.79048C1.66989 4.7805 3.07979 3.06253 4.88873 1.85383C6.69767 0.645139 8.82441 4.74121e-07 11 4.74121e-07Z" fill="#16246B"/>
</svg>
