<svg width="24" height="24" viewBox="0 0 24 24" fill="none" xmlns="http://www.w3.org/2000/svg">
<path d="M21 6.70474C20.3306 6.99385 19.6174 7.18548 18.8737 7.27852C19.6387 6.8288 20.2226 6.12209 20.4971 5.27028C19.7839 5.68898 18.9964 5.98474 18.1571 6.14978C17.4799 5.43975 16.5146 5 15.4616 5C13.4186 5 11.7739 6.63274 11.7739 8.63434C11.7739 8.92234 11.7986 9.19926 11.8594 9.46289C8.7915 9.31557 6.07687 7.86782 4.25325 5.6624C3.93487 6.20628 3.74812 6.8288 3.74812 7.49895C3.74812 8.75729 4.40625 9.87274 5.38725 10.5185C4.79437 10.5074 4.21275 10.338 3.72 10.071C3.72 10.0821 3.72 10.0965 3.72 10.1109C3.72 11.8766 4.99912 13.3431 6.6765 13.681C6.37612 13.7618 6.04875 13.8006 5.709 13.8006C5.47275 13.8006 5.23425 13.7873 5.01037 13.7386C5.4885 15.1775 6.84525 16.2353 8.4585 16.2697C7.203 17.2367 5.60887 17.8193 3.88313 17.8193C3.5805 17.8193 3.29025 17.806 3 17.7695C4.63462 18.8074 6.57187 19.4 8.661 19.4C15.4515 19.4 19.164 13.8615 19.164 9.0608C19.164 8.90018 19.1584 8.74511 19.1505 8.59114C19.8829 8.07938 20.4982 7.44025 21 6.70474Z" fill="white"/>
</svg>
