<svg width="24" height="24" viewBox="0 0 24 24" fill="none" xmlns="http://www.w3.org/2000/svg">
<path fill-rule="evenodd" clip-rule="evenodd" d="M20.5764 6.74947C20.7099 6.32669 20.5764 6.01922 19.9855 6.01922H18.0219C17.5263 6.01922 17.2975 6.28826 17.1641 6.57651C17.1641 6.57651 16.1537 9.0363 14.743 10.6313C14.2855 11.0925 14.0758 11.2463 13.828 11.2463C13.6946 11.2463 13.523 11.0925 13.523 10.6698V6.73025C13.523 6.2306 13.3705 6 12.9511 6H9.86281C9.5578 6 9.36717 6.2306 9.36717 6.46121C9.36717 6.94164 10.0725 7.05694 10.1488 8.40214V11.3231C10.1488 11.9573 10.0344 12.0726 9.78656 12.0726C9.11934 12.0726 7.49895 9.59359 6.52672 6.76868C6.33609 6.21139 6.14546 6 5.64981 6H3.66722C3.09532 6 3 6.26904 3 6.55729C3 7.07616 3.66722 9.68968 6.10733 13.1488C7.72772 15.5125 10.0344 16.7808 12.1123 16.7808C13.3705 16.7808 13.523 16.4925 13.523 16.0121V14.2249C13.523 13.6484 13.6374 13.5523 14.0377 13.5523C14.3236 13.5523 14.8384 13.706 16.0012 14.8399C17.3357 16.1851 17.5644 16.8 18.3079 16.8H20.2714C20.8433 16.8 21.1102 16.5117 20.9577 15.9544C20.7861 15.3972 20.138 14.59 19.2992 13.6292C18.8417 13.0911 18.1554 12.4954 17.9457 12.2071C17.6597 11.8228 17.736 11.669 17.9457 11.3231C17.9266 11.3231 20.3286 7.90249 20.5764 6.74947Z" fill="white"/>
</svg>
