<svg width="24" height="24" viewBox="0 0 24 24" fill="none" xmlns="http://www.w3.org/2000/svg">
<path fill-rule="evenodd" clip-rule="evenodd" d="M11.9949 2C17.51 2 21.9897 6.47975 21.9897 11.9949C21.9897 16.9802 18.3403 21.1068 13.5629 21.8636V14.8855H15.8797L16.3205 11.9947H16.3091L16.3106 11.9846H13.5424V10.1187C13.5424 9.3294 13.9422 8.55031 15.1826 8.55031H16.4333V6.11054C16.4333 6.11054 16.4299 6.1099 16.4234 6.1087V6.10046C16.4234 6.10046 15.2957 5.88519 14.1989 5.88519C11.9231 5.88519 10.4367 7.27934 10.4367 9.78063V11.9846H7.88416V14.8754H7.89404V14.8855H10.4367V21.8667C5.65967 21.1184 2 16.9872 2 11.9949C2 6.47975 6.47975 2 11.9949 2Z" fill="#444444"/>
</svg>
