<svg width="24" height="24" viewBox="0 0 24 24" fill="none" xmlns="http://www.w3.org/2000/svg">
<path fill-rule="evenodd" clip-rule="evenodd" d="M20.8639 4.47742C21.8445 4.74839 22.6187 5.52258 22.8768 6.50323C23.3542 8.28387 23.3542 12 23.3542 12C23.3542 12 23.3542 15.7161 22.8897 17.4968C22.6187 18.4903 21.8574 19.2645 20.8768 19.5226C19.0961 20 11.9994 20 11.9994 20C11.9994 20 4.9026 20 3.13485 19.5226C2.15421 19.2516 1.38002 18.4774 1.12195 17.4968C0.644531 15.7161 0.644531 12 0.644531 12C0.644531 12 0.644531 8.28387 1.10905 6.50323C1.38002 5.50968 2.14131 4.73548 3.12195 4.47742C4.9026 4 11.9994 4 11.9994 4C11.9994 4 19.0961 4 20.8639 4.47742ZM15.6122 12.0003L9.67676 15.3809V8.61963L15.6122 12.0003Z" fill="#444444"/>
</svg>
