<svg width="128" height="128" viewBox="0 0 128 128" fill="none" xmlns="http://www.w3.org/2000/svg">
<mask id="path-1-inside-1_2169_56736" fill="white">
<path d="M69.7688 52.8021V46.4575C72.6762 45.2397 75.0696 43.0617 76.5431 40.2927C78.0167 37.5238 78.4797 34.3343 77.8536 31.2652C77.2276 28.1962 75.551 25.4364 73.1082 23.454C70.6654 21.4716 67.6067 20.3886 64.451 20.3886C61.2952 20.3886 58.2366 21.4716 55.7938 23.454C53.351 25.4364 51.6744 28.1962 51.0483 31.2652C50.4223 34.3343 50.8853 37.5238 52.3588 40.2927C53.8324 43.0617 56.2258 45.2397 59.1331 46.4575V52.8021H62.1719V47.3212C63.6789 47.5936 65.2231 47.5936 66.7301 47.3212V52.8021H69.7688ZM64.451 44.5103C61.8951 44.5089 59.4253 43.5937 57.4942 41.9324C55.563 40.2711 54.2999 37.9749 53.9361 35.4647H54.575C54.978 35.4647 55.3644 35.3058 55.6494 35.0231C55.9343 34.7404 56.0944 34.3569 56.0944 33.957C56.0944 33.5572 55.9343 33.1737 55.6494 32.891C55.3644 32.6083 54.978 32.4494 54.575 32.4494H53.9361C54.1874 30.7064 54.8771 29.0542 55.9416 27.6455L56.3934 28.0937C56.6785 28.3755 57.0646 28.5336 57.467 28.5332C57.8694 28.5328 58.2553 28.374 58.5398 28.0917C58.8244 27.8093 58.9844 27.4265 58.9848 27.0272C58.9852 26.6279 58.8259 26.2448 58.5419 25.9619L58.0901 25.5136C59.5099 24.4574 61.175 23.773 62.9316 23.5237V24.1576C62.9316 24.5574 63.0917 24.9409 63.3766 25.2236C63.6616 25.5064 64.048 25.6652 64.451 25.6652C64.8539 25.6652 65.2404 25.5064 65.5253 25.2236C65.8103 24.9409 65.9704 24.5574 65.9704 24.1576V23.5237C67.727 23.773 69.3921 24.4574 70.8119 25.5136L70.3601 25.9619C70.2186 26.1018 70.1063 26.268 70.0296 26.451C69.9529 26.634 69.9133 26.8302 69.9131 27.0284C69.9129 27.2266 69.9521 27.4229 70.0285 27.606C70.1048 27.7892 70.2168 27.9556 70.3581 28.0958C70.4993 28.2359 70.667 28.347 70.8516 28.4228C71.0362 28.4986 71.234 28.5375 71.4338 28.5373C71.6335 28.5371 71.8313 28.4978 72.0157 28.4217C72.2001 28.3456 72.3676 28.2341 72.5086 28.0937L72.9604 27.6455C74.0249 29.0542 74.7146 30.7064 74.9658 32.4494H74.327C73.924 32.4494 73.5375 32.6083 73.2526 32.891C72.9677 33.1737 72.8076 33.5572 72.8076 33.957C72.8076 34.3569 72.9677 34.7404 73.2526 35.0231C73.5375 35.3058 73.924 35.4647 74.327 35.4647H74.9658C74.6021 37.9749 73.3389 40.2711 71.4078 41.9324C69.4767 43.5937 67.0069 44.5089 64.451 44.5103Z"/>
<path d="M109.705 80.3536H108.93V71.9174C108.926 68.4608 107.538 65.1468 105.069 62.7026C102.6 60.2584 99.2534 58.8835 95.7622 58.8797H88.0163V61.9474H95.7622C98.4319 61.9504 100.991 63.0017 102.879 64.8708C104.767 66.7399 105.829 69.2741 105.832 71.9174V80.3536H94.9876V77.2859C94.9863 76.0659 94.4962 74.8963 93.6249 74.0336C92.7536 73.1709 91.5723 72.6857 90.3401 72.6844H88.0163V75.7521H90.3401C90.7508 75.7525 91.1446 75.9143 91.435 76.2018C91.7254 76.4894 91.8888 76.8793 91.8893 77.2859V80.3536H91.1147C90.0879 80.3548 89.1035 80.7592 88.3774 81.4781C87.6514 82.197 87.243 83.1716 87.2417 84.1883V88.7898C87.243 89.8065 87.6514 90.7811 88.3774 91.5C89.1035 92.2189 90.0879 92.6233 91.1147 92.6245H91.8893V100.294H91.1147C90.0879 100.295 89.1035 100.699 88.3774 101.418C87.6514 102.137 87.243 103.112 87.2417 104.128V108.73C87.243 109.747 87.6514 110.721 88.3774 111.44C89.1035 112.159 90.0879 112.563 91.1147 112.565H109.705C110.732 112.563 111.716 112.159 112.442 111.44C113.168 110.721 113.577 109.747 113.578 108.73V104.128C113.577 103.112 113.168 102.137 112.442 101.418C111.716 100.699 110.732 100.295 109.705 100.294H108.93V92.6245H109.705C110.732 92.6233 111.716 92.2189 112.442 91.5C113.168 90.7811 113.577 89.8065 113.578 88.7898V84.1883C113.577 83.1716 113.168 82.197 112.442 81.4781C111.716 80.7592 110.732 80.3548 109.705 80.3536ZM109.705 103.361C109.91 103.362 110.107 103.443 110.252 103.586C110.398 103.73 110.479 103.925 110.479 104.128V108.73C110.479 108.933 110.398 109.128 110.252 109.272C110.107 109.416 109.91 109.497 109.705 109.497H91.1147C90.9093 109.497 90.7124 109.416 90.5672 109.272C90.422 109.128 90.3403 108.933 90.3401 108.73V104.128C90.3403 103.925 90.422 103.73 90.5672 103.586C90.7124 103.443 90.9093 103.362 91.1147 103.361H109.705ZM94.9876 100.294V92.6245H105.832V100.294H94.9876ZM110.479 88.7898C110.479 88.9932 110.398 89.1881 110.252 89.3319C110.107 89.4757 109.91 89.5566 109.705 89.5568H91.1147C90.9093 89.5566 90.7124 89.4757 90.5672 89.3319C90.422 89.1881 90.3403 88.9932 90.3401 88.7898V84.1883C90.3403 83.9849 90.422 83.79 90.5672 83.6462C90.7124 83.5024 90.9093 83.4215 91.1147 83.4213H109.705C109.91 83.4215 110.107 83.5024 110.252 83.6462C110.398 83.79 110.479 83.9849 110.479 84.1883V88.7898Z"/>
<path d="M20.0611 47.231H20.8059V63.1846C20.8097 66.6086 22.1448 69.8913 24.5185 72.3125C26.8922 74.7336 30.1106 76.0955 33.4675 76.0993H40.9154V73.0606H33.4675C30.9004 73.0576 28.4394 72.0162 26.6242 70.1647C24.809 68.3132 23.788 65.8029 23.7851 63.1846V47.231H34.2122V57.8667C34.2135 59.0752 34.6848 60.2338 35.5226 61.0884C36.3603 61.9429 37.4962 62.4236 38.681 62.4249H40.9154V59.3861H38.681C38.2861 59.3857 37.9075 59.2254 37.6282 58.9406C37.349 58.6558 37.1919 58.2696 37.1914 57.8667V47.231H37.9362C38.9235 47.2299 39.8701 46.8293 40.5682 46.1172C41.2663 45.4051 41.6591 44.4396 41.6602 43.4326V38.8744C41.6591 37.8674 41.2663 36.9019 40.5682 36.1898C39.8701 35.4777 38.9235 35.0772 37.9362 35.076H37.1914V27.479H37.9362C38.9235 27.4779 39.8701 27.0773 40.5682 26.3652C41.2663 25.6531 41.6591 24.6876 41.6602 23.6806V19.1224C41.6591 18.1154 41.2663 17.1499 40.5682 16.4378C39.8701 15.7257 38.9235 15.3252 37.9362 15.324H20.0611C19.0738 15.3252 18.1273 15.7257 17.4292 16.4378C16.731 17.1499 16.3383 18.1154 16.3371 19.1224V23.6806C16.3383 24.6876 16.731 25.6531 17.4292 26.3652C18.1273 27.0773 19.0738 27.4779 20.0611 27.479H20.8059V35.076H20.0611C19.0738 35.0772 18.1273 35.4777 17.4292 36.1898C16.731 36.9019 16.3383 37.8674 16.3371 38.8744V43.4326C16.3383 44.4396 16.731 45.4051 17.4292 46.1172C18.1273 46.8293 19.0738 47.2299 20.0611 47.231ZM20.0611 24.4403C19.8636 24.4401 19.6743 24.36 19.5347 24.2176C19.3951 24.0751 19.3165 23.882 19.3163 23.6806V19.1224C19.3165 18.921 19.3951 18.7279 19.5347 18.5855C19.6743 18.443 19.8636 18.3629 20.0611 18.3627H37.9362C38.1337 18.3629 38.323 18.443 38.4627 18.5855C38.6023 18.7279 38.6808 18.921 38.681 19.1224V23.6806C38.6808 23.882 38.6023 24.0751 38.4627 24.2176C38.323 24.36 38.1337 24.4401 37.9362 24.4403H20.0611ZM34.2122 27.479V35.076H23.7851V27.479H34.2122ZM19.3163 38.8744C19.3165 38.673 19.3951 38.4799 19.5347 38.3375C19.6743 38.195 19.8636 38.1149 20.0611 38.1147H37.9362C38.1337 38.1149 38.323 38.195 38.4627 38.3375C38.6023 38.4799 38.6808 38.673 38.681 38.8744V43.4326C38.6808 43.634 38.6023 43.8271 38.4627 43.9695C38.323 44.112 38.1337 44.1921 37.9362 44.1923H20.0611C19.8636 44.1921 19.6743 44.112 19.5347 43.9695C19.3951 43.8271 19.3165 43.634 19.3163 43.4326V38.8744Z"/>
<path d="M19.1227 111.552H23.6808C24.6879 111.55 25.6533 111.145 26.3654 110.423C27.0775 109.701 27.4781 108.723 27.4793 107.703V106.933H60.1461C63.5701 106.929 66.8528 105.549 69.274 103.095C71.6951 100.642 73.057 97.3154 73.0608 93.8458V79.2192H74.6881C74.8555 79.8785 75.2341 80.4629 75.7645 80.8809C76.2949 81.2988 76.9471 81.5266 77.619 81.5286H82.1771C82.9828 81.5277 83.7552 81.203 84.3249 80.6257C84.8946 80.0485 85.215 79.2657 85.2159 78.4493V56.8943C85.215 56.0779 84.8946 55.2952 84.3249 54.7179C83.7552 54.1406 82.9828 53.8159 82.1771 53.815H77.619C76.9471 53.817 76.2949 54.0449 75.7645 54.4628C75.2341 54.8807 74.8555 55.4652 74.6881 56.1245H54.7203C54.5529 55.4652 54.1743 54.8807 53.6439 54.4628C53.1135 54.0449 52.4613 53.817 51.7894 53.815H47.2313C46.4256 53.8159 45.6532 54.1406 45.0835 54.7179C44.5138 55.2952 44.1934 56.0779 44.1925 56.8943V78.4493C44.1934 79.2657 44.5138 80.0485 45.0835 80.6257C45.6532 81.203 46.4256 81.5277 47.2313 81.5286H51.7894C52.4613 81.5266 53.1135 81.2988 53.6439 80.8809C54.1743 80.4629 54.5529 79.8785 54.7203 79.2192H56.3476V88.457C56.3471 88.8652 56.1869 89.2565 55.9021 89.5452C55.6172 89.8338 55.231 89.9962 54.8282 89.9967H27.4793V89.2268C27.4781 88.2064 27.0775 87.228 26.3654 86.5064C25.6533 85.7848 24.6879 85.3789 23.6808 85.3777H19.1227C18.1156 85.3789 17.1502 85.7848 16.4381 86.5064C15.726 87.228 15.3254 88.2064 15.3242 89.2268V107.703C15.3254 108.723 15.726 109.701 16.4381 110.423C17.1502 111.145 18.1156 111.55 19.1227 111.552ZM77.619 56.8943H82.1771L82.1794 78.4493H77.619V56.8943ZM47.2313 78.4493V56.8943H51.7894L51.7917 78.4493H47.2313ZM54.8282 76.1399V59.2038H74.5802V76.1399H54.8282ZM27.4793 93.0759H54.8282C56.0367 93.0746 57.1953 92.5875 58.0499 91.7216C58.9044 90.8557 59.385 89.6816 59.3864 88.457V79.2192H70.0221V93.8458C70.0191 96.499 68.9776 99.0428 67.1262 100.919C65.2747 102.795 62.7644 103.85 60.1461 103.853H27.4793V93.0759ZM18.363 89.2268C18.3632 89.0227 18.4433 88.827 18.5857 88.6827C18.7281 88.5384 18.9213 88.4572 19.1227 88.457H23.6808C23.8823 88.4572 24.0754 88.5384 24.2178 88.6827C24.3602 88.827 24.4403 89.0227 24.4405 89.2268V107.703C24.4403 107.907 24.3602 108.102 24.2178 108.247C24.0754 108.391 23.8823 108.472 23.6808 108.472H19.1227C18.9213 108.472 18.7281 108.391 18.5857 108.247C18.4433 108.102 18.3632 107.907 18.363 107.703V89.2268Z"/>
<path d="M64.9574 61.9184C61.5495 61.9184 58.8799 64.3655 58.8799 67.4895C58.8799 70.6135 61.5495 73.0606 64.9574 73.0606C68.3654 73.0606 71.035 70.6135 71.035 67.4895C71.035 64.3655 68.3654 61.9184 64.9574 61.9184ZM64.9574 69.8771C63.2792 69.8771 61.9187 68.8081 61.9187 67.4895C61.9187 66.1709 63.2792 65.1019 64.9574 65.1019C66.6357 65.1019 67.9962 66.1709 67.9962 67.4895C67.9962 68.8081 66.6357 69.8771 64.9574 69.8771Z"/>
</mask>
<path d="M69.7688 52.8021V46.4575C72.6762 45.2397 75.0696 43.0617 76.5431 40.2927C78.0167 37.5238 78.4797 34.3343 77.8536 31.2652C77.2276 28.1962 75.551 25.4364 73.1082 23.454C70.6654 21.4716 67.6067 20.3886 64.451 20.3886C61.2952 20.3886 58.2366 21.4716 55.7938 23.454C53.351 25.4364 51.6744 28.1962 51.0483 31.2652C50.4223 34.3343 50.8853 37.5238 52.3588 40.2927C53.8324 43.0617 56.2258 45.2397 59.1331 46.4575V52.8021H62.1719V47.3212C63.6789 47.5936 65.2231 47.5936 66.7301 47.3212V52.8021H69.7688ZM64.451 44.5103C61.8951 44.5089 59.4253 43.5937 57.4942 41.9324C55.563 40.2711 54.2999 37.9749 53.9361 35.4647H54.575C54.978 35.4647 55.3644 35.3058 55.6494 35.0231C55.9343 34.7404 56.0944 34.3569 56.0944 33.957C56.0944 33.5572 55.9343 33.1737 55.6494 32.891C55.3644 32.6083 54.978 32.4494 54.575 32.4494H53.9361C54.1874 30.7064 54.8771 29.0542 55.9416 27.6455L56.3934 28.0937C56.6785 28.3755 57.0646 28.5336 57.467 28.5332C57.8694 28.5328 58.2553 28.374 58.5398 28.0917C58.8244 27.8093 58.9844 27.4265 58.9848 27.0272C58.9852 26.6279 58.8259 26.2448 58.5419 25.9619L58.0901 25.5136C59.5099 24.4574 61.175 23.773 62.9316 23.5237V24.1576C62.9316 24.5574 63.0917 24.9409 63.3766 25.2236C63.6616 25.5064 64.048 25.6652 64.451 25.6652C64.8539 25.6652 65.2404 25.5064 65.5253 25.2236C65.8103 24.9409 65.9704 24.5574 65.9704 24.1576V23.5237C67.727 23.773 69.3921 24.4574 70.8119 25.5136L70.3601 25.9619C70.2186 26.1018 70.1063 26.268 70.0296 26.451C69.9529 26.634 69.9133 26.8302 69.9131 27.0284C69.9129 27.2266 69.9521 27.4229 70.0285 27.606C70.1048 27.7892 70.2168 27.9556 70.3581 28.0958C70.4993 28.2359 70.667 28.347 70.8516 28.4228C71.0362 28.4986 71.234 28.5375 71.4338 28.5373C71.6335 28.5371 71.8313 28.4978 72.0157 28.4217C72.2001 28.3456 72.3676 28.2341 72.5086 28.0937L72.9604 27.6455C74.0249 29.0542 74.7146 30.7064 74.9658 32.4494H74.327C73.924 32.4494 73.5375 32.6083 73.2526 32.891C72.9677 33.1737 72.8076 33.5572 72.8076 33.957C72.8076 34.3569 72.9677 34.7404 73.2526 35.0231C73.5375 35.3058 73.924 35.4647 74.327 35.4647H74.9658C74.6021 37.9749 73.3389 40.2711 71.4078 41.9324C69.4767 43.5937 67.0069 44.5089 64.451 44.5103Z" fill="#16246B"/>
<path d="M109.705 80.3536H108.93V71.9174C108.926 68.4608 107.538 65.1468 105.069 62.7026C102.6 60.2584 99.2534 58.8835 95.7622 58.8797H88.0163V61.9474H95.7622C98.4319 61.9504 100.991 63.0017 102.879 64.8708C104.767 66.7399 105.829 69.2741 105.832 71.9174V80.3536H94.9876V77.2859C94.9863 76.0659 94.4962 74.8963 93.6249 74.0336C92.7536 73.1709 91.5723 72.6857 90.3401 72.6844H88.0163V75.7521H90.3401C90.7508 75.7525 91.1446 75.9143 91.435 76.2018C91.7254 76.4894 91.8888 76.8793 91.8893 77.2859V80.3536H91.1147C90.0879 80.3548 89.1035 80.7592 88.3774 81.4781C87.6514 82.197 87.243 83.1716 87.2417 84.1883V88.7898C87.243 89.8065 87.6514 90.7811 88.3774 91.5C89.1035 92.2189 90.0879 92.6233 91.1147 92.6245H91.8893V100.294H91.1147C90.0879 100.295 89.1035 100.699 88.3774 101.418C87.6514 102.137 87.243 103.112 87.2417 104.128V108.73C87.243 109.747 87.6514 110.721 88.3774 111.44C89.1035 112.159 90.0879 112.563 91.1147 112.565H109.705C110.732 112.563 111.716 112.159 112.442 111.44C113.168 110.721 113.577 109.747 113.578 108.73V104.128C113.577 103.112 113.168 102.137 112.442 101.418C111.716 100.699 110.732 100.295 109.705 100.294H108.93V92.6245H109.705C110.732 92.6233 111.716 92.2189 112.442 91.5C113.168 90.7811 113.577 89.8065 113.578 88.7898V84.1883C113.577 83.1716 113.168 82.197 112.442 81.4781C111.716 80.7592 110.732 80.3548 109.705 80.3536ZM109.705 103.361C109.91 103.362 110.107 103.443 110.252 103.586C110.398 103.73 110.479 103.925 110.479 104.128V108.73C110.479 108.933 110.398 109.128 110.252 109.272C110.107 109.416 109.91 109.497 109.705 109.497H91.1147C90.9093 109.497 90.7124 109.416 90.5672 109.272C90.422 109.128 90.3403 108.933 90.3401 108.73V104.128C90.3403 103.925 90.422 103.73 90.5672 103.586C90.7124 103.443 90.9093 103.362 91.1147 103.361H109.705ZM94.9876 100.294V92.6245H105.832V100.294H94.9876ZM110.479 88.7898C110.479 88.9932 110.398 89.1881 110.252 89.3319C110.107 89.4757 109.91 89.5566 109.705 89.5568H91.1147C90.9093 89.5566 90.7124 89.4757 90.5672 89.3319C90.422 89.1881 90.3403 88.9932 90.3401 88.7898V84.1883C90.3403 83.9849 90.422 83.79 90.5672 83.6462C90.7124 83.5024 90.9093 83.4215 91.1147 83.4213H109.705C109.91 83.4215 110.107 83.5024 110.252 83.6462C110.398 83.79 110.479 83.9849 110.479 84.1883V88.7898Z" fill="#16246B"/>
<path d="M20.0611 47.231H20.8059V63.1846C20.8097 66.6086 22.1448 69.8913 24.5185 72.3125C26.8922 74.7336 30.1106 76.0955 33.4675 76.0993H40.9154V73.0606H33.4675C30.9004 73.0576 28.4394 72.0162 26.6242 70.1647C24.809 68.3132 23.788 65.8029 23.7851 63.1846V47.231H34.2122V57.8667C34.2135 59.0752 34.6848 60.2338 35.5226 61.0884C36.3603 61.9429 37.4962 62.4236 38.681 62.4249H40.9154V59.3861H38.681C38.2861 59.3857 37.9075 59.2254 37.6282 58.9406C37.349 58.6558 37.1919 58.2696 37.1914 57.8667V47.231H37.9362C38.9235 47.2299 39.8701 46.8293 40.5682 46.1172C41.2663 45.4051 41.6591 44.4396 41.6602 43.4326V38.8744C41.6591 37.8674 41.2663 36.9019 40.5682 36.1898C39.8701 35.4777 38.9235 35.0772 37.9362 35.076H37.1914V27.479H37.9362C38.9235 27.4779 39.8701 27.0773 40.5682 26.3652C41.2663 25.6531 41.6591 24.6876 41.6602 23.6806V19.1224C41.6591 18.1154 41.2663 17.1499 40.5682 16.4378C39.8701 15.7257 38.9235 15.3252 37.9362 15.324H20.0611C19.0738 15.3252 18.1273 15.7257 17.4292 16.4378C16.731 17.1499 16.3383 18.1154 16.3371 19.1224V23.6806C16.3383 24.6876 16.731 25.6531 17.4292 26.3652C18.1273 27.0773 19.0738 27.4779 20.0611 27.479H20.8059V35.076H20.0611C19.0738 35.0772 18.1273 35.4777 17.4292 36.1898C16.731 36.9019 16.3383 37.8674 16.3371 38.8744V43.4326C16.3383 44.4396 16.731 45.4051 17.4292 46.1172C18.1273 46.8293 19.0738 47.2299 20.0611 47.231ZM20.0611 24.4403C19.8636 24.4401 19.6743 24.36 19.5347 24.2176C19.3951 24.0751 19.3165 23.882 19.3163 23.6806V19.1224C19.3165 18.921 19.3951 18.7279 19.5347 18.5855C19.6743 18.443 19.8636 18.3629 20.0611 18.3627H37.9362C38.1337 18.3629 38.323 18.443 38.4627 18.5855C38.6023 18.7279 38.6808 18.921 38.681 19.1224V23.6806C38.6808 23.882 38.6023 24.0751 38.4627 24.2176C38.323 24.36 38.1337 24.4401 37.9362 24.4403H20.0611ZM34.2122 27.479V35.076H23.7851V27.479H34.2122ZM19.3163 38.8744C19.3165 38.673 19.3951 38.4799 19.5347 38.3375C19.6743 38.195 19.8636 38.1149 20.0611 38.1147H37.9362C38.1337 38.1149 38.323 38.195 38.4627 38.3375C38.6023 38.4799 38.6808 38.673 38.681 38.8744V43.4326C38.6808 43.634 38.6023 43.8271 38.4627 43.9695C38.323 44.112 38.1337 44.1921 37.9362 44.1923H20.0611C19.8636 44.1921 19.6743 44.112 19.5347 43.9695C19.3951 43.8271 19.3165 43.634 19.3163 43.4326V38.8744Z" fill="#16246B"/>
<path d="M19.1227 111.552H23.6808C24.6879 111.55 25.6533 111.145 26.3654 110.423C27.0775 109.701 27.4781 108.723 27.4793 107.703V106.933H60.1461C63.5701 106.929 66.8528 105.549 69.274 103.095C71.6951 100.642 73.057 97.3154 73.0608 93.8458V79.2192H74.6881C74.8555 79.8785 75.2341 80.4629 75.7645 80.8809C76.2949 81.2988 76.9471 81.5266 77.619 81.5286H82.1771C82.9828 81.5277 83.7552 81.203 84.3249 80.6257C84.8946 80.0485 85.215 79.2657 85.2159 78.4493V56.8943C85.215 56.0779 84.8946 55.2952 84.3249 54.7179C83.7552 54.1406 82.9828 53.8159 82.1771 53.815H77.619C76.9471 53.817 76.2949 54.0449 75.7645 54.4628C75.2341 54.8807 74.8555 55.4652 74.6881 56.1245H54.7203C54.5529 55.4652 54.1743 54.8807 53.6439 54.4628C53.1135 54.0449 52.4613 53.817 51.7894 53.815H47.2313C46.4256 53.8159 45.6532 54.1406 45.0835 54.7179C44.5138 55.2952 44.1934 56.0779 44.1925 56.8943V78.4493C44.1934 79.2657 44.5138 80.0485 45.0835 80.6257C45.6532 81.203 46.4256 81.5277 47.2313 81.5286H51.7894C52.4613 81.5266 53.1135 81.2988 53.6439 80.8809C54.1743 80.4629 54.5529 79.8785 54.7203 79.2192H56.3476V88.457C56.3471 88.8652 56.1869 89.2565 55.9021 89.5452C55.6172 89.8338 55.231 89.9962 54.8282 89.9967H27.4793V89.2268C27.4781 88.2064 27.0775 87.228 26.3654 86.5064C25.6533 85.7848 24.6879 85.3789 23.6808 85.3777H19.1227C18.1156 85.3789 17.1502 85.7848 16.4381 86.5064C15.726 87.228 15.3254 88.2064 15.3242 89.2268V107.703C15.3254 108.723 15.726 109.701 16.4381 110.423C17.1502 111.145 18.1156 111.55 19.1227 111.552ZM77.619 56.8943H82.1771L82.1794 78.4493H77.619V56.8943ZM47.2313 78.4493V56.8943H51.7894L51.7917 78.4493H47.2313ZM54.8282 76.1399V59.2038H74.5802V76.1399H54.8282ZM27.4793 93.0759H54.8282C56.0367 93.0746 57.1953 92.5875 58.0499 91.7216C58.9044 90.8557 59.385 89.6816 59.3864 88.457V79.2192H70.0221V93.8458C70.0191 96.499 68.9776 99.0428 67.1262 100.919C65.2747 102.795 62.7644 103.85 60.1461 103.853H27.4793V93.0759ZM18.363 89.2268C18.3632 89.0227 18.4433 88.827 18.5857 88.6827C18.7281 88.5384 18.9213 88.4572 19.1227 88.457H23.6808C23.8823 88.4572 24.0754 88.5384 24.2178 88.6827C24.3602 88.827 24.4403 89.0227 24.4405 89.2268V107.703C24.4403 107.907 24.3602 108.102 24.2178 108.247C24.0754 108.391 23.8823 108.472 23.6808 108.472H19.1227C18.9213 108.472 18.7281 108.391 18.5857 108.247C18.4433 108.102 18.3632 107.907 18.363 107.703V89.2268Z" fill="#16246B"/>
<path d="M64.9574 61.9184C61.5495 61.9184 58.8799 64.3655 58.8799 67.4895C58.8799 70.6135 61.5495 73.0606 64.9574 73.0606C68.3654 73.0606 71.035 70.6135 71.035 67.4895C71.035 64.3655 68.3654 61.9184 64.9574 61.9184ZM64.9574 69.8771C63.2792 69.8771 61.9187 68.8081 61.9187 67.4895C61.9187 66.1709 63.2792 65.1019 64.9574 65.1019C66.6357 65.1019 67.9962 66.1709 67.9962 67.4895C67.9962 68.8081 66.6357 69.8771 64.9574 69.8771Z" fill="#16246B"/>
<path d="M69.7688 52.8021V46.4575C72.6762 45.2397 75.0696 43.0617 76.5431 40.2927C78.0167 37.5238 78.4797 34.3343 77.8536 31.2652C77.2276 28.1962 75.551 25.4364 73.1082 23.454C70.6654 21.4716 67.6067 20.3886 64.451 20.3886C61.2952 20.3886 58.2366 21.4716 55.7938 23.454C53.351 25.4364 51.6744 28.1962 51.0483 31.2652C50.4223 34.3343 50.8853 37.5238 52.3588 40.2927C53.8324 43.0617 56.2258 45.2397 59.1331 46.4575V52.8021H62.1719V47.3212C63.6789 47.5936 65.2231 47.5936 66.7301 47.3212V52.8021H69.7688ZM64.451 44.5103C61.8951 44.5089 59.4253 43.5937 57.4942 41.9324C55.563 40.2711 54.2999 37.9749 53.9361 35.4647H54.575C54.978 35.4647 55.3644 35.3058 55.6494 35.0231C55.9343 34.7404 56.0944 34.3569 56.0944 33.957C56.0944 33.5572 55.9343 33.1737 55.6494 32.891C55.3644 32.6083 54.978 32.4494 54.575 32.4494H53.9361C54.1874 30.7064 54.8771 29.0542 55.9416 27.6455L56.3934 28.0937C56.6785 28.3755 57.0646 28.5336 57.467 28.5332C57.8694 28.5328 58.2553 28.374 58.5398 28.0917C58.8244 27.8093 58.9844 27.4265 58.9848 27.0272C58.9852 26.6279 58.8259 26.2448 58.5419 25.9619L58.0901 25.5136C59.5099 24.4574 61.175 23.773 62.9316 23.5237V24.1576C62.9316 24.5574 63.0917 24.9409 63.3766 25.2236C63.6616 25.5064 64.048 25.6652 64.451 25.6652C64.8539 25.6652 65.2404 25.5064 65.5253 25.2236C65.8103 24.9409 65.9704 24.5574 65.9704 24.1576V23.5237C67.727 23.773 69.3921 24.4574 70.8119 25.5136L70.3601 25.9619C70.2186 26.1018 70.1063 26.268 70.0296 26.451C69.9529 26.634 69.9133 26.8302 69.9131 27.0284C69.9129 27.2266 69.9521 27.4229 70.0285 27.606C70.1048 27.7892 70.2168 27.9556 70.3581 28.0958C70.4993 28.2359 70.667 28.347 70.8516 28.4228C71.0362 28.4986 71.234 28.5375 71.4338 28.5373C71.6335 28.5371 71.8313 28.4978 72.0157 28.4217C72.2001 28.3456 72.3676 28.2341 72.5086 28.0937L72.9604 27.6455C74.0249 29.0542 74.7146 30.7064 74.9658 32.4494H74.327C73.924 32.4494 73.5375 32.6083 73.2526 32.891C72.9677 33.1737 72.8076 33.5572 72.8076 33.957C72.8076 34.3569 72.9677 34.7404 73.2526 35.0231C73.5375 35.3058 73.924 35.4647 74.327 35.4647H74.9658C74.6021 37.9749 73.3389 40.2711 71.4078 41.9324C69.4767 43.5937 67.0069 44.5089 64.451 44.5103Z" stroke="#FEFEFE" stroke-width="1.4" mask="url(#path-1-inside-1_2169_56736)"/>
<path d="M109.705 80.3536H108.93V71.9174C108.926 68.4608 107.538 65.1468 105.069 62.7026C102.6 60.2584 99.2534 58.8835 95.7622 58.8797H88.0163V61.9474H95.7622C98.4319 61.9504 100.991 63.0017 102.879 64.8708C104.767 66.7399 105.829 69.2741 105.832 71.9174V80.3536H94.9876V77.2859C94.9863 76.0659 94.4962 74.8963 93.6249 74.0336C92.7536 73.1709 91.5723 72.6857 90.3401 72.6844H88.0163V75.7521H90.3401C90.7508 75.7525 91.1446 75.9143 91.435 76.2018C91.7254 76.4894 91.8888 76.8793 91.8893 77.2859V80.3536H91.1147C90.0879 80.3548 89.1035 80.7592 88.3774 81.4781C87.6514 82.197 87.243 83.1716 87.2417 84.1883V88.7898C87.243 89.8065 87.6514 90.7811 88.3774 91.5C89.1035 92.2189 90.0879 92.6233 91.1147 92.6245H91.8893V100.294H91.1147C90.0879 100.295 89.1035 100.699 88.3774 101.418C87.6514 102.137 87.243 103.112 87.2417 104.128V108.73C87.243 109.747 87.6514 110.721 88.3774 111.44C89.1035 112.159 90.0879 112.563 91.1147 112.565H109.705C110.732 112.563 111.716 112.159 112.442 111.44C113.168 110.721 113.577 109.747 113.578 108.73V104.128C113.577 103.112 113.168 102.137 112.442 101.418C111.716 100.699 110.732 100.295 109.705 100.294H108.93V92.6245H109.705C110.732 92.6233 111.716 92.2189 112.442 91.5C113.168 90.7811 113.577 89.8065 113.578 88.7898V84.1883C113.577 83.1716 113.168 82.197 112.442 81.4781C111.716 80.7592 110.732 80.3548 109.705 80.3536ZM109.705 103.361C109.91 103.362 110.107 103.443 110.252 103.586C110.398 103.73 110.479 103.925 110.479 104.128V108.73C110.479 108.933 110.398 109.128 110.252 109.272C110.107 109.416 109.91 109.497 109.705 109.497H91.1147C90.9093 109.497 90.7124 109.416 90.5672 109.272C90.422 109.128 90.3403 108.933 90.3401 108.73V104.128C90.3403 103.925 90.422 103.73 90.5672 103.586C90.7124 103.443 90.9093 103.362 91.1147 103.361H109.705ZM94.9876 100.294V92.6245H105.832V100.294H94.9876ZM110.479 88.7898C110.479 88.9932 110.398 89.1881 110.252 89.3319C110.107 89.4757 109.91 89.5566 109.705 89.5568H91.1147C90.9093 89.5566 90.7124 89.4757 90.5672 89.3319C90.422 89.1881 90.3403 88.9932 90.3401 88.7898V84.1883C90.3403 83.9849 90.422 83.79 90.5672 83.6462C90.7124 83.5024 90.9093 83.4215 91.1147 83.4213H109.705C109.91 83.4215 110.107 83.5024 110.252 83.6462C110.398 83.79 110.479 83.9849 110.479 84.1883V88.7898Z" stroke="#FEFEFE" stroke-width="1.4" mask="url(#path-1-inside-1_2169_56736)"/>
<path d="M20.0611 47.231H20.8059V63.1846C20.8097 66.6086 22.1448 69.8913 24.5185 72.3125C26.8922 74.7336 30.1106 76.0955 33.4675 76.0993H40.9154V73.0606H33.4675C30.9004 73.0576 28.4394 72.0162 26.6242 70.1647C24.809 68.3132 23.788 65.8029 23.7851 63.1846V47.231H34.2122V57.8667C34.2135 59.0752 34.6848 60.2338 35.5226 61.0884C36.3603 61.9429 37.4962 62.4236 38.681 62.4249H40.9154V59.3861H38.681C38.2861 59.3857 37.9075 59.2254 37.6282 58.9406C37.349 58.6558 37.1919 58.2696 37.1914 57.8667V47.231H37.9362C38.9235 47.2299 39.8701 46.8293 40.5682 46.1172C41.2663 45.4051 41.6591 44.4396 41.6602 43.4326V38.8744C41.6591 37.8674 41.2663 36.9019 40.5682 36.1898C39.8701 35.4777 38.9235 35.0772 37.9362 35.076H37.1914V27.479H37.9362C38.9235 27.4779 39.8701 27.0773 40.5682 26.3652C41.2663 25.6531 41.6591 24.6876 41.6602 23.6806V19.1224C41.6591 18.1154 41.2663 17.1499 40.5682 16.4378C39.8701 15.7257 38.9235 15.3252 37.9362 15.324H20.0611C19.0738 15.3252 18.1273 15.7257 17.4292 16.4378C16.731 17.1499 16.3383 18.1154 16.3371 19.1224V23.6806C16.3383 24.6876 16.731 25.6531 17.4292 26.3652C18.1273 27.0773 19.0738 27.4779 20.0611 27.479H20.8059V35.076H20.0611C19.0738 35.0772 18.1273 35.4777 17.4292 36.1898C16.731 36.9019 16.3383 37.8674 16.3371 38.8744V43.4326C16.3383 44.4396 16.731 45.4051 17.4292 46.1172C18.1273 46.8293 19.0738 47.2299 20.0611 47.231ZM20.0611 24.4403C19.8636 24.4401 19.6743 24.36 19.5347 24.2176C19.3951 24.0751 19.3165 23.882 19.3163 23.6806V19.1224C19.3165 18.921 19.3951 18.7279 19.5347 18.5855C19.6743 18.443 19.8636 18.3629 20.0611 18.3627H37.9362C38.1337 18.3629 38.323 18.443 38.4627 18.5855C38.6023 18.7279 38.6808 18.921 38.681 19.1224V23.6806C38.6808 23.882 38.6023 24.0751 38.4627 24.2176C38.323 24.36 38.1337 24.4401 37.9362 24.4403H20.0611ZM34.2122 27.479V35.076H23.7851V27.479H34.2122ZM19.3163 38.8744C19.3165 38.673 19.3951 38.4799 19.5347 38.3375C19.6743 38.195 19.8636 38.1149 20.0611 38.1147H37.9362C38.1337 38.1149 38.323 38.195 38.4627 38.3375C38.6023 38.4799 38.6808 38.673 38.681 38.8744V43.4326C38.6808 43.634 38.6023 43.8271 38.4627 43.9695C38.323 44.112 38.1337 44.1921 37.9362 44.1923H20.0611C19.8636 44.1921 19.6743 44.112 19.5347 43.9695C19.3951 43.8271 19.3165 43.634 19.3163 43.4326V38.8744Z" stroke="#FEFEFE" stroke-width="1.4" mask="url(#path-1-inside-1_2169_56736)"/>
<path d="M19.1227 111.552H23.6808C24.6879 111.55 25.6533 111.145 26.3654 110.423C27.0775 109.701 27.4781 108.723 27.4793 107.703V106.933H60.1461C63.5701 106.929 66.8528 105.549 69.274 103.095C71.6951 100.642 73.057 97.3154 73.0608 93.8458V79.2192H74.6881C74.8555 79.8785 75.2341 80.4629 75.7645 80.8809C76.2949 81.2988 76.9471 81.5266 77.619 81.5286H82.1771C82.9828 81.5277 83.7552 81.203 84.3249 80.6257C84.8946 80.0485 85.215 79.2657 85.2159 78.4493V56.8943C85.215 56.0779 84.8946 55.2952 84.3249 54.7179C83.7552 54.1406 82.9828 53.8159 82.1771 53.815H77.619C76.9471 53.817 76.2949 54.0449 75.7645 54.4628C75.2341 54.8807 74.8555 55.4652 74.6881 56.1245H54.7203C54.5529 55.4652 54.1743 54.8807 53.6439 54.4628C53.1135 54.0449 52.4613 53.817 51.7894 53.815H47.2313C46.4256 53.8159 45.6532 54.1406 45.0835 54.7179C44.5138 55.2952 44.1934 56.0779 44.1925 56.8943V78.4493C44.1934 79.2657 44.5138 80.0485 45.0835 80.6257C45.6532 81.203 46.4256 81.5277 47.2313 81.5286H51.7894C52.4613 81.5266 53.1135 81.2988 53.6439 80.8809C54.1743 80.4629 54.5529 79.8785 54.7203 79.2192H56.3476V88.457C56.3471 88.8652 56.1869 89.2565 55.9021 89.5452C55.6172 89.8338 55.231 89.9962 54.8282 89.9967H27.4793V89.2268C27.4781 88.2064 27.0775 87.228 26.3654 86.5064C25.6533 85.7848 24.6879 85.3789 23.6808 85.3777H19.1227C18.1156 85.3789 17.1502 85.7848 16.4381 86.5064C15.726 87.228 15.3254 88.2064 15.3242 89.2268V107.703C15.3254 108.723 15.726 109.701 16.4381 110.423C17.1502 111.145 18.1156 111.55 19.1227 111.552ZM77.619 56.8943H82.1771L82.1794 78.4493H77.619V56.8943ZM47.2313 78.4493V56.8943H51.7894L51.7917 78.4493H47.2313ZM54.8282 76.1399V59.2038H74.5802V76.1399H54.8282ZM27.4793 93.0759H54.8282C56.0367 93.0746 57.1953 92.5875 58.0499 91.7216C58.9044 90.8557 59.385 89.6816 59.3864 88.457V79.2192H70.0221V93.8458C70.0191 96.499 68.9776 99.0428 67.1262 100.919C65.2747 102.795 62.7644 103.85 60.1461 103.853H27.4793V93.0759ZM18.363 89.2268C18.3632 89.0227 18.4433 88.827 18.5857 88.6827C18.7281 88.5384 18.9213 88.4572 19.1227 88.457H23.6808C23.8823 88.4572 24.0754 88.5384 24.2178 88.6827C24.3602 88.827 24.4403 89.0227 24.4405 89.2268V107.703C24.4403 107.907 24.3602 108.102 24.2178 108.247C24.0754 108.391 23.8823 108.472 23.6808 108.472H19.1227C18.9213 108.472 18.7281 108.391 18.5857 108.247C18.4433 108.102 18.3632 107.907 18.363 107.703V89.2268Z" stroke="#FEFEFE" stroke-width="1.4" mask="url(#path-1-inside-1_2169_56736)"/>
<path d="M64.9574 61.9184C61.5495 61.9184 58.8799 64.3655 58.8799 67.4895C58.8799 70.6135 61.5495 73.0606 64.9574 73.0606C68.3654 73.0606 71.035 70.6135 71.035 67.4895C71.035 64.3655 68.3654 61.9184 64.9574 61.9184ZM64.9574 69.8771C63.2792 69.8771 61.9187 68.8081 61.9187 67.4895C61.9187 66.1709 63.2792 65.1019 64.9574 65.1019C66.6357 65.1019 67.9962 66.1709 67.9962 67.4895C67.9962 68.8081 66.6357 69.8771 64.9574 69.8771Z" stroke="#FEFEFE" stroke-width="1.4" mask="url(#path-1-inside-1_2169_56736)"/>
</svg>
