<svg width="128" height="128" viewBox="0 0 128 128" fill="none" xmlns="http://www.w3.org/2000/svg">
<mask id="path-1-inside-1_2169_56484" fill="white">
<path fill-rule="evenodd" clip-rule="evenodd" d="M45.6947 14.1205C45.509 14.1869 45.1673 14.4179 44.9352 14.6338L44.5133 15.0265L44.465 20.2684C44.4115 26.0759 44.4193 26.1242 45.492 26.69C45.9672 26.9408 46.3517 26.9751 48.6902 26.9756L51.3483 26.9762V29.0203C51.3483 31.3965 51.6614 31.1686 48.8168 30.8633C46.2551 30.5883 45.6221 30.8125 45.3622 32.0865C45.2152 32.8078 45.8374 33.8305 46.6229 34.1581C46.9599 34.2988 48.1011 34.4824 49.2809 34.5858L51.3483 34.7672V37.9533C51.3483 40.9106 51.3267 41.1392 51.0479 41.1392C50.8827 41.1392 49.8252 41.0404 48.6978 40.9196C46.4374 40.6775 46.0406 40.7324 45.4636 41.367C44.7642 42.1363 45.1371 43.5429 46.2004 44.1456C46.4846 44.3068 47.448 44.4757 48.951 44.628L51.2639 44.8625L51.3095 48.0382C51.3495 50.8412 51.3238 51.214 51.0904 51.214C50.945 51.214 49.8049 51.1116 48.5571 50.9864C45.9468 50.7246 45.561 50.7979 45.0538 51.6522C44.5185 52.5544 44.9597 53.7651 45.9922 54.2271C46.2674 54.3502 47.5661 54.5607 48.8783 54.6947L51.2639 54.9386L51.3095 58.1136L51.3549 61.2888L50.8876 61.2858C50.6304 61.2842 49.9265 61.2239 49.3231 61.1518C46.9327 60.8658 46.2523 60.8376 45.6808 61.0007C44.185 61.4278 44.2924 63.6714 45.84 64.328C46.0889 64.4335 47.4112 64.6307 48.7782 64.766L51.2639 65.012L51.3483 75.2362L51.4327 85.4601L51.9964 86.4507C52.6478 87.5951 52.9718 87.8388 57.3208 90.4553C58.8884 91.3984 60.5844 92.4214 61.0896 92.7283C63.3146 94.0804 64.8303 94.031 67.2791 92.5265C69.357 91.2501 71.9911 89.6505 72.8413 89.149C74.8047 87.991 75.3905 87.4947 75.9881 86.4831L76.5788 85.4835L76.6272 76.5777L76.6757 67.6721L77.8086 67.7716C80.7757 68.0324 81.406 68.0466 81.8062 67.8613C82.5906 67.498 82.8895 66.0397 82.3307 65.3019C81.8316 64.6429 81.1545 64.4073 79.2316 64.2233C78.2366 64.1281 77.2517 64.019 77.0429 63.9808C76.6634 63.9114 76.6632 63.9096 76.6632 60.7749V57.6385H77.1381C77.3992 57.6385 78.4624 57.7354 79.5006 57.8538C81.5856 58.0918 81.9808 58.0343 82.5479 57.4107C83.216 56.6757 82.8874 55.1735 81.941 54.6369C81.6853 54.4921 80.7463 54.3102 79.635 54.1901C78.6038 54.0789 77.5134 53.952 77.2117 53.9083L76.6632 53.8289V50.6964V47.5637H77.1324C77.3904 47.5637 78.5348 47.6637 79.6755 47.7858C82.0917 48.0447 82.4692 47.9645 82.9642 47.0879C83.565 46.0242 82.8685 44.6477 81.5873 44.3669C81.246 44.2922 80.1693 44.1563 79.1947 44.0648C78.22 43.9733 77.2517 43.8679 77.0429 43.8302C76.6634 43.7619 76.6632 43.7604 76.6632 40.6254V37.489H77.1205C77.372 37.489 78.5574 37.5925 79.7546 37.7191C81.5012 37.9038 82.0296 37.9141 82.4275 37.7715C83.7681 37.2911 83.712 35.2732 82.3367 34.4935C82.0652 34.3396 81.0116 34.1682 79.3331 34.005L76.7476 33.7535L76.7023 30.3648L76.6569 26.9762L79.3182 26.9756C81.6598 26.9751 82.0441 26.9408 82.5195 26.69C83.5924 26.1242 83.6 26.0767 83.5465 20.2594L83.4982 15.0085L82.9703 14.5519C82.0158 13.7264 80.1345 13.8958 79.5793 14.8572C79.426 15.1225 79.3677 16.3299 79.366 19.2741L79.3634 23.3259H64.0057H48.6481V19.1971C48.6481 15.6162 48.6116 15.0231 48.3728 14.7283C47.8778 14.1168 46.5481 13.815 45.6947 14.1205ZM72.4052 30.0824C72.4452 32.7376 72.4177 33.1266 72.1838 33.2041C72.037 33.2529 71.3709 33.2206 70.7037 33.1324C70.0366 33.0442 68.7312 32.8998 67.803 32.8116C66.8748 32.7234 65.5837 32.5929 64.934 32.5217C64.2842 32.4503 62.3476 32.2521 60.6304 32.0811C58.9132 31.9103 57.0906 31.7263 56.5801 31.6722L55.6518 31.5738L55.6174 29.4575C55.5983 28.2935 55.6152 27.2584 55.6549 27.1574C55.7118 27.0121 57.4762 26.9814 64.0432 27.0113L72.3597 27.0492L72.4052 30.0824ZM59.7866 35.6511C67.6803 36.4756 71.8917 36.903 72.1333 36.9039C72.3853 36.9048 72.4143 37.2267 72.4245 40.1171C72.4331 42.5606 72.3863 43.3294 72.2289 43.3291C72.1151 43.3291 70.1367 43.1321 67.832 42.8917C65.5275 42.6512 61.9961 42.2904 59.9844 42.0898C57.9729 41.8893 56.158 41.691 55.9514 41.6494C55.5767 41.5738 55.5759 41.5659 55.5943 38.4177L55.6127 35.262L56.6449 35.3464C57.2126 35.3927 58.6263 35.5299 59.7866 35.6511ZM62.701 46.0378C66.2497 46.4032 69.8746 46.7809 70.7564 46.8773L72.3597 47.0527L72.4052 50.1589C72.4405 52.5655 72.4025 53.2805 72.2365 53.3333C72.1185 53.3709 68.3388 53.0232 63.837 52.5606L55.6518 51.7199L55.6063 48.5467C55.5617 45.4379 55.5678 45.3735 55.905 45.3735C56.0942 45.3735 59.1524 45.6724 62.701 46.0378ZM7.38481 46.2081C6.84543 46.321 6.29762 46.8443 6.08936 47.4459C5.8239 48.2124 6.16902 49.1114 6.87109 49.4817C7.3627 49.741 8.12738 49.7529 24.6035 49.7533C39.9343 49.7539 41.8635 49.7289 42.1983 49.526C43.0396 49.0161 43.3272 47.8189 42.8145 46.961C42.2809 46.0683 43.0126 46.102 24.5621 46.1205C15.3003 46.1299 7.57045 46.1693 7.38481 46.2081ZM85.9985 46.3159C84.6823 46.8147 84.5694 48.7722 85.8132 49.526C86.148 49.7289 88.0772 49.7539 103.408 49.7533C119.884 49.7529 120.649 49.741 121.14 49.4817C122.218 48.913 122.298 47.3516 121.291 46.5329L120.853 46.1766L103.694 46.1443C89.3242 46.1173 86.4486 46.1452 85.9985 46.3159ZM62.6556 56.1112C66.2292 56.4777 69.8746 56.8563 70.7564 56.9525L72.3597 57.1274L72.4052 60.2337C72.4405 62.6391 72.4024 63.3558 72.2365 63.4109C72.1185 63.45 68.8324 63.1504 64.934 62.7452C61.0355 62.34 57.3773 61.969 56.8047 61.9207C55.9332 61.8471 55.7479 61.7824 55.6677 61.5243C55.5325 61.0884 55.5437 55.6635 55.68 55.5457C55.8409 55.4064 55.5602 55.3836 62.6556 56.1112ZM104.059 56.0415C103.164 56.5378 102.925 57.5228 103.501 58.3408C104.78 60.1548 107.971 58.7077 106.962 56.7718C106.445 55.7811 105.127 55.4496 104.059 56.0415ZM29.9955 59.3302C29.6263 59.4413 29.3016 59.5333 29.2736 59.5344C29.1357 59.5404 28.7337 60.5996 28.7344 60.9555C28.7354 61.6199 29.308 62.273 30.0605 62.4681C30.9044 62.6868 31.5148 62.5554 32.1306 62.0226C32.5078 61.6963 32.6153 61.4695 32.6153 61.0007C32.6153 59.6073 31.4798 58.8832 29.9955 59.3302ZM20.529 65.7292C17.1975 66.4286 14.6007 70.0142 14.2804 74.3567C13.9773 78.4656 16.4408 80.4074 20.3199 79.1174C20.8439 78.9431 22.2718 78.2789 23.493 77.6411C24.7144 77.0035 26.2446 76.2404 26.8936 75.9453C30.6561 74.2348 30.8728 71.1073 27.4441 68.0023C26.0123 66.7058 24.5071 65.9332 22.9224 65.6819C21.7338 65.4934 21.6437 65.4952 20.529 65.7292ZM64.0675 66.3329C68.4426 66.7782 72.1097 67.1679 72.2167 67.1988C72.3504 67.2375 72.4186 67.922 72.4348 69.3823L72.458 71.5095H64.0128H55.5675V68.6137C55.5675 67.0209 55.6181 65.6739 55.68 65.6205C55.8358 65.4855 55.2829 65.4385 64.0675 66.3329ZM93.7929 65.8009C93.197 66.0274 92.6706 66.6468 92.5832 67.2244C92.4681 67.9844 93.0493 68.7338 93.9673 69.0092C95.2649 69.3985 96.4932 68.5775 96.4932 67.3209C96.4932 66.8179 96.3919 66.6091 95.9712 66.2451C95.4139 65.763 94.4239 65.5612 93.7929 65.8009ZM109.195 67.6497C108.66 67.9007 108.222 68.5538 108.222 69.1003C108.222 69.5944 108.629 70.2643 109.103 70.5515C109.575 70.8379 110.623 70.8453 111.246 70.5669C111.721 70.3541 112.273 69.5667 112.273 69.1003C112.273 68.634 111.721 67.8465 111.246 67.6338C110.643 67.3641 109.789 67.3708 109.195 67.6497ZM23.3718 69.7615C24.1129 70.1862 25.3611 71.444 25.5843 71.9909C25.6657 72.1904 25.5202 72.3409 24.9765 72.6195C18.9849 75.6891 18.6412 75.8431 18.4989 75.5223C18.4429 75.396 18.4479 74.9037 18.5102 74.4283C18.7633 72.4922 19.538 70.7603 20.5566 69.8527C21.3537 69.1427 22.2418 69.1139 23.3718 69.7615ZM72.4105 80.029C72.3696 83.8229 72.3129 84.8008 72.1224 84.9992C71.9919 85.1351 70.9287 85.8147 69.7596 86.5094C68.5906 87.204 66.8602 88.2526 65.9145 88.8397C64.9686 89.4267 64.11 89.9069 64.0064 89.9069C63.7703 89.9069 56.2186 85.3423 55.892 85.0023C55.6977 84.7999 55.642 83.8504 55.601 80.029L55.5501 75.3058H64.0057H72.4614L72.4105 80.029ZM98.8265 76.0392C97.3837 76.2924 96.0662 77.1152 94.9744 78.445C91.7954 82.3171 91.5963 86.49 94.4717 88.9796C95.4583 89.8338 96.4525 90.3117 98.2694 90.8053C99.3787 91.1067 99.8467 91.1464 102.147 91.1349C105.121 91.12 106.522 90.8719 108.721 89.9704C111.18 88.9628 112.307 87.7492 112.307 86.1095C112.307 84.4775 111.19 83.1746 107.386 80.3696C105.85 79.237 104.172 77.9651 103.656 77.5431C102.162 76.32 100.383 75.7662 98.8265 76.0392ZM101.345 80.678C102.018 81.2235 103.565 82.4041 104.783 83.3017C107.224 85.1008 108.118 85.9018 107.95 86.1375C107.541 86.7104 103.897 87.5741 101.914 87.5682C100.616 87.5645 98.7934 87.1841 98.0598 86.764C96.9679 86.139 96.7154 85.6456 96.7883 84.2797C96.8417 83.279 96.9446 82.9415 97.4857 81.994C98.2858 80.593 99.1609 79.6861 99.7124 79.6861C99.9839 79.6861 100.53 80.018 101.345 80.678ZM35.3318 82.061C34.6808 82.3504 34.2262 82.9949 34.2262 83.6284C34.2262 85.6992 37.8138 85.8682 38.1326 83.8126C38.3444 82.4463 36.7323 81.4383 35.3318 82.061ZM23.3094 90.486C21.4968 90.7688 20.2404 91.6347 19.3299 93.2288C18.7269 94.2842 18.6923 94.4203 18.6923 95.7396C18.6921 97.0029 18.7399 97.2148 19.1984 97.9859C21.6005 102.025 26.7861 102.592 30.5221 99.224C31.6834 98.1771 32.0167 97.7267 32.4506 96.6176C33.4149 94.1534 32.1372 91.5 29.6 90.6976C28.708 90.4155 24.6391 90.2787 23.3094 90.486ZM43.2784 91.196C41.9467 92.2724 42.7838 94.1412 44.5977 94.1412C46.1159 94.1412 47.0662 92.8242 46.3783 91.6735C46.0285 91.0881 45.3976 90.783 44.5371 90.783C43.9494 90.783 43.6803 90.8713 43.2784 91.196ZM28.1712 94.2253C28.5384 94.5431 28.5918 94.693 28.5145 95.1916C28.2843 96.6764 25.7805 98.1471 24.3092 97.6617C24.057 97.5785 23.6165 97.2307 23.3303 96.8887C22.8795 96.3505 22.8249 96.1882 22.9222 95.6787C22.984 95.355 23.1261 94.8932 23.238 94.6523C23.4265 94.2461 23.5325 94.2023 24.6951 94.0506C26.9298 93.7591 27.6755 93.7965 28.1712 94.2253ZM79.2509 96.1996C77.6226 96.6075 77.3607 98.6552 78.8516 99.3221C80.7407 100.167 82.5966 98.3696 81.4362 96.8184C81.2521 96.5722 80.0189 95.9864 79.8242 96.0525C79.8027 96.0598 79.5449 96.126 79.2509 96.1996ZM90.7622 96.1496C90.1786 96.2712 89.6944 96.6275 89.4117 97.1426C88.605 98.6137 90.4863 100.087 92.1952 99.3221C93.4871 98.7442 93.4847 96.9074 92.1915 96.3381C91.7917 96.162 91.1242 96.074 90.7622 96.1496ZM48.5249 101.945C47.9239 102.177 47.2996 102.94 47.2986 103.444C47.2974 104.034 47.8376 104.78 48.4457 105.03C50.1026 105.71 51.8998 104.227 51.1242 102.82C50.6425 101.946 49.5086 101.564 48.5249 101.945ZM99.3397 102.006C98.6193 102.397 98.2652 102.873 98.2652 103.453C98.2652 104.158 98.6686 104.724 99.377 105.015C100.555 105.499 101.788 105.017 102.166 103.926C102.651 102.525 100.757 101.239 99.3397 102.006ZM32.8516 105.735C32.3618 106.158 32.2778 106.331 32.2778 106.917C32.2778 107.503 32.3618 107.676 32.8516 108.1C33.3413 108.524 33.5415 108.596 34.2186 108.596C34.8957 108.596 35.0958 108.524 35.5856 108.1C36.0753 107.676 36.1594 107.503 36.1594 106.917C36.1594 106.331 36.0753 106.158 35.5856 105.735C35.0958 105.311 34.8957 105.238 34.2186 105.238C33.5415 105.238 33.3413 105.311 32.8516 105.735ZM82.6544 107.071C81.8804 107.416 81.5653 107.857 81.5611 108.6C81.5569 109.351 81.8617 109.813 82.5718 110.13C83.2375 110.428 83.8985 110.403 84.5572 110.056C85.8302 109.384 85.718 107.638 84.3662 107.083C83.6442 106.787 83.2994 106.784 82.6544 107.071Z"/>
</mask>
<path fill-rule="evenodd" clip-rule="evenodd" d="M45.6947 14.1205C45.509 14.1869 45.1673 14.4179 44.9352 14.6338L44.5133 15.0265L44.465 20.2684C44.4115 26.0759 44.4193 26.1242 45.492 26.69C45.9672 26.9408 46.3517 26.9751 48.6902 26.9756L51.3483 26.9762V29.0203C51.3483 31.3965 51.6614 31.1686 48.8168 30.8633C46.2551 30.5883 45.6221 30.8125 45.3622 32.0865C45.2152 32.8078 45.8374 33.8305 46.6229 34.1581C46.9599 34.2988 48.1011 34.4824 49.2809 34.5858L51.3483 34.7672V37.9533C51.3483 40.9106 51.3267 41.1392 51.0479 41.1392C50.8827 41.1392 49.8252 41.0404 48.6978 40.9196C46.4374 40.6775 46.0406 40.7324 45.4636 41.367C44.7642 42.1363 45.1371 43.5429 46.2004 44.1456C46.4846 44.3068 47.448 44.4757 48.951 44.628L51.2639 44.8625L51.3095 48.0382C51.3495 50.8412 51.3238 51.214 51.0904 51.214C50.945 51.214 49.8049 51.1116 48.5571 50.9864C45.9468 50.7246 45.561 50.7979 45.0538 51.6522C44.5185 52.5544 44.9597 53.7651 45.9922 54.2271C46.2674 54.3502 47.5661 54.5607 48.8783 54.6947L51.2639 54.9386L51.3095 58.1136L51.3549 61.2888L50.8876 61.2858C50.6304 61.2842 49.9265 61.2239 49.3231 61.1518C46.9327 60.8658 46.2523 60.8376 45.6808 61.0007C44.185 61.4278 44.2924 63.6714 45.84 64.328C46.0889 64.4335 47.4112 64.6307 48.7782 64.766L51.2639 65.012L51.3483 75.2362L51.4327 85.4601L51.9964 86.4507C52.6478 87.5951 52.9718 87.8388 57.3208 90.4553C58.8884 91.3984 60.5844 92.4214 61.0896 92.7283C63.3146 94.0804 64.8303 94.031 67.2791 92.5265C69.357 91.2501 71.9911 89.6505 72.8413 89.149C74.8047 87.991 75.3905 87.4947 75.9881 86.4831L76.5788 85.4835L76.6272 76.5777L76.6757 67.6721L77.8086 67.7716C80.7757 68.0324 81.406 68.0466 81.8062 67.8613C82.5906 67.498 82.8895 66.0397 82.3307 65.3019C81.8316 64.6429 81.1545 64.4073 79.2316 64.2233C78.2366 64.1281 77.2517 64.019 77.0429 63.9808C76.6634 63.9114 76.6632 63.9096 76.6632 60.7749V57.6385H77.1381C77.3992 57.6385 78.4624 57.7354 79.5006 57.8538C81.5856 58.0918 81.9808 58.0343 82.5479 57.4107C83.216 56.6757 82.8874 55.1735 81.941 54.6369C81.6853 54.4921 80.7463 54.3102 79.635 54.1901C78.6038 54.0789 77.5134 53.952 77.2117 53.9083L76.6632 53.8289V50.6964V47.5637H77.1324C77.3904 47.5637 78.5348 47.6637 79.6755 47.7858C82.0917 48.0447 82.4692 47.9645 82.9642 47.0879C83.565 46.0242 82.8685 44.6477 81.5873 44.3669C81.246 44.2922 80.1693 44.1563 79.1947 44.0648C78.22 43.9733 77.2517 43.8679 77.0429 43.8302C76.6634 43.7619 76.6632 43.7604 76.6632 40.6254V37.489H77.1205C77.372 37.489 78.5574 37.5925 79.7546 37.7191C81.5012 37.9038 82.0296 37.9141 82.4275 37.7715C83.7681 37.2911 83.712 35.2732 82.3367 34.4935C82.0652 34.3396 81.0116 34.1682 79.3331 34.005L76.7476 33.7535L76.7023 30.3648L76.6569 26.9762L79.3182 26.9756C81.6598 26.9751 82.0441 26.9408 82.5195 26.69C83.5924 26.1242 83.6 26.0767 83.5465 20.2594L83.4982 15.0085L82.9703 14.5519C82.0158 13.7264 80.1345 13.8958 79.5793 14.8572C79.426 15.1225 79.3677 16.3299 79.366 19.2741L79.3634 23.3259H64.0057H48.6481V19.1971C48.6481 15.6162 48.6116 15.0231 48.3728 14.7283C47.8778 14.1168 46.5481 13.815 45.6947 14.1205ZM72.4052 30.0824C72.4452 32.7376 72.4177 33.1266 72.1838 33.2041C72.037 33.2529 71.3709 33.2206 70.7037 33.1324C70.0366 33.0442 68.7312 32.8998 67.803 32.8116C66.8748 32.7234 65.5837 32.5929 64.934 32.5217C64.2842 32.4503 62.3476 32.2521 60.6304 32.0811C58.9132 31.9103 57.0906 31.7263 56.5801 31.6722L55.6518 31.5738L55.6174 29.4575C55.5983 28.2935 55.6152 27.2584 55.6549 27.1574C55.7118 27.0121 57.4762 26.9814 64.0432 27.0113L72.3597 27.0492L72.4052 30.0824ZM59.7866 35.6511C67.6803 36.4756 71.8917 36.903 72.1333 36.9039C72.3853 36.9048 72.4143 37.2267 72.4245 40.1171C72.4331 42.5606 72.3863 43.3294 72.2289 43.3291C72.1151 43.3291 70.1367 43.1321 67.832 42.8917C65.5275 42.6512 61.9961 42.2904 59.9844 42.0898C57.9729 41.8893 56.158 41.691 55.9514 41.6494C55.5767 41.5738 55.5759 41.5659 55.5943 38.4177L55.6127 35.262L56.6449 35.3464C57.2126 35.3927 58.6263 35.5299 59.7866 35.6511ZM62.701 46.0378C66.2497 46.4032 69.8746 46.7809 70.7564 46.8773L72.3597 47.0527L72.4052 50.1589C72.4405 52.5655 72.4025 53.2805 72.2365 53.3333C72.1185 53.3709 68.3388 53.0232 63.837 52.5606L55.6518 51.7199L55.6063 48.5467C55.5617 45.4379 55.5678 45.3735 55.905 45.3735C56.0942 45.3735 59.1524 45.6724 62.701 46.0378ZM7.38481 46.2081C6.84543 46.321 6.29762 46.8443 6.08936 47.4459C5.8239 48.2124 6.16902 49.1114 6.87109 49.4817C7.3627 49.741 8.12738 49.7529 24.6035 49.7533C39.9343 49.7539 41.8635 49.7289 42.1983 49.526C43.0396 49.0161 43.3272 47.8189 42.8145 46.961C42.2809 46.0683 43.0126 46.102 24.5621 46.1205C15.3003 46.1299 7.57045 46.1693 7.38481 46.2081ZM85.9985 46.3159C84.6823 46.8147 84.5694 48.7722 85.8132 49.526C86.148 49.7289 88.0772 49.7539 103.408 49.7533C119.884 49.7529 120.649 49.741 121.14 49.4817C122.218 48.913 122.298 47.3516 121.291 46.5329L120.853 46.1766L103.694 46.1443C89.3242 46.1173 86.4486 46.1452 85.9985 46.3159ZM62.6556 56.1112C66.2292 56.4777 69.8746 56.8563 70.7564 56.9525L72.3597 57.1274L72.4052 60.2337C72.4405 62.6391 72.4024 63.3558 72.2365 63.4109C72.1185 63.45 68.8324 63.1504 64.934 62.7452C61.0355 62.34 57.3773 61.969 56.8047 61.9207C55.9332 61.8471 55.7479 61.7824 55.6677 61.5243C55.5325 61.0884 55.5437 55.6635 55.68 55.5457C55.8409 55.4064 55.5602 55.3836 62.6556 56.1112ZM104.059 56.0415C103.164 56.5378 102.925 57.5228 103.501 58.3408C104.78 60.1548 107.971 58.7077 106.962 56.7718C106.445 55.7811 105.127 55.4496 104.059 56.0415ZM29.9955 59.3302C29.6263 59.4413 29.3016 59.5333 29.2736 59.5344C29.1357 59.5404 28.7337 60.5996 28.7344 60.9555C28.7354 61.6199 29.308 62.273 30.0605 62.4681C30.9044 62.6868 31.5148 62.5554 32.1306 62.0226C32.5078 61.6963 32.6153 61.4695 32.6153 61.0007C32.6153 59.6073 31.4798 58.8832 29.9955 59.3302ZM20.529 65.7292C17.1975 66.4286 14.6007 70.0142 14.2804 74.3567C13.9773 78.4656 16.4408 80.4074 20.3199 79.1174C20.8439 78.9431 22.2718 78.2789 23.493 77.6411C24.7144 77.0035 26.2446 76.2404 26.8936 75.9453C30.6561 74.2348 30.8728 71.1073 27.4441 68.0023C26.0123 66.7058 24.5071 65.9332 22.9224 65.6819C21.7338 65.4934 21.6437 65.4952 20.529 65.7292ZM64.0675 66.3329C68.4426 66.7782 72.1097 67.1679 72.2167 67.1988C72.3504 67.2375 72.4186 67.922 72.4348 69.3823L72.458 71.5095H64.0128H55.5675V68.6137C55.5675 67.0209 55.6181 65.6739 55.68 65.6205C55.8358 65.4855 55.2829 65.4385 64.0675 66.3329ZM93.7929 65.8009C93.197 66.0274 92.6706 66.6468 92.5832 67.2244C92.4681 67.9844 93.0493 68.7338 93.9673 69.0092C95.2649 69.3985 96.4932 68.5775 96.4932 67.3209C96.4932 66.8179 96.3919 66.6091 95.9712 66.2451C95.4139 65.763 94.4239 65.5612 93.7929 65.8009ZM109.195 67.6497C108.66 67.9007 108.222 68.5538 108.222 69.1003C108.222 69.5944 108.629 70.2643 109.103 70.5515C109.575 70.8379 110.623 70.8453 111.246 70.5669C111.721 70.3541 112.273 69.5667 112.273 69.1003C112.273 68.634 111.721 67.8465 111.246 67.6338C110.643 67.3641 109.789 67.3708 109.195 67.6497ZM23.3718 69.7615C24.1129 70.1862 25.3611 71.444 25.5843 71.9909C25.6657 72.1904 25.5202 72.3409 24.9765 72.6195C18.9849 75.6891 18.6412 75.8431 18.4989 75.5223C18.4429 75.396 18.4479 74.9037 18.5102 74.4283C18.7633 72.4922 19.538 70.7603 20.5566 69.8527C21.3537 69.1427 22.2418 69.1139 23.3718 69.7615ZM72.4105 80.029C72.3696 83.8229 72.3129 84.8008 72.1224 84.9992C71.9919 85.1351 70.9287 85.8147 69.7596 86.5094C68.5906 87.204 66.8602 88.2526 65.9145 88.8397C64.9686 89.4267 64.11 89.9069 64.0064 89.9069C63.7703 89.9069 56.2186 85.3423 55.892 85.0023C55.6977 84.7999 55.642 83.8504 55.601 80.029L55.5501 75.3058H64.0057H72.4614L72.4105 80.029ZM98.8265 76.0392C97.3837 76.2924 96.0662 77.1152 94.9744 78.445C91.7954 82.3171 91.5963 86.49 94.4717 88.9796C95.4583 89.8338 96.4525 90.3117 98.2694 90.8053C99.3787 91.1067 99.8467 91.1464 102.147 91.1349C105.121 91.12 106.522 90.8719 108.721 89.9704C111.18 88.9628 112.307 87.7492 112.307 86.1095C112.307 84.4775 111.19 83.1746 107.386 80.3696C105.85 79.237 104.172 77.9651 103.656 77.5431C102.162 76.32 100.383 75.7662 98.8265 76.0392ZM101.345 80.678C102.018 81.2235 103.565 82.4041 104.783 83.3017C107.224 85.1008 108.118 85.9018 107.95 86.1375C107.541 86.7104 103.897 87.5741 101.914 87.5682C100.616 87.5645 98.7934 87.1841 98.0598 86.764C96.9679 86.139 96.7154 85.6456 96.7883 84.2797C96.8417 83.279 96.9446 82.9415 97.4857 81.994C98.2858 80.593 99.1609 79.6861 99.7124 79.6861C99.9839 79.6861 100.53 80.018 101.345 80.678ZM35.3318 82.061C34.6808 82.3504 34.2262 82.9949 34.2262 83.6284C34.2262 85.6992 37.8138 85.8682 38.1326 83.8126C38.3444 82.4463 36.7323 81.4383 35.3318 82.061ZM23.3094 90.486C21.4968 90.7688 20.2404 91.6347 19.3299 93.2288C18.7269 94.2842 18.6923 94.4203 18.6923 95.7396C18.6921 97.0029 18.7399 97.2148 19.1984 97.9859C21.6005 102.025 26.7861 102.592 30.5221 99.224C31.6834 98.1771 32.0167 97.7267 32.4506 96.6176C33.4149 94.1534 32.1372 91.5 29.6 90.6976C28.708 90.4155 24.6391 90.2787 23.3094 90.486ZM43.2784 91.196C41.9467 92.2724 42.7838 94.1412 44.5977 94.1412C46.1159 94.1412 47.0662 92.8242 46.3783 91.6735C46.0285 91.0881 45.3976 90.783 44.5371 90.783C43.9494 90.783 43.6803 90.8713 43.2784 91.196ZM28.1712 94.2253C28.5384 94.5431 28.5918 94.693 28.5145 95.1916C28.2843 96.6764 25.7805 98.1471 24.3092 97.6617C24.057 97.5785 23.6165 97.2307 23.3303 96.8887C22.8795 96.3505 22.8249 96.1882 22.9222 95.6787C22.984 95.355 23.1261 94.8932 23.238 94.6523C23.4265 94.2461 23.5325 94.2023 24.6951 94.0506C26.9298 93.7591 27.6755 93.7965 28.1712 94.2253ZM79.2509 96.1996C77.6226 96.6075 77.3607 98.6552 78.8516 99.3221C80.7407 100.167 82.5966 98.3696 81.4362 96.8184C81.2521 96.5722 80.0189 95.9864 79.8242 96.0525C79.8027 96.0598 79.5449 96.126 79.2509 96.1996ZM90.7622 96.1496C90.1786 96.2712 89.6944 96.6275 89.4117 97.1426C88.605 98.6137 90.4863 100.087 92.1952 99.3221C93.4871 98.7442 93.4847 96.9074 92.1915 96.3381C91.7917 96.162 91.1242 96.074 90.7622 96.1496ZM48.5249 101.945C47.9239 102.177 47.2996 102.94 47.2986 103.444C47.2974 104.034 47.8376 104.78 48.4457 105.03C50.1026 105.71 51.8998 104.227 51.1242 102.82C50.6425 101.946 49.5086 101.564 48.5249 101.945ZM99.3397 102.006C98.6193 102.397 98.2652 102.873 98.2652 103.453C98.2652 104.158 98.6686 104.724 99.377 105.015C100.555 105.499 101.788 105.017 102.166 103.926C102.651 102.525 100.757 101.239 99.3397 102.006ZM32.8516 105.735C32.3618 106.158 32.2778 106.331 32.2778 106.917C32.2778 107.503 32.3618 107.676 32.8516 108.1C33.3413 108.524 33.5415 108.596 34.2186 108.596C34.8957 108.596 35.0958 108.524 35.5856 108.1C36.0753 107.676 36.1594 107.503 36.1594 106.917C36.1594 106.331 36.0753 106.158 35.5856 105.735C35.0958 105.311 34.8957 105.238 34.2186 105.238C33.5415 105.238 33.3413 105.311 32.8516 105.735ZM82.6544 107.071C81.8804 107.416 81.5653 107.857 81.5611 108.6C81.5569 109.351 81.8617 109.813 82.5718 110.13C83.2375 110.428 83.8985 110.403 84.5572 110.056C85.8302 109.384 85.718 107.638 84.3662 107.083C83.6442 106.787 83.2994 106.784 82.6544 107.071Z" fill="#16246B" stroke="#FEFEFE" stroke-width="2.2" mask="url(#path-1-inside-1_2169_56484)"/>
</svg>
