<svg width="128" height="128" viewBox="0 0 128 128" fill="none" xmlns="http://www.w3.org/2000/svg">
<mask id="path-1-inside-1_2169_54817" fill="white">
<path d="M116.562 33.0132C68.4053 28.2437 35.9741 35.1426 20.173 53.5118C6.36346 69.5658 10.0013 89.1843 11.445 94.815C11.6309 95.541 12.0537 96.1845 12.6467 96.6439C13.2397 97.1034 13.9691 97.3525 14.7197 97.3521H78.5482C79.2168 97.352 79.8705 97.1539 80.4263 96.7829C80.9822 96.4119 81.4154 95.8846 81.671 95.2677C81.9267 94.6509 81.9933 93.9722 81.8625 93.3176C81.7317 92.663 81.4094 92.0617 80.9363 91.59C77.6908 88.3494 74.3034 85.0762 71.315 82.1881C67.2625 78.2725 63.7624 74.8905 61.8958 72.8345C58.9656 69.607 55.6087 65.2762 55.6615 60.3963C55.7267 54.3725 61.1009 50.1795 68.2304 47.2627V60.2373H67.3854C66.4893 60.2383 65.6302 60.5941 64.9966 61.2266C64.3629 61.8592 64.0065 62.7168 64.0054 63.6114V65.2984C64.0065 66.193 64.3629 67.0506 64.9966 67.6831C65.6302 68.3157 66.4893 68.6715 67.3854 68.6725H84.2853C85.1814 68.6715 86.0405 68.3157 86.6741 67.6831C87.3078 67.0506 87.6642 66.193 87.6653 65.2984V63.6113C87.6642 62.7168 87.3078 61.8591 86.6741 61.2266C86.0405 60.594 85.1814 60.2382 84.2853 60.2372H83.4403V43.034C84.1382 42.9034 84.833 42.778 85.5198 42.6613C88.8126 42.1019 92.1143 41.6705 95.2702 41.337V50.9586H94.4252C93.5291 50.9596 92.67 51.3154 92.0363 51.9479C91.4027 52.5805 91.0462 53.4381 91.0452 54.3326V56.0197C91.0462 56.9143 91.4027 57.7719 92.0363 58.4044C92.67 59.037 93.5291 59.3928 94.4252 59.3938H111.325C112.221 59.3928 113.08 59.037 113.714 58.4044C114.348 57.7719 114.704 56.9143 114.705 56.0197V54.3326C114.704 53.4381 114.348 52.5805 113.714 51.9479C113.08 51.3154 112.221 50.9596 111.325 50.9586H110.48V40.3086C114.071 40.1946 116.317 40.2154 116.376 40.2165C116.6 40.2213 116.822 40.1805 117.03 40.0968C117.237 40.013 117.426 39.888 117.583 39.7292C117.742 39.5723 117.868 39.3854 117.955 39.1795C118.041 38.9735 118.085 38.7526 118.085 38.5294V34.692C118.085 34.2733 117.929 33.8696 117.648 33.5594C117.366 33.2491 116.979 33.0544 116.562 33.0132V33.0132ZM84.2873 65.2984H67.3854V63.6113H84.2853L84.2873 65.2984ZM71.6104 60.2373V54.3326H80.0603V60.2373H71.6104ZM80.0603 50.9586H71.6104V46.0112C74.3843 45.0979 77.2049 44.3327 80.0603 43.719V50.9586ZM111.327 56.0197H94.4252V54.3326H111.325L111.327 56.0197ZM98.6502 50.9586V47.5845H107.1V50.9586H98.6502ZM107.1 44.2104H98.6502V41.0114C101.734 40.7411 104.603 40.5616 107.1 40.4431V44.2104ZM114.705 36.8461C104.753 36.9386 94.821 37.7683 84.9917 39.3285C63.3985 42.9904 52.3929 50.0664 52.2815 60.36C52.2164 66.4117 56.0469 71.4164 59.3914 75.1006C61.3322 77.2382 64.869 80.6555 68.964 84.6124C71.9433 87.4914 75.32 90.7543 78.5482 93.978L46.2835 93.9791C45.8432 93.4442 45.1327 92.5521 44.269 91.3569C44.1391 91.1772 43.975 91.0248 43.7862 90.9084C43.5973 90.792 43.3873 90.7139 43.1682 90.6785C42.9491 90.6431 42.7251 90.6512 42.5091 90.7022C42.2932 90.7532 42.0893 90.8462 41.9093 90.9758C41.7294 91.1055 41.5767 91.2693 41.4601 91.4578C41.3435 91.6464 41.2653 91.856 41.2298 92.0747C41.1944 92.2935 41.2024 92.517 41.2535 92.7326C41.3047 92.9483 41.3978 93.1517 41.5277 93.3314C41.6924 93.5592 41.8493 93.7718 42.0033 93.9792L14.7202 93.9801L14.7193 93.978C13.378 88.7468 9.99182 70.5271 22.7373 55.7099C34.6373 41.8759 56.8114 34.9144 88.8292 34.9144C96.8393 34.9144 105.465 35.3507 114.705 36.2233L114.705 36.8461Z"/>
</mask>
<path d="M116.562 33.0132C68.4053 28.2437 35.9741 35.1426 20.173 53.5118C6.36346 69.5658 10.0013 89.1843 11.445 94.815C11.6309 95.541 12.0537 96.1845 12.6467 96.6439C13.2397 97.1034 13.9691 97.3525 14.7197 97.3521H78.5482C79.2168 97.352 79.8705 97.1539 80.4263 96.7829C80.9822 96.4119 81.4154 95.8846 81.671 95.2677C81.9267 94.6509 81.9933 93.9722 81.8625 93.3176C81.7317 92.663 81.4094 92.0617 80.9363 91.59C77.6908 88.3494 74.3034 85.0762 71.315 82.1881C67.2625 78.2725 63.7624 74.8905 61.8958 72.8345C58.9656 69.607 55.6087 65.2762 55.6615 60.3963C55.7267 54.3725 61.1009 50.1795 68.2304 47.2627V60.2373H67.3854C66.4893 60.2383 65.6302 60.5941 64.9966 61.2266C64.3629 61.8592 64.0065 62.7168 64.0054 63.6114V65.2984C64.0065 66.193 64.3629 67.0506 64.9966 67.6831C65.6302 68.3157 66.4893 68.6715 67.3854 68.6725H84.2853C85.1814 68.6715 86.0405 68.3157 86.6741 67.6831C87.3078 67.0506 87.6642 66.193 87.6653 65.2984V63.6113C87.6642 62.7168 87.3078 61.8591 86.6741 61.2266C86.0405 60.594 85.1814 60.2382 84.2853 60.2372H83.4403V43.034C84.1382 42.9034 84.833 42.778 85.5198 42.6613C88.8126 42.1019 92.1143 41.6705 95.2702 41.337V50.9586H94.4252C93.5291 50.9596 92.67 51.3154 92.0363 51.9479C91.4027 52.5805 91.0462 53.4381 91.0452 54.3326V56.0197C91.0462 56.9143 91.4027 57.7719 92.0363 58.4044C92.67 59.037 93.5291 59.3928 94.4252 59.3938H111.325C112.221 59.3928 113.08 59.037 113.714 58.4044C114.348 57.7719 114.704 56.9143 114.705 56.0197V54.3326C114.704 53.4381 114.348 52.5805 113.714 51.9479C113.08 51.3154 112.221 50.9596 111.325 50.9586H110.48V40.3086C114.071 40.1946 116.317 40.2154 116.376 40.2165C116.6 40.2213 116.822 40.1805 117.03 40.0968C117.237 40.013 117.426 39.888 117.583 39.7292C117.742 39.5723 117.868 39.3854 117.955 39.1795C118.041 38.9735 118.085 38.7526 118.085 38.5294V34.692C118.085 34.2733 117.929 33.8696 117.648 33.5594C117.366 33.2491 116.979 33.0544 116.562 33.0132V33.0132ZM84.2873 65.2984H67.3854V63.6113H84.2853L84.2873 65.2984ZM71.6104 60.2373V54.3326H80.0603V60.2373H71.6104ZM80.0603 50.9586H71.6104V46.0112C74.3843 45.0979 77.2049 44.3327 80.0603 43.719V50.9586ZM111.327 56.0197H94.4252V54.3326H111.325L111.327 56.0197ZM98.6502 50.9586V47.5845H107.1V50.9586H98.6502ZM107.1 44.2104H98.6502V41.0114C101.734 40.7411 104.603 40.5616 107.1 40.4431V44.2104ZM114.705 36.8461C104.753 36.9386 94.821 37.7683 84.9917 39.3285C63.3985 42.9904 52.3929 50.0664 52.2815 60.36C52.2164 66.4117 56.0469 71.4164 59.3914 75.1006C61.3322 77.2382 64.869 80.6555 68.964 84.6124C71.9433 87.4914 75.32 90.7543 78.5482 93.978L46.2835 93.9791C45.8432 93.4442 45.1327 92.5521 44.269 91.3569C44.1391 91.1772 43.975 91.0248 43.7862 90.9084C43.5973 90.792 43.3873 90.7139 43.1682 90.6785C42.9491 90.6431 42.7251 90.6512 42.5091 90.7022C42.2932 90.7532 42.0893 90.8462 41.9093 90.9758C41.7294 91.1055 41.5767 91.2693 41.4601 91.4578C41.3435 91.6464 41.2653 91.856 41.2298 92.0747C41.1944 92.2935 41.2024 92.517 41.2535 92.7326C41.3047 92.9483 41.3978 93.1517 41.5277 93.3314C41.6924 93.5592 41.8493 93.7718 42.0033 93.9792L14.7202 93.9801L14.7193 93.978C13.378 88.7468 9.99182 70.5271 22.7373 55.7099C34.6373 41.8759 56.8114 34.9144 88.8292 34.9144C96.8393 34.9144 105.465 35.3507 114.705 36.2233L114.705 36.8461Z" fill="#444444" stroke="#D4D4D4" stroke-width="1.6" mask="url(#path-1-inside-1_2169_54817)"/>
<path d="M41.3769 49.8145C39.2224 51.606 37.3524 53.758 35.8411 56.1887C35.6738 56.4653 35.6146 56.8054 35.6809 57.1327C35.747 57.4593 35.9303 57.7363 36.1804 57.9091C36.4324 58.0758 36.7307 58.1297 37.0145 58.0648C37.3002 57.9994 37.5593 57.8161 37.7306 57.5425C37.7307 57.5424 37.7307 57.5423 37.7308 57.5422L41.3769 49.8145ZM41.3769 49.8145L41.8637 49.4197C41.9822 49.3235 42.1157 49.2545 42.256 49.2151C42.3962 49.1756 42.5418 49.166 42.6849 49.1865C42.8281 49.2071 42.9675 49.2576 43.095 49.3365C43.2227 49.4155 43.3365 49.5217 43.4287 49.6505C43.521 49.7793 43.5896 49.9278 43.6292 50.0878C43.6689 50.2477 43.6786 50.4149 43.6575 50.5794C43.6365 50.7438 43.5853 50.901 43.5078 51.042C43.4309 51.1823 43.3299 51.3031 43.2119 51.3987L41.3769 49.8145Z" fill="#444444" stroke="#D4D4D4"/>
<path d="M56.4215 42.0391L56.4149 42.0415C53.6468 43.0631 52.015 43.8164 51.9468 43.8479L51.9466 43.848C50.5923 44.4745 49.2729 45.1395 48.0246 45.8245C47.8809 45.9034 47.7538 46.0101 47.6507 46.1388C47.5476 46.2674 47.4705 46.4155 47.424 46.5745C47.3776 46.7335 47.3626 46.9003 47.3802 47.0652C47.3975 47.2282 47.4461 47.3861 47.5233 47.5301C47.6895 47.8179 47.9585 48.0299 48.2742 48.1234C48.5899 48.217 48.9292 48.1851 49.2225 48.0343C50.4202 47.3771 51.6861 46.7394 52.9869 46.1378L56.4215 42.0391ZM56.4215 42.0391C56.5731 41.984 56.7339 41.9592 56.8948 41.9659C57.0581 41.9727 57.2186 42.0118 57.367 42.0811C57.5155 42.1504 57.6492 42.2485 57.7604 42.3701C57.8716 42.4917 57.9581 42.6343 58.0147 42.7899C58.0714 42.9455 58.0971 43.1109 58.0903 43.2767C58.0835 43.4424 58.0443 43.6051 57.9751 43.7554C57.906 43.9057 57.8081 44.0405 57.6875 44.1524C57.5668 44.2642 57.4256 44.3509 57.2721 44.4076L56.4215 42.0391Z" fill="#444444" stroke="#D4D4D4"/>
<path d="M38.2299 87.1792L38.2286 87.1772C36.5232 84.4917 35.0834 81.678 33.9257 78.7683C33.8097 78.4677 33.8299 78.1394 33.9859 77.8488C34.1439 77.5548 34.4347 77.3135 34.8094 77.1955C35.1846 77.0773 35.5976 77.0982 35.9535 77.2512C36.3086 77.4039 36.5646 77.6691 36.6842 77.9726L37.1494 77.7894L36.6849 77.9744C37.7899 80.7489 39.1635 83.4306 40.7894 85.9886C40.9677 86.273 41.0098 86.601 40.9149 86.9064C40.8192 87.2145 40.5852 87.4928 40.2438 87.6656C39.9014 87.8388 39.4906 87.8848 39.1056 87.7884C38.721 87.6921 38.4105 87.4666 38.2299 87.1792Z" fill="#444444" stroke="#D4D4D4"/>
<path d="M33.9595 73.404C34.3563 73.3579 34.6975 73.1806 34.9173 72.934C35.134 72.6908 35.2165 72.4014 35.1732 72.1272C34.9961 71.0249 34.9056 69.9134 34.9021 68.8004L33.9595 73.404ZM33.9595 73.404C33.8921 73.4117 33.824 73.4156 33.7558 73.4156C33.3905 73.4152 33.0472 73.3012 32.7886 73.108C32.5314 72.9157 32.3825 72.665 32.3424 72.4122L32.3422 72.4114C32.1502 71.2136 32.0522 70.0063 32.0489 68.7976L32.0489 68.7973C32.0431 67.0453 32.2743 65.2982 32.7381 63.5904C32.8165 63.3162 33.026 63.0551 33.3529 62.8836C33.6815 62.7111 34.0857 62.6534 34.4725 62.7314C34.8594 62.8093 35.1735 63.011 35.3607 63.268C35.5448 63.5206 35.5969 63.8107 35.5243 64.0817C35.105 65.6282 34.8961 67.2116 34.9021 68.8003C34.9021 68.8002 34.9021 68.8001 34.9021 68.8001L33.9595 73.404Z" fill="#444444" stroke="#D4D4D4"/>
<path d="M63.5254 39.4837L63.5255 39.4836C64.7131 39.1281 65.9101 38.7978 67.0897 38.4992L67.09 38.5L67.5218 38.3911C67.6634 38.3554 67.81 38.3496 67.9534 38.3738C68.0969 38.3981 68.2358 38.4522 68.3619 38.5343C68.4881 38.6164 68.5994 38.7251 68.6884 38.8554C68.7774 38.9857 68.842 39.1347 68.8774 39.2939C68.9128 39.4532 68.9181 39.6185 68.8928 39.7801C68.8675 39.9417 68.8124 40.0953 68.7315 40.2322C68.6506 40.369 68.5459 40.4859 68.4247 40.5771C68.3035 40.6683 68.1679 40.7322 68.0259 40.7666L68.0259 40.7666L68.0236 40.7672C66.7406 41.0845 65.4328 41.4417 64.1354 41.8296C63.8528 41.9046 63.5529 41.8637 63.2947 41.7118C63.0353 41.5592 62.8341 41.3035 62.7405 40.991C62.6995 40.836 62.6875 40.6737 62.7052 40.5133C62.7232 40.351 62.7712 40.195 62.8457 40.0542C62.9202 39.9135 63.0193 39.7914 63.1362 39.6939C63.253 39.5965 63.3854 39.5255 63.5254 39.4837Z" fill="#444444" stroke="#D4D4D4"/>
</svg>
