<svg width="128" height="128" viewBox="0 0 128 128" fill="none" xmlns="http://www.w3.org/2000/svg">
<mask id="path-1-inside-1_2169_56491" fill="white">
<path fill-rule="evenodd" clip-rule="evenodd" d="M93.8389 64.6308C93.8744 64.6322 93.9098 64.6324 93.9455 64.634C97.8599 64.834 101.547 66.5278 104.241 69.3641C106.936 72.2004 108.432 75.9615 108.418 79.8673C108.404 83.773 106.882 87.5236 104.168 90.341C101.453 93.1585 97.7546 94.8266 93.8389 94.9992V99.3076C93.8384 100.188 93.4875 101.032 92.8631 101.655C92.2388 102.278 91.3921 102.628 90.5086 102.63H87.6731V105.273C87.6726 106.153 87.3217 106.997 86.6974 107.62C86.0732 108.243 85.2264 108.594 84.343 108.595H81.9328V110.599C81.9322 111.479 81.5813 112.323 80.9569 112.946C80.3325 113.569 79.4857 113.92 78.6023 113.921H22.26C21.3765 113.92 20.5297 113.569 19.9054 112.946C19.2811 112.323 18.9302 111.479 18.9297 110.599V28.348C18.9302 27.4677 19.2811 26.6234 19.9054 26.0005C20.5297 25.3777 21.3765 25.027 22.26 25.0254H24.67V23.2348C24.6706 22.3545 25.0215 21.5103 25.6459 20.8874C26.2702 20.2646 27.117 19.9139 28.0005 19.9124H31.0486V16.8436C31.0491 15.9633 31.4001 15.1191 32.0244 14.4963C32.6487 13.8734 33.4955 13.5228 34.3789 13.5212H75.722C76.1657 13.5223 76.6049 13.6112 77.0139 13.7829C77.4229 13.9546 77.7935 14.2055 78.1043 14.5212L92.8912 29.6252C93.5005 30.2453 93.8409 31.079 93.8389 31.9468V64.6308ZM89.82 29.9254L77.4677 17.309L77.4679 23.9758C77.4679 25.5515 78.0952 27.0629 79.2121 28.1783C80.329 29.2937 81.8443 29.922 83.4256 29.9254H89.82ZM79.2546 111.25C79.4274 111.077 79.5243 110.843 79.5241 110.599L79.5243 108.595H28.0005C27.117 108.594 26.2702 108.243 25.6459 107.62C25.0215 106.997 24.6706 106.153 24.67 105.273V27.4254H22.26C22.015 27.4262 21.7804 27.5238 21.6076 27.6968C21.4348 27.8697 21.3379 28.104 21.3381 28.348V110.599C21.3379 110.843 21.4349 111.077 21.6077 111.25C21.7805 111.423 22.0151 111.52 22.26 111.521H78.6023C78.8472 111.52 79.0818 111.423 79.2546 111.25ZM84.9948 105.924C85.1676 105.751 85.2645 105.517 85.2642 105.273L85.2646 102.63H34.3789C33.4955 102.628 32.6487 102.278 32.0244 101.655C31.4001 101.032 31.0491 100.188 31.0486 99.3076V22.3124H28.0005C27.7556 22.3132 27.5209 22.4107 27.3481 22.5836C27.1752 22.7566 27.0783 22.9908 27.0785 23.2348V105.273C27.0783 105.517 27.1752 105.751 27.3481 105.924C27.5209 106.097 27.7556 106.194 28.0005 106.195H84.3426C84.5875 106.194 84.8221 106.097 84.9948 105.924ZM86.3788 90.6835C88.1796 91.8002 90.2301 92.4549 92.3469 92.589L92.3463 92.5882C94.3494 92.7166 96.3549 92.3753 98.2017 91.5917C100.049 90.8081 101.685 89.6041 102.981 88.0762C104.276 86.5484 105.194 84.7392 105.662 82.7939C106.129 80.8485 106.132 78.8212 105.67 76.8745C105.209 74.9278 104.296 73.116 103.005 71.5843C101.714 70.0527 100.081 68.844 98.2362 68.055C96.3916 67.2661 94.3872 66.9189 92.3837 67.0414C90.3802 67.1639 88.4334 67.7527 86.6995 68.7604C86.4706 68.8932 86.2041 68.9466 85.9415 68.9124C85.679 68.8781 85.4352 68.7581 85.2484 68.571C85.1186 68.4422 85.02 68.2855 84.9603 68.1129C84.9006 67.9403 84.8812 67.7564 84.9038 67.5752C84.9263 67.3941 84.9901 67.2204 85.0904 67.0676C85.1906 66.9147 85.3245 66.7868 85.482 66.6934C87.3046 65.6278 89.3309 64.9541 91.4305 64.7156V32.3254H83.4256C81.2058 32.3213 79.0783 31.4398 77.5099 29.8745C75.9415 28.3092 75.0602 26.1878 75.0594 23.9758V15.9212H34.3789C34.134 15.922 33.8994 16.0196 33.7266 16.1925C33.5538 16.3654 33.4568 16.5996 33.4571 16.8436V99.3076C33.4568 99.5517 33.5538 99.7858 33.7266 99.9587C33.8994 100.132 34.134 100.229 34.3789 100.23H90.508C90.7529 100.229 90.9875 100.132 91.1603 99.9587C91.3331 99.7858 91.4301 99.5517 91.4299 99.3076V94.9126C88.993 94.6359 86.6592 93.7772 84.6267 92.4094C82.5941 91.0416 80.9228 89.2053 79.7548 87.0562C78.5867 84.9072 77.9564 82.509 77.9174 80.0653C77.8783 77.6216 78.4317 75.2046 79.5305 73.0196C79.6164 72.8503 79.7414 72.7036 79.8951 72.5917C80.0489 72.4798 80.2272 72.4058 80.4152 72.3758C80.6033 72.3459 80.7958 72.3608 80.9769 72.4193C81.1581 72.4779 81.3227 72.5784 81.4573 72.7126C81.6353 72.8877 81.7535 73.1142 81.7951 73.3599C81.8368 73.6056 81.7999 73.8582 81.6895 74.0818C80.7376 75.9707 80.2702 78.0651 80.3292 80.178C80.3881 82.2908 80.9715 84.3562 82.0271 86.1894C83.0828 88.0227 84.5779 89.5667 86.3788 90.6835ZM38.0463 21.7289C37.7269 21.7289 37.4206 21.8553 37.1948 22.0803C36.969 22.3054 36.8421 22.6106 36.8421 22.9289V24.1889C36.8421 24.5071 36.969 24.8124 37.1948 25.0374C37.4206 25.2624 37.7269 25.3889 38.0463 25.3889C38.3657 25.3889 38.672 25.2624 38.8978 25.0374C39.1237 24.8124 39.2505 24.5071 39.2505 24.1889V22.9289C39.2505 22.6106 39.1237 22.3054 38.8978 22.0803C38.672 21.8553 38.3657 21.7289 38.0463 21.7289ZM42.5594 29.8668H45.6171C45.9365 29.8668 46.2428 29.7403 46.4687 29.5153C46.6945 29.2903 46.8214 28.985 46.8214 28.6668C46.8214 28.3485 46.6945 28.0433 46.4687 27.8182C46.2428 27.5932 45.9365 27.4668 45.6171 27.4668H42.5594C42.24 27.4668 41.9337 27.5932 41.7079 27.8182C41.4821 28.0433 41.3552 28.3485 41.3552 28.6668C41.3552 28.985 41.4821 29.2903 41.7079 29.5153C41.9337 29.7403 42.24 29.8668 42.5594 29.8668ZM70.1259 29.8668H71.4196C71.739 29.8668 72.0453 29.7403 72.2711 29.5153C72.497 29.2903 72.6238 28.985 72.6238 28.6668C72.6238 28.3485 72.497 28.0433 72.2711 27.8182C72.0453 27.5932 71.739 27.4668 71.4196 27.4668H70.1259C69.8065 27.4668 69.5002 27.5932 69.2744 27.8182C69.0485 28.0433 68.9217 28.3485 68.9217 28.6668C68.9217 28.985 69.0485 29.2903 69.2744 29.5153C69.5002 29.7403 69.8065 29.8668 70.1259 29.8668ZM41.9128 37.7673C42.1386 37.5423 42.4449 37.4158 42.7643 37.4158H66.5991C66.9185 37.4158 67.2248 37.5423 67.4507 37.7673C67.6765 37.9923 67.8034 38.2976 67.8034 38.6158C67.8034 38.9341 67.6765 39.2393 67.4507 39.4644C67.2248 39.6894 66.9185 39.8158 66.5991 39.8158H42.7643C42.4449 39.8158 42.1386 39.6894 41.9128 39.4644C41.687 39.2393 41.5601 38.9341 41.5601 38.6158C41.5601 38.2976 41.687 37.9923 41.9128 37.7673ZM71.1702 37.4158C70.8508 37.4158 70.5445 37.5423 70.3187 37.7673C70.0929 37.9923 69.966 38.2976 69.966 38.6158C69.966 38.9341 70.0929 39.2393 70.3187 39.4644C70.5445 39.6894 70.8508 39.8158 71.1702 39.8158H72.2079C72.5272 39.8158 72.8335 39.6894 73.0594 39.4644C73.2852 39.2393 73.4121 38.9341 73.4121 38.6158C73.4121 38.2976 73.2852 37.9923 73.0594 37.7673C72.8335 37.5423 72.5272 37.4158 72.2079 37.4158H71.1702ZM81.9107 37.4158H76.7191C76.3997 37.4158 76.0934 37.5423 75.8676 37.7673C75.6417 37.9923 75.5149 38.2976 75.5149 38.6158C75.5149 38.9341 75.6417 39.2393 75.8676 39.4644C76.0934 39.6894 76.3997 39.8158 76.7191 39.8158H81.9107C82.2301 39.8158 82.5364 39.6894 82.7622 39.4644C82.988 39.2393 83.1149 38.9341 83.1149 38.6158C83.1149 38.2976 82.988 37.9923 82.7622 37.7673C82.5364 37.5423 82.2301 37.4158 81.9107 37.4158ZM81.9107 47.3649H62.8301C62.5107 47.3649 62.2044 47.4913 61.9786 47.7163C61.7528 47.9414 61.6259 48.2466 61.6259 48.5649C61.6259 48.8831 61.7528 49.1884 61.9786 49.4134C62.2044 49.6385 62.5107 49.7649 62.8301 49.7649H81.9107C82.23 49.7649 82.5363 49.6385 82.7622 49.4134C82.988 49.1884 83.1149 48.8831 83.1149 48.5649C83.1149 48.2466 82.988 47.9414 82.7622 47.7163C82.5363 47.4913 82.23 47.3649 81.9107 47.3649ZM57.1878 47.7163C57.4136 47.4913 57.7199 47.3649 58.0393 47.3649H58.346C58.6653 47.3649 58.9716 47.4913 59.1975 47.7163C59.4233 47.9414 59.5502 48.2466 59.5502 48.5649C59.5502 48.8831 59.4233 49.1884 59.1975 49.4134C58.9716 49.6385 58.6653 49.7649 58.346 49.7649H58.0393C57.7199 49.7649 57.4136 49.6385 57.1878 49.4134C56.9619 49.1884 56.8351 48.8831 56.8351 48.5649C56.8351 48.2466 56.9619 47.9414 57.1878 47.7163ZM53.6495 47.3649H42.7643C42.4449 47.3649 42.1386 47.4913 41.9128 47.7163C41.687 47.9414 41.5601 48.2466 41.5601 48.5649C41.5601 48.8831 41.687 49.1884 41.9128 49.4134C42.1386 49.6385 42.4449 49.7649 42.7643 49.7649H53.6495C53.9689 49.7649 54.2752 49.6385 54.501 49.4134C54.7268 49.1884 54.8537 48.8831 54.8537 48.5649C54.8537 48.2466 54.7268 47.9414 54.501 47.7163C54.2752 47.4913 53.9689 47.3649 53.6495 47.3649ZM80.1942 57.314H81.9106H81.9116C82.231 57.314 82.5373 57.4405 82.7632 57.6655C82.989 57.8906 83.1159 58.1958 83.1159 58.514C83.1159 58.8323 82.989 59.1375 82.7632 59.3626C82.5373 59.5876 82.231 59.714 81.9116 59.714H80.1942C79.8748 59.714 79.5685 59.5876 79.3427 59.3626C79.1169 59.1375 78.99 58.8323 78.99 58.514C78.99 58.1958 79.1169 57.8906 79.3427 57.6655C79.5685 57.4405 79.8748 57.314 80.1942 57.314ZM75.7073 57.314H56.3046C55.9852 57.314 55.6789 57.4405 55.4531 57.6655C55.2272 57.8906 55.1004 58.1958 55.1004 58.514C55.1004 58.8323 55.2272 59.1375 55.4531 59.3626C55.6789 59.5876 55.9852 59.714 56.3046 59.714H75.7073C76.0266 59.714 76.3329 59.5876 76.5588 59.3626C76.7846 59.1375 76.9115 58.8323 76.9115 58.514C76.9115 58.1958 76.7846 57.8906 76.5588 57.6655C76.3329 57.4405 76.0266 57.314 75.7073 57.314ZM51.7581 59.714H42.7643C42.4449 59.714 42.1386 59.5876 41.9128 59.3626C41.687 59.1375 41.5601 58.8323 41.5601 58.514C41.5601 58.1958 41.687 57.8906 41.9128 57.6655C42.1386 57.4405 42.4449 57.314 42.7643 57.314H51.7581C52.0774 57.314 52.3837 57.4405 52.6096 57.6655C52.8354 57.8906 52.9623 58.1958 52.9623 58.514C52.9623 58.8323 52.8354 59.1375 52.6096 59.3626C52.3837 59.5876 52.0774 59.714 51.7581 59.714ZM71.852 67.2631H67.6585C67.3391 67.2631 67.0328 67.3895 66.8069 67.6146C66.5811 67.8396 66.4542 68.1448 66.4542 68.4631C66.4542 68.7814 66.5811 69.0866 66.8069 69.3116C67.0328 69.5367 67.3391 69.6631 67.6585 69.6631H71.852C72.1713 69.6631 72.4776 69.5367 72.7035 69.3116C72.9293 69.0866 73.0562 68.7814 73.0562 68.4631C73.0562 68.1448 72.9293 67.8396 72.7035 67.6146C72.4776 67.3895 72.1713 67.2631 71.852 67.2631ZM64.0775 67.6146C64.3033 67.8396 64.4302 68.1448 64.4302 68.4631C64.4302 68.7814 64.3033 69.0866 64.0775 69.3116C63.8517 69.5367 63.5454 69.6631 63.226 69.6631H52.7846C52.4652 69.6631 52.1589 69.5367 51.933 69.3116C51.7072 69.0866 51.5803 68.7814 51.5803 68.4631C51.5803 68.1448 51.7072 67.8396 51.933 67.6146C52.1589 67.3895 52.4652 67.2631 52.7846 67.2631H63.226C63.5454 67.2631 63.8517 67.3895 64.0775 67.6146ZM42.7643 69.6631H48.371C48.6904 69.6631 48.9967 69.5367 49.2225 69.3116C49.4483 69.0866 49.5752 68.7814 49.5752 68.4631C49.5752 68.1448 49.4483 67.8396 49.2225 67.6146C48.9967 67.3895 48.6904 67.2631 48.371 67.2631H42.7643C42.4449 67.2631 42.1386 67.3895 41.9128 67.6146C41.687 67.8396 41.5601 68.1448 41.5601 68.4631C41.5601 68.7814 41.687 69.0866 41.9128 69.3116C42.1386 69.5367 42.4449 69.6631 42.7643 69.6631ZM65.1302 77.212H70.7356C71.055 77.212 71.3613 77.3385 71.5872 77.5635C71.813 77.7886 71.9399 78.0938 71.9399 78.412C71.9399 78.7303 71.813 79.0355 71.5872 79.2606C71.3613 79.4856 71.055 79.612 70.7356 79.612H65.1302C64.8108 79.612 64.5045 79.4856 64.2787 79.2606C64.0528 79.0355 63.9259 78.7303 63.9259 78.412C63.9259 78.0938 64.0528 77.7886 64.2787 77.5635C64.5045 77.3385 64.8108 77.212 65.1302 77.212ZM48.3916 79.612H60.7058C61.0252 79.612 61.3315 79.4856 61.5573 79.2606C61.7832 79.0355 61.9101 78.7303 61.9101 78.412C61.9101 78.0938 61.7832 77.7886 61.5573 77.5635C61.3315 77.3385 61.0252 77.212 60.7058 77.212H48.3916C48.0722 77.212 47.7659 77.3385 47.5401 77.5635C47.3143 77.7886 47.1874 78.0938 47.1874 78.412C47.1874 78.7303 47.3143 79.0355 47.5401 79.2606C47.7659 79.4856 48.0722 79.612 48.3916 79.612ZM42.7651 77.212H43.9671C44.2865 77.212 44.5928 77.3385 44.8186 77.5635C45.0444 77.7886 45.1713 78.0938 45.1713 78.412C45.1713 78.7303 45.0444 79.0355 44.8186 79.2606C44.5928 79.4856 44.2865 79.612 43.9671 79.612H42.7651C42.4457 79.612 42.1394 79.4856 41.9136 79.2606C41.6877 79.0355 41.5609 78.7303 41.5609 78.412C41.5609 78.0938 41.6877 77.7886 41.9136 77.5635C42.1394 77.3385 42.4457 77.212 42.7651 77.212ZM65.7435 29.8668H50.0308H50.0304C49.711 29.8668 49.4047 29.7403 49.1789 29.5153C48.953 29.2903 48.8261 28.985 48.8261 28.6668C48.8261 28.3485 48.953 28.0433 49.1789 27.8182C49.4047 27.5932 49.711 27.4668 50.0304 27.4668H65.7435C66.0629 27.4668 66.3692 27.5932 66.595 27.8182C66.8209 28.0433 66.9477 28.3485 66.9477 28.6668C66.9477 28.985 66.8209 29.2903 66.595 29.5153C66.3692 29.7403 66.0629 29.8668 65.7435 29.8668ZM57.5862 87.1612H70.7357C71.0551 87.1612 71.3614 87.2876 71.5872 87.5127C71.813 87.7377 71.9399 88.0429 71.9399 88.3612C71.9399 88.6795 71.813 88.9847 71.5872 89.2097C71.3614 89.4348 71.0551 89.5612 70.7357 89.5612H57.5862C57.2668 89.5612 56.9605 89.4348 56.7346 89.2097C56.5088 88.9847 56.3819 88.6795 56.3819 88.3612C56.3819 88.0429 56.5088 87.7377 56.7346 87.5127C56.9605 87.2876 57.2668 87.1612 57.5862 87.1612ZM53.041 87.1612H48.1867C47.8674 87.1612 47.5611 87.2876 47.3352 87.5127C47.1094 87.7377 46.9825 88.0429 46.9825 88.3612C46.9825 88.6795 47.1094 88.9847 47.3352 89.2097C47.5611 89.4348 47.8674 89.5612 48.1867 89.5612H53.041C53.1991 89.5612 53.3557 89.5302 53.5018 89.4699C53.6479 89.4096 53.7807 89.3212 53.8925 89.2097C54.0043 89.0983 54.093 88.966 54.1535 88.8204C54.214 88.6748 54.2452 88.5188 54.2452 88.3612C54.2452 88.2036 54.214 88.0476 54.1535 87.902C54.093 87.7564 54.0043 87.6241 53.8925 87.5127C53.7807 87.4013 53.6479 87.3128 53.5018 87.2525C53.3557 87.1922 53.1991 87.1612 53.041 87.1612ZM42.7643 87.1612H43.5683C43.8877 87.1612 44.194 87.2876 44.4198 87.5127C44.6457 87.7377 44.7726 88.0429 44.7726 88.3612C44.7726 88.6795 44.6457 88.9847 44.4198 89.2097C44.194 89.4348 43.8877 89.5612 43.5683 89.5612H42.7643C42.6062 89.5612 42.4496 89.5302 42.3035 89.4699C42.1574 89.4096 42.0246 89.3212 41.9128 89.2097C41.801 89.0983 41.7123 88.966 41.6517 88.8204C41.5912 88.6748 41.5601 88.5188 41.5601 88.3612C41.5601 88.2036 41.5912 88.0476 41.6517 87.902C41.7123 87.7564 41.801 87.6241 41.9128 87.5127C42.0246 87.4013 42.1574 87.3128 42.3035 87.2525C42.4496 87.1922 42.6062 87.1612 42.7643 87.1612ZM37.1948 27.9393C37.4206 27.7142 37.7269 27.5878 38.0463 27.5878C38.3657 27.5878 38.672 27.7142 38.8978 27.9393C39.1237 28.1643 39.2505 28.4696 39.2505 28.7878V48.5878C39.2505 48.9061 39.1237 49.2113 38.8978 49.4363C38.672 49.6614 38.3657 49.7878 38.0463 49.7878C37.7269 49.7878 37.4206 49.6614 37.1948 49.4363C36.969 49.2113 36.8421 48.9061 36.8421 48.5878V28.7878C36.8421 28.4696 36.969 28.1643 37.1948 27.9393ZM99.7816 73.6307L89.9242 83.4535L86.5565 80.0985C86.3294 79.8799 86.0252 79.7589 85.7095 79.7617C85.3937 79.7644 85.0917 79.8906 84.8684 80.1131C84.6452 80.3356 84.5185 80.6366 84.5158 80.9512C84.513 81.2658 84.6344 81.569 84.8538 81.7953L89.0722 85.9991C89.298 86.2241 89.6043 86.3505 89.9237 86.3505C90.243 86.3505 90.5493 86.2241 90.7752 85.9991L101.484 75.3275C101.707 75.1018 101.831 74.7975 101.83 74.481C101.828 74.1644 101.702 73.8612 101.477 73.6374C101.252 73.4135 100.948 73.2872 100.63 73.286C100.313 73.2847 100.007 73.4086 99.781 73.6307H99.7816Z"/>
</mask>
<path fill-rule="evenodd" clip-rule="evenodd" d="M93.8389 64.6308C93.8744 64.6322 93.9098 64.6324 93.9455 64.634C97.8599 64.834 101.547 66.5278 104.241 69.3641C106.936 72.2004 108.432 75.9615 108.418 79.8673C108.404 83.773 106.882 87.5236 104.168 90.341C101.453 93.1585 97.7546 94.8266 93.8389 94.9992V99.3076C93.8384 100.188 93.4875 101.032 92.8631 101.655C92.2388 102.278 91.3921 102.628 90.5086 102.63H87.6731V105.273C87.6726 106.153 87.3217 106.997 86.6974 107.62C86.0732 108.243 85.2264 108.594 84.343 108.595H81.9328V110.599C81.9322 111.479 81.5813 112.323 80.9569 112.946C80.3325 113.569 79.4857 113.92 78.6023 113.921H22.26C21.3765 113.92 20.5297 113.569 19.9054 112.946C19.2811 112.323 18.9302 111.479 18.9297 110.599V28.348C18.9302 27.4677 19.2811 26.6234 19.9054 26.0005C20.5297 25.3777 21.3765 25.027 22.26 25.0254H24.67V23.2348C24.6706 22.3545 25.0215 21.5103 25.6459 20.8874C26.2702 20.2646 27.117 19.9139 28.0005 19.9124H31.0486V16.8436C31.0491 15.9633 31.4001 15.1191 32.0244 14.4963C32.6487 13.8734 33.4955 13.5228 34.3789 13.5212H75.722C76.1657 13.5223 76.6049 13.6112 77.0139 13.7829C77.4229 13.9546 77.7935 14.2055 78.1043 14.5212L92.8912 29.6252C93.5005 30.2453 93.8409 31.079 93.8389 31.9468V64.6308ZM89.82 29.9254L77.4677 17.309L77.4679 23.9758C77.4679 25.5515 78.0952 27.0629 79.2121 28.1783C80.329 29.2937 81.8443 29.922 83.4256 29.9254H89.82ZM79.2546 111.25C79.4274 111.077 79.5243 110.843 79.5241 110.599L79.5243 108.595H28.0005C27.117 108.594 26.2702 108.243 25.6459 107.62C25.0215 106.997 24.6706 106.153 24.67 105.273V27.4254H22.26C22.015 27.4262 21.7804 27.5238 21.6076 27.6968C21.4348 27.8697 21.3379 28.104 21.3381 28.348V110.599C21.3379 110.843 21.4349 111.077 21.6077 111.25C21.7805 111.423 22.0151 111.52 22.26 111.521H78.6023C78.8472 111.52 79.0818 111.423 79.2546 111.25ZM84.9948 105.924C85.1676 105.751 85.2645 105.517 85.2642 105.273L85.2646 102.63H34.3789C33.4955 102.628 32.6487 102.278 32.0244 101.655C31.4001 101.032 31.0491 100.188 31.0486 99.3076V22.3124H28.0005C27.7556 22.3132 27.5209 22.4107 27.3481 22.5836C27.1752 22.7566 27.0783 22.9908 27.0785 23.2348V105.273C27.0783 105.517 27.1752 105.751 27.3481 105.924C27.5209 106.097 27.7556 106.194 28.0005 106.195H84.3426C84.5875 106.194 84.8221 106.097 84.9948 105.924ZM86.3788 90.6835C88.1796 91.8002 90.2301 92.4549 92.3469 92.589L92.3463 92.5882C94.3494 92.7166 96.3549 92.3753 98.2017 91.5917C100.049 90.8081 101.685 89.6041 102.981 88.0762C104.276 86.5484 105.194 84.7392 105.662 82.7939C106.129 80.8485 106.132 78.8212 105.67 76.8745C105.209 74.9278 104.296 73.116 103.005 71.5843C101.714 70.0527 100.081 68.844 98.2362 68.055C96.3916 67.2661 94.3872 66.9189 92.3837 67.0414C90.3802 67.1639 88.4334 67.7527 86.6995 68.7604C86.4706 68.8932 86.2041 68.9466 85.9415 68.9124C85.679 68.8781 85.4352 68.7581 85.2484 68.571C85.1186 68.4422 85.02 68.2855 84.9603 68.1129C84.9006 67.9403 84.8812 67.7564 84.9038 67.5752C84.9263 67.3941 84.9901 67.2204 85.0904 67.0676C85.1906 66.9147 85.3245 66.7868 85.482 66.6934C87.3046 65.6278 89.3309 64.9541 91.4305 64.7156V32.3254H83.4256C81.2058 32.3213 79.0783 31.4398 77.5099 29.8745C75.9415 28.3092 75.0602 26.1878 75.0594 23.9758V15.9212H34.3789C34.134 15.922 33.8994 16.0196 33.7266 16.1925C33.5538 16.3654 33.4568 16.5996 33.4571 16.8436V99.3076C33.4568 99.5517 33.5538 99.7858 33.7266 99.9587C33.8994 100.132 34.134 100.229 34.3789 100.23H90.508C90.7529 100.229 90.9875 100.132 91.1603 99.9587C91.3331 99.7858 91.4301 99.5517 91.4299 99.3076V94.9126C88.993 94.6359 86.6592 93.7772 84.6267 92.4094C82.5941 91.0416 80.9228 89.2053 79.7548 87.0562C78.5867 84.9072 77.9564 82.509 77.9174 80.0653C77.8783 77.6216 78.4317 75.2046 79.5305 73.0196C79.6164 72.8503 79.7414 72.7036 79.8951 72.5917C80.0489 72.4798 80.2272 72.4058 80.4152 72.3758C80.6033 72.3459 80.7958 72.3608 80.9769 72.4193C81.1581 72.4779 81.3227 72.5784 81.4573 72.7126C81.6353 72.8877 81.7535 73.1142 81.7951 73.3599C81.8368 73.6056 81.7999 73.8582 81.6895 74.0818C80.7376 75.9707 80.2702 78.0651 80.3292 80.178C80.3881 82.2908 80.9715 84.3562 82.0271 86.1894C83.0828 88.0227 84.5779 89.5667 86.3788 90.6835ZM38.0463 21.7289C37.7269 21.7289 37.4206 21.8553 37.1948 22.0803C36.969 22.3054 36.8421 22.6106 36.8421 22.9289V24.1889C36.8421 24.5071 36.969 24.8124 37.1948 25.0374C37.4206 25.2624 37.7269 25.3889 38.0463 25.3889C38.3657 25.3889 38.672 25.2624 38.8978 25.0374C39.1237 24.8124 39.2505 24.5071 39.2505 24.1889V22.9289C39.2505 22.6106 39.1237 22.3054 38.8978 22.0803C38.672 21.8553 38.3657 21.7289 38.0463 21.7289ZM42.5594 29.8668H45.6171C45.9365 29.8668 46.2428 29.7403 46.4687 29.5153C46.6945 29.2903 46.8214 28.985 46.8214 28.6668C46.8214 28.3485 46.6945 28.0433 46.4687 27.8182C46.2428 27.5932 45.9365 27.4668 45.6171 27.4668H42.5594C42.24 27.4668 41.9337 27.5932 41.7079 27.8182C41.4821 28.0433 41.3552 28.3485 41.3552 28.6668C41.3552 28.985 41.4821 29.2903 41.7079 29.5153C41.9337 29.7403 42.24 29.8668 42.5594 29.8668ZM70.1259 29.8668H71.4196C71.739 29.8668 72.0453 29.7403 72.2711 29.5153C72.497 29.2903 72.6238 28.985 72.6238 28.6668C72.6238 28.3485 72.497 28.0433 72.2711 27.8182C72.0453 27.5932 71.739 27.4668 71.4196 27.4668H70.1259C69.8065 27.4668 69.5002 27.5932 69.2744 27.8182C69.0485 28.0433 68.9217 28.3485 68.9217 28.6668C68.9217 28.985 69.0485 29.2903 69.2744 29.5153C69.5002 29.7403 69.8065 29.8668 70.1259 29.8668ZM41.9128 37.7673C42.1386 37.5423 42.4449 37.4158 42.7643 37.4158H66.5991C66.9185 37.4158 67.2248 37.5423 67.4507 37.7673C67.6765 37.9923 67.8034 38.2976 67.8034 38.6158C67.8034 38.9341 67.6765 39.2393 67.4507 39.4644C67.2248 39.6894 66.9185 39.8158 66.5991 39.8158H42.7643C42.4449 39.8158 42.1386 39.6894 41.9128 39.4644C41.687 39.2393 41.5601 38.9341 41.5601 38.6158C41.5601 38.2976 41.687 37.9923 41.9128 37.7673ZM71.1702 37.4158C70.8508 37.4158 70.5445 37.5423 70.3187 37.7673C70.0929 37.9923 69.966 38.2976 69.966 38.6158C69.966 38.9341 70.0929 39.2393 70.3187 39.4644C70.5445 39.6894 70.8508 39.8158 71.1702 39.8158H72.2079C72.5272 39.8158 72.8335 39.6894 73.0594 39.4644C73.2852 39.2393 73.4121 38.9341 73.4121 38.6158C73.4121 38.2976 73.2852 37.9923 73.0594 37.7673C72.8335 37.5423 72.5272 37.4158 72.2079 37.4158H71.1702ZM81.9107 37.4158H76.7191C76.3997 37.4158 76.0934 37.5423 75.8676 37.7673C75.6417 37.9923 75.5149 38.2976 75.5149 38.6158C75.5149 38.9341 75.6417 39.2393 75.8676 39.4644C76.0934 39.6894 76.3997 39.8158 76.7191 39.8158H81.9107C82.2301 39.8158 82.5364 39.6894 82.7622 39.4644C82.988 39.2393 83.1149 38.9341 83.1149 38.6158C83.1149 38.2976 82.988 37.9923 82.7622 37.7673C82.5364 37.5423 82.2301 37.4158 81.9107 37.4158ZM81.9107 47.3649H62.8301C62.5107 47.3649 62.2044 47.4913 61.9786 47.7163C61.7528 47.9414 61.6259 48.2466 61.6259 48.5649C61.6259 48.8831 61.7528 49.1884 61.9786 49.4134C62.2044 49.6385 62.5107 49.7649 62.8301 49.7649H81.9107C82.23 49.7649 82.5363 49.6385 82.7622 49.4134C82.988 49.1884 83.1149 48.8831 83.1149 48.5649C83.1149 48.2466 82.988 47.9414 82.7622 47.7163C82.5363 47.4913 82.23 47.3649 81.9107 47.3649ZM57.1878 47.7163C57.4136 47.4913 57.7199 47.3649 58.0393 47.3649H58.346C58.6653 47.3649 58.9716 47.4913 59.1975 47.7163C59.4233 47.9414 59.5502 48.2466 59.5502 48.5649C59.5502 48.8831 59.4233 49.1884 59.1975 49.4134C58.9716 49.6385 58.6653 49.7649 58.346 49.7649H58.0393C57.7199 49.7649 57.4136 49.6385 57.1878 49.4134C56.9619 49.1884 56.8351 48.8831 56.8351 48.5649C56.8351 48.2466 56.9619 47.9414 57.1878 47.7163ZM53.6495 47.3649H42.7643C42.4449 47.3649 42.1386 47.4913 41.9128 47.7163C41.687 47.9414 41.5601 48.2466 41.5601 48.5649C41.5601 48.8831 41.687 49.1884 41.9128 49.4134C42.1386 49.6385 42.4449 49.7649 42.7643 49.7649H53.6495C53.9689 49.7649 54.2752 49.6385 54.501 49.4134C54.7268 49.1884 54.8537 48.8831 54.8537 48.5649C54.8537 48.2466 54.7268 47.9414 54.501 47.7163C54.2752 47.4913 53.9689 47.3649 53.6495 47.3649ZM80.1942 57.314H81.9106H81.9116C82.231 57.314 82.5373 57.4405 82.7632 57.6655C82.989 57.8906 83.1159 58.1958 83.1159 58.514C83.1159 58.8323 82.989 59.1375 82.7632 59.3626C82.5373 59.5876 82.231 59.714 81.9116 59.714H80.1942C79.8748 59.714 79.5685 59.5876 79.3427 59.3626C79.1169 59.1375 78.99 58.8323 78.99 58.514C78.99 58.1958 79.1169 57.8906 79.3427 57.6655C79.5685 57.4405 79.8748 57.314 80.1942 57.314ZM75.7073 57.314H56.3046C55.9852 57.314 55.6789 57.4405 55.4531 57.6655C55.2272 57.8906 55.1004 58.1958 55.1004 58.514C55.1004 58.8323 55.2272 59.1375 55.4531 59.3626C55.6789 59.5876 55.9852 59.714 56.3046 59.714H75.7073C76.0266 59.714 76.3329 59.5876 76.5588 59.3626C76.7846 59.1375 76.9115 58.8323 76.9115 58.514C76.9115 58.1958 76.7846 57.8906 76.5588 57.6655C76.3329 57.4405 76.0266 57.314 75.7073 57.314ZM51.7581 59.714H42.7643C42.4449 59.714 42.1386 59.5876 41.9128 59.3626C41.687 59.1375 41.5601 58.8323 41.5601 58.514C41.5601 58.1958 41.687 57.8906 41.9128 57.6655C42.1386 57.4405 42.4449 57.314 42.7643 57.314H51.7581C52.0774 57.314 52.3837 57.4405 52.6096 57.6655C52.8354 57.8906 52.9623 58.1958 52.9623 58.514C52.9623 58.8323 52.8354 59.1375 52.6096 59.3626C52.3837 59.5876 52.0774 59.714 51.7581 59.714ZM71.852 67.2631H67.6585C67.3391 67.2631 67.0328 67.3895 66.8069 67.6146C66.5811 67.8396 66.4542 68.1448 66.4542 68.4631C66.4542 68.7814 66.5811 69.0866 66.8069 69.3116C67.0328 69.5367 67.3391 69.6631 67.6585 69.6631H71.852C72.1713 69.6631 72.4776 69.5367 72.7035 69.3116C72.9293 69.0866 73.0562 68.7814 73.0562 68.4631C73.0562 68.1448 72.9293 67.8396 72.7035 67.6146C72.4776 67.3895 72.1713 67.2631 71.852 67.2631ZM64.0775 67.6146C64.3033 67.8396 64.4302 68.1448 64.4302 68.4631C64.4302 68.7814 64.3033 69.0866 64.0775 69.3116C63.8517 69.5367 63.5454 69.6631 63.226 69.6631H52.7846C52.4652 69.6631 52.1589 69.5367 51.933 69.3116C51.7072 69.0866 51.5803 68.7814 51.5803 68.4631C51.5803 68.1448 51.7072 67.8396 51.933 67.6146C52.1589 67.3895 52.4652 67.2631 52.7846 67.2631H63.226C63.5454 67.2631 63.8517 67.3895 64.0775 67.6146ZM42.7643 69.6631H48.371C48.6904 69.6631 48.9967 69.5367 49.2225 69.3116C49.4483 69.0866 49.5752 68.7814 49.5752 68.4631C49.5752 68.1448 49.4483 67.8396 49.2225 67.6146C48.9967 67.3895 48.6904 67.2631 48.371 67.2631H42.7643C42.4449 67.2631 42.1386 67.3895 41.9128 67.6146C41.687 67.8396 41.5601 68.1448 41.5601 68.4631C41.5601 68.7814 41.687 69.0866 41.9128 69.3116C42.1386 69.5367 42.4449 69.6631 42.7643 69.6631ZM65.1302 77.212H70.7356C71.055 77.212 71.3613 77.3385 71.5872 77.5635C71.813 77.7886 71.9399 78.0938 71.9399 78.412C71.9399 78.7303 71.813 79.0355 71.5872 79.2606C71.3613 79.4856 71.055 79.612 70.7356 79.612H65.1302C64.8108 79.612 64.5045 79.4856 64.2787 79.2606C64.0528 79.0355 63.9259 78.7303 63.9259 78.412C63.9259 78.0938 64.0528 77.7886 64.2787 77.5635C64.5045 77.3385 64.8108 77.212 65.1302 77.212ZM48.3916 79.612H60.7058C61.0252 79.612 61.3315 79.4856 61.5573 79.2606C61.7832 79.0355 61.9101 78.7303 61.9101 78.412C61.9101 78.0938 61.7832 77.7886 61.5573 77.5635C61.3315 77.3385 61.0252 77.212 60.7058 77.212H48.3916C48.0722 77.212 47.7659 77.3385 47.5401 77.5635C47.3143 77.7886 47.1874 78.0938 47.1874 78.412C47.1874 78.7303 47.3143 79.0355 47.5401 79.2606C47.7659 79.4856 48.0722 79.612 48.3916 79.612ZM42.7651 77.212H43.9671C44.2865 77.212 44.5928 77.3385 44.8186 77.5635C45.0444 77.7886 45.1713 78.0938 45.1713 78.412C45.1713 78.7303 45.0444 79.0355 44.8186 79.2606C44.5928 79.4856 44.2865 79.612 43.9671 79.612H42.7651C42.4457 79.612 42.1394 79.4856 41.9136 79.2606C41.6877 79.0355 41.5609 78.7303 41.5609 78.412C41.5609 78.0938 41.6877 77.7886 41.9136 77.5635C42.1394 77.3385 42.4457 77.212 42.7651 77.212ZM65.7435 29.8668H50.0308H50.0304C49.711 29.8668 49.4047 29.7403 49.1789 29.5153C48.953 29.2903 48.8261 28.985 48.8261 28.6668C48.8261 28.3485 48.953 28.0433 49.1789 27.8182C49.4047 27.5932 49.711 27.4668 50.0304 27.4668H65.7435C66.0629 27.4668 66.3692 27.5932 66.595 27.8182C66.8209 28.0433 66.9477 28.3485 66.9477 28.6668C66.9477 28.985 66.8209 29.2903 66.595 29.5153C66.3692 29.7403 66.0629 29.8668 65.7435 29.8668ZM57.5862 87.1612H70.7357C71.0551 87.1612 71.3614 87.2876 71.5872 87.5127C71.813 87.7377 71.9399 88.0429 71.9399 88.3612C71.9399 88.6795 71.813 88.9847 71.5872 89.2097C71.3614 89.4348 71.0551 89.5612 70.7357 89.5612H57.5862C57.2668 89.5612 56.9605 89.4348 56.7346 89.2097C56.5088 88.9847 56.3819 88.6795 56.3819 88.3612C56.3819 88.0429 56.5088 87.7377 56.7346 87.5127C56.9605 87.2876 57.2668 87.1612 57.5862 87.1612ZM53.041 87.1612H48.1867C47.8674 87.1612 47.5611 87.2876 47.3352 87.5127C47.1094 87.7377 46.9825 88.0429 46.9825 88.3612C46.9825 88.6795 47.1094 88.9847 47.3352 89.2097C47.5611 89.4348 47.8674 89.5612 48.1867 89.5612H53.041C53.1991 89.5612 53.3557 89.5302 53.5018 89.4699C53.6479 89.4096 53.7807 89.3212 53.8925 89.2097C54.0043 89.0983 54.093 88.966 54.1535 88.8204C54.214 88.6748 54.2452 88.5188 54.2452 88.3612C54.2452 88.2036 54.214 88.0476 54.1535 87.902C54.093 87.7564 54.0043 87.6241 53.8925 87.5127C53.7807 87.4013 53.6479 87.3128 53.5018 87.2525C53.3557 87.1922 53.1991 87.1612 53.041 87.1612ZM42.7643 87.1612H43.5683C43.8877 87.1612 44.194 87.2876 44.4198 87.5127C44.6457 87.7377 44.7726 88.0429 44.7726 88.3612C44.7726 88.6795 44.6457 88.9847 44.4198 89.2097C44.194 89.4348 43.8877 89.5612 43.5683 89.5612H42.7643C42.6062 89.5612 42.4496 89.5302 42.3035 89.4699C42.1574 89.4096 42.0246 89.3212 41.9128 89.2097C41.801 89.0983 41.7123 88.966 41.6517 88.8204C41.5912 88.6748 41.5601 88.5188 41.5601 88.3612C41.5601 88.2036 41.5912 88.0476 41.6517 87.902C41.7123 87.7564 41.801 87.6241 41.9128 87.5127C42.0246 87.4013 42.1574 87.3128 42.3035 87.2525C42.4496 87.1922 42.6062 87.1612 42.7643 87.1612ZM37.1948 27.9393C37.4206 27.7142 37.7269 27.5878 38.0463 27.5878C38.3657 27.5878 38.672 27.7142 38.8978 27.9393C39.1237 28.1643 39.2505 28.4696 39.2505 28.7878V48.5878C39.2505 48.9061 39.1237 49.2113 38.8978 49.4363C38.672 49.6614 38.3657 49.7878 38.0463 49.7878C37.7269 49.7878 37.4206 49.6614 37.1948 49.4363C36.969 49.2113 36.8421 48.9061 36.8421 48.5878V28.7878C36.8421 28.4696 36.969 28.1643 37.1948 27.9393ZM99.7816 73.6307L89.9242 83.4535L86.5565 80.0985C86.3294 79.8799 86.0252 79.7589 85.7095 79.7617C85.3937 79.7644 85.0917 79.8906 84.8684 80.1131C84.6452 80.3356 84.5185 80.6366 84.5158 80.9512C84.513 81.2658 84.6344 81.569 84.8538 81.7953L89.0722 85.9991C89.298 86.2241 89.6043 86.3505 89.9237 86.3505C90.243 86.3505 90.5493 86.2241 90.7752 85.9991L101.484 75.3275C101.707 75.1018 101.831 74.7975 101.83 74.481C101.828 74.1644 101.702 73.8612 101.477 73.6374C101.252 73.4135 100.948 73.2872 100.63 73.286C100.313 73.2847 100.007 73.4086 99.781 73.6307H99.7816Z" fill="#16246B"/>
<path d="M93.9455 64.634L93.9659 64.2346L93.9634 64.2344L93.9455 64.634ZM93.8389 64.6308H93.4389V65.0154L93.8232 65.0305L93.8389 64.6308ZM104.241 69.3641L103.951 69.6396L103.951 69.6396L104.241 69.3641ZM108.418 79.8673L108.818 79.8687L108.818 79.8687L108.418 79.8673ZM104.168 90.341L103.88 90.0635L103.88 90.0635L104.168 90.341ZM93.8389 94.9992L93.8213 94.5996L93.4389 94.6165V94.9992H93.8389ZM93.8389 99.3076L94.2389 99.3079V99.3076H93.8389ZM92.8631 101.655L92.5806 101.372L92.5806 101.372L92.8631 101.655ZM90.5086 102.63V103.03L90.5093 103.03L90.5086 102.63ZM87.6731 102.63V102.23H87.2731V102.63H87.6731ZM87.6731 105.273L88.0731 105.273V105.273H87.6731ZM86.6974 107.62L86.4149 107.337L86.4149 107.337L86.6974 107.62ZM84.343 108.595V108.995L84.3437 108.995L84.343 108.595ZM81.9328 108.595V108.195H81.5328V108.595H81.9328ZM81.9328 110.599L82.3328 110.599V110.599H81.9328ZM80.9569 112.946L81.2394 113.229L81.2394 113.229L80.9569 112.946ZM78.6023 113.921L78.6023 114.321L78.6029 114.321L78.6023 113.921ZM22.26 113.921L22.2593 114.321H22.26V113.921ZM18.9297 110.599L18.5297 110.599L18.5297 110.599L18.9297 110.599ZM18.9297 28.348L18.5297 28.3478V28.348H18.9297ZM19.9054 26.0005L19.6229 25.7174L19.6229 25.7174L19.9054 26.0005ZM22.26 25.0254V24.6254L22.2593 24.6254L22.26 25.0254ZM24.67 25.0254V25.4254H25.07V25.0254H24.67ZM24.67 23.2348L24.27 23.2346V23.2348H24.67ZM25.6459 20.8874L25.9284 21.1706L25.9284 21.1706L25.6459 20.8874ZM28.0005 19.9124L28.0005 19.5124L27.9998 19.5124L28.0005 19.9124ZM31.0486 19.9124V20.3124H31.4486V19.9124H31.0486ZM31.0486 16.8436L30.6486 16.8434V16.8436H31.0486ZM32.0244 14.4963L31.7419 14.2131L31.7419 14.2131L32.0244 14.4963ZM34.3789 13.5212L34.3789 13.1212L34.3782 13.1212L34.3789 13.5212ZM75.722 13.5212L75.7229 13.1212H75.722V13.5212ZM77.0139 13.7829L77.1687 13.4141L77.1687 13.4141L77.0139 13.7829ZM78.1043 14.5212L78.3901 14.2414L78.3894 14.2406L78.1043 14.5212ZM92.8912 29.6252L92.6054 29.9051L92.6059 29.9056L92.8912 29.6252ZM93.8389 31.9468L93.4389 31.9459V31.9468H93.8389ZM77.4677 17.309L77.7535 17.0292L77.0677 16.3287L77.0677 17.3091L77.4677 17.309ZM89.82 29.9254V30.3254H90.7715L90.1058 29.6456L89.82 29.9254ZM77.4679 23.9758L77.0679 23.9759L77.0679 23.9759L77.4679 23.9758ZM79.2121 28.1783L79.4948 27.8952L79.4948 27.8952L79.2121 28.1783ZM83.4256 29.9254L83.4247 30.3254H83.4256V29.9254ZM79.5241 110.599L79.1241 110.599L79.1241 110.599L79.5241 110.599ZM79.5243 108.595L79.9243 108.595L79.9243 108.195H79.5243V108.595ZM28.0005 108.595L27.9998 108.995H28.0005V108.595ZM25.6459 107.62L25.3634 107.903L25.3634 107.903L25.6459 107.62ZM24.67 105.273L24.27 105.273L24.27 105.273L24.67 105.273ZM24.67 27.4254H25.07V27.0254H24.67V27.4254ZM22.26 27.4254L22.26 27.0254L22.2587 27.0254L22.26 27.4254ZM21.6076 27.6968L21.8906 27.9795L21.8906 27.9795L21.6076 27.6968ZM21.3381 28.348L21.7381 28.348L21.7381 28.3476L21.3381 28.348ZM21.3381 110.599L21.7381 110.599V110.599H21.3381ZM21.6077 111.25L21.3247 111.533L21.3247 111.533L21.6077 111.25ZM22.26 111.521L22.2587 111.921H22.26V111.521ZM78.6023 111.521V111.921L78.6036 111.921L78.6023 111.521ZM85.2642 105.273L84.8642 105.273L84.8642 105.273L85.2642 105.273ZM84.9948 105.924L85.2778 106.206L85.2778 106.206L84.9948 105.924ZM85.2646 102.63L85.6646 102.63L85.6647 102.23H85.2646V102.63ZM34.3789 102.63L34.3782 103.03H34.3789V102.63ZM32.0244 101.655L32.3069 101.372L32.3069 101.372L32.0244 101.655ZM31.0486 99.3076L30.6486 99.3076L30.6486 99.3079L31.0486 99.3076ZM31.0486 22.3124H31.4486V21.9124H31.0486V22.3124ZM28.0005 22.3124L28.0005 21.9124L27.9993 21.9124L28.0005 22.3124ZM27.3481 22.5836L27.631 22.8664L27.631 22.8664L27.3481 22.5836ZM27.0785 23.2348L27.4785 23.2348L27.4785 23.2345L27.0785 23.2348ZM27.0785 105.273L27.4785 105.273V105.273H27.0785ZM28.0005 106.195L27.9993 106.595H28.0005V106.195ZM84.3426 106.195V106.595L84.3439 106.595L84.3426 106.195ZM92.3469 92.589L92.3216 92.9882L93.1892 93.0432L92.6665 92.3486L92.3469 92.589ZM86.3788 90.6835L86.5896 90.3435L86.5896 90.3435L86.3788 90.6835ZM92.3463 92.5882L92.3719 92.1891L91.5035 92.1334L92.0267 92.8287L92.3463 92.5882ZM98.2017 91.5917L98.3579 91.9599L98.3579 91.9599L98.2017 91.5917ZM102.981 88.0762L103.286 88.3349L103.286 88.3349L102.981 88.0762ZM103.005 71.5843L102.699 71.8421L102.699 71.8421L103.005 71.5843ZM98.2362 68.055L98.3935 67.6872L98.3935 67.6872L98.2362 68.055ZM92.3837 67.0414L92.3593 66.6422L92.3593 66.6422L92.3837 67.0414ZM86.6995 68.7604L86.9002 69.1064L86.9005 69.1063L86.6995 68.7604ZM85.9415 68.9124L85.8897 69.309L85.8897 69.309L85.9415 68.9124ZM85.2484 68.571L85.5314 68.2883L85.5301 68.2871L85.2484 68.571ZM84.9603 68.1129L84.5823 68.2437L84.5823 68.2437L84.9603 68.1129ZM84.9038 67.5752L84.5068 67.5258L84.5068 67.5258L84.9038 67.5752ZM85.0904 67.0676L85.4249 67.2869L85.4249 67.2869L85.0904 67.0676ZM85.482 66.6934L85.2801 66.3481L85.2781 66.3493L85.482 66.6934ZM91.4305 64.7156L91.4756 65.1131L91.8305 65.0728V64.7156H91.4305ZM91.4305 32.3254H91.8305V31.9254H91.4305V32.3254ZM83.4256 32.3254L83.4248 32.7254H83.4256V32.3254ZM77.5099 29.8745L77.2274 30.1576L77.2274 30.1576L77.5099 29.8745ZM75.0594 23.9758L74.6594 23.9758L74.6594 23.976L75.0594 23.9758ZM75.0594 15.9212H75.4594V15.5212H75.0594V15.9212ZM34.3789 15.9212L34.3789 15.5212L34.3776 15.5212L34.3789 15.9212ZM33.4571 16.8436L33.8571 16.8436L33.8571 16.8433L33.4571 16.8436ZM33.4571 99.3076L33.8571 99.308V99.3076H33.4571ZM34.3789 100.23L34.3777 100.63H34.3789V100.23ZM90.508 100.23V100.63L90.5092 100.63L90.508 100.23ZM91.4299 99.3076L91.0299 99.3076L91.0299 99.308L91.4299 99.3076ZM91.4299 94.9126H91.8299V94.5555L91.475 94.5152L91.4299 94.9126ZM84.6267 92.4094L84.85 92.0775L84.85 92.0775L84.6267 92.4094ZM77.9174 80.0653L77.5174 80.0717L77.5174 80.0717L77.9174 80.0653ZM79.5305 73.0196L79.1738 72.8388L79.1732 72.8399L79.5305 73.0196ZM79.8951 72.5917L79.6598 72.2682L79.6598 72.2682L79.8951 72.5917ZM80.4152 72.3758L80.4782 72.7708L80.4782 72.7708L80.4152 72.3758ZM80.9769 72.4193L81.0999 72.0387L81.0999 72.0387L80.9769 72.4193ZM81.4573 72.7126L81.1748 72.9959L81.1768 72.9978L81.4573 72.7126ZM81.7951 73.3599L82.1895 73.293L82.1895 73.293L81.7951 73.3599ZM81.6895 74.0818L82.0467 74.2619L82.0482 74.2588L81.6895 74.0818ZM80.3292 80.178L80.729 80.1668L80.729 80.1668L80.3292 80.178ZM82.0271 86.1894L81.6805 86.389L81.6805 86.389L82.0271 86.1894ZM37.1948 22.0803L37.4772 22.3637L37.4772 22.3637L37.1948 22.0803ZM37.1948 25.0374L37.4772 24.7541L37.4772 24.7541L37.1948 25.0374ZM38.8978 22.0803L39.1802 21.797L39.1802 21.797L38.8978 22.0803ZM46.4687 29.5153L46.751 29.7986L46.751 29.7986L46.4687 29.5153ZM46.4687 27.8182L46.1863 28.1016L46.1863 28.1016L46.4687 27.8182ZM41.7079 27.8182L41.4256 27.5349L41.4256 27.5349L41.7079 27.8182ZM41.7079 29.5153L41.4256 29.7986L41.4256 29.7986L41.7079 29.5153ZM72.2711 29.5153L72.5535 29.7986L72.5535 29.7986L72.2711 29.5153ZM72.2711 27.8182L72.5535 27.5349L72.5535 27.5349L72.2711 27.8182ZM69.2744 27.8182L68.992 27.5349L68.992 27.5349L69.2744 27.8182ZM69.2744 29.5153L68.992 29.7986L68.992 29.7986L69.2744 29.5153ZM67.4507 37.7673L67.733 37.484L67.733 37.484L67.4507 37.7673ZM67.4507 39.4644L67.733 39.7477L67.733 39.7477L67.4507 39.4644ZM70.3187 37.7673L70.0364 37.484L70.0364 37.484L70.3187 37.7673ZM70.3187 39.4644L70.0364 39.7477L70.0364 39.7477L70.3187 39.4644ZM73.0594 39.4644L73.3417 39.7477L73.3417 39.7477L73.0594 39.4644ZM73.0594 37.7673L73.3417 37.484L73.3417 37.484L73.0594 37.7673ZM75.8676 37.7673L76.1499 38.0506L76.1499 38.0506L75.8676 37.7673ZM75.8676 39.4644L76.1499 39.181L76.1499 39.181L75.8676 39.4644ZM82.7622 39.4644L83.0446 39.7477L83.0446 39.7477L82.7622 39.4644ZM82.7622 37.7673L83.0446 37.484L83.0446 37.484L82.7622 37.7673ZM61.9786 47.7163L61.6962 47.433L61.6962 47.433L61.9786 47.7163ZM61.9786 49.4134L61.6962 49.6967L61.6962 49.6967L61.9786 49.4134ZM82.7622 49.4134L82.4798 49.1301L82.4798 49.1301L82.7622 49.4134ZM82.7622 47.7163L82.4798 47.9997L82.4798 47.9997L82.7622 47.7163ZM57.1878 47.7163L57.4701 47.9997L57.4701 47.9997L57.1878 47.7163ZM59.1975 47.7163L58.9151 47.9997L58.9151 47.9997L59.1975 47.7163ZM59.1975 49.4134L58.9151 49.1301L58.9151 49.1301L59.1975 49.4134ZM57.1878 49.4134L57.4701 49.1301L57.4701 49.1301L57.1878 49.4134ZM54.501 49.4134L54.7834 49.6967L54.7834 49.6967L54.501 49.4134ZM54.501 47.7163L54.7834 47.433L54.7834 47.433L54.501 47.7163ZM82.7632 57.6655L83.0455 57.3822L83.0455 57.3822L82.7632 57.6655ZM82.7632 59.3626L83.0455 59.6459L83.0455 59.6459L82.7632 59.3626ZM55.4531 57.6655L55.1707 57.3822L55.1707 57.3822L55.4531 57.6655ZM55.4531 59.3626L55.1707 59.6459L55.1707 59.6459L55.4531 59.3626ZM76.5588 59.3626L76.8411 59.6459L76.8411 59.6459L76.5588 59.3626ZM76.5588 57.6655L76.8411 57.3822L76.8411 57.3822L76.5588 57.6655ZM66.8069 67.6146L66.5246 67.3312L66.5246 67.3312L66.8069 67.6146ZM66.8069 69.3116L66.5246 69.595L66.5246 69.595L66.8069 69.3116ZM72.7035 69.3116L72.9858 69.595L72.9858 69.595L72.7035 69.3116ZM72.7035 67.6146L72.9858 67.3312L72.9858 67.3312L72.7035 67.6146ZM64.0775 67.6146L64.3598 67.3312L64.3598 67.3312L64.0775 67.6146ZM64.0775 69.3116L64.3598 69.595L64.3598 69.595L64.0775 69.3116ZM49.2225 69.3116L48.9401 69.0283L48.9401 69.0283L49.2225 69.3116ZM49.2225 67.6146L48.9401 67.8979L48.9401 67.8979L49.2225 67.6146ZM71.5872 77.5635L71.8695 77.2802L71.8695 77.2802L71.5872 77.5635ZM71.5872 79.2606L71.8695 79.5439L71.8695 79.5439L71.5872 79.2606ZM61.5573 79.2606L61.275 78.9772L61.275 78.9772L61.5573 79.2606ZM61.5573 77.5635L61.275 77.8469L61.275 77.8469L61.5573 77.5635ZM49.1789 29.5153L49.4612 29.232L49.4612 29.232L49.1789 29.5153ZM49.1789 27.8182L49.4612 28.1016L49.4612 28.1016L49.1789 27.8182ZM66.595 27.8182L66.3127 28.1016L66.3127 28.1016L66.595 27.8182ZM66.595 29.5153L66.3127 29.232L66.3127 29.232L66.595 29.5153ZM71.5872 87.5127L71.3049 87.796L71.3049 87.796L71.5872 87.5127ZM71.5872 89.2097L71.3049 88.9264L71.3049 88.9264L71.5872 89.2097ZM56.7346 89.2097L56.4523 89.4931L56.4523 89.4931L56.7346 89.2097ZM56.7346 87.5127L56.4523 87.2293L56.4523 87.2293L56.7346 87.5127ZM53.5018 89.4699L53.3492 89.1001L53.3492 89.1001L53.5018 89.4699ZM53.8925 89.2097L53.6101 88.9264L53.6101 88.9264L53.8925 89.2097ZM54.1535 88.8204L54.5229 88.974L54.5229 88.9739L54.1535 88.8204ZM54.1535 87.902L54.5229 87.7485L54.5229 87.7484L54.1535 87.902ZM53.8925 87.5127L54.1748 87.2293L54.1748 87.2293L53.8925 87.5127ZM44.4198 87.5127L44.7022 87.2293L44.7022 87.2293L44.4198 87.5127ZM44.4198 89.2097L44.7022 89.4931L44.7022 89.4931L44.4198 89.2097ZM42.3035 89.4699L42.4561 89.1001L42.4561 89.1001L42.3035 89.4699ZM41.9128 89.2097L42.1951 88.9264L42.1951 88.9264L41.9128 89.2097ZM42.3035 87.2525L42.1509 86.8828L42.1509 86.8828L42.3035 87.2525ZM37.1948 27.9393L36.9125 27.6559L37.1948 27.9393ZM38.8978 27.9393L39.1802 27.6559L39.1802 27.6559L38.8978 27.9393ZM37.1948 49.4363L37.4772 49.153L37.4772 49.153L37.1948 49.4363ZM89.9242 83.4535L89.6418 83.7369L89.9242 84.0182L90.2065 83.7368L89.9242 83.4535ZM99.7816 73.6307L100.064 73.914L100.75 73.2307H99.7816V73.6307ZM86.5565 80.0985L86.8389 79.8151L86.8339 79.8103L86.5565 80.0985ZM85.7095 79.7617L85.706 79.3617L85.706 79.3617L85.7095 79.7617ZM84.8538 81.7953L84.5665 82.0737L84.5714 82.0786L84.8538 81.7953ZM89.0722 85.9991L88.7898 86.2824L88.7898 86.2824L89.0722 85.9991ZM90.7752 85.9991L91.0575 86.2824L91.0575 86.2824L90.7752 85.9991ZM101.484 75.3275L101.766 75.6108L101.769 75.6085L101.484 75.3275ZM101.83 74.481L102.23 74.4793L102.23 74.4793L101.83 74.481ZM100.63 73.286L100.632 72.886L100.632 72.886L100.63 73.286ZM99.781 73.6307L99.5009 73.3451L98.8018 74.0307H99.781V73.6307ZM93.9634 64.2344C93.9409 64.2334 93.9193 64.2329 93.9017 64.2325C93.8829 64.232 93.8687 64.2317 93.8547 64.2312L93.8232 65.0305C93.8447 65.0314 93.8659 65.0319 93.8826 65.0323C93.9004 65.0327 93.9144 65.033 93.9276 65.0336L93.9634 64.2344ZM104.531 69.0886C101.766 66.1778 97.9825 64.4398 93.9659 64.2346L93.9251 65.0335C97.7372 65.2283 101.328 66.8778 103.951 69.6396L104.531 69.0886ZM108.818 79.8687C108.832 75.8597 107.297 71.9995 104.531 69.0886L103.951 69.6396C106.575 72.4014 108.031 76.0634 108.018 79.8659L108.818 79.8687ZM104.456 90.6186C107.242 87.7271 108.804 83.8776 108.818 79.8687L108.018 79.8659C108.005 83.6684 106.523 87.3201 103.88 90.0635L104.456 90.6186ZM93.8565 95.3989C97.8745 95.2217 101.67 93.51 104.456 90.6186L103.88 90.0635C101.237 92.8069 97.6347 94.4315 93.8213 94.5996L93.8565 95.3989ZM94.2389 99.3076V94.9992H93.4389V99.3076H94.2389ZM93.1456 101.938C93.845 101.24 94.2383 100.295 94.2389 99.3079L93.4389 99.3074C93.4385 100.081 93.13 100.824 92.5806 101.372L93.1456 101.938ZM90.5093 103.03C91.4982 103.028 92.4463 102.636 93.1456 101.938L92.5806 101.372C92.0313 101.92 91.2859 102.229 90.508 102.23L90.5093 103.03ZM87.6731 103.03H90.5086V102.23H87.6731V103.03ZM88.0731 105.273V102.63H87.2731V105.273H88.0731ZM86.98 107.903C87.6793 107.205 88.0726 106.26 88.0731 105.273L87.2731 105.272C87.2727 106.046 86.9642 106.789 86.4149 107.337L86.98 107.903ZM84.3437 108.995C85.3326 108.993 86.2807 108.601 86.98 107.903L86.4149 107.337C85.8656 107.885 85.1203 108.194 84.3423 108.195L84.3437 108.995ZM81.9328 108.995H84.343V108.195H81.9328V108.995ZM82.3328 110.599V108.595H81.5328V110.599H82.3328ZM81.2394 113.229C81.9388 112.532 82.3322 111.586 82.3328 110.599L81.5328 110.599C81.5323 111.373 81.2238 112.115 80.6744 112.663L81.2394 113.229ZM78.6029 114.321C79.5919 114.32 80.5401 113.927 81.2394 113.229L80.6744 112.663C80.125 113.211 79.3796 113.52 78.6016 113.521L78.6029 114.321ZM22.26 114.321H78.6023V113.521H22.26V114.321ZM19.6229 113.229C20.3222 113.927 21.2704 114.32 22.2593 114.321L22.2606 113.521C21.4827 113.52 20.7373 113.211 20.1879 112.663L19.6229 113.229ZM18.5297 110.599C18.5302 111.586 18.9235 112.532 19.6229 113.229L20.1879 112.663C19.6386 112.115 19.3301 111.373 19.3297 110.599L18.5297 110.599ZM18.5297 28.348V110.599H19.3297V28.348H18.5297ZM19.6229 25.7174C18.9235 26.4151 18.5302 27.3611 18.5297 28.3478L19.3297 28.3483C19.3301 27.5743 19.6386 26.8318 20.1879 26.2837L19.6229 25.7174ZM22.2593 24.6254C21.2703 24.6272 20.3222 25.0197 19.6229 25.7174L20.1879 26.2837C20.7373 25.7356 21.4827 25.4268 22.2607 25.4254L22.2593 24.6254ZM24.67 24.6254H22.26V25.4254H24.67V24.6254ZM24.27 23.2348V25.0254H25.07V23.2348H24.27ZM25.3634 20.6042C24.664 21.3019 24.2706 22.2478 24.27 23.2346L25.07 23.2351C25.0705 22.4611 25.379 21.7186 25.9284 21.1706L25.3634 20.6042ZM27.9998 19.5124C27.0109 19.5141 26.0627 19.9066 25.3634 20.6042L25.9284 21.1706C26.4778 20.6225 27.2232 20.3137 28.0012 20.3124L27.9998 19.5124ZM31.0486 19.5124H28.0005V20.3124H31.0486V19.5124ZM30.6486 16.8436V19.9124H31.4486V16.8436H30.6486ZM31.7419 14.2131C31.0425 14.9108 30.6492 15.8567 30.6486 16.8434L31.4486 16.8439C31.4491 16.0699 31.7576 15.3275 32.3069 14.7795L31.7419 14.2131ZM34.3782 13.1212C33.3893 13.123 32.4412 13.5155 31.7419 14.2131L32.3069 14.7795C32.8563 14.2314 33.6016 13.9226 34.3796 13.9212L34.3782 13.1212ZM75.722 13.1212H34.3789V13.9212H75.722V13.1212ZM77.1687 13.4141C76.711 13.2219 76.2195 13.1224 75.7229 13.1212L75.721 13.9212C76.112 13.9222 76.4988 14.0005 76.8591 14.1517L77.1687 13.4141ZM78.3894 14.2406C78.0414 13.8871 77.6264 13.6062 77.1687 13.4141L76.8591 14.1517C77.2193 14.3029 77.5457 14.5239 77.8193 14.8019L78.3894 14.2406ZM93.177 29.3454L78.3901 14.2414L77.8185 14.8011L92.6054 29.9051L93.177 29.3454ZM94.2389 31.9477C94.2411 30.9746 93.8594 30.0398 93.1765 29.3449L92.6059 29.9056C93.1416 30.4507 93.4406 31.1835 93.4389 31.9459L94.2389 31.9477ZM94.2389 64.6308V31.9468H93.4389V64.6308H94.2389ZM77.1819 17.5889L89.5342 30.2053L90.1058 29.6456L77.7535 17.0292L77.1819 17.5889ZM77.8679 23.9758L77.8677 17.309L77.0677 17.3091L77.0679 23.9759L77.8679 23.9758ZM79.4948 27.8952C78.4529 26.8547 77.8679 25.4451 77.8679 23.9758L77.0679 23.9759C77.0679 25.6579 77.7376 27.271 78.9295 28.4613L79.4948 27.8952ZM83.4265 29.5254C81.9507 29.5222 80.5368 28.9358 79.4948 27.8952L78.9295 28.4613C80.1213 29.6515 81.738 30.3218 83.4247 30.3254L83.4265 29.5254ZM89.82 29.5254H83.4256V30.3254H89.82V29.5254ZM79.1241 110.599C79.1242 110.737 79.0696 110.869 78.9716 110.967L79.5375 111.533C79.7852 111.285 79.9244 110.949 79.9241 110.598L79.1241 110.599ZM79.1243 108.595L79.1241 110.599L79.9241 110.599L79.9243 108.595L79.1243 108.595ZM28.0005 108.995H79.5243V108.195H28.0005V108.995ZM25.3634 107.903C26.0627 108.601 27.0109 108.993 27.9998 108.995L28.0012 108.195C27.2232 108.194 26.4778 107.885 25.9284 107.337L25.3634 107.903ZM24.27 105.273C24.2706 106.26 24.664 107.206 25.3634 107.903L25.9284 107.337C25.379 106.789 25.0705 106.046 25.07 105.272L24.27 105.273ZM24.27 27.4254V105.273H25.07V27.4254H24.27ZM22.26 27.8254H24.67V27.0254H22.26V27.8254ZM21.8906 27.9795C21.9885 27.8815 22.1218 27.8259 22.2613 27.8254L22.2587 27.0254C21.9083 27.0266 21.5723 27.1662 21.3246 27.4141L21.8906 27.9795ZM21.7381 28.3476C21.738 28.2099 21.7926 28.0775 21.8906 27.9795L21.3246 27.4141C21.0769 27.662 20.9378 27.998 20.9381 28.3485L21.7381 28.3476ZM21.7381 110.599V28.348H20.9381V110.599H21.7381ZM21.8906 110.967C21.7927 110.869 21.738 110.737 21.7381 110.599L20.9381 110.598C20.9378 110.949 21.077 111.285 21.3247 111.533L21.8906 110.967ZM22.2613 111.121C22.1218 111.121 21.9886 111.065 21.8906 110.967L21.3247 111.533C21.5724 111.781 21.9083 111.92 22.2587 111.921L22.2613 111.121ZM78.6023 111.121H22.26V111.921H78.6023V111.121ZM78.9716 110.967C78.8737 111.065 78.7404 111.121 78.601 111.121L78.6036 111.921C78.9539 111.92 79.2898 111.781 79.5375 111.533L78.9716 110.967ZM84.8642 105.273C84.8644 105.411 84.8098 105.543 84.7119 105.641L85.2778 106.206C85.5255 105.959 85.6646 105.623 85.6642 105.272L84.8642 105.273ZM84.8646 102.63L84.8642 105.273L85.6642 105.273L85.6646 102.63L84.8646 102.63ZM34.3789 103.03H85.2646V102.23H34.3789V103.03ZM31.7419 101.938C32.4412 102.636 33.3893 103.028 34.3782 103.03L34.3796 102.23C33.6016 102.229 32.8563 101.92 32.3069 101.372L31.7419 101.938ZM30.6486 99.3079C30.6492 100.295 31.0425 101.24 31.7419 101.938L32.3069 101.372C31.7576 100.824 31.4491 100.081 31.4486 99.3074L30.6486 99.3079ZM30.6486 22.3124V99.3076H31.4486V22.3124H30.6486ZM28.0005 22.7124H31.0486V21.9124H28.0005V22.7124ZM27.631 22.8664C27.729 22.7684 27.8623 22.7129 28.0017 22.7124L27.9993 21.9124C27.6489 21.9135 27.3129 22.053 27.0652 22.3009L27.631 22.8664ZM27.4785 23.2345C27.4784 23.0968 27.533 22.9644 27.631 22.8664L27.0652 22.3009C26.8174 22.5487 26.6782 22.8847 26.6785 23.2352L27.4785 23.2345ZM27.4785 105.273V23.2348H26.6785V105.273H27.4785ZM27.631 105.641C27.533 105.543 27.4784 105.411 27.4785 105.273L26.6785 105.272C26.6782 105.623 26.8174 105.959 27.0652 106.207L27.631 105.641ZM28.0017 105.795C27.8623 105.795 27.729 105.739 27.631 105.641L27.0652 106.207C27.3129 106.454 27.6489 106.594 27.9993 106.595L28.0017 105.795ZM84.3426 105.795H28.0005V106.595H84.3426V105.795ZM84.7119 105.641C84.6139 105.739 84.4807 105.795 84.3413 105.795L84.3439 106.595C84.6943 106.594 85.0302 106.454 85.2778 106.206L84.7119 105.641ZM92.3722 92.1898C90.3211 92.0599 88.3343 91.4255 86.5896 90.3435L86.1679 91.0234C88.0249 92.1749 90.1391 92.85 92.3216 92.9882L92.3722 92.1898ZM92.0267 92.8287L92.0273 92.8295L92.6665 92.3486L92.6659 92.3478L92.0267 92.8287ZM98.0455 91.2235C96.256 91.9827 94.3128 92.3134 92.3719 92.1891L92.3207 92.9874C94.386 93.1197 96.4537 92.7678 98.3579 91.9599L98.0455 91.2235ZM102.676 87.8175C101.421 89.2977 99.8349 90.4642 98.0455 91.2235L98.3579 91.9599C100.262 91.152 101.95 89.9105 103.286 88.3349L102.676 87.8175ZM105.273 82.7005C104.82 84.5848 103.931 86.3374 102.676 87.8175L103.286 88.3349C104.622 86.7593 105.569 84.8936 106.05 82.8872L105.273 82.7005ZM105.281 76.9667C105.728 78.8524 105.725 80.8161 105.273 82.7005L106.05 82.8872C106.532 80.8809 106.535 78.79 106.059 76.7823L105.281 76.9667ZM102.699 71.8421C103.95 73.3259 104.834 75.0811 105.281 76.9667L106.059 76.7823C105.584 74.7745 104.642 72.906 103.311 71.3265L102.699 71.8421ZM98.0789 68.4228C99.8661 69.1872 101.448 70.3583 102.699 71.8421L103.311 71.3265C101.98 69.7471 100.295 68.5007 98.3935 67.6872L98.0789 68.4228ZM92.4081 67.4407C94.3494 67.322 96.2917 67.6584 98.0789 68.4228L98.3935 67.6872C96.4916 66.8738 94.4249 66.5159 92.3593 66.6422L92.4081 67.4407ZM86.9005 69.1063C88.5804 68.1299 90.4668 67.5594 92.4081 67.4407L92.3593 66.6422C90.2936 66.7685 88.2863 67.3755 86.4985 68.4146L86.9005 69.1063ZM85.8897 69.309C86.2397 69.3547 86.595 69.2835 86.9002 69.1064L86.4987 68.4145C86.3463 68.5029 86.1685 68.5386 85.9933 68.5157L85.8897 69.309ZM84.9654 68.8537C85.2147 69.1033 85.5398 69.2633 85.8897 69.309L85.9933 68.5157C85.8181 68.4929 85.6557 68.4128 85.5314 68.2884L84.9654 68.8537ZM84.5823 68.2437C84.662 68.4741 84.7935 68.6832 84.9666 68.855L85.5301 68.2871C85.4436 68.2012 85.378 68.0969 85.3383 67.9821L84.5823 68.2437ZM84.5068 67.5258C84.4767 67.7678 84.5026 68.0133 84.5823 68.2437L85.3383 67.9821C85.2986 67.8673 85.2857 67.7451 85.3007 67.6246L84.5068 67.5258ZM84.7559 66.8482C84.6221 67.0521 84.5369 67.2839 84.5068 67.5258L85.3007 67.6246C85.3157 67.5042 85.3581 67.3887 85.4249 67.2869L84.7559 66.8482ZM85.2781 66.3493C85.0682 66.4737 84.8896 66.6443 84.7559 66.8482L85.4249 67.2869C85.4916 67.1852 85.5809 67.0998 85.6859 67.0375L85.2781 66.3493ZM91.3853 64.3182C89.2305 64.5629 87.1508 65.2544 85.2801 66.3481L85.6839 67.0387C87.4584 66.0012 89.4313 65.3453 91.4756 65.1131L91.3853 64.3182ZM91.0305 32.3254V64.7156H91.8305V32.3254H91.0305ZM83.4256 32.7254H91.4305V31.9254H83.4256V32.7254ZM77.2274 30.1576C78.8707 31.7977 81.0996 32.7211 83.4248 32.7254L83.4263 31.9254C81.312 31.9215 79.2859 31.0819 77.7925 29.5914L77.2274 30.1576ZM74.6594 23.976C74.6603 26.2944 75.5839 28.5175 77.2274 30.1576L77.7925 29.5914C76.2991 28.1009 75.4602 26.0813 75.4594 23.9757L74.6594 23.976ZM74.6594 15.9212V23.9758H75.4594V15.9212H74.6594ZM34.3789 16.3212H75.0594V15.5212H34.3789V16.3212ZM34.0095 16.4753C34.1075 16.3772 34.2408 16.3217 34.3802 16.3212L34.3776 15.5212C34.0272 15.5224 33.6913 15.6619 33.4437 15.9098L34.0095 16.4753ZM33.8571 16.8433C33.8569 16.7056 33.9116 16.5732 34.0095 16.4753L33.4437 15.9098C33.1959 16.1576 33.0568 16.4936 33.0571 16.844L33.8571 16.8433ZM33.8571 99.3076V16.8436H33.0571V99.3076H33.8571ZM34.0095 99.6759C33.9116 99.578 33.8569 99.4456 33.8571 99.308L33.0571 99.3073C33.0568 99.6577 33.196 99.9936 33.4437 100.241L34.0095 99.6759ZM34.3801 99.8298C34.2407 99.8294 34.1075 99.7739 34.0095 99.6759L33.4437 100.241C33.6914 100.489 34.0273 100.629 34.3777 100.63L34.3801 99.8298ZM90.508 99.8298H34.3789V100.63H90.508V99.8298ZM90.8774 99.6759C90.7795 99.7739 90.6462 99.8294 90.5068 99.8298L90.5092 100.63C90.8596 100.629 91.1955 100.489 91.4432 100.241L90.8774 99.6759ZM91.0299 99.308C91.03 99.4456 90.9753 99.578 90.8774 99.6759L91.4432 100.241C91.691 99.9937 91.8302 99.6577 91.8299 99.3073L91.0299 99.308ZM91.0299 94.9126V99.3076H91.8299V94.9126H91.0299ZM84.4034 92.7413C86.4893 94.1449 88.8842 95.0261 91.3847 95.3101L91.475 94.5152C89.1019 94.2457 86.8292 93.4094 84.85 92.0775L84.4034 92.7413ZM79.4034 87.2472C80.6022 89.4529 82.3175 91.3376 84.4034 92.7413L84.85 92.0775C82.8708 90.7457 81.2435 88.9576 80.1062 86.8652L79.4034 87.2472ZM77.5174 80.0717C77.5575 82.58 78.2045 85.0415 79.4034 87.2472L80.1062 86.8652C78.969 84.7729 78.3554 82.438 78.3173 80.0589L77.5174 80.0717ZM79.1732 72.8399C78.0454 75.0826 77.4774 77.5634 77.5174 80.0717L78.3173 80.0589C78.2793 77.6798 78.8181 75.3267 79.8879 73.1994L79.1732 72.8399ZM79.6598 72.2682C79.4549 72.4174 79.2883 72.6128 79.1738 72.8388L79.8873 73.2005C79.9445 73.0877 80.0278 72.9898 80.1305 72.9151L79.6598 72.2682ZM80.3523 71.9808C80.102 72.0207 79.8647 72.1192 79.6598 72.2682L80.1305 72.9151C80.2332 72.8404 80.3524 72.7909 80.4782 72.7708L80.3523 71.9808ZM81.0999 72.0387C80.8588 71.9608 80.6026 71.9409 80.3523 71.9808L80.4782 72.7708C80.604 72.7508 80.7327 72.7608 80.8539 72.7999L81.0999 72.0387ZM81.7398 72.4294C81.5604 72.2505 81.3411 72.1166 81.0999 72.0387L80.8539 72.7999C80.975 72.8391 81.085 72.9063 81.1748 72.9958L81.7398 72.4294ZM82.1895 73.293C82.1337 72.9642 81.9756 72.6614 81.7378 72.4275L81.1768 72.9978C81.2949 73.114 81.3732 73.2641 81.4008 73.4268L82.1895 73.293ZM82.0482 74.2588C82.1958 73.9597 82.2453 73.6218 82.1895 73.293L81.4008 73.4268C81.4283 73.5894 81.4039 73.7567 81.3308 73.9048L82.0482 74.2588ZM80.729 80.1668C80.6719 78.1203 81.1246 76.0915 82.0467 74.2619L81.3323 73.9018C80.3506 75.8498 79.8685 78.01 79.9293 80.1891L80.729 80.1668ZM82.3738 85.9898C81.3511 84.2139 80.7861 82.2133 80.729 80.1668L79.9293 80.1891C79.9901 82.3683 80.5918 84.4984 81.6805 86.389L82.3738 85.9898ZM86.5896 90.3435C84.8448 89.2615 83.3964 87.7657 82.3738 85.9898L81.6805 86.389C82.7692 88.2797 84.311 89.8719 86.1679 91.0234L86.5896 90.3435ZM37.4772 22.3637C37.6279 22.2135 37.8326 22.1289 38.0463 22.1289V21.3289C37.6213 21.3289 37.2134 21.4971 36.9125 21.797L37.4772 22.3637ZM37.2421 22.9289C37.2421 22.7172 37.3265 22.5138 37.4772 22.3637L36.9125 21.797C36.6115 22.097 36.4421 22.5041 36.4421 22.9289H37.2421ZM37.2421 24.1889V22.9289H36.4421V24.1889H37.2421ZM37.4772 24.7541C37.3265 24.6039 37.2421 24.4006 37.2421 24.1889H36.4421C36.4421 24.6137 36.6115 25.0208 36.9125 25.3207L37.4772 24.7541ZM38.0463 24.9889C37.8326 24.9889 37.6279 24.9042 37.4772 24.7541L36.9125 25.3207C37.2134 25.6206 37.6213 25.7889 38.0463 25.7889V24.9889ZM38.6155 24.7541C38.4648 24.9042 38.2601 24.9889 38.0463 24.9889V25.7889C38.4713 25.7889 38.8792 25.6206 39.1802 25.3207L38.6155 24.7541ZM38.8505 24.1889C38.8505 24.4006 38.7662 24.6039 38.6155 24.7541L39.1802 25.3207C39.4812 25.0208 39.6505 24.6137 39.6505 24.1889H38.8505ZM38.8505 22.9289V24.1889H39.6505V22.9289H38.8505ZM38.6155 22.3637C38.7662 22.5138 38.8505 22.7172 38.8505 22.9289H39.6505C39.6505 22.5041 39.4812 22.097 39.1802 21.797L38.6155 22.3637ZM38.0463 22.1289C38.2601 22.1289 38.4648 22.2135 38.6155 22.3637L39.1802 21.797C38.8792 21.4971 38.4713 21.3289 38.0463 21.3289V22.1289ZM45.6171 29.4668H42.5594V30.2668H45.6171V29.4668ZM46.1863 29.232C46.0356 29.3821 45.8309 29.4668 45.6171 29.4668V30.2668C46.0422 30.2668 46.4501 30.0985 46.751 29.7986L46.1863 29.232ZM46.4214 28.6668C46.4214 28.8785 46.337 29.0818 46.1863 29.232L46.751 29.7986C47.052 29.4987 47.2214 29.0916 47.2214 28.6668H46.4214ZM46.1863 28.1016C46.337 28.2517 46.4214 28.4551 46.4214 28.6668H47.2214C47.2214 28.242 47.052 27.8349 46.751 27.5349L46.1863 28.1016ZM45.6171 27.8668C45.8309 27.8668 46.0356 27.9514 46.1863 28.1016L46.751 27.5349C46.4501 27.235 46.0422 27.0668 45.6171 27.0668V27.8668ZM42.5594 27.8668H45.6171V27.0668H42.5594V27.8668ZM41.9902 28.1016C42.141 27.9514 42.3457 27.8668 42.5594 27.8668V27.0668C42.1344 27.0668 41.7265 27.235 41.4256 27.5349L41.9902 28.1016ZM41.7552 28.6668C41.7552 28.4551 41.8396 28.2517 41.9902 28.1016L41.4256 27.5349C41.1246 27.8349 40.9552 28.242 40.9552 28.6668H41.7552ZM41.9903 29.232C41.8396 29.0818 41.7552 28.8785 41.7552 28.6668H40.9552C40.9552 29.0916 41.1246 29.4987 41.4256 29.7986L41.9903 29.232ZM42.5594 29.4668C42.3457 29.4668 42.141 29.3821 41.9902 29.232L41.4256 29.7986C41.7265 30.0985 42.1344 30.2668 42.5594 30.2668V29.4668ZM71.4196 29.4668H70.1259V30.2668H71.4196V29.4668ZM71.9888 29.232C71.8381 29.3821 71.6334 29.4668 71.4196 29.4668V30.2668C71.8446 30.2668 72.2525 30.0985 72.5535 29.7986L71.9888 29.232ZM72.2238 28.6668C72.2238 28.8785 72.1395 29.0818 71.9888 29.232L72.5535 29.7986C72.8545 29.4987 73.0238 29.0916 73.0238 28.6668H72.2238ZM71.9888 28.1016C72.1395 28.2517 72.2238 28.4551 72.2238 28.6668H73.0238C73.0238 28.242 72.8545 27.8349 72.5535 27.5349L71.9888 28.1016ZM71.4196 27.8668C71.6334 27.8668 71.8381 27.9514 71.9888 28.1016L72.5535 27.5349C72.2525 27.235 71.8446 27.0668 71.4196 27.0668V27.8668ZM70.1259 27.8668H71.4196V27.0668H70.1259V27.8668ZM69.5567 28.1016C69.7074 27.9514 69.9121 27.8668 70.1259 27.8668V27.0668C69.7009 27.0668 69.293 27.235 68.992 27.5349L69.5567 28.1016ZM69.3217 28.6668C69.3217 28.4551 69.406 28.2517 69.5567 28.1016L68.992 27.5349C68.691 27.8349 68.5217 28.242 68.5217 28.6668H69.3217ZM69.5567 29.232C69.406 29.0818 69.3217 28.8785 69.3217 28.6668H68.5217C68.5217 29.0916 68.691 29.4987 68.992 29.7986L69.5567 29.232ZM70.1259 29.4668C69.9121 29.4668 69.7074 29.3821 69.5567 29.232L68.992 29.7986C69.293 30.0985 69.7009 30.2668 70.1259 30.2668V29.4668ZM42.7643 37.0158C42.3393 37.0158 41.9314 37.1841 41.6304 37.484L42.1951 38.0506C42.3458 37.9005 42.5506 37.8158 42.7643 37.8158V37.0158ZM66.5991 37.0158H42.7643V37.8158H66.5991V37.0158ZM67.733 37.484C67.432 37.1841 67.0242 37.0158 66.5991 37.0158V37.8158C66.8129 37.8158 67.0176 37.9005 67.1683 38.0506L67.733 37.484ZM68.2034 38.6158C68.2034 38.191 68.034 37.7839 67.733 37.484L67.1683 38.0506C67.319 38.2008 67.4034 38.4041 67.4034 38.6158H68.2034ZM67.733 39.7477C68.034 39.4478 68.2034 39.0406 68.2034 38.6158H67.4034C67.4034 38.8276 67.319 39.0309 67.1683 39.181L67.733 39.7477ZM66.5991 40.2158C67.0242 40.2158 67.432 40.0476 67.733 39.7477L67.1683 39.181C67.0176 39.3312 66.8129 39.4158 66.5991 39.4158V40.2158ZM42.7643 40.2158H66.5991V39.4158H42.7643V40.2158ZM41.6304 39.7477C41.9314 40.0476 42.3393 40.2158 42.7643 40.2158V39.4158C42.5506 39.4158 42.3459 39.3312 42.1951 39.181L41.6304 39.7477ZM41.1601 38.6158C41.1601 39.0406 41.3294 39.4478 41.6304 39.7477L42.1951 39.181C42.0445 39.0309 41.9601 38.8276 41.9601 38.6158H41.1601ZM41.6304 37.484C41.3294 37.7839 41.1601 38.191 41.1601 38.6158H41.9601C41.9601 38.4041 42.0445 38.2008 42.1951 38.0506L41.6304 37.484ZM70.6011 38.0506C70.7518 37.9005 70.9565 37.8158 71.1702 37.8158V37.0158C70.7452 37.0158 70.3373 37.1841 70.0364 37.484L70.6011 38.0506ZM70.366 38.6158C70.366 38.4041 70.4504 38.2008 70.6011 38.0506L70.0364 37.484C69.7354 37.7839 69.566 38.191 69.566 38.6158H70.366ZM70.6011 39.181C70.4504 39.0309 70.366 38.8276 70.366 38.6158H69.566C69.566 39.0406 69.7354 39.4478 70.0364 39.7477L70.6011 39.181ZM71.1702 39.4158C70.9565 39.4158 70.7518 39.3312 70.6011 39.181L70.0364 39.7477C70.3373 40.0476 70.7452 40.2158 71.1702 40.2158V39.4158ZM72.2079 39.4158H71.1702V40.2158H72.2079V39.4158ZM72.777 39.181C72.6263 39.3312 72.4216 39.4158 72.2079 39.4158V40.2158C72.6329 40.2158 73.0408 40.0476 73.3417 39.7477L72.777 39.181ZM73.0121 38.6158C73.0121 38.8276 72.9277 39.0309 72.777 39.181L73.3417 39.7477C73.6427 39.4478 73.8121 39.0406 73.8121 38.6158H73.0121ZM72.777 38.0506C72.9277 38.2008 73.0121 38.4041 73.0121 38.6158H73.8121C73.8121 38.191 73.6427 37.7839 73.3417 37.484L72.777 38.0506ZM72.2079 37.8158C72.4216 37.8158 72.6263 37.9005 72.777 38.0506L73.3417 37.484C73.0408 37.1841 72.6329 37.0158 72.2079 37.0158V37.8158ZM71.1702 37.8158H72.2079V37.0158H71.1702V37.8158ZM76.7191 37.8158H81.9107V37.0158H76.7191V37.8158ZM76.1499 38.0506C76.3006 37.9005 76.5053 37.8158 76.7191 37.8158V37.0158C76.2941 37.0158 75.8862 37.1841 75.5852 37.484L76.1499 38.0506ZM75.9149 38.6158C75.9149 38.4041 75.9992 38.2008 76.1499 38.0506L75.5852 37.484C75.2842 37.7839 75.1149 38.191 75.1149 38.6158H75.9149ZM76.1499 39.181C75.9992 39.0309 75.9149 38.8275 75.9149 38.6158H75.1149C75.1149 39.0406 75.2842 39.4478 75.5852 39.7477L76.1499 39.181ZM76.7191 39.4158C76.5053 39.4158 76.3006 39.3312 76.1499 39.181L75.5852 39.7477C75.8862 40.0476 76.2941 40.2158 76.7191 40.2158V39.4158ZM81.9107 39.4158H76.7191V40.2158H81.9107V39.4158ZM82.4799 39.181C82.3291 39.3312 82.1244 39.4158 81.9107 39.4158V40.2158C82.3357 40.2158 82.7436 40.0476 83.0446 39.7477L82.4799 39.181ZM82.7149 38.6158C82.7149 38.8276 82.6305 39.0309 82.4799 39.181L83.0446 39.7477C83.3456 39.4478 83.5149 39.0406 83.5149 38.6158H82.7149ZM82.4799 38.0506C82.6305 38.2008 82.7149 38.4041 82.7149 38.6158H83.5149C83.5149 38.191 83.3456 37.7839 83.0446 37.484L82.4799 38.0506ZM81.9107 37.8158C82.1244 37.8158 82.3291 37.9005 82.4799 38.0506L83.0446 37.484C82.7436 37.1841 82.3357 37.0158 81.9107 37.0158V37.8158ZM62.8301 47.7649H81.9107V46.9649H62.8301V47.7649ZM62.2609 47.9997C62.4117 47.8495 62.6164 47.7649 62.8301 47.7649V46.9649C62.4051 46.9649 61.9972 47.1331 61.6962 47.433L62.2609 47.9997ZM62.0259 48.5649C62.0259 48.3532 62.1103 48.1498 62.2609 47.9997L61.6962 47.433C61.3952 47.733 61.2259 48.1401 61.2259 48.5649H62.0259ZM62.2609 49.1301C62.1103 48.9799 62.0259 48.7766 62.0259 48.5649H61.2259C61.2259 48.9897 61.3952 49.3968 61.6962 49.6967L62.2609 49.1301ZM62.8301 49.3649C62.6164 49.3649 62.4117 49.2803 62.2609 49.1301L61.6962 49.6967C61.9972 49.9967 62.4051 50.1649 62.8301 50.1649V49.3649ZM81.9107 49.3649H62.8301V50.1649H81.9107V49.3649ZM82.4798 49.1301C82.3291 49.2803 82.1244 49.3649 81.9107 49.3649V50.1649C82.3357 50.1649 82.7436 49.9967 83.0445 49.6967L82.4798 49.1301ZM82.7149 48.5649C82.7149 48.7766 82.6305 48.9799 82.4798 49.1301L83.0445 49.6967C83.3455 49.3968 83.5149 48.9897 83.5149 48.5649H82.7149ZM82.4798 47.9997C82.6305 48.1498 82.7149 48.3532 82.7149 48.5649H83.5149C83.5149 48.1401 83.3455 47.733 83.0445 47.433L82.4798 47.9997ZM81.9107 47.7649C82.1244 47.7649 82.3291 47.8495 82.4798 47.9997L83.0445 47.433C82.7436 47.1331 82.3357 46.9649 81.9107 46.9649V47.7649ZM58.0393 46.9649C57.6143 46.9649 57.2064 47.1331 56.9054 47.433L57.4701 47.9997C57.6208 47.8495 57.8255 47.7649 58.0393 47.7649V46.9649ZM58.346 46.9649H58.0393V47.7649H58.346V46.9649ZM59.4798 47.433C59.1789 47.1331 58.771 46.9649 58.346 46.9649V47.7649C58.5597 47.7649 58.7644 47.8495 58.9151 47.9997L59.4798 47.433ZM59.9502 48.5649C59.9502 48.1401 59.7808 47.733 59.4798 47.433L58.9151 47.9997C59.0658 48.1498 59.1502 48.3532 59.1502 48.5649H59.9502ZM59.4798 49.6967C59.7808 49.3968 59.9502 48.9897 59.9502 48.5649H59.1502C59.1502 48.7766 59.0658 48.9799 58.9151 49.1301L59.4798 49.6967ZM58.346 50.1649C58.771 50.1649 59.1789 49.9967 59.4798 49.6967L58.9151 49.1301C58.7644 49.2803 58.5597 49.3649 58.346 49.3649V50.1649ZM58.0393 50.1649H58.346V49.3649H58.0393V50.1649ZM56.9054 49.6967C57.2064 49.9967 57.6143 50.1649 58.0393 50.1649V49.3649C57.8255 49.3649 57.6208 49.2803 57.4701 49.1301L56.9054 49.6967ZM56.4351 48.5649C56.4351 48.9897 56.6044 49.3968 56.9054 49.6967L57.4701 49.1301C57.3194 48.9799 57.2351 48.7766 57.2351 48.5649H56.4351ZM56.9054 47.433C56.6044 47.733 56.4351 48.1401 56.4351 48.5649H57.2351C57.2351 48.3532 57.3194 48.1498 57.4701 47.9997L56.9054 47.433ZM42.7643 47.7649H53.6495V46.9649H42.7643V47.7649ZM42.1951 47.9997C42.3458 47.8495 42.5506 47.7649 42.7643 47.7649V46.9649C42.3393 46.9649 41.9314 47.1331 41.6304 47.433L42.1951 47.9997ZM41.9601 48.5649C41.9601 48.3532 42.0445 48.1498 42.1951 47.9997L41.6304 47.433C41.3294 47.733 41.1601 48.1401 41.1601 48.5649H41.9601ZM42.1951 49.1301C42.0445 48.9799 41.9601 48.7766 41.9601 48.5649H41.1601C41.1601 48.9897 41.3294 49.3968 41.6304 49.6967L42.1951 49.1301ZM42.7643 49.3649C42.5506 49.3649 42.3458 49.2803 42.1951 49.1301L41.6304 49.6967C41.9314 49.9967 42.3393 50.1649 42.7643 50.1649V49.3649ZM53.6495 49.3649H42.7643V50.1649H53.6495V49.3649ZM54.2187 49.1301C54.068 49.2803 53.8632 49.3649 53.6495 49.3649V50.1649C54.0745 50.1649 54.4824 49.9967 54.7834 49.6967L54.2187 49.1301ZM54.4537 48.5649C54.4537 48.7766 54.3693 48.9799 54.2187 49.1301L54.7834 49.6967C55.0844 49.3968 55.2537 48.9897 55.2537 48.5649H54.4537ZM54.2187 47.9997C54.3693 48.1498 54.4537 48.3532 54.4537 48.5649H55.2537C55.2537 48.1401 55.0844 47.733 54.7834 47.433L54.2187 47.9997ZM53.6495 47.7649C53.8632 47.7649 54.068 47.8495 54.2187 47.9997L54.7834 47.433C54.4824 47.1331 54.0745 46.9649 53.6495 46.9649V47.7649ZM81.9106 56.914H80.1942V57.714H81.9106V56.914ZM81.9116 56.914H81.9106V57.714H81.9116V56.914ZM83.0455 57.3822C82.7445 57.0823 82.3367 56.914 81.9116 56.914V57.714C82.1254 57.714 82.3301 57.7987 82.4808 57.9489L83.0455 57.3822ZM83.5159 58.514C83.5159 58.0892 83.3465 57.6821 83.0455 57.3822L82.4808 57.9489C82.6315 58.099 82.7159 58.3023 82.7159 58.514H83.5159ZM83.0455 59.6459C83.3465 59.346 83.5159 58.9389 83.5159 58.514H82.7159C82.7159 58.7258 82.6315 58.9291 82.4808 59.0792L83.0455 59.6459ZM81.9116 60.114C82.3367 60.114 82.7445 59.9458 83.0455 59.6459L82.4808 59.0792C82.3301 59.2294 82.1254 59.314 81.9116 59.314V60.114ZM80.1942 60.114H81.9116V59.314H80.1942V60.114ZM79.0604 59.6459C79.3613 59.9458 79.7692 60.114 80.1942 60.114V59.314C79.9805 59.314 79.7758 59.2294 79.625 59.0792L79.0604 59.6459ZM78.59 58.514C78.59 58.9389 78.7594 59.346 79.0604 59.6459L79.625 59.0792C79.4744 58.9291 79.39 58.7258 79.39 58.514H78.59ZM79.0604 57.3822C78.7594 57.6821 78.59 58.0892 78.59 58.514H79.39C79.39 58.3023 79.4744 58.099 79.625 57.9489L79.0604 57.3822ZM80.1942 56.914C79.7692 56.914 79.3613 57.0823 79.0604 57.3822L79.625 57.9489C79.7758 57.7987 79.9805 57.714 80.1942 57.714V56.914ZM56.3046 57.714H75.7073V56.914H56.3046V57.714ZM55.7354 57.9489C55.8861 57.7987 56.0908 57.714 56.3046 57.714V56.914C55.8796 56.914 55.4717 57.0823 55.1707 57.3822L55.7354 57.9489ZM55.5004 58.514C55.5004 58.3023 55.5847 58.099 55.7354 57.9489L55.1707 57.3822C54.8697 57.6821 54.7004 58.0892 54.7004 58.514H55.5004ZM55.7354 59.0792C55.5847 58.9291 55.5004 58.7258 55.5004 58.514H54.7004C54.7004 58.9389 54.8697 59.346 55.1707 59.6459L55.7354 59.0792ZM56.3046 59.314C56.0908 59.314 55.8861 59.2294 55.7354 59.0792L55.1707 59.6459C55.4717 59.9458 55.8796 60.114 56.3046 60.114V59.314ZM75.7073 59.314H56.3046V60.114H75.7073V59.314ZM76.2764 59.0792C76.1257 59.2294 75.921 59.314 75.7073 59.314V60.114C76.1323 60.114 76.5402 59.9458 76.8411 59.6459L76.2764 59.0792ZM76.5115 58.514C76.5115 58.7258 76.4271 58.9291 76.2764 59.0792L76.8411 59.6459C77.1421 59.346 77.3115 58.9389 77.3115 58.514H76.5115ZM76.2764 57.9489C76.4271 58.099 76.5115 58.3023 76.5115 58.514H77.3115C77.3115 58.0892 77.1421 57.6821 76.8411 57.3822L76.2764 57.9489ZM75.7073 57.714C75.921 57.714 76.1257 57.7987 76.2764 57.9489L76.8411 57.3822C76.5402 57.0823 76.1323 56.914 75.7073 56.914V57.714ZM42.7643 60.114H51.7581V59.314H42.7643V60.114ZM41.6304 59.6459C41.9314 59.9458 42.3393 60.114 42.7643 60.114V59.314C42.5506 59.314 42.3459 59.2294 42.1951 59.0792L41.6304 59.6459ZM41.1601 58.514C41.1601 58.9389 41.3294 59.346 41.6304 59.6459L42.1951 59.0792C42.0445 58.9291 41.9601 58.7258 41.9601 58.514H41.1601ZM41.6304 57.3822C41.3294 57.6821 41.1601 58.0892 41.1601 58.514H41.9601C41.9601 58.3023 42.0445 58.099 42.1951 57.9489L41.6304 57.3822ZM42.7643 56.914C42.3393 56.914 41.9314 57.0823 41.6304 57.3822L42.1951 57.9489C42.3458 57.7987 42.5506 57.714 42.7643 57.714V56.914ZM51.7581 56.914H42.7643V57.714H51.7581V56.914ZM52.8919 57.3822C52.591 57.0823 52.1831 56.914 51.7581 56.914V57.714C51.9718 57.714 52.1765 57.7987 52.3272 57.9489L52.8919 57.3822ZM53.3623 58.514C53.3623 58.0892 53.1929 57.6821 52.8919 57.3822L52.3272 57.9489C52.4779 58.099 52.5623 58.3023 52.5623 58.514H53.3623ZM52.8919 59.6459C53.1929 59.346 53.3623 58.9389 53.3623 58.514H52.5623C52.5623 58.7258 52.4779 58.9291 52.3272 59.0792L52.8919 59.6459ZM51.7581 60.114C52.1831 60.114 52.591 59.9458 52.8919 59.6459L52.3272 59.0792C52.1765 59.2294 51.9718 59.314 51.7581 59.314V60.114ZM67.6585 67.6631H71.852V66.8631H67.6585V67.6631ZM67.0893 67.8979C67.24 67.7477 67.4447 67.6631 67.6585 67.6631V66.8631C67.2334 66.8631 66.8255 67.0313 66.5246 67.3312L67.0893 67.8979ZM66.8542 68.4631C66.8542 68.2514 66.9386 68.048 67.0893 67.8979L66.5246 67.3312C66.2236 67.6312 66.0542 68.0383 66.0542 68.4631H66.8542ZM67.0893 69.0283C66.9386 68.8781 66.8542 68.6748 66.8542 68.4631H66.0542C66.0542 68.8879 66.2236 69.295 66.5246 69.595L67.0893 69.0283ZM67.6585 69.2631C67.4447 69.2631 67.24 69.1785 67.0893 69.0283L66.5246 69.595C66.8255 69.8949 67.2334 70.0631 67.6585 70.0631V69.2631ZM71.852 69.2631H67.6585V70.0631H71.852V69.2631ZM72.4211 69.0283C72.2704 69.1785 72.0657 69.2631 71.852 69.2631V70.0631C72.277 70.0631 72.6849 69.8949 72.9858 69.595L72.4211 69.0283ZM72.6562 68.4631C72.6562 68.6748 72.5718 68.8781 72.4211 69.0283L72.9858 69.595C73.2868 69.295 73.4562 68.8879 73.4562 68.4631H72.6562ZM72.4211 67.8979C72.5718 68.048 72.6562 68.2514 72.6562 68.4631H73.4562C73.4562 68.0383 73.2868 67.6312 72.9858 67.3312L72.4211 67.8979ZM71.852 67.6631C72.0657 67.6631 72.2704 67.7477 72.4211 67.8979L72.9858 67.3312C72.6849 67.0313 72.277 66.8631 71.852 66.8631V67.6631ZM64.8302 68.4631C64.8302 68.0383 64.6608 67.6312 64.3598 67.3312L63.7951 67.8979C63.9458 68.0481 64.0302 68.2514 64.0302 68.4631H64.8302ZM64.3598 69.595C64.6608 69.295 64.8302 68.8879 64.8302 68.4631H64.0302C64.0302 68.6748 63.9458 68.8781 63.7951 69.0283L64.3598 69.595ZM63.226 70.0631C63.651 70.0631 64.0589 69.8949 64.3598 69.595L63.7952 69.0283C63.6444 69.1785 63.4397 69.2631 63.226 69.2631V70.0631ZM52.7846 70.0631H63.226V69.2631H52.7846V70.0631ZM51.6507 69.595C51.9516 69.8949 52.3595 70.0631 52.7846 70.0631V69.2631C52.5708 69.2631 52.3661 69.1785 52.2154 69.0283L51.6507 69.595ZM51.1803 68.4631C51.1803 68.8879 51.3497 69.295 51.6507 69.595L52.2154 69.0283C52.0647 68.8781 51.9803 68.6748 51.9803 68.4631H51.1803ZM51.6507 67.3312C51.3497 67.6312 51.1803 68.0383 51.1803 68.4631H51.9803C51.9803 68.2514 52.0647 68.048 52.2154 67.8979L51.6507 67.3312ZM52.7846 66.8631C52.3595 66.8631 51.9516 67.0313 51.6507 67.3312L52.2154 67.8979C52.3661 67.7477 52.5708 67.6631 52.7846 67.6631V66.8631ZM63.226 66.8631H52.7846V67.6631H63.226V66.8631ZM64.3598 67.3312C64.0589 67.0313 63.651 66.8631 63.226 66.8631V67.6631C63.4397 67.6631 63.6444 67.7477 63.7952 67.8979L64.3598 67.3312ZM48.371 69.2631H42.7643V70.0631H48.371V69.2631ZM48.9401 69.0283C48.7894 69.1785 48.5847 69.2631 48.371 69.2631V70.0631C48.796 70.0631 49.2039 69.8949 49.5048 69.595L48.9401 69.0283ZM49.1752 68.4631C49.1752 68.6748 49.0908 68.8781 48.9401 69.0283L49.5048 69.595C49.8058 69.295 49.9752 68.8879 49.9752 68.4631H49.1752ZM48.9401 67.8979C49.0908 68.048 49.1752 68.2514 49.1752 68.4631H49.9752C49.9752 68.0383 49.8058 67.6312 49.5048 67.3312L48.9401 67.8979ZM48.371 67.6631C48.5847 67.6631 48.7894 67.7477 48.9401 67.8979L49.5048 67.3312C49.2039 67.0313 48.796 66.8631 48.371 66.8631V67.6631ZM42.7643 67.6631H48.371V66.8631H42.7643V67.6631ZM42.1951 67.8979C42.3458 67.7477 42.5506 67.6631 42.7643 67.6631V66.8631C42.3393 66.8631 41.9314 67.0313 41.6304 67.3312L42.1951 67.8979ZM41.9601 68.4631C41.9601 68.2514 42.0445 68.048 42.1951 67.8979L41.6304 67.3312C41.3294 67.6312 41.1601 68.0383 41.1601 68.4631H41.9601ZM42.1951 69.0283C42.0445 68.8781 41.9601 68.6748 41.9601 68.4631H41.1601C41.1601 68.8879 41.3294 69.295 41.6304 69.595L42.1951 69.0283ZM42.7643 69.2631C42.5506 69.2631 42.3459 69.1785 42.1951 69.0283L41.6304 69.595C41.9314 69.8949 42.3393 70.0631 42.7643 70.0631V69.2631ZM70.7356 76.812H65.1302V77.612H70.7356V76.812ZM71.8695 77.2802C71.5685 76.9803 71.1607 76.812 70.7356 76.812V77.612C70.9494 77.612 71.1541 77.6967 71.3048 77.8469L71.8695 77.2802ZM72.3399 78.412C72.3399 77.9872 72.1705 77.5801 71.8695 77.2802L71.3048 77.8469C71.4555 77.997 71.5399 78.2003 71.5399 78.412H72.3399ZM71.8695 79.5439C72.1705 79.244 72.3399 78.8368 72.3399 78.412H71.5399C71.5399 78.6238 71.4555 78.8271 71.3048 78.9772L71.8695 79.5439ZM70.7356 80.012C71.1607 80.012 71.5685 79.8438 71.8695 79.5439L71.3048 78.9772C71.1541 79.1274 70.9494 79.212 70.7356 79.212V80.012ZM65.1302 80.012H70.7356V79.212H65.1302V80.012ZM63.9963 79.5439C64.2973 79.8438 64.7052 80.012 65.1302 80.012V79.212C64.9164 79.212 64.7117 79.1274 64.561 78.9772L63.9963 79.5439ZM63.5259 78.412C63.5259 78.8368 63.6953 79.244 63.9963 79.5439L64.561 78.9772C64.4103 78.8271 64.3259 78.6238 64.3259 78.412H63.5259ZM63.9963 77.2802C63.6953 77.5801 63.5259 77.9872 63.5259 78.412H64.3259C64.3259 78.2003 64.4103 77.997 64.561 77.8469L63.9963 77.2802ZM65.1302 76.812C64.7052 76.812 64.2973 76.9803 63.9963 77.2802L64.561 77.8469C64.7117 77.6967 64.9164 77.612 65.1302 77.612V76.812ZM60.7058 79.212H48.3916V80.012H60.7058V79.212ZM61.275 78.9772C61.1243 79.1274 60.9196 79.212 60.7058 79.212V80.012C61.1308 80.012 61.5387 79.8438 61.8397 79.5439L61.275 78.9772ZM61.5101 78.412C61.5101 78.6238 61.4257 78.8271 61.275 78.9772L61.8397 79.5439C62.1407 79.244 62.3101 78.8368 62.3101 78.412H61.5101ZM61.275 77.8469C61.4257 77.997 61.5101 78.2003 61.5101 78.412H62.3101C62.3101 77.9872 62.1407 77.5801 61.8397 77.2802L61.275 77.8469ZM60.7058 77.612C60.9196 77.612 61.1243 77.6967 61.275 77.8469L61.8397 77.2802C61.5387 76.9803 61.1308 76.812 60.7058 76.812V77.612ZM48.3916 77.612H60.7058V76.812H48.3916V77.612ZM47.8224 77.8469C47.9732 77.6967 48.1779 77.612 48.3916 77.612V76.812C47.9666 76.812 47.5587 76.9803 47.2578 77.2802L47.8224 77.8469ZM47.5874 78.412C47.5874 78.2003 47.6718 77.997 47.8224 77.8469L47.2578 77.2802C46.9567 77.5801 46.7874 77.9872 46.7874 78.412H47.5874ZM47.8224 78.9772C47.6718 78.8271 47.5874 78.6238 47.5874 78.412H46.7874C46.7874 78.8368 46.9567 79.244 47.2578 79.5439L47.8224 78.9772ZM48.3916 79.212C48.1779 79.212 47.9732 79.1274 47.8224 78.9772L47.2578 79.5439C47.5587 79.8438 47.9666 80.012 48.3916 80.012V79.212ZM43.9671 76.812H42.7651V77.612H43.9671V76.812ZM45.101 77.2802C44.8 76.9803 44.3921 76.812 43.9671 76.812V77.612C44.1808 77.612 44.3856 77.6967 44.5363 77.8469L45.101 77.2802ZM45.5713 78.412C45.5713 77.9872 45.402 77.5801 45.101 77.2802L44.5363 77.8469C44.6869 77.997 44.7713 78.2003 44.7713 78.412H45.5713ZM45.101 79.5439C45.402 79.244 45.5713 78.8368 45.5713 78.412H44.7713C44.7713 78.6238 44.6869 78.8271 44.5363 78.9772L45.101 79.5439ZM43.9671 80.012C44.3921 80.012 44.8 79.8438 45.101 79.5439L44.5363 78.9772C44.3856 79.1274 44.1808 79.212 43.9671 79.212V80.012ZM42.7651 80.012H43.9671V79.212H42.7651V80.012ZM41.6312 79.5439C41.9322 79.8438 42.3401 80.012 42.7651 80.012V79.212C42.5513 79.212 42.3466 79.1274 42.1959 78.9772L41.6312 79.5439ZM41.1609 78.412C41.1609 78.8368 41.3302 79.244 41.6312 79.5439L42.1959 78.9772C42.0452 78.8271 41.9609 78.6238 41.9609 78.412H41.1609ZM41.6312 77.2802C41.3302 77.5801 41.1609 77.9872 41.1609 78.412H41.9609C41.9609 78.2003 42.0452 77.997 42.1959 77.8469L41.6312 77.2802ZM42.7651 76.812C42.3401 76.812 41.9322 76.9803 41.6312 77.2802L42.1959 77.8469C42.3466 77.6967 42.5513 77.612 42.7651 77.612V76.812ZM50.0308 30.2668H65.7435V29.4668H50.0308V30.2668ZM50.0304 30.2668H50.0308V29.4668H50.0304V30.2668ZM48.8965 29.7986C49.1975 30.0985 49.6054 30.2668 50.0304 30.2668V29.4668C49.8166 29.4668 49.6119 29.3821 49.4612 29.232L48.8965 29.7986ZM48.4261 28.6668C48.4261 29.0916 48.5955 29.4987 48.8965 29.7986L49.4612 29.232C49.3105 29.0818 49.2261 28.8785 49.2261 28.6668H48.4261ZM48.8965 27.5349C48.5955 27.8349 48.4261 28.242 48.4261 28.6668H49.2261C49.2261 28.4551 49.3105 28.2517 49.4612 28.1016L48.8965 27.5349ZM50.0304 27.0668C49.6054 27.0668 49.1975 27.235 48.8965 27.5349L49.4612 28.1016C49.6119 27.9514 49.8166 27.8668 50.0304 27.8668V27.0668ZM65.7435 27.0668H50.0304V27.8668H65.7435V27.0668ZM66.8774 27.5349C66.5764 27.235 66.1685 27.0668 65.7435 27.0668V27.8668C65.9573 27.8668 66.162 27.9514 66.3127 28.1016L66.8774 27.5349ZM67.3477 28.6668C67.3477 28.242 67.1784 27.8349 66.8774 27.5349L66.3127 28.1016C66.4634 28.2517 66.5477 28.4551 66.5477 28.6668H67.3477ZM66.8774 29.7986C67.1784 29.4987 67.3477 29.0916 67.3477 28.6668H66.5477C66.5477 28.8785 66.4634 29.0818 66.3127 29.232L66.8774 29.7986ZM65.7435 30.2668C66.1685 30.2668 66.5764 30.0985 66.8774 29.7986L66.3127 29.232C66.162 29.3821 65.9573 29.4668 65.7435 29.4668V30.2668ZM70.7357 86.7612H57.5862V87.5612H70.7357V86.7612ZM71.8696 87.2293C71.5686 86.9294 71.1607 86.7612 70.7357 86.7612V87.5612C70.9494 87.5612 71.1542 87.6458 71.3049 87.796L71.8696 87.2293ZM72.3399 88.3612C72.3399 87.9364 72.1706 87.5293 71.8696 87.2293L71.3049 87.796C71.4555 87.9462 71.5399 88.1495 71.5399 88.3612H72.3399ZM71.8696 89.4931C72.1706 89.1931 72.3399 88.786 72.3399 88.3612H71.5399C71.5399 88.5729 71.4555 88.7762 71.3049 88.9264L71.8696 89.4931ZM70.7357 89.9612C71.1607 89.9612 71.5686 89.793 71.8696 89.4931L71.3049 88.9264C71.1542 89.0766 70.9494 89.1612 70.7357 89.1612V89.9612ZM57.5862 89.9612H70.7357V89.1612H57.5862V89.9612ZM56.4523 89.4931C56.7532 89.793 57.1611 89.9612 57.5862 89.9612V89.1612C57.3724 89.1612 57.1677 89.0766 57.017 88.9264L56.4523 89.4931ZM55.9819 88.3612C55.9819 88.786 56.1513 89.1931 56.4523 89.4931L57.017 88.9264C56.8663 88.7762 56.7819 88.5729 56.7819 88.3612H55.9819ZM56.4523 87.2293C56.1513 87.5293 55.9819 87.9364 55.9819 88.3612H56.7819C56.7819 88.1495 56.8663 87.9462 57.017 87.796L56.4523 87.2293ZM57.5862 86.7612C57.1611 86.7612 56.7533 86.9294 56.4523 87.2293L57.017 87.796C57.1677 87.6458 57.3724 87.5612 57.5862 87.5612V86.7612ZM48.1867 87.5612H53.041V86.7612H48.1867V87.5612ZM47.6176 87.796C47.7683 87.6458 47.973 87.5612 48.1867 87.5612V86.7612C47.7617 86.7612 47.3538 86.9294 47.0529 87.2293L47.6176 87.796ZM47.3825 88.3612C47.3825 88.1495 47.4669 87.9462 47.6176 87.796L47.0529 87.2293C46.7519 87.5293 46.5825 87.9364 46.5825 88.3612H47.3825ZM47.6176 88.9264C47.4669 88.7762 47.3825 88.5729 47.3825 88.3612H46.5825C46.5825 88.786 46.7519 89.1931 47.0529 89.4931L47.6176 88.9264ZM48.1867 89.1612C47.973 89.1612 47.7683 89.0766 47.6176 88.9264L47.0529 89.4931C47.3538 89.793 47.7617 89.9612 48.1867 89.9612V89.1612ZM53.041 89.1612H48.1867V89.9612H53.041V89.1612ZM53.3492 89.1001C53.2515 89.1404 53.1468 89.1612 53.041 89.1612V89.9612C53.2514 89.9612 53.4599 89.9199 53.6544 89.8396L53.3492 89.1001ZM53.6101 88.9264C53.5355 89.0007 53.4469 89.0598 53.3492 89.1001L53.6544 89.8396C53.849 89.7593 54.0258 89.6416 54.1748 89.4931L53.6101 88.9264ZM53.7842 88.6669C53.7439 88.7638 53.6847 88.852 53.6101 88.9264L54.1748 89.4931C54.3239 89.3446 54.4421 89.1682 54.5229 88.974L53.7842 88.6669ZM53.8452 88.3612C53.8452 88.4661 53.8245 88.5699 53.7842 88.6669L54.5229 88.9739C54.6036 88.7797 54.6452 88.5715 54.6452 88.3612H53.8452ZM53.7842 88.0555C53.8245 88.1525 53.8452 88.2563 53.8452 88.3612H54.6452C54.6452 88.1509 54.6036 87.9427 54.5229 87.7485L53.7842 88.0555ZM53.6101 87.796C53.6847 87.8704 53.7439 87.9586 53.7842 88.0555L54.5229 87.7484C54.4421 87.5542 54.3239 87.3778 54.1748 87.2293L53.6101 87.796ZM53.3492 87.6223C53.4468 87.6626 53.5355 87.7217 53.6101 87.796L54.1748 87.2293C54.0258 87.0808 53.849 86.9631 53.6544 86.8828L53.3492 87.6223ZM53.041 87.5612C53.1468 87.5612 53.2515 87.582 53.3492 87.6223L53.6544 86.8828C53.4599 86.8025 53.2514 86.7612 53.041 86.7612V87.5612ZM43.5683 86.7612H42.7643V87.5612H43.5683V86.7612ZM44.7022 87.2293C44.4012 86.9294 43.9933 86.7612 43.5683 86.7612V87.5612C43.7821 87.5612 43.9868 87.6458 44.1375 87.796L44.7022 87.2293ZM45.1726 88.3612C45.1726 87.9364 45.0032 87.5293 44.7022 87.2293L44.1375 87.796C44.2882 87.9462 44.3726 88.1495 44.3726 88.3612H45.1726ZM44.7022 89.4931C45.0032 89.1931 45.1726 88.786 45.1726 88.3612H44.3726C44.3726 88.5729 44.2882 88.7762 44.1375 88.9264L44.7022 89.4931ZM43.5683 89.9612C43.9933 89.9612 44.4012 89.793 44.7022 89.4931L44.1375 88.9264C43.9868 89.0766 43.7821 89.1612 43.5683 89.1612V89.9612ZM42.7643 89.9612H43.5683V89.1612H42.7643V89.9612ZM42.1508 89.8396C42.3454 89.9199 42.5538 89.9612 42.7643 89.9612V89.1612C42.6585 89.1612 42.5538 89.1404 42.4561 89.1001L42.1508 89.8396ZM41.6304 89.4931C41.7795 89.6416 41.9563 89.7593 42.1509 89.8396L42.4561 89.1001C42.3584 89.0598 42.2698 89.0007 42.1951 88.9264L41.6304 89.4931ZM41.2824 88.974C41.3631 89.1682 41.4814 89.3446 41.6304 89.4931L42.1951 88.9264C42.1205 88.852 42.0614 88.7638 42.0211 88.6669L41.2824 88.974ZM41.1601 88.3612C41.1601 88.5715 41.2016 88.7797 41.2824 88.974L42.0211 88.6669C41.9808 88.5699 41.9601 88.4661 41.9601 88.3612H41.1601ZM41.2824 87.7485C41.2016 87.9427 41.1601 88.1509 41.1601 88.3612H41.9601C41.9601 88.2563 41.9808 88.1525 42.0211 88.0555L41.2824 87.7485ZM41.6304 87.2293C41.4814 87.3778 41.3631 87.5542 41.2824 87.7485L42.0211 88.0555C42.0614 87.9586 42.1205 87.8704 42.1951 87.796L41.6304 87.2293ZM42.1509 86.8828C41.9563 86.9631 41.7795 87.0808 41.6304 87.2293L42.1951 87.796C42.2698 87.7217 42.3584 87.6626 42.4561 87.6223L42.1509 86.8828ZM42.7643 86.7612C42.5538 86.7612 42.3454 86.8025 42.1509 86.8828L42.4561 87.6223C42.5538 87.582 42.6585 87.5612 42.7643 87.5612V86.7612ZM38.0463 27.1878C37.6213 27.1878 37.2134 27.356 36.9125 27.6559L37.4772 28.2226C37.6279 28.0724 37.8326 27.9878 38.0463 27.9878V27.1878ZM39.1802 27.6559C38.8792 27.356 38.4713 27.1878 38.0463 27.1878V27.9878C38.2601 27.9878 38.4648 28.0724 38.6155 28.2226L39.1802 27.6559ZM39.6505 28.7878C39.6505 28.363 39.4812 27.9559 39.1802 27.6559L38.6155 28.2226C38.7662 28.3728 38.8505 28.5761 38.8505 28.7878H39.6505ZM39.6505 48.5878V28.7878H38.8505V48.5878H39.6505ZM39.1802 49.7197C39.4812 49.4197 39.6505 49.0126 39.6505 48.5878H38.8505C38.8505 48.7995 38.7662 49.0029 38.6155 49.153L39.1802 49.7197ZM38.0463 50.1878C38.4713 50.1878 38.8792 50.0196 39.1802 49.7197L38.6155 49.153C38.4648 49.3032 38.2601 49.3878 38.0463 49.3878V50.1878ZM36.9125 49.7197C37.2134 50.0196 37.6213 50.1878 38.0463 50.1878V49.3878C37.8326 49.3878 37.6279 49.3032 37.4772 49.153L36.9125 49.7197ZM36.4421 48.5878C36.4421 49.0126 36.6115 49.4197 36.9125 49.7197L37.4772 49.153C37.3265 49.0029 37.2421 48.7995 37.2421 48.5878H36.4421ZM36.4421 28.7878V48.5878H37.2421V28.7878H36.4421ZM36.9125 27.6559C36.6115 27.9559 36.4421 28.363 36.4421 28.7878H37.2421C37.2421 28.5761 37.3265 28.3728 37.4772 28.2226L36.9125 27.6559ZM90.2065 83.7368L100.064 73.914L99.4992 73.3473L89.6418 83.1702L90.2065 83.7368ZM86.2742 80.3819L89.6418 83.7369L90.2065 83.1701L86.8389 79.8151L86.2742 80.3819ZM85.713 80.1617C85.9243 80.1598 86.1276 80.2408 86.2792 80.3867L86.8339 79.8103C86.5313 79.519 86.1262 79.3581 85.706 79.3617L85.713 80.1617ZM85.1508 80.3964C85.2998 80.248 85.5016 80.1635 85.713 80.1617L85.706 79.3617C85.2859 79.3653 84.8836 79.5333 84.5861 79.8298L85.1508 80.3964ZM84.9158 80.9547C84.9176 80.7454 85.0018 80.5449 85.1508 80.3964L84.5861 79.8298C84.2885 80.1263 84.1195 80.5278 84.1158 80.9477L84.9158 80.9547ZM85.141 81.5169C84.9947 81.3659 84.9139 81.164 84.9158 80.9547L84.1158 80.9477C84.1121 81.3677 84.2742 81.772 84.5665 82.0737L85.141 81.5169ZM89.3545 85.7158L85.1361 81.5119L84.5714 82.0786L88.7898 86.2824L89.3545 85.7158ZM89.9237 85.9505C89.7099 85.9505 89.5052 85.8659 89.3545 85.7157L88.7898 86.2824C89.0908 86.5823 89.4987 86.7505 89.9237 86.7505V85.9505ZM90.4928 85.7157C90.3421 85.8659 90.1374 85.9505 89.9237 85.9505V86.7505C90.3487 86.7505 90.7565 86.5823 91.0575 86.2824L90.4928 85.7157ZM101.202 75.0441L90.4928 85.7158L91.0575 86.2824L101.766 75.6108L101.202 75.0441ZM101.43 74.4826C101.431 74.6932 101.348 74.8959 101.199 75.0465L101.769 75.6085C102.066 75.3077 102.232 74.9018 102.23 74.4793L101.43 74.4826ZM101.195 73.9207C101.345 74.0701 101.429 74.272 101.43 74.4826L102.23 74.4793C102.228 74.0567 102.059 73.6523 101.759 73.354L101.195 73.9207ZM100.629 73.686C100.841 73.6868 101.045 73.7714 101.195 73.9207L101.759 73.354C101.46 73.0557 101.055 72.8877 100.632 72.886L100.629 73.686ZM100.061 73.9163C100.212 73.7681 100.416 73.6852 100.629 73.686L100.632 72.886C100.209 72.8843 99.8026 73.0492 99.5009 73.3451L100.061 73.9163ZM99.7816 73.2307H99.781V74.0307H99.7816V73.2307Z" fill="#FEFEFE" mask="url(#path-1-inside-1_2169_56491)"/>
</svg>
