<svg width="128" height="128" viewBox="0 0 128 128" fill="none" xmlns="http://www.w3.org/2000/svg">
<path d="M88.8954 37.094L88.9537 37.2302L89.1012 37.2445C93.0793 37.6284 96.201 40.9927 96.201 45.0704C96.201 49.4065 92.6743 52.9331 88.3383 52.9331H68.0566C62.9755 52.9331 58.8418 48.7994 58.8418 43.7183C58.8418 39.5686 61.5717 36.0085 65.4705 34.8804L65.6327 34.8335L65.6498 34.6656C66.1223 30.0242 70.0535 26.3909 74.8172 26.3909C78.9761 26.3909 82.5402 29.1299 83.6617 33.0407L83.7062 33.1958L83.8659 33.2191C86.0983 33.5445 88.006 35.0157 88.8954 37.094ZM82.8168 35.3679L82.8168 35.3678H82.8095C82.2721 35.3678 81.8122 34.9791 81.7229 34.4461C81.1578 31.0563 78.2534 28.5951 74.8172 28.5951C70.9513 28.5951 67.8066 31.7398 67.8066 35.6057C67.8066 36.1724 67.3976 36.7288 66.8917 36.814C63.5045 37.3804 61.046 40.2849 61.046 43.7183C61.046 47.5842 64.1907 50.7289 68.0566 50.7289H88.3383C91.4591 50.7289 93.9967 48.1913 93.9967 45.0704C93.9967 41.9694 91.4889 39.4417 88.3934 39.412L88.3769 39.4118L88.3605 39.4139C88.3178 39.4191 88.2734 39.4241 88.2351 39.4275C88.2159 39.4292 88.1995 39.4303 88.1865 39.4309C88.1722 39.4315 88.1667 39.4313 88.1673 39.4313L88.1602 39.4309H88.153C87.6504 39.4309 87.2096 39.0903 87.0851 38.6011L87.0851 38.601C86.6031 36.7118 84.9268 35.3843 82.9915 35.357L82.977 35.3568L82.9626 35.3583C82.8949 35.3652 82.8442 35.3687 82.8168 35.3679Z" fill="#444444" stroke="#D4D4D4" stroke-width="0.5"/>
<path d="M36.1715 54.6694L36.3078 54.6494L36.3637 54.5234C37.3188 52.3699 39.5221 50.8271 42.1157 50.7335V52.8113C39.9532 52.9305 38.1981 54.5854 38.0672 56.6676H36.9573C35.4263 56.6676 34.1474 57.7921 34.0144 59.2431H31.8055C31.9298 56.9205 33.7763 55.0206 36.1715 54.6694Z" fill="#444444" stroke="#D4D4D4" stroke-width="0.5"/>
<path d="M72.3633 39.2377V37.2116C76.0192 37.3239 78.9211 39.8905 79.0687 43.0176H76.6814C76.5393 40.9564 74.6507 39.3476 72.3633 39.2377Z" fill="#444444" stroke="#D4D4D4" stroke-width="0.5"/>
<path d="M48.0254 29.0952H50.2296V31.2994H48.0254V29.0952Z" fill="#444444" stroke="#D4D4D4" stroke-width="0.5"/>
<path d="M53.4336 29.0952H55.6378V31.2994H53.4336V29.0952Z" fill="#444444" stroke="#D4D4D4" stroke-width="0.5"/>
<path d="M37.207 20.9824H39.4113V23.1866H37.207V20.9824Z" fill="#444444" stroke="#D4D4D4" stroke-width="0.5"/>
<path d="M42.6172 20.9824H44.8214V23.1866H42.6172V20.9824Z" fill="#444444" stroke="#D4D4D4" stroke-width="0.5"/>
<path d="M48.0254 20.9824H50.2296V23.1866H48.0254V20.9824Z" fill="#444444" stroke="#D4D4D4" stroke-width="0.5"/>
<path d="M23.6875 34.5037H25.8917V36.7079H23.6875V34.5037Z" fill="#444444" stroke="#D4D4D4" stroke-width="0.5"/>
<path d="M89.3286 25.5935L92.2183 28.4899L92.3952 28.6673L92.5722 28.4899L95.4619 25.5935L96.9998 27.135L93.1638 30.98C92.9516 31.1927 92.6737 31.2994 92.3952 31.2994C92.1168 31.2994 91.8389 31.1927 91.6267 30.98L87.7906 27.135L89.3286 25.5935Z" fill="#444444" stroke="#D4D4D4" stroke-width="0.5"/>
<path d="M101.69 37.5116L101.86 37.667L102.029 37.5116L105.205 34.5932L106.899 36.1492L102.722 39.9867C102.487 40.2022 102.176 40.3135 101.86 40.3135C101.543 40.3135 101.232 40.2022 100.997 39.9867L96.8207 36.1492L98.5142 34.5932L101.69 37.5116Z" fill="#444444" stroke="#D4D4D4" stroke-width="0.5"/>
<path d="M20.9824 26.3909H23.1866V28.5951H20.9824V26.3909Z" fill="#444444" stroke="#D4D4D4" stroke-width="0.5"/>
<path d="M26.3906 26.3909H28.5949V28.5951H26.3906V26.3909Z" fill="#444444" stroke="#D4D4D4" stroke-width="0.5"/>
<path d="M31.7988 26.3909H34.0031V28.5951H31.7988V26.3909Z" fill="#444444" stroke="#D4D4D4" stroke-width="0.5"/>
<mask id="path-15-inside-1_2169_54818" fill="white">
<path d="M107.268 69.4085V66.7042C104.221 66.7042 101.675 66.304 99.2523 65.4441C97.1565 64.7004 94.9905 64.3326 92.9379 64.0541C92.0456 61.8191 90.4487 59.9437 88.3381 59.9437C86.2558 59.9437 84.6752 61.7677 83.7747 63.9622C80.7148 63.7012 77.4495 63.8783 73.5432 64.5557C70.2481 65.125 66.9693 66.3108 63.7999 68.078C62.4059 68.8555 61.0632 69.7262 59.7639 70.5699C58.0656 71.6733 56.462 72.7117 54.7354 73.573C52.4097 74.7331 50.2044 75.324 48.1817 75.3456C46.2387 75.3862 44.339 74.629 42.3676 73.8583V69.3922C42.876 69.0082 43.337 68.5634 43.7197 68.0537C44.9528 69.6951 46.9174 70.7606 49.1268 70.7606C52.8546 70.7606 55.8874 67.7278 55.8874 64C55.8874 62.0908 55.0977 60.325 53.7213 59.0621C54.2527 58.0832 54.5352 56.992 54.5352 55.8873C54.5352 52.622 51.831 49.8907 49.1268 49.262C49.1268 49.2174 49.1268 49.1714 49.1268 49.1268C49.1268 46.3969 47.484 43.9766 45.0245 42.9287C44.6324 39.5714 41.7713 36.9578 38.3099 36.9578C34.8485 36.9578 31.9874 39.5714 31.5953 42.9287C29.1358 43.9766 27.493 46.3969 27.493 49.1268C27.493 49.1714 27.493 49.2174 27.493 49.262C24.7888 49.8894 22.0832 52.622 22.0832 55.8873C22.0832 56.992 22.3671 58.0832 22.8972 59.0621C21.5234 60.325 20.7324 62.0908 20.7324 64C20.7324 67.7278 23.7652 70.7606 27.493 70.7606C29.7023 70.7606 31.667 69.6951 32.9014 68.0523C33.2841 68.562 33.7438 69.0082 34.2535 69.3909V71.5462C32.1105 71.1405 30.0039 71.5097 28.4638 71.9707C27.3334 72.3087 26.268 72.8307 25.2363 73.335C23.6787 74.0976 22.2076 74.8169 20.7324 74.8169V77.5211C22.8336 77.5211 24.659 76.6274 26.4248 75.7647C27.401 75.2875 28.3232 74.8358 29.2386 74.5614C30.5907 74.1571 32.4769 73.8299 34.2535 74.318V82.0615C34.1521 82.0751 34.0534 82.0791 33.9507 82.0926C32.1956 82.3306 30.4352 82.7187 28.7329 83.0946C25.9705 83.7057 23.3609 84.2817 20.7324 84.2817V86.9859C23.6557 86.9859 26.5343 86.3504 29.317 85.7352C31.0409 85.3539 32.6689 84.9943 34.313 84.7725C39.8675 84.018 44.6959 84.7238 49.0754 86.9264C51.7485 88.2704 54.3324 90.108 56.8298 91.8846C59.968 94.117 63.1888 96.4047 66.7976 97.9178C60.6022 100.172 53.8957 101.155 47.3717 102.097L46.4915 102.224C38.7493 103.346 31.0531 104.37 22.0845 104.563H20.7324V107.268H22.1129C31.264 107.07 39.0508 106.034 46.8809 104.9L47.7598 104.773C50.3707 104.396 53.0087 104.006 55.6413 103.541C58.3333 105.756 62.0719 107.008 65.9741 107.008C66.7867 107.008 67.6075 106.954 68.4241 106.844C71.8558 106.382 75.0887 104.915 78.2161 103.497C82.7038 101.462 86.9427 99.5389 91.5331 100.498C93.8993 100.992 96.0897 102.35 98.2085 103.663L98.6912 103.962C99.4024 104.401 99.9662 104.713 100.521 104.974C102.495 105.902 104.465 105.96 105.916 105.917H107.268V103.213H105.871C104.077 103.213 102.821 103.065 101.67 102.526C101.213 102.311 100.733 102.044 100.112 101.662L99.6336 101.366C97.3161 99.9297 94.9201 98.4424 92.0861 97.8502C86.6236 96.709 81.783 98.9089 77.0979 101.034C74.0138 102.434 71.1 103.756 68.0631 104.165C65.0493 104.573 61.9516 104.039 59.4664 102.8C63.4632 101.936 67.4019 100.79 71.1541 99.0698C72.6847 98.368 74.1368 97.5378 75.5417 96.7347C77.0249 95.8869 78.4257 95.0864 79.9239 94.4144C83.461 92.8298 86.7007 91.8224 89.8281 91.337C92.8487 90.8665 95.7287 90.9206 98.391 91.4993C99.4065 91.7197 100.214 92.1037 101.067 92.512C102.443 93.1678 103.863 93.8479 105.916 93.7465H107.268V91.0423H105.852C104.419 91.0423 103.453 90.6529 102.236 90.0715C101.324 89.6361 100.291 89.1439 98.9684 88.8573C95.9816 88.2096 92.7676 88.1447 89.4157 88.6653C86.0476 89.1899 82.5821 90.2635 78.8232 91.9468C77.2034 92.6729 75.6782 93.5437 74.2031 94.3874C72.9686 95.0932 71.7868 95.7503 70.5645 96.3425C67.0937 95.4218 64.0217 93.5842 60.9429 91.4641C60.9686 91.4641 60.9929 91.4668 61.0186 91.4668C68.3782 91.4668 76.4936 89.1682 82.5429 85.1836L82.7471 85.0484C90.3811 80.0185 98.2761 74.8169 107.268 74.8169V72.1127C100.925 72.1127 95.0838 74.4924 89.6902 77.5252V73.3337C92.2511 72.8523 93.7465 70.962 93.7465 68.0564C93.7465 67.6818 93.7168 67.2884 93.6681 66.8895C95.2352 67.1315 96.8361 67.456 98.3491 67.9928C101.07 68.9582 103.904 69.4085 107.268 69.4085ZM32.9014 62.6479C32.1551 62.6479 31.5493 63.2537 31.5493 64C31.5493 66.2364 29.7294 68.0564 27.493 68.0564C25.2566 68.0564 23.4366 66.2364 23.4366 64C23.4366 62.5722 24.1817 61.2742 25.431 60.5305C25.7717 60.3277 26.007 59.9829 26.0719 59.5908C26.1368 59.1987 26.0259 58.7971 25.769 58.4942C25.3215 57.9682 24.7888 57.0867 24.7888 55.8873C24.7888 53.6509 26.6087 51.831 28.7613 51.8283C28.8072 51.8351 28.9425 51.8486 28.9884 51.8499C29.4157 51.8675 29.8281 51.6796 30.0958 51.3456C30.3649 51.0116 30.4582 50.5695 30.3486 50.1544C30.2459 49.7596 30.1972 49.4324 30.1972 49.1268C30.1972 47.2825 31.4547 45.6735 33.2543 45.2138C33.8695 45.0569 34.2914 44.4944 34.2711 43.8603C34.2684 43.7805 34.2657 43.7089 34.2535 43.7183C34.2535 41.4819 36.0735 39.662 38.3099 39.662C40.5463 39.662 42.3662 41.4819 42.3703 43.625C42.3635 43.6751 42.3486 43.8116 42.3473 43.8603C42.327 44.4944 42.7502 45.0569 43.3641 45.2138C45.1651 45.6735 46.4226 47.2825 46.4226 49.1268C46.4226 49.4324 46.3739 49.7596 46.2698 50.153C46.1603 50.5681 46.2535 51.0103 46.5226 51.3442C46.7903 51.6782 47.1987 51.8662 47.63 51.8486C47.7084 51.8472 47.7828 51.8378 47.7747 51.831C50.0111 51.831 51.831 53.6509 51.831 55.8873C51.831 57.0867 51.2983 57.9682 50.8507 58.4942C50.5938 58.7984 50.483 59.1987 50.5479 59.5908C50.6128 59.9829 50.848 60.3263 51.1888 60.5305C52.4381 61.2742 53.1831 62.5722 53.1831 64C53.1831 66.2364 51.3632 68.0564 49.1268 68.0564C46.8904 68.0564 45.0705 66.2364 45.0705 64C45.0705 63.2537 44.4647 62.6479 43.7183 62.6479C42.972 62.6479 42.3662 63.2537 42.3662 64C42.3662 66.2364 40.5463 68.0564 38.3099 68.0564C36.0735 68.0564 34.2535 66.2364 34.2535 64C34.2535 63.2537 33.6478 62.6479 32.9014 62.6479ZM36.9578 81.8357V70.6145C37.3959 70.7038 37.8461 70.7606 38.3099 70.7606C38.7737 70.7606 39.2239 70.7038 39.662 70.6145V81.8317C38.775 81.7938 37.8732 81.7938 36.9578 81.8357ZM76.169 80.2254C74.2991 80.2254 73.4648 79.3911 73.4648 77.5211C73.4648 74.9102 75.0522 72.1127 76.169 72.1127C77.2859 72.1127 78.8733 74.9102 78.8733 77.5211C78.8733 79.3911 78.039 80.2254 76.169 80.2254ZM81.2584 82.7903L81.0542 82.9255C79.9468 83.6557 78.7583 84.3169 77.5225 84.9199V82.7971C80.0834 82.3157 81.5788 80.4255 81.5788 77.5198C81.5788 74.1327 79.5209 69.4071 76.1704 69.4071C72.8199 69.4071 70.7619 74.1327 70.7619 77.5198C70.7619 80.4255 72.2574 82.3144 74.8183 82.7971V86.1057C68.9515 88.3989 62.2869 89.3048 56.6351 88.4313C54.6028 87.0089 52.5057 85.6189 50.2923 84.5075C47.8247 83.2676 45.1746 82.4564 42.3676 82.0629V76.4827C44.1591 77.102 46.0223 77.5211 48.0951 77.5211C48.133 77.5211 48.1708 77.5211 48.2087 77.5211C50.6439 77.5211 53.2453 77.0722 55.9401 75.7282C57.8033 74.798 59.5475 73.9367 61.235 72.8401C62.4965 72.0207 63.7999 71.1743 65.1142 70.4415C68.0172 68.823 71.008 67.7386 74.003 67.2207C77.4617 66.6231 80.3579 66.4433 83.0432 66.6231C82.9702 67.1153 82.9296 67.598 82.9296 68.0564C82.9296 70.962 84.425 72.8509 86.9859 73.3337V79.1112C85.0146 80.316 83.1067 81.5721 81.2584 82.7903ZM88.3381 70.7606C86.4681 70.7606 85.6338 69.9263 85.6338 68.0564C85.6338 65.4454 87.2212 62.6479 88.3381 62.6479C89.4549 62.6479 91.0423 65.4454 91.0423 68.0564C91.0423 69.9263 90.208 70.7606 88.3381 70.7606Z"/>
</mask>
<path d="M107.268 69.4085V66.7042C104.221 66.7042 101.675 66.304 99.2523 65.4441C97.1565 64.7004 94.9905 64.3326 92.9379 64.0541C92.0456 61.8191 90.4487 59.9437 88.3381 59.9437C86.2558 59.9437 84.6752 61.7677 83.7747 63.9622C80.7148 63.7012 77.4495 63.8783 73.5432 64.5557C70.2481 65.125 66.9693 66.3108 63.7999 68.078C62.4059 68.8555 61.0632 69.7262 59.7639 70.5699C58.0656 71.6733 56.462 72.7117 54.7354 73.573C52.4097 74.7331 50.2044 75.324 48.1817 75.3456C46.2387 75.3862 44.339 74.629 42.3676 73.8583V69.3922C42.876 69.0082 43.337 68.5634 43.7197 68.0537C44.9528 69.6951 46.9174 70.7606 49.1268 70.7606C52.8546 70.7606 55.8874 67.7278 55.8874 64C55.8874 62.0908 55.0977 60.325 53.7213 59.0621C54.2527 58.0832 54.5352 56.992 54.5352 55.8873C54.5352 52.622 51.831 49.8907 49.1268 49.262C49.1268 49.2174 49.1268 49.1714 49.1268 49.1268C49.1268 46.3969 47.484 43.9766 45.0245 42.9287C44.6324 39.5714 41.7713 36.9578 38.3099 36.9578C34.8485 36.9578 31.9874 39.5714 31.5953 42.9287C29.1358 43.9766 27.493 46.3969 27.493 49.1268C27.493 49.1714 27.493 49.2174 27.493 49.262C24.7888 49.8894 22.0832 52.622 22.0832 55.8873C22.0832 56.992 22.3671 58.0832 22.8972 59.0621C21.5234 60.325 20.7324 62.0908 20.7324 64C20.7324 67.7278 23.7652 70.7606 27.493 70.7606C29.7023 70.7606 31.667 69.6951 32.9014 68.0523C33.2841 68.562 33.7438 69.0082 34.2535 69.3909V71.5462C32.1105 71.1405 30.0039 71.5097 28.4638 71.9707C27.3334 72.3087 26.268 72.8307 25.2363 73.335C23.6787 74.0976 22.2076 74.8169 20.7324 74.8169V77.5211C22.8336 77.5211 24.659 76.6274 26.4248 75.7647C27.401 75.2875 28.3232 74.8358 29.2386 74.5614C30.5907 74.1571 32.4769 73.8299 34.2535 74.318V82.0615C34.1521 82.0751 34.0534 82.0791 33.9507 82.0926C32.1956 82.3306 30.4352 82.7187 28.7329 83.0946C25.9705 83.7057 23.3609 84.2817 20.7324 84.2817V86.9859C23.6557 86.9859 26.5343 86.3504 29.317 85.7352C31.0409 85.3539 32.6689 84.9943 34.313 84.7725C39.8675 84.018 44.6959 84.7238 49.0754 86.9264C51.7485 88.2704 54.3324 90.108 56.8298 91.8846C59.968 94.117 63.1888 96.4047 66.7976 97.9178C60.6022 100.172 53.8957 101.155 47.3717 102.097L46.4915 102.224C38.7493 103.346 31.0531 104.37 22.0845 104.563H20.7324V107.268H22.1129C31.264 107.07 39.0508 106.034 46.8809 104.9L47.7598 104.773C50.3707 104.396 53.0087 104.006 55.6413 103.541C58.3333 105.756 62.0719 107.008 65.9741 107.008C66.7867 107.008 67.6075 106.954 68.4241 106.844C71.8558 106.382 75.0887 104.915 78.2161 103.497C82.7038 101.462 86.9427 99.5389 91.5331 100.498C93.8993 100.992 96.0897 102.35 98.2085 103.663L98.6912 103.962C99.4024 104.401 99.9662 104.713 100.521 104.974C102.495 105.902 104.465 105.96 105.916 105.917H107.268V103.213H105.871C104.077 103.213 102.821 103.065 101.67 102.526C101.213 102.311 100.733 102.044 100.112 101.662L99.6336 101.366C97.3161 99.9297 94.9201 98.4424 92.0861 97.8502C86.6236 96.709 81.783 98.9089 77.0979 101.034C74.0138 102.434 71.1 103.756 68.0631 104.165C65.0493 104.573 61.9516 104.039 59.4664 102.8C63.4632 101.936 67.4019 100.79 71.1541 99.0698C72.6847 98.368 74.1368 97.5378 75.5417 96.7347C77.0249 95.8869 78.4257 95.0864 79.9239 94.4144C83.461 92.8298 86.7007 91.8224 89.8281 91.337C92.8487 90.8665 95.7287 90.9206 98.391 91.4993C99.4065 91.7197 100.214 92.1037 101.067 92.512C102.443 93.1678 103.863 93.8479 105.916 93.7465H107.268V91.0423H105.852C104.419 91.0423 103.453 90.6529 102.236 90.0715C101.324 89.6361 100.291 89.1439 98.9684 88.8573C95.9816 88.2096 92.7676 88.1447 89.4157 88.6653C86.0476 89.1899 82.5821 90.2635 78.8232 91.9468C77.2034 92.6729 75.6782 93.5437 74.2031 94.3874C72.9686 95.0932 71.7868 95.7503 70.5645 96.3425C67.0937 95.4218 64.0217 93.5842 60.9429 91.4641C60.9686 91.4641 60.9929 91.4668 61.0186 91.4668C68.3782 91.4668 76.4936 89.1682 82.5429 85.1836L82.7471 85.0484C90.3811 80.0185 98.2761 74.8169 107.268 74.8169V72.1127C100.925 72.1127 95.0838 74.4924 89.6902 77.5252V73.3337C92.2511 72.8523 93.7465 70.962 93.7465 68.0564C93.7465 67.6818 93.7168 67.2884 93.6681 66.8895C95.2352 67.1315 96.8361 67.456 98.3491 67.9928C101.07 68.9582 103.904 69.4085 107.268 69.4085ZM32.9014 62.6479C32.1551 62.6479 31.5493 63.2537 31.5493 64C31.5493 66.2364 29.7294 68.0564 27.493 68.0564C25.2566 68.0564 23.4366 66.2364 23.4366 64C23.4366 62.5722 24.1817 61.2742 25.431 60.5305C25.7717 60.3277 26.007 59.9829 26.0719 59.5908C26.1368 59.1987 26.0259 58.7971 25.769 58.4942C25.3215 57.9682 24.7888 57.0867 24.7888 55.8873C24.7888 53.6509 26.6087 51.831 28.7613 51.8283C28.8072 51.8351 28.9425 51.8486 28.9884 51.8499C29.4157 51.8675 29.8281 51.6796 30.0958 51.3456C30.3649 51.0116 30.4582 50.5695 30.3486 50.1544C30.2459 49.7596 30.1972 49.4324 30.1972 49.1268C30.1972 47.2825 31.4547 45.6735 33.2543 45.2138C33.8695 45.0569 34.2914 44.4944 34.2711 43.8603C34.2684 43.7805 34.2657 43.7089 34.2535 43.7183C34.2535 41.4819 36.0735 39.662 38.3099 39.662C40.5463 39.662 42.3662 41.4819 42.3703 43.625C42.3635 43.6751 42.3486 43.8116 42.3473 43.8603C42.327 44.4944 42.7502 45.0569 43.3641 45.2138C45.1651 45.6735 46.4226 47.2825 46.4226 49.1268C46.4226 49.4324 46.3739 49.7596 46.2698 50.153C46.1603 50.5681 46.2535 51.0103 46.5226 51.3442C46.7903 51.6782 47.1987 51.8662 47.63 51.8486C47.7084 51.8472 47.7828 51.8378 47.7747 51.831C50.0111 51.831 51.831 53.6509 51.831 55.8873C51.831 57.0867 51.2983 57.9682 50.8507 58.4942C50.5938 58.7984 50.483 59.1987 50.5479 59.5908C50.6128 59.9829 50.848 60.3263 51.1888 60.5305C52.4381 61.2742 53.1831 62.5722 53.1831 64C53.1831 66.2364 51.3632 68.0564 49.1268 68.0564C46.8904 68.0564 45.0705 66.2364 45.0705 64C45.0705 63.2537 44.4647 62.6479 43.7183 62.6479C42.972 62.6479 42.3662 63.2537 42.3662 64C42.3662 66.2364 40.5463 68.0564 38.3099 68.0564C36.0735 68.0564 34.2535 66.2364 34.2535 64C34.2535 63.2537 33.6478 62.6479 32.9014 62.6479ZM36.9578 81.8357V70.6145C37.3959 70.7038 37.8461 70.7606 38.3099 70.7606C38.7737 70.7606 39.2239 70.7038 39.662 70.6145V81.8317C38.775 81.7938 37.8732 81.7938 36.9578 81.8357ZM76.169 80.2254C74.2991 80.2254 73.4648 79.3911 73.4648 77.5211C73.4648 74.9102 75.0522 72.1127 76.169 72.1127C77.2859 72.1127 78.8733 74.9102 78.8733 77.5211C78.8733 79.3911 78.039 80.2254 76.169 80.2254ZM81.2584 82.7903L81.0542 82.9255C79.9468 83.6557 78.7583 84.3169 77.5225 84.9199V82.7971C80.0834 82.3157 81.5788 80.4255 81.5788 77.5198C81.5788 74.1327 79.5209 69.4071 76.1704 69.4071C72.8199 69.4071 70.7619 74.1327 70.7619 77.5198C70.7619 80.4255 72.2574 82.3144 74.8183 82.7971V86.1057C68.9515 88.3989 62.2869 89.3048 56.6351 88.4313C54.6028 87.0089 52.5057 85.6189 50.2923 84.5075C47.8247 83.2676 45.1746 82.4564 42.3676 82.0629V76.4827C44.1591 77.102 46.0223 77.5211 48.0951 77.5211C48.133 77.5211 48.1708 77.5211 48.2087 77.5211C50.6439 77.5211 53.2453 77.0722 55.9401 75.7282C57.8033 74.798 59.5475 73.9367 61.235 72.8401C62.4965 72.0207 63.7999 71.1743 65.1142 70.4415C68.0172 68.823 71.008 67.7386 74.003 67.2207C77.4617 66.6231 80.3579 66.4433 83.0432 66.6231C82.9702 67.1153 82.9296 67.598 82.9296 68.0564C82.9296 70.962 84.425 72.8509 86.9859 73.3337V79.1112C85.0146 80.316 83.1067 81.5721 81.2584 82.7903ZM88.3381 70.7606C86.4681 70.7606 85.6338 69.9263 85.6338 68.0564C85.6338 65.4454 87.2212 62.6479 88.3381 62.6479C89.4549 62.6479 91.0423 65.4454 91.0423 68.0564C91.0423 69.9263 90.208 70.7606 88.3381 70.7606Z" fill="#444444" stroke="#D4D4D4" mask="url(#path-15-inside-1_2169_54818)"/>
<path d="M23.6875 97.6021H25.8917V99.8063H23.6875V97.6021Z" fill="#444444" stroke="#D4D4D4" stroke-width="0.5"/>
<path d="M29.0957 97.6021H31.2999V99.8063H29.0957V97.6021Z" fill="#444444" stroke="#D4D4D4" stroke-width="0.5"/>
<path d="M30.2461 97.8521H31.9503V99.5563H30.2461V97.8521Z" fill="#444444" stroke="#444444"/>
</svg>
