<svg width="128" height="128" viewBox="0 0 128 128" fill="none" xmlns="http://www.w3.org/2000/svg">
<path d="M105.318 95.9959H100.799V51.5508H102.715C103.294 51.5508 103.763 51.0816 103.763 50.5029V43.1559C103.763 42.5772 103.294 42.108 102.715 42.108H100.799V36.3631H102.715C103.294 36.3631 103.763 35.8939 103.763 35.3152C103.763 34.7365 103.294 34.2673 102.715 34.2673H67.5943V31.0765H69.2408C69.8195 31.0765 70.2887 30.6073 70.2887 30.0287V22.6817C70.2887 22.103 69.8195 21.6338 69.2408 21.6338H26.5563C25.9776 21.6338 25.5084 22.103 25.5084 22.6817V30.0287C25.5084 30.6073 25.9776 31.0765 26.5563 31.0765H28.1021V51.1496C28.1021 51.1513 28.103 51.1528 28.103 51.1545C26.5892 52.6317 25.6527 54.6311 25.6527 56.8347C25.6527 57.8048 25.8344 58.7535 26.1941 59.6632C24.8796 61.3143 24.1633 63.3216 24.1633 65.3856C24.1633 66.5763 24.3981 67.7383 24.8622 68.8491C23.3569 70.752 22.5352 73.0693 22.5352 75.4465C22.5352 79.3983 24.7636 82.8655 28.1021 84.8352V95.9959H23.583C23.0044 95.9959 22.5352 96.4651 22.5352 97.0438V104.417C22.5352 104.996 23.0044 105.465 23.583 105.465H105.318C105.897 105.465 106.366 104.996 106.366 104.417V97.0438C106.366 96.4651 105.897 95.9959 105.318 95.9959ZM98.7035 95.9959H92.5359V83.8275C92.5359 78.8352 88.4748 74.7742 83.4825 74.7742C78.4902 74.7742 74.4291 78.8352 74.4291 83.8275V95.9959H67.5943V51.5508H98.7035V95.9959ZM90.4401 95.9959H76.5249V83.8275C76.5249 79.9911 79.646 76.8699 83.4825 76.8699C87.3189 76.8699 90.4401 79.9911 90.4401 83.8275V95.9959V95.9959ZM101.667 49.455H67.5943V44.2038H101.667V49.455ZM84.1968 42.108V36.3631H90.4022V42.108H84.1968ZM82.101 42.108H75.8955V36.3631H82.101V42.108ZM98.7035 42.108H92.498V36.3631H98.7035V42.108ZM73.7998 36.3631V42.108H67.5943V36.3631H73.7998ZM27.6042 23.7296H68.193V28.9808H27.6042V23.7296ZM65.4985 31.0765V95.9959H35.5444L35.5114 86.5042C41.5678 85.993 46.3311 81.2317 46.3311 75.4465C46.3311 73.2254 45.6301 71.081 44.3044 69.2456C44.2077 69.1111 44.1074 68.9791 44.0041 68.8486C44.4681 67.7383 44.7025 66.5763 44.7025 65.3856C44.7025 63.3211 43.9861 61.3138 42.6722 59.6632C43.0319 58.754 43.2135 57.8053 43.2135 56.8347C43.2135 56.6961 43.2094 56.5579 43.2023 56.4187C42.9684 52.044 39.1166 48.6169 34.4329 48.6169C32.8976 48.6169 31.4547 48.9898 30.1978 49.6406V31.0765H65.4985ZM24.6309 75.4465C24.6309 73.3599 25.4266 71.3245 26.872 69.7148C27.1611 69.393 27.2225 68.9269 27.0271 68.5411C26.5174 67.5362 26.259 66.4745 26.259 65.3856C26.259 63.6219 26.9452 61.9048 28.1911 60.5509C28.4853 60.2306 28.5518 59.7625 28.3574 59.3731C27.9537 58.5636 27.7485 57.7097 27.7485 56.8347C27.7485 53.4588 30.7468 50.7127 34.4329 50.7127C38.0028 50.7127 40.9351 53.2679 41.1096 56.5282C41.1147 56.6295 41.1178 56.7319 41.1178 56.8347C41.1178 57.7097 40.9126 58.5636 40.5084 59.3731C40.3139 59.7619 40.3799 60.2306 40.6747 60.5509C41.9206 61.9043 42.6067 63.6214 42.6067 65.3856C42.6067 66.475 42.3483 67.5367 41.8392 68.5411C41.6438 68.9269 41.7051 69.393 41.9942 69.7148C42.2112 69.9568 42.4159 70.2096 42.6057 70.4726C43.672 71.9488 44.2353 73.6685 44.2353 75.4465C44.2353 80.0832 40.4067 83.9103 35.5041 84.4029L35.488 79.7618L38.934 76.3158C39.3433 75.9065 39.3433 75.2434 38.934 74.834C38.5246 74.4247 37.8615 74.4247 37.4522 74.834L35.4777 76.8085L35.4644 72.9767C35.4623 72.399 34.9937 71.9324 34.4165 71.9324C34.4155 71.9324 34.4139 71.9324 34.4129 71.9324C33.8342 71.9344 33.3666 72.4052 33.3686 72.9838L33.3814 76.6699L31.5456 74.834C31.1362 74.4247 30.4731 74.4247 30.0638 74.834C29.6544 75.2434 29.6544 75.9065 30.0638 76.3158L33.3918 79.6438L33.4083 84.4095C28.4835 83.9368 24.6309 80.0981 24.6309 75.4465ZM30.1978 85.815C31.2127 86.1776 32.2903 86.4175 33.4156 86.5071L33.4486 95.9959H30.1978V85.815ZM104.27 103.369H24.6309V98.0917H104.27V103.369Z" fill="#444444" stroke="#D4D4D4" stroke-width="0.5"/>
<path d="M86.712 66.7041H93.5678C94.1637 66.7041 94.6469 66.2208 94.6469 65.6248V60.3947C94.6469 57.9093 92.6251 55.8872 90.1396 55.8872C87.6546 55.8872 85.6328 57.9093 85.6328 60.3947V65.6248C85.6328 66.2208 86.116 66.7041 86.712 66.7041ZM87.7911 60.3947C87.7911 59.0993 88.8444 58.0458 90.1396 58.0458C91.4348 58.0458 92.4886 59.0993 92.4886 60.3947V64.5455H87.7911V60.3947V60.3947Z" fill="#444444" stroke="#D4D4D4" stroke-width="0.5"/>
<path d="M73.0845 66.7041H79.2547C79.7911 66.7041 80.226 66.2208 80.226 65.6248V60.3947C80.226 57.9093 78.4063 55.8872 76.1699 55.8872C73.9329 55.8872 72.1133 57.9093 72.1133 60.3947V65.6248C72.1133 66.2208 72.5482 66.7041 73.0845 66.7041ZM74.0557 60.3947C74.0557 59.0993 75.0042 58.0458 76.1699 58.0458C77.3355 58.0458 78.2835 59.0993 78.2835 60.3947V64.5455H74.0557V60.3947V60.3947Z" fill="#444444" stroke="#D4D4D4" stroke-width="0.5"/>
<path d="M52.3521 86.5351H58.5223C59.0587 86.5351 59.4935 86.0921 59.4935 85.5457V80.7515C59.4935 78.4733 57.6739 76.6196 55.437 76.6196C53.2005 76.6196 51.3809 78.4733 51.3809 80.7515V85.5457C51.3809 86.0921 51.8157 86.5351 52.3521 86.5351ZM53.3233 80.7515C53.3233 79.5641 54.2713 78.5984 55.437 78.5984C56.6026 78.5984 57.5511 79.5641 57.5511 80.7515V84.5564H53.3233V80.7515Z" fill="#444444" stroke="#D4D4D4" stroke-width="0.5"/>
<path d="M52.3521 66.7041H58.5223C59.0587 66.7041 59.4935 66.2209 59.4935 65.6248V60.395C59.4935 57.9092 57.6739 55.8872 55.437 55.8872C53.2005 55.8872 51.3809 57.9092 51.3809 60.395V65.6248C51.3809 66.2209 51.8157 66.7041 52.3521 66.7041ZM53.3233 60.395C53.3233 59.0997 54.2713 58.0457 55.437 58.0457C56.6026 58.0457 57.5511 59.0997 57.5511 60.395V64.5456H53.3233V60.395Z" fill="#444444" stroke="#D4D4D4" stroke-width="0.5"/>
<path d="M52.3521 45.9719H58.5223C59.0587 45.9719 59.4935 45.4887 59.4935 44.8926V39.6631C59.4935 37.1772 57.6739 35.155 55.437 35.155C53.2005 35.155 51.3809 37.1772 51.3809 39.6631V44.8926C51.3809 45.4887 51.8157 45.9719 52.3521 45.9719ZM53.3233 39.6631C53.3233 38.3677 54.2713 37.3137 55.437 37.3137C56.6026 37.3137 57.5511 38.3677 57.5511 39.6631V43.8133H53.3233V39.6631Z" fill="#444444" stroke="#D4D4D4" stroke-width="0.5"/>
<path d="M37.0279 45.9719H43.1981C43.7344 45.9719 44.1693 45.4887 44.1693 44.8926V39.6631C44.1693 37.1772 42.3497 35.155 40.1132 35.155C37.8763 35.155 36.0566 37.1772 36.0566 39.6631V44.8926C36.0566 45.4887 36.4915 45.9719 37.0279 45.9719ZM37.9991 39.6631C37.9991 38.3677 38.9476 37.3137 40.1132 37.3137C41.2789 37.3137 42.2269 38.3677 42.2269 39.6631V43.8133H37.9991V39.6631Z" fill="#444444" stroke="#D4D4D4" stroke-width="0.5"/>
</svg>
