<svg width="128" height="128" viewBox="0 0 128 128" fill="none" xmlns="http://www.w3.org/2000/svg">
<path d="M110.873 104.408H17.127" stroke="#16246B" stroke-width="1.8" stroke-linecap="round" stroke-linejoin="round"/>
<path d="M88.2448 46.2205H20.3594V104.408H88.2448V46.2205Z" stroke="#16246B" stroke-width="1.8" stroke-linecap="round" stroke-linejoin="round"/>
<path d="M88.245 39.7554H20.3596C18.5743 39.7554 17.127 41.2027 17.127 42.988C17.127 44.7733 18.5743 46.2206 20.3596 46.2206H88.245C90.0303 46.2206 91.4776 44.7733 91.4776 42.988C91.4776 41.2027 90.0303 39.7554 88.245 39.7554Z" stroke="#16246B" stroke-width="1.8" stroke-linecap="round" stroke-linejoin="round"/>
<path d="M88.2448 52.6858H20.3594V78.5469H88.2448V52.6858Z" stroke="#16246B" stroke-width="1.8" stroke-linecap="round" stroke-linejoin="round"/>
<path d="M26.8242 85.0122H51.069" stroke="#16246B" stroke-width="1.8" stroke-linecap="round" stroke-linejoin="round"/>
<path d="M26.8242 91.4775H51.069" stroke="#16246B" stroke-width="1.8" stroke-linecap="round" stroke-linejoin="round"/>
<path d="M26.8242 96.3264H51.069" stroke="#16246B" stroke-width="1.8" stroke-linecap="round" stroke-linejoin="round"/>
<path d="M30.0566 85.0122V104.408" stroke="#16246B" stroke-width="1.8" stroke-linecap="round" stroke-linejoin="round"/>
<path d="M47.8359 85.0122V104.408" stroke="#16246B" stroke-width="1.8" stroke-linecap="round" stroke-linejoin="round"/>
<path d="M57.5352 85.0122H81.7799" stroke="#16246B" stroke-width="1.8" stroke-linecap="round" stroke-linejoin="round"/>
<path d="M57.5352 91.4775H81.7799" stroke="#16246B" stroke-width="1.8" stroke-linecap="round" stroke-linejoin="round"/>
<path d="M57.5352 96.3264H81.7799" stroke="#16246B" stroke-width="1.8" stroke-linecap="round" stroke-linejoin="round"/>
<path d="M60.7676 85.0122V104.408" stroke="#16246B" stroke-width="1.8" stroke-linecap="round" stroke-linejoin="round"/>
<path d="M78.5469 85.0122V104.408" stroke="#16246B" stroke-width="1.8" stroke-linecap="round" stroke-linejoin="round"/>
<path fill-rule="evenodd" clip-rule="evenodd" d="M30.0569 33.29H78.5464C80.3318 33.29 81.7791 34.7373 81.7791 36.5227V39.7553H26.8242V36.5227C26.8242 34.7373 28.2715 33.29 30.0569 33.29Z" stroke="#16246B" stroke-width="1.8" stroke-linecap="round" stroke-linejoin="round"/>
<path d="M76.9297 59.1511L81.7786 64.0001" stroke="#16246B" stroke-width="1.8" stroke-linecap="round" stroke-linejoin="round"/>
<path d="M67.2324 59.1511L80.163 72.0817" stroke="#16246B" stroke-width="1.8" stroke-linecap="round" stroke-linejoin="round"/>
<path d="M41.3711 59.1511L46.2201 64.0001" stroke="#16246B" stroke-width="1.8" stroke-linecap="round" stroke-linejoin="round"/>
<path d="M31.6738 59.1511L44.6044 72.0817" stroke="#16246B" stroke-width="1.8" stroke-linecap="round" stroke-linejoin="round"/>
<path fill-rule="evenodd" clip-rule="evenodd" d="M104.408 81.7795C106.194 81.7795 107.641 83.2268 107.641 85.0122V104.408H101.176V85.0122C101.176 83.2268 102.623 81.7795 104.408 81.7795Z" stroke="#16246B" stroke-width="1.8" stroke-linecap="round" stroke-linejoin="round"/>
<path d="M104.408 81.7796V36.5227" stroke="#16246B" stroke-width="1.8" stroke-linecap="round" stroke-linejoin="round"/>
<path d="M104.409 36.5226C107.979 36.5226 110.874 33.628 110.874 30.0573C110.874 26.4866 107.979 23.592 104.409 23.592C100.838 23.592 97.9434 26.4866 97.9434 30.0573C97.9434 33.628 100.838 36.5226 104.409 36.5226Z" stroke="#16246B" stroke-width="1.8" stroke-linecap="round" stroke-linejoin="round"/>
</svg>
